<svg xmlns="http://www.w3.org/2000/svg" viewBox="0 0 87.0 127.99999999999987" width="87" height="127">
  <g transform="translate(3.00,0.00) scale(0.8500,0.7800)">
    <path d="M 20.13 100 L 20.13 95.86 L 24.16 93.67 L 24.16 54.01 L 0 54.01 L 0.22 50.36 C 0.89,41.61 5.59,33.82 12.75,29.68 C 14.32,28.71 15.44,27.25 15.66,25.3 C 17,19.22 20.81,13.87 26.17,11.19 C 28.41,10.22 30.87,9.49 33.33,9.49 C 33.78,9.49 34.45,9.49 34.9,9.49 C 35.12,9.49 35.35,9.49 35.57,9.49 C 37.14,9.49 38.48,8.76 39.6,7.54 C 43.85,2.68 49.66,0 55.7,0 C 63.98,0 71.59,5.11 75.39,13.14 C 76.29,14.84 77.63,16.06 79.42,16.55 C 81.88,17.03 84.34,18.25 86.58,19.71 C 96.64,26.52 100,40.63 94.41,52.07 L 93.51 53.77 L 73.15 53.77 L 73.15 56.93 L 87.92 56.93 L 87.92 91.97 L 74.27 91.97 L 74.27 92.94 L 79.19 95.62 L 79.19 99.76 L 20.13 99.76 L 20.13 100 L 20.13 100" fill="#FFFFFF" stroke="none" stroke-width="0.5"/>
  </g>
  <g transform="translate(3.00,0.00) scale(0.8700,0.8000)">
    <path d="M 55.46 2.38 C 63.32,2.38 70.09,7.14 73.58,14.76 C 74.67,16.67 76.42,18.1 78.38,18.57 C 80.79,19.05 82.97,20.24 84.93,21.43 C 94.1,27.86 97.38,40.95 92.14,51.43 L 91.7 52.62 L 71.4 52.62 L 71.4 58.09 L 85.81 58.09 L 85.81 90 L 72.49 90 L 72.92 93.33 L 73.58 93.33 L 77.51 95.48 L 77.51 97.62 L 76.42 97.62 L 74.89 97.62 L 73.36 97.62 L 72.27 97.62 L 71.18 97.62 L 58.95 97.62 L 55.02 97.62 L 25.76 97.62 L 21.83 97.62 L 21.83 95.48 L 25.76 93.33 L 25.76 52.86 L 2.4 52.86 L 2.62 50.48 C 3.27,42.14 7.42,35 14.19,31.19 C 15.94,30.24 17.25,28.33 17.69,26.19 C 18.78,20.48 22.27,15.71 27.07,13.33 C 29.26,12.38 31.44,11.9 33.62,11.9 C 34.06,11.9 34.72,11.9 35.15,11.9 C 35.37,11.9 35.59,11.9 35.81,11.9 C 37.55,11.9 39.3,11.19 40.61,9.76 C 44.54,5 50,2.38 55.46,2.38 L 55.46 2.38 M 55.46 0 C 49.13,0 43.23,2.86 38.86,7.86 C 37.99,8.81 36.9,9.29 35.81,9.29 C 35.59,9.29 35.59,9.29 35.37,9.29 C 34.72,9.29 34.28,9.29 33.62,9.29 C 31,9.29 28.38,9.76 26.2,10.95 C 20.74,13.57 16.59,19.05 15.5,25.48 C 15.28,26.9 14.41,28.33 13.1,29.05 C 5.68,33.33 0.87,41.19 0.22,50.24 L 0 52.62 L 0 55 L 2.4 55 L 23.58 55 L 23.58 91.67 L 20.74 93.1 L 19.65 94.05 L 19.65 95.48 L 19.65 97.62 L 19.65 100 L 21.83 100 L 25.76 100 L 55.02 100 L 58.95 100 L 71.4 100 L 72.49 100 L 73.58 100 L 75.11 100 L 76.42 100 L 77.51 100 L 79.69 100 L 79.69 97.62 L 79.69 95.48 L 79.69 94.05 L 78.38 93.33 L 76.64 92.38 L 85.81 92.38 L 87.99 92.38 L 87.99 90 L 87.99 58.09 L 87.99 55.71 L 85.81 55.71 L 73.58 55.71 L 73.58 55 L 91.7 55 L 93.01 55 L 93.67 53.81 L 94.32 52.62 C 100,40.95 96.51,26.43 86.24,19.52 C 84.06,17.86 81.44,16.9 79.04,16.19 C 77.73,15.95 76.42,14.76 75.76,13.57 C 71.83,5.24 64.19,0 55.46,0 L 55.46 0" fill="#FFFFFF" stroke="none" stroke-width="0.5"/>
  </g>
  <g transform="translate(5.00,1.00) scale(0.8200,0.4000)">
    <path d="M 86.9 38.39 C 84.83,35.54 82.3,33.65 80,32.7 C 77.93,31.28 76.09,28.44 75.17,24.64 C 71.49,9.48 64.14,0 55.86,0 C 49.89,0 44.14,5.21 40.23,14.22 C 38.85,17.54 36.78,18.96 34.48,18.48 C 31.49,18.01 28.51,18.96 25.98,21.33 C 20.92,26.07 17.01,35.54 16.09,46.92 C 15.63,51.18 14.25,54.98 12.41,56.87 C 5.29,64.45 0.69,78.67 0.23,95.26 L 0 100 L 21.61 100 L 21.61 91.47 L 4.6 91.47 C 5.75,80.09 9.19,70.14 14.25,64.45 C 17.24,61.14 19.54,55.45 20,48.34 C 20.92,39.81 23.68,32.23 27.59,28.91 C 29.65,27.49 31.95,26.54 34.25,27.01 C 37.7,27.49 41.15,25.12 43.45,19.9 C 46.67,12.8 51.26,8.53 56.09,8.53 C 62.76,8.53 68.51,16.11 71.49,28.44 C 73.1,34.6 75.86,39.34 79.31,40.76 C 81.38,41.71 83.22,43.13 84.83,45.5 C 92.41,55.45 95.17,74.88 91.49,91.47 L 75.63 91.47 L 75.63 100 L 94.02 100 L 94.71 97.63 C 100,77.25 96.78,50.71 86.9,38.39 L 86.9 38.39" fill="#2c5967" stroke="none" stroke-width="0.5"/>
  </g>
  <g transform="translate(31.00,33.00) scale(0.0300,0.0300)">
    <path d="M 100 0 L 0 0 L 0 100 L 100 100 L 100 0 L 100 0" fill="#2c5967" stroke="none" stroke-width="0.5"/>
  </g>
  <g transform="translate(37.00,33.00) scale(0.0300,0.0300)">
    <path d="M 100 0 L 0 0 L 0 100 L 100 100 L 100 0 L 100 0" fill="#2c5967" stroke="none" stroke-width="0.5"/>
  </g>
  <g transform="translate(43.00,33.00) scale(0.0300,0.0300)">
    <path d="M 100 0 L 0 0 L 0 100 L 100 100 L 100 0 L 100 0" fill="#2c5967" stroke="none" stroke-width="0.5"/>
  </g>
  <g transform="translate(31.00,39.00) scale(0.0300,0.0300)">
    <path d="M 100 0 L 0 0 L 0 100 L 100 100 L 100 0 L 100 0" fill="#2c5967" stroke="none" stroke-width="0.5"/>
  </g>
  <g transform="translate(37.00,39.00) scale(0.0300,0.0300)">
    <path d="M 100 0 L 0 0 L 0 100 L 100 100 L 100 0 L 100 0" fill="#2c5967" stroke="none" stroke-width="0.5"/>
  </g>
  <g transform="translate(31.00,45.00) scale(0.0300,0.0300)">
    <path d="M 100 0 L 0 0 L 0 100 L 100 100 L 100 0 L 100 0" fill="#2c5967" stroke="none" stroke-width="0.5"/>
  </g>
  <g transform="translate(37.00,45.00) scale(0.0300,0.0300)">
    <path d="M 100 0 L 0 0 L 0 100 L 100 100 L 100 0 L 100 0" fill="#2c5967" stroke="none" stroke-width="0.5"/>
  </g>
  <g transform="translate(31.00,51.00) scale(0.0300,0.0300)">
    <path d="M 100 0 L 0 0 L 0 100 L 100 100 L 100 0 L 100 0" fill="#2c5967" stroke="none" stroke-width="0.5"/>
  </g>
  <g transform="translate(37.00,51.00) scale(0.0300,0.0300)">
    <path d="M 100 0 L 0 0 L 0 100 L 100 100 L 100 0 L 100 0" fill="#2c5967" stroke="none" stroke-width="0.5"/>
  </g>
  <g transform="translate(31.00,57.00) scale(0.0300,0.0300)">
    <path d="M 100 0 L 0 0 L 0 100 L 100 100 L 100 0 L 100 0" fill="#2c5967" stroke="none" stroke-width="0.5"/>
  </g>
  <g transform="translate(37.00,57.00) scale(0.0300,0.0300)">
    <path d="M 100 0 L 0 0 L 0 100 L 100 100 L 100 0 L 100 0" fill="#2c5967" stroke="none" stroke-width="0.5"/>
  </g>
  <g transform="translate(31.00,63.00) scale(0.0300,0.0300)">
    <path d="M 100 0 L 0 0 L 0 100 L 100 100 L 100 0 L 100 0" fill="#2c5967" stroke="none" stroke-width="0.5"/>
  </g>
  <g transform="translate(37.00,63.00) scale(0.0300,0.0300)">
    <path d="M 100 0 L 0 0 L 0 100 L 100 100 L 100 0 L 100 0" fill="#2c5967" stroke="none" stroke-width="0.5"/>
  </g>
  <g transform="translate(43.00,39.00) scale(0.0300,0.0300)">
    <path d="M 100 0 L 0 0 L 0 100 L 100 100 L 100 0 L 100 0" fill="#2c5967" stroke="none" stroke-width="0.5"/>
  </g>
  <g transform="translate(49.00,33.00) scale(0.0300,0.0300)">
    <path d="M 100 0 L 0 0 L 0 100 L 100 100 L 100 0 L 100 0" fill="#2c5967" stroke="none" stroke-width="0.5"/>
  </g>
  <g transform="translate(49.00,39.00) scale(0.0300,0.0300)">
    <path d="M 100 0 L 0 0 L 0 100 L 100 100 L 100 0 L 100 0" fill="#2c5967" stroke="none" stroke-width="0.5"/>
  </g>
  <g transform="translate(55.00,33.00) scale(0.0300,0.0300)">
    <path d="M 100 0 L 0 0 L 0 100 L 100 100 L 100 0 L 100 0" fill="#2c5967" stroke="none" stroke-width="0.5"/>
  </g>
  <g transform="translate(55.00,39.00) scale(0.0300,0.0300)">
    <path d="M 100 0 L 0 0 L 0 100 L 100 100 L 100 0 L 100 0" fill="#2c5967" stroke="none" stroke-width="0.5"/>
  </g>
  <g transform="translate(21.00,22.00) scale(0.5500,0.5500)">
    <path d="M 77.74 37.72 L 77.74 8.65 L 54.79 8.65 L 42.12 0 L 30.14 8.65 L 6.16 8.65 L 6.16 93.42 L 0 96.89 L 0 100 L 6.16 100 L 46.57 100 L 46.57 96.89 L 51.71 93.77 L 12.33 93.77 L 12.33 15.22 L 31.85 15.22 L 41.78 7.96 L 52.4 15.22 L 71.23 15.22 L 71.23 37.72 L 77.74 37.72 L 77.74 37.72 M 39.04 42.56 L 39.04 88.93 L 59.93 88.93 L 59.25 93.77 L 58.22 93.77 L 52.05 96.89 L 52.05 100 L 86.99 100 L 86.99 96.89 L 80.82 93.77 L 79.79 93.77 L 79.11 88.93 L 100 88.93 L 100 42.56 L 77.4 42.56 L 39.04 42.56 L 39.04 42.56 M 73.29 88.93 L 73.97 93.77 L 71.92 93.77 L 65.75 93.77 L 66.44 88.93 L 73.29 88.93 L 73.29 88.93 M 94.18 82.7 L 45.2 82.7 L 45.2 82.01 L 45.2 75.78 L 45.2 70.93 L 45.2 64.7 L 45.2 59.86 L 45.2 53.63 L 45.2 48.79 L 50 48.79 L 56.16 48.79 L 60.96 48.79 L 67.12 48.79 L 94.52 48.79 L 94.52 82.7 L 94.18 82.7 L 94.18 82.7" fill="#2c5967" stroke="none" stroke-width="0.5"/>
  </g>
  <g transform="translate(49.00,52.00) scale(0.2200,0.1000)">
    <path d="M 45.3 32.72 C 41.88,12.72 33.33,0 23.08,0 C 10.26,0 0,21.82 0,49.09 C 0,76.37 10.26,98.18 23.08,98.18 C 33.33,98.18 41.88,83.63 45.3,65.45 L 56.41 65.45 L 56.41 89.09 L 72.65 89.09 L 72.65 63.63 L 84.62 63.63 L 84.62 100 L 100 100 L 100 29.09 L 45.3 29.09 L 45.3 32.72 L 45.3 32.72 M 16.24 49.09 C 16.24,40 19.66,32.72 23.93,32.72 C 28.2,32.72 31.62,40 31.62,49.09 C 31.62,58.18 28.2,65.45 23.93,65.45 C 19.66,65.45 16.24,58.18 16.24,49.09 L 16.24 49.09" fill="#2c5967" stroke="none" stroke-width="0.5"/>
  </g>
</svg>