<svg xmlns="http://www.w3.org/2000/svg" viewBox="0 0 85.0 103.99999999999994" width="85" height="103">
  <g transform="translate(1.00,-0.00) scale(0.8300,0.7800)">
    <path d="M 65.57 100 L 65.57 72.86 L 62.48 76.11 L 59.68 73.35 C 57.75,76.31 55.29,78.84 52.44,80.8 L 52.16 80.97 C 51.38,81.48 50.76,81.84 50.12,82.18 L 49.46 82.52 C 48.86,82.81 48.27,83.08 47.67,83.32 L 46.84 83.64 C 46.27,83.86 45.68,84.03 45.06,84.2 L 44.16 84.44 C 43.54,84.6 42.92,84.72 42.28,84.8 L 41.99 84.8 L 41.39 84.8 C 40.5,84.9 39.6,84.95 38.71,84.95 L 38.53 84.95 C 37.61,84.95 36.78,84.95 35.98,84.95 C 29.7,84.26 23.89,81.13 19.66,76.17 C 15.42,71.21 13.08,64.76 13.06,58.08 C 13.06,56.76 13.14,55.45 13.32,54.15 L 0 54.15 L 0.25 50.48 C 0.55,46.17 1.88,42.01 4.13,38.4 C 6.37,34.79 9.44,31.84 13.06,29.85 C 13.85,29.42 14.53,28.8 15.06,28.06 C 15.59,27.31 15.96,26.44 16.14,25.53 C 16.95,21.11 19.19,17.13 22.48,14.27 C 25.76,11.41 29.88,9.85 34.13,9.85 C 34.7,9.81 35.27,9.81 35.84,9.85 L 36.42 9.85 C 37.19,9.86 37.96,9.7 38.67,9.38 C 39.38,9.05 40.02,8.58 40.54,7.98 C 43.01,5.14 46.1,2.98 49.53,1.68 C 52.97,0.39 56.65,0 60.26,0.55 C 63.87,1.09 67.29,2.56 70.25,4.83 C 73.2,7.09 75.59,10.08 77.21,13.54 C 77.6,14.4 78.16,15.17 78.86,15.77 C 79.57,16.38 80.39,16.81 81.27,17.03 C 83.85,17.64 86.32,18.71 88.56,20.21 C 93.47,23.51 97.03,28.66 98.52,34.63 C 100,40.6 99.3,46.93 96.55,52.37 L 95.64 54.17 L 82.78 54.17 L 94.24 66.31 L 83.9 76.6 L 80.35 72.86 L 80.35 100 L 65.57 100 L 65.57 100" fill="#FFFFFF" stroke="none" stroke-width="0.5"/>
  </g>
  <g transform="translate(0.00,-0.00) scale(0.8500,0.8000)">
    <path d="M 56.88 2.4 C 60.75,2.38 64.55,3.52 67.85,5.69 C 71.15,7.86 73.81,10.96 75.54,14.66 C 76,15.65 76.67,16.52 77.5,17.21 C 78.32,17.89 79.28,18.37 80.3,18.61 C 82.68,19.18 84.95,20.18 87.01,21.56 C 91.58,24.64 94.89,29.44 96.27,35 C 97.64,40.57 96.99,46.48 94.44,51.55 L 93.86 52.67 L 79.32 52.67 L 91.73 65.81 L 83.28 74.27 L 78.53 69.31 L 78.53 97.62 L 66.34 97.62 L 66.34 69.31 L 62.18 73.81 L 59.27 70.89 C 57.38,74.16 54.82,76.95 51.8,79.05 L 51.39 79.31 C 50.81,79.67 50.23,80.03 49.63,80.36 L 49.02 80.67 L 47.34 81.43 L 46.58 81.72 L 44.93 82.24 L 44.08 82.48 C 43.5,82.48 42.91,82.72 42.31,82.79 C 41.71,82.86 41.79,82.79 41.5,82.93 C 40.67,83.03 39.83,83.07 39,83.07 L 38.89 83.07 C 38.07,83.07 37.26,83.03 36.45,82.93 C 30.58,82.29 25.14,79.37 21.18,74.71 C 17.22,70.05 15.02,64 15.01,57.72 L 15.01 57.72 C 15.01,56.07 15.16,54.42 15.46,52.79 L 2.42 52.79 L 2.57 50.41 C 2.85,46.38 4.08,42.5 6.17,39.12 C 8.25,35.75 11.11,33 14.48,31.13 C 15.39,30.62 16.19,29.9 16.81,29.03 C 17.42,28.15 17.85,27.13 18.06,26.06 C 18.81,22 20.86,18.34 23.87,15.71 C 26.87,13.08 30.63,11.64 34.52,11.63 C 35.04,11.63 35.57,11.63 36.09,11.63 L 36.78 11.63 C 37.68,11.65 38.57,11.48 39.4,11.12 C 40.23,10.76 40.99,10.22 41.62,9.54 C 43.56,7.3 45.92,5.5 48.55,4.28 C 51.17,3.05 54.01,2.41 56.88,2.4 L 56.88 2.4 L 56.88 2.4 M 56.88 0.02 C 53.7,0.02 50.56,0.72 47.65,2.07 C 44.74,3.43 42.12,5.4 39.96,7.87 C 39.55,8.33 39.06,8.7 38.51,8.95 C 37.97,9.2 37.38,9.33 36.78,9.32 L 36.31 9.32 C 35.72,9.29 35.12,9.29 34.52,9.32 C 30.12,9.33 25.85,10.96 22.45,13.94 C 19.04,16.91 16.72,21.06 15.86,25.65 C 15.71,26.36 15.42,27.03 14.99,27.6 C 14.57,28.17 14.04,28.64 13.43,28.96 C 9.72,31.01 6.57,34.04 4.28,37.75 C 1.99,41.47 0.63,45.74 0.34,50.17 L 0.18 52.55 L 0 55.05 L 12.89 55.05 C 12.84,55.9 12.84,56.75 12.89,57.6 L 12.89 57.84 C 12.92,64.67 15.32,71.24 19.62,76.3 C 23.93,81.36 29.84,84.55 36.22,85.26 C 37.11,85.36 38,85.41 38.89,85.41 L 39.09 85.41 C 39.98,85.41 40.87,85.35 41.75,85.24 L 42.38 85.24 L 42.64 85.24 C 43.29,85.16 43.93,85.04 44.57,84.88 L 45.26 84.69 L 45.49 84.69 C 46.09,84.53 46.72,84.34 47.3,84.12 L 48.15 83.79 C 48.75,83.55 49.36,83.26 49.96,82.98 L 50.66 82.62 C 51.28,82.29 51.91,81.91 52.56,81.48 L 52.67 81.48 L 53 81.27 C 55.58,79.52 57.85,77.32 59.72,74.74 L 60.75 75.77 L 62.31 77.34 L 63.86 75.69 L 64.19 75.34 L 64.19 100 L 80.77 100 L 80.77 75.05 L 81.6 75.96 L 83.14 77.6 L 84.73 76 L 93.19 67.55 L 94.87 65.86 L 93.23 64.12 L 84.73 55.05 L 95.25 55.05 L 95.87 53.82 L 96.46 52.67 C 99.28,47.07 100,40.54 98.48,34.4 C 96.95,28.25 93.3,22.95 88.24,19.56 C 85.95,18.02 83.43,16.91 80.79,16.27 C 80.1,16.12 79.44,15.8 78.88,15.33 C 78.31,14.87 77.85,14.28 77.53,13.61 C 75.62,9.51 72.68,6.07 69.03,3.67 C 65.38,1.27 61.17,0 56.88,0.02 L 56.88 0.02 L 56.88 0.02" fill="#FFFFFF" stroke="none" stroke-width="0.5"/>
  </g>
  <g transform="translate(2.00,1.00) scale(0.8100,0.4000)">
    <path d="M 4.72 91.4 C 5.26,85.76 6.44,80.44 8.16,75.83 C 9.88,71.23 12.1,67.46 14.64,64.81 C 16.17,63.22 17.49,60.97 18.52,58.23 C 19.55,55.48 20.27,52.3 20.6,48.93 C 21.24,42.4 23.07,36.58 25.73,32.61 C 28.4,28.64 31.71,26.8 35.01,27.46 C 36.74,27.84 38.49,27.4 40.12,26.19 C 41.75,24.97 43.22,23.01 44.4,20.46 C 46.34,16.37 48.75,13.27 51.42,11.43 C 54.08,9.59 56.93,9.06 59.72,9.89 C 62.51,10.71 65.17,12.87 67.45,16.17 C 69.74,19.47 71.6,23.83 72.87,28.87 C 73.66,31.94 74.78,34.62 76.14,36.72 C 77.51,38.82 79.09,40.3 80.78,41.04 C 83.41,42.2 85.88,44.52 88.01,47.84 C 90.13,51.16 91.86,55.39 93.07,60.21 C 94.27,65.04 94.92,70.35 94.97,75.74 C 95.02,81.14 94.47,86.49 93.36,91.4 L 80.92 91.4 L 85.19 99.91 L 96.03 99.91 L 96.64 97.7 C 99.32,87.69 100,76.02 98.56,65.04 C 97.11,54.05 93.64,44.58 88.85,38.5 C 86.68,35.78 84.3,33.82 81.81,32.68 C 80.74,32.22 79.73,31.27 78.86,29.92 C 78,28.57 77.3,26.85 76.81,24.88 C 75.23,18.51 72.91,13.01 70.03,8.85 C 67.15,4.68 63.81,1.99 60.29,0.99 C 56.78,0 53.19,0.74 49.85,3.14 C 46.51,5.54 43.51,9.53 41.12,14.78 C 40.38,16.34 39.48,17.54 38.47,18.29 C 37.46,19.03 36.38,19.29 35.32,19.05 C 30.99,18.25 26.66,20.69 23.16,25.89 C 19.67,31.1 17.27,38.7 16.4,47.24 C 16.19,49.37 15.75,51.37 15.1,53.1 C 14.45,54.83 13.61,56.25 12.65,57.25 C 9.12,60.93 6.12,66.36 3.93,73.02 C 1.75,79.68 0.45,87.35 0.16,95.3 L 0 100 L 10.42 100 C 10.68,97.08 11.06,94.2 11.55,91.4 L 4.72 91.4 L 4.72 91.4" fill="#2d5967" stroke="none" stroke-width="0.5"/>
  </g>
  <g transform="translate(12.00,25.00) scale(0.4000,0.4100)">
    <path d="M 50.94 0.02 C 42.41,0 34.01,2.12 26.53,6.17 C 19.05,10.22 12.74,16.08 8.19,23.19 C 3.63,30.3 0.99,38.43 0.49,46.82 C 0,55.21 1.68,63.59 5.37,71.17 C 9.06,78.75 14.64,85.28 21.59,90.16 C 28.54,95.03 36.64,98.09 45.12,99.05 C 53.6,100 62.18,98.82 70.07,95.61 C 77.96,92.41 84.9,87.28 90.22,80.72 L 83.94 74.9 C 77.98,82.45 69.54,87.72 60.06,89.8 C 50.58,91.89 40.66,90.65 32.01,86.32 C 23.35,81.98 16.5,74.81 12.63,66.03 C 8.76,57.26 8.12,47.43 10.8,38.24 C 13.49,29.05 19.34,21.06 27.36,15.66 C 35.37,10.26 45.04,7.77 54.72,8.63 C 64.39,9.49 73.46,13.64 80.36,20.37 C 87.26,27.1 91.57,35.99 92.54,45.51 L 100 38.16 C 97.36,27.3 91.08,17.63 82.18,10.71 C 73.28,3.79 62.28,0.02 50.94,0.02 L 50.94 0.02 L 50.94 0.02" fill="#2d5967" stroke="none" stroke-width="0.5"/>
  </g>
  <g transform="translate(24.00,33.00) scale(0.1600,0.2600)">
    <path d="M 66.59 43.11 L 60.53 43.11 L 60.53 27.14 L 96.11 27.14 L 96.11 13.93 L 60.53 13.93 L 60.53 0 L 39.7 0 L 39.7 13.93 L 33.64 13.93 C 24.77,14.04 16.32,16.33 10.05,20.31 C 3.77,24.28 0.18,29.65 0,35.27 C 0,38.04 0.86,40.78 2.54,43.34 C 4.21,45.9 6.67,48.22 9.76,50.18 C 12.85,52.13 16.53,53.68 20.56,54.73 C 24.6,55.79 28.93,56.32 33.3,56.31 L 39.36 56.31 L 39.36 72.28 L 4.12 72.28 L 4.12 85.49 L 39.7 85.49 L 39.7 100 L 60.53 100 L 60.53 85.49 L 66.59 85.49 C 75.45,85.49 83.95,83.26 90.22,79.28 C 96.48,75.31 100,69.92 100,64.3 C 100,58.68 96.48,53.29 90.22,49.31 C 83.95,45.34 75.45,43.11 66.59,43.11 L 66.59 43.11 L 66.59 43.11 M 33.64 43.11 C 32,43.12 30.38,42.92 28.86,42.53 C 27.34,42.14 25.95,41.57 24.79,40.84 C 23.62,40.11 22.69,39.25 22.05,38.29 C 21.41,37.33 21.07,36.31 21.05,35.27 C 21.11,33.15 22.45,31.12 24.79,29.61 C 27.13,28.1 30.3,27.22 33.64,27.14 L 39.7 27.14 L 39.7 43.11 L 33.64 43.11 L 33.64 43.11 M 66.59 72.13 L 60.53 72.13 L 60.53 56.31 L 66.59 56.31 C 68.25,56.31 69.88,56.52 71.41,56.92 C 72.93,57.32 74.32,57.91 75.49,58.65 C 76.66,59.39 77.59,60.27 78.22,61.24 C 78.85,62.21 79.18,63.25 79.18,64.3 C 79.18,65.34 78.85,66.38 78.22,67.35 C 77.59,68.32 76.66,69.2 75.49,69.94 C 74.32,70.68 72.93,71.27 71.41,71.67 C 69.88,72.07 68.25,72.28 66.59,72.28 L 66.59 72.13 L 66.59 72.13" fill="#2d5967" stroke="none" stroke-width="0.5"/>
  </g>
  <g transform="translate(63.00,47.00) scale(0.0900,0.3100)">
    <path d="M 100 31.88 L 0 0 L 0 100 L 35.07 100 L 35.07 26.96 L 75.15 39.74 L 100 31.88 L 100 31.88" fill="#2d5967" stroke="none" stroke-width="0.5"/>
  </g>
  <g transform="translate(50.00,47.00) scale(0.0900,0.3100)">
    <path d="M 63.44 100 L 100 100 L 100 0 L 0 30.47 L 25.87 38.39 L 63.44 26.96 L 63.44 100 L 63.44 100" fill="#2d5967" stroke="none" stroke-width="0.5"/>
  </g>
  <g transform="translate(45.00,36.00) scale(0.3200,0.1800)">
    <path d="M 49.29 0 L 0 84.7 L 7.55 97.77 L 49.29 25.94 L 92.39 100 L 100 87.03 L 49.29 0 L 49.29 0" fill="#2d5967" stroke="none" stroke-width="0.5"/>
  </g>
</svg>