<svg xmlns="http://www.w3.org/2000/svg" viewBox="0 0 84.0 127.99999999999987" width="84" height="127">
  <g transform="translate(11.00,0.00) scale(0.8300,0.7800)">
    <path d="M 70.23 99.97 C 69.32,99.97 68.45,99.66 67.73,99.07 C 67.01,98.48 66.5,97.66 66.27,96.73 L 60.32 96.73 C 60.1,97.66 59.59,98.49 58.88,99.07 C 58.16,99.66 57.29,99.98 56.39,99.97 C 55.48,99.97 54.61,99.65 53.89,99.06 C 53.18,98.48 52.66,97.66 52.43,96.73 L 52.11 96.73 C 51.89,97.67 51.38,98.5 50.66,99.09 C 49.95,99.68 49.07,100 48.16,100 C 47.26,100 46.38,99.68 45.66,99.09 C 44.95,98.5 44.44,97.67 44.22,96.73 L 41.06 96.73 L 41.06 84.13 L 40.21 83.83 L 38.61 83.15 C 38,82.87 37.4,82.56 36.83,82.2 L 36.05 81.79 C 35.48,81.45 34.93,81.08 34.4,80.71 C 33.88,80.35 33.63,80.18 33.26,79.89 C 32.89,79.59 32.39,79.23 31.98,78.86 C 31.57,78.5 30.88,77.89 30.33,77.35 L 30.08 77.11 L 29.67 76.81 C 28.91,76.05 28.19,75.24 27.52,74.38 L 26.01 72.4 L 26.22 72.4 L 25.6 71.38 L 16.84 71.38 L 16.84 54.07 L 0 54.07 L 0.25 50.36 C 0.54,46.02 1.87,41.83 4.11,38.19 C 6.36,34.56 9.44,31.59 13.06,29.59 C 13.85,29.15 14.53,28.53 15.06,27.78 C 15.6,27.02 15.97,26.15 16.15,25.23 C 16.96,20.78 19.2,16.77 22.48,13.9 C 25.76,11.02 29.88,9.45 34.13,9.45 C 34.71,9.45 35.28,9.45 35.84,9.45 L 36.44 9.45 C 37.21,9.46 37.97,9.29 38.68,8.96 C 39.38,8.63 40.01,8.15 40.53,7.55 C 42.66,5.16 45.22,3.27 48.05,1.97 C 50.89,0.68 53.94,0.01 57.03,0.02 C 61.21,0 65.31,1.23 68.87,3.58 C 72.43,5.92 75.3,9.28 77.16,13.28 C 77.56,14.14 78.14,14.89 78.85,15.48 C 79.57,16.07 80.39,16.49 81.27,16.69 C 83.85,17.3 86.31,18.38 88.55,19.89 C 93.47,23.2 97.03,28.38 98.51,34.39 C 100,40.39 99.3,46.76 96.55,52.24 L 95.64 54.07 L 82.87 54.07 L 82.87 54.87 L 86.69 56.89 L 86.69 60.97 L 77.55 60.97 C 77.55,61.26 77.55,61.58 77.39,61.87 L 77.11 63.4 C 76.11,67.32 74.37,70.97 72.01,74.16 L 71.67 74.62 L 71.51 74.62 C 70.68,75.7 69.78,76.71 68.81,77.64 L 68.81 82.03 L 72.63 82.03 L 76.81 88 L 76.81 96.73 L 74.25 96.73 C 74.02,97.67 73.49,98.5 72.76,99.09 C 72.03,99.68 71.14,99.99 70.23,99.97 L 70.23 99.97" fill="#FFFFFF" stroke="none" stroke-width="0.5"/>
  </g>
  <g transform="translate(10.00,0.00) scale(0.8400,0.8000)">
    <path d="M 57.22 2.4 C 61.12,2.39 64.94,3.53 68.26,5.71 C 71.58,7.88 74.25,11 75.98,14.7 C 76.46,15.72 77.15,16.6 78,17.29 C 78.85,17.98 79.83,18.45 80.88,18.66 C 84.12,19.43 87.15,20.99 89.72,23.2 C 92.3,25.42 94.36,28.24 95.74,31.44 C 97.12,34.64 97.79,38.14 97.69,41.66 C 97.58,45.18 96.71,48.63 95.15,51.73 L 94.56 52.88 L 81.49 52.88 L 81.49 55.47 L 82.79 56.17 L 85.24 57.45 L 85.24 59.62 L 76.39 59.62 C 76.24,60.73 76.02,61.82 75.74,62.89 L 75.87 62.89 C 74.91,66.56 73.27,69.99 71.04,72.98 L 71 72.98 C 70.03,74.28 68.95,75.49 67.78,76.6 L 67.78 82.61 L 72.07 82.61 L 75.62 87.66 L 75.62 94.6 L 73.09 94.6 C 73.09,95.42 72.78,96.2 72.24,96.77 C 71.69,97.35 70.96,97.68 70.19,97.68 C 69.42,97.68 68.68,97.35 68.14,96.77 C 67.59,96.2 67.29,95.42 67.29,94.6 L 59.49 94.6 C 59.53,95.03 59.48,95.45 59.35,95.86 C 59.22,96.26 59.02,96.63 58.74,96.95 C 58.47,97.26 58.14,97.51 57.77,97.68 C 57.41,97.86 57.01,97.95 56.61,97.95 C 56.2,97.95 55.81,97.86 55.44,97.68 C 55.07,97.51 54.74,97.26 54.47,96.95 C 54.2,96.63 53.99,96.26 53.86,95.86 C 53.73,95.45 53.68,95.03 53.72,94.6 L 51.47 94.6 C 51.47,95 51.4,95.4 51.25,95.78 C 51.11,96.15 50.89,96.49 50.62,96.77 C 50.35,97.06 50.03,97.29 49.68,97.44 C 49.33,97.6 48.95,97.68 48.57,97.68 C 48.19,97.68 47.82,97.6 47.46,97.44 C 47.11,97.29 46.79,97.06 46.52,96.77 C 46.26,96.49 46.04,96.15 45.9,95.78 C 45.75,95.4 45.68,95 45.68,94.6 L 42.69 94.6 L 42.69 82.68 C 41.64,82.38 40.61,82.01 39.61,81.56 C 38.92,81.24 38.26,80.88 37.61,80.48 L 37.18 80.27 C 36.64,79.96 36.13,79.6 35.63,79.27 L 34.53 78.48 C 34.13,78.17 33.72,77.86 33.34,77.53 C 32.96,77.19 32.31,76.6 31.81,76.12 L 31.16 75.5 C 30.45,74.75 29.77,73.95 29.14,73.12 L 29.03 73 C 28.27,71.96 27.58,70.87 26.96,69.73 L 18.87 69.73 L 18.87 52.88 L 2.43 52.88 L 2.58 50.49 C 2.87,46.45 4.11,42.55 6.21,39.16 C 8.3,35.78 11.18,33.01 14.56,31.13 C 15.48,30.63 16.28,29.91 16.91,29.03 C 17.54,28.15 17.97,27.13 18.18,26.05 C 18.92,21.97 20.98,18.3 24,15.65 C 27.02,13.01 30.82,11.57 34.73,11.58 C 35.25,11.58 35.79,11.58 36.31,11.58 L 37 11.58 C 37.9,11.61 38.79,11.45 39.63,11.1 C 40.46,10.75 41.22,10.22 41.86,9.55 C 43.82,7.31 46.2,5.51 48.84,4.28 C 51.48,3.05 54.34,2.41 57.22,2.4 L 57.22 2.4 M 57.22 0.02 C 54.03,0.02 50.88,0.72 47.95,2.08 C 45.02,3.43 42.39,5.41 40.22,7.89 C 39.81,8.35 39.31,8.73 38.76,8.98 C 38.2,9.24 37.61,9.37 37,9.36 L 36.53 9.36 C 35.93,9.33 35.33,9.33 34.73,9.36 C 32.07,9.32 29.42,9.87 26.96,10.96 C 24.14,12.28 21.66,14.3 19.74,16.85 C 17.81,19.41 16.5,22.42 15.91,25.62 C 15.77,26.35 15.48,27.04 15.06,27.63 C 14.64,28.22 14.1,28.71 13.48,29.06 C 9.77,31.13 6.61,34.17 4.31,37.9 C 2.01,41.62 0.64,45.91 0.34,50.35 L 0.18 52.73 L 0 55.26 L 16.63 55.26 L 16.63 72.12 L 25.5 72.12 L 27.25 74.5 C 27.97,75.43 28.67,76.27 29.5,77.05 L 29.97 77.5 L 30.17 77.72 C 30.8,78.34 31.34,78.82 31.86,79.25 C 32.38,79.67 32.71,79.94 33.14,80.27 C 33.57,80.6 33.93,80.87 34.33,81.13 C 34.73,81.39 35.43,81.87 36.01,82.2 L 36.35 82.39 L 36.46 82.39 L 36.8 82.56 C 37.39,82.93 38.01,83.25 38.64,83.54 L 40.35 84.32 L 40.35 96.75 L 43.79 96.75 C 44.16,97.59 44.72,98.33 45.44,98.88 C 46.15,99.43 46.98,99.78 47.86,99.89 C 48.73,100 49.62,99.87 50.43,99.51 C 51.25,99.15 51.96,98.58 52.51,97.84 C 53.05,98.58 53.76,99.15 54.57,99.51 C 55.38,99.87 56.27,100 57.14,99.89 C 58.02,99.78 58.85,99.43 59.56,98.88 C 60.27,98.33 60.84,97.59 61.2,96.75 L 65.45 96.75 C 65.86,97.69 66.52,98.5 67.34,99.06 C 68.17,99.62 69.14,99.92 70.12,99.92 C 71.1,99.92 72.07,99.62 72.89,99.06 C 73.72,98.5 74.38,97.69 74.79,96.75 L 77.8 96.75 L 77.8 86.87 L 77.35 86.23 L 73.87 81.08 L 73.2 80.13 L 70.03 80.13 L 70.03 77.65 C 70.75,76.9 71.42,76.11 72.05,75.26 L 72.23 75.26 L 72.91 74.36 C 75.32,71.12 77.09,67.4 78.12,63.41 L 78.5 61.91 L 87.49 61.91 L 87.49 55.98 L 86.23 55.33 L 86.09 55.33 L 95.82 55.33 L 96.45 54.07 L 97.04 52.92 C 98.78,49.5 99.75,45.7 99.88,41.81 C 100,37.92 99.27,34.05 97.75,30.51 C 96.22,26.97 93.94,23.86 91.09,21.41 C 88.24,18.97 84.89,17.26 81.31,16.42 C 80.61,16.26 79.95,15.93 79.38,15.47 C 78.81,15 78.35,14.41 78.03,13.73 C 76.12,9.6 73.16,6.13 69.48,3.7 C 65.8,1.28 61.55,0 57.22,0.02 L 57.22 0.02" fill="#FFFFFF" stroke="none" stroke-width="0.5"/>
  </g>
  <g transform="translate(34.00,58.00) scale(0.0800,0.0600)">
    <path d="M 52.44 0 L 0 0 C 26.42,43.75 60.79,78.14 100,100 L 100 44.45 C 82.71,32.43 66.73,17.49 52.44,0 L 52.44 0" fill="#2d5967" stroke="none" stroke-width="0.5"/>
  </g>
  <g transform="translate(65.00,50.00) scale(0.0800,0.0800)">
    <path d="M 0 100 L 53.36 100 C 74.89,70.4 90.75,36.4 100,0 L 58.78 0 C 47.17,38.16 26.96,72.55 0,100 L 0 100" fill="#2d5967" stroke="none" stroke-width="0.5"/>
  </g>
  <g transform="translate(34.00,20.00) scale(0.3100,0.0900)">
    <path d="M 14.72 100 C 22.33,75.55 31.82,57.94 42.24,48.96 C 52.66,39.97 63.63,39.93 74.05,48.82 L 100 48.82 C 84.52,14.09 65.43,0 46.76,9.55 C 28.09,19.11 11.32,51.55 0,100 L 14.72 100 L 14.72 100" fill="#2d5967" stroke="none" stroke-width="0.5"/>
  </g>
  <g transform="translate(12.00,1.00) scale(0.8100,0.4000)">
    <path d="M 88.89 38.51 C 86.73,35.76 84.35,33.77 81.85,32.64 C 80.78,32.19 79.77,31.25 78.9,29.9 C 78.03,28.55 77.32,26.82 76.84,24.85 C 75.25,18.49 72.92,13 70.05,8.84 C 67.17,4.69 63.83,2 60.32,1 C 56.81,0 53.22,0.73 49.88,3.12 C 46.54,5.5 43.54,9.48 41.14,14.71 C 40.41,16.28 39.5,17.49 38.5,18.24 C 37.49,18.99 36.41,19.26 35.35,19.03 C 31.01,18.2 26.68,20.62 23.18,25.82 C 19.69,31.02 17.28,38.64 16.43,47.19 C 16.22,49.32 15.76,51.32 15.11,53.05 C 14.46,54.78 13.62,56.19 12.66,57.19 C 9.13,60.89 6.13,66.34 3.94,73.01 C 1.76,79.68 0.46,87.35 0.16,95.31 L 0 100 L 13.88 100 L 13.88 91.41 L 4.74 91.41 C 5.28,85.77 6.46,80.45 8.17,75.85 C 9.89,71.25 12.1,67.49 14.65,64.84 C 16.18,63.26 17.5,61 18.53,58.25 C 19.56,55.49 20.27,52.31 20.6,48.93 C 21.24,42.42 23.07,36.62 25.72,32.65 C 28.38,28.67 31.67,26.82 34.97,27.43 C 36.7,27.8 38.45,27.36 40.07,26.15 C 41.7,24.94 43.16,22.98 44.35,20.44 C 46.29,16.3 48.7,13.16 51.38,11.29 C 54.06,9.41 56.92,8.87 59.72,9.69 C 62.53,10.51 65.2,12.67 67.49,16 C 69.79,19.32 71.65,23.71 72.92,28.79 C 73.7,31.89 74.82,34.59 76.19,36.7 C 77.56,38.81 79.15,40.28 80.85,41 C 82.88,41.88 84.81,43.47 86.57,45.69 C 90.27,50.37 93,57.57 94.26,65.96 C 95.52,74.35 95.23,83.37 93.43,91.36 L 85.42 91.36 L 85.42 99.91 L 96.04 99.91 L 96.65 97.7 C 99.31,87.69 100,76.03 98.56,65.06 C 97.12,54.08 93.67,44.6 88.89,38.51 L 88.89 38.51" fill="#2d5967" stroke="none" stroke-width="0.5"/>
  </g>
  <g transform="translate(54.00,28.00) scale(0.2800,0.1900)">
    <path d="M 84.99 0 L 14.6 0 L 7.84 20.08 C 7.32,21.23 6.91,22.48 6.62,23.8 C 6.02,26.14 5.76,28.64 5.87,31.14 C 5.97,33.64 6.44,36.08 7.23,38.3 C 8.17,40.98 9.57,43.28 11.29,44.96 L 11.29 82.96 L 2.16 89.52 L 0 91.09 L 0 100 L 100 100 L 100 91.09 L 92.63 85.8 L 88.71 82.96 L 88.71 44.96 C 90.43,43.28 91.83,40.98 92.77,38.3 C 93.61,36.1 94.12,33.68 94.27,31.18 C 94.42,28.69 94.21,26.17 93.65,23.8 C 93.34,22.48 92.91,21.22 92.36,20.08 L 84.99 0 L 84.99 0 M 55.98 82.17 L 55.98 62.58 L 43.68 62.58 L 43.68 82.17 L 23.4 82.17 L 23.4 48.19 L 76.54 48.19 L 76.54 82.17 L 55.98 82.17 L 55.98 82.17 M 17.85 29.77 L 22.18 17.83 L 77.48 17.83 L 81.34 28.7 L 81.81 29.77 L 18.25 29.77 C 18.25,29.77 17.78,29.87 17.85,29.77 L 17.85 29.77" fill="#2d5967" stroke="none" stroke-width="0.5"/>
  </g>
  <g transform="translate(46.00,61.00) scale(0.2800,0.1700)">
    <path d="M 75.94 0 L 0 0 L 0 84.53 L 9.04 84.53 C 9.04,86.4 9.27,88.25 9.71,89.97 C 10.15,91.7 10.79,93.27 11.61,94.59 C 12.42,95.91 13.39,96.96 14.46,97.67 C 15.52,98.39 16.66,98.75 17.81,98.75 C 18.96,98.75 20.1,98.39 21.17,97.67 C 22.23,96.96 23.2,95.91 24.01,94.59 C 24.83,93.27 25.47,91.7 25.91,89.97 C 26.35,88.25 26.58,86.4 26.58,84.53 L 33.38 84.53 C 33.27,86.5 33.42,88.48 33.81,90.35 C 34.2,92.21 34.82,93.93 35.65,95.38 C 36.47,96.84 37.47,98 38.58,98.8 C 39.69,99.59 40.9,100 42.12,100 C 43.33,100 44.53,99.59 45.65,98.8 C 46.76,98 47.76,96.84 48.58,95.38 C 49.4,93.93 50.03,92.21 50.42,90.35 C 50.81,88.48 50.96,86.5 50.85,84.53 L 74.78 84.53 C 74.78,86.4 75.01,88.25 75.45,89.97 C 75.89,91.7 76.53,93.27 77.35,94.59 C 78.16,95.91 79.13,96.96 80.19,97.67 C 81.26,98.39 82.4,98.75 83.55,98.75 C 84.7,98.75 85.84,98.39 86.9,97.67 C 87.97,96.96 88.94,95.91 89.75,94.59 C 90.57,93.27 91.21,91.7 91.65,89.97 C 92.09,88.25 92.32,86.4 92.32,84.53 L 100 84.53 L 100 52.46 L 89.26 29.1 L 75.94 29.1 L 75.94 0 L 75.94 0 M 12.31 64.47 L 12.31 20.39 L 63.5 20.39 L 63.5 64.47 L 12.31 64.47 L 12.31 64.47 M 87.08 64.47 L 75.94 64.47 L 75.94 49.15 L 82.73 49.15 L 87.35 59.18 L 87.08 64.47 L 87.08 64.47" fill="#2d5967" stroke="none" stroke-width="0.5"/>
  </g>
  <g transform="translate(26.00,33.00) scale(0.2300,0.2200)">
    <path d="M 100 100 L 100 18.92 L 70.19 31.67 L 70.19 19 L 39.72 31.76 L 39.72 0 L 0 0 L 0 100 L 100 100 L 100 100 M 24.98 54.47 L 55.52 41.72 L 55.52 54.56 L 85.42 41.81 L 85.42 84.63 L 75.91 84.63 L 75.91 69.85 L 61.24 69.85 L 61.24 84.63 L 40.13 84.63 L 40.13 69.85 L 25.46 69.85 L 25.46 84.63 L 14.66 84.63 L 14.66 15.37 L 24.98 15.37 L 24.98 54.47 L 24.98 54.47" fill="#2d5967" stroke="none" stroke-width="0.5"/>
  </g>
</svg>