<svg xmlns="http://www.w3.org/2000/svg" viewBox="0 0 84.0 106.00000000000007" width="84" height="106">
  <g transform="translate(4.00,0.00) scale(0.8200,0.8000)">
    <path d="M 34.36 100 C 32.78,99.99 31.28,99.35 30.17,98.2 C 29.06,97.05 28.44,95.49 28.44,93.87 L 28.44 53.06 L 0 53.06 L 0.27 49.34 C 0.6,45.13 1.97,41.07 4.25,37.55 C 6.53,34.04 9.64,31.18 13.29,29.26 C 14.08,28.84 14.76,28.25 15.29,27.52 C 15.82,26.8 16.19,25.96 16.36,25.07 C 16.9,22.04 18.15,19.19 19.99,16.77 C 21.83,14.35 24.21,12.42 26.93,11.16 C 29.28,10.1 31.82,9.55 34.38,9.55 C 34.95,9.52 35.52,9.52 36.09,9.55 L 36.67 9.55 C 37.44,9.56 38.2,9.41 38.9,9.09 C 39.6,8.78 40.24,8.32 40.76,7.75 C 43.26,4.98 46.37,2.88 49.84,1.62 C 53.3,0.37 57,0 60.63,0.55 C 64.26,1.1 67.71,2.54 70.68,4.77 C 73.65,6.99 76.05,9.93 77.67,13.32 C 78.05,14.17 78.62,14.92 79.33,15.51 C 80.04,16.1 80.87,16.51 81.76,16.71 C 85.26,17.52 88.52,19.15 91.3,21.48 C 94.08,23.81 96.3,26.77 97.79,30.12 C 99.28,33.48 100,37.15 99.89,40.84 C 99.78,44.53 98.84,48.14 97.15,51.4 L 96.23 53.18 L 71.73 53.18 L 71.73 93.87 C 71.73,95.49 71.11,97.05 70,98.2 C 68.89,99.35 67.39,99.99 65.81,100 L 34.36 100 L 34.36 100" fill="#FFFFFF" stroke="none" stroke-width="0.5"/>
  </g>
  <g transform="translate(3.00,0.00) scale(0.8400,0.8100)">
    <path d="M 57.2 2.46 C 61.09,2.44 64.91,3.56 68.22,5.68 C 71.53,7.8 74.19,10.84 75.92,14.46 C 76.38,15.42 77.05,16.27 77.87,16.93 C 78.69,17.6 79.65,18.06 80.66,18.29 C 83.07,18.85 85.36,19.83 87.45,21.19 C 92.05,24.18 95.38,28.87 96.76,34.3 C 98.15,39.74 97.48,45.52 94.9,50.47 L 94.33 51.57 L 69.94 51.57 L 69.94 92.77 C 69.94,94.03 69.46,95.24 68.6,96.14 C 67.74,97.03 66.58,97.54 65.36,97.54 L 34.76 97.54 C 33.54,97.54 32.37,97.03 31.52,96.14 C 30.66,95.24 30.18,94.03 30.18,92.77 L 30.18 51.62 L 2.56 51.62 L 2.73 49.36 C 2.99,45.43 4.22,41.64 6.29,38.34 C 8.37,35.04 11.23,32.34 14.59,30.51 C 15.51,30.02 16.31,29.33 16.93,28.47 C 17.56,27.62 17.99,26.64 18.2,25.59 C 18.72,22.83 19.87,20.25 21.57,18.05 C 23.26,15.85 25.44,14.12 27.92,12.98 C 30.07,12.02 32.37,11.51 34.71,11.51 L 36.28 11.51 L 36.94 11.51 C 37.83,11.49 38.71,11.3 39.52,10.93 C 40.34,10.55 41.07,10.02 41.68,9.34 C 43.67,7.15 46.07,5.4 48.74,4.22 C 51.42,3.03 54.29,2.43 57.2,2.46 L 57.2 2.46 M 57.2 0 C 54,0.01 50.83,0.69 47.89,2.02 C 44.96,3.35 42.32,5.29 40.14,7.72 C 39.74,8.16 39.26,8.51 38.72,8.75 C 38.18,8.99 37.6,9.11 37.01,9.1 L 36.56 9.1 C 35.97,9.06 35.37,9.06 34.78,9.1 C 30.33,9.11 26.01,10.71 22.58,13.64 C 19.14,16.57 16.79,20.65 15.92,25.17 C 15.78,25.87 15.5,26.52 15.09,27.08 C 14.68,27.64 14.15,28.1 13.55,28.42 C 9.83,30.43 6.66,33.39 4.35,37.02 C 2.05,40.65 0.67,44.83 0.36,49.17 L 0.19 51.45 L 0 54.08 L 27.81 54.08 L 27.81 92.77 C 27.81,94.69 28.54,96.52 29.84,97.87 C 31.14,99.23 32.91,99.99 34.76,100 L 65.36 100 C 67.21,99.99 68.97,99.23 70.28,97.87 C 71.58,96.52 72.31,94.69 72.31,92.77 L 72.31 54.08 L 95.75 54.08 L 96.42 52.8 L 96.99 51.7 C 98.75,48.35 99.74,44.61 99.87,40.8 C 100,36.98 99.27,33.19 97.74,29.71 C 96.21,26.24 93.92,23.18 91.05,20.79 C 88.18,18.39 84.81,16.72 81.21,15.91 C 80.54,15.76 79.91,15.46 79.36,15.04 C 78.81,14.61 78.36,14.07 78.03,13.45 C 76.12,9.41 73.16,6.01 69.47,3.64 C 65.79,1.26 61.54,0 57.2,0 L 57.2 0" fill="#FFFFFF" stroke="none" stroke-width="0.5"/>
  </g>
  <g transform="translate(28.00,27.00) scale(0.3300,0.5200)">
    <path d="M 88.48 0 L 11.51 0 C 8.46,0 5.53,0.78 3.37,2.17 C 1.21,3.57 0,5.45 0,7.42 L 0 92.54 C 0,94.51 1.21,96.4 3.37,97.8 C 5.53,99.2 8.46,99.99 11.51,100 L 88.48 100 C 91.54,99.99 94.47,99.2 96.63,97.8 C 98.79,96.4 100,94.51 100,92.54 L 100 7.42 C 100,5.45 98.78,3.57 96.62,2.17 C 94.47,0.78 91.54,0 88.48,0 L 88.48 0 M 89.74 92.54 C 89.74,92.76 89.61,92.97 89.37,93.12 C 89.14,93.28 88.82,93.38 88.48,93.38 L 11.51 93.38 C 11.18,93.38 10.86,93.28 10.63,93.12 C 10.39,92.97 10.26,92.76 10.26,92.54 L 10.26 7.42 C 10.26,7.21 10.39,7 10.63,6.85 C 10.86,6.7 11.18,6.62 11.51,6.62 L 88.48 6.62 C 88.82,6.62 89.14,6.7 89.37,6.85 C 89.6,7 89.74,7.21 89.74,7.42 L 89.74 92.54 L 89.74 92.54" fill="#2d5967" stroke="none" stroke-width="0.5"/>
  </g>
  <g transform="translate(35.00,34.00) scale(0.1900,0.0600)">
    <path d="M 100 0 L 0 0 L 0 100 L 100 100 L 100 0 L 100 0" fill="#2d5967" stroke="none" stroke-width="0.5"/>
  </g>
  <g transform="translate(35.00,46.00) scale(0.0400,0.0300)">
    <path d="M 100 0 L 0 0 L 0 100 L 100 100 L 100 0 L 100 0" fill="#2d5967" stroke="none" stroke-width="0.5"/>
  </g>
  <g transform="translate(43.00,46.00) scale(0.0400,0.0300)">
    <path d="M 100 0 L 0 0 L 0 100 L 100 100 L 100 0 L 100 0" fill="#2d5967" stroke="none" stroke-width="0.5"/>
  </g>
  <g transform="translate(51.00,46.00) scale(0.0400,0.0300)">
    <path d="M 100 0 L 0 0 L 0 100 L 100 100 L 100 0 L 100 0" fill="#2d5967" stroke="none" stroke-width="0.5"/>
  </g>
  <g transform="translate(35.00,53.00) scale(0.0400,0.0300)">
    <path d="M 100 0 L 0 0 L 0 100 L 100 100 L 100 0 L 100 0" fill="#2d5967" stroke="none" stroke-width="0.5"/>
  </g>
  <g transform="translate(43.00,53.00) scale(0.0400,0.0300)">
    <path d="M 100 0 L 0 0 L 0 100 L 100 100 L 100 0 L 100 0" fill="#2d5967" stroke="none" stroke-width="0.5"/>
  </g>
  <g transform="translate(51.00,53.00) scale(0.0400,0.0300)">
    <path d="M 100 0 L 0 0 L 0 100 L 100 100 L 100 0 L 100 0" fill="#2d5967" stroke="none" stroke-width="0.5"/>
  </g>
  <g transform="translate(35.00,61.00) scale(0.0400,0.0300)">
    <path d="M 100 0 L 0 0 L 0 100 L 100 100 L 100 0 L 100 0" fill="#2d5967" stroke="none" stroke-width="0.5"/>
  </g>
  <g transform="translate(43.00,61.00) scale(0.0400,0.0300)">
    <path d="M 100 0 L 0 0 L 0 100 L 100 100 L 100 0 L 100 0" fill="#2d5967" stroke="none" stroke-width="0.5"/>
  </g>
  <g transform="translate(35.00,68.00) scale(0.0400,0.0300)">
    <path d="M 100 0 L 0 0 L 0 100 L 100 100 L 100 0 L 100 0" fill="#2d5967" stroke="none" stroke-width="0.5"/>
  </g>
  <g transform="translate(43.00,68.00) scale(0.0400,0.0300)">
    <path d="M 100 0 L 0 0 L 0 100 L 100 100 L 100 0 L 100 0" fill="#2d5967" stroke="none" stroke-width="0.5"/>
  </g>
  <g transform="translate(51.00,61.00) scale(0.0400,0.1000)">
    <path d="M 100 0 L 0 0 L 0 100 L 100 100 L 100 0 L 100 0" fill="#2d5967" stroke="none" stroke-width="0.5"/>
  </g>
  <g transform="translate(5.00,2.00) scale(0.8100,0.4000)">
    <path d="M 88.79 38.12 C 86.6,35.35 84.19,33.36 81.67,32.22 C 80.61,31.75 79.61,30.81 78.75,29.46 C 77.89,28.11 77.19,26.39 76.71,24.43 C 74.91,17.08 72.12,10.89 68.65,6.58 C 65.19,2.27 61.2,0 57.13,0.03 C 54.13,0.05 51.15,1.3 48.39,3.73 C 45.64,6.15 43.16,9.69 41.11,14.13 C 40.38,15.7 39.47,16.91 38.47,17.65 C 37.47,18.4 36.39,18.66 35.33,18.43 C 32.34,17.89 29.34,18.87 26.59,21.28 C 24,23.58 21.72,27.12 19.95,31.58 C 18.18,36.05 16.97,41.31 16.42,46.92 C 16.2,49.05 15.75,51.05 15.1,52.78 C 14.45,54.51 13.61,55.92 12.65,56.91 C 9.13,60.64 6.15,66.12 3.98,72.83 C 1.81,79.54 0.52,87.26 0.25,95.25 L 0 100 L 25.68 100 L 25.68 91.3 L 4.76 91.3 C 5.32,85.64 6.5,80.3 8.22,75.68 C 9.93,71.06 12.14,67.28 14.69,64.61 C 16.22,63.02 17.55,60.74 18.58,57.96 C 19.61,55.19 20.31,51.97 20.64,48.57 C 21.06,44.32 21.97,40.34 23.32,36.96 C 24.66,33.59 26.39,30.91 28.36,29.17 C 30.43,27.33 32.7,26.58 34.95,26.97 C 36.66,27.34 38.39,26.9 40,25.69 C 41.61,24.49 43.06,22.55 44.23,20.03 C 45.88,16.46 47.88,13.61 50.1,11.65 C 52.32,9.7 54.71,8.69 57.13,8.68 C 60.41,8.63 63.62,10.44 66.4,13.91 C 69.18,17.38 71.42,22.36 72.86,28.27 C 73.64,31.4 74.76,34.13 76.12,36.27 C 77.49,38.42 79.08,39.92 80.78,40.67 C 82.82,41.64 84.76,43.34 86.51,45.67 C 90.2,50.38 92.93,57.62 94.19,66.06 C 95.44,74.5 95.15,83.57 93.35,91.6 L 73.66 91.6 L 73.66 100 L 95.98 100 L 96.58 97.75 C 99.29,87.68 100,75.91 98.55,64.82 C 97.11,53.74 93.61,44.19 88.79,38.12 L 88.79 38.12" fill="#2d5967" stroke="none" stroke-width="0.5"/>
  </g>
</svg>