<svg xmlns="http://www.w3.org/2000/svg" viewBox="0 0 85.0 87.99999999999987" width="85" height="87">
  <g transform="translate(10.00,44.00) scale(0.6300,0.1800)">
    <path d="M 0 100 L 0 51.75 C 0.01,42.99 1.05,34.61 2.91,28.42 C 4.77,22.24 7.28,18.77 9.9,18.77 L 28.95 18.77 C 29.91,13.14 31.29,8.44 32.96,5.14 C 34.64,1.85 36.54,0.08 38.48,0 L 61.52 0 C 63.46,0.09 65.36,1.87 67.03,5.16 C 68.7,8.45 70.09,13.14 71.05,18.77 L 90.09 18.77 C 92.72,18.77 95.23,22.24 97.09,28.42 C 98.95,34.61 99.99,42.99 100,51.75 L 100 100 L 0 100 L 0 100" fill="#FFFFFF" stroke="none" stroke-width="0.5"/>
  </g>
  <g transform="translate(9.00,43.00) scale(0.6500,0.2000)">
    <path d="M 61.13 9.59 C 62.9,9.59 64.63,11.19 66.12,14.18 C 67.6,17.17 68.78,21.43 69.51,26.47 L 88.89 26.47 C 91.02,26.49 93.06,29.14 94.57,33.85 C 96.07,38.55 96.92,44.93 96.93,51.59 L 96.93 90.41 L 3.07 90.41 L 3.07 51.59 C 3.08,44.93 3.93,38.55 5.43,33.85 C 6.94,29.14 8.97,26.49 11.11,26.47 L 30.49 26.47 C 31.22,21.43 32.4,17.17 33.88,14.18 C 35.37,11.19 37.1,9.59 38.87,9.59 L 61.13 9.59 L 61.13 9.59 M 61.13 0 L 38.87 0 C 36.86,0.01 34.89,1.55 33.12,4.49 C 31.35,7.43 29.83,11.68 28.71,16.87 L 11.11 16.87 C 8.16,16.87 5.34,20.53 3.25,27.04 C 1.17,33.55 0,42.38 0,51.59 L 0 100 L 100 100 L 100 51.59 C 100,42.38 98.83,33.55 96.75,27.04 C 94.66,20.53 91.84,16.87 88.89,16.87 L 71.29 16.87 C 70.17,11.68 68.65,7.43 66.88,4.49 C 65.11,1.55 63.14,0.01 61.13,0 L 61.13 0" fill="#FFFFFF" stroke="none" stroke-width="0.5"/>
  </g>
  <g transform="translate(1.00,0.00) scale(0.8300,0.4500)">
    <path d="M 74.89 99.99 C 73.39,99.98 71.92,99.29 70.61,97.98 C 69.29,96.68 68.18,94.79 67.37,92.51 L 54.35 92.51 C 52.93,93.72 51.37,94.35 49.8,94.35 C 48.23,94.35 46.67,93.72 45.25,92.51 L 32.33 92.51 C 31.52,94.8 30.41,96.69 29.09,98 C 27.77,99.31 26.29,100 24.79,100 C 23.29,100 21.81,99.31 20.49,98 C 19.17,96.69 18.06,94.8 17.25,92.51 L 0 92.51 L 0.27 86.03 C 0.59,78.68 1.95,71.6 4.22,65.48 C 6.49,59.35 9.58,54.37 13.21,51.02 C 13.99,50.25 14.65,49.18 15.15,47.87 C 15.66,46.56 15.99,45.06 16.12,43.49 C 16.94,35.93 19.18,29.12 22.47,24.22 C 25.76,19.33 29.89,16.65 34.14,16.66 C 34.72,16.59 35.29,16.59 35.86,16.66 L 36.44 16.66 C 37.2,16.67 37.96,16.4 38.66,15.86 C 39.36,15.31 39.99,14.51 40.51,13.51 C 42.99,8.68 46.09,5.01 49.53,2.83 C 52.97,0.64 56.65,0 60.26,0.96 C 63.87,1.91 67.29,4.44 70.24,8.32 C 73.19,12.19 75.58,17.31 77.19,23.22 C 77.58,24.7 78.14,26 78.85,27.02 C 79.55,28.05 80.38,28.77 81.26,29.13 C 83.84,30.16 86.29,31.99 88.52,34.56 C 93.46,40.19 97.03,49 98.51,59.21 C 100,69.42 99.29,80.27 96.53,89.58 L 95.61 92.68 L 82.44 92.68 C 81.62,94.94 80.5,96.78 79.18,98.06 C 77.86,99.34 76.39,100 74.89,99.99 L 74.89 99.99" fill="#FFFFFF" stroke="none" stroke-width="0.5"/>
  </g>
  <g transform="translate(0.00,0.00) scale(0.8500,0.4700)">
    <path d="M 56.8 4.22 C 60.66,4.2 64.45,6.11 67.74,9.75 C 71.03,13.39 73.68,18.6 75.39,24.81 C 75.85,26.46 76.51,27.92 77.33,29.05 C 78.14,30.19 79.09,30.99 80.1,31.39 C 82.49,32.35 84.77,34.03 86.84,36.36 C 91.41,41.49 94.71,49.53 96.09,58.86 C 97.46,68.19 96.8,78.11 94.23,86.6 L 93.67 88.5 L 80.85 88.5 C 80.22,90.67 79.26,92.49 78.09,93.76 C 76.91,95.03 75.57,95.7 74.2,95.7 C 72.83,95.7 71.48,95.03 70.31,93.76 C 69.14,92.49 68.18,90.67 67.54,88.5 L 53.97 88.5 C 52.68,89.66 51.25,90.27 49.8,90.27 C 48.36,90.27 46.93,89.66 45.63,88.5 L 32.06 88.5 C 31.42,90.64 30.47,92.42 29.31,93.67 C 28.15,94.92 26.82,95.58 25.47,95.59 C 24.12,95.6 22.79,94.95 21.62,93.72 C 20.45,92.49 19.5,90.71 18.85,88.58 L 2.54 88.58 L 2.71 84.7 C 2.97,77.96 4.19,71.45 6.25,65.79 C 8.31,60.12 11.15,55.5 14.49,52.35 C 15.4,51.51 16.19,50.32 16.81,48.86 C 17.43,47.4 17.86,45.71 18.07,43.91 C 18.59,39.18 19.73,34.74 21.42,30.97 C 23.1,27.2 25.26,24.22 27.73,22.28 C 29.85,20.62 32.15,19.76 34.47,19.75 L 36.02 19.75 L 36.68 19.75 C 37.56,19.72 38.44,19.38 39.25,18.75 C 40.06,18.11 40.79,17.19 41.39,16.03 C 43.36,12.26 45.75,9.27 48.41,7.23 C 51.06,5.2 53.92,4.18 56.8,4.22 L 56.8 4.22 M 56.8 0.01 C 53.62,0.01 50.47,1.19 47.56,3.47 C 44.65,5.75 42.02,9.08 39.86,13.25 C 39.46,14.01 38.98,14.61 38.45,15.02 C 37.91,15.42 37.33,15.63 36.75,15.61 L 36.3 15.61 C 35.72,15.55 35.13,15.55 34.54,15.61 C 30.12,15.63 25.83,18.38 22.42,23.41 C 19,28.44 16.67,35.43 15.81,43.2 C 15.67,44.38 15.39,45.5 14.99,46.46 C 14.58,47.43 14.05,48.21 13.45,48.77 C 9.76,52.22 6.62,57.3 4.33,63.53 C 2.04,69.76 0.67,76.93 0.35,84.37 L 0.19 88.25 L 0 92.8 L 17.46 92.8 C 18.37,95.03 19.57,96.85 20.95,98.1 C 22.33,99.35 23.86,100 25.41,100 C 26.96,100 28.48,99.35 29.86,98.1 C 31.24,96.85 32.44,95.03 33.36,92.8 L 45.14 92.8 C 46.62,93.98 48.23,94.59 49.85,94.59 C 51.47,94.59 53.08,93.98 54.56,92.8 L 66.34 92.8 C 67.26,95.03 68.46,96.85 69.84,98.1 C 71.22,99.35 72.75,100 74.29,100 C 75.84,100 77.37,99.35 78.75,98.1 C 80.13,96.85 81.33,95.03 82.24,92.8 L 95.18 92.8 L 95.84 90.61 L 96.4 88.71 C 99.26,79.25 100,68.19 98.46,57.8 C 96.92,47.4 93.22,38.45 88.11,32.78 C 85.82,30.18 83.29,28.32 80.64,27.3 C 79.98,27.04 79.35,26.53 78.81,25.81 C 78.26,25.08 77.81,24.15 77.48,23.08 C 75.59,16.15 72.65,10.32 68.99,6.24 C 65.33,2.16 61.11,0 56.8,0.01 L 56.8 0.01" fill="#FFFFFF" stroke="none" stroke-width="0.5"/>
  </g>
  <g transform="translate(58.00,49.00) scale(0.1500,0.1300)">
    <path d="M 65.35 0 L 0 0 C 1.64,6.07 2.49,12.39 2.51,18.74 L 2.51 25.79 L 65.35 25.79 C 68.5,25.79 71.53,27.21 73.77,29.74 C 76,32.27 77.25,35.7 77.25,39.28 L 77.25 100 L 100 100 L 100 39.28 C 99.97,28.87 96.31,18.9 89.82,11.55 C 83.32,4.19 74.53,0.04 65.35,0 L 65.35 0" fill="#2d5967" stroke="none" stroke-width="0.5"/>
  </g>
  <g transform="translate(2.00,2.00) scale(0.8000,0.4000)">
    <path d="M 88.84 38.12 C 86.65,35.35 84.24,33.36 81.71,32.22 C 80.65,31.75 79.65,30.81 78.79,29.46 C 77.93,28.11 77.24,26.39 76.75,24.43 C 74.95,17.08 72.16,10.89 68.69,6.58 C 65.23,2.27 61.24,0 57.17,0.03 C 54.16,0.05 51.18,1.3 48.42,3.73 C 45.66,6.15 43.18,9.69 41.13,14.13 C 40.4,15.7 39.49,16.91 38.49,17.65 C 37.49,18.4 36.41,18.66 35.35,18.43 C 32.36,17.89 29.36,18.87 26.61,21.28 C 24.01,23.58 21.73,27.12 19.96,31.58 C 18.18,36.05 16.98,41.31 16.43,46.92 C 16.21,49.05 15.76,51.05 15.11,52.78 C 14.46,54.51 13.62,55.92 12.66,56.91 C 9.14,60.64 6.15,66.13 3.98,72.84 C 1.81,79.55 0.52,87.26 0.25,95.25 L 0 100 L 13.55 100 C 13.11,97.58 12.89,95.03 12.88,92.45 C 12.88,92.1 12.88,91.75 12.88,91.4 L 4.77 91.4 C 5.32,85.74 6.5,80.4 8.22,75.78 C 9.94,71.16 12.15,67.38 14.69,64.71 C 16.22,63.12 17.55,60.84 18.59,58.07 C 19.62,55.29 20.32,52.07 20.65,48.67 C 21.07,44.42 21.99,40.44 23.33,37.06 C 24.67,33.69 26.4,31.01 28.37,29.27 C 30.45,27.43 32.72,26.68 34.97,27.07 C 36.69,27.42 38.42,26.97 40.03,25.75 C 41.64,24.52 43.09,22.57 44.26,20.03 C 45.91,16.46 47.91,13.6 50.13,11.65 C 52.35,9.7 54.74,8.69 57.17,8.68 C 60.44,8.63 63.65,10.44 66.44,13.91 C 69.22,17.38 71.46,22.35 72.9,28.27 C 73.68,31.4 74.8,34.13 76.17,36.27 C 77.54,38.42 79.13,39.92 80.82,40.67 C 83.45,41.84 85.92,44.19 88.05,47.53 C 90.17,50.87 91.9,55.12 93.11,59.98 C 94.31,64.83 94.97,70.17 95.02,75.6 C 95.07,81.03 94.52,86.41 93.41,91.35 L 86.68 91.35 C 86.68,91.7 86.68,92.05 86.68,92.4 C 86.69,94.99 86.47,97.56 86.03,100 L 95.96 100 L 96.56 97.75 C 99.28,87.7 100,75.94 98.56,64.86 C 97.13,53.78 93.65,44.22 88.84,38.12 L 88.84 38.12" fill="#2d5967" stroke="none" stroke-width="0.5"/>
  </g>
  <g transform="translate(11.00,49.00) scale(0.1500,0.1300)">
    <path d="M 100 0 L 34.65 0 C 25.47,0.04 16.68,4.19 10.19,11.55 C 3.7,18.9 0.03,28.87 0,39.28 L 0 100 L 22.75 100 L 22.75 39.28 C 22.75,35.7 24,32.27 26.24,29.74 C 28.47,27.21 31.5,25.79 34.65,25.79 L 97.49 25.79 L 97.49 18.74 C 97.52,12.39 98.36,6.07 100,0 L 100 0" fill="#2d5967" stroke="none" stroke-width="0.5"/>
  </g>
  <g transform="translate(29.00,46.00) scale(0.2600,0.1600)">
    <path d="M 99.92 35.63 C 99.92,26.18 97.55,17.12 93.31,10.43 C 89.07,3.75 83.33,0 77.33,0 L 22.59 0 C 16.6,0 10.85,3.75 6.62,10.43 C 2.38,17.12 0,26.18 0,35.63 L 0 100 L 12.95 100 L 12.95 35.63 C 12.95,31.57 13.97,27.67 15.8,24.79 C 17.62,21.92 20.09,20.31 22.67,20.31 L 77.33 20.31 C 79.91,20.31 82.38,21.92 84.2,24.79 C 86.02,27.67 87.05,31.57 87.05,35.63 L 87.05 100 L 100 100 L 99.92 35.63 L 99.92 35.63" fill="#2d5967" stroke="none" stroke-width="0.5"/>
  </g>
  <g transform="translate(34.00,26.00) scale(0.1600,0.1600)">
    <path d="M 49.52 100 C 59.31,100 68.89,97.1 77.03,91.66 C 85.17,86.21 91.52,78.48 95.27,69.43 C 99.02,60.38 100,50.43 98.09,40.82 C 96.18,31.21 91.46,22.39 84.53,15.47 C 77.61,8.54 68.78,3.82 59.18,1.92 C 49.57,0 39.61,0.98 30.57,4.73 C 21.52,8.48 13.79,14.82 8.34,22.97 C 2.9,31.12 0,40.69 0,50.48 C 0,63.62 5.22,76.21 14.5,85.5 C 23.79,94.78 36.39,100 49.52,100 L 49.52 100 M 49.52 21.84 C 55.18,21.84 60.72,23.52 65.43,26.67 C 70.14,29.81 73.81,34.28 75.98,39.52 C 78.15,44.75 78.72,50.51 77.61,56.07 C 76.51,61.63 73.78,66.73 69.78,70.74 C 65.77,74.74 60.66,77.47 55.11,78.58 C 49.55,79.68 43.79,79.11 38.55,76.94 C 33.32,74.78 28.85,71.11 25.7,66.39 C 22.56,61.68 20.87,56.15 20.87,50.48 C 21,42.97 24.08,35.81 29.43,30.54 C 34.79,25.27 42,22.32 49.52,22.33 L 49.52 21.84 L 49.52 21.84" fill="#2d5967" stroke="none" stroke-width="0.5"/>
  </g>
  <g transform="translate(15.00,32.00) scale(0.1300,0.1300)">
    <path d="M 0 49.52 C 0,59.31 2.9,68.89 8.34,77.03 C 13.78,85.18 21.52,91.52 30.57,95.27 C 39.62,99.02 49.57,100 59.18,98.09 C 68.79,96.18 77.61,91.46 84.54,84.54 C 91.46,77.61 96.18,68.79 98.09,59.18 C 100,49.57 99.02,39.62 95.27,30.57 C 91.52,21.52 85.18,13.78 77.03,8.35 C 68.88,2.9 59.32,0 49.52,0 C 43.02,0 36.57,1.28 30.57,3.77 C 24.56,6.26 19.1,9.9 14.5,14.5 C 9.91,19.1 6.26,24.56 3.76,30.57 C 1.28,36.58 0,43.02 0,49.52 L 0 49.52 M 49.52 26.98 C 54.09,26.98 58.57,28.34 62.38,30.89 C 66.19,33.43 69.16,37.04 70.91,41.27 C 72.66,45.5 73.11,50.16 72.23,54.65 C 71.33,59.14 69.13,63.27 65.89,66.5 C 62.65,69.74 58.53,71.94 54.04,72.84 C 49.55,73.73 44.89,73.27 40.66,71.52 C 36.43,69.77 32.81,66.8 30.27,62.99 C 27.72,59.19 26.37,54.71 26.37,50.14 C 26.37,43.99 28.81,38.1 33.15,33.77 C 37.49,29.42 43.38,26.98 49.52,26.98 L 49.52 26.98" fill="#2d5967" stroke="none" stroke-width="0.5"/>
  </g>
  <g transform="translate(56.00,32.00) scale(0.1300,0.1300)">
    <path d="M 99.98 50.63 C 100,40.84 97.13,31.25 91.7,23.08 C 86.28,14.92 78.56,8.55 69.52,4.77 C 60.48,1 50.52,0 40.9,1.9 C 31.29,3.79 22.45,8.49 15.51,15.41 C 8.58,22.33 3.85,31.15 1.92,40.76 C 0,50.37 0.97,60.33 4.71,69.39 C 8.46,78.45 14.8,86.19 22.95,91.64 C 31.09,97.09 40.67,100 50.47,100 C 63.57,100 76.14,94.8 85.42,85.55 C 94.7,76.29 99.94,63.74 99.98,50.63 L 99.98 50.63 M 50.47 74.09 C 44.83,73.44 39.62,70.74 35.84,66.49 C 32.07,62.25 29.98,56.77 29.98,51.09 C 29.98,45.42 32.07,39.93 35.84,35.69 C 39.62,31.45 44.83,28.75 50.47,28.09 C 53.71,27.72 57,28.04 60.1,29.02 C 63.22,30.01 66.09,31.63 68.52,33.81 C 70.96,35.98 72.91,38.64 74.25,41.63 C 75.58,44.6 76.27,47.83 76.27,51.09 C 76.27,54.36 75.58,57.58 74.25,60.56 C 72.91,63.54 70.96,66.2 68.52,68.37 C 66.09,70.55 63.22,72.18 60.1,73.16 C 57,74.15 53.71,74.46 50.47,74.09 L 50.47 74.09" fill="#2d5967" stroke="none" stroke-width="0.5"/>
  </g>
</svg>