<svg xmlns="http://www.w3.org/2000/svg" viewBox="0 0 84.0 108.99999999999994" width="84" height="108">
  <g transform="translate(1.00,1.00) scale(0.8200,0.8200)">
    <path d="M 91.46 0 L 8.54 0 C 3.83,0 0,3.82 0,8.54 L 0 91.46 C 0,96.18 3.83,100 8.54,100 L 91.46 100 C 96.17,100 100,96.18 100,91.46 L 100 8.54 C 100,3.82 96.17,0 91.46,0 L 91.46 0" fill="#FFFFFF" stroke="none" stroke-width="0.5"/>
  </g>
  <g transform="translate(0.00,-0.00) scale(0.8400,0.8400)">
    <path d="M 90.48 2.38 C 92.38,2.38 94.19,3.13 95.53,4.47 C 96.86,5.81 97.62,7.63 97.62,9.52 L 97.62 90.48 C 97.62,92.37 96.86,94.19 95.53,95.53 C 94.19,96.87 92.38,97.62 90.48,97.62 L 9.52 97.62 C 7.62,97.62 5.81,96.87 4.47,95.53 C 3.14,94.19 2.38,92.37 2.38,90.48 L 2.38 9.52 C 2.38,7.63 3.14,5.81 4.47,4.47 C 5.81,3.13 7.62,2.38 9.52,2.38 L 90.48 2.38 L 90.48 2.38 M 90.48 0 L 9.52 0 C 7,0 4.58,1 2.79,2.79 C 1,4.58 0,7 0,9.52 L 0 90.48 C 0,93 1,95.43 2.79,97.21 C 4.58,99 7,100 9.52,100 L 90.48 100 C 93,100 95.43,99 97.21,97.21 C 99,95.43 100,93 100,90.48 L 100 9.52 C 100,7 99,4.58 97.21,2.79 C 95.43,1 93,0 90.48,0 L 90.48 0 L 90.48 0" fill="#FFFFFF" stroke="none" stroke-width="0.5"/>
  </g>
  <g transform="translate(2.00,2.00) scale(0.8000,0.8000)">
    <path d="M 92.49 0 L 7.49 0 C 5.5,0 3.6,0.79 2.19,2.2 C 0.79,3.6 0,5.51 0,7.5 L 0 45.27 L 0 92.5 C 0,94.49 0.79,96.4 2.19,97.8 C 3.6,99.21 5.5,100 7.49,100 L 92.49 100 C 94.49,100 96.39,99.21 97.79,97.8 C 99.2,96.4 100,94.49 100,92.5 L 100 7.5 C 100,5.51 99.2,3.6 97.79,2.2 C 96.39,0.79 94.49,0 92.49,0 L 92.49 0 M 38.12 60.75 C 40.33,61.91 42.47,63.21 44.52,64.65 C 42.5,67.77 40.6,71.22 38.75,75 C 36.4,71.92 33.92,68.93 31.4,66.1 C 33.52,64.18 35.77,62.39 38.12,60.75 L 38.12 60.75 M 43.12 57.75 C 45.79,57.1 48.43,56.26 50.99,55.25 C 49.85,56.8 48.62,58.52 47.34,60.42 C 45.79,59.47 44.39,58.57 43.02,57.75 L 43.12 57.75 L 43.12 57.75 M 28 62.5 C 26.84,61.3 25.7,60.17 24.54,59.1 C 26.36,59.36 28.17,59.5 29.99,59.5 L 31.62 59.5 C 30.4,60.3 29.19,61.32 28,62.5 L 28 62.5 M 15.76 58.07 C 18.81,60.45 21.66,63.04 24.32,65.83 C 21.47,68.62 18.78,71.57 16.25,74.65 C 13.66,70.01 10.79,65.54 7.64,61.27 C 10.11,59.68 12.88,58.59 15.76,58.07 L 15.76 58.07 M 10.54 54.3 C 8.6,54.99 6.73,55.92 4.99,57.05 L 4.99 50.2 C 6.77,51.64 8.66,52.93 10.64,54.07 L 10.54 54.3 L 10.54 54.3 M 12.86 78.9 C 10,82.61 7.38,86.49 4.99,90.53 L 4.99 66.15 C 7.86,70.24 10.5,74.5 12.86,78.9 L 12.86 78.9 M 15.37 83.9 C 17.22,87.51 18.86,91.21 20.29,95 L 8.19 95 C 10.37,91.14 12.78,87.42 15.42,83.85 L 15.37 83.9 L 15.37 83.9 M 18.77 79.5 C 21.54,75.99 24.53,72.65 27.69,69.5 C 30.62,72.8 33.57,76.4 36.26,80.1 C 34.13,84.94 32.41,89.96 31.12,95.1 L 25.59 95.1 C 23.72,89.73 21.45,84.5 18.82,79.45 L 18.77 79.5 L 18.77 79.5 M 39.74 85 C 41.92,88.22 43.92,91.55 45.71,95 L 36.32 95 C 37.26,91.6 38.4,88.26 39.74,85 L 39.74 85 M 42.09 79.62 C 44.05,75.53 46.23,71.55 48.62,67.7 C 52.64,70.83 56.52,74.17 60.19,77.7 C 58.87,83.47 57.87,89.31 57.2,95.2 L 51.27 95.2 C 48.67,89.73 45.6,84.49 42.09,79.55 L 42.09 79.62 L 42.09 79.62 M 64.42 81.82 C 68.59,86 72.53,90.4 76.22,95 L 62.21 95 C 62.79,90.35 63.54,85.95 64.42,81.75 L 64.42 81.82 L 64.42 81.82 M 51.32 63.47 C 53.81,59.57 56.32,56.37 58.28,54.07 C 61.18,54.51 64.04,55.24 66.79,56.25 C 64.76,61.43 63.01,66.72 61.57,72.1 C 58.17,68.9 54.72,65.97 51.32,63.4 L 51.32 63.47 L 51.32 63.47 M 62.49 49.7 C 65.8,47.76 68.97,45.64 72.02,43.32 C 72.27,43.16 72.54,43.02 72.82,42.9 C 71.49,45.4 70.11,48.37 68.75,51.52 C 66.7,50.8 64.61,50.19 62.49,49.7 L 62.49 49.7 M 79.25 41.6 C 84.54,41.08 89.87,41.54 95,42.95 L 95 67.5 C 88.59,61.72 81.3,57.03 73.4,53.6 C 75.14,49.5 77.1,45.5 79.25,41.6 L 79.25 41.6 M 95 37.75 C 90.84,36.74 86.57,36.3 82.29,36.42 C 84.2,33.37 85.69,31.43 86.42,30.35 C 90,26.7 92.82,23.32 95,20.62 L 95 37.75 L 95 37.75 M 7.49 5 L 92.49 5 C 93.16,5 93.79,5.26 94.26,5.73 C 94.74,6.2 95,6.84 95,7.5 L 95 12.35 C 91.36,17.35 87.39,22.1 83.09,26.55 L 82.9 26.8 C 71.05,39.07 51.9,54.3 30.02,54.3 C 20.58,54.07 11.6,50.18 4.99,43.45 L 4.99 7.5 C 4.99,6.84 5.26,6.2 5.72,5.73 C 6.2,5.26 6.83,5 7.49,5 L 7.49 5 M 92.49 95 L 82.49 95 C 77.41,88.24 71.79,81.89 65.72,76 C 67.25,69.9 69.18,63.91 71.47,58.05 C 80.4,61.83 88.42,67.49 95,74.63 L 95 92.5 C 95,93.16 94.74,93.8 94.26,94.27 C 93.79,94.74 93.16,95 92.49,95 L 92.49 95" fill="#2d5967" stroke="none" stroke-width="0.5"/>
  </g>
</svg>