<svg xmlns="http://www.w3.org/2000/svg" viewBox="0 0 85.0 128.99999999999994" width="85" height="128">
  <g transform="translate(28.00,0.00) scale(0.8200,0.7800)">
    <path d="M 51.11 99.99 C 48.33,100 45.59,99.42 43.03,98.3 C 40.47,97.17 38.15,95.52 36.2,93.44 L 17.47 93.44 L 17.47 54.24 L 0 54.24 L 0.25 50.58 C 0.55,46.26 1.89,42.1 4.14,38.48 C 6.4,34.87 9.49,31.91 13.13,29.91 C 13.93,29.48 14.62,28.87 15.16,28.13 C 15.7,27.38 16.07,26.51 16.25,25.59 C 16.8,22.5 18.06,19.6 19.92,17.14 C 21.78,14.67 24.18,12.72 26.91,11.45 C 29.25,10.37 31.78,9.81 34.33,9.8 C 34.91,9.8 35.49,9.8 36.06,9.8 L 36.66 9.8 C 37.43,9.81 38.2,9.65 38.91,9.33 C 39.62,9.01 40.26,8.53 40.79,7.93 C 43.27,5.11 46.38,2.96 49.83,1.67 C 53.28,0.39 56.98,0 60.6,0.55 C 64.23,1.09 67.67,2.55 70.64,4.81 C 73.61,7.06 76.02,10.04 77.65,13.49 C 78.02,14.38 78.58,15.17 79.28,15.79 C 79.98,16.42 80.81,16.87 81.71,17.1 C 85.21,17.91 88.48,19.56 91.27,21.93 C 94.06,24.29 96.29,27.31 97.78,30.73 C 99.28,34.16 100,37.9 99.89,41.67 C 99.78,45.44 98.84,49.12 97.15,52.45 L 96.22 54.24 L 84.7 54.24 L 84.7 93.44 L 65.99 93.44 C 64.05,95.52 61.74,97.18 59.18,98.3 C 56.62,99.43 53.88,100 51.11,99.99 L 51.11 99.99" fill="#FFFFFF" stroke="none" stroke-width="0.5"/>
  </g>
  <g transform="translate(27.00,0.00) scale(0.8500,0.8000)">
    <path d="M 56.88 2.4 C 60.76,2.38 64.56,3.53 67.86,5.7 C 71.15,7.87 73.81,10.98 75.53,14.68 C 76,15.68 76.68,16.55 77.5,17.23 C 78.33,17.92 79.29,18.4 80.32,18.63 C 82.7,19.19 84.97,20.19 87.02,21.59 C 91.6,24.66 94.9,29.46 96.28,35.03 C 97.66,40.59 97,46.51 94.45,51.58 L 93.87 52.72 L 82.31 52.72 L 82.31 91.19 L 64.84 91.19 C 63.05,93.22 60.88,94.84 58.47,95.94 C 56.07,97.05 53.48,97.62 50.86,97.62 C 48.24,97.62 45.65,97.05 43.24,95.94 C 40.84,94.84 38.67,93.22 36.87,91.19 L 19.27 91.19 L 19.27 52.72 L 2.41 52.72 L 2.57 50.34 C 2.84,46.31 4.08,42.43 6.16,39.05 C 8.24,35.68 11.1,32.93 14.47,31.06 C 15.39,30.55 16.19,29.83 16.81,28.95 C 17.43,28.07 17.86,27.05 18.07,25.97 C 18.82,21.91 20.87,18.25 23.87,15.62 C 26.87,12.99 30.64,11.55 34.52,11.54 C 35.06,11.54 35.57,11.54 36.09,11.54 L 36.78 11.54 C 37.67,11.58 38.56,11.42 39.39,11.07 C 40.22,10.73 40.98,10.21 41.61,9.54 C 43.56,7.3 45.92,5.51 48.55,4.28 C 51.18,3.05 54.01,2.41 56.88,2.4 L 56.88 2.4 M 56.88 0.02 C 53.71,0.02 50.57,0.72 47.66,2.07 C 44.76,3.42 42.14,5.4 39.98,7.87 C 39.56,8.33 39.07,8.69 38.52,8.94 C 37.97,9.19 37.38,9.32 36.78,9.33 L 36.31 9.33 C 35.71,9.33 35.13,9.33 34.52,9.33 C 30.13,9.32 25.88,10.94 22.48,13.9 C 19.07,16.86 16.74,20.98 15.88,25.56 C 15.74,26.29 15.44,26.98 15.02,27.58 C 14.59,28.17 14.04,28.65 13.42,28.99 C 9.71,31.04 6.56,34.07 4.27,37.79 C 1.98,41.51 0.63,45.79 0.33,50.22 L 0.18 52.6 L 0 55.1 L 17.04 55.1 L 17.04 93.57 L 35.89 93.57 C 39.89,97.69 45.24,100 50.8,100 C 56.37,100 61.72,97.69 65.72,93.57 L 84.54 93.57 L 84.54 55.1 L 95.25 55.1 L 95.88 53.87 L 96.46 52.72 C 99.28,47.11 100,40.58 98.48,34.43 C 96.96,28.27 93.3,22.96 88.25,19.56 C 85.96,18.02 83.44,16.91 80.79,16.3 C 80.09,16.14 79.44,15.81 78.88,15.35 C 78.32,14.88 77.86,14.29 77.54,13.61 C 75.64,9.51 72.69,6.07 69.04,3.67 C 65.39,1.26 61.18,0 56.88,0.02 L 56.88 0.02" fill="#FFFFFF" stroke="none" stroke-width="0.5"/>
  </g>
  <g transform="translate(29.00,1.00) scale(0.8100,0.4000)">
    <path d="M 88.82 38.12 C 86.67,35.35 84.28,33.37 81.78,32.26 C 80.71,31.79 79.7,30.84 78.83,29.49 C 77.96,28.13 77.26,26.4 76.76,24.42 C 74.96,17.07 72.16,10.88 68.69,6.57 C 65.22,2.26 61.23,0 57.15,0.05 C 54.14,0.07 51.16,1.34 48.41,3.78 C 45.65,6.22 43.17,9.77 41.13,14.22 C 40.39,15.78 39.48,16.99 38.48,17.74 C 37.47,18.49 36.4,18.77 35.33,18.56 C 31,17.74 26.66,20.18 23.17,25.42 C 19.68,30.65 17.27,38.31 16.42,46.91 C 16.21,49.05 15.76,51.07 15.1,52.82 C 14.45,54.57 13.61,56 12.64,57.01 C 9.12,60.72 6.12,66.18 3.93,72.88 C 1.75,79.57 0.45,87.28 0.16,95.28 L 0 100 L 14.5 100 L 14.5 91.31 L 4.72 91.31 C 5.27,85.65 6.45,80.31 8.17,75.69 C 9.89,71.07 12.1,67.29 14.64,64.62 C 16.17,63.02 17.5,60.74 18.53,57.96 C 19.56,55.18 20.27,51.97 20.6,48.56 C 21.23,42 23.06,36.15 25.73,32.16 C 28.39,28.18 31.7,26.34 35,27.02 C 36.73,27.4 38.48,26.96 40.11,25.74 C 41.74,24.51 43.2,22.54 44.39,19.98 C 46.33,15.84 48.74,12.71 51.41,10.85 C 54.08,8.98 56.94,8.44 59.74,9.26 C 62.53,10.09 65.19,12.26 67.49,15.58 C 69.78,18.91 71.64,23.3 72.92,28.39 C 73.69,31.52 74.8,34.25 76.17,36.4 C 77.53,38.54 79.13,40.03 80.82,40.76 C 82.85,41.66 84.79,43.26 86.55,45.49 C 90.24,50.2 92.97,57.43 94.24,65.86 C 95.5,74.3 95.21,83.37 93.42,91.4 L 87.02 91.4 L 87.02 100 L 96 100 L 96.61 97.73 C 99.3,87.66 100,75.9 98.55,64.83 C 97.11,53.77 93.63,44.22 88.82,38.12 L 88.82 38.12" fill="#2d5967" stroke="none" stroke-width="0.5"/>
  </g>
  <g transform="translate(43.00,30.00) scale(0.5300,0.4200)">
    <path d="M 94.22 11.52 L 41.01 11.52 L 35.9 2.89 C 35.36,1.99 34.67,1.26 33.87,0.76 C 33.06,0.26 32.18,0 31.29,0 L 5.78 0 C 4.25,0 2.79,0.76 1.71,2.11 C 0.62,3.46 0.01,5.29 0,7.21 L 0 100 L 21.5 100 C 20,97.5 18.73,94.8 17.7,91.95 L 6.46 91.95 L 6.46 31.09 L 31.29 31.09 C 32.18,31.09 33.06,30.83 33.86,30.33 C 34.67,29.83 35.36,29.1 35.9,28.2 L 41.04 19.62 L 93.58 19.62 L 93.58 91.95 L 82.3 91.95 C 81.27,94.79 80.01,97.49 78.54,100 L 100 100 L 100 18.6 C 99.96,16.7 99.34,14.9 98.26,13.58 C 97.18,12.26 95.73,11.52 94.22,11.52 L 94.22 11.52 M 30.76 23.04 L 6.46 23.04 L 6.46 8.1 L 30.76 8.1 L 35.22 15.62 L 30.76 23.04 L 30.76 23.04" fill="#2d5967" stroke="none" stroke-width="0.5"/>
  </g>
  <g transform="translate(53.00,44.00) scale(0.3300,0.3300)">
    <path d="M 100 50.47 C 100,40.68 97.09,31.1 91.65,22.96 C 86.21,14.82 78.47,8.47 69.42,4.72 C 60.37,0.98 50.41,0 40.8,1.92 C 31.19,3.83 22.37,8.55 15.44,15.48 C 8.52,22.41 3.81,31.24 1.91,40.85 C 0,50.46 0.99,60.42 4.75,69.46 C 8.5,78.51 14.86,86.24 23.01,91.67 C 31.16,97.11 40.74,100 50.54,99.99 C 63.65,99.96 76.23,94.73 85.5,85.45 C 94.77,76.17 99.98,63.59 100,50.47 L 100 50.47 M 50.54 89.56 C 42.81,89.56 35.25,87.27 28.82,82.97 C 22.39,78.68 17.38,72.57 14.42,65.43 C 11.47,58.29 10.69,50.43 12.2,42.85 C 13.71,35.27 17.43,28.3 22.9,22.84 C 28.36,17.37 35.33,13.65 42.91,12.14 C 50.49,10.63 58.35,11.41 65.5,14.37 C 72.64,17.32 78.74,22.33 83.04,28.76 C 87.33,35.19 89.63,42.74 89.63,50.47 C 89.61,60.84 85.49,70.77 78.16,78.1 C 70.83,85.42 60.9,89.54 50.54,89.56 L 50.54 89.56" fill="#2d5967" stroke="none" stroke-width="0.5"/>
  </g>
  <g transform="translate(63.00,51.00) scale(0.1300,0.1900)">
    <path d="M 61.49 100 L 61.49 88.05 L 63.98 88.05 C 68.6,88.26 73.23,87.8 77.59,86.72 C 81.94,85.64 85.93,83.95 89.3,81.76 C 92.68,79.57 95.37,76.92 97.21,73.98 C 99.05,71.05 100,67.88 100,64.68 C 100,61.47 99.05,58.31 97.21,55.37 C 95.37,52.43 92.68,49.78 89.3,47.59 C 85.93,45.4 81.94,43.72 77.59,42.63 C 73.23,41.55 68.6,41.1 63.98,41.3 L 61.49 41.3 L 61.49 29.35 L 91.21 29.35 L 91.21 12.04 L 61.49 12.04 L 61.49 0 L 36.34 0 L 36.34 12.04 L 33.72 12.04 C 24.77,12.04 16.2,14.5 9.88,18.88 C 3.56,23.25 0,29.19 0,35.38 C 0,41.56 3.56,47.49 9.88,51.87 C 16.2,56.24 24.77,58.7 33.72,58.7 L 36.34 58.7 L 36.34 70.65 L 6.49 70.65 L 6.49 88.05 L 36.34 88.05 L 36.34 100 L 61.49 100 L 61.49 100 M 33.86 41.3 C 31.61,41.33 29.44,40.74 27.8,39.67 C 26.18,38.59 25.23,37.12 25.15,35.57 C 25.19,33.96 26.1,32.42 27.72,31.26 C 29.34,30.11 31.54,29.42 33.86,29.35 L 36.48 29.35 L 36.48 41.3 L 33.86 41.3 L 33.86 41.3 M 61.49 58.7 L 63.98 58.7 C 66.28,58.73 68.47,59.37 70.1,60.49 C 71.72,61.62 72.65,63.14 72.69,64.73 C 72.65,66.3 71.71,67.81 70.09,68.92 C 68.46,70.03 66.26,70.65 63.98,70.65 L 61.49 70.65 L 61.49 58.7 L 61.49 58.7" fill="#2d5967" stroke="none" stroke-width="0.5"/>
  </g>
</svg>