<svg xmlns="http://www.w3.org/2000/svg" viewBox="0 0 85.0 115.99999999999991" width="85" height="115">
  <g transform="translate(20.00,0.00) scale(0.8300,0.7800)">
    <path d="M 18.37 83.46 L 18.37 53.93 L 0 53.93 L 0.25 50.27 C 0.55,45.97 1.87,41.82 4.11,38.21 C 6.35,34.61 9.42,31.67 13.04,29.67 C 13.84,29.25 14.53,28.64 15.06,27.89 C 15.6,27.14 15.97,26.28 16.14,25.36 C 16.98,20.96 19.21,17.01 22.49,14.16 C 25.76,11.31 29.86,9.75 34.1,9.73 C 34.67,9.7 35.26,9.7 35.83,9.73 L 36.43 9.73 C 37.2,9.74 37.96,9.58 38.66,9.26 C 39.37,8.94 40.01,8.46 40.54,7.86 C 43.02,5.05 46.1,2.92 49.53,1.65 C 52.97,0.37 56.64,0 60.25,0.56 C 63.84,1.12 67.25,2.59 70.2,4.85 C 73.15,7.11 75.52,10.1 77.12,13.54 C 77.53,14.39 78.11,15.13 78.82,15.72 C 79.53,16.3 80.36,16.71 81.23,16.91 C 83.82,17.5 86.29,18.57 88.52,20.07 C 93.46,23.34 97.03,28.48 98.51,34.43 C 100,40.39 99.28,46.72 96.51,52.14 L 95.59 53.93 L 81.08 53.93 L 81.08 84.09 L 49.7 100 L 18.37 83.46 L 18.37 83.46" fill="#FFFFFF" stroke="none" stroke-width="0.5"/>
  </g>
  <g transform="translate(19.00,0.00) scale(0.8500,0.8000)">
    <path d="M 56.92 2.38 C 60.79,2.36 64.6,3.5 67.89,5.66 C 71.19,7.81 73.85,10.9 75.57,14.58 C 76.03,15.57 76.71,16.44 77.53,17.12 C 78.36,17.8 79.33,18.27 80.35,18.49 C 82.74,19.07 85.01,20.06 87.08,21.44 C 91.66,24.49 94.96,29.27 96.35,34.8 C 97.73,40.33 97.07,46.21 94.52,51.25 L 93.93 52.39 L 79.32 52.39 L 79.32 82.27 L 49.78 97.32 L 20.2 81.72 L 20.2 52.39 L 2.25 52.39 L 2.41 50.01 C 2.7,45.99 3.97,42.12 6.09,38.77 C 8.21,35.42 11.1,32.69 14.5,30.86 C 15.42,30.36 16.22,29.65 16.84,28.78 C 17.46,27.91 17.89,26.9 18.09,25.83 C 18.61,23.02 19.76,20.39 21.45,18.16 C 23.14,15.92 25.31,14.15 27.79,12.99 C 29.91,12.01 32.21,11.5 34.52,11.49 C 35.06,11.49 35.57,11.49 36.09,11.49 L 36.79 11.49 C 37.68,11.53 38.57,11.37 39.4,11.03 C 40.24,10.69 41,10.17 41.64,9.5 C 43.59,7.26 45.94,5.48 48.57,4.25 C 51.2,3.03 54.04,2.39 56.92,2.38 L 56.92 2.38 M 56.92 0 C 53.75,0.01 50.61,0.71 47.69,2.05 C 44.78,3.39 42.16,5.35 40,7.81 C 39.59,8.27 39.09,8.64 38.55,8.89 C 38,9.14 37.41,9.27 36.81,9.26 L 36.34 9.26 C 35.74,9.23 35.14,9.23 34.54,9.26 C 30.15,9.26 25.88,10.87 22.48,13.81 C 19.08,16.75 16.75,20.85 15.87,25.4 C 15.73,26.12 15.45,26.8 15.04,27.39 C 14.62,27.97 14.08,28.46 13.46,28.79 C 9.76,30.83 6.61,33.83 4.32,37.52 C 2.02,41.2 0.65,45.45 0.33,49.85 L 0.17 52.22 L 0 54.76 L 17.95 54.76 L 17.95 83.24 L 19.19 83.88 L 48.71 99.48 L 49.67 100 L 50.68 99.5 L 80.22 84.45 L 81.48 83.79 L 81.48 54.76 L 95.21 54.76 L 95.84 53.5 L 96.43 52.39 C 99.26,46.83 100,40.34 98.5,34.23 C 97,28.12 93.36,22.84 88.33,19.44 C 86.02,17.9 83.46,16.8 80.81,16.19 C 80.1,16.04 79.44,15.71 78.88,15.25 C 78.31,14.78 77.85,14.19 77.54,13.51 C 75.65,9.45 72.69,6.03 69.06,3.65 C 65.41,1.26 61.2,0 56.92,0 L 56.92 0" fill="#FFFFFF" stroke="none" stroke-width="0.5"/>
  </g>
  <g transform="translate(21.00,1.00) scale(0.8100,0.4000)">
    <path d="M 88.76 38.22 C 86.59,35.49 84.2,33.52 81.7,32.38 C 80.62,31.93 79.62,31 78.75,29.65 C 77.88,28.3 77.18,26.58 76.7,24.61 C 75.1,18.29 72.77,12.85 69.9,8.73 C 67.02,4.61 63.69,1.95 60.2,0.98 C 56.7,0 53.13,0.74 49.8,3.12 C 46.48,5.51 43.5,9.47 41.11,14.67 C 40.36,16.25 39.47,17.45 38.47,18.2 C 37.45,18.94 36.37,19.2 35.32,18.96 C 30.99,18.18 26.67,20.63 23.2,25.85 C 19.71,31.07 17.33,38.68 16.49,47.21 C 16.27,49.32 15.8,51.3 15.14,53.01 C 14.47,54.71 13.63,56.09 12.65,57.05 C 9.13,60.75 6.12,66.2 3.94,72.87 C 1.74,79.55 0.46,87.23 0.17,95.2 L 0 99.91 L 15.55 99.91 L 15.55 91.24 L 4.73 91.24 C 5.28,85.61 6.45,80.29 8.17,75.69 C 9.88,71.09 12.09,67.33 14.63,64.68 C 16.16,63.09 17.49,60.84 18.52,58.08 C 19.54,55.33 20.26,52.14 20.59,48.77 C 21.21,42.27 23.03,36.47 25.68,32.51 C 28.34,28.55 31.63,26.7 34.92,27.34 C 36.64,27.73 38.4,27.29 40.04,26.07 C 41.66,24.85 43.13,22.89 44.32,20.32 C 46.27,16.21 48.69,13.09 51.35,11.23 C 54.03,9.38 56.89,8.85 59.69,9.68 C 62.5,10.51 65.15,12.68 67.45,16.01 C 69.74,19.34 71.6,23.73 72.86,28.8 C 73.63,31.91 74.75,34.62 76.11,36.75 C 77.48,38.88 79.06,40.36 80.77,41.09 C 83.39,42.27 85.85,44.61 87.97,47.93 C 90.1,51.25 91.82,55.48 93.03,60.3 C 94.24,65.13 94.89,70.43 94.94,75.82 C 94.99,81.21 94.45,86.56 93.34,91.48 L 83.77 91.48 L 83.77 100 L 95.93 100 L 96.55 97.74 C 99.28,87.7 100,75.95 98.56,64.89 C 97.1,53.83 93.6,44.29 88.76,38.22 L 88.76 38.22" fill="#2d5967" stroke="none" stroke-width="0.5"/>
  </g>
  <g transform="translate(53.00,23.00) scale(0.3300,0.4600)">
    <path d="M 0 8.65 L 11.73 12.87 L 24.16 8.4 L 83.1 29.55 L 70.64 34.02 L 76.41 36.09 L 76.41 40.31 L 89.58 35.6 L 89.58 87.13 L 76.41 91.68 L 76.41 100 L 100 91.85 L 100 27.23 L 24.16 0 L 0 8.65 L 0 8.65" fill="#2d5967" stroke="none" stroke-width="0.5"/>
  </g>
  <g transform="translate(36.00,32.00) scale(0.3300,0.4500)">
    <path d="M 81.66 89.69 L 81.66 38.11 L 100 31.42 L 100 27.22 L 94.21 25.16 L 76.86 31.59 L 17.38 10.01 L 33.29 4.21 L 21.25 0 L 0 7.66 L 0 72.36 L 76.31 100 L 100 91.58 L 100 83.17 L 81.66 89.69 L 81.66 89.69 M 10.72 16.15 L 71.13 38.11 L 71.13 89.57 L 10.72 67.65 L 10.72 16.15 L 10.72 16.15" fill="#2d5967" stroke="none" stroke-width="0.5"/>
  </g>
  <g transform="translate(42.00,44.00) scale(0.0600,0.0700)">
    <path d="M 0 0 L 0 61.03 L 100 100 L 100 38.97 L 0 0 L 0 0" fill="#2d5967" stroke="none" stroke-width="0.5"/>
  </g>
  <g transform="translate(45.00,29.00) scale(0.3000,0.2100)">
    <path d="M 85.74 67.31 L 85.74 100 L 100 90.03 L 100 57.43 L 14.33 0 L 0 9.88 L 85.74 67.31 L 85.74 67.31" fill="#2d5967" stroke="none" stroke-width="0.5"/>
  </g>
  <g transform="translate(71.00,64.00) scale(0.0400,0.0900)">
    <path d="M 0 100 L 100 76.79 L 100 0 L 0 23.2 L 0 100 L 0 100" fill="#2d5967" stroke="none" stroke-width="0.5"/>
  </g>
  <g transform="translate(21.00,1.00) scale(0.8100,0.4000)">
    <path d="M 88.76 38.22 C 86.59,35.49 84.2,33.52 81.7,32.38 C 80.62,31.93 79.62,31 78.75,29.65 C 77.88,28.3 77.18,26.58 76.7,24.61 C 75.1,18.29 72.77,12.85 69.9,8.73 C 67.02,4.61 63.69,1.95 60.2,0.98 C 56.7,0 53.13,0.74 49.8,3.12 C 46.48,5.51 43.5,9.47 41.11,14.67 C 40.36,16.25 39.47,17.45 38.47,18.2 C 37.45,18.94 36.37,19.2 35.32,18.96 C 30.99,18.18 26.67,20.63 23.2,25.85 C 19.71,31.07 17.33,38.68 16.49,47.21 C 16.27,49.32 15.8,51.3 15.14,53.01 C 14.47,54.71 13.63,56.09 12.65,57.05 C 9.13,60.75 6.12,66.2 3.94,72.87 C 1.74,79.55 0.46,87.23 0.17,95.2 L 0 99.91 L 15.55 99.91 L 15.55 91.24 L 4.73 91.24 C 5.28,85.61 6.45,80.29 8.17,75.69 C 9.88,71.09 12.09,67.33 14.63,64.68 C 16.16,63.09 17.49,60.84 18.52,58.08 C 19.54,55.33 20.26,52.14 20.59,48.77 C 21.21,42.27 23.03,36.47 25.68,32.51 C 28.34,28.55 31.63,26.7 34.92,27.34 C 36.64,27.73 38.4,27.29 40.04,26.07 C 41.66,24.85 43.13,22.89 44.32,20.32 C 46.27,16.21 48.69,13.09 51.35,11.23 C 54.03,9.38 56.89,8.85 59.69,9.68 C 62.5,10.51 65.15,12.68 67.45,16.01 C 69.74,19.34 71.6,23.73 72.86,28.8 C 73.63,31.91 74.75,34.62 76.11,36.75 C 77.48,38.88 79.06,40.36 80.77,41.09 C 83.39,42.27 85.85,44.61 87.97,47.93 C 90.1,51.25 91.82,55.48 93.03,60.3 C 94.24,65.13 94.89,70.43 94.94,75.82 C 94.99,81.21 94.45,86.56 93.34,91.48 L 83.77 91.48 L 83.77 100 L 95.93 100 L 96.55 97.74 C 99.28,87.7 100,75.95 98.56,64.89 C 97.1,53.83 93.6,44.29 88.76,38.22 L 88.76 38.22" fill="#2d5967" stroke="none" stroke-width="0.5"/>
  </g>
  <g transform="translate(53.00,23.00) scale(0.3300,0.4600)">
    <path d="M 0 8.65 L 11.73 12.87 L 24.16 8.4 L 83.1 29.55 L 70.64 34.02 L 76.41 36.09 L 76.41 40.31 L 89.58 35.6 L 89.58 87.13 L 76.41 91.68 L 76.41 100 L 100 91.85 L 100 27.23 L 24.16 0 L 0 8.65 L 0 8.65" fill="#2d5967" stroke="none" stroke-width="0.5"/>
  </g>
  <g transform="translate(36.00,32.00) scale(0.3300,0.4500)">
    <path d="M 81.66 89.69 L 81.66 38.11 L 100 31.42 L 100 27.22 L 94.21 25.16 L 76.86 31.59 L 17.38 10.01 L 33.29 4.21 L 21.25 0 L 0 7.66 L 0 72.36 L 76.31 100 L 100 91.58 L 100 83.17 L 81.66 89.69 L 81.66 89.69 M 10.72 16.15 L 71.13 38.11 L 71.13 89.57 L 10.72 67.65 L 10.72 16.15 L 10.72 16.15" fill="#2d5967" stroke="none" stroke-width="0.5"/>
  </g>
  <g transform="translate(42.00,44.00) scale(0.0600,0.0700)">
    <path d="M 0 0 L 0 61.03 L 100 100 L 100 38.97 L 0 0 L 0 0" fill="#2d5967" stroke="none" stroke-width="0.5"/>
  </g>
  <g transform="translate(45.00,29.00) scale(0.3000,0.2100)">
    <path d="M 85.74 67.31 L 85.74 100 L 100 90.03 L 100 57.43 L 14.33 0 L 0 9.88 L 85.74 67.31 L 85.74 67.31" fill="#2d5967" stroke="none" stroke-width="0.5"/>
  </g>
  <g transform="translate(71.00,64.00) scale(0.0400,0.0900)">
    <path d="M 0 100 L 100 76.79 L 100 0 L 0 23.2 L 0 100 L 0 100" fill="#2d5967" stroke="none" stroke-width="0.5"/>
  </g>
</svg>