<svg xmlns="http://www.w3.org/2000/svg" viewBox="0 0 85.0 103.99999999999994" width="85" height="103">
  <g transform="translate(14.00,0.00) scale(0.8300,0.7800)">
    <path d="M 19.97 100 L 19.97 54.17 L 0 54.17 L 0.25 50.5 C 0.55,46.19 1.88,42.03 4.12,38.41 C 6.37,34.79 9.44,31.85 13.07,29.85 C 13.86,29.42 14.53,28.8 15.06,28.06 C 15.6,27.31 15.97,26.44 16.14,25.53 C 16.96,21.11 19.19,17.13 22.49,14.27 C 25.77,11.41 29.88,9.85 34.13,9.85 C 34.7,9.81 35.27,9.81 35.85,9.85 L 36.42 9.85 C 37.19,9.86 37.96,9.7 38.67,9.38 C 39.38,9.05 40.03,8.58 40.55,7.98 C 43.02,5.14 46.1,2.98 49.54,1.68 C 52.97,0.39 56.65,0 60.26,0.55 C 63.87,1.09 67.29,2.56 70.26,4.82 C 73.2,7.09 75.59,10.08 77.22,13.54 C 77.6,14.4 78.16,15.17 78.87,15.77 C 79.57,16.38 80.4,16.81 81.28,17.03 C 83.86,17.64 86.32,18.71 88.56,20.21 C 93.48,23.51 97.04,28.66 98.53,34.63 C 100,40.59 99.3,46.93 96.56,52.37 L 95.64 54.17 L 79.6 54.17 L 79.6 100 L 19.97 100 L 19.97 100" fill="#FFFFFF" stroke="none" stroke-width="0.5"/>
  </g>
  <g transform="translate(13.00,0.00) scale(0.8500,0.8000)">
    <path d="M 56.86 2.4 C 60.74,2.38 64.54,3.52 67.84,5.69 C 71.13,7.86 73.8,10.96 75.52,14.66 C 75.98,15.65 76.65,16.52 77.48,17.21 C 78.3,17.89 79.27,18.37 80.29,18.61 C 82.67,19.18 84.93,20.18 87,21.56 C 91.56,24.64 94.88,29.44 96.25,35 C 97.63,40.57 96.97,46.48 94.43,51.56 L 93.85 52.67 L 77.72 52.67 L 77.72 97.62 L 21.79 97.62 L 21.79 52.67 L 2.42 52.67 L 2.57 50.29 C 2.84,46.27 4.08,42.38 6.17,39 C 8.25,35.63 11.1,32.88 14.48,31.01 C 15.38,30.5 16.18,29.78 16.8,28.91 C 17.42,28.03 17.85,27.02 18.05,25.94 C 18.81,21.88 20.86,18.23 23.86,15.6 C 26.86,12.97 30.63,11.52 34.52,11.51 C 35.04,11.51 35.57,11.51 36.08,11.51 L 36.77 11.51 C 37.67,11.55 38.55,11.39 39.38,11.05 C 40.21,10.71 40.97,10.2 41.61,9.54 C 43.55,7.3 45.92,5.5 48.54,4.28 C 51.17,3.05 54,2.41 56.86,2.4 L 56.86 2.4 M 56.86 0.02 C 53.68,0.02 50.55,0.72 47.64,2.07 C 44.73,3.43 42.12,5.4 39.95,7.87 C 39.54,8.33 39.06,8.7 38.51,8.95 C 37.97,9.2 37.37,9.33 36.77,9.32 L 36.3 9.32 C 35.71,9.29 35.11,9.29 34.52,9.32 C 30.11,9.33 25.84,10.96 22.44,13.94 C 19.04,16.91 16.71,21.06 15.86,25.65 C 15.71,26.36 15.41,27.03 14.99,27.6 C 14.57,28.17 14.03,28.64 13.42,28.96 C 9.71,31.01 6.58,34.04 4.28,37.75 C 1.99,41.47 0.63,45.74 0.33,50.17 L 0.17 52.56 L 0 55.05 L 19.58 55.05 L 19.58 100 L 79.98 100 L 79.98 55.05 L 95.25 55.05 L 95.88 53.82 L 96.46 52.67 C 99.28,47.07 100,40.54 98.47,34.39 C 96.95,28.25 93.29,22.95 88.23,19.56 C 85.93,18.02 83.41,16.91 80.78,16.27 C 80.09,16.12 79.43,15.8 78.86,15.33 C 78.3,14.87 77.84,14.28 77.51,13.61 C 75.61,9.51 72.67,6.07 69.02,3.67 C 65.36,1.27 61.15,0 56.86,0.02 L 56.86 0.02" fill="#FFFFFF" stroke="none" stroke-width="0.5"/>
  </g>
  <g transform="translate(15.00,1.00) scale(0.8100,0.4000)">
    <path d="M 88.8 38.44 C 86.63,35.72 84.25,33.75 81.76,32.61 C 80.68,32.15 79.68,31.2 78.8,29.85 C 77.95,28.5 77.24,26.77 76.76,24.8 C 75.17,18.45 72.86,12.97 69.98,8.82 C 67.1,4.68 63.77,1.99 60.27,0.99 C 56.76,0 53.18,0.73 49.85,3.11 C 46.52,5.5 43.52,9.47 41.13,14.69 C 40.39,16.26 39.49,17.46 38.47,18.2 C 37.47,18.94 36.39,19.21 35.32,18.97 C 30.99,18.17 26.66,20.61 23.16,25.82 C 19.67,31.03 17.26,38.64 16.4,47.19 C 16.2,49.31 15.75,51.32 15.1,53.05 C 14.45,54.79 13.6,56.21 12.65,57.2 C 9.11,60.89 6.12,66.33 3.93,72.99 C 1.74,79.66 0.44,87.34 0.16,95.3 L 0 100 L 17.16 100 L 17.16 91.39 L 4.71 91.39 C 5.26,85.74 6.44,80.42 8.16,75.81 C 9.88,71.2 12.09,67.43 14.65,64.77 C 16.17,63.18 17.5,60.93 18.53,58.18 C 19.55,55.43 20.27,52.25 20.61,48.88 C 21.23,42.34 23.07,36.51 25.74,32.54 C 28.41,28.56 31.71,26.73 35.02,27.39 C 36.75,27.76 38.5,27.33 40.12,26.11 C 41.75,24.89 43.22,22.93 44.41,20.38 C 46.35,16.28 48.76,13.19 51.43,11.34 C 54.09,9.5 56.95,8.97 59.73,9.8 C 62.53,10.62 65.17,12.78 67.47,16.08 C 69.76,19.39 71.62,23.75 72.88,28.8 C 73.68,31.87 74.79,34.55 76.16,36.66 C 77.53,38.76 79.1,40.24 80.8,40.98 C 83.43,42.14 85.9,44.47 88.02,47.79 C 90.16,51.11 91.88,55.34 93.09,60.17 C 94.3,65 94.95,70.32 95,75.72 C 95.04,81.12 94.49,86.47 93.37,91.39 L 82.2 91.39 L 82.2 99.9 L 96.06 99.9 L 96.67 97.7 C 99.34,87.65 100,75.96 98.54,64.97 C 97.08,53.98 93.61,44.5 88.8,38.44 L 88.8 38.44" fill="#2d5967" stroke="none" stroke-width="0.5"/>
  </g>
  <g transform="translate(31.00,30.00) scale(0.4700,0.4700)">
    <path d="M 79.95 7.32 L 90.02 7.32 C 90.73,7.32 91.39,7.6 91.9,8.1 C 92.39,8.59 92.66,9.26 92.66,9.96 L 92.66 23.68 L 7.28 23.68 L 7.28 9.96 C 7.28,9.26 7.56,8.59 8.05,8.1 C 8.54,7.6 9.21,7.32 9.92,7.32 L 19.99 7.32 L 19.99 0.01 L 9.92 0.01 C 7.28,0.01 4.77,1.05 2.91,2.91 C 1.04,4.77 0,7.29 0,9.92 L 0 100 L 99.98 100 L 99.98 9.96 C 100,8.66 99.73,7.36 99.25,6.15 C 98.74,4.94 98,3.84 97.07,2.91 C 96.16,1.98 95.05,1.25 93.86,0.75 C 92.64,0.25 91.35,0 90.02,0.01 L 79.95 0.01 L 79.95 7.32 L 79.95 7.32 M 92.66 30.96 L 92.66 92.72 L 7.28 92.72 L 7.28 30.96 L 92.66 30.96 L 92.66 30.96" fill="#2d5967" stroke="none" stroke-width="0.5"/>
  </g>
  <g transform="translate(50.00,30.00) scale(0.0900,0.0300)">
    <path d="M 100 0 L 0 0 L 0 100 L 100 100 L 100 0 L 100 0" fill="#2d5967" stroke="none" stroke-width="0.5"/>
  </g>
  <g transform="translate(43.00,27.00) scale(0.0400,0.1000)">
    <path d="M 59.9 0 L 40.1 0 C 17.85,0 0,7.17 0,16.02 L 0 83.98 C 0,92.83 17.85,100 40.1,100 L 59.9 100 C 81.91,100 100,92.83 100,83.98 L 100 16.02 C 100,7.17 81.91,0 59.9,0 L 59.9 0" fill="#2d5967" stroke="none" stroke-width="0.5"/>
  </g>
  <g transform="translate(62.00,27.00) scale(0.0400,0.1000)">
    <path d="M 59.9 0 L 40.1 0 C 17.85,0 0,7.17 0,16.02 L 0 83.98 C 0,92.83 17.85,100 40.1,100 L 59.9 100 C 82.15,100 100,92.83 100,83.98 L 100 16.02 C 100,7.17 82.15,0 59.9,0 L 59.9 0" fill="#2d5967" stroke="none" stroke-width="0.5"/>
  </g>
  <g transform="translate(38.00,48.00) scale(0.0300,0.0300)">
    <path d="M 100 0 L 0 0 L 0 100 L 100 100 L 100 0 L 100 0" fill="#2d5967" stroke="none" stroke-width="0.5"/>
  </g>
  <g transform="translate(46.00,48.00) scale(0.0300,0.0300)">
    <path d="M 100 0 L 0 0 L 0 100 L 100 100 L 100 0 L 100 0" fill="#2d5967" stroke="none" stroke-width="0.5"/>
  </g>
  <g transform="translate(53.00,48.00) scale(0.0300,0.0300)">
    <path d="M 100 0 L 0 0 L 0 100 L 100 100 L 100 0 L 100 0" fill="#2d5967" stroke="none" stroke-width="0.5"/>
  </g>
  <g transform="translate(61.00,48.00) scale(0.0300,0.0300)">
    <path d="M 100 0 L 0 0 L 0 100 L 100 100 L 100 0 L 100 0" fill="#2d5967" stroke="none" stroke-width="0.5"/>
  </g>
  <g transform="translate(68.00,48.00) scale(0.0300,0.0300)">
    <path d="M 100 0 L 0 0 L 0 100 L 100 100 L 100 0 L 100 0" fill="#2d5967" stroke="none" stroke-width="0.5"/>
  </g>
  <g transform="translate(38.00,55.00) scale(0.0300,0.0300)">
    <path d="M 100 0 L 0 0 L 0 100 L 100 100 L 100 0 L 100 0" fill="#2d5967" stroke="none" stroke-width="0.5"/>
  </g>
  <g transform="translate(46.00,55.00) scale(0.0300,0.0300)">
    <path d="M 100 0 L 0 0 L 0 100 L 100 100 L 100 0 L 100 0" fill="#2d5967" stroke="none" stroke-width="0.5"/>
  </g>
  <g transform="translate(53.00,55.00) scale(0.0300,0.0300)">
    <path d="M 100 0 L 0 0 L 0 100 L 100 100 L 100 0 L 100 0" fill="#2d5967" stroke="none" stroke-width="0.5"/>
  </g>
  <g transform="translate(61.00,55.00) scale(0.0300,0.0300)">
    <path d="M 100 0 L 0 0 L 0 100 L 100 100 L 100 0 L 100 0" fill="#2d5967" stroke="none" stroke-width="0.5"/>
  </g>
  <g transform="translate(68.00,55.00) scale(0.0300,0.0300)">
    <path d="M 100 0 L 0 0 L 0 100 L 100 100 L 100 0 L 100 0" fill="#2d5967" stroke="none" stroke-width="0.5"/>
  </g>
  <g transform="translate(38.00,61.00) scale(0.0300,0.0300)">
    <path d="M 100 0 L 0 0 L 0 100 L 100 100 L 100 0 L 100 0" fill="#2d5967" stroke="none" stroke-width="0.5"/>
  </g>
  <g transform="translate(46.00,61.00) scale(0.0300,0.0300)">
    <path d="M 100 0 L 0 0 L 0 100 L 100 100 L 100 0 L 100 0" fill="#2d5967" stroke="none" stroke-width="0.5"/>
  </g>
  <g transform="translate(53.00,61.00) scale(0.0300,0.0300)">
    <path d="M 100 0 L 0 0 L 0 100 L 100 100 L 100 0 L 100 0" fill="#2d5967" stroke="none" stroke-width="0.5"/>
  </g>
  <g transform="translate(61.00,61.00) scale(0.0300,0.0300)">
    <path d="M 100 0 L 0 0 L 0 100 L 100 100 L 100 0 L 100 0" fill="#2d5967" stroke="none" stroke-width="0.5"/>
  </g>
  <g transform="translate(68.00,61.00) scale(0.0300,0.0300)">
    <path d="M 100 0 L 0 0 L 0 100 L 100 100 L 100 0 L 100 0" fill="#2d5967" stroke="none" stroke-width="0.5"/>
  </g>
  <g transform="translate(38.00,67.00) scale(0.0300,0.0300)">
    <path d="M 100 0 L 0 0 L 0 100 L 100 100 L 100 0 L 100 0" fill="#2d5967" stroke="none" stroke-width="0.5"/>
  </g>
  <g transform="translate(46.00,67.00) scale(0.0300,0.0300)">
    <path d="M 100 0 L 0 0 L 0 100 L 100 100 L 100 0 L 100 0" fill="#2d5967" stroke="none" stroke-width="0.5"/>
  </g>
  <g transform="translate(53.00,67.00) scale(0.0300,0.0300)">
    <path d="M 100 0 L 0 0 L 0 100 L 100 100 L 100 0 L 100 0" fill="#2d5967" stroke="none" stroke-width="0.5"/>
  </g>
  <g transform="translate(61.00,67.00) scale(0.0300,0.0300)">
    <path d="M 100 0 L 0 0 L 0 100 L 100 100 L 100 0 L 100 0" fill="#2d5967" stroke="none" stroke-width="0.5"/>
  </g>
  <g transform="translate(68.00,67.00) scale(0.0300,0.0300)">
    <path d="M 100 0 L 0 0 L 0 100 L 100 100 L 100 0 L 100 0" fill="#2d5967" stroke="none" stroke-width="0.5"/>
  </g>
</svg>