<svg xmlns="http://www.w3.org/2000/svg" viewBox="0 0 84.0 121.00000000000007" width="84" height="121">
  <g transform="translate(18.00,0.00) scale(0.8200,0.7800)">
    <path d="M 44.47 92.96 L 17.47 92.96 L 17.47 53.76 L 0 53.76 L 0.25 50.07 C 0.55,45.76 1.89,41.59 4.14,37.98 C 6.4,34.37 9.5,31.42 13.14,29.42 C 13.93,28.99 14.63,28.38 15.17,27.63 C 15.71,26.87 16.08,26 16.25,25.08 C 16.81,21.99 18.07,19.08 19.93,16.62 C 21.79,14.16 24.19,12.21 26.93,10.93 C 29.28,9.87 31.81,9.31 34.37,9.31 C 34.95,9.31 35.52,9.31 36.08,9.31 L 36.68 9.31 C 37.45,9.32 38.23,9.16 38.94,8.84 C 39.65,8.52 40.3,8.04 40.83,7.44 C 42.97,5.08 45.54,3.2 48.4,1.93 C 51.25,0.65 54.32,0 57.42,0.02 C 61.64,0 65.77,1.23 69.35,3.56 C 72.93,5.9 75.82,9.24 77.69,13.22 C 78.09,14.06 78.66,14.8 79.36,15.38 C 80.06,15.96 80.87,16.38 81.74,16.59 C 85.24,17.4 88.51,19.06 91.3,21.43 C 94.08,23.8 96.31,26.82 97.8,30.25 C 99.29,33.68 100,37.42 99.88,41.19 C 99.77,44.96 98.82,48.64 97.12,51.96 L 96.2 53.76 L 84.67 53.76 L 84.67 92.96 L 57.79 92.96 L 51.13 100 L 44.47 92.96 L 44.47 92.96" fill="#FFFFFF" stroke="none" stroke-width="0.5"/>
  </g>
  <g transform="translate(17.00,0.00) scale(0.8400,0.8000)">
    <path d="M 57.25 2.38 C 61.14,2.36 64.97,3.5 68.28,5.65 C 71.6,7.8 74.28,10.88 76,14.54 C 76.48,15.53 77.15,16.39 77.99,17.07 C 78.82,17.75 79.79,18.22 80.82,18.46 C 84.06,19.21 87.09,20.74 89.67,22.93 C 92.25,25.12 94.31,27.9 95.69,31.06 C 97.08,34.23 97.74,37.68 97.63,41.16 C 97.53,44.64 96.65,48.04 95.08,51.11 L 94.49 52.24 L 82.82 52.24 L 82.82 90.33 L 57.15 90.33 L 51.1 96.68 L 44.99 90.33 L 19.39 90.33 L 19.39 52.24 L 2.43 52.24 L 2.59 49.88 C 2.87,45.89 4.12,42.04 6.22,38.7 C 8.32,35.35 11.19,32.62 14.58,30.76 C 15.5,30.26 16.3,29.55 16.92,28.68 C 17.54,27.81 17.97,26.81 18.17,25.74 C 18.93,21.71 20.99,18.08 24.02,15.48 C 27.04,12.87 30.84,11.45 34.75,11.45 L 36.33 11.45 L 37 11.45 C 37.9,11.48 38.8,11.31 39.63,10.97 C 40.47,10.63 41.24,10.11 41.88,9.45 C 43.84,7.23 46.22,5.46 48.86,4.24 C 51.51,3.03 54.36,2.39 57.25,2.38 L 57.25 2.38 M 57.25 0.02 C 54.05,0.02 50.89,0.72 47.96,2.06 C 45.03,3.39 42.4,5.35 40.22,7.8 C 39.81,8.27 39.31,8.63 38.76,8.88 C 38.2,9.13 37.6,9.25 37,9.24 L 36.53 9.24 C 35.94,9.24 35.34,9.24 34.75,9.24 C 30.33,9.22 26.03,10.81 22.61,13.74 C 19.18,16.67 16.83,20.77 15.97,25.32 C 15.83,26.04 15.53,26.72 15.11,27.31 C 14.68,27.9 14.13,28.38 13.5,28.71 C 9.77,30.75 6.6,33.76 4.3,37.44 C 2,41.13 0.63,45.37 0.34,49.76 L 0.18 52.12 L 0 54.6 L 17.14 54.6 L 17.14 92.69 L 44.13 92.69 L 49.53 98.35 L 51.1 100 L 52.7 98.35 L 58.08 92.69 L 85.07 92.69 L 85.07 54.6 L 95.84 54.6 L 96.47 53.35 L 97.06 52.21 C 98.8,48.83 99.76,45.07 99.88,41.23 C 100,37.39 99.27,33.57 97.74,30.08 C 96.22,26.58 93.94,23.51 91.09,21.09 C 88.24,18.67 84.89,16.98 81.31,16.15 C 80.61,15.99 79.95,15.67 79.39,15.21 C 78.83,14.74 78.37,14.16 78.05,13.48 C 76.13,9.42 73.16,6.01 69.49,3.63 C 65.81,1.25 61.57,0 57.25,0.02 L 57.25 0.02" fill="#FFFFFF" stroke="none" stroke-width="0.5"/>
  </g>
  <g transform="translate(19.00,1.00) scale(0.8100,0.4000)">
    <path d="M 88.95 38.15 C 86.79,35.4 84.41,33.42 81.91,32.29 C 80.84,31.82 79.83,30.87 78.96,29.52 C 78.09,28.16 77.39,26.43 76.89,24.45 C 75.08,17.07 72.26,10.86 68.77,6.55 C 65.28,2.24 61.26,0 57.17,0.09 C 54.16,0.12 51.18,1.39 48.42,3.82 C 45.67,6.26 43.19,9.81 41.14,14.25 C 40.41,15.82 39.5,17.02 38.5,17.78 C 37.49,18.53 36.42,18.81 35.35,18.6 C 31.01,17.77 26.68,20.21 23.18,25.44 C 19.69,30.68 17.28,38.33 16.42,46.93 C 16.21,49.06 15.76,51.08 15.11,52.82 C 14.46,54.56 13.63,55.98 12.67,56.99 C 9.14,60.71 6.14,66.17 3.95,72.87 C 1.77,79.57 0.46,87.28 0.16,95.28 L 0 100 L 14.71 100 L 14.71 91.36 L 4.71 91.36 C 5.27,85.69 6.45,80.35 8.17,75.73 C 9.88,71.1 12.09,67.31 14.64,64.63 C 16.16,63.03 17.49,60.77 18.53,58 C 19.56,55.23 20.28,52.03 20.62,48.63 C 21.26,42.08 23.08,36.24 25.74,32.25 C 28.4,28.26 31.7,26.41 35,27.05 C 36.73,27.43 38.47,26.98 40.1,25.76 C 41.73,24.54 43.2,22.57 44.38,20.02 C 46.32,15.87 48.73,12.73 51.4,10.86 C 54.07,8.99 56.93,8.44 59.73,9.27 C 62.53,10.09 65.19,12.26 67.48,15.6 C 69.78,18.93 71.64,23.33 72.91,28.42 C 73.7,31.52 74.82,34.22 76.19,36.34 C 77.56,38.47 79.14,39.95 80.83,40.7 C 83.47,41.86 85.94,44.2 88.07,47.54 C 90.2,50.87 91.93,55.13 93.13,59.98 C 94.34,64.84 95,70.17 95.05,75.6 C 95.1,81.03 94.55,86.42 93.43,91.36 L 86.91 91.36 L 86.91 99.95 L 95.99 99.95 L 96.6 97.69 C 99.29,87.65 100,75.94 98.58,64.89 C 97.16,53.85 93.72,44.3 88.95,38.15 L 88.95 38.15" fill="#2d5967" stroke="none" stroke-width="0.5"/>
  </g>
  <g transform="translate(33.00,30.00) scale(0.5300,0.4200)">
    <path d="M 94.22 11.56 L 41.03 11.56 L 35.74 2.93 C 35.2,2.03 34.5,1.3 33.69,0.79 C 32.89,0.28 32,0.01 31.1,0 L 5.78 0 C 4.25,0 2.78,0.76 1.69,2.12 C 0.61,3.48 0,5.33 0,7.25 L 0 100 L 33.05 100 L 26.6 91.95 L 6.45 91.95 L 6.45 31.13 L 31.28 31.13 C 32.17,31.12 33.05,30.86 33.85,30.36 C 34.65,29.85 35.35,29.13 35.89,28.24 L 41.06 19.65 L 93.55 19.65 L 93.55 91.95 L 73.4 91.95 L 66.95 100 L 100 100 L 100 18.59 C 99.95,16.7 99.32,14.92 98.25,13.6 C 97.17,12.29 95.72,11.56 94.22,11.56 L 94.22 11.56 M 30.78 23.03 L 6.45 23.03 L 6.45 8.09 L 30.78 8.09 L 35.21 15.61 L 30.78 23.03 L 30.78 23.03" fill="#2d5967" stroke="none" stroke-width="0.5"/>
  </g>
  <g transform="translate(43.00,44.00) scale(0.3300,0.3300)">
    <path d="M 63.18 72.23 L 55.15 80.2 L 55.15 70.12 L 55.15 55.15 L 70.12 55.15 L 80.19 55.15 L 72.17 63.18 L 79.51 70.46 L 100 50.03 L 79.51 29.48 L 72.17 36.83 L 80.19 44.79 L 69.61 44.79 L 55.15 44.79 L 55.15 30.39 L 55.15 19.81 L 63.18 27.83 L 70.46 20.49 L 49.97 0 L 29.48 20.49 L 36.82 27.83 L 44.79 19.81 L 44.79 30.39 L 44.79 44.79 L 30.39 44.79 L 19.81 44.79 L 27.77 36.83 L 20.49 29.48 L 0 50.03 L 20.49 70.46 L 27.77 63.18 L 19.81 55.15 L 29.83 55.15 L 44.79 55.15 L 44.79 70.12 L 44.79 80.2 L 36.82 72.23 L 29.48 79.51 L 49.97 100 L 70.46 79.51 L 63.18 72.23 L 63.18 72.23" fill="#2d5967" stroke="none" stroke-width="0.5"/>
  </g>
</svg>