<svg xmlns="http://www.w3.org/2000/svg" viewBox="0 0 85.0 103.99999999999994" width="85" height="103">
  <g transform="translate(14.00,-0.00) scale(0.8200,0.7800)">
    <path d="M 66.51 100 C 65.44,100 64.41,99.55 63.66,98.76 C 62.9,97.96 62.48,96.88 62.48,95.75 C 62.46,95.56 62.46,95.36 62.48,95.17 L 61.25 95.17 C 61.26,95.36 61.26,95.56 61.25,95.75 C 61.25,96.88 60.83,97.96 60.07,98.76 C 59.31,99.55 58.29,100 57.22,100 C 56.15,100 55.12,99.55 54.37,98.76 C 53.61,97.96 53.18,96.88 53.18,95.75 C 53.17,95.56 53.17,95.36 53.18,95.17 C 52,95.09 50.89,94.57 50.04,93.7 C 49.2,92.84 48.68,91.68 48.57,90.44 L 48.02 85.58 C 42.29,85.19 36.81,82.99 32.29,79.27 C 27.77,75.55 24.41,70.48 22.66,64.73 L 21.81 64.73 L 21.81 60.99 C 21.47,59.18 21.3,57.35 21.3,55.51 C 21.3,55.02 21.3,54.56 21.3,54.1 L 0 54.1 L 0.25 50.43 C 0.55,46.12 1.89,41.97 4.14,38.36 C 6.39,34.75 9.48,31.8 13.12,29.8 C 13.91,29.37 14.6,28.76 15.14,28.02 C 15.67,27.27 16.04,26.4 16.21,25.48 C 17.04,21.07 19.29,17.11 22.59,14.26 C 25.88,11.41 30.02,9.85 34.28,9.85 L 36.01 9.85 L 36.59 9.85 C 37.36,9.86 38.13,9.7 38.84,9.38 C 39.55,9.05 40.19,8.58 40.71,7.98 C 43.2,5.14 46.3,2.98 49.76,1.69 C 53.21,0.39 56.91,0 60.54,0.55 C 64.17,1.09 67.62,2.56 70.59,4.83 C 73.56,7.09 75.97,10.08 77.6,13.54 C 77.99,14.41 78.57,15.18 79.29,15.78 C 80.01,16.39 80.85,16.8 81.75,17.01 C 85.24,17.81 88.51,19.46 91.3,21.82 C 94.08,24.18 96.31,27.19 97.8,30.62 C 99.29,34.04 100,37.78 99.88,41.55 C 99.76,45.31 98.81,48.99 97.1,52.3 L 96.18 54.1 L 81.1 54.1 C 80.33,54.9 79.5,55.63 78.61,56.28 C 78.48,61.47 77.07,66.54 74.53,70.99 L 79.44 70.99 L 76.51 82.81 C 76.35,84.07 75.76,85.23 74.86,86.08 C 73.96,86.93 72.81,87.41 71.6,87.45 L 54.82 87.45 L 54.82 88.35 L 74.58 88.35 L 74.58 92.5 L 70.61 94.61 L 70.61 95.07 L 70.38 95.07 C 70.4,95.3 70.4,95.53 70.38,95.75 C 70.38,96.85 69.97,97.9 69.25,98.69 C 68.53,99.48 67.55,99.95 66.51,100 L 66.51 100" fill="#FFFFFF" stroke="none" stroke-width="0.5"/>
  </g>
  <g transform="translate(13.00,-0.00) scale(0.8500,0.8000)">
    <path d="M 56.89 2.39 C 60.77,2.38 64.57,3.52 67.86,5.69 C 71.16,7.85 73.82,10.95 75.54,14.63 C 76,15.62 76.68,16.49 77.5,17.17 C 78.33,17.84 79.29,18.32 80.31,18.55 C 82.69,19.13 84.96,20.12 87.03,21.49 C 91.59,24.57 94.89,29.36 96.27,34.9 C 97.64,40.44 96.99,46.33 94.45,51.38 L 93.87 52.5 L 79.52 52.5 C 78.61,53.52 77.58,54.42 76.45,55.16 C 76.48,60.97 74.82,66.64 71.7,71.41 L 77.06 71.41 L 74.57 81.49 C 74.46,82.46 74.03,83.36 73.36,84.03 C 72.69,84.69 71.82,85.09 70.9,85.15 L 53.29 85.15 L 53.55 88.4 L 72.67 88.4 L 72.67 90.54 L 68.81 92.68 L 68.1 92.68 C 68.46,93.18 68.66,93.8 68.66,94.43 C 68.66,94.9 68.55,95.37 68.35,95.78 C 68.15,96.2 67.85,96.56 67.5,96.83 C 67.14,97.11 66.72,97.29 66.29,97.36 C 65.85,97.43 65.4,97.39 64.98,97.25 C 64.56,97.1 64.18,96.85 63.87,96.52 C 63.56,96.19 63.33,95.78 63.19,95.34 C 63.05,94.89 63.02,94.42 63.09,93.96 C 63.16,93.49 63.33,93.06 63.59,92.68 L 59.11 92.68 C 59.48,93.18 59.67,93.8 59.67,94.43 C 59.67,94.91 59.57,95.37 59.37,95.79 C 59.17,96.22 58.88,96.58 58.52,96.86 C 58.16,97.14 57.75,97.32 57.31,97.39 C 56.87,97.47 56.42,97.43 56,97.28 C 55.57,97.13 55.19,96.88 54.88,96.54 C 54.56,96.21 54.33,95.8 54.2,95.35 C 54.06,94.9 54.04,94.42 54.11,93.96 C 54.18,93.49 54.36,93.05 54.63,92.68 L 52.95 92.68 C 52.07,92.62 51.24,92.22 50.62,91.57 C 49.99,90.91 49.61,90.04 49.54,89.11 L 48.89 83.34 C 43.25,83.14 37.81,81.06 33.35,77.39 C 28.89,73.71 25.64,68.64 24.07,62.88 L 23.51 62.88 L 23.51 60.51 C 23.18,58.74 23.02,56.94 23.01,55.14 C 23.01,54.26 23.01,53.43 23.13,52.57 L 2.42 52.57 L 2.58 50.2 C 2.84,46.17 4.07,42.28 6.15,38.9 C 8.23,35.52 11.1,32.77 14.48,30.9 C 15.39,30.4 16.19,29.68 16.81,28.81 C 17.43,27.93 17.86,26.92 18.06,25.84 C 18.82,21.8 20.88,18.16 23.88,15.54 C 26.88,12.92 30.64,11.48 34.53,11.47 C 35.05,11.47 35.58,11.47 36.1,11.47 L 36.77 11.47 C 37.66,11.51 38.55,11.36 39.38,11.03 C 40.21,10.69 40.97,10.18 41.61,9.52 C 43.56,7.28 45.92,5.5 48.55,4.27 C 51.18,3.04 54.02,2.41 56.89,2.39 L 56.89 2.39 M 56.89 0.02 C 53.72,0.02 50.58,0.72 47.67,2.06 C 44.76,3.4 42.14,5.37 39.98,7.83 C 39.57,8.3 39.07,8.67 38.52,8.92 C 37.97,9.17 37.37,9.29 36.77,9.28 L 36.32 9.28 C 35.72,9.28 35.11,9.28 34.53,9.28 C 30.12,9.28 25.85,10.91 22.44,13.88 C 19.04,16.86 16.71,20.99 15.87,25.58 C 15.71,26.28 15.42,26.94 15,27.51 C 14.58,28.07 14.05,28.54 13.44,28.86 C 9.75,30.9 6.61,33.9 4.32,37.58 C 2.02,41.27 0.65,45.51 0.34,49.91 L 0.18 52.29 L 0 54.88 L 20.77 54.88 L 20.77 55.07 C 20.77,56.94 20.94,58.81 21.27,60.65 L 21.27 65.28 L 22.41 65.28 C 24.24,70.78 27.53,75.61 31.86,79.2 C 36.2,82.8 41.42,85 46.9,85.55 L 47.3 89.35 C 47.42,90.65 47.92,91.88 48.72,92.87 C 49.52,93.86 50.59,94.57 51.78,94.89 C 51.89,96.04 52.34,97.12 53.07,97.98 C 53.8,98.83 54.78,99.41 55.85,99.63 C 56.92,99.85 58.02,99.7 59,99.19 C 59.98,98.69 60.79,97.86 61.29,96.83 C 61.76,97.89 62.55,98.75 63.52,99.28 C 64.5,99.82 65.62,100 66.71,99.8 C 67.79,99.6 68.78,99.02 69.53,98.17 C 70.28,97.31 70.75,96.22 70.85,95.05 L 71.05 95.05 L 71.05 94.06 L 73.68 92.68 L 74.91 92.01 L 74.91 86.02 L 74.55 86.02 C 75.66,84.96 76.4,83.53 76.66,81.96 L 79.12 72.01 L 79.84 69.04 L 75.56 69.04 C 77.44,65.13 78.52,60.83 78.72,56.44 C 79.34,55.97 79.93,55.44 80.49,54.88 L 95.25 54.88 L 95.88 53.64 L 96.46 52.5 C 99.28,46.92 100,40.41 98.48,34.29 C 96.96,28.17 93.31,22.89 88.26,19.5 C 85.97,17.97 83.45,16.86 80.8,16.22 C 80.1,16.06 79.45,15.74 78.88,15.28 C 78.32,14.82 77.85,14.23 77.53,13.56 C 75.63,9.48 72.69,6.05 69.04,3.65 C 65.39,1.26 61.18,0 56.89,0.02 L 56.89 0.02" fill="#FFFFFF" stroke="none" stroke-width="0.5"/>
  </g>
  <g transform="translate(34.00,53.00) scale(0.1700,0.1300)">
    <path d="M 21.84 0 L 0 0 C 8.8,26.22 22.58,49.15 40.06,66.63 C 57.54,84.12 78.16,95.6 100,100 L 97.49 73.03 C 81.49,68.83 66.41,60.11 53.33,47.49 C 40.25,34.86 29.49,18.65 21.84,0 L 21.84 0" fill="#2d5967" stroke="none" stroke-width="0.5"/>
  </g>
  <g transform="translate(43.00,21.00) scale(0.1700,0.0400)">
    <path d="M 0 76.66 L 26.05 76.66 L 30.49 93.86 L 32.15 100 C 49.17,76.1 67.57,68.64 85.59,78.3 C 89.64,54.22 94.48,32.08 100,12.38 C 90.4,4.12 80.58,0 70.73,0.1 C 45.66,0.19 21.12,26.76 0,76.66 L 0 76.66" fill="#2d5967" stroke="none" stroke-width="0.5"/>
  </g>
  <g transform="translate(71.00,47.00) scale(0.0600,0.0700)">
    <path d="M 0 100 L 62.49 100 C 81.51,68.81 94.2,34.98 100,0 C 81.03,7.66 61.03,13.18 40.47,16.41 C 32.6,46.11 18.92,74.39 0,100 L 0 100" fill="#2d5967" stroke="none" stroke-width="0.5"/>
  </g>
  <g transform="translate(15.00,1.00) scale(0.8100,0.4000)">
    <path d="M 88.88 38.26 C 86.71,35.53 84.32,33.55 81.82,32.42 C 80.75,31.96 79.74,31.03 78.87,29.68 C 78,28.34 77.3,26.62 76.81,24.66 C 75.22,18.33 72.88,12.87 70,8.74 C 67.12,4.62 63.79,1.95 60.28,0.98 C 56.77,0 53.2,0.74 49.86,3.14 C 46.53,5.53 43.54,9.51 41.14,14.73 C 40.41,16.3 39.51,17.51 38.51,18.26 C 37.5,19.01 36.42,19.28 35.36,19.06 C 31.03,18.31 26.72,20.78 23.25,25.99 C 19.78,31.2 17.39,38.78 16.54,47.29 C 16.3,49.4 15.82,51.38 15.15,53.07 C 14.48,54.77 13.63,56.14 12.66,57.08 C 9.12,60.77 6.12,66.2 3.93,72.86 C 1.75,79.53 0.45,87.2 0.16,95.15 L 0 99.86 L 18.94 99.86 L 18.94 91.34 L 4.82 91.34 C 5.37,85.7 6.55,80.38 8.27,75.78 C 9.99,71.18 12.2,67.41 14.75,64.75 C 16.28,63.17 17.61,60.92 18.64,58.16 C 19.67,55.41 20.37,52.22 20.7,48.85 C 21.35,42.36 23.17,36.58 25.82,32.62 C 28.47,28.66 31.76,26.8 35.05,27.39 C 36.78,27.79 38.54,27.36 40.17,26.15 C 41.81,24.94 43.28,22.98 44.46,20.42 C 46.4,16.33 48.81,13.22 51.48,11.38 C 54.15,9.54 57,9 59.8,9.83 C 62.59,10.66 65.25,12.82 67.54,16.13 C 69.82,19.44 71.68,23.8 72.95,28.85 C 73.72,31.96 74.83,34.68 76.2,36.8 C 77.57,38.93 79.16,40.41 80.85,41.13 C 82.89,42.02 84.83,43.61 86.59,45.84 C 90.29,50.52 93.02,57.71 94.29,66.09 C 95.55,74.48 95.26,83.49 93.46,91.48 L 87.35 91.48 C 86.75,94.51 85.96,97.38 84.99,100 L 95.93 100 L 96.54 97.79 C 99.27,87.77 100,76.05 98.58,65 C 97.15,53.95 93.69,44.39 88.88,38.26 L 88.88 38.26" fill="#2d5967" stroke="none" stroke-width="0.5"/>
  </g>
  <g transform="translate(49.00,53.00) scale(0.2900,0.2400)">
    <path d="M 11.17 13.65 L 15.11 13.65 L 21.05 73.29 C 21.26,76.27 22.36,79.06 24.17,81.15 C 25.96,83.24 28.34,84.5 30.86,84.69 L 35.7 84.69 C 34.95,85.91 34.45,87.32 34.25,88.81 C 34.05,90.3 34.15,91.82 34.54,93.26 C 34.93,94.69 35.6,96 36.5,97.07 C 37.4,98.14 38.5,98.94 39.71,99.41 C 40.92,99.88 42.2,100 43.46,99.77 C 44.72,99.53 45.92,98.95 46.95,98.07 C 47.98,97.19 48.82,96.03 49.4,94.69 C 49.98,93.34 50.28,91.86 50.29,90.35 C 50.3,88.3 49.73,86.31 48.68,84.69 L 61.59 84.69 C 60.84,85.91 60.34,87.32 60.14,88.81 C 59.94,90.3 60.04,91.82 60.43,93.26 C 60.82,94.69 61.49,96 62.39,97.07 C 63.29,98.14 64.39,98.94 65.6,99.41 C 66.81,99.88 68.09,100 69.35,99.77 C 70.61,99.53 71.8,98.95 72.83,98.07 C 73.87,97.19 74.71,96.03 75.29,94.69 C 75.87,93.34 76.17,91.86 76.18,90.35 C 76.19,88.3 75.62,86.31 74.56,84.69 L 76.63 84.69 L 87.73 78.04 L 87.73 71.16 L 32.6 71.16 L 31.83 60.68 L 82.25 60.68 C 84.9,60.5 87.41,59.22 89.35,57.07 C 91.28,54.92 92.52,52.03 92.83,48.9 L 100 16.48 L 27.24 16.48 L 26.6 10.59 C 26.37,7.68 25.23,4.98 23.4,3.02 C 21.57,1.07 19.18,0 16.72,0.03 L 0 0.03 L 0 6.91 L 11.17 13.57 L 11.17 13.65 L 11.17 13.65 M 85.99 30.09 L 81.28 46.45 L 30.73 46.45 L 28.34 29.93 L 85.99 30.09 L 85.99 30.09" fill="#2d5967" stroke="none" stroke-width="0.5"/>
  </g>
  <g transform="translate(33.00,27.00) scale(0.1800,0.2200)">
    <path d="M 100 100 L 100 20.23 L 75.48 0 L 0 0 L 0 99.92 L 100 100 L 100 100 M 19.32 15.15 L 60.62 15.15 L 60.62 31.81 L 80.89 31.81 L 80.89 84.85 L 19.22 84.85 L 19.22 15.15 L 19.32 15.15 L 19.32 15.15" fill="#2d5967" stroke="none" stroke-width="0.5"/>
  </g>
  <g transform="translate(58.00,20.00) scale(0.2600,0.2600)">
    <path d="M 0.02 49.45 C 0,59.25 2.89,68.84 8.33,76.99 C 13.77,85.14 21.5,91.5 30.54,95.26 C 39.6,99.01 49.56,100 59.17,98.09 C 68.78,96.18 77.61,91.47 84.54,84.54 C 91.47,77.61 96.18,68.78 98.09,59.17 C 100,49.56 99.01,39.6 95.26,30.55 C 91.5,21.5 85.14,13.76 76.99,8.33 C 68.84,2.89 59.25,0 49.46,0.01 C 36.35,0.03 23.78,5.25 14.51,14.52 C 5.25,23.78 0.03,36.35 0.02,49.45 L 0.02 49.45 M 49.46 13.26 C 56.61,13.26 63.61,15.38 69.56,19.36 C 75.52,23.34 80.15,28.99 82.9,35.6 C 85.63,42.22 86.35,49.49 84.96,56.52 C 83.56,63.54 80.11,69.99 75.05,75.05 C 69.99,80.11 63.54,83.56 56.52,84.95 C 49.5,86.35 42.22,85.63 35.6,82.89 C 28.99,80.15 23.34,75.51 19.36,69.56 C 15.38,63.61 13.26,56.61 13.26,49.45 C 13.24,44.69 14.17,39.97 15.97,35.56 C 17.79,31.15 20.45,27.14 23.81,23.77 C 27.17,20.39 31.17,17.71 35.57,15.89 C 39.97,14.06 44.69,13.12 49.46,13.12 L 49.46 13.26 L 49.46 13.26" fill="#2d5967" stroke="none" stroke-width="0.5"/>
  </g>
  <g transform="translate(66.00,25.00) scale(0.0900,0.1400)">
    <path d="M 0.01 37.37 C 0.21,43.52 3.93,49.38 10.39,53.74 C 16.85,58.1 25.56,60.62 34.72,60.79 L 34.72 67.11 L 9.23 67.11 L 9.23 88.03 L 34.12 88.03 L 34.12 100 L 65.3 100 L 65.3 88.03 C 74.57,87.82 83.38,85.21 89.85,80.75 C 96.32,76.28 99.96,70.31 100,64.08 L 100 63.42 C 99.71,57.29 95.96,51.47 89.52,47.12 C 83.09,42.78 74.43,40.23 65.3,40 L 65.3 33.68 L 90.2 33.68 L 90.2 13.16 L 65.3 13.16 L 65.3 0 L 34.12 0 L 34.12 13.16 C 24.91,13.49 16.22,16.19 9.88,20.7 C 3.53,25.2 0,31.17 0.01,37.37 L 0.01 37.37 M 30.98 37.37 C 31.06,36.65 31.45,35.96 32.12,35.4 C 32.79,34.84 33.69,34.42 34.72,34.21 L 34.72 40.26 C 33.61,40.18 32.59,39.85 31.81,39.32 C 31.02,38.8 30.53,38.11 30.4,37.37 L 30.98 37.37 L 30.98 37.37 M 70.2 64.47 C 70.14,65.15 69.78,65.79 69.15,66.31 C 68.51,66.83 67.65,67.2 66.67,67.37 L 66.67 61.45 C 67.4,61.78 67.98,62.23 68.36,62.76 C 68.74,63.29 68.91,63.89 68.83,64.47 L 70.2 64.47 L 70.2 64.47" fill="#2d5967" stroke="none" stroke-width="0.5"/>
  </g>
</svg>