<svg xmlns="http://www.w3.org/2000/svg" viewBox="0 0 84.0 103.99999999999994" width="84" height="103">
  <g transform="translate(1.00,-0.00) scale(0.8300,0.7800)">
    <path d="M 21.03 100 L 21.03 95.83 L 25.2 93.62 L 25.2 54.26 L 0 54.26 L 0.25 50.57 C 0.55,46.26 1.88,42.1 4.12,38.48 C 6.36,34.87 9.44,31.92 13.07,29.93 C 13.85,29.5 14.54,28.89 15.08,28.14 C 15.61,27.4 15.98,26.53 16.16,25.61 C 16.7,22.52 17.96,19.62 19.81,17.15 C 21.65,14.69 24.05,12.74 26.76,11.47 C 29.08,10.39 31.59,9.83 34.13,9.82 C 34.71,9.82 35.28,9.82 35.85,9.82 L 36.42 9.82 C 37.2,9.83 37.96,9.67 38.68,9.35 C 39.38,9.03 40.03,8.55 40.55,7.95 C 43.02,5.12 46.11,2.97 49.53,1.68 C 52.96,0.39 56.64,0 60.24,0.55 C 63.85,1.09 67.28,2.56 70.23,4.81 C 73.18,7.07 75.57,10.06 77.19,13.51 C 77.57,14.39 78.12,15.18 78.82,15.8 C 79.52,16.43 80.34,16.88 81.22,17.12 C 83.8,17.74 86.26,18.8 88.51,20.27 C 93.45,23.57 97.02,28.72 98.51,34.69 C 100,40.66 99.3,47.01 96.55,52.46 L 95.64 54.26 L 76.95 54.26 L 76.95 93.62 L 81.11 95.83 L 81.11 100 L 21.03 100 L 21.03 100" fill="#FFFFFF" stroke="none" stroke-width="0.5"/>
  </g>
  <g transform="translate(-0.00,-0.00) scale(0.8400,0.8000)">
    <path d="M 57.19 2.41 C 61.08,2.4 64.9,3.54 68.22,5.71 C 71.53,7.89 74.2,11 75.94,14.69 C 76.4,15.69 77.08,16.56 77.91,17.24 C 78.74,17.92 79.7,18.4 80.72,18.64 C 83.12,19.2 85.4,20.2 87.46,21.6 C 92.06,24.67 95.38,29.47 96.77,35.04 C 98.15,40.6 97.49,46.51 94.93,51.59 L 94.34 52.73 L 75.6 52.73 L 75.6 93.19 L 79.69 95.36 L 79.69 97.62 L 22.97 97.62 L 22.97 95.45 L 26.97 93.29 L 26.97 52.82 L 2.25 52.82 L 2.41 50.44 C 2.68,46.42 3.93,42.53 6.03,39.15 C 8.12,35.78 10.99,33.02 14.36,31.14 C 15.28,30.64 16.09,29.92 16.72,29.04 C 17.34,28.16 17.78,27.15 17.98,26.07 C 18.74,22.01 20.8,18.36 23.82,15.73 C 26.83,13.1 30.62,11.66 34.52,11.65 C 35.05,11.61 35.57,11.61 36.1,11.65 L 36.8 11.65 C 37.73,11.69 38.66,11.53 39.53,11.17 C 40.39,10.81 41.18,10.26 41.83,9.55 C 43.79,7.31 46.17,5.52 48.81,4.29 C 51.45,3.06 54.3,2.42 57.19,2.41 L 57.19 2.41 M 57.19 0.03 C 53.99,0.03 50.83,0.73 47.91,2.08 C 44.97,3.44 42.34,5.41 40.17,7.89 C 39.77,8.35 39.27,8.72 38.72,8.97 C 38.17,9.22 37.57,9.34 36.98,9.34 L 36.51 9.34 C 35.9,9.34 35.31,9.34 34.71,9.34 C 30.29,9.33 26.01,10.95 22.6,13.91 C 19.18,16.87 16.83,20.99 15.96,25.57 C 15.82,26.3 15.52,26.99 15.1,27.58 C 14.66,28.18 14.12,28.66 13.48,29 C 9.76,31.05 6.61,34.08 4.3,37.8 C 2,41.51 0.64,45.8 0.34,50.23 L 0.17 52.61 L 0 55.11 L 24.72 55.11 L 24.72 91.81 L 21.9 93.34 L 20.64 93.98 L 20.64 100 L 81.93 100 L 81.93 93.98 L 80.7 93.34 L 77.85 91.81 L 77.85 55.11 L 95.83 55.11 L 96.45 53.85 L 97.04 52.7 C 98.79,49.29 99.75,45.5 99.88,41.62 C 100,37.74 99.26,33.88 97.74,30.36 C 96.22,26.83 93.93,23.72 91.09,21.29 C 88.24,18.85 84.88,17.15 81.31,16.31 C 80.61,16.15 79.95,15.83 79.37,15.36 C 78.81,14.9 78.35,14.3 78.02,13.62 C 76.1,9.52 73.13,6.06 69.45,3.66 C 65.76,1.26 61.52,0 57.19,0.03 L 57.19 0.03" fill="#FFFFFF" stroke="none" stroke-width="0.5"/>
  </g>
  <g transform="translate(2.00,1.00) scale(0.8100,0.4000)">
    <path d="M 88.8 38.44 C 86.64,35.68 84.27,33.71 81.77,32.61 C 80.7,32.14 79.7,31.19 78.82,29.84 C 77.96,28.49 77.26,26.77 76.76,24.81 C 75.19,18.46 72.87,12.98 69.99,8.83 C 67.12,4.69 63.78,2 60.28,1 C 56.77,0 53.2,0.72 49.86,3.1 C 46.53,5.48 43.53,9.45 41.13,14.66 C 40.39,16.22 39.49,17.42 38.47,18.17 C 37.47,18.91 36.4,19.19 35.33,18.98 C 30.99,18.16 26.66,20.59 23.17,25.8 C 19.68,31.01 17.27,38.63 16.42,47.18 C 16.2,49.31 15.76,51.31 15.1,53.04 C 14.44,54.78 13.61,56.19 12.64,57.19 C 9.12,60.9 6.13,66.34 3.94,73.01 C 1.76,79.68 0.46,87.35 0.16,95.3 L 0 100 L 22.52 100 L 22.52 91.35 L 4.72 91.35 C 5.27,85.71 6.45,80.4 8.16,75.79 C 9.88,71.19 12.09,67.42 14.64,64.76 C 16.16,63.17 17.5,60.92 18.53,58.16 C 19.56,55.4 20.27,52.21 20.59,48.82 C 21.01,44.6 21.93,40.64 23.28,37.28 C 24.62,33.92 26.35,31.25 28.32,29.51 C 30.42,27.65 32.73,26.92 35.01,27.4 C 36.73,27.77 38.49,27.34 40.11,26.12 C 41.74,24.9 43.2,22.94 44.39,20.39 C 46.33,16.28 48.74,13.16 51.4,11.31 C 54.07,9.45 56.93,8.91 59.73,9.73 C 62.52,10.55 65.18,12.71 67.47,16.02 C 69.76,19.33 71.63,23.7 72.89,28.76 C 73.67,31.87 74.78,34.59 76.15,36.72 C 77.52,38.85 79.11,40.34 80.8,41.07 C 82.84,41.95 84.78,43.54 86.52,45.77 C 90.23,50.45 92.96,57.65 94.21,66.04 C 95.48,74.43 95.19,83.45 93.41,91.45 L 79.58 91.45 L 79.58 100 L 96.01 100 L 96.61 97.74 C 99.31,87.72 100,76.01 98.55,65.01 C 97.09,54 93.61,44.5 88.8,38.44 L 88.8 38.44" fill="#2d5967" stroke="none" stroke-width="0.5"/>
  </g>
  <g transform="translate(29.00,34.00) scale(0.0300,0.0300)">
    <path d="M 100 0 L 0 0 L 0 100 L 100 100 L 100 0 L 100 0" fill="#2d5967" stroke="none" stroke-width="0.5"/>
  </g>
  <g transform="translate(35.00,34.00) scale(0.0300,0.0300)">
    <path d="M 100 0 L 0 0 L 0 100 L 100 100 L 100 0 L 100 0" fill="#2d5967" stroke="none" stroke-width="0.5"/>
  </g>
  <g transform="translate(41.00,34.00) scale(0.0300,0.0300)">
    <path d="M 100 0 L 0 0 L 0 100 L 100 100 L 100 0 L 100 0" fill="#2d5967" stroke="none" stroke-width="0.5"/>
  </g>
  <g transform="translate(29.00,40.00) scale(0.0300,0.0300)">
    <path d="M 100 0 L 0 0 L 0 100 L 100 100 L 100 0 L 100 0" fill="#2d5967" stroke="none" stroke-width="0.5"/>
  </g>
  <g transform="translate(35.00,40.00) scale(0.0300,0.0300)">
    <path d="M 100 0 L 0 0 L 0 100 L 100 100 L 100 0 L 100 0" fill="#2d5967" stroke="none" stroke-width="0.5"/>
  </g>
  <g transform="translate(29.00,46.00) scale(0.0300,0.0300)">
    <path d="M 100 0 L 0 0 L 0 100 L 100 100 L 100 0 L 100 0" fill="#2d5967" stroke="none" stroke-width="0.5"/>
  </g>
  <g transform="translate(35.00,46.00) scale(0.0300,0.0300)">
    <path d="M 100 0 L 0 0 L 0 100 L 100 100 L 100 0 L 100 0" fill="#2d5967" stroke="none" stroke-width="0.5"/>
  </g>
  <g transform="translate(29.00,52.00) scale(0.0300,0.0300)">
    <path d="M 0 0 L 0 100 L 29.67 100 C 50.45,73.8 74.18,50.05 100,29.12 L 100 0 L 0 0 L 0 0" fill="#2d5967" stroke="none" stroke-width="0.5"/>
  </g>
  <g transform="translate(41.00,40.00) scale(0.0300,0.0300)">
    <path d="M 100 0 L 0 0 L 0 100 L 100 100 L 100 0 L 100 0" fill="#2d5967" stroke="none" stroke-width="0.5"/>
  </g>
  <g transform="translate(41.00,46.00) scale(0.0300,0.0300)">
    <path d="M 100 0 L 0 0 L 0 100 L 49.39 100 L 100 100 L 100 0 L 100 0" fill="#2d5967" stroke="none" stroke-width="0.5"/>
  </g>
  <g transform="translate(47.00,34.00) scale(0.0300,0.0300)">
    <path d="M 100 0 L 0 0 L 0 100 L 100 100 L 100 0 L 100 0" fill="#2d5967" stroke="none" stroke-width="0.5"/>
  </g>
  <g transform="translate(47.00,40.00) scale(0.0300,0.0300)">
    <path d="M 100 0 L 0 0 L 0 100 L 100 100 L 100 0 L 100 0" fill="#2d5967" stroke="none" stroke-width="0.5"/>
  </g>
  <g transform="translate(47.00,46.00) scale(0.0300,0.0300)">
    <path d="M 100 0 L 0 0 L 0 100 L 100 100 L 100 0 L 100 0" fill="#2d5967" stroke="none" stroke-width="0.5"/>
  </g>
  <g transform="translate(53.00,34.00) scale(0.0300,0.0300)">
    <path d="M 100 0 L 0 0 L 0 100 L 100 100 L 100 0 L 100 0" fill="#2d5967" stroke="none" stroke-width="0.5"/>
  </g>
  <g transform="translate(53.00,40.00) scale(0.0300,0.0300)">
    <path d="M 100 0 L 0 0 L 0 100 L 100 100 L 100 0 L 100 0" fill="#2d5967" stroke="none" stroke-width="0.5"/>
  </g>
  <g transform="translate(53.00,46.00) scale(0.0300,0.0300)">
    <path d="M 100 0 L 0 0 L 0 100 L 100 100 L 100 0 L 100 0" fill="#2d5967" stroke="none" stroke-width="0.5"/>
  </g>
  <g transform="translate(53.00,52.00) scale(0.0300,0.0300)">
    <path d="M 100 0 L 0 0 L 0 25.28 C 28.35,47.18 53.96,72.25 76.52,100 L 100 100 L 100 0 L 100 0" fill="#2d5967" stroke="none" stroke-width="0.5"/>
  </g>
  <g transform="translate(19.00,23.00) scale(0.4800,0.5500)">
    <path d="M 92.81 8.6 L 64.23 8.6 L 49.59 0 L 35.9 8.6 L 7.19 8.6 L 7.19 93.69 L 0 96.84 L 0 100 L 23.74 100 C 21.89,98.08 20.31,95.96 19.08,93.69 L 14.71 93.69 L 14.71 14.88 L 38.47 14.88 L 49.99 7.66 L 62.32 14.88 L 86.06 14.88 L 86.06 93.69 L 80.26 93.69 C 78.85,95.98 77.12,98.1 75.12,100 L 100 100 L 100 96.84 L 92.81 93.69 L 92.81 8.6 L 92.81 8.6" fill="#2d5967" stroke="none" stroke-width="0.5"/>
  </g>
  <g transform="translate(29.00,52.00) scale(0.2800,0.2500)">
    <path d="M 96.01 36.31 C 93.8,29.03 90.11,22.39 85.27,16.89 C 80.47,11.38 74.6,7.13 68.11,4.47 C 60.5,1.17 52.27,0 44.19,1.06 C 36.06,2.12 28.31,5.37 21.59,10.54 C 15.28,15.4 10.08,21.82 6.39,29.3 C 2.69,36.77 0.63,45.1 0.3,53.63 C 0,62.15 1.44,70.65 4.58,78.44 C 7.72,86.23 12.4,93.1 18.35,98.52 L 20.01 100 L 78.92 100 L 80.58 98.52 C 88.67,91.22 94.46,81.31 97.23,70.16 C 100,59.01 99.56,47.18 96.01,36.31 L 96.01 36.31 M 18.35 77.78 L 27.09 73.56 L 22.33 61.2 L 13.62 65.42 C 12.88,62.19 12.44,58.89 12.37,55.57 C 12.33,52.73 12.62,49.9 13.14,47.13 L 22.04 51.57 L 26.98 39.28 L 17.46 34.53 C 20.19,29.34 23.92,24.87 28.35,21.43 L 29.49 20.61 L 33.48 32.24 L 44.78 27.43 L 40.61 15.28 C 46.44,13.76 52.53,13.76 58.4,15.28 L 54.23 27.57 L 65.45 32.39 L 69.69 20.17 C 74.79,23.71 79.03,28.59 82.06,34.39 L 71.95 39.42 L 74.49 45.57 L 76.93 51.72 L 86.19 47.13 C 87.26,53.33 87.12,59.72 85.79,65.86 L 76.89 61.49 L 74.49 67.64 L 72.02 73.86 L 80.99 78.23 C 79.25,81.3 77.11,84.1 74.68,86.52 L 24.51 86.52 C 22.11,83.92 20.04,80.98 18.35,77.78 L 18.35 77.78" fill="#2d5967" stroke="none" stroke-width="0.5"/>
  </g>
  <g transform="translate(39.00,62.00) scale(0.0800,0.0800)">
    <path d="M 45.79 100 C 56.89,99.13 67.09,94.07 74.36,85.9 C 81.38,77.61 84.95,66.94 84.18,56.14 C 83.67,52.26 82.78,48.43 81.38,44.74 L 100 0 L 52.68 19.69 C 48.34,18.52 43.75,18.15 39.16,18.56 C 33.67,18.95 28.32,20.38 23.47,22.81 C 18.62,25.23 14.29,28.58 10.71,32.66 C 3.57,40.84 0,51.46 0.89,62.19 C 1.28,67.53 2.68,72.72 5.23,77.48 C 7.65,82.24 11.1,86.48 15.31,89.93 C 22.83,96.19 32.4,99.68 42.35,99.78 L 45.79 100 L 45.79 100" fill="#2d5967" stroke="none" stroke-width="0.5"/>
  </g>
</svg>