<svg xmlns="http://www.w3.org/2000/svg" viewBox="0 0 85.0 120.00000000000001" width="85" height="120">
  <g transform="translate(16.00,-0.00) scale(0.8300,0.7800)">
    <path d="M 35.23 100 C 31.83,99.99 28.53,98.83 25.81,96.67 C 23.1,94.51 21.12,91.48 20.16,88.03 C 19.21,84.58 19.33,80.89 20.52,77.53 C 21.71,74.16 23.89,71.29 26.75,69.34 L 26.75 54.17 L 0 54.17 L 0.25 50.51 C 0.55,46.19 1.88,42.03 4.12,38.41 C 6.36,34.79 9.44,31.85 13.06,29.85 C 13.85,29.42 14.53,28.8 15.06,28.06 C 15.59,27.31 15.96,26.44 16.14,25.53 C 16.95,21.11 19.19,17.13 22.48,14.27 C 25.76,11.41 29.88,9.85 34.13,9.85 C 34.7,9.81 35.27,9.81 35.84,9.85 L 36.42 9.85 C 37.19,9.86 37.96,9.7 38.67,9.38 C 39.38,9.05 40.02,8.58 40.54,7.98 C 43.01,5.14 46.1,2.98 49.53,1.69 C 52.97,0.39 56.65,0 60.26,0.55 C 63.87,1.09 67.29,2.56 70.25,4.83 C 73.2,7.09 75.59,10.08 77.21,13.54 C 77.6,14.4 78.16,15.17 78.86,15.77 C 79.57,16.38 80.39,16.81 81.27,17.03 C 83.85,17.64 86.32,18.71 88.56,20.21 C 93.47,23.51 97.03,28.66 98.52,34.63 C 100,40.6 99.3,46.93 96.55,52.37 L 95.64 54.17 L 78.36 54.17 L 78.36 95.85 L 45.59 95.85 C 42.72,98.52 39.04,99.99 35.23,100 L 35.23 100" fill="#FFFFFF" stroke="none" stroke-width="0.5"/>
  </g>
  <g transform="translate(15.00,-0.00) scale(0.8500,0.8000)">
    <path d="M 56.88 2.4 C 60.75,2.38 64.55,3.52 67.85,5.69 C 71.15,7.86 73.81,10.96 75.54,14.65 C 76,15.65 76.67,16.52 77.5,17.21 C 78.32,17.89 79.28,18.37 80.3,18.61 C 82.68,19.18 84.95,20.18 87.01,21.56 C 91.58,24.64 94.89,29.44 96.27,35 C 97.64,40.57 96.99,46.48 94.44,51.55 L 93.86 52.67 L 76.59 52.67 L 76.59 93.54 L 45.26 93.54 C 43.8,94.98 42.07,96.07 40.18,96.74 C 38.29,97.42 36.29,97.66 34.31,97.47 C 32.33,97.27 30.4,96.63 28.67,95.59 C 26.94,94.55 25.42,93.13 24.24,91.43 C 23.05,89.73 22.21,87.78 21.78,85.71 C 21.34,83.65 21.32,81.5 21.72,79.43 C 22.11,77.35 22.91,75.38 24.06,73.66 C 25.22,71.93 26.7,70.48 28.42,69.4 L 28.42 52.74 L 2.42 52.74 L 2.57 50.36 C 2.85,46.33 4.08,42.45 6.17,39.07 C 8.25,35.7 11.11,32.95 14.48,31.08 C 15.39,30.57 16.19,29.85 16.81,28.98 C 17.42,28.1 17.85,27.08 18.06,26.01 C 18.81,21.95 20.86,18.3 23.87,15.67 C 26.87,13.04 30.63,11.59 34.52,11.58 C 35.04,11.58 35.57,11.58 36.09,11.58 L 36.76 11.58 C 37.66,11.61 38.55,11.44 39.38,11.08 C 40.22,10.73 40.98,10.21 41.62,9.54 C 43.56,7.3 45.92,5.5 48.55,4.28 C 51.17,3.05 54.01,2.41 56.88,2.4 L 56.88 2.4 M 56.88 0.02 C 53.7,0.02 50.56,0.72 47.65,2.07 C 44.74,3.42 42.12,5.4 39.96,7.87 C 39.55,8.34 39.06,8.71 38.5,8.96 C 37.95,9.21 37.36,9.33 36.76,9.32 L 36.31 9.32 C 35.72,9.29 35.12,9.29 34.52,9.32 C 30.12,9.33 25.85,10.96 22.45,13.94 C 19.04,16.91 16.72,21.05 15.86,25.65 C 15.71,26.36 15.42,27.03 14.99,27.6 C 14.57,28.17 14.04,28.64 13.43,28.96 C 9.72,31.01 6.57,34.04 4.28,37.75 C 1.99,41.46 0.63,45.74 0.34,50.17 L 0.18 52.55 L 0 55.05 L 26.2 55.05 L 26.2 68.09 C 24.4,69.45 22.88,71.18 21.73,73.18 C 20.57,75.18 19.81,77.4 19.48,79.72 C 19.15,82.04 19.26,84.41 19.8,86.68 C 20.35,88.95 21.32,91.08 22.65,92.95 C 23.99,94.81 25.66,96.37 27.57,97.54 C 29.49,98.7 31.6,99.45 33.79,99.72 C 35.98,100 38.2,99.81 40.31,99.15 C 42.43,98.5 44.4,97.4 46.11,95.92 L 78.82 95.92 L 78.82 55.05 L 95.25 55.05 L 95.87 53.81 L 96.46 52.67 C 99.28,47.07 100,40.54 98.48,34.39 C 96.95,28.25 93.3,22.95 88.24,19.56 C 85.95,18.02 83.43,16.91 80.79,16.27 C 80.1,16.12 79.44,15.79 78.88,15.33 C 78.31,14.87 77.85,14.28 77.53,13.61 C 75.62,9.51 72.68,6.07 69.03,3.67 C 65.38,1.27 61.17,0 56.88,0.02 L 56.88 0.02" fill="#FFFFFF" stroke="none" stroke-width="0.5"/>
  </g>
  <g transform="translate(17.00,1.00) scale(0.8100,0.4000)">
    <path d="M 88.79 38.44 C 86.63,35.72 84.25,33.75 81.75,32.61 C 80.68,32.15 79.67,31.2 78.81,29.85 C 77.94,28.5 77.24,26.77 76.75,24.8 C 75.17,18.45 72.85,12.97 69.97,8.82 C 67.1,4.68 63.77,1.99 60.26,0.99 C 56.76,0 53.18,0.73 49.85,3.11 C 46.52,5.5 43.52,9.47 41.12,14.69 C 40.39,16.26 39.48,17.46 38.48,18.2 C 37.47,18.94 36.39,19.21 35.32,18.97 C 30.99,18.17 26.66,20.61 23.17,25.82 C 19.68,31.03 17.27,38.64 16.41,47.19 C 16.2,49.31 15.75,51.32 15.1,53.05 C 14.45,54.79 13.61,56.21 12.65,57.2 C 9.12,60.88 6.11,66.31 3.93,72.98 C 1.74,79.65 0.44,87.34 0.16,95.3 L 0 100 L 24.11 100 L 24.11 91.39 L 4.72 91.39 C 5.26,85.74 6.44,80.42 8.16,75.81 C 9.88,71.2 12.1,67.43 14.65,64.78 C 16.17,63.19 17.5,60.93 18.53,58.18 C 19.56,55.43 20.27,52.25 20.61,48.88 C 21.24,42.34 23.07,36.52 25.74,32.54 C 28.4,28.56 31.71,26.73 35.02,27.39 C 36.75,27.76 38.5,27.33 40.13,26.11 C 41.76,24.89 43.22,22.93 44.41,20.38 C 46.35,16.28 48.76,13.19 51.43,11.34 C 54.09,9.5 56.94,8.97 59.73,9.8 C 62.53,10.62 65.18,12.78 67.46,16.08 C 69.75,19.39 71.61,23.75 72.88,28.8 C 73.67,31.87 74.79,34.55 76.16,36.66 C 77.52,38.76 79.11,40.24 80.79,40.98 C 83.42,42.14 85.89,44.47 88.02,47.79 C 90.15,51.11 91.88,55.34 93.08,60.17 C 94.29,65.01 94.94,70.32 94.99,75.72 C 95.04,81.12 94.49,86.48 93.37,91.39 L 81 91.39 L 81 99.91 L 96.05 99.91 L 96.66 97.7 C 99.33,87.66 100,75.96 98.54,64.97 C 97.08,53.98 93.6,44.5 88.79,38.44 L 88.79 38.44" fill="#2d5967" stroke="none" stroke-width="0.5"/>
  </g>
  <g transform="translate(39.00,21.00) scale(0.4100,0.5300)">
    <path d="M 8.46 6.54 L 68.87 6.54 L 68.87 24.69 L 91.36 24.69 L 91.36 93.46 L 48.23 93.46 C 47.06,95.79 45.5,97.99 43.59,100 L 100 100 L 100 17.69 L 77.18 0 L 0 0 L 0 58.02 C 2.69,57.02 5.53,56.29 8.46,55.82 L 8.46 6.54 L 8.46 6.54 M 77.51 9.49 L 88.71 18.15 L 77.51 18.15 L 77.51 9.49 L 77.51 9.49" fill="#2d5967" stroke="none" stroke-width="0.5"/>
  </g>
  <g transform="translate(52.00,34.00) scale(0.1400,0.2200)">
    <path d="M 66.54 42.34 L 62.7 42.34 L 62.7 28.66 L 90.39 28.66 L 90.39 12.99 L 62.7 12.99 L 62.7 0 L 39.37 0 L 39.37 12.99 L 35.4 12.99 C 30.86,12.81 26.3,13.24 22.02,14.28 C 17.74,15.32 13.82,16.93 10.51,19.02 C 7.19,21.11 4.55,23.64 2.74,26.44 C 0.93,29.25 0,32.27 0,35.33 C 0,38.38 0.93,41.4 2.74,44.21 C 4.55,47.01 7.19,49.54 10.51,51.63 C 13.82,53.72 17.74,55.34 22.02,56.37 C 26.3,57.41 30.86,57.85 35.4,57.66 L 39.37 57.66 L 39.37 71.34 L 11.68 71.34 L 11.68 87 L 39.37 87 L 39.37 100 L 62.7 100 L 62.7 86.92 L 66.54 86.92 C 75.41,86.92 83.93,84.55 90.2,80.34 C 96.47,76.12 100,70.41 100,64.46 C 100,58.5 96.47,52.79 90.2,48.57 C 83.93,44.36 75.41,42 66.54,42 L 66.54 42.34 L 66.54 42.34 M 35.4 42.34 C 32.75,42.34 30.22,41.65 28.32,40.41 C 26.43,39.17 25.34,37.49 25.27,35.71 C 25.33,33.93 26.43,32.24 28.32,30.99 C 30.2,29.73 32.74,29.02 35.4,29 L 39.37 29 L 39.37 42.34 L 35.4 42.34 L 35.4 42.34 M 66.54 71.6 L 62.7 71.6 L 62.7 57.66 L 66.54 57.66 C 69.23,57.66 71.8,58.37 73.71,59.65 C 75.61,60.92 76.67,62.66 76.67,64.46 C 76.67,66.26 75.61,67.99 73.71,69.26 C 71.8,70.54 69.23,71.26 66.54,71.26 L 66.54 71.6 L 66.54 71.6" fill="#2d5967" stroke="none" stroke-width="0.5"/>
  </g>
  <g transform="translate(32.00,53.00) scale(0.2400,0.2400)">
    <path d="M 100 50.48 C 100,40.68 97.09,31.11 91.65,22.97 C 86.21,14.82 78.48,8.48 69.43,4.73 C 60.38,0.98 50.42,0 40.82,1.91 C 31.21,3.82 22.39,8.54 15.46,15.46 C 8.54,22.39 3.82,31.21 1.91,40.82 C 0,50.42 0.98,60.38 4.73,69.43 C 8.48,78.48 14.83,86.21 22.97,91.65 C 31.11,97.1 40.69,100 50.48,100 C 63.61,99.98 76.19,94.76 85.47,85.47 C 94.75,76.19 99.98,63.61 100,50.48 L 100 50.48 M 85.83 50.48 C 85.84,57.49 83.78,64.35 79.89,70.19 C 76,76.03 70.47,80.58 64,83.27 C 57.52,85.96 50.39,86.67 43.51,85.31 C 36.63,83.94 30.31,80.57 25.35,75.61 C 20.39,70.65 17.01,64.33 15.65,57.45 C 14.29,50.57 14.99,43.44 17.69,36.96 C 20.38,30.49 24.93,24.95 30.77,21.07 C 36.61,17.18 43.47,15.11 50.48,15.13 C 59.86,15.13 68.85,18.85 75.48,25.48 C 82.1,32.11 85.83,41.11 85.83,50.48 L 85.83 50.48" fill="#2d5967" stroke="none" stroke-width="0.5"/>
  </g>
  <g transform="translate(39.00,61.00) scale(0.1100,0.1000)">
    <path d="M 79.39 0 L 36.39 50.86 L 20.77 32.12 L 0 56.78 L 36.39 100 L 100 24.48 L 79.39 0 L 79.39 0" fill="#2d5967" stroke="none" stroke-width="0.5"/>
  </g>
</svg>