<svg xmlns="http://www.w3.org/2000/svg" viewBox="0 0 85.0 103.99999999999994" width="85" height="103">
  <g transform="translate(1.00,-0.00) scale(0.8300,0.7800)">
    <path d="M 11.23 100 L 11.23 95.83 L 16.3 93.15 L 18.93 93.15 L 18.93 73.86 L 28.76 73.86 C 28.98,73.1 29.42,72.44 30.02,71.98 C 30.62,71.51 31.34,71.26 32.09,71.26 L 28.56 57.52 C 28,57.01 27.56,56.38 27.25,55.68 C 27.04,55.21 26.91,54.71 26.84,54.2 L 0 54.2 L 0.25 50.53 C 0.54,46.21 1.87,42.04 4.11,38.42 C 6.36,34.8 9.44,31.85 13.06,29.85 C 13.85,29.42 14.53,28.8 15.06,28.06 C 15.59,27.31 15.96,26.44 16.14,25.53 C 16.95,21.11 19.19,17.13 22.48,14.27 C 25.76,11.41 29.88,9.85 34.13,9.85 C 34.7,9.81 35.27,9.81 35.84,9.85 L 36.44 9.85 C 37.21,9.85 37.97,9.69 38.68,9.36 C 39.38,9.04 40.02,8.57 40.54,7.98 C 43.01,5.14 46.1,2.98 49.53,1.68 C 52.97,0.39 56.65,0 60.26,0.55 C 63.87,1.09 67.29,2.56 70.25,4.83 C 73.2,7.09 75.59,10.08 77.21,13.54 C 77.6,14.4 78.16,15.17 78.86,15.77 C 79.57,16.38 80.39,16.81 81.27,17.03 C 83.85,17.64 86.32,18.71 88.56,20.21 C 93.47,23.51 97.03,28.66 98.52,34.63 C 100,40.6 99.3,46.93 96.55,52.37 L 95.64 54.17 L 73.2 54.17 L 76.68 77.6 L 80.95 77.6 L 80.95 93.15 L 83.24 93.15 L 88.3 95.83 L 88.3 100 L 11.23 100 L 11.23 100 M 56.06 93.15 L 56.06 77.6 L 60.32 77.6 L 64.47 49.7 C 63.82,49.14 63.28,48.44 62.88,47.64 C 62.49,46.85 62.25,45.98 62.18,45.09 L 46.89 37.3 C 46,37.88 44.98,38.21 43.93,38.25 L 36.46 51.65 C 36.65,52.22 36.74,52.83 36.74,53.44 C 36.74,54.17 36.6,54.89 36.33,55.56 C 36.06,56.23 35.66,56.83 35.16,57.33 L 32.2 71.26 C 33.06,71.3 33.88,71.68 34.49,72.33 C 34.9,72.75 35.2,73.28 35.36,73.86 L 45.36 73.86 L 45.36 93.28 L 56.06 93.15 L 56.06 93.15" fill="#FFFFFF" stroke="none" stroke-width="0.5"/>
  </g>
  <g transform="translate(0.00,-0.00) scale(0.8500,0.8000)">
    <path d="M 56.88 2.4 C 60.75,2.38 64.55,3.52 67.85,5.69 C 71.15,7.86 73.81,10.96 75.54,14.66 C 76,15.65 76.67,16.52 77.5,17.21 C 78.32,17.89 79.28,18.37 80.3,18.61 C 82.68,19.18 84.95,20.18 87.01,21.56 C 91.58,24.64 94.89,29.44 96.27,35 C 97.64,40.57 96.99,46.48 94.44,51.55 L 93.86 52.67 L 71.35 52.67 L 75.11 78.03 L 79.11 78.03 L 79.11 93.29 L 82.18 93.29 L 86.25 95.45 L 86.25 97.62 L 13.29 97.62 L 13.29 95.45 L 17.36 93.29 L 20.81 93.29 L 20.81 74.36 L 30.27 74.36 C 30.25,74.02 30.3,73.69 30.41,73.37 C 30.52,73.05 30.7,72.77 30.92,72.53 C 31.13,72.29 31.38,72.11 31.66,71.98 C 31.94,71.85 32.24,71.79 32.54,71.79 C 32.85,71.79 33.15,71.85 33.43,71.98 C 33.7,72.11 33.96,72.29 34.16,72.53 C 34.39,72.77 34.56,73.05 34.67,73.37 C 34.79,73.69 34.83,74.02 34.81,74.36 L 44.44 74.36 L 44.44 93.41 L 57.03 93.41 L 57.03 78.03 L 61.01 78.03 L 64.46 54.77 L 65.33 48.91 C 64.63,48.41 64.06,47.74 63.67,46.94 C 63.28,46.15 63.08,45.26 63.1,44.37 L 63.1 44.15 L 46.99 35.94 C 46.14,36.66 45.09,37.05 44.01,37.06 L 43.56 37.06 L 35.64 51.34 C 36.05,52.17 36.17,53.13 35.98,54.05 C 35.79,54.97 35.31,55.79 34.61,56.36 L 34.21 58.29 L 33.79 60.29 L 32.53 66.17 L 31.03 60.36 L 30.03 56.48 C 29.48,56.07 29.05,55.51 28.77,54.86 C 28.55,54.34 28.43,53.77 28.44,53.2 C 28.43,53.04 28.43,52.88 28.44,52.72 L 2.42 52.72 L 2.57 50.34 C 2.85,46.31 4.08,42.43 6.17,39.05 C 8.25,35.68 11.11,32.92 14.48,31.06 C 15.39,30.55 16.19,29.83 16.81,28.95 C 17.42,28.08 17.85,27.06 18.06,25.99 C 18.81,21.93 20.86,18.27 23.87,15.64 C 26.87,13.01 30.63,11.57 34.52,11.56 C 35.04,11.56 35.57,11.56 36.09,11.56 L 36.78 11.56 C 37.68,11.59 38.56,11.43 39.4,11.08 C 40.23,10.73 40.98,10.21 41.62,9.54 C 43.56,7.3 45.92,5.5 48.55,4.28 C 51.17,3.05 54.01,2.41 56.88,2.4 L 56.88 2.4 M 56.88 0.02 C 53.7,0.02 50.56,0.72 47.65,2.07 C 44.74,3.43 42.12,5.4 39.96,7.87 C 39.55,8.33 39.06,8.7 38.51,8.95 C 37.97,9.2 37.38,9.33 36.78,9.32 L 36.31 9.32 C 35.72,9.29 35.12,9.29 34.52,9.32 C 30.12,9.33 25.85,10.96 22.45,13.94 C 19.04,16.91 16.72,21.06 15.86,25.65 C 15.71,26.36 15.42,27.03 14.99,27.6 C 14.57,28.17 14.04,28.64 13.43,28.96 C 9.72,31.01 6.57,34.04 4.28,37.75 C 1.99,41.47 0.63,45.74 0.34,50.17 L 0.18 52.55 L 0 55.05 L 26.47 55.05 L 26.74 55.82 C 27.06,56.55 27.51,57.22 28.06,57.79 L 28.88 60.96 L 30.38 66.67 L 31.15 69.58 C 30.46,69.8 29.84,70.2 29.33,70.74 C 29.02,71.08 28.76,71.46 28.55,71.89 L 18.57 71.89 L 18.57 90.93 L 16.85 90.93 L 16.38 91.19 L 12.31 93.33 L 11.05 93.98 L 11.05 100 L 88.49 100 L 88.49 93.98 L 87.26 93.33 L 83.19 91.17 L 82.78 90.91 L 81.44 90.91 L 81.44 75.65 L 77.03 75.65 L 73.97 55.05 L 95.25 55.05 L 95.87 53.82 L 96.46 52.67 C 99.28,47.07 100,40.54 98.48,34.4 C 96.95,28.25 93.3,22.95 88.24,19.56 C 85.95,18.02 83.43,16.91 80.79,16.27 C 80.1,16.12 79.44,15.8 78.88,15.33 C 78.31,14.87 77.85,14.28 77.53,13.61 C 75.62,9.51 72.68,6.07 69.03,3.67 C 65.38,1.27 61.17,0 56.88,0.02 L 56.88 0.02 M 44.86 39.39 C 45.64,39.27 46.39,39.02 47.1,38.65 L 60.84 45.79 C 61.1,47.4 61.84,48.87 62.94,50.01 L 62.27 54.51 L 59.11 75.72 L 54.79 75.72 L 54.79 90.98 L 46.67 90.98 L 46.67 71.98 L 36.54 71.98 C 36.33,71.56 36.06,71.17 35.73,70.84 C 35.26,70.34 34.7,69.96 34.08,69.72 L 34.72 66.67 L 35.96 60.79 L 36.38 58.79 L 36.65 57.58 C 37.71,56.39 38.3,54.81 38.31,53.17 C 38.31,52.63 38.24,52.08 38.1,51.55 L 44.82 39.41 L 44.86 39.39 L 44.86 39.39" fill="#FFFFFF" stroke="none" stroke-width="0.5"/>
  </g>
  <g transform="translate(29.00,50.00) scale(0.0800,0.0800)">
    <path d="M 52.23 0 L 100 47.87 L 0 100 L 52.23 0 L 52.23 0" fill="#FFFFFF" stroke="none" stroke-width="0.5"/>
  </g>
  <g transform="translate(26.00,48.00) scale(0.1200,0.1200)">
    <path d="M 56.63 25.33 L 75.7 44.29 L 35.62 65.04 L 56.63 25.33 L 56.63 25.33 M 52.76 0.59 L 43.37 18.37 L 22.5 58.22 L 0 100 L 42.02 78.22 L 81.96 57.48 L 100 48.15 L 85.09 33.33 L 67.06 14.82 L 52.16 0 L 52.76 0.59 L 52.76 0.59" fill="#FFFFFF" stroke="none" stroke-width="0.5"/>
  </g>
  <g transform="translate(17.00,50.00) scale(0.0800,0.0800)">
    <path d="M 0 47.87 L 47.88 0 L 100 100 L 0 47.87 L 0 47.87" fill="#FFFFFF" stroke="none" stroke-width="0.5"/>
  </g>
  <g transform="translate(15.00,48.00) scale(0.1200,0.1200)">
    <path d="M 44.57 24.78 L 65.43 64.54 L 25.49 43.77 L 44.57 24.78 L 44.57 24.78 M 48.44 0 L 33.53 14.84 L 14.91 33.24 L 0 48.07 L 17.89 57.42 L 57.98 78.19 L 100 100 L 78.7 57.72 L 57.83 17.81 L 48.44 0 L 48.44 0" fill="#FFFFFF" stroke="none" stroke-width="0.5"/>
  </g>
  <g transform="translate(2.00,1.00) scale(0.8100,0.4000)">
    <path d="M 88.82 38.44 C 86.66,35.72 84.27,33.75 81.78,32.61 C 80.71,32.15 79.7,31.2 78.83,29.85 C 77.97,28.5 77.26,26.77 76.78,24.8 C 75.2,18.45 72.87,12.97 70,8.82 C 67.12,4.68 63.79,1.99 60.28,0.99 C 56.78,0 53.2,0.73 49.87,3.11 C 46.53,5.5 43.53,9.47 41.14,14.69 C 40.4,16.26 39.5,17.46 38.49,18.2 C 37.48,18.94 36.4,19.21 35.34,18.97 C 31,18.17 26.67,20.61 23.18,25.82 C 19.68,31.03 17.27,38.64 16.41,47.19 C 16.2,49.31 15.75,51.32 15.1,53.05 C 14.45,54.79 13.62,56.21 12.65,57.2 C 9.12,60.89 6.12,66.33 3.93,72.99 C 1.75,79.66 0.45,87.34 0.16,95.3 L 0 100 L 24.11 100 C 24.22,96.85 24.84,93.86 25.87,91.49 L 4.74 91.49 C 5.29,85.84 6.47,80.51 8.19,75.9 C 9.91,71.29 12.13,67.52 14.67,64.87 C 16.2,63.28 17.52,61.03 18.56,58.28 C 19.59,55.53 20.3,52.35 20.64,48.97 C 21.26,42.43 23.08,36.59 25.75,32.59 C 28.41,28.6 31.72,26.74 35.03,27.39 C 36.76,27.76 38.51,27.33 40.14,26.11 C 41.77,24.89 43.24,22.93 44.42,20.38 C 46.37,16.28 48.78,13.19 51.44,11.34 C 54.11,9.5 56.96,8.97 59.75,9.8 C 62.55,10.62 65.2,12.78 67.49,16.08 C 69.77,19.39 71.63,23.75 72.9,28.8 C 73.7,31.87 74.81,34.55 76.18,36.66 C 77.55,38.76 79.13,40.24 80.82,40.98 C 83.45,42.14 85.92,44.47 88.05,47.79 C 90.18,51.11 91.91,55.34 93.11,60.17 C 94.32,65.01 94.97,70.32 95.02,75.72 C 95.07,81.12 94.52,86.48 93.4,91.39 L 76.47 91.39 C 76.12,92.71 75.7,93.94 75.21,95.06 L 75.58 99.76 L 96.08 99.76 L 96.69 97.55 C 99.34,87.53 100,75.87 98.54,64.91 C 97.08,53.95 93.61,44.49 88.82,38.44 L 88.82 38.44" fill="#2d5967" stroke="none" stroke-width="0.5"/>
  </g>
  <g transform="translate(24.00,21.00) scale(0.4300,0.5000)">
    <path d="M 5.92 35.4 C 5.43,35.47 4.95,35.59 4.51,35.78 C 2.7,36.42 1.26,37.64 0.49,39.18 C 0.49,39.59 0.18,39.97 0.04,40.39 C 0,40.83 0,41.27 0.04,41.71 C 0.03,42.62 0.26,43.52 0.71,44.35 C 1.25,45.38 2.11,46.27 3.18,46.92 L 5.17 53.08 L 8.13 62.3 L 10.6 52.97 L 11.45 49.79 L 12.24 46.73 C 13.61,45.82 14.57,44.52 14.94,43.06 C 15.31,41.6 15.07,40.08 14.27,38.76 L 29.92 16.09 L 30.8 16.09 C 32.88,16.08 34.9,15.48 36.54,14.39 L 68.18 27.5 L 68.18 27.84 C 68.16,29.27 68.55,30.67 69.32,31.93 C 70.09,33.19 71.22,34.27 72.6,35.06 L 71.06 44.28 L 64.25 81.11 L 56.39 81.11 L 56.39 100 L 100 100 L 100 81.11 L 92.09 81.11 L 83.61 35.06 C 85.43,34.06 86.82,32.58 87.58,30.84 C 88.34,29.1 88.42,27.2 87.81,25.42 C 87.19,23.64 85.93,22.08 84.19,20.97 C 82.45,19.86 80.34,19.26 78.17,19.27 C 75.79,19.28 73.5,20 71.67,21.31 L 40.03 8.2 C 40.04,6.93 39.71,5.68 39.04,4.55 C 38.39,3.42 37.42,2.44 36.23,1.68 C 35.05,0.93 33.67,0.43 32.21,0.21 C 30.75,0 29.26,0.08 27.84,0.46 C 26.43,0.83 25.14,1.48 24.08,2.36 C 23.01,3.24 22.21,4.33 21.72,5.52 C 21.24,6.72 21.1,7.99 21.3,9.25 C 21.5,10.5 22.05,11.69 22.89,12.73 L 7.2 35.4 C 6.78,35.36 6.35,35.36 5.92,35.4 L 5.92 35.4 M 91.96 93.39 L 64.43 93.39 L 64.43 88.06 L 91.96 88.06 L 91.96 93.39 L 91.96 93.39 M 83.96 81.19 L 72.38 81.19 L 75.12 66.34 L 78.17 49.83 L 83.96 81.19 L 83.96 81.19" fill="#2d5967" stroke="none" stroke-width="0.5"/>
  </g>
  <g transform="translate(11.00,74.00) scale(0.6200,0.0300)">
    <path d="M 94.42 0 L 5.58 0 L 0 50 L 0 100 L 5.58 100 L 94.42 100 L 100 100 L 100 50 L 94.42 0 L 94.42 0" fill="#2d5967" stroke="none" stroke-width="0.5"/>
  </g>
  <g transform="translate(17.00,57.00) scale(0.2000,0.1400)">
    <path d="M 0 100 L 100 100 L 100 14.09 L 59.28 14.09 C 59.37,12.25 59.17,10.4 58.69,8.67 C 58.22,6.94 57.48,5.36 56.53,4.05 C 55.65,2.77 54.58,1.75 53.4,1.05 C 52.23,0.35 50.96,0 49.67,0 C 48.38,0 47.11,0.35 45.94,1.05 C 44.75,1.75 43.69,2.77 42.8,4.05 C 41.86,5.36 41.12,6.94 40.65,8.67 C 40.17,10.4 39.97,12.25 40.05,14.09 L 0 14.09 L 0 100 L 0 100 M 17.14 37.82 L 82.39 37.82 L 82.39 76.93 L 17.14 76.93 L 17.14 37.82 L 17.14 37.82" fill="#2d5967" stroke="none" stroke-width="0.5"/>
  </g>
  <g transform="translate(31.00,51.00) scale(0.0500,0.0500)">
    <path d="M 100 47.76 L 52.41 0 L 0 100 L 100 47.76 L 100 47.76" fill="#2d5967" stroke="none" stroke-width="0.5"/>
  </g>
  <g transform="translate(19.00,51.00) scale(0.0500,0.0500)">
    <path d="M 0 47.76 L 100 100 L 47.78 0 L 0 47.76 L 0 47.76" fill="#2d5967" stroke="none" stroke-width="0.5"/>
  </g>
</svg>