<svg xmlns="http://www.w3.org/2000/svg" viewBox="0 0 84.0 90.99999999999991" width="84" height="90">
  <g transform="translate(1.00,0.00) scale(0.8300,0.6500)">
    <path d="M 22.46 82.66 L 33.95 75.31 L 22.46 68 L 27.15 64.91 L 0 64.91 L 0.27 60.44 C 0.59,55.26 1.95,50.27 4.22,45.95 C 6.49,41.63 9.58,38.12 13.21,35.75 C 13.99,35.24 14.67,34.51 15.2,33.62 C 15.73,32.73 16.09,31.7 16.26,30.6 C 17.08,25.27 19.32,20.47 22.6,17.02 C 25.89,13.57 30.01,11.68 34.26,11.68 C 34.84,11.64 35.41,11.64 35.98,11.68 L 36.56 11.68 C 37.33,11.7 38.08,11.5 38.78,11.12 C 39.48,10.74 40.11,10.17 40.63,9.46 C 43.11,6.09 46.19,3.52 49.61,1.99 C 53.03,0.46 56.69,0 60.28,0.66 C 63.87,1.31 67.28,3.07 70.23,5.77 C 73.17,8.46 75.56,12.03 77.19,16.16 C 77.58,17.2 78.14,18.12 78.85,18.84 C 79.55,19.56 80.38,20.07 81.26,20.32 C 83.84,21.04 86.29,22.34 88.52,24.15 C 93.45,28.12 97.03,34.34 98.51,41.53 C 100,48.73 99.29,56.38 96.53,62.94 L 95.61 65.13 L 72.96 65.13 L 77.34 68.22 L 65.84 75.41 L 77.44 82.81 L 49.7 100 L 22.46 82.66 L 22.46 82.66" fill="#FFFFFF" stroke="none" stroke-width="0.5"/>
  </g>
  <g transform="translate(0.00,0.00) scale(0.8400,0.6700)">
    <path d="M 57.26 3 C 61.16,2.98 64.98,4.34 68.29,6.92 C 71.6,9.5 74.27,13.21 76,17.61 C 76.47,18.78 77.13,19.81 77.96,20.62 C 78.78,21.43 79.73,22 80.75,22.28 C 83.16,22.96 85.45,24.16 87.54,25.81 C 92.15,29.45 95.48,35.16 96.87,41.78 C 98.25,48.4 97.59,55.44 95,61.47 L 94.43 62.82 L 68.31 62.82 L 74.62 67.25 L 63.22 74.28 L 66.67 76.44 L 74.62 81.44 L 50.07 96.62 L 25.98 81.44 L 33.84 76.47 L 37.26 74.31 L 25.98 67.22 L 32.94 62.88 L 2.56 62.88 L 2.73 60.12 C 2.99,55.34 4.22,50.71 6.3,46.69 C 8.38,42.68 11.24,39.39 14.61,37.16 C 15.52,36.56 16.33,35.72 16.95,34.68 C 17.57,33.64 18.01,32.45 18.22,31.17 C 18.74,27.81 19.89,24.66 21.59,21.98 C 23.29,19.31 25.47,17.19 27.95,15.81 C 30.1,14.64 32.41,14.02 34.75,14.02 L 36.31 14.02 L 37 14.02 C 37.89,14 38.77,13.76 39.59,13.31 C 40.41,12.85 41.14,12.2 41.75,11.38 C 43.74,8.71 46.14,6.58 48.81,5.14 C 51.48,3.7 54.36,2.97 57.26,3 L 57.26 3 M 57.26 0 C 54.06,0.01 50.88,0.84 47.95,2.46 C 45.01,4.08 42.37,6.44 40.19,9.4 C 39.79,9.94 39.3,10.36 38.77,10.65 C 38.23,10.94 37.66,11.09 37.07,11.08 L 36.6 11.08 C 36.01,11.04 35.41,11.04 34.82,11.08 C 30.36,11.09 26.04,13.05 22.6,16.62 C 19.16,20.19 16.8,25.15 15.94,30.66 C 15.8,31.5 15.52,32.29 15.11,32.98 C 14.7,33.66 14.17,34.22 13.56,34.61 C 9.84,37.06 6.67,40.67 4.36,45.09 C 2.05,49.51 0.67,54.6 0.36,59.88 L 0.19 62.64 L 0 65.87 L 22.89 65.87 L 20.69 67.28 L 24.91 69.94 L 32.04 74.37 L 24.91 78.8 L 20.69 81.5 L 24.91 84.16 L 49 99.34 L 50.07 100 L 51.11 99.34 L 75.67 84.13 L 79.97 81.47 L 75.67 78.77 L 68.54 74.28 L 75.67 69.91 L 79.75 67.4 L 77.38 65.81 L 95.76 65.81 L 96.43 64.25 L 97 62.91 C 98.75,58.83 99.74,54.3 99.87,49.67 C 100,45.04 99.28,40.43 97.76,36.21 C 96.23,31.99 93.95,28.27 91.1,25.35 C 88.24,22.43 84.89,20.38 81.3,19.37 C 80.63,19.19 79.99,18.83 79.45,18.32 C 78.9,17.8 78.44,17.14 78.11,16.38 C 76.2,11.46 73.23,7.32 69.55,4.43 C 65.86,1.53 61.6,0 57.26,0 L 57.26 0" fill="#FFFFFF" stroke="none" stroke-width="0.5"/>
  </g>
  <g transform="translate(22.00,51.00) scale(0.4100,0.1300)">
    <path d="M 74.17 14.09 L 81.05 24.62 L 49.56 71.51 L 18.8 24.77 L 25.54 14.39 L 16.16 0.15 L 0 24.77 L 49.51 100 L 100 24.77 L 83.64 0 L 74.17 14.09 L 74.17 14.09" fill="#2d5967" stroke="none" stroke-width="0.5"/>
  </g>
  <g transform="translate(22.00,41.00) scale(0.4100,0.1300)">
    <path d="M 49.51 100 L 100 24.92 L 83.64 0 L 74.17 14.09 L 81.05 24.62 L 49.56 71.51 L 18.8 24.77 L 25.54 14.54 L 16.16 0.3 L 0 24.77 L 49.51 100 L 49.51 100" fill="#2d5967" stroke="none" stroke-width="0.5"/>
  </g>
  <g transform="translate(22.00,25.00) scale(0.4100,0.2000)">
    <path d="M 100 50.29 L 49.95 0 L 0 50.19 L 49.51 100 L 100 50.29 L 100 50.29 M 49.95 18.86 L 81.05 50.1 L 49.56 81.14 L 18.8 50.19 L 49.95 18.86 L 49.95 18.86" fill="#2d5967" stroke="none" stroke-width="0.5"/>
  </g>
  <g transform="translate(22.00,41.00) scale(0.4100,0.1300)">
    <path d="M 74.17 14.09 L 81.05 24.62 L 49.56 71.51 L 18.8 24.77 L 25.54 14.54 L 16.16 0.3 L 0 24.77 L 49.51 100 L 100 24.92 L 83.64 0 L 74.17 14.09 L 74.17 14.09" fill="#2d5967" stroke="none" stroke-width="0.5"/>
  </g>
  <g transform="translate(22.00,51.00) scale(0.4100,0.1300)">
    <path d="M 74.17 14.09 L 81.05 24.62 L 49.56 71.51 L 18.8 24.77 L 25.54 14.39 L 16.16 0.15 L 0 24.77 L 49.51 100 L 100 24.77 L 83.64 0 L 74.17 14.09 L 74.17 14.09" fill="#2d5967" stroke="none" stroke-width="0.5"/>
  </g>
  <g transform="translate(2.00,2.00) scale(0.8100,0.4000)">
    <path d="M 88.79 38.12 C 86.6,35.35 84.19,33.36 81.67,32.22 C 80.61,31.75 79.61,30.81 78.75,29.46 C 77.89,28.11 77.19,26.39 76.71,24.43 C 74.91,17.08 72.12,10.89 68.65,6.58 C 65.19,2.27 61.2,0 57.13,0.03 C 54.13,0.05 51.15,1.3 48.39,3.73 C 45.64,6.15 43.16,9.69 41.11,14.13 C 40.38,15.7 39.47,16.91 38.47,17.65 C 37.46,18.4 36.39,18.66 35.33,18.43 C 32.34,17.89 29.34,18.87 26.59,21.28 C 24,23.58 21.72,27.12 19.95,31.58 C 18.17,36.05 16.97,41.31 16.42,46.92 C 16.21,49.05 15.75,51.05 15.1,52.78 C 14.45,54.51 13.61,55.92 12.65,56.91 C 9.13,60.64 6.15,66.13 3.98,72.83 C 1.81,79.54 0.52,87.26 0.25,95.25 L 0 100 L 20.89 100 L 20.89 91.3 L 4.76 91.3 C 5.32,85.64 6.5,80.3 8.21,75.68 C 9.93,71.06 12.14,67.28 14.69,64.61 C 16.22,63.01 17.55,60.74 18.58,57.96 C 19.61,55.19 20.31,51.97 20.64,48.57 C 21.06,44.32 21.97,40.34 23.32,36.96 C 24.66,33.59 26.39,30.91 28.36,29.17 C 30.43,27.33 32.7,26.58 34.95,26.97 C 36.66,27.34 38.39,26.9 40,25.69 C 41.61,24.49 43.06,22.55 44.23,20.03 C 45.88,16.46 47.88,13.6 50.1,11.65 C 52.32,9.7 54.71,8.69 57.13,8.68 C 60.41,8.63 63.62,10.44 66.4,13.91 C 69.18,17.38 71.42,22.35 72.86,28.27 C 73.64,31.4 74.76,34.13 76.12,36.27 C 77.49,38.42 79.08,39.92 80.78,40.67 C 82.82,41.64 84.76,43.34 86.51,45.67 C 90.2,50.38 92.93,57.62 94.19,66.06 C 95.44,74.5 95.15,83.57 93.35,91.6 L 78.47 91.6 L 78.47 100 L 95.98 100 L 96.58 97.75 C 99.29,87.68 100,75.91 98.55,64.82 C 97.1,53.74 93.61,44.19 88.79,38.12 L 88.79 38.12" fill="#2d5967" stroke="none" stroke-width="0.5"/>
  </g>
</svg>