<svg xmlns="http://www.w3.org/2000/svg" viewBox="0 0 84.0 100" width="84" height="100">
  <g transform="translate(6.00,0.00) scale(0.8200,0.7400)">
    <path d="M 87.27 99.83 C 84.36,99.82 81.55,98.71 79.28,96.7 C 77.02,94.68 75.45,91.88 74.81,88.74 L 25.24 88.74 C 24.68,91.5 23.39,94.02 21.52,95.95 C 19.64,97.88 17.29,99.14 14.77,99.57 C 12.24,100 9.65,99.57 7.35,98.34 C 5.05,97.12 3.13,95.15 1.85,92.69 C 0.58,90.24 0,87.42 0.19,84.59 C 0.4,81.77 1.35,79.08 2.96,76.87 C 4.56,74.67 6.72,73.05 9.18,72.23 C 11.62,71.41 14.24,71.42 16.68,72.28 L 41.47 24.64 C 40.15,23.32 39.11,21.72 38.39,19.93 C 37.67,18.13 37.3,16.19 37.32,14.23 C 37.32,11.89 37.84,9.58 38.86,7.52 C 39.87,5.45 41.33,3.7 43.11,2.43 C 44.88,1.15 46.91,0.38 49.02,0.19 C 51.13,0 53.25,0.4 55.19,1.35 C 57.14,2.29 58.82,3.76 60.13,5.62 C 61.42,7.47 62.27,9.66 62.62,11.97 C 62.95,14.29 62.77,16.66 62.08,18.88 C 61.38,21.09 60.2,23.08 58.63,24.66 L 83.42 72.28 C 84.66,71.84 85.96,71.62 87.27,71.62 C 90.65,71.62 93.88,73.11 96.27,75.75 C 98.66,78.4 100,81.98 100,85.72 C 100,89.46 98.66,93.05 96.27,95.7 C 93.88,98.34 90.65,99.83 87.27,99.83 L 87.27 99.83" fill="#FFFFFF" stroke="none" stroke-width="0.5"/>
  </g>
  <g transform="translate(5.00,0.00) scale(0.8400,0.7600)">
    <path d="M 50.05 2.38 C 52.42,2.38 54.71,3.21 56.63,4.73 C 58.55,6.25 59.99,8.4 60.76,10.87 C 61.52,13.35 61.58,16.03 60.92,18.54 C 60.25,21.05 58.91,23.27 57.05,24.89 L 82.09 73.1 C 83.45,72.49 84.9,72.18 86.37,72.2 C 88.55,72.19 90.68,72.89 92.51,74.2 C 94.34,75.51 95.8,77.37 96.71,79.58 C 97.61,81.78 97.92,84.22 97.6,86.62 C 97.28,89.01 96.35,91.25 94.92,93.07 C 93.49,94.89 91.6,96.21 89.51,96.88 C 87.41,97.55 85.19,97.53 83.1,96.83 C 81.02,96.13 79.15,94.78 77.74,92.94 C 76.33,91.1 75.42,88.84 75.14,86.44 L 24.9 86.44 C 24.61,88.84 23.72,91.1 22.3,92.94 C 20.89,94.78 19.02,96.13 16.94,96.83 C 14.85,97.53 12.63,97.55 10.54,96.88 C 8.43,96.21 6.56,94.89 5.13,93.07 C 3.69,91.25 2.75,89.01 2.44,86.62 C 2.12,84.22 2.43,81.78 3.34,79.58 C 4.24,77.37 5.69,75.51 7.52,74.2 C 9.35,72.89 11.48,72.19 13.66,72.2 C 15.13,72.18 16.59,72.49 17.95,73.1 L 42.99 24.87 C 41.13,23.25 39.77,21.02 39.1,18.5 C 38.44,15.98 38.5,13.3 39.28,10.82 C 40.06,8.34 41.52,6.2 43.45,4.68 C 45.38,3.17 47.68,2.36 50.05,2.38 L 50.05 2.38 M 50.05 0 C 47.41,0 44.82,0.86 42.61,2.48 C 40.41,4.1 38.68,6.4 37.64,9.1 C 36.61,11.81 36.31,14.79 36.78,17.67 C 37.27,20.56 38.5,23.23 40.33,25.34 L 16.94 70.25 C 15.87,69.96 14.77,69.82 13.66,69.82 C 11.16,69.82 8.69,70.59 6.56,72.06 C 4.42,73.52 2.7,75.62 1.58,78.12 C 0.46,80.61 0,83.4 0.24,86.17 C 0.46,88.95 1.4,91.59 2.91,93.82 C 4.42,96.04 6.46,97.74 8.81,98.74 C 11.16,99.74 13.7,100 16.17,99.48 C 18.63,98.96 20.93,97.69 22.77,95.8 C 24.63,93.92 25.96,91.5 26.64,88.82 L 73.36 88.82 C 74.04,91.5 75.37,93.92 77.23,95.8 C 79.07,97.69 81.37,98.96 83.83,99.48 C 86.3,100 88.84,99.74 91.18,98.74 C 93.52,97.74 95.58,96.04 97.09,93.82 C 98.6,91.59 99.53,88.95 99.76,86.17 C 100,83.4 99.53,80.61 98.42,78.12 C 97.3,75.62 95.57,73.52 93.44,72.06 C 91.31,70.59 88.84,69.82 86.32,69.82 C 85.23,69.82 84.14,69.96 83.07,70.25 L 59.77 25.36 C 61.6,23.25 62.83,20.58 63.32,17.69 C 63.79,14.8 63.49,11.82 62.46,9.12 C 61.42,6.42 59.69,4.12 57.49,2.5 C 55.28,0.87 52.7,0.01 50.05,0 L 50.05 0" fill="#FFFFFF" stroke="none" stroke-width="0.5"/>
  </g>
  <g transform="translate(6.00,1.00) scale(0.8100,0.7200)">
    <path d="M 87.94 73.37 C 86.42,73.36 84.9,73.68 83.48,74.32 L 57.34 23.68 C 59.27,21.98 60.7,19.65 61.41,17.01 C 62.11,14.36 62.04,11.54 61.24,8.93 C 60.44,6.32 58.92,4.06 56.92,2.46 C 54.9,0.86 52.5,0 50.03,0 C 47.55,0 45.15,0.86 43.13,2.46 C 41.12,4.06 39.61,6.32 38.8,8.93 C 37.99,11.54 37.94,14.36 38.64,17.01 C 39.35,19.65 40.76,21.98 42.72,23.68 L 16.52 74.32 C 15.1,73.68 13.58,73.36 12.06,73.37 C 9.78,73.37 7.54,74.1 5.63,75.47 C 3.72,76.85 2.2,78.81 1.26,81.12 C 0.33,83.44 0,86 0.33,88.52 C 0.66,91.03 1.64,93.39 3.13,95.3 C 4.63,97.21 6.59,98.6 8.78,99.3 C 10.97,100 13.29,99.98 15.47,99.25 C 17.65,98.51 19.59,97.09 21.07,95.16 C 22.54,93.22 23.49,90.86 23.79,88.34 L 76.21 88.34 C 76.52,90.86 77.46,93.22 78.94,95.16 C 80.41,97.09 82.35,98.51 84.53,99.25 C 86.71,99.98 89.03,100 91.22,99.3 C 93.41,98.6 95.37,97.21 96.87,95.3 C 98.37,93.39 99.34,91.03 99.67,88.52 C 100,86 99.69,83.44 98.74,81.12 C 97.8,78.81 96.28,76.85 94.37,75.47 C 92.46,74.1 90.22,73.37 87.94,73.37 L 87.94 73.37 M 87.94 96.09 C 86.25,96.1 84.6,95.54 83.19,94.5 C 81.79,93.45 80.7,91.97 80.05,90.22 C 79.4,88.48 79.23,86.56 79.55,84.71 C 79.88,82.86 80.7,81.16 81.89,79.83 C 83.09,78.49 84.61,77.59 86.26,77.22 C 87.93,76.85 89.65,77.04 91.21,77.77 C 92.77,78.49 94.09,79.72 95.03,81.29 C 95.97,82.86 96.46,84.7 96.46,86.59 C 96.46,89.11 95.55,91.52 93.96,93.3 C 92.36,95.08 90.21,96.09 87.94,96.09 L 87.94 96.09 M 12.07 96.09 C 10.39,96.09 8.74,95.54 7.34,94.49 C 5.93,93.44 4.84,91.95 4.19,90.21 C 3.54,88.46 3.37,86.55 3.71,84.7 C 4.03,82.85 4.85,81.15 6.05,79.82 C 7.25,78.49 8.77,77.58 10.42,77.22 C 12.08,76.85 13.8,77.04 15.36,77.77 C 16.92,78.49 18.25,79.72 19.19,81.29 C 20.12,82.86 20.62,84.7 20.62,86.59 C 20.6,89.11 19.71,91.53 18.11,93.31 C 16.51,95.09 14.33,96.09 12.07,96.09 L 12.07 96.09 M 41.56 13.25 C 41.56,11.37 42.05,9.53 42.99,7.96 C 43.94,6.39 45.27,5.17 46.83,4.45 C 48.39,3.73 50.1,3.54 51.77,3.91 C 53.42,4.28 54.94,5.19 56.14,6.53 C 57.32,7.86 58.14,9.56 58.47,11.41 C 58.79,13.26 58.62,15.18 57.97,16.92 C 57.32,18.66 56.22,20.15 54.81,21.19 C 53.41,22.23 51.76,22.79 50.07,22.78 C 47.8,22.78 45.64,21.77 44.04,19.98 C 42.46,18.2 41.56,15.78 41.56,13.25 L 41.56 13.25 M 78.6 78.46 L 61.08 67.23 C 61.75,65.37 62.01,63.37 61.88,61.38 C 61.75,59.39 61.2,57.45 60.3,55.72 C 59.4,53.99 58.17,52.51 56.69,51.39 C 55.2,50.27 53.51,49.54 51.74,49.25 L 51.74 26.35 C 52.69,26.21 53.62,25.93 54.49,25.53 L 80.68 76.16 C 79.9,76.83 79.21,77.6 78.6,78.46 L 78.6 78.46 M 50.07 71.85 C 48.37,71.85 46.72,71.29 45.32,70.24 C 43.91,69.19 42.82,67.7 42.17,65.95 C 41.53,64.2 41.36,62.28 41.7,60.43 C 42.04,58.58 42.86,56.89 44.06,55.56 C 45.25,54.23 46.79,53.32 48.44,52.97 C 50.1,52.61 51.82,52.81 53.38,53.54 C 54.94,54.27 56.27,55.5 57.19,57.08 C 58.13,58.66 58.62,60.51 58.61,62.39 C 58.58,64.91 57.67,67.31 56.09,69.08 C 54.49,70.86 52.32,71.85 50.07,71.85 L 50.07 71.85 M 48.41 26.35 L 48.41 49.25 C 45.58,49.7 42.99,51.28 41.12,53.7 C 39.24,56.11 38.22,59.2 38.23,62.39 C 38.2,64.1 38.5,65.8 39.07,67.38 L 21.44 78.63 C 20.84,77.78 20.16,77.01 19.41,76.34 L 45.64 25.53 C 46.53,25.93 47.46,26.21 48.41,26.35 L 48.41 26.35 M 23.09 81.7 L 40.73 70.45 C 41.83,72.04 43.25,73.33 44.86,74.21 C 46.49,75.1 48.27,75.56 50.07,75.56 C 51.87,75.56 53.66,75.1 55.27,74.21 C 56.89,73.33 58.3,72.04 59.4,70.45 L 76.93 81.68 C 76.59,82.7 76.34,83.76 76.21,84.84 L 23.8 84.84 C 23.69,83.77 23.44,82.71 23.09,81.7 L 23.09 81.7" fill="#2d5967" stroke="none" stroke-width="0.5"/>
  </g>
</svg>