<svg xmlns="http://www.w3.org/2000/svg" viewBox="0 0 86.0 97.00000000000014" width="86" height="97">
  <g transform="translate(1.00,1.00) scale(0.8500,0.7000)">
    <path d="M 9.71 51.86 C 0,40.11 0,20.92 9.71,8.88 C 14.45,3.15 20.85,0 27.49,0 C 34.12,0 40.51,3.15 45.26,8.88 L 49.76 14.33 L 54.26 8.88 C 59,3.15 65.41,0 72.03,0 C 78.67,0 85.07,3.15 89.8,8.88 C 94.55,14.61 97.16,22.35 97.16,30.37 C 97.16,36.39 96.21,40.97 93.83,45.27 L 92.18 47.56 L 93.13 48.42 C 94.31,49.57 95.25,50.72 96.21,52.15 L 96.68 53.01 C 96.68,53.3 96.92,53.3 96.92,53.58 L 97.39 54.44 C 97.86,55.59 98.34,56.45 98.81,57.59 C 98.81,57.88 99.05,58.17 99.05,58.45 C 99.77,60.75 100,63.04 100,65.33 C 100,67.62 99.77,69.91 99.05,72.21 C 99.05,72.49 98.81,72.78 98.81,73.07 C 98.34,74.21 98.1,75.36 97.39,76.22 L 96.92 77.08 C 96.92,77.08 96.68,77.36 96.68,77.65 L 96.21 78.51 C 95.25,79.94 94.31,81.09 93.13,82.24 L 92.41 82.81 C 92.18,82.81 92.18,83.09 91.94,83.09 L 91.22 83.67 C 90.29,84.24 89.57,84.81 88.63,85.39 C 88.38,85.39 88.15,85.67 87.91,85.67 C 86.02,86.53 84.12,86.82 82.23,86.82 C 80.32,86.82 78.43,86.53 76.54,85.67 C 76.06,85.39 75.82,85.39 75.82,85.39 C 74.87,84.81 73.93,84.53 73.22,83.67 L 72.51 83.09 C 72.28,83.09 72.28,82.81 72.03,82.81 C 71.8,82.52 71.56,82.52 71.33,82.24 C 70.14,81.09 69.19,79.94 68.25,78.51 L 68 78.22 L 67.53 78.22 L 66.83 79.08 L 49.52 100 L 9.71 51.86 L 9.71 51.86" fill="#FFFFFF" stroke="none" stroke-width="0.5"/>
  </g>
  <g transform="translate(0.00,0.00) scale(0.8600,0.7300)">
    <path d="M 71.96 2.77 C 78.27,2.77 84.11,5.54 88.56,11.08 C 93.22,16.62 95.33,23.55 95.33,30.75 C 95.33,35.73 94.63,40.17 92.29,44.6 L 89.96 47.92 C 89.96,47.92 90.19,47.92 90.19,48.2 C 90.42,48.48 90.65,48.48 90.88,48.75 L 91.12 49.03 C 91.36,49.31 91.59,49.31 91.82,49.58 C 92.76,50.42 93.69,51.52 94.63,52.91 C 94.86,53.19 94.86,53.46 95.09,53.74 L 95.33 54.02 C 95.56,54.29 95.56,54.57 95.8,54.85 C 96.26,55.68 96.73,56.79 96.97,57.9 C 96.97,58.17 97.2,58.45 97.2,58.73 C 97.66,60.66 98.14,62.6 98.14,64.82 C 98.14,67.04 97.89,68.97 97.2,70.91 C 97.2,71.19 96.97,71.47 96.97,71.74 C 96.73,72.85 96.26,73.68 95.8,74.79 C 95.56,75.07 95.56,75.35 95.33,75.62 L 95.09 75.9 C 94.86,76.18 94.86,76.45 94.63,76.73 C 93.92,77.84 92.99,78.95 91.82,80.05 C 91.59,80.33 91.36,80.33 91.12,80.61 L 90.88 80.89 C 90.65,81.16 90.42,81.16 90.19,81.44 C 89.48,81.99 88.56,82.55 87.62,82.83 C 87.39,82.83 87.14,83.1 86.91,83.1 C 85.28,83.66 83.65,84.21 81.77,84.21 C 79.9,84.21 78.27,83.93 76.64,83.1 C 76.41,83.1 76.16,82.83 75.93,82.83 C 74.99,82.55 74.3,81.99 73.36,81.44 C 73.13,81.16 72.9,81.16 72.67,80.89 L 72.43 80.61 C 72.19,80.33 71.96,80.33 71.73,80.05 C 70.79,79.22 69.86,78.12 68.93,76.73 C 68.69,76.45 68.69,76.18 68.46,75.9 L 68.22 75.62 C 68.22,75.35 67.99,75.35 67.99,75.07 L 66.12 77.56 L 50 96.68 L 11.44 50.42 C 2.34,39.61 2.34,21.88 11.44,11.08 C 16.12,5.54 21.96,2.77 28.27,2.77 C 34.58,2.77 40.42,5.54 44.86,11.08 L 50 17.17 L 55.37 11.08 C 59.81,5.54 65.66,2.77 71.96,2.77 L 71.96 2.77 M 71.96 0 C 64.95,0 58.64,3.32 53.74,8.86 L 50.23 13.02 L 46.73 8.86 C 41.59,3.32 35.05,0 28.27,0 C 21.26,0 14.95,3.32 10.04,8.86 C 0,20.78 0,40.44 10.04,52.35 L 48.6 98.06 L 50.23 100 L 51.86 98.06 L 67.99 78.95 C 68.69,80.05 69.62,80.89 70.56,81.72 L 71.26 82.27 C 71.5,82.27 71.5,82.55 71.73,82.55 C 71.96,82.55 71.96,82.83 72.19,82.83 C 73.13,83.38 74.07,83.93 74.99,84.49 C 75.24,84.49 75.47,84.76 75.93,84.76 C 77.81,85.6 79.9,85.87 81.77,85.87 C 83.88,85.87 85.74,85.6 87.62,84.76 C 87.85,84.76 88.31,84.49 88.56,84.49 C 89.48,83.93 90.42,83.38 91.36,82.83 C 91.59,82.55 91.82,82.55 92.05,82.27 C 92.05,82.27 92.29,81.99 92.52,81.99 L 93.22 81.44 C 94.39,80.33 95.33,79.22 96.26,77.84 L 96.73 77.01 C 96.73,76.73 96.97,76.73 96.97,76.45 C 97.2,76.18 97.2,75.9 97.43,75.62 C 97.89,74.52 98.37,73.41 98.83,72.3 C 98.83,72.02 99.06,71.74 99.06,71.19 C 99.77,68.97 100,66.48 100,64.27 C 100,61.77 99.77,59.56 99.06,57.34 C 99.06,57.06 98.83,56.51 98.83,56.23 C 98.37,55.12 97.89,54.02 97.43,52.91 C 97.2,52.63 97.2,52.35 96.97,52.08 C 96.97,52.08 96.73,51.8 96.73,51.52 L 96.26 50.69 C 95.33,49.31 94.39,48.2 93.22,47.09 L 93.92 46.26 L 94.16 45.98 L 94.16 45.71 C 96.49,41 97.66,36.57 97.66,30.47 C 97.66,22.16 94.86,14.68 90.19,8.86 C 85.51,3.32 78.97,0 71.96,0 L 71.96 0" fill="#FFFFFF" stroke="none" stroke-width="0.5"/>
  </g>
  <g transform="translate(2.00,2.00) scale(0.8100,0.6800)">
    <path d="M 51 93.47 L 12.74 47.77 C 4.5,37.98 4.5,21.96 12.74,12.17 C 16.74,7.42 22,4.75 27.75,4.75 C 33.5,4.75 38.74,7.42 42.74,12.17 L 51.25 22.26 L 59.75 12.17 C 63.75,7.42 68.99,4.75 74.74,4.75 C 80.49,4.75 85.75,7.42 89.75,12.17 C 97,20.77 97.99,33.83 92.75,43.62 C 94,44.21 95.25,44.81 96.24,45.7 C 98.75,40.95 100,35.61 100,29.97 C 100,22.26 97.5,14.54 92.75,8.9 C 87.5,2.97 81.25,0 74.49,0 C 67.75,0 61.49,2.97 56.75,8.9 L 51.25 15.43 L 45.49 8.9 C 40.75,3.26 34.49,0 27.75,0 C 20.99,0 14.75,2.97 9.74,8.9 C 0,20.47 0,39.47 9.74,51.04 L 51 100 L 68.25 79.52 C 67.49,78.04 66.75,76.85 66.24,75.07 L 51 93.47 L 51 93.47" fill="#2d5967" stroke="none" stroke-width="0.5"/>
  </g>
  <g transform="translate(16.00,21.00) scale(0.4400,0.2700)">
    <path d="M 75.12 0 L 61.75 78.1 L 52.07 23.36 L 44.23 23.36 L 38.25 51.09 L 0 51.09 L 7.36 62.77 L 42.86 62.77 L 47 43.07 L 57.14 100 L 64.52 100 L 78.8 22.63 L 85.26 62.04 L 94.01 62.04 C 95.87,57.66 97.69,54.01 100,50.37 L 90.79 50.37 L 82.5 0 L 75.12 0 L 75.12 0" fill="#2d5967" stroke="none" stroke-width="0.5"/>
  </g>
  <g transform="translate(56.00,32.00) scale(0.2800,0.2800)">
    <path d="M 97.13 34.29 C 97.13,33.57 96.42,32.86 96.42,32.14 C 95.72,29.29 94.26,27.14 92.85,24.29 C 92.14,23.57 92.14,22.86 91.4,22.14 L 90.69 21.43 C 89.98,20.71 89.98,20 89.27,19.29 C 87.11,16.43 84.28,13.57 80.71,10.71 C 80,10 79.29,10 78.55,9.29 L 77.84 8.57 C 77.13,7.86 76.42,7.86 75.72,7.14 C 73.56,5.71 70.69,4.29 67.86,3.57 C 67.15,3.57 66.41,2.86 65.7,2.86 C 60.71,1.43 55.72,0 49.98,0 C 44.28,0 39.29,0.71 34.3,2.86 C 33.56,2.86 32.85,3.57 32.14,3.57 C 29.27,4.29 27.15,5.71 24.28,7.14 C 23.58,7.86 22.87,7.86 22.16,8.57 L 21.45 9.29 C 20.71,10 20,10 19.29,10.71 C 16.42,12.86 13.59,15.71 10.73,19.29 C 10.02,20 10.02,20.71 9.31,21.43 L 8.57 22.14 C 7.86,22.86 7.86,23.57 7.15,24.29 C 5.74,26.43 4.28,29.29 3.58,32.14 C 3.58,32.86 2.87,33.57 2.87,34.29 C 1.45,39.29 0,44.29 0,50 C 0,55.72 0.74,60.72 2.87,65.71 C 2.87,66.43 3.58,67.14 3.58,67.86 C 4.28,70.71 5.74,72.86 7.15,75.71 C 7.86,76.43 7.86,77.14 8.57,77.86 L 9.31 78.57 C 10.02,79.29 10.02,80 10.73,80.71 C 12.85,83.57 15.72,86.43 19.29,89.29 C 20,90 20.71,90 21.45,90.71 L 22.16 91.43 C 22.87,92.14 23.58,92.14 24.28,92.86 C 26.44,94.29 29.27,95.72 32.14,96.43 C 32.85,96.43 33.56,97.14 34.3,97.14 C 39.29,98.57 44.28,100 49.98,100 C 55.72,100 60.71,99.28 65.7,97.14 C 66.41,97.14 67.15,96.43 67.86,96.43 C 70.69,95.72 72.85,94.29 75.72,92.86 C 76.42,92.14 77.13,92.14 77.84,91.43 L 78.55 90.71 C 79.29,90 80,90 80.71,89.29 C 83.58,87.14 86.41,84.29 89.27,80.71 C 89.98,80 89.98,79.29 90.69,78.57 L 91.4 77.86 C 92.14,77.14 92.14,76.43 92.85,75.71 C 94.26,73.57 95.72,70.71 96.42,67.86 C 96.42,67.14 97.13,66.43 97.13,65.71 C 98.55,60.72 100,55.72 100,50 C 100,44.29 99.26,39.29 97.13,34.29 L 97.13 34.29 M 50.73 88.57 C 30.02,88.57 12.85,71.43 12.85,50.71 C 12.85,30 30.02,12.86 50.73,12.86 C 71.43,12.86 88.57,30 88.57,50.71 C 88.57,71.43 71.43,88.57 50.73,88.57 L 50.73 88.57" fill="#2d5967" stroke="none" stroke-width="0.5"/>
  </g>
  <g transform="translate(64.00,42.00) scale(0.1300,0.1000)">
    <path d="M 34.86 59.26 L 16.68 35.19 L 0 55.56 L 34.86 100 L 100 20.37 L 83.32 0 L 34.86 59.26 L 34.86 59.26" fill="#2d5967" stroke="none" stroke-width="0.5"/>
  </g>
</svg>