<svg xmlns="http://www.w3.org/2000/svg" viewBox="0 0 84.0 110.99999999999991" width="84" height="110">
  <g transform="translate(7.00,0.00) scale(0.8200,0.7400)">
    <path d="M 16.97 100 L 16.97 95.46 L 21.12 93.15 L 20.71 57.41 L 0 57.41 L 0.27 53.41 C 0.55,48.83 1.88,44.41 4.15,40.57 C 6.4,36.73 9.49,33.6 13.14,31.48 C 13.92,31.03 14.6,30.4 15.14,29.62 C 15.66,28.85 16.03,27.95 16.21,26.99 C 17.03,22.29 19.28,18.06 22.59,15.02 C 25.9,11.98 30.05,10.32 34.34,10.33 C 34.9,10.33 35.48,10.33 36.04,10.33 L 36.63 10.33 C 37.38,10.34 38.15,10.18 38.86,9.84 C 39.56,9.51 40.19,9.02 40.71,8.4 C 43.21,5.4 46.32,3.12 49.77,1.76 C 53.22,0.4 56.92,0 60.56,0.59 C 64.18,1.18 67.62,2.75 70.59,5.15 C 73.54,7.56 75.95,10.74 77.56,14.41 L 77.71 14.65 C 78.15,15.72 78.72,16.71 79.44,17.59 C 85.16,18.44 90.39,21.6 94.17,26.47 C 97.95,31.34 100,37.58 99.95,44.02 C 99.9,50.46 97.74,56.66 93.87,61.44 C 90.02,66.23 84.72,69.28 78.99,70.02 L 78.99 93.12 L 83.19 95.46 L 83.19 100 L 16.97 100 L 16.97 100" fill="#FFFFFF" stroke="none" stroke-width="0.5"/>
  </g>
  <g transform="translate(6.00,0.00) scale(0.8400,0.7500)">
    <path d="M 57.28 2.69 C 61.18,2.66 65.02,3.86 68.34,6.15 C 71.67,8.44 74.34,11.72 76.08,15.63 C 76.07,15.69 76.07,15.75 76.08,15.81 C 76.63,17.14 77.37,18.37 78.27,19.42 C 83.7,20.12 88.71,23.06 92.31,27.67 C 95.9,32.28 97.83,38.23 97.69,44.34 C 97.56,50.45 95.39,56.28 91.6,60.7 C 87.81,65.11 82.69,67.78 77.23,68.18 L 77.23 92.78 L 81.31 95.06 L 81.31 97.34 L 19.02 97.34 L 19.02 95.06 L 23.08 92.8 L 22.68 55.81 L 2.56 55.81 L 2.74 53.36 C 3,49.12 4.22,45.03 6.31,41.46 C 8.39,37.9 11.25,35 14.62,33.02 C 15.54,32.49 16.34,31.74 16.96,30.82 C 17.57,29.9 18.01,28.84 18.21,27.71 C 18.97,23.41 21.05,19.54 24.08,16.77 C 27.12,13.99 30.93,12.49 34.86,12.52 L 36.42 12.52 L 37.11 12.52 C 38.01,12.51 38.88,12.3 39.71,11.9 C 40.52,11.51 41.26,10.93 41.87,10.21 C 43.83,7.84 46.22,5.95 48.87,4.65 C 51.52,3.36 54.38,2.69 57.28,2.69 L 57.28 2.69 M 57.28 0.04 C 54.07,0.04 50.89,0.78 47.96,2.21 C 45.02,3.65 42.38,5.75 40.21,8.38 C 39.81,8.85 39.32,9.22 38.78,9.47 C 38.25,9.72 37.67,9.85 37.1,9.84 L 36.62 9.84 C 36.02,9.8 35.42,9.8 34.83,9.84 C 32.17,9.85 29.53,10.46 27.08,11.64 C 24.25,13.04 21.75,15.18 19.81,17.89 C 17.87,20.59 16.55,23.78 15.95,27.18 C 15.81,27.92 15.54,28.63 15.12,29.23 C 14.71,29.84 14.19,30.33 13.57,30.68 C 9.84,32.86 6.66,36.07 4.35,40 C 2.04,43.93 0.66,48.46 0.36,53.15 L 0.19 55.6 L 0 58.46 L 20.35 58.46 L 20.71 91.24 L 17.97 92.78 L 16.65 93.41 L 16.65 100 L 83.69 100 L 83.69 93.41 L 82.38 92.7 L 79.6 91.13 L 79.6 70.55 C 85.3,69.5 90.49,66.22 94.23,61.29 C 97.96,56.37 100,50.11 99.99,43.66 C 99.98,37.2 97.9,30.96 94.14,26.06 C 90.38,21.15 85.16,17.91 79.45,16.9 C 78.99,16.25 78.59,15.53 78.27,14.78 L 78.27 14.62 C 76.37,10.22 73.38,6.51 69.67,3.93 C 65.94,1.35 61.65,0 57.28,0.04 L 57.28 0.04" fill="#FFFFFF" stroke="none" stroke-width="0.5"/>
  </g>
  <g transform="translate(8.00,1.00) scale(0.6200,0.4000)">
    <path d="M 100 25.2 C 99.98,25.09 99.98,24.97 100,24.86 C 97.96,18.5 94.93,13.01 91.18,8.86 C 87.44,4.7 83.1,2 78.53,1 C 73.95,0 69.3,0.72 64.94,3.1 C 60.59,5.49 56.68,9.46 53.57,14.68 C 52.6,16.24 51.43,17.43 50.12,18.17 C 48.81,18.92 47.42,19.18 46.02,18.95 C 40.36,18.13 34.72,20.57 30.16,25.79 C 25.6,31.01 22.48,38.64 21.39,47.21 C 21.1,49.32 20.52,51.3 19.67,53.02 C 18.82,54.74 17.75,56.15 16.49,57.14 C 11.92,60.83 8.02,66.27 5.19,72.93 C 2.36,79.59 0.68,87.25 0.32,95.18 L 0 100 L 23.12 100 L 23.12 91.31 L 6.22 91.31 C 6.94,85.68 8.47,80.37 10.71,75.78 C 12.95,71.19 15.83,67.43 19.14,64.79 C 21.13,63.18 22.85,60.92 24.18,58.16 C 25.52,55.4 26.42,52.22 26.84,48.85 C 27.39,44.63 28.58,40.69 30.33,37.33 C 32.08,33.98 34.33,31.32 36.88,29.57 C 39.58,27.74 42.54,27 45.48,27.44 C 47.7,27.8 49.97,27.36 52.07,26.17 C 54.18,24.97 56.09,23.04 57.63,20.54 C 60.05,16.57 63.01,13.51 66.3,11.59 C 69.6,9.67 73.16,8.95 76.66,9.48 C 80.18,10.01 83.56,11.77 86.55,14.64 C 89.54,17.5 92.06,21.39 93.93,26 C 95.77,25.54 97.62,25.31 99.49,25.3 L 100 25.2 L 100 25.2" fill="#2d5967" stroke="none" stroke-width="0.5"/>
  </g>
  <g transform="translate(22.00,70.00) scale(0.5200,0.0300)">
    <path d="M 93.44 0 L 6.56 0 L 0 50 L 0 100 L 6.56 100 L 93.44 100 L 100 100 L 100 50 L 93.44 0 L 93.44 0" fill="#2d5967" stroke="none" stroke-width="0.5"/>
  </g>
  <g transform="translate(25.00,35.00) scale(0.0900,0.3200)">
    <path d="M 100 100 L 100 0 L 0 0 L 4.88 100 L 100 100 L 100 100 M 65.5 10.68 L 65.5 89.38 L 38.96 89.38 L 35.35 10.68 L 65.5 10.68 L 65.5 10.68" fill="#2d5967" stroke="none" stroke-width="0.5"/>
  </g>
  <g transform="translate(37.00,28.00) scale(0.0900,0.3900)">
    <path d="M 0 0 L 0 100 L 100 100 L 100 0 L 0 0 L 0 0 M 63.59 91.24 L 36.41 91.24 L 36.41 8.76 L 63.81 8.76 L 63.59 91.24 L 63.59 91.24" fill="#2d5967" stroke="none" stroke-width="0.5"/>
  </g>
  <g transform="translate(49.00,39.00) scale(0.0900,0.2800)">
    <path d="M 63.67 87.96 L 36.44 87.96 L 36.44 23.87 C 20.11,16.7 7.78,8.62 0,0 L 0 100 L 100 100 L 100 42.75 C 87,40.18 74.89,37.18 63.67,33.81 L 63.67 87.96 L 63.67 87.96" fill="#2d5967" stroke="none" stroke-width="0.5"/>
  </g>
  <g transform="translate(61.00,52.00) scale(0.0900,0.1500)">
    <path d="M 63.56 10.3 L 63.56 77.14 L 36.33 77.14 L 36.33 7.49 C 23.89,5.66 11.78,3.15 0,0 L 0 100 L 100 100 L 100 11.36 L 86.22 11.36 C 78.67,11.28 71.11,10.92 63.56,10.3 L 63.56 10.3" fill="#2d5967" stroke="none" stroke-width="0.5"/>
  </g>
  <g transform="translate(51.00,14.00) scale(0.3700,0.3700)">
    <path d="M 49.52 100 C 59.31,100 68.89,97.1 77.02,91.66 C 85.17,86.21 91.51,78.48 95.26,69.43 C 99.01,60.38 100,50.42 98.08,40.82 C 96.16,31.21 91.46,22.39 84.52,15.46 C 77.61,8.54 68.78,3.82 59.17,1.91 C 49.58,0 39.62,0.98 30.57,4.73 C 21.52,8.48 13.79,14.82 8.35,22.97 C 2.9,31.11 0,40.69 0,50.48 C 0.03,63.61 5.25,76.2 14.52,85.48 C 23.8,94.76 36.38,99.99 49.52,100 L 49.52 100 M 49.52 10.13 C 55.78,10.17 61.96,11.67 67.54,14.51 C 73.12,17.35 77.98,21.45 81.7,26.5 L 74.84 30.41 C 72.56,28.18 69.63,26.75 66.47,26.32 C 63.31,25.9 60.1,26.5 57.3,28.05 L 48.65 33.1 L 51.55 38.03 L 44.16 42.32 L 47.38 47.69 L 54.77 43.34 L 57.61 48.28 L 50.23 52.57 L 53.1 57.51 L 60.52 53.22 L 63.73 58.58 L 72.36 53.54 C 74.9,51.93 76.88,49.6 78.06,46.86 C 79.27,44.12 79.61,41.08 79.08,38.14 L 86.32 34.01 C 90.5,43.16 91.09,53.54 87.99,63.11 C 84.88,72.68 78.31,80.74 69.57,85.71 C 60.83,90.69 50.56,92.21 40.75,89.99 C 30.94,87.77 22.34,81.96 16.58,73.71 L 25.27 68.34 C 27.5,70.61 30.4,72.06 33.56,72.47 C 36.69,72.86 39.88,72.19 42.58,70.55 L 52.48 64.8 L 49.24 59.44 L 41.26 64.11 L 38.35 59.17 L 46.42 54.56 L 43.51 49.62 L 35.5 54.29 L 32.29 48.92 L 40.3 44.26 L 37.39 39.37 L 27.83 45.33 C 25.3,46.94 23.29,49.3 22.11,52.08 C 20.95,54.86 20.64,57.93 21.24,60.89 L 12.41 66.25 C 9.79,60.12 8.74,53.43 9.36,46.8 C 9.95,40.16 12.21,33.78 15.88,28.22 C 19.54,22.66 24.56,18.1 30.43,14.94 C 36.29,11.79 42.87,10.14 49.52,10.13 L 49.52 10.13" fill="#2d5967" stroke="none" stroke-width="0.5"/>
  </g>
</svg>