<svg xmlns="http://www.w3.org/2000/svg" viewBox="0 0 85.0 151.00000000000009" width="85" height="151">
  <g transform="translate(17.00,0.00) scale(0.8200,0.7900)">
    <path d="M 57.76 93.29 L 49.5 93.29 C 43.52,93.29 23.98,92.64 23.98,84.26 L 23.81 53.46 L 0 53.46 L 0.26 49.81 C 0.56,45.54 1.89,41.42 4.16,37.84 C 6.41,34.26 9.51,31.34 13.17,29.36 C 13.95,28.94 14.64,28.34 15.18,27.6 C 15.71,26.87 16.08,26.01 16.24,25.11 C 17.08,20.73 19.33,16.79 22.64,13.96 C 25.95,11.13 30.09,9.58 34.38,9.58 C 34.93,9.58 35.52,9.58 36.09,9.58 L 36.69 9.58 C 37.44,9.59 38.2,9.44 38.89,9.14 C 39.59,8.84 40.22,8.4 40.75,7.83 C 43.24,5.04 46.34,2.92 49.8,1.65 C 53.25,0.38 56.95,0 60.57,0.54 C 64.2,1.08 67.64,2.53 70.61,4.76 C 73.58,6.99 75.99,9.94 77.61,13.35 C 78.02,14.2 78.62,14.94 79.35,15.52 C 80.07,16.09 80.91,16.49 81.81,16.68 C 85.3,17.51 88.56,19.17 91.32,21.52 C 94.09,23.87 96.3,26.85 97.8,30.23 C 99.28,33.62 100,37.31 99.9,41.03 C 99.81,44.75 98.89,48.39 97.22,51.68 L 96.29 53.46 L 74.86 53.46 L 74.86 61.98 L 91.64 68.42 L 91.64 93.22 L 74 100 L 57.76 93.29 L 57.76 93.29" fill="#FFFFFF" stroke="none" stroke-width="0.5"/>
  </g>
  <g transform="translate(16.00,0.00) scale(0.8500,0.8100)">
    <path d="M 56.86 2.39 C 60.73,2.38 64.53,3.51 67.83,5.65 C 71.12,7.79 73.77,10.86 75.5,14.51 C 75.97,15.49 76.64,16.35 77.47,17.02 C 78.29,17.69 79.24,18.15 80.26,18.39 C 82.67,18.95 84.96,19.94 87.05,21.31 C 91.61,24.35 94.91,29.09 96.29,34.58 C 97.66,40.07 97,45.9 94.44,50.9 L 93.88 52.02 L 72.64 52.02 L 72.64 62.62 L 72.97 62.5 L 88.91 68.68 L 88.91 91.28 L 72.97 97.46 L 57.42 90.99 L 49.19 90.99 C 46.77,90.99 25.58,90.78 25.58,83.34 L 25.42 52.02 L 2.44 52.02 L 2.61 49.64 C 2.88,45.67 4.11,41.83 6.19,38.5 C 8.28,35.17 11.13,32.46 14.49,30.63 C 15.41,30.14 16.22,29.44 16.84,28.59 C 17.46,27.73 17.89,26.74 18.09,25.68 C 18.62,22.9 19.78,20.29 21.46,18.07 C 23.15,15.85 25.32,14.09 27.79,12.94 C 29.94,11.97 32.25,11.47 34.58,11.47 L 36.14 11.47 L 36.82 11.47 C 37.73,11.48 38.62,11.29 39.47,10.92 C 40.3,10.54 41.04,9.98 41.66,9.28 C 43.61,7.1 45.97,5.37 48.57,4.18 C 51.19,3 54.01,2.39 56.86,2.39 L 56.86 2.39 M 56.86 0.01 C 53.68,0.02 50.55,0.71 47.63,2.05 C 44.73,3.38 42.11,5.32 39.94,7.76 C 39.54,8.22 39.04,8.58 38.5,8.83 C 37.95,9.07 37.37,9.2 36.77,9.19 L 36.3 9.19 C 35.71,9.19 35.12,9.19 34.54,9.19 C 30.14,9.17 25.86,10.77 22.46,13.69 C 19.04,16.62 16.7,20.69 15.83,25.23 C 15.69,25.94 15.41,26.6 15,27.17 C 14.58,27.74 14.04,28.21 13.44,28.53 C 9.73,30.57 6.58,33.57 4.28,37.25 C 2,40.93 0.63,45.16 0.33,49.54 L 0.19 51.92 L 0 54.39 L 23.16 54.39 L 23.31 83.36 C 23.31,92.39 41.41,93.37 49.19,93.37 L 56.97 93.37 L 72.12 99.67 L 72.92 100 L 73.73 99.69 L 89.57 93.51 L 91.05 92.94 L 91.05 67.01 L 89.68 66.56 L 74.9 60.83 L 74.9 54.39 L 95.26 54.39 L 95.89 53.16 L 96.46 52.02 C 99.28,46.48 100,40.02 98.46,33.95 C 96.94,27.88 93.26,22.65 88.2,19.31 C 85.92,17.78 83.39,16.69 80.74,16.08 C 80.05,15.92 79.4,15.6 78.83,15.15 C 78.28,14.69 77.83,14.11 77.51,13.44 C 75.61,9.4 72.66,6 69.01,3.62 C 65.36,1.25 61.15,0 56.86,0.01 L 56.86 0.01" fill="#FFFFFF" stroke="none" stroke-width="0.5"/>
  </g>
  <g transform="translate(18.00,1.00) scale(0.8100,0.4000)">
    <path d="M 88.96 38.56 C 86.76,35.83 84.35,33.86 81.83,32.73 C 80.75,32.24 79.74,31.28 78.88,29.9 C 78.01,28.53 77.31,26.79 76.83,24.81 C 75.25,18.48 72.93,13 70.06,8.86 C 67.18,4.71 63.84,2.02 60.33,1.01 C 56.82,0 53.24,0.71 49.89,3.07 C 46.55,5.43 43.55,9.38 41.13,14.57 C 40.41,16.1 39.54,17.28 38.56,18.03 C 37.57,18.78 36.52,19.07 35.48,18.89 C 31.09,18.03 26.71,20.47 23.18,25.73 C 19.66,31 17.26,38.71 16.43,47.33 C 16.24,49.46 15.79,51.47 15.14,53.2 C 14.49,54.93 13.64,56.35 12.67,57.33 C 9.14,61 6.13,66.41 3.94,73.05 C 1.75,79.69 0.44,87.33 0.16,95.26 L 0 100 L 20.94 100 L 20.94 91.14 L 4.71 91.14 C 5.25,85.51 6.42,80.21 8.15,75.62 C 9.86,71.03 12.07,67.27 14.63,64.63 C 16.16,63.05 17.49,60.8 18.54,58.05 C 19.58,55.31 20.28,52.13 20.62,48.75 C 21.03,44.54 21.96,40.59 23.29,37.24 C 24.63,33.89 26.37,31.24 28.34,29.51 C 30.41,27.67 32.69,26.93 34.96,27.37 C 36.67,27.72 38.4,27.27 40.02,26.06 C 41.64,24.85 43.1,22.92 44.28,20.4 C 46.22,16.23 48.64,13.06 51.32,11.16 C 54.01,9.26 56.9,8.69 59.72,9.5 C 62.54,10.3 65.23,12.46 67.54,15.79 C 69.85,19.12 71.73,23.52 72.99,28.61 C 73.78,31.7 74.9,34.4 76.27,36.52 C 77.64,38.65 79.22,40.14 80.92,40.88 C 83.57,42.04 86.03,44.36 88.17,47.67 C 90.3,50.98 92.04,55.19 93.25,60.01 C 94.47,64.82 95.12,70.12 95.17,75.5 C 95.22,80.89 94.67,86.23 93.55,91.14 L 77.01 91.14 L 77.01 99.62 L 96.06 99.62 L 96.65 97.39 C 99.32,87.46 100,75.89 98.58,64.98 C 97.15,54.08 93.72,44.65 88.96,38.56 L 88.96 38.56" fill="#2d5967" stroke="none" stroke-width="0.5"/>
  </g>
  <g transform="translate(37.00,28.00) scale(0.4000,0.4500)">
    <path d="M 61.06 92.07 C 57.65,92.28 53.97,92.36 50.08,92.36 C 26.14,92.36 10.9,88.33 8.7,85.96 L 8.7 70.89 C 22.07,75.94 46.3,76.11 50,76.11 C 51.39,76.11 55.75,76.11 61.3,75.82 L 61.3 68.18 C 57.8,68.18 54.02,68.52 50,68.52 C 26.04,68.52 10.83,64.49 8.57,62.11 L 8.57 46.33 C 21.89,51.42 46.3,51.59 50,51.59 C 61.88,51.64 73.75,50.49 85.34,48.15 L 96.85 44.29 L 100 43.23 L 100 13.53 C 100,0.38 55.12,0 50,0 C 44.88,0 0,0.38 0,13.53 L 0 62.96 L 0.32 86.34 C 0.32,99.62 45.22,100 50.34,100 C 51.71,100 55.89,100 61.3,99.66 L 61.3 92.07 L 61.06 92.07 L 61.06 92.07 M 8.38 37.59 L 8.38 21.76 C 21.68,26.86 46.11,27.03 49.82,27.03 C 53.49,27.03 77.93,27.03 91.2,21.76 L 91.2 37.59 C 88.94,39.97 73.8,44 49.82,44 C 25.8,44 10.77,39.97 8.38,37.59 L 8.38 37.59 M 90.7 13.49 C 87.39,15.78 73.46,19.43 49.82,19.43 C 26.14,19.43 12.22,15.78 8.85,13.49 C 12.22,11.2 26.14,7.55 49.82,7.55 C 73.46,7.55 87.55,11.2 90.86,13.49 L 90.7 13.49 L 90.7 13.49" fill="#2d5967" stroke="none" stroke-width="0.5"/>
  </g>
  <g transform="translate(64.00,50.00) scale(0.2600,0.2800)">
    <path d="M 0 17.67 L 0 82.26 L 49.37 100 L 100 82.33 L 100 17.67 L 49.37 0 L 0 17.67 L 0 17.67 M 12.88 73.83 L 12.88 31.07 L 43.38 43.03 L 43.38 84.84 L 12.88 73.83 L 12.88 73.83 M 55.95 84.57 L 55.95 42.62 L 86.72 30.59 L 86.72 73.83 L 55.95 84.57 L 55.95 84.57 M 74.78 22.02 L 49.37 32.02 L 23.92 22.09 L 49.37 12.99 L 74.78 22.02 L 74.78 22.02" fill="#2d5967" stroke="none" stroke-width="0.5"/>
  </g>
</svg>