<svg xmlns="http://www.w3.org/2000/svg" viewBox="0 0 85.0 115.99999999999991" width="85" height="115">
  <g transform="translate(11.00,0.00) scale(0.8200,0.7800)">
    <path d="M 37.45 92.76 L 37.45 81.49 C 37.36,78.64 36.48,75.88 34.92,73.54 C 33.11,70.44 31.86,67.02 31.23,63.44 L 19.97 63.44 L 19.97 56.61 L 31 56.61 C 31.09,55.79 31.22,54.98 31.39,54.19 L 0 54.19 L 0.25 50.53 C 0.55,46.22 1.88,42.06 4.14,38.45 C 6.39,34.84 9.49,31.9 13.13,29.91 C 13.92,29.48 14.62,28.87 15.15,28.12 C 15.69,27.36 16.06,26.5 16.24,25.57 C 16.79,22.48 18.05,19.58 19.91,17.11 C 21.77,14.65 24.17,12.7 26.9,11.42 C 29.24,10.36 31.77,9.8 34.32,9.8 C 34.9,9.8 35.48,9.8 36.05,9.8 L 36.64 9.8 C 37.42,9.81 38.19,9.65 38.91,9.33 C 39.62,9.01 40.26,8.53 40.79,7.94 C 43.28,5.11 46.38,2.96 49.83,1.67 C 53.28,0.39 56.98,0 60.61,0.55 C 64.23,1.1 67.68,2.56 70.64,4.82 C 73.61,7.08 76.01,10.06 77.64,13.51 C 78.01,14.38 78.57,15.16 79.27,15.78 C 79.97,16.39 80.79,16.84 81.67,17.07 C 85.18,17.86 88.47,19.5 91.27,21.86 C 94.06,24.22 96.3,27.24 97.79,30.67 C 99.29,34.1 100,37.85 99.87,41.62 C 99.75,45.39 98.78,49.08 97.06,52.39 L 96.14 54.16 L 69.9 54.16 C 70.07,54.96 70.18,55.77 70.25,56.58 L 80.89 56.58 L 80.89 63.42 L 70 63.42 C 69.37,67 68.11,70.42 66.29,73.52 C 64.73,75.85 63.85,78.61 63.75,81.47 L 63.75 92.73 L 50.6 100 L 37.45 92.76 L 37.45 92.76" fill="#FFFFFF" stroke="none" stroke-width="0.5"/>
  </g>
  <g transform="translate(10.00,0.00) scale(0.8500,0.8000)">
    <path d="M 56.89 2.39 C 60.77,2.38 64.57,3.52 67.87,5.68 C 71.16,7.85 73.82,10.95 75.54,14.64 C 76.01,15.63 76.68,16.5 77.51,17.19 C 78.34,17.87 79.3,18.34 80.32,18.58 C 82.7,19.13 84.97,20.13 87.03,21.52 C 91.59,24.6 94.89,29.39 96.27,34.94 C 97.65,40.49 97,46.39 94.45,51.45 L 93.87 52.59 L 67.6 52.59 C 68.05,54.13 68.31,55.73 68.36,57.34 L 78.6 57.34 L 78.6 61.73 L 68.18 61.73 C 67.69,65.46 66.46,69.03 64.58,72.23 C 62.97,74.69 62.06,77.6 61.97,80.61 L 61.97 90.91 L 50.32 97.34 L 38.67 90.84 L 38.67 80.53 C 38.58,77.53 37.68,74.63 36.08,72.15 C 34.21,68.98 32.99,65.43 32.48,61.73 L 21.71 61.73 L 21.71 57.34 L 32.3 57.34 C 32.38,55.73 32.66,54.13 33.13,52.59 L 2.41 52.59 L 2.57 50.22 C 2.85,46.2 4.1,42.32 6.18,38.96 C 8.27,35.59 11.12,32.84 14.49,30.97 C 15.4,30.46 16.2,29.75 16.82,28.87 C 17.44,28 17.86,26.99 18.06,25.91 C 18.81,21.85 20.86,18.2 23.87,15.57 C 26.87,12.94 30.65,11.5 34.54,11.5 C 35.05,11.5 35.57,11.5 36.1,11.5 L 36.78 11.5 C 37.66,11.54 38.55,11.38 39.38,11.04 C 40.21,10.69 40.97,10.17 41.6,9.51 C 43.56,7.27 45.92,5.49 48.55,4.26 C 51.18,3.04 54.02,2.4 56.89,2.39 L 56.89 2.39 M 56.89 0.01 C 53.72,0.02 50.58,0.71 47.67,2.06 C 44.76,3.41 42.14,5.38 39.97,7.85 C 39.57,8.31 39.07,8.69 38.52,8.94 C 37.97,9.19 37.37,9.31 36.78,9.29 L 36.3 9.29 C 35.72,9.29 35.12,9.29 34.54,9.29 C 30.14,9.28 25.88,10.89 22.48,13.84 C 19.08,16.8 16.74,20.91 15.87,25.48 C 15.73,26.21 15.44,26.9 15.01,27.49 C 14.59,28.09 14.04,28.57 13.41,28.9 C 9.71,30.95 6.57,33.97 4.28,37.68 C 1.99,41.39 0.63,45.66 0.33,50.08 L 0.18 52.45 L 0 54.97 L 19.47 54.97 L 19.47 64.11 L 30.65 64.11 C 31.33,67.39 32.54,70.53 34.2,73.39 C 35.57,75.49 36.34,77.96 36.44,80.51 L 36.44 92.26 L 37.65 92.93 L 49.29 99.43 L 50.32 100 L 51.37 99.43 L 63.02 92.93 L 64.21 92.26 L 64.21 80.53 C 64.29,77.98 65.07,75.51 66.44,73.41 C 68.13,70.55 69.36,67.4 70.08,64.11 L 80.84 64.11 L 80.84 54.97 L 95.26 54.97 L 95.88 53.71 L 96.46 52.57 C 99.28,46.98 100,40.47 98.48,34.34 C 96.96,28.21 93.31,22.91 88.26,19.53 C 85.97,17.98 83.44,16.87 80.79,16.25 C 80.09,16.09 79.44,15.77 78.87,15.3 C 78.31,14.84 77.85,14.25 77.53,13.57 C 75.62,9.49 72.68,6.05 69.04,3.66 C 65.39,1.26 61.18,0 56.89,0.01 L 56.89 0.01" fill="#FFFFFF" stroke="none" stroke-width="0.5"/>
  </g>
  <g transform="translate(12.00,1.00) scale(0.8100,0.4000)">
    <path d="M 88.95 38.52 C 86.79,35.78 84.41,33.81 81.91,32.71 C 80.83,32.25 79.82,31.31 78.95,29.96 C 78.09,28.62 77.38,26.89 76.89,24.93 C 75.31,18.55 72.98,13.04 70.1,8.87 C 67.21,4.7 63.86,2 60.34,1 C 56.82,0 53.22,0.74 49.87,3.14 C 46.52,5.54 43.52,9.55 41.12,14.8 C 40.39,16.36 39.49,17.57 38.49,18.31 C 37.49,19.06 36.41,19.34 35.35,19.11 C 31.01,18.27 26.67,20.68 23.17,25.88 C 19.67,31.08 17.27,38.7 16.42,47.25 C 16.21,49.37 15.76,51.37 15.11,53.1 C 14.46,54.83 13.63,56.24 12.67,57.23 C 9.14,60.93 6.14,66.36 3.95,73.01 C 1.77,79.67 0.46,87.32 0.16,95.26 L 0 99.95 L 28.9 99.95 C 29.3,96.99 29.86,94.13 30.59,91.42 L 4.78 91.42 C 5.34,85.79 6.52,80.49 8.24,75.89 C 9.95,71.3 12.16,67.53 14.71,64.88 C 16.23,63.29 17.56,61.04 18.59,58.29 C 19.63,55.54 20.33,52.36 20.66,48.98 C 21.08,44.75 22,40.79 23.35,37.42 C 24.7,34.06 26.43,31.4 28.4,29.66 C 30.48,27.85 32.74,27.11 35,27.5 C 36.72,27.88 38.47,27.44 40.1,26.23 C 41.73,25.01 43.19,23.06 44.38,20.52 C 46.32,16.4 48.73,13.28 51.4,11.43 C 54.07,9.57 56.93,9.03 59.73,9.84 C 62.53,10.66 65.19,12.82 67.48,16.13 C 69.77,19.44 71.63,23.81 72.9,28.86 C 73.67,31.97 74.79,34.68 76.15,36.81 C 77.52,38.93 79.11,40.42 80.81,41.15 C 82.84,42.05 84.78,43.64 86.55,45.84 C 90.26,50.51 92.99,57.71 94.25,66.09 C 95.5,74.48 95.21,83.49 93.4,91.46 L 70.18 91.46 C 70.87,94.19 71.41,97.05 71.8,100 L 95.98 100 L 96.59 97.75 C 99.29,87.77 100,76.12 98.58,65.14 C 97.16,54.15 93.72,44.65 88.95,38.52 L 88.95 38.52" fill="#2d5967" stroke="none" stroke-width="0.5"/>
  </g>
  <g transform="translate(51.00,22.00) scale(0.0300,0.0600)">
    <path d="M 0 0 L 0 100 C 18.43,98.77 36.99,98.15 55.55,98.13 C 70.56,98.13 84.99,98.13 100,98.13 L 100 0 L 0 0 L 0 0" fill="#2d5967" stroke="none" stroke-width="0.5"/>
  </g>
  <g transform="translate(70.00,46.00) scale(0.0600,0.0300)">
    <path d="M 0 100 L 100 100 L 100 0 L 3.67 0 C 3.67,6.47 3.67,12.98 3.67,19.45 C 3.3,46.39 2.06,73.3 0,100 L 0 100" fill="#2d5967" stroke="none" stroke-width="0.5"/>
  </g>
  <g transform="translate(28.00,46.00) scale(0.0600,0.0300)">
    <path d="M 97.97 0 L 0 0 L 0 100 L 100 100 C 98.45,73.78 97.68,47.44 97.68,21.07 C 97.68,12.98 97.68,6.47 97.97,0 L 97.97 0" fill="#2d5967" stroke="none" stroke-width="0.5"/>
  </g>
  <g transform="translate(34.00,28.00) scale(0.0700,0.0700)">
    <path d="M 0 34.13 L 65.95 100 C 70.75,94.4 75.53,88.8 80.84,83.47 C 86.17,78.13 93.34,71.47 100,65.87 L 34.3 0 L 0 34.13 L 0 34.13" fill="#2d5967" stroke="none" stroke-width="0.5"/>
  </g>
  <g transform="translate(64.00,28.00) scale(0.0600,0.0600)">
    <path d="M 64.74 0 L 0 64.74 C 12.98,75.29 24.88,87.1 35.54,100 L 100 35.54 L 64.74 0 L 64.74 0" fill="#2d5967" stroke="none" stroke-width="0.5"/>
  </g>
  <g transform="translate(37.00,31.00) scale(0.3000,0.4600)">
    <path d="M 82.16 71.09 C 82.4,65.92 84.91,60.92 89.37,56.68 C 96.33,49.52 100,41.18 99.91,32.67 C 99.91,24 94.72,15.7 85.47,9.57 C 76.22,3.44 63.67,0 50.59,0 C 37.39,0 24.72,3.42 15.28,9.52 C 5.85,15.63 0.39,23.93 0.09,32.67 C 0,41.18 3.67,49.52 10.63,56.68 C 15.05,60.93 17.53,65.93 17.78,71.09 L 17.78 88.81 L 50.03 100 L 82.16 88.81 L 82.16 71.09 L 82.16 71.09 M 50.71 7.52 C 60.78,7.53 70.43,10.18 77.55,14.89 C 84.67,19.61 88.68,26 88.69,32.67 C 88.76,39.92 85.59,47.02 79.57,53.08 C 75.46,57.42 72.73,62.27 71.55,67.33 L 55.64 67.33 L 55.64 51.82 C 59.51,50.94 62.77,49.18 64.86,46.85 C 66.96,44.53 67.73,41.79 67.06,39.12 C 66.39,36.45 64.31,34.03 61.19,32.28 C 58.07,30.53 54.12,29.57 50.03,29.57 C 45.95,29.57 41.99,30.53 38.87,32.28 C 35.76,34.03 33.67,36.45 33,39.12 C 32.33,41.79 33.11,44.53 35.2,46.85 C 37.29,49.18 40.56,50.94 44.42,51.82 L 44.42 67.33 L 28.76 67.33 C 27.57,62.22 24.76,57.34 20.5,53 C 14.5,46.94 11.34,39.84 11.43,32.59 C 11.77,25.85 16.06,19.46 23.39,14.78 C 30.72,10.09 40.52,7.49 50.71,7.52 L 50.71 7.52 M 50.03 45 C 48.81,45 47.62,44.76 46.6,44.31 C 45.59,43.86 44.8,43.23 44.33,42.48 C 43.87,41.73 43.75,40.91 43.98,40.12 C 44.22,39.33 44.81,38.6 45.67,38.03 C 46.53,37.46 47.63,37.07 48.83,36.91 C 50.03,36.75 51.26,36.83 52.39,37.14 C 53.52,37.45 54.48,37.98 55.16,38.65 C 55.84,39.32 56.2,40.11 56.2,40.92 C 56.2,42 55.55,43.04 54.39,43.8 C 53.24,44.57 51.66,45 50.03,45 L 50.03 45 M 70.94 80.36 L 70.94 84.44 L 50.03 91.83 L 29.13 84.52 L 29.13 74.81 L 70.94 74.81 L 70.94 80.36 L 70.94 80.36" fill="#2d5967" stroke="none" stroke-width="0.5"/>
  </g>
</svg>