<svg xmlns="http://www.w3.org/2000/svg" viewBox="0 0 61.0 125.00000000000017" width="61" height="125">
  <g transform="translate(19.00,0.00) scale(0.6000,0.8200)">
    <path d="M 10.3 57.46 C 2.86,49.63 0,39.97 2.34,30.6 C 4.67,21.23 12.02,12.93 22.76,7.51 C 33.5,2.09 46.76,0 59.61,1.7 C 72.46,3.41 83.85,8.76 91.29,16.59 C 96.96,22.62 100,29.76 100,37.07 C 100,44.39 96.96,51.53 91.29,57.56 L 50.81 100 L 10.3 57.46 L 10.3 57.46" fill="#FFFFFF" stroke="none" stroke-width="0.5"/>
  </g>
  <g transform="translate(19.00,0.00) scale(0.6100,0.8400)">
    <path d="M 49.95 2.34 C 58.43,2.32 66.76,4 74.02,7.2 C 81.29,10.4 87.22,15 91.17,20.5 C 95.12,26 96.94,32.18 96.42,38.38 C 95.91,44.58 93.09,50.56 88.26,55.67 L 50.02 95.91 L 11.9 55.67 C 7.09,50.58 4.26,44.61 3.74,38.43 C 3.22,32.24 5.01,26.07 8.93,20.58 C 12.85,15.09 18.74,10.49 25.97,7.27 C 33.2,4.06 41.5,2.35 49.95,2.34 L 49.95 2.34 M 49.95 0 C 40.91,0.01 32.05,1.84 24.32,5.27 C 16.59,8.71 10.29,13.63 6.11,19.5 C 1.92,25.37 0,31.97 0.56,38.58 C 1.12,45.19 4.14,51.56 9.28,57.01 L 47.4 97.24 L 50.02 100 L 52.63 97.24 L 90.72 57.01 C 95.87,51.56 98.89,45.18 99.44,38.56 C 100,31.94 98.07,25.34 93.87,19.47 C 89.67,13.59 83.36,8.68 75.62,5.24 C 67.88,1.81 59,0 49.95,0 L 49.95 0 L 49.95 0" fill="#FFFFFF" stroke="none" stroke-width="0.5"/>
  </g>
  <g transform="translate(20.00,1.00) scale(0.5800,0.8000)">
    <path d="M 91.28 16.57 C 83.84,8.74 72.44,3.39 59.58,1.7 C 46.72,0 33.47,2.09 22.73,7.52 C 12,12.95 4.66,21.26 2.33,30.63 C 0,40 2.87,49.66 10.32,57.48 L 50.82 100 L 91.28 57.48 C 96.96,51.46 100,44.33 100,37.02 C 100,29.72 96.96,22.59 91.28,16.57 L 91.28 16.57 M 86.37 55.03 L 50.82 92.41 L 15.14 55.01 C 10.64,50.27 8,44.73 7.52,38.98 C 7.03,33.23 8.72,27.49 12.38,22.39 C 16.05,17.29 21.57,13.01 28.33,10.03 C 35.09,7.05 42.85,5.47 50.75,5.47 C 58.66,5.47 66.41,7.05 73.17,10.03 C 79.93,13.01 85.45,17.29 89.12,22.39 C 92.79,27.49 94.47,33.23 93.99,38.98 C 93.5,44.73 90.87,50.27 86.37,55.01 L 86.37 55.03 L 86.37 55.03" fill="#2d5967" stroke="none" stroke-width="0.5"/>
  </g>
  <g transform="translate(37.00,9.00) scale(0.2500,0.3400)">
    <path d="M 84.56 38.21 L 84.56 25.74 C 84.51,21.8 83.22,17.91 80.8,14.38 C 78.39,10.86 74.9,7.79 70.61,5.42 C 66.36,3.04 61.41,1.42 56.15,0.71 C 50.9,0 45.49,0.21 40.36,1.33 C 33.13,2.94 26.79,6.24 22.3,10.72 C 17.82,15.2 15.41,20.63 15.45,26.21 L 15.45 38.21 C 8.55,43.26 3.84,49.7 1.92,56.71 C 0,63.73 0.95,71.01 4.65,77.63 C 8.35,84.25 14.64,89.91 22.71,93.89 C 30.79,97.87 40.29,100 50,100 C 59.72,100 69.22,97.87 77.29,93.89 C 85.36,89.91 91.65,84.25 95.35,77.63 C 99.05,71.01 100,63.73 98.08,56.71 C 96.16,49.7 91.45,43.26 84.56,38.21 L 84.56 38.21 M 29.16 26.21 C 29.09,22.82 30.51,19.52 33.21,16.78 C 35.91,14.04 39.74,12.02 44.13,11.02 C 47.22,10.36 50.48,10.23 53.66,10.66 C 56.82,11.1 59.81,12.07 62.38,13.51 C 64.97,14.93 67.07,16.78 68.54,18.9 C 70.01,21.02 70.79,23.36 70.84,25.74 L 70.84 31.11 C 64.32,28.87 57.2,27.71 50,27.71 C 42.8,27.71 35.68,28.87 29.16,31.11 L 29.16 26.21 L 29.16 26.21 M 50 89.71 C 42.98,89.74 36.1,88.24 30.25,85.39 C 24.39,82.54 19.81,78.46 17.1,73.69 C 14.39,68.92 13.66,63.66 15.02,58.59 C 16.37,53.51 19.74,48.85 24.7,45.18 C 29.66,41.52 35.98,39.03 42.86,38.02 C 49.75,37.01 56.89,37.54 63.37,39.52 C 69.85,41.51 75.39,44.87 79.27,49.18 C 83.16,53.49 85.21,58.56 85.18,63.73 C 85.23,67.16 84.36,70.55 82.62,73.73 C 80.87,76.9 78.28,79.79 75.01,82.22 C 71.74,84.66 67.84,86.59 63.55,87.9 C 59.26,89.22 54.65,89.89 50,89.88 L 50 89.71 L 50 89.71" fill="#2d5967" stroke="none" stroke-width="0.5"/>
  </g>
  <g transform="translate(47.00,27.00) scale(0.0500,0.0800)">
    <path d="M 50.56 0 L 44.57 0 C 33.82,0.86 23.79,3.94 16.02,8.78 C 8.25,13.61 3.16,19.94 1.54,26.8 C 0,33.26 1.66,39.88 6.29,45.71 C 10.91,51.55 18.28,56.31 27.37,59.33 L 17.64 100 L 83.5 100 L 74.53 59.33 C 82.26,56.53 88.71,52.46 93.17,47.54 C 97.66,42.62 100,37.03 99.98,31.34 C 99.88,23.01 94.63,15.04 85.36,9.16 C 76.11,3.29 63.62,0 50.56,0 L 50.56 0" fill="#2d5967" stroke="none" stroke-width="0.5"/>
  </g>
</svg>