<svg xmlns="http://www.w3.org/2000/svg" viewBox="0 0 84.0 101.00000000000007" width="84" height="101">
  <g transform="translate(5.00,0.00) scale(0.8300,0.7500)">
    <path d="M 71.14 99.87 C 69.76,99.88 68.38,99.5 67.16,98.76 C 65.94,98.02 64.91,96.95 64.17,95.65 C 63.42,94.35 63.01,92.86 62.93,91.32 C 62.85,89.79 63.15,88.26 63.76,86.88 C 64,86.32 64.29,85.79 64.62,85.3 C 61.73,86.63 58.63,87.31 55.49,87.3 C 49.92,87.3 44.53,85.17 40.22,81.29 C 35.91,77.4 32.95,71.99 31.85,65.97 C 31.73,65.41 31.64,64.85 31.58,64.29 C 30.89,66.3 29.58,67.97 27.88,69 C 26.18,70.04 24.21,70.37 22.3,69.94 C 20.39,69.51 18.69,68.35 17.49,66.66 C 16.3,64.97 15.69,62.86 15.78,60.72 C 15.79,59.11 16.18,57.54 16.91,56.16 L 0 56.16 L 0.44 52.21 C 0.76,47.73 2.12,43.42 4.39,39.68 C 6.65,35.95 9.74,32.92 13.36,30.87 C 14.14,30.4 14.8,29.75 15.29,28.95 C 15.8,28.16 16.13,27.24 16.26,26.29 C 17.09,21.67 19.32,17.52 22.62,14.54 C 25.9,11.56 30.03,9.93 34.29,9.94 C 34.83,9.94 35.42,9.94 35.98,9.94 L 36.55 9.94 C 37.31,9.95 38.06,9.78 38.76,9.45 C 39.46,9.12 40.1,8.63 40.62,8.02 C 42.72,5.51 45.27,3.5 48.11,2.13 C 50.94,0.75 54,0.03 57.11,0.02 C 61.29,0 65.4,1.28 68.95,3.71 C 72.5,6.13 75.38,9.61 77.23,13.75 C 77.6,14.69 78.16,15.52 78.86,16.17 C 79.56,16.83 80.4,17.3 81.29,17.54 C 83.87,18.16 86.32,19.28 88.53,20.84 C 93.47,24.28 97.04,29.65 98.51,35.87 C 100,42.09 99.29,48.7 96.53,54.37 L 95.61 56.26 L 79.27 56.26 C 79.52,57.77 79.65,59.29 79.65,60.82 C 79.65,64.88 78.79,68.89 77.18,72.54 C 75.57,76.18 73.2,79.37 70.3,81.86 L 70.3 82 L 71.05 82 L 71.75 82 C 72.23,82.04 72.73,82.14 73.2,82.29 C 75.11,82.87 76.75,84.18 77.84,86 C 78.93,87.82 79.39,90.01 79.14,92.17 C 78.88,94.33 77.92,96.31 76.43,97.75 C 74.96,99.19 73.05,99.99 71.08,100 L 71.14 99.87 L 71.14 99.87" fill="#FFFFFF" stroke="none" stroke-width="0.5"/>
  </g>
  <g transform="translate(5.00,0.00) scale(0.8400,0.7700)">
    <path d="M 57.2 2.61 C 61.09,2.59 64.91,3.77 68.22,6.02 C 71.53,8.27 74.2,11.49 75.93,15.32 C 76.39,16.34 77.05,17.24 77.87,17.94 C 78.7,18.64 79.65,19.14 80.67,19.38 C 83.07,19.98 85.37,21.02 87.45,22.46 C 92.06,25.62 95.38,30.58 96.77,36.35 C 98.15,42.11 97.49,48.23 94.91,53.48 L 94.33 54.65 L 77.51 54.65 C 78.61,59.48 78.34,64.57 76.74,69.23 C 75.14,73.89 72.29,77.91 68.57,80.75 L 69.63 82.62 C 70.07,82.52 70.52,82.47 70.96,82.46 L 71.56 82.46 C 71.97,82.5 72.37,82.58 72.77,82.7 C 74.22,83.13 75.49,84.07 76.4,85.38 C 77.31,86.68 77.8,88.28 77.8,89.93 C 77.81,91.57 77.31,93.17 76.41,94.48 C 75.5,95.79 74.23,96.73 72.78,97.17 C 71.34,97.6 69.81,97.51 68.42,96.9 C 67.02,96.28 65.86,95.18 65.1,93.77 C 64.33,92.36 64.02,90.71 64.18,89.07 C 64.35,87.44 65.01,85.91 66.05,84.73 L 65.03 82.96 C 61.94,84.53 58.58,85.31 55.19,85.24 C 51.79,85.18 48.45,84.27 45.41,82.58 C 42.39,80.89 39.74,78.47 37.68,75.5 C 35.63,72.53 34.21,69.09 33.55,65.43 C 33.39,64.57 33.26,63.7 33.19,62.83 L 31.25 62.83 C 30.92,63.93 30.35,64.94 29.6,65.76 C 28.87,66.59 27.96,67.21 26.94,67.59 C 25.95,67.96 24.88,68.07 23.82,67.91 C 22.77,67.76 21.78,67.33 20.9,66.68 C 20.03,66.02 19.3,65.15 18.79,64.14 C 18.27,63.12 17.98,61.99 17.93,60.83 C 17.88,59.66 18.08,58.51 18.5,57.44 C 18.94,56.38 19.59,55.44 20.4,54.7 L 2.56 54.7 L 2.73 52.3 C 3,48.14 4.22,44.12 6.29,40.62 C 8.37,37.13 11.22,34.27 14.6,32.33 C 15.51,31.81 16.31,31.07 16.93,30.17 C 17.56,29.27 17.99,28.23 18.19,27.12 C 18.72,24.19 19.88,21.45 21.56,19.13 C 23.26,16.8 25.45,14.96 27.93,13.76 C 30.07,12.73 32.38,12.2 34.71,12.19 L 36.27 12.19 L 36.95 12.19 C 37.83,12.18 38.71,11.97 39.53,11.58 C 40.34,11.18 41.08,10.61 41.69,9.9 C 43.68,7.57 46.07,5.72 48.75,4.47 C 51.42,3.21 54.3,2.58 57.2,2.61 L 57.2 2.61 M 57.2 0 C 54,0.01 50.83,0.73 47.9,2.14 C 44.96,3.55 42.33,5.6 40.14,8.18 C 39.74,8.65 39.26,9.02 38.72,9.27 C 38.18,9.52 37.6,9.65 37.01,9.64 L 36.56 9.64 C 35.97,9.6 35.37,9.6 34.79,9.64 C 30.33,9.65 26.02,11.35 22.57,14.46 C 19.14,17.56 16.78,21.88 15.92,26.67 C 15.78,27.41 15.5,28.1 15.1,28.69 C 14.68,29.29 14.15,29.77 13.55,30.11 C 9.83,32.25 6.67,35.38 4.36,39.23 C 2.05,43.07 0.67,47.5 0.36,52.1 L 0.19 54.49 L 0 57.3 L 15.99 57.3 C 15.68,58.32 15.52,59.38 15.52,60.46 C 15.51,62.49 16.07,64.49 17.12,66.17 C 18.17,67.85 19.64,69.15 21.38,69.89 C 23.1,70.63 25,70.78 26.81,70.32 C 28.62,69.86 30.25,68.81 31.5,67.31 C 32.9,73.16 36.02,78.35 40.38,82.06 C 44.75,85.76 50.09,87.78 55.61,87.8 C 57.83,87.8 60.06,87.48 62.21,86.84 C 61.82,88.17 61.68,89.58 61.82,90.97 C 61.96,92.36 62.35,93.7 62.99,94.91 C 63.8,96.46 64.96,97.74 66.36,98.64 C 67.77,99.53 69.36,100 70.98,99.99 C 72.58,100 74.15,99.54 75.54,98.67 C 76.59,98.01 77.51,97.13 78.25,96.08 C 79,95.02 79.54,93.82 79.86,92.54 C 80.17,91.26 80.26,89.92 80.11,88.6 C 79.95,87.28 79.56,86.01 78.96,84.86 C 78.36,83.71 77.56,82.69 76.6,81.89 C 75.65,81.08 74.55,80.48 73.38,80.15 L 72.98 80.02 C 75.37,77.47 77.26,74.43 78.55,71.07 C 79.85,67.71 80.52,64.1 80.52,60.46 C 80.52,59.4 80.46,58.35 80.33,57.3 L 95.75 57.3 L 96.42 55.95 L 96.99 54.78 C 98.75,51.23 99.74,47.27 99.88,43.23 C 100,39.18 99.28,35.16 97.74,31.48 C 96.22,27.8 93.92,24.57 91.05,22.03 C 88.19,19.49 84.82,17.72 81.21,16.86 C 80.55,16.7 79.91,16.38 79.36,15.94 C 78.81,15.49 78.36,14.91 78.04,14.25 C 76.13,9.97 73.16,6.37 69.47,3.85 C 65.79,1.33 61.54,0 57.2,0 L 57.2 0" fill="#FFFFFF" stroke="none" stroke-width="0.5"/>
  </g>
  <g transform="translate(7.00,2.00) scale(0.8100,0.4000)">
    <path d="M 88.81 38.12 C 86.62,35.35 84.21,33.36 81.69,32.22 C 80.62,31.75 79.63,30.81 78.77,29.46 C 77.91,28.11 77.21,26.39 76.73,24.43 C 74.93,17.08 72.13,10.89 68.67,6.58 C 65.21,2.27 61.22,0 57.14,0.03 C 54.14,0.05 51.16,1.3 48.41,3.73 C 45.65,6.15 43.17,9.69 41.12,14.13 C 40.39,15.7 39.49,16.91 38.48,17.65 C 37.48,18.4 36.41,18.66 35.34,18.43 C 32.36,17.89 29.35,18.87 26.6,21.28 C 24,23.58 21.73,27.12 19.95,31.58 C 18.18,36.05 16.98,41.31 16.43,46.92 C 16.22,49.05 15.76,51.05 15.11,52.78 C 14.46,54.51 13.62,55.92 12.65,56.91 C 9.14,60.64 6.15,66.12 3.98,72.83 C 1.82,79.54 0.52,87.26 0.25,95.25 L 0 100 L 14.42 100 C 15.63,96.01 17.48,92.95 19.65,91.3 L 4.77 91.3 C 5.33,85.64 6.5,80.3 8.23,75.68 C 9.94,71.06 12.16,67.28 14.69,64.61 C 16.22,63.02 17.55,60.74 18.58,57.96 C 19.61,55.19 20.32,51.97 20.65,48.57 C 21.06,44.32 21.98,40.34 23.32,36.96 C 24.67,33.59 26.4,30.91 28.36,29.17 C 30.44,27.33 32.71,26.58 34.97,26.97 C 36.67,27.34 38.4,26.9 40.01,25.69 C 41.62,24.49 43.07,22.55 44.24,20.03 C 45.9,16.46 47.9,13.6 50.12,11.65 C 52.34,9.7 54.73,8.69 57.14,8.68 C 60.42,8.63 63.63,10.44 66.41,13.91 C 69.2,17.38 71.44,22.35 72.88,28.27 C 73.66,31.4 74.77,34.13 76.14,36.27 C 77.51,38.42 79.11,39.92 80.79,40.67 C 82.84,41.64 84.77,43.34 86.52,45.67 C 90.22,50.38 92.95,57.62 94.2,66.06 C 95.47,74.5 95.17,83.57 93.38,91.6 L 80.4 91.6 C 80.93,94.33 81.37,97.14 81.69,100 L 95.98 100 L 96.58 97.75 C 99.29,87.69 100,75.92 98.56,64.83 C 97.11,53.75 93.63,44.2 88.81,38.12 L 88.81 38.12" fill="#2d5967" stroke="none" stroke-width="0.5"/>
  </g>
  <g transform="translate(20.00,18.00) scale(0.5100,0.5700)">
    <path d="M 85.81 79.9 L 84.03 77.54 C 88.96,74.46 93,70.37 95.77,65.6 C 98.55,60.83 100,55.53 100,50.15 C 100,44.77 98.55,39.48 95.77,34.71 C 93,29.94 88.96,25.84 84.03,22.77 L 85.54 20.27 C 86.39,20.45 87.26,20.54 88.13,20.55 L 89.13 20.55 C 89.79,20.48 90.47,20.37 91.11,20.23 C 93.37,19.69 95.4,18.54 96.89,16.93 C 98.41,15.32 99.32,13.34 99.5,11.26 C 99.71,9.17 99.17,7.08 98.01,5.27 C 96.83,3.46 95.05,2.02 92.94,1.15 C 90.82,0.27 88.44,0 86.14,0.37 C 83.84,0.75 81.73,1.75 80.07,3.24 C 78.44,4.72 77.34,6.63 76.97,8.69 C 76.57,10.76 76.91,12.88 77.9,14.77 C 78.38,15.66 79,16.49 79.7,17.24 L 78.13 19.81 C 73.28,17.81 68,16.78 62.68,16.78 C 54.06,16.79 45.69,19.46 39.02,24.35 C 32.35,29.23 27.78,36.03 26.06,43.6 C 25.79,44.76 25.6,45.94 25.48,47.12 L 22.25 47.12 C 21.44,44.79 19.74,42.8 17.42,41.51 C 15.12,40.21 12.37,39.7 9.67,40.06 C 7,40.43 4.54,41.65 2.75,43.49 C 0.99,45.34 0,47.7 0,50.14 C 0,52.57 0.99,54.93 2.75,56.78 C 4.54,58.62 7,59.84 9.67,60.21 C 12.37,60.57 15.12,60.06 17.42,58.76 C 19.74,57.47 21.44,55.48 22.25,53.15 L 25.39 53.15 C 25.52,54.33 25.7,55.51 25.99,56.67 C 27.09,61.62 29.45,66.28 32.85,70.3 C 36.27,74.32 40.64,77.6 45.67,79.88 C 50.7,82.16 56.23,83.4 61.89,83.49 C 67.52,83.57 73.09,82.52 78.21,80.39 L 79.91 82.79 C 79.06,83.58 78.36,84.5 77.82,85.5 C 76.99,87.05 76.62,88.76 76.74,90.47 C 76.84,92.19 77.44,93.85 78.48,95.29 C 79.49,96.74 80.92,97.93 82.6,98.75 C 84.28,99.58 86.18,100 88.09,99.99 C 90.85,99.99 93.5,99.09 95.57,97.47 C 97.62,95.85 98.96,93.61 99.32,91.17 C 99.69,88.73 99.05,86.26 97.51,84.21 C 96,82.17 93.7,80.68 91.05,80.04 C 90.39,79.88 89.73,79.78 89.04,79.72 C 87.97,79.64 86.87,79.7 85.81,79.9 L 85.81 79.9 M 84.03 8.18 C 84.44,7.56 85,7.04 85.71,6.67 C 86.39,6.31 87.18,6.11 87.97,6.1 C 88.77,6.1 89.54,6.3 90.22,6.66 C 91.14,7.26 91.78,8.13 92,9.12 C 92.23,10.1 92.07,11.13 91.49,12.01 C 90.93,12.89 90.04,13.54 88.96,13.86 C 87.88,14.17 86.72,14.12 85.69,13.71 C 84.67,13.15 83.95,12.27 83.64,11.24 C 83.33,10.21 83.47,9.11 84.03,8.18 L 84.03 8.18 M 93.16 50.01 C 93.19,55.44 91.38,60.74 88.03,65.26 C 84.67,69.77 79.89,73.29 74.3,75.37 C 68.7,77.45 62.55,78 56.61,76.94 C 50.66,75.89 45.19,73.28 40.91,69.45 C 36.62,65.62 33.7,60.73 32.52,55.41 C 31.34,50.09 31.94,44.57 34.26,39.56 C 36.58,34.55 40.49,30.27 45.53,27.25 C 50.58,24.24 56.48,22.63 62.55,22.63 C 70.67,22.64 78.44,25.52 84.18,30.66 C 89.91,35.79 93.14,42.75 93.16,50.01 L 93.16 50.01 M 11.31 54.14 C 10.4,54.14 9.51,53.89 8.74,53.44 C 8,52.99 7.39,52.34 7.06,51.59 C 6.71,50.84 6.61,50.01 6.79,49.21 C 6.96,48.41 7.42,47.67 8.06,47.1 C 8.7,46.52 9.51,46.13 10.42,45.97 C 11.31,45.81 12.22,45.89 13.07,46.2 C 13.92,46.51 14.62,47.04 15.14,47.72 C 15.64,48.4 15.91,49.2 15.91,50.01 C 15.93,50.56 15.8,51.09 15.58,51.6 C 15.35,52.1 15,52.55 14.58,52.94 C 14.15,53.32 13.63,53.63 13.07,53.83 C 12.51,54.04 11.91,54.14 11.31,54.14 L 11.31 54.14 M 91.98 87.79 C 92.48,88.72 92.56,89.78 92.23,90.76 C 91.88,91.74 91.16,92.57 90.16,93.08 C 89.17,93.6 87.99,93.76 86.87,93.53 C 85.75,93.31 84.78,92.72 84.11,91.88 C 83.72,91.26 83.51,90.56 83.51,89.84 C 83.51,89.12 83.72,88.42 84.11,87.8 C 84.51,87.18 85.09,86.66 85.77,86.3 C 86.47,85.94 87.26,85.75 88.05,85.75 C 88.86,85.75 89.64,85.94 90.33,86.3 C 91.03,86.66 91.59,87.17 91.98,87.79 L 91.98 87.79" fill="#2d5967" stroke="none" stroke-width="0.5"/>
  </g>
  <g transform="translate(39.00,34.00) scale(0.1600,0.1200)">
    <path d="M 61.28 62.64 L 47.45 80.85 L 61.91 100 L 100 50.08 L 61.91 0 L 47.45 19.15 L 59.4 35.63 L 10.43 35.63 C 5.97,43.92 2.45,53.02 0,62.64 L 61.28 62.64 L 61.28 62.64" fill="#2d5967" stroke="none" stroke-width="0.5"/>
  </g>
  <g transform="translate(47.00,46.00) scale(0.1600,0.1200)">
    <path d="M 38.54 37.68 L 52.78 19.16 L 38.23 0 L 0 49.92 L 38.23 100 L 52.78 80.84 L 40.76 65.15 L 87.97 65.15 C 93.1,57.03 97.15,47.92 100,38.15 L 38.54 37.68 L 38.54 37.68" fill="#2d5967" stroke="none" stroke-width="0.5"/>
  </g>
</svg>