<svg xmlns="http://www.w3.org/2000/svg" viewBox="0 0 84.0 109.0000000000001" width="84" height="109">
  <g transform="translate(13.00,1.00) scale(0.8200,0.8200)">
    <path d="M 50 100 C 47.32,100 44.88,98.29 43.66,95.85 C 43.17,95.85 42.68,95.61 42.19,95.61 C 40.98,97.32 39.02,98.05 36.83,98.05 C 33.17,98.05 30.24,95.12 30,91.71 C 20.49,87.07 12.93,79.51 8.29,70 C 4.63,69.76 1.95,66.83 1.95,63.17 C 1.95,60.98 2.93,59.27 4.39,57.81 C 4.39,57.32 4.15,56.83 4.15,56.34 C 1.71,55.37 0,52.68 0,50 C 0,47.32 1.71,44.88 4.15,43.66 C 4.15,43.17 4.39,42.68 4.39,42.2 C 2.68,40.98 1.95,39.02 1.95,36.83 C 1.95,33.17 4.88,30.24 8.29,30 C 12.93,20.49 20.49,12.93 30,8.29 C 30.24,4.63 33.17,1.95 36.83,1.95 C 39.02,1.95 40.73,2.93 42.19,4.39 C 42.68,4.39 43.17,4.15 43.66,4.15 C 44.63,1.71 47.32,0 50,0 C 52.68,0 55.12,1.71 56.34,4.15 C 56.83,4.15 57.32,4.39 57.81,4.39 C 59.02,2.68 60.98,1.95 63.17,1.95 C 66.83,1.95 69.76,4.88 70,8.29 C 79.51,12.93 87.07,20.49 91.71,30 C 95.37,30.24 98.05,33.17 98.05,36.83 C 98.05,39.02 97.07,40.73 95.61,42.2 C 95.61,42.68 95.85,43.17 95.85,43.66 C 98.29,44.63 100,47.32 100,50 C 100,52.68 98.29,55.12 95.85,56.34 C 95.85,56.83 95.61,57.32 95.61,57.81 C 97.32,59.02 98.05,60.98 98.05,63.17 C 98.05,66.83 95.12,69.76 91.71,70 C 87.07,79.51 79.51,87.07 70,91.71 C 69.76,95.37 66.83,98.05 63.17,98.05 C 60.98,98.05 59.27,97.07 57.81,95.61 C 57.32,95.61 56.83,95.85 56.34,95.85 C 55.12,98.29 52.68,100 50,100 L 50 100" fill="#FFFFFF" stroke="none" stroke-width="0.5"/>
  </g>
  <g transform="translate(12.00,0.00) scale(0.8400,0.8400)">
    <path d="M 49.76 2.38 C 52.37,2.38 54.26,4.04 54.98,6.41 C 55.92,6.41 56.87,6.65 57.82,6.89 C 58.77,5.23 60.43,4.28 62.56,4.28 C 65.64,4.28 68.01,6.65 68.01,9.74 L 68.01 9.98 C 77.49,14.25 85.31,22.09 89.57,31.59 L 89.81 31.59 C 92.89,31.59 95.26,33.97 95.26,37.05 C 95.26,38.95 94.31,40.62 92.65,41.81 C 92.89,42.76 92.89,43.71 93.13,44.66 C 95.5,45.37 97.16,47.51 97.16,49.88 C 97.16,52.26 95.5,54.39 93.13,55.11 C 93.13,56.06 92.89,57.01 92.65,57.96 C 94.31,58.91 95.26,60.57 95.26,62.71 C 95.26,65.8 92.89,68.17 89.81,68.17 L 89.57 68.17 C 85.31,77.67 77.49,85.51 68.01,89.79 L 68.01 90.02 C 68.01,93.11 65.64,95.49 62.56,95.49 C 60.66,95.49 59,94.54 57.82,92.87 C 56.87,93.11 55.92,93.11 54.98,93.35 C 54.26,95.73 52.13,97.39 49.76,97.39 C 47.39,97.39 45.26,95.73 44.55,93.35 C 43.6,93.35 42.65,93.11 41.71,92.87 C 40.76,94.54 39.1,95.49 36.97,95.49 C 33.89,95.49 31.52,93.11 31.52,90.02 L 31.52 89.79 C 22.04,85.51 14.22,77.67 9.95,68.17 L 9.72 68.17 C 6.63,68.17 4.26,65.8 4.26,62.71 C 4.26,60.81 5.21,59.14 6.87,57.96 C 6.63,57.01 6.63,56.06 6.4,55.11 C 4.03,54.39 2.37,52.49 2.37,49.88 C 2.37,47.27 4.03,45.37 6.4,44.66 C 6.4,43.71 6.63,42.76 6.87,41.81 C 5.21,40.86 4.26,39.19 4.26,37.05 C 4.26,33.97 6.63,31.59 9.72,31.59 L 9.95 31.59 C 14.22,22.09 22.04,14.25 31.52,9.98 L 31.52 9.74 C 31.52,6.65 33.89,4.28 36.97,4.28 C 38.86,4.28 40.52,5.23 41.71,6.89 C 42.65,6.65 43.6,6.65 44.55,6.41 C 45.26,4.04 47.16,2.38 49.76,2.38 L 49.76 2.38 M 49.76 0 C 46.92,0 44.08,1.66 42.89,4.28 L 42.65 4.28 C 41.23,2.85 39.1,1.9 36.97,1.9 C 32.94,1.9 29.86,4.75 29.15,8.55 C 20.14,13.06 12.8,20.43 8.29,29.45 C 4.74,29.93 1.9,33.25 1.9,37.05 C 1.9,39.19 2.84,41.33 4.26,42.76 L 4.26 42.99 C 1.66,44.18 0,47.03 0,49.88 C 0,52.73 1.66,55.58 4.26,56.77 L 4.26 57.01 C 2.84,58.43 1.9,60.57 1.9,62.71 C 1.9,66.75 4.74,69.83 8.53,70.55 C 13.03,79.57 20.38,86.94 29.38,91.45 C 29.86,95.25 33.17,98.1 37.2,98.1 C 39.34,98.1 41.47,97.15 42.89,95.73 L 43.13 95.73 C 44.55,98.34 47.16,100 50,100 C 52.84,100 55.69,98.34 56.87,95.73 L 57.11 95.73 C 58.53,97.15 60.66,98.1 62.8,98.1 C 66.83,98.1 69.9,95.25 70.62,91.45 C 79.62,86.94 86.97,79.57 91.47,70.55 C 95.26,70.07 98.1,66.75 98.1,62.71 C 98.1,60.57 97.16,58.43 95.73,57.01 L 95.73 56.77 C 98.34,55.34 100,52.73 100,49.88 C 100,47.03 98.34,44.18 95.73,42.99 L 95.73 42.76 C 97.16,41.33 98.1,39.19 98.1,37.05 C 98.1,33.02 95.26,29.93 91.47,29.22 C 86.97,20.19 79.62,12.83 70.62,8.31 C 69.67,4.75 66.35,1.9 62.56,1.9 C 60.43,1.9 58.29,2.85 56.87,4.28 L 56.64 4.28 C 55.45,1.66 52.61,0 49.76,0 L 49.76 0" fill="#FFFFFF" stroke="none" stroke-width="0.5"/>
  </g>
  <g transform="translate(47.00,29.00) scale(0.1400,0.0300)">
    <path d="M 77.14 100 L 88.57 100 L 100 100 L 100 0 L 88.57 0 L 77.14 0 L 22.86 0 L 11.43 0 L 0 0 L 0 100 L 11.43 100 L 22.86 100 L 77.14 100 L 77.14 100" fill="#2c5967" stroke="none" stroke-width="0.5"/>
  </g>
  <g transform="translate(52.00,35.00) scale(0.0300,0.1400)">
    <path d="M 100 22.86 L 100 8.57 L 100 0 L 0 0 L 0 8.57 L 49.98 8.57 L 0 8.57 L 0 22.86 L 0 77.14 L 0 88.57 L 0 100 L 100 100 L 100 88.57 L 100 77.14 L 100 22.86 L 100 22.86" fill="#2c5967" stroke="none" stroke-width="0.5"/>
  </g>
  <g transform="translate(47.00,51.00) scale(0.1400,0.0300)">
    <path d="M 22.86 0 L 11.43 0 L 0 0 L 0 100 L 11.43 100 L 22.86 100 L 77.14 100 L 88.57 100 L 100 100 L 100 0 L 88.57 0 L 77.14 0 L 22.86 0 L 22.86 0" fill="#2c5967" stroke="none" stroke-width="0.5"/>
  </g>
  <g transform="translate(14.00,2.00) scale(0.8000,0.8000)">
    <path d="M 100 50 C 100,47.25 98.25,45.25 95.75,44.5 C 95.75,43.5 95.5,42.5 95.25,41.5 C 97,40.5 98,38.75 98,36.5 C 98,33.25 95.5,30.75 92.25,30.75 L 92 30.75 C 87.5,20.75 79.25,12.5 69.25,8 L 69.25 7.75 C 69.25,4.5 66.75,2 63.5,2 C 61.5,2 59.75,3 58.5,4.75 C 57.5,4.5 56.5,4.5 55.5,4.25 C 54.75,1.75 52.75,0 50,0 C 47.25,0 45.25,1.75 44.5,4.25 C 43.5,4.25 42.5,4.5 41.5,4.75 C 40.5,3 38.75,2 36.5,2 C 33.25,2 30.75,4.5 30.75,7.75 L 30.75 8 C 20.75,12.5 12.5,20.75 8,30.75 L 7.75 30.75 C 4.5,30.75 2,33.25 2,36.5 C 2,38.5 3,40.25 4.75,41.5 C 4.5,42.5 4.5,43.5 4.25,44.5 C 1.75,45.25 0,47.25 0,50 C 0,52.75 1.75,54.75 4.25,55.5 C 4.25,56.5 4.5,57.5 4.75,58.5 C 3,59.5 2,61.25 2,63.5 C 2,66.75 4.5,69.25 7.75,69.25 L 8 69.25 C 12.5,79.25 20.75,87.5 30.75,92 L 30.75 92.25 C 30.75,95.5 33.25,98 36.5,98 C 38.5,98 40.25,97 41.5,95.25 C 42.5,95.5 43.5,95.5 44.5,95.75 C 45.25,98.25 47.5,100 50,100 C 52.5,100 54.75,98.25 55.5,95.75 C 56.5,95.75 57.5,95.5 58.5,95.25 C 59.5,97 61.25,98 63.5,98 C 66.75,98 69.25,95.5 69.25,92.25 L 69.25 92 C 79.25,87.5 87.5,79.25 92,69.25 L 92.25 69.25 C 95.5,69.25 98,66.75 98,63.5 C 98,61.5 97,59.75 95.25,58.5 C 95.5,57.5 95.5,56.5 95.75,55.5 C 98.25,54.75 100,52.75 100,50 L 100 50 M 92.25 50 C 92.25,49 93,48 94.25,48 C 95.25,48 96.25,48.75 96.25,50 C 96.25,51.25 95.5,52 94.25,52 C 93.25,52 92.25,51 92.25,50 L 92.25 50 M 94.25 36.5 C 94.25,37.5 93.5,38.5 92.25,38.5 C 91,38.5 90.25,37.75 90.25,36.5 C 90.25,35.5 91,34.5 92.25,34.5 C 93.5,34.5 94.25,35.5 94.25,36.5 L 94.25 36.5 M 63.5 5.75 C 64.5,5.75 65.5,6.5 65.5,7.75 C 65.5,8.75 64.75,9.75 63.5,9.75 C 62.5,9.75 61.5,9 61.5,7.75 C 61.5,6.75 62.5,5.75 63.5,5.75 L 63.5 5.75 M 50 3.75 C 51,3.75 52,4.5 52,5.75 C 52,7 51,7.75 50,7.75 C 49,7.75 48,7 48,5.75 C 48,4.5 49,3.75 50,3.75 L 50 3.75 M 38.5 7.75 C 38.5,8.75 37.75,9.75 36.5,9.75 C 35.5,9.75 34.5,9 34.5,7.75 C 34.5,6.75 35.25,5.75 36.5,5.75 C 37.5,5.75 38.5,6.75 38.5,7.75 L 38.5 7.75 M 5.75 36.5 C 5.75,35.5 6.5,34.5 7.75,34.5 C 8.75,34.5 9.75,35.25 9.75,36.5 C 9.75,37.5 9,38.5 7.75,38.5 C 6.75,38.5 5.75,37.5 5.75,36.5 L 5.75 36.5 M 5.75 48 C 6.75,48 7.75,48.75 7.75,50 C 7.75,51.25 7,52 5.75,52 C 4.5,52 3.75,51 3.75,50 C 3.75,49 4.75,48 5.75,48 L 5.75 48 M 5.75 63.5 C 5.75,62.5 6.5,61.5 7.75,61.5 C 8.75,61.5 9.75,62.25 9.75,63.5 C 9.75,64.5 9,65.5 7.75,65.5 C 6.75,65.5 5.75,64.5 5.75,63.5 L 5.75 63.5 M 34.5 92.25 C 34.5,91.25 35.25,90.25 36.5,90.25 C 37.5,90.25 38.5,91 38.5,92.25 C 38.5,93.5 37.75,94.25 36.5,94.25 C 35.5,94.25 34.5,93.25 34.5,92.25 L 34.5 92.25 M 50 96.25 C 49,96.25 48,95.5 48,94.25 C 48,93.25 48.75,92.25 50,92.25 C 51.25,92.25 52,93 52,94.25 C 52,95.25 51,96.25 50,96.25 L 50 96.25 M 61.5 92.25 C 61.5,91.25 62.25,90.25 63.5,90.25 C 64.5,90.25 65.5,91 65.5,92.25 C 65.5,93.5 64.75,94.25 63.5,94.25 C 62.5,94.25 61.5,93.25 61.5,92.25 L 61.5 92.25 M 67.75 88.5 C 67,87.75 66.25,87.25 65.5,87 L 65.5 68.5 L 65.5 59 L 65.5 56.5 L 65.5 55 L 61.75 55 L 61.75 56.5 L 61.75 59 L 61.75 68.5 L 61.75 87 C 59.75,87.75 58.25,89.5 58,91.75 C 57.25,92 56.5,92 55.5,92.25 C 54.75,90.75 53.75,89.5 52,89 L 52 68.5 L 48.25 68.5 L 48.25 89 C 46.75,89.5 45.5,90.75 44.75,92.25 C 44,92.25 43,92 42.25,91.75 C 42,89.5 40.5,87.75 38.5,87 L 38.5 68.5 L 38.5 59 L 38.5 57 L 38.5 55 L 34.75 55 L 34.75 57 L 34.75 59 L 34.75 68.5 L 34.75 87 C 33.75,87.25 33,87.75 32.5,88.5 C 23.5,84.25 16,77 11.75,67.75 C 12.5,67 13,66.25 13.25,65.5 L 31.75 65.5 L 31.75 61.75 L 13.25 61.75 C 12.5,59.75 10.75,58.25 8.5,58 C 8.25,57.25 8.25,56.5 8,55.5 C 9.5,54.75 10.75,53.75 11.25,52 L 31.75 52 L 41.25 52 L 43.25 52 L 45.25 52 L 45.25 48.25 L 43.25 48.25 L 41.25 48.25 L 31.75 48.25 L 11.25 48.25 C 10.75,46.75 9.5,45.5 8,44.75 C 8,44 8.25,43 8.5,42.25 C 10.75,42 12.5,40.5 13.25,38.5 L 31.75 38.5 L 31.75 34.75 L 13.25 34.75 C 13,33.75 12.5,33 11.75,32.5 C 16,23.5 23.25,16 32.5,11.75 C 33.25,12.5 34,13 35,13.25 L 35 31.75 L 35 41.25 L 35 42.25 L 37 42.25 L 35 42.25 L 35 45.25 L 38.75 45.25 L 38.75 42.25 L 38.75 41.25 L 38.75 31.75 L 38.75 13 C 40.75,12.25 42.25,10.5 42.5,8.25 C 43.25,8 44,8 45,7.75 C 45.75,9.25 47,10.5 48.5,11 L 48.5 31.5 L 52.25 31.5 L 52.25 11 C 53.75,10.5 55,9.25 55.5,7.75 C 56.25,7.75 57.25,8 58,8.25 C 58.25,10.5 59.75,12.25 61.75,13 L 61.75 31.5 L 61.75 41 L 61.75 42.5 L 61.75 45 L 65.5 45 L 65.5 42.5 L 65.5 41 L 65.5 31.5 L 65.5 13 C 66.5,12.75 67.25,12.25 67.75,11.5 C 76.75,15.75 84.25,23 88.5,32.25 C 87.75,33 87.25,33.75 87,34.5 L 68.5 34.5 L 68.5 38.25 L 87 38.25 C 87.75,40.25 89.5,41.75 91.75,42 C 92,42.75 92,43.5 92.25,44.5 C 90.75,45.25 89.5,46.25 89,48 L 68.5 48 L 59 48 L 57 48 L 55 48 L 55 51.75 L 57 51.75 L 59 51.75 L 68.5 51.75 L 89 51.75 C 89.5,53.25 90.75,54.5 92.25,55.25 C 92.25,56 92,57 91.75,57.75 C 89.5,58 87.75,59.5 87,61.5 L 68.5 61.5 L 68.5 65.25 L 87 65.25 C 87.25,66.25 87.75,67 88.5,67.5 C 84.25,76.75 76.75,84.25 67.75,88.5 L 67.75 88.5 M 94.25 63.5 C 94.25,64.5 93.5,65.5 92.25,65.5 C 91,65.5 90.25,64.75 90.25,63.5 C 90.25,62.5 91,61.5 92.25,61.5 C 93.5,61.5 94.25,62.5 94.25,63.5 L 94.25 63.5" fill="#2c5967" stroke="none" stroke-width="0.5"/>
  </g>
</svg>