<svg xmlns="http://www.w3.org/2000/svg" viewBox="0 0 84.0 109.0000000000001" width="84" height="109">
  <g transform="translate(6.00,1.00) scale(0.8200,0.8200)">
    <path d="M 0 100 L 0 15.37 L 13.66 15.37 L 13.66 0 L 43.18 0 L 43.18 10 L 51.22 10 L 51.22 16.1 L 43.18 16.1 L 43.18 26.1 L 51.22 26.1 L 51.22 32.19 L 43.18 32.19 L 43.18 42.19 L 13.66 42.19 L 13.66 27.8 L 12.45 27.8 L 12.45 87.56 L 87.55 87.56 L 87.55 27.8 L 86.34 27.8 L 86.34 42.19 L 54.64 42.19 L 54.64 29.76 L 62.68 29.76 L 62.68 28.54 L 54.64 28.54 L 54.64 13.66 L 62.68 13.66 L 62.68 12.44 L 54.64 12.44 L 54.64 0 L 86.34 0 L 86.34 15.37 L 100 15.37 L 100 100 L 0 100 L 0 100" fill="#FFFFFF" stroke="none" stroke-width="0.5"/>
  </g>
  <g transform="translate(5.00,0.00) scale(0.8400,0.8400)">
    <path d="M 84.29 2.38 L 84.29 17.38 L 97.62 17.38 L 97.62 97.62 L 2.38 97.62 L 2.38 17.38 L 15.71 17.38 L 15.71 2.38 L 42.14 2.38 L 42.14 12.14 L 50 12.14 L 50 15.71 L 42.14 15.71 L 42.14 28.1 L 50 28.1 L 50 31.67 L 42.14 31.67 L 42.14 41.43 L 15.71 41.43 L 15.71 27.38 L 12.14 27.38 L 12.14 88.33 L 88.1 88.33 L 88.1 27.14 L 84.52 27.14 L 84.52 41.19 L 55.95 41.19 L 55.95 31.43 L 63.81 31.43 L 63.81 27.86 L 55.95 27.86 L 55.95 15.71 L 63.81 15.71 L 63.81 12.14 L 55.95 12.14 L 55.95 2.38 L 84.29 2.38 L 84.29 2.38 M 86.66 0 L 84.29 0 L 55.71 0 L 53.34 0 L 53.34 2.38 L 53.34 12.14 L 53.34 14.52 L 53.34 15.71 L 53.34 28.1 L 53.34 30.48 L 53.34 31.67 L 53.34 41.43 L 53.34 43.81 L 55.71 43.81 L 84.29 43.81 L 85.48 43.81 L 85.48 85.71 L 14.52 85.71 L 14.52 43.57 L 15.71 43.57 L 42.14 43.57 L 44.52 43.57 L 44.52 41.19 L 44.52 33.81 L 50 33.81 L 52.38 33.81 L 52.38 31.43 L 52.38 27.86 L 52.38 25.48 L 50 25.48 L 44.52 25.48 L 44.52 18.1 L 50 18.1 L 52.38 18.1 L 52.38 15.71 L 52.38 12.14 L 52.38 9.76 L 50 9.76 L 44.52 9.76 L 44.52 2.38 L 44.52 0 L 42.14 0 L 15.71 0 L 13.34 0 L 13.34 2.38 L 13.34 15 L 2.38 15 L 0 15 L 0 17.38 L 0 97.62 L 0 100 L 2.38 100 L 97.62 100 L 100 100 L 100 97.62 L 100 17.38 L 100 15 L 97.62 15 L 86.66 15 L 86.66 2.38 L 86.66 0 L 86.66 0" fill="#FFFFFF" stroke="none" stroke-width="0.5"/>
  </g>
  <g transform="translate(7.00,2.00) scale(0.8000,0.8000)">
    <path d="M 86 15.75 L 86 0 L 56 0 L 56 10.25 L 64.25 10.25 L 64.25 14 L 56 14 L 56 27 L 64.25 27 L 64.25 30.75 L 56 30.75 L 56 41 L 86 41 L 86 26.25 L 89.75 26.25 L 89.75 90.25 L 10.25 90.25 L 10.25 26 L 14 26 L 14 40.75 L 41.75 40.75 L 41.75 30.5 L 50 30.5 L 50 26.75 L 41.75 26.75 L 41.75 14 L 50 14 L 50 10.25 L 41.75 10.25 L 41.75 0 L 14 0 L 14 15.75 L 0 15.75 L 0 100 L 100 100 L 100 15.75 L 86 15.75 L 86 15.75 M 82.49 37 L 59.75 37 L 59.75 34.25 L 67.99 34.25 L 67.99 23.25 L 59.75 23.25 L 59.75 17.5 L 67.99 17.5 L 67.99 6.5 L 59.75 6.5 L 59.75 3.75 L 82.49 3.75 L 82.49 37 L 82.49 37 M 38.01 37 L 17.51 37 L 17.51 3.75 L 37.76 3.75 C 38.01,3.75 38.01,37 38.01,37 L 38.01 37 M 96.25 96.25 L 3.75 96.25 L 3.75 19.5 L 14 19.5 L 14 22.25 L 6.51 22.25 L 6.51 93.5 L 93.49 93.5 L 93.49 22.25 L 86 22.25 L 86 19.5 L 96.25 19.5 L 96.25 96.25 L 96.25 96.25" fill="#2d5967" stroke="none" stroke-width="0.5"/>
  </g>
</svg>