<svg xmlns="http://www.w3.org/2000/svg" viewBox="0 0 84.0 104.0000000000001" width="84" height="104">
  <g transform="translate(56.00,59.00) scale(0.2000,0.2000)">
    <path d="M 53.7 89.27 L 49.58 89.27 C 47.89,89.43 46.2,89.43 44.46,89.27 L 38.54 99.9 L 21.07 92.38 L 24.71 80.76 C 22.33,78.85 20.17,76.66 18.27,74.25 L 6.6 77.55 L 0 59.62 L 10.03 54 C 9.71,50.98 9.71,47.92 10.03,44.89 L 0 38.98 L 7.55 21.44 L 19.27 25.15 C 21.17,22.77 23.39,20.62 25.82,18.74 L 22.39 7.01 L 40.18 0 L 45.78 10.72 L 49.68 10.72 C 51.43,10.57 53.17,10.57 54.91,10.72 L 60.93 0.1 L 78.41 7.61 L 74.82 19.24 C 77.19,21.13 79.3,23.32 81.15,25.75 L 92.87 22.45 L 100 40.18 L 88.97 46.19 C 89.33,49.22 89.33,52.28 88.97,55.31 L 99.63 61.22 L 92.08 78.76 L 80.31 74.85 C 78.35,77.23 76.14,79.38 73.71,81.26 L 77.14 92.98 L 59.35 100 L 53.7 89.27 L 53.7 89.27" fill="#FFFFFF" stroke="none" stroke-width="0.5"/>
  </g>
  <g transform="translate(54.00,57.00) scale(0.2200,0.2200)">
    <path d="M 39.28 11.04 L 40.97 14.25 L 43.93 19.86 L 45.72 19.86 L 49.81 19.86 C 52.21,19.85 54.56,20.13 56.91,20.66 L 61.71 11.76 L 69.94 15.32 L 66.93 24.85 C 70.51,27.15 73.57,30.19 75.87,33.75 L 85.51 30.99 L 88.85 39.27 L 79.87 43.9 C 79.87,44.53 79.87,45.15 79.87,45.77 C 80.43,49.45 80.24,53.2 79.35,56.81 L 88.29 61.71 L 84.81 69.9 L 75.16 66.87 C 74.88,67.41 74.55,67.92 74.18,68.39 C 71.87,71.35 69.1,73.88 65.95,75.87 L 68.63 85.49 L 60.3 88.78 L 55.64 79.87 L 53.86 79.87 C 52.45,80.01 50.99,80.01 49.58,79.87 C 47.22,79.88 44.92,79.61 42.66,79.07 L 37.86 87.98 L 29.63 84.51 L 32.55 75.51 L 31.04 74.44 C 28.08,72.17 25.59,69.4 23.61,66.25 L 14.68 68.92 L 11.38 60.73 L 20.32 56.1 C 20.32,55.48 20.32,54.85 20.32,54.23 C 19.8,50.55 19.99,46.8 20.84,43.19 L 11.9 38.29 L 15.38 30.1 L 25.07 33.13 C 27.38,29.57 30.43,26.54 34.01,24.22 L 32.55 18.88 L 31.33 14.52 L 33.11 13.81 L 38.01 11.85 L 39.65 11.22 L 39.28 11.04 L 39.28 11.04 M 43.84 0 L 36.31 2.94 L 34.71 3.56 L 29.77 5.52 L 27.99 6.24 L 20.51 9.18 L 22.72 16.92 L 23.8 20.66 C 23.05,21.33 22.34,22.04 21.64,22.8 L 17.83 21.64 L 10.11 19.24 L 6.96 26.63 L 3.39 34.73 L 0.19 42.12 L 7.24 46.04 L 10.63 48 L 10.63 51.03 L 7.15 52.81 L 0 56.55 L 3.06 64.03 L 6.26 72.31 L 9.31 79.7 L 17.07 77.56 L 20.84 76.49 L 23 78.63 L 21.73 82.37 L 19.33 90.03 L 26.76 93.23 L 35 96.71 L 42.43 99.91 L 46.33 92.88 L 48.21 89.49 L 51.27 89.49 L 53.15 92.88 L 56.82 100 L 64.35 97.06 L 72.62 93.77 L 80.15 90.83 L 77.28 83.17 L 76.2 79.43 L 78.46 77.29 L 82.22 78.45 L 89.89 80.85 L 93.04 73.46 L 96.61 65.27 L 99.86 57.97 L 92.76 54.05 L 89.37 52.09 L 89.37 49.07 L 92.85 47.29 L 100 43.55 L 96.99 36.06 L 93.74 27.78 L 90.97 19.95 L 83.21 22.17 L 79.44 23.24 L 77.28 21.46 L 78.55 17.72 L 80.95 10.07 L 73.52 6.86 L 65.29 3.38 L 57.9 0.18 L 53.95 7.22 L 52.07 10.6 L 49.01 10.6 L 47.32 7.39 L 43.65 0.27 L 43.84 0 L 43.84 0" fill="#FFFFFF" stroke="none" stroke-width="0.5"/>
  </g>
  <g transform="translate(13.00,0.00) scale(0.8200,0.6900)">
    <path d="M 19.74 99.99 C 19,100 18.26,99.84 17.58,99.51 C 16.89,99.18 16.26,98.69 15.72,98.08 C 14.66,96.77 14.06,95.03 14.06,93.21 C 14.06,91.38 14.66,89.64 15.72,88.33 C 16.26,87.67 16.89,87.14 17.61,86.78 C 18.31,86.42 19.08,86.24 19.85,86.25 L 20.36 86.25 L 21.61 84.71 C 24.2,81.58 29.44,75.29 33.19,70.62 C 32.7,69.63 32.22,68.59 32,68.01 C 31.77,67.43 31.7,67.28 31.57,66.91 L 25.47 66.12 L 25.47 61.05 L 0 61.05 L 0.27 56.76 C 0.59,51.89 1.96,47.2 4.24,43.14 C 6.52,39.08 9.64,35.78 13.29,33.56 C 14.07,33.06 14.74,32.34 15.24,31.48 C 15.75,30.61 16.08,29.62 16.21,28.58 C 17.04,23.56 19.3,19.05 22.61,15.81 C 25.93,12.56 30.09,10.8 34.38,10.8 C 34.94,10.76 35.52,10.76 36.08,10.8 L 36.67 10.8 C 37.44,10.81 38.19,10.63 38.9,10.27 C 39.6,9.91 40.23,9.38 40.76,8.72 C 42.88,5.99 45.45,3.81 48.31,2.31 C 51.18,0.81 54.26,0.03 57.39,0.02 C 61.6,0 65.74,1.39 69.32,4.03 C 72.91,6.67 75.8,10.45 77.67,14.95 C 78.03,15.97 78.59,16.88 79.31,17.59 C 80.01,18.31 80.86,18.81 81.77,19.07 C 85.26,20.01 88.53,21.89 91.31,24.58 C 94.08,27.27 96.31,30.68 97.8,34.56 C 99.28,38.44 100,42.68 99.9,46.94 C 99.78,51.2 98.85,55.38 97.16,59.14 L 96.24 61.2 L 74.88 61.2 L 74.88 66.27 L 69.76 66.97 L 72.97 71.75 L 62.28 84.51 L 58.25 80.65 L 57.68 86.77 L 42.51 86.77 L 41.83 79.49 L 40.69 78.82 L 40.08 78.3 C 39.4,77.88 38.73,77.41 38.1,76.88 C 34.38,81.52 29.12,87.84 26.68,90.77 L 25.36 92.36 C 25.47,93.37 25.38,94.38 25.11,95.34 C 24.84,96.3 24.39,97.17 23.82,97.9 C 23.29,98.56 22.65,99.08 21.96,99.44 C 21.25,99.8 20.5,99.99 19.74,99.99 L 19.74 99.99" fill="#FFFFFF" stroke="none" stroke-width="0.5"/>
  </g>
  <g transform="translate(12.00,0.00) scale(0.8400,0.7100)">
    <path d="M 57.24 2.83 C 61.14,2.81 64.96,4.09 68.26,6.53 C 71.59,8.97 74.26,12.46 75.98,16.61 C 76.44,17.72 77.1,18.69 77.93,19.45 C 78.75,20.21 79.71,20.75 80.72,21.01 C 83.13,21.66 85.43,22.78 87.52,24.34 C 92.12,27.77 95.46,33.16 96.84,39.4 C 98.23,45.65 97.55,52.29 94.97,57.97 L 94.41 59.24 L 73.03 59.24 L 73.03 64.35 L 67.45 65.08 L 67.27 65.59 L 70.77 70.84 L 61.85 81.46 L 57.45 77.25 L 57 77.48 L 56.39 84.14 L 43.83 84.14 L 43.21 77.48 C 42.65,77.22 42.08,76.92 41.55,76.57 L 40.96 76.24 C 40.05,75.65 39.18,74.98 38.34,74.23 C 34.64,78.83 28.85,85.78 26.47,88.74 L 25.14 90.35 L 24.88 90.69 L 24.88 91.11 C 24.99,91.91 24.94,92.72 24.74,93.49 C 24.54,94.26 24.21,94.96 23.75,95.55 C 23.33,96.03 22.86,96.42 22.32,96.68 C 21.79,96.94 21.22,97.08 20.65,97.08 C 20.06,97.08 19.5,96.94 18.96,96.68 C 18.44,96.42 17.95,96.03 17.54,95.55 C 16.73,94.55 16.27,93.2 16.27,91.81 C 16.27,90.41 16.73,89.07 17.54,88.07 C 17.95,87.55 18.44,87.15 18.99,86.87 C 19.53,86.59 20.11,86.45 20.7,86.46 L 21.25 86.46 L 21.64 86.46 L 21.91 86.15 L 23.1 84.71 C 25.78,81.49 31.34,74.82 34.97,70.19 C 34.38,69.01 33.65,67.54 33.41,66.86 C 33.17,66.19 32.93,65.68 32.72,65.08 L 27.12 64.35 L 27.12 59.3 L 2.56 59.3 L 2.73 56.7 C 3,52.19 4.22,47.83 6.3,44.04 C 8.38,40.25 11.24,37.15 14.61,35.04 C 15.52,34.48 16.32,33.69 16.94,32.71 C 17.57,31.73 18,30.6 18.21,29.4 C 18.73,26.23 19.89,23.26 21.59,20.74 C 23.28,18.21 25.46,16.22 27.94,14.92 C 30.09,13.81 32.4,13.23 34.73,13.22 L 36.3 13.22 L 36.99 13.22 C 37.88,13.21 38.76,12.98 39.58,12.55 C 40.4,12.13 41.12,11.51 41.74,10.74 C 43.72,8.22 46.13,6.21 48.79,4.85 C 51.46,3.49 54.34,2.8 57.24,2.83 L 57.24 2.83 M 57.24 0.01 C 54.03,0.01 50.87,0.8 47.93,2.33 C 44.99,3.85 42.35,6.08 40.17,8.87 C 39.78,9.38 39.29,9.78 38.75,10.05 C 38.23,10.32 37.64,10.46 37.07,10.45 L 36.59 10.45 C 35.99,10.41 35.41,10.41 34.81,10.45 C 30.35,10.46 26.03,12.31 22.6,15.68 C 19.15,19.04 16.8,23.72 15.93,28.92 C 15.79,29.71 15.52,30.46 15.11,31.1 C 14.69,31.75 14.16,32.28 13.56,32.65 C 9.84,34.95 6.67,38.35 4.36,42.52 C 2.05,46.69 0.67,51.49 0.36,56.47 L 0.19 59.1 L 0 62.12 L 24.81 62.12 L 24.81 66.92 L 26.93 67.2 L 31.17 67.77 L 31.36 68.19 C 31.51,68.61 31.79,69.23 32.07,69.86 C 28.49,74.32 23.6,80.1 21.37,82.73 L 20.51 83.77 C 19.6,83.77 18.7,83.99 17.87,84.41 C 17.03,84.84 16.27,85.47 15.64,86.26 C 14.41,87.81 13.73,89.89 13.76,92.03 C 13.8,94.17 14.53,96.22 15.82,97.72 C 17.08,99.19 18.79,100 20.56,99.98 C 21.46,99.98 22.36,99.76 23.2,99.34 C 24.02,98.91 24.78,98.3 25.41,97.52 C 26.04,96.75 26.53,95.83 26.85,94.83 C 27.18,93.83 27.33,92.75 27.3,91.68 L 28.11 90.72 C 30.32,88.07 35.04,82.25 38.68,77.87 C 39.08,78.19 39.48,78.48 39.89,78.72 L 40.36 79.06 L 40.91 79.37 L 41.39 84.42 L 41.62 86.94 L 58.5 86.94 L 58.74 84.42 L 58.93 82.28 L 60.35 83.63 L 62 85.21 L 63.51 83.41 L 72.43 72.79 L 73.93 71.01 L 72.61 69.04 L 71.46 67.37 L 73.27 67.12 L 75.38 66.83 L 75.38 62.12 L 95.73 62.12 L 96.39 60.65 L 96.97 59.38 C 98.73,55.54 99.73,51.26 99.86,46.88 C 100,42.51 99.28,38.15 97.75,34.17 C 96.23,30.18 93.95,26.67 91.09,23.91 C 88.23,21.15 84.87,19.22 81.27,18.27 C 80.6,18.11 79.96,17.77 79.41,17.28 C 78.85,16.8 78.4,16.17 78.06,15.45 C 76.17,10.81 73.2,6.91 69.53,4.17 C 65.84,1.44 61.59,0 57.24,0.01 L 57.24 0.01" fill="#FFFFFF" stroke="none" stroke-width="0.5"/>
  </g>
  <g transform="translate(35.00,21.00) scale(0.3800,0.3800)">
    <path d="M 87.63 33.8 L 95.29 24.24 L 75.8 4.81 L 66.21 12.45 L 65.01 12.2 L 63.68 0 L 36.32 0 L 34.96 12.2 L 34.03 12.56 L 24.44 4.91 L 4.96 24.34 L 12.64 33.8 C 12.64,34.11 12.37,34.47 12.21,34.78 L 0 36.12 L 0 63.62 L 12.21 64.96 C 12.7,66.05 13.16,67.18 13.73,68.22 L 15.8 66.05 C 17.47,63.65 18.64,60.94 19.26,58.09 L 18.86 56.74 L 8.91 55.66 L 8.91 44.13 L 18.86 43.05 L 19.73 40.26 C 20.27,38.47 20.95,36.74 21.8,35.09 L 23.11 32.51 L 16.89 24.75 L 25.07 16.59 L 32.89 22.79 L 35.48 21.45 C 37.14,20.61 38.88,19.92 40.68,19.38 L 43.41 18.5 L 44.31 8.89 L 55.91 8.89 L 57.03 18.76 L 59.78 19.64 C 61.58,20.19 63.3,20.88 64.96,21.7 L 67.57 23.05 L 75.34 16.85 L 83.57 25.01 L 77.3 32.76 L 78.66 35.35 C 79.48,37.01 80.16,38.74 80.74,40.52 L 81.61 43.31 L 91.5 44.39 L 91.5 55.97 L 81.61 57.05 L 80.57 59.64 C 80.03,61.41 79.32,63.14 78.5,64.81 L 77.14 67.34 L 83.38 75.14 L 75.4 83.1 L 67.6 76.9 L 65.01 78.19 C 63.35,79.04 61.63,79.73 59.84,80.26 L 57.08 81.14 L 55.97 91.06 L 44.31 91.06 L 43.22 81.14 L 40.46 80.31 C 39.86,80.13 39.26,79.93 38.69,79.69 C 36.29,80.28 34.09,81.47 32.26,83.15 L 30.05 85.48 L 31.34 86.15 C 32.51,86.77 33.73,87.33 34.96,87.8 L 36.32 100 L 63.9 100 L 65.01 87.75 L 65.99 87.34 L 75.59 95.04 L 95.07 75.61 L 87.41 65.99 L 87.82 65.06 L 100 63.72 L 100 36.23 L 87.82 34.88 C 87.87,34.57 87.77,34.21 87.63,33.8 L 87.63 33.8" fill="#2d5967" stroke="none" stroke-width="0.5"/>
  </g>
  <g transform="translate(25.00,35.00) scale(0.3300,0.3300)">
    <path d="M 57.02 50.98 L 60.3 47.65 C 66.28,42.62 73.96,39.92 81.85,40.03 C 86.44,39.58 90.77,37.59 94.08,34.4 C 97.36,31.21 99.46,27.01 100,22.49 L 87.9 30.52 C 86.72,31.31 85.32,31.73 83.89,31.71 C 82.94,31.69 81.98,31.49 81.12,31.11 C 78.13,29.38 75.71,26.81 74.21,23.74 C 72.43,21.34 71.25,18.57 70.77,15.65 C 70.77,14.47 71.06,13.31 71.63,12.28 C 72.21,11.24 73.03,10.35 74.02,9.7 L 86.98 1.2 C 84.91,0.53 82.74,0.21 80.58,0.25 C 75.17,0 69.88,1.76 65.74,5.18 C 62.08,9.3 59.95,14.49 59.69,19.93 C 59.22,26.82 56.73,33.43 52.53,38.96 L 49.63 42 L 48.84 42.83 C 39.38,52.58 24.61,66.91 18.02,73.76 L 14.58 77.26 L 13.44 77.62 L 12.45 77.62 L 11.3 77.62 C 9.81,77.61 8.31,77.91 6.91,78.49 C 5.54,79.07 4.3,79.93 3.25,81.01 C 1.15,83.12 0,85.95 0,88.89 C 0,91.83 1.15,94.66 3.25,96.77 C 4.3,97.8 5.51,98.61 6.88,99.16 C 8.21,99.72 9.68,100 11.14,100 C 12.61,100 14.07,99.72 15.44,99.16 C 16.78,98.61 18.02,97.8 19.04,96.77 C 20.25,95.54 21.14,94.05 21.65,92.42 C 22.16,90.79 22.29,89.06 22.03,87.37 L 22.03 86.48 L 22.7 85.77 L 26.07 82.38 C 32.66,75.54 47.63,60.67 57.02,50.98 L 57.02 50.98 M 15.66 91.89 L 10.89 93.86 L 6.69 90.76 L 7.35 85.71 L 12.23 83.69 L 16.33 86.84 L 15.66 91.89 L 15.66 91.89" fill="#2d5967" stroke="none" stroke-width="0.5"/>
  </g>
  <g transform="translate(52.00,38.00) scale(0.0400,0.0400)">
    <path d="M 60.88 5.24 L 50.12 0 L 0 24.6 L 0 40.73 L 0 64.11 L 0 74.6 L 10.76 80.24 L 40.59 95.16 L 49.88 100 L 99.51 75 L 100 60.48 L 100 25 L 60.88 5.24 L 60.88 5.24" fill="#2d5967" stroke="none" stroke-width="0.5"/>
  </g>
  <g transform="translate(57.00,60.00) scale(0.1700,0.1700)">
    <path d="M 34.5 1.02 L 28.19 3.53 L 25.9 4.44 L 27.52 10.01 L 29.33 16.72 C 24.76,19.68 20.91,23.56 17.91,28.1 L 5.11 24.35 L 0.66 34.81 L 12.08 41.07 C 11,45.69 10.76,50.47 11.42,55.18 C 11.42,55.97 11.42,56.77 11.42,57.56 L 0 63.48 L 4.21 74.06 L 16.53 70.54 C 19.11,74.57 22.36,78.11 26.14,81 L 28.06 82.37 L 24.34 94.54 L 34.86 98.98 L 40.99 87.6 C 43.87,88.28 46.81,88.62 49.82,88.62 C 51.62,88.79 53.49,88.79 55.29,88.62 L 57.57 88.62 L 63.52 100 L 74.16 95.79 L 70.73 83.51 C 74.76,80.97 78.31,77.73 81.25,73.95 C 81.73,73.35 82.15,72.7 82.51,72.02 L 94.83 75.88 L 99.28 65.41 L 87.86 59.16 C 89,54.55 89.24,49.75 88.52,45.05 C 88.52,44.26 88.52,43.46 88.52,42.66 L 100 36.75 L 95.73 26.17 L 83.41 29.7 C 80.47,25.14 76.56,21.26 72,18.31 L 75.84 6.14 L 65.32 1.59 L 59.19 12.97 C 54.51,11.57 49.64,11.03 44.77,11.38 L 42.49 11.38 L 38.7 4.21 L 36.54 0 L 34.5 1.02 L 34.5 1.02 M 47.54 30.49 C 52.64,29.77 57.87,31.12 62.08,34.23 C 66.23,37.35 68.93,41.97 69.71,47.1 C 70.07,49.64 69.89,52.24 69.23,54.71 C 68.57,57.2 67.37,59.52 65.81,61.55 C 64.3,63.63 62.38,65.38 60.16,66.69 C 57.93,68.01 55.47,68.85 52.88,69.17 C 50.24,69.71 47.54,69.71 44.89,69.17 C 42.25,68.62 39.78,67.54 37.56,65.99 C 35.4,64.45 33.53,62.47 32.09,60.18 C 30.71,57.89 29.81,55.34 29.45,52.69 C 29.09,50.03 29.27,47.33 29.99,44.75 C 30.71,42.17 31.97,39.77 33.65,37.68 C 35.34,35.6 37.44,33.89 39.84,32.65 C 42.19,31.41 44.83,30.68 47.54,30.49 L 47.54 30.49" fill="#2d5967" stroke="none" stroke-width="0.5"/>
  </g>
  <g transform="translate(64.00,67.00) scale(0.0300,0.0300)">
    <path d="M 74.93 100 L 100 50.02 L 74.93 0 L 25.07 0 L 0 50.02 L 25.07 100 L 74.93 100 L 74.93 100" fill="#2d5967" stroke="none" stroke-width="0.5"/>
  </g>
  <g transform="translate(14.00,2.00) scale(0.8100,0.4000)">
    <path d="M 88.81 38.12 C 86.61,35.35 84.2,33.36 81.68,32.22 C 80.61,31.75 79.62,30.81 78.76,29.46 C 77.9,28.11 77.21,26.39 76.73,24.43 C 74.91,17.08 72.13,10.89 68.66,6.58 C 65.21,2.27 61.21,0 57.14,0.03 C 54.14,0.05 51.15,1.3 48.4,3.73 C 45.65,6.15 43.17,9.69 41.12,14.13 C 40.38,15.7 39.48,16.91 38.47,17.65 C 37.47,18.4 36.4,18.66 35.33,18.43 C 32.35,17.89 29.35,18.87 26.6,21.28 C 24.01,23.58 21.72,27.12 19.95,31.58 C 18.19,36.05 16.97,41.31 16.43,46.92 C 16.22,49.05 15.76,51.05 15.11,52.78 C 14.46,54.51 13.62,55.92 12.65,56.91 C 9.15,60.64 6.16,66.12 3.98,72.83 C 1.81,79.54 0.52,87.26 0.25,95.25 L 0 100 L 22.56 100 L 22.56 91.3 L 4.76 91.3 C 5.32,85.64 6.5,80.3 8.22,75.68 C 9.94,71.06 12.15,67.28 14.69,64.61 C 16.22,63.02 17.55,60.74 18.58,57.96 C 19.61,55.19 20.31,51.97 20.65,48.57 C 21.06,44.32 21.98,40.34 23.33,36.96 C 24.67,33.59 26.39,30.91 28.36,29.17 C 30.44,27.33 32.71,26.58 34.96,26.97 C 36.67,27.34 38.4,26.9 40.01,25.69 C 41.62,24.49 43.07,22.55 44.24,20.03 C 45.9,16.46 47.89,13.61 50.11,11.65 C 52.33,9.7 54.72,8.69 57.14,8.68 C 60.42,8.63 63.63,10.44 66.41,13.91 C 69.2,17.38 71.44,22.35 72.88,28.27 C 73.66,31.4 74.77,34.13 76.14,36.27 C 77.51,38.42 79.1,39.92 80.8,40.67 C 82.83,41.64 84.77,43.34 86.52,45.67 C 90.22,50.38 92.94,57.62 94.21,66.06 C 95.46,74.5 95.16,83.57 93.37,91.6 L 76.92 91.6 L 76.92 100 L 95.97 100 L 96.57 97.75 C 99.28,87.69 100,75.92 98.55,64.83 C 97.12,53.75 93.62,44.2 88.81,38.12 L 88.81 38.12" fill="#2d5967" stroke="none" stroke-width="0.5"/>
  </g>
</svg>