<svg xmlns="http://www.w3.org/2000/svg" viewBox="0 0 84.0 116.00000000000007" width="84" height="116">
  <g transform="translate(19.00,4.00) scale(0.4300,0.6600)">
    <path d="M 9.17 99.72 C 4.17,99.72 0,96.97 0,93.66 L 0 6.06 C 0,2.75 4.17,0 9.17,0 L 90.83 0 C 95.83,0 100,2.75 100,6.06 L 100 93.94 C 100,97.24 95.83,100 90.83,100 L 9.17 99.72 L 9.17 99.72" fill="#FFFFFF" stroke="none" stroke-width="0.5"/>
  </g>
  <g transform="translate(19.00,4.00) scale(0.4500,0.6700)">
    <path d="M 89.6 2.68 C 93.2,2.68 96.4,4.83 96.4,7.24 L 96.4 92.76 C 96.4,95.17 93.2,97.32 89.6,97.32 L 10.8 97.32 C 7.2,97.32 4,95.17 4,92.76 L 4 7.24 C 4,4.83 7.2,2.68 10.8,2.68 L 89.6 2.68 L 89.6 2.68 M 89.6 0 L 10.8 0 C 4.8,0 0,3.22 0,7.24 L 0 92.76 C 0,96.78 4.8,100 10.8,100 L 89.2 100 C 95.2,100 100,96.78 100,92.76 L 100 7.24 C 100,3.22 95.2,0 89.6,0 L 89.6 0" fill="#FFFFFF" stroke="none" stroke-width="0.5"/>
  </g>
  <g transform="translate(0.00,0.00) scale(0.1900,0.7400)">
    <path d="M 77.07 100 C 59.63,100 47.71,98.78 40.37,96.83 C 33.03,94.63 29.36,91.22 29.36,86.34 L 29.36 57.8 L 0 51.71 L 0 48.29 L 29.36 42.19 L 29.36 13.9 C 29.36,9.02 33.03,5.61 40.37,3.41 C 47.71,1.22 59.63,0 76.15,0 L 77.98 0 C 83.49,0 88.99,0 95.41,0.24 L 99.08 0.49 L 99.08 6.1 L 97.25 6.1 L 91.75 6.1 C 88.99,6.1 86.24,6.1 83.49,5.85 C 81.65,5.85 78.9,5.85 77.07,5.85 C 70.64,5.61 64.22,6.1 60.55,7.07 C 57.8,7.8 55.05,9.27 55.05,13.66 L 55.05 44.88 L 28.44 50 L 55.05 55.37 L 55.05 86.58 C 55.05,90.73 57.8,92.44 60.55,92.93 C 64.22,93.9 70.64,94.39 77.98,94.39 C 79.82,94.39 81.65,94.39 84.4,94.39 C 87.15,94.39 89.91,94.39 92.66,94.15 L 98.17 94.15 L 100 94.15 L 100 99.76 L 96.33 99.76 C 89.91,100 84.4,100 78.9,100 C 77.98,100 77.07,100 77.07,100 L 77.07 100" fill="#FFFFFF" stroke="none" stroke-width="0.5"/>
  </g>
  <g transform="translate(0.00,0.00) scale(0.2100,0.7600)">
    <path d="M 76.27 2.38 C 81.36,2.38 86.44,2.38 91.53,2.62 L 91.53 5.71 C 90.68,5.71 90.68,5.71 89.83,5.71 C 87.29,5.71 84.74,5.71 82.2,5.48 C 79.66,5.48 77.97,5.48 76.27,5.48 C 67.79,5.48 61.86,6.19 56.78,7.14 C 52.54,8.33 50.85,10.71 50.85,14.52 L 50.85 44.29 L 22.88 50 L 50.85 55.71 L 50.85 85.48 C 50.85,89.05 53.39,91.43 57.63,92.62 C 61.86,93.81 67.79,94.52 76.27,94.52 C 77.97,94.52 79.66,94.52 82.2,94.52 C 84.74,94.52 87.29,94.52 89.83,94.29 C 90.68,94.29 90.68,94.29 91.53,94.29 L 91.53 97.38 C 85.59,97.62 80.51,97.62 76.27,97.62 L 75.42 97.62 L 74.58 97.62 C 60.17,97.62 50.85,96.67 44.91,94.76 C 38.98,92.86 36.44,89.76 36.44,85.24 L 36.44 57.14 L 8.47 51.19 L 8.47 49.05 L 35.59 42.86 L 35.59 14.76 C 35.59,10.24 38.14,7.14 44.07,5.24 C 50.85,3.33 60.17,2.38 74.58,2.38 L 75.42 2.38 C 75.42,2.38 75.42,2.38 76.27,2.38 L 76.27 2.38 M 76.27 0 L 74.58 0 C 57.63,0 45.76,1.19 38.14,3.57 C 31.36,5.95 27.12,9.52 27.12,14.76 L 27.12 41.67 L 3.39 46.9 L 0 47.86 L 0 49.05 L 0 51.19 L 0 52.38 L 3.39 53.1 L 27.12 58.33 L 27.12 85.24 C 27.12,90.48 30.51,94.05 38.14,96.43 C 45.76,98.81 57.63,100 74.58,100 L 75.42 100 L 76.27 100 C 81.36,100 86.44,100 92.37,99.76 L 100 99.52 L 100 97.38 L 100 94.29 L 100 91.67 L 98.31 91.67 L 88.99 91.9 C 86.44,91.9 83.9,91.9 81.36,92.14 C 79.66,92.14 77.12,92.14 76.27,92.14 C 70.34,92.14 65.25,91.67 62.71,90.95 C 61.86,90.71 58.47,89.52 58.47,85.48 L 58.47 55.71 L 58.47 54.52 L 55.09 53.81 L 37.29 50 L 55.93 46.19 L 59.32 45.48 L 59.32 44.29 L 59.32 14.52 C 59.32,10.24 62.71,9.29 63.56,9.05 C 66.1,8.33 70.34,7.86 76.27,7.86 C 77.97,7.86 79.66,7.86 81.36,7.86 C 83.9,7.86 86.44,7.86 88.99,8.1 L 98.31 8.33 L 100 8.33 L 100 5.71 L 100 2.62 L 100 0.48 L 93.22 0.24 C 86.44,0 81.36,0 76.27,0 L 76.27 0" fill="#FFFFFF" stroke="none" stroke-width="0.5"/>
  </g>
  <g transform="translate(64.00,0.00) scale(0.1900,0.7400)">
    <path d="M 21.7 100 C 16.04,100 10.38,100 3.77,99.76 L 0 99.76 L 0 93.9 L 4.72 93.9 C 7.55,93.9 10.38,93.9 13.21,94.15 C 16.04,94.15 18.87,94.15 20.75,94.15 C 29.24,94.15 35.85,93.66 39.62,92.68 C 42.45,91.95 45.28,90.49 45.28,86.34 L 45.28 55.37 L 72.64 50 L 45.28 44.63 L 45.28 13.66 C 45.28,9.51 42.45,7.8 39.62,7.07 C 35.85,6.1 29.24,5.61 20.75,5.61 C 18.87,5.61 16.04,5.61 13.21,5.61 C 10.38,5.61 7.55,5.61 4.72,5.85 L 0 5.85 L 0 0.49 L 3.77 0.24 C 10.38,0 16.04,0 21.7,0 C 38.68,0 50.94,1.22 58.49,3.41 C 66.04,5.61 69.81,9.02 69.81,13.9 L 69.81 42.19 L 100 48.29 L 100 51.71 L 69.81 57.8 L 69.81 86.1 C 69.81,90.97 66.04,94.39 58.49,96.58 C 50.94,98.78 38.68,100 21.7,100 L 21.7 100" fill="#FFFFFF" stroke="none" stroke-width="0.5"/>
  </g>
  <g transform="translate(63.00,0.00) scale(0.2100,0.7600)">
    <path d="M 24.79 2.38 C 39.32,2.38 48.72,3.33 54.7,5.24 C 60.68,7.14 63.25,10.24 63.25,14.76 L 63.25 42.86 L 90.6 48.81 L 90.6 50.95 L 63.25 57.14 L 63.25 85.24 C 63.25,89.76 60.68,92.86 54.7,94.76 C 48.72,96.67 38.46,97.62 24.79,97.62 C 20.51,97.62 14.53,97.62 9.4,97.38 L 9.4 94.29 C 11.96,94.29 14.53,94.29 17.09,94.52 C 19.66,94.52 22.22,94.52 23.93,94.52 C 32.48,94.52 39.32,94.05 43.59,92.86 C 47.86,91.67 50.42,89.29 50.42,85.71 L 50.42 55.71 L 77.78 50 L 50.42 44.29 L 50.42 14.52 C 50.42,10.95 47.86,8.33 43.59,7.38 C 39.32,6.19 32.48,5.71 23.93,5.71 C 22.22,5.71 19.66,5.71 17.09,5.71 C 14.53,5.71 11.96,5.71 9.4,5.95 L 9.4 2.62 C 14.53,2.38 19.66,2.38 24.79,2.38 L 24.79 2.38 M 24.79 0 C 19.66,0 14.53,0 7.69,0.24 L 0 0.48 L 0 2.62 L 0 5.71 L 0 8.33 L 9.4 8.1 C 11.96,8.1 13.68,8.1 17.09,7.86 C 19.66,7.86 22.22,7.86 23.93,7.86 C 30.77,7.86 35.04,8.33 38.46,9.05 C 39.32,9.29 42.73,10.24 42.73,14.52 L 42.73 44.29 L 42.73 45.48 L 46.15 46.19 L 64.96 50 L 46.15 53.81 L 42.73 54.52 L 42.73 55.71 L 42.73 85.48 C 42.73,89.52 39.32,90.71 38.46,90.95 C 35.9,91.67 30.77,92.14 23.93,92.14 C 22.22,92.14 19.66,92.14 17.09,92.14 C 14.53,92.14 11.96,92.14 9.4,91.9 L 0 91.67 L 0 94.29 L 0 97.38 L 0 99.52 L 7.69 99.76 C 13.68,100 19.66,100 24.79,100 C 41.88,100 53.85,98.81 61.54,96.43 C 69.23,94.05 72.65,90.48 72.65,85.24 L 72.65 58.33 L 96.58 53.1 L 100 52.38 L 100 51.19 L 100 49.05 L 100 47.86 L 96.58 47.14 L 72.65 41.9 L 72.65 14.76 C 72.65,9.52 69.23,5.95 61.54,3.57 C 52.99,1.19 41.03,0 24.79,0 L 24.79 0" fill="#FFFFFF" stroke="none" stroke-width="0.5"/>
  </g>
  <g transform="translate(20.00,5.00) scale(0.4100,0.6400)">
    <path d="M 93.04 0 L 7.39 0 C 3.48,0 0,2.27 0,4.82 L 0 95.18 C 0,97.73 3.48,100 7.39,100 L 92.61 100 C 96.52,100 100,97.73 100,95.18 L 100 4.82 C 100,1.98 96.96,0 93.04,0 L 93.04 0 M 93.91 94.9 C 93.91,95.18 93.48,95.47 93.04,95.47 L 7.39 95.47 C 6.96,95.47 6.52,95.18 6.52,94.9 L 6.52 4.82 C 6.52,4.53 6.96,4.25 7.39,4.25 L 92.61 4.25 C 93.04,4.25 93.48,4.53 93.48,4.82 L 93.91 94.9 L 93.91 94.9" fill="#2d5967" stroke="none" stroke-width="0.5"/>
  </g>
  <g transform="translate(25.00,10.00) scale(0.3200,0.1200)">
    <path d="M 0 100 L 100 100 L 100 0 L 0 0 L 0 100 L 0 100 M 7.87 22.73 L 91.01 22.73 L 91.01 78.79 L 7.87 78.79 L 7.87 22.73 L 7.87 22.73" fill="#2d5967" stroke="none" stroke-width="0.5"/>
  </g>
  <g transform="translate(50.00,14.00) scale(0.0200,0.0200)">
    <path d="M 50 100 C 77.62,100 100,77.61 100,50 C 100,22.39 77.62,0 50,0 C 22.38,0 0,22.39 0,50 C 0,77.61 22.38,100 50,100 L 50 100" fill="#2d5967" stroke="none" stroke-width="0.5"/>
  </g>
  <g transform="translate(25.00,24.00) scale(0.3200,0.1200)">
    <path d="M 0 100 L 100 100 L 100 0 L 0 0 L 0 100 L 0 100 M 7.87 22.39 L 91.01 22.39 L 91.01 79.1 L 7.87 79.1 L 7.87 22.39 L 7.87 22.39" fill="#2d5967" stroke="none" stroke-width="0.5"/>
  </g>
  <g transform="translate(50.00,29.00) scale(0.0200,0.0200)">
    <path d="M 50 100 C 77.62,100 100,77.61 100,50 C 100,22.39 77.62,0 50,0 C 22.38,0 0,22.39 0,50 C 0,77.61 22.38,100 50,100 L 50 100" fill="#2d5967" stroke="none" stroke-width="0.5"/>
  </g>
  <g transform="translate(25.00,38.00) scale(0.3200,0.1200)">
    <path d="M 0 100 L 100 100 L 100 0 L 0 0 L 0 100 L 0 100 M 7.87 22.39 L 91.01 22.39 L 91.01 77.61 L 7.87 77.61 L 7.87 22.39 L 7.87 22.39" fill="#2d5967" stroke="none" stroke-width="0.5"/>
  </g>
  <g transform="translate(50.00,43.00) scale(0.0200,0.0200)">
    <path d="M 50 100 C 77.62,100 100,77.62 100,50.01 C 100,22.38 77.62,0 50,0 C 22.38,0 0,22.38 0,50.01 C 0,77.62 22.38,100 50,100 L 50 100" fill="#2d5967" stroke="none" stroke-width="0.5"/>
  </g>
  <g transform="translate(25.00,52.00) scale(0.3200,0.1200)">
    <path d="M 0 100 L 100 100 L 100 0 L 0 0 L 0 100 L 0 100 M 7.87 22.39 L 91.01 22.39 L 91.01 77.61 L 7.87 77.61 L 7.87 22.39 L 7.87 22.39" fill="#2d5967" stroke="none" stroke-width="0.5"/>
  </g>
  <g transform="translate(50.00,57.00) scale(0.0200,0.0200)">
    <path d="M 50 100 C 77.62,100 100,77.62 100,50 C 100,22.38 77.62,0 50,0 C 22.38,0 0,22.38 0,50 C 0,77.62 22.38,100 50,100 L 50 100" fill="#2d5967" stroke="none" stroke-width="0.5"/>
  </g>
  <g transform="translate(1.00,1.00) scale(0.1700,0.7200)">
    <path d="M 80.61 0 C 80.61,0 79.59,0 80.61,0 C 62.24,0 51.02,1 43.88,3 C 36.74,5 33.68,8.25 33.68,13 L 33.68 42.5 L 0 48.75 L 0 51 L 32.66 57.5 L 32.66 87 C 32.66,91.75 35.72,95 42.86,97 C 51.02,99 62.24,100 79.59,100 L 80.61 100 L 81.63 100 C 87.75,100 93.87,100 100,99.75 L 100 96.5 C 98.98,96.5 98.98,96.5 97.96,96.5 C 94.89,96.5 91.83,96.5 88.77,96.75 C 85.71,96.75 83.67,96.75 81.63,96.75 C 71.43,96.75 63.26,96.25 58.16,95 C 53.06,93.75 50,91.25 50,87.5 L 50 56 L 17.35 50 L 51.02 44 L 51.02 12.75 C 51.02,9 54.08,6.25 59.18,5.25 C 64.28,4 71.43,3.25 81.63,3.25 C 83.67,3.25 85.71,3.25 88.77,3.25 C 91.83,3.25 94.89,3.25 97.96,3.5 C 98.98,3.5 98.98,3.5 100,3.5 L 100 0.25 C 92.85,0 86.73,0 81.63,0 C 80.61,0 80.61,0 80.61,0 L 80.61 0" fill="#2d5967" stroke="none" stroke-width="0.5"/>
  </g>
  <g transform="translate(64.00,1.00) scale(0.1700,0.7200)">
    <path d="M 66.31 42.71 L 66.31 13.07 C 66.31,8.29 63.16,5.03 55.79,3.02 C 48.42,1 35.79,0 18.95,0 C 13.69,0 6.32,0 0,0.25 L 0 3.52 C 3.16,3.52 6.32,3.52 9.48,3.27 C 12.63,3.27 15.79,3.27 17.9,3.27 C 28.42,3.27 36.84,3.77 42.1,5.03 C 47.37,6.28 50.52,8.79 50.52,12.56 L 50.52 43.97 L 84.21 50 L 50.52 56.03 L 50.52 87.44 C 50.52,91.21 47.37,93.72 42.1,94.98 C 36.84,96.23 28.42,96.73 17.9,96.73 C 15.79,96.73 12.63,96.73 9.48,96.73 C 6.32,96.73 3.16,96.73 0,96.48 L 0 99.75 C 7.37,100 13.69,100 18.95,100 C 36.84,100 48.42,98.99 55.79,96.98 C 63.16,94.98 66.31,91.71 66.31,86.93 L 66.31 57.79 L 100 51.51 L 100 49.25 L 66.31 42.71 L 66.31 42.71" fill="#2d5967" stroke="none" stroke-width="0.5"/>
  </g>
</svg>