<svg xmlns="http://www.w3.org/2000/svg" viewBox="0 0 84.0 108.00000000000004" width="84" height="108">
  <g transform="translate(51.00,9.00) scale(0.2900,0.1600)">
    <path d="M 0 100 L 0 0 L 100 0 L 100 60.71 L 81.2 60.71 C 76.5,60.71 72.46,67.86 72.46,76.19 L 72.46 100 L 0 100 L 0 100" fill="#FFFFFF" stroke="none" stroke-width="0.5"/>
  </g>
  <g transform="translate(50.00,8.00) scale(0.3200,0.1800)">
    <path d="M 93.77 10.64 L 93.77 54.26 L 79.39 54.26 C 73.13,54.26 68.12,62.77 68.12,73.4 L 68.12 89.36 L 6.89 89.36 L 6.89 10.64 L 93.77 10.64 L 93.77 10.64 M 100 0 L 93.77 0 L 6.26 0 L 0 0 L 0 10.64 L 0 89.36 L 0 100 L 6.26 100 L 67.49 100 L 73.76 100 L 73.76 89.36 L 73.76 73.4 C 73.76,69.15 76.26,64.89 78.77,64.89 L 93.14 64.89 L 99.37 64.89 L 99.37 54.26 L 99.37 10.64 L 100 0 L 100 0" fill="#FFFFFF" stroke="none" stroke-width="0.5"/>
  </g>
  <g transform="translate(10.00,1.00) scale(0.8200,0.8200)">
    <path d="M 4.6 100 L 0 97.81 L 0 94.88 L 9.44 77.07 L 9.44 33.17 C 9.44,30.24 11.87,27.8 14.77,27.8 L 46.74 27.8 L 46.74 12.44 L 11.87 12.44 L 11.14 20 L 12.11 20 L 12.11 27.32 L 4.11 27.32 L 4.11 20 L 5.08 20 L 4.11 8.29 L 4.11 0 L 12.11 0 L 12.11 6.34 L 89.83 6.34 L 89.83 20 L 94.43 20 C 97.59,20 100,22.44 100,25.61 L 100 53.66 C 100,56.83 97.59,59.27 94.43,59.27 L 89.59 59.27 L 89.59 76.34 L 99.03 94.63 L 99.03 97.56 L 94.43 99.76 L 4.6 99.76 L 4.6 100 L 4.6 100 M 74.1 28.05 L 74.1 25.61 C 74.1,22.44 76.51,20 79.67,20 L 84.02 20 L 84.02 12.44 L 52.55 12.44 L 52.55 28.05 L 74.1 28.05 L 74.1 28.05" fill="#FFFFFF" stroke="none" stroke-width="0.5"/>
  </g>
  <g transform="translate(9.00,0.00) scale(0.8400,0.8400)">
    <path d="M 11.85 2.38 L 11.85 8.57 L 87.91 8.57 L 87.91 21.9 L 93.6 21.9 C 95.97,21.9 97.86,23.81 97.86,26.19 L 97.86 53.57 C 97.86,55.95 95.97,57.86 93.6,57.86 L 87.68 57.86 L 87.68 76.19 L 96.92 94.05 L 96.92 95.71 L 93.6 97.62 L 5.92 97.62 L 2.37 95.95 L 2.37 94.29 L 11.61 76.91 L 11.61 33.57 C 11.61,31.43 13.51,29.52 15.64,29.52 L 48.1 29.52 L 48.1 12.14 L 11.61 12.14 L 10.9 21.9 L 11.85 21.9 L 11.85 22.38 L 11.85 26.67 L 6.4 26.67 L 6.4 22.38 L 6.4 21.9 L 7.35 21.9 L 6.4 9.29 L 6.4 2.38 L 11.85 2.38 L 11.85 2.38 M 51.43 29.76 L 74.65 29.76 L 74.65 26.19 C 74.65,23.81 76.54,21.9 78.91,21.9 L 84.36 21.9 L 84.36 12.14 L 51.43 12.14 L 51.43 29.76 L 51.43 29.76 M 14.21 0 L 11.85 0 L 6.4 0 L 4.02 0 L 4.02 2.38 L 4.02 9.29 L 4.74 19.52 L 4.02 19.52 L 4.02 21.9 L 4.02 22.38 L 4.02 26.67 L 4.02 29.05 L 6.4 29.05 L 11.14 29.05 C 9.95,30.24 9,31.9 9,33.81 L 9 76.19 L 0 92.86 L 0 93.57 L 0 94.05 L 0 95.71 L 0 97.14 L 1.42 97.86 L 4.74 99.76 L 5.21 100 L 5.69 100 L 93.36 100 L 93.84 100 L 94.31 99.76 L 97.86 98.1 L 99.05 97.38 L 99.05 95.95 L 99.05 94.29 L 99.05 93.81 L 98.81 93.33 L 89.81 75.95 L 89.81 60.71 L 93.36 60.71 C 96.92,60.71 100,57.62 100,54.05 L 100 26.19 C 100,22.38 96.92,19.52 93.36,19.52 L 90.05 19.52 L 90.05 8.57 L 90.05 6.19 L 87.68 6.19 L 14.21 6.19 L 14.21 2.38 L 14.21 0 L 14.21 0 M 13.75 14.52 L 45.5 14.52 L 45.5 27.38 L 15.64 27.38 C 15.16,27.38 14.69,27.38 14.45,27.62 L 14.45 26.67 L 14.45 22.38 L 14.45 21.9 L 14.45 19.52 L 13.51 19.52 L 13.75 14.52 L 13.75 14.52 M 53.79 14.52 L 81.99 14.52 L 81.99 19.52 L 78.91 19.52 C 75.35,19.52 72.27,22.62 72.27,26.19 L 72.27 27.38 L 53.79 27.38 L 53.79 14.52 L 53.79 14.52" fill="#FFFFFF" stroke="none" stroke-width="0.5"/>
  </g>
  <g transform="translate(79.00,13.00) scale(0.0300,0.0300)">
    <path d="M 100 0 L 0 0 L 0 100 L 100 100 L 100 0 L 100 0" fill="#2d5967" stroke="none" stroke-width="0.5"/>
  </g>
  <g transform="translate(79.00,7.00) scale(0.0300,0.0300)">
    <path d="M 100 100 L 100 0 L 46.83 0 L 0 0 L 0 100 L 46.83 100 L 100 100 L 100 100" fill="#2d5967" stroke="none" stroke-width="0.5"/>
  </g>
  <g transform="translate(31.00,7.00) scale(0.0300,0.0300)">
    <path d="M 100 0 L 0 0 L 0 100 L 100 100 L 100 0 L 100 0" fill="#2d5967" stroke="none" stroke-width="0.5"/>
  </g>
  <g transform="translate(37.00,7.00) scale(0.0300,0.0300)">
    <path d="M 100 0 L 0 0 L 0 100 L 100 100 L 100 0 L 100 0" fill="#2d5967" stroke="none" stroke-width="0.5"/>
  </g>
  <g transform="translate(43.00,7.00) scale(0.0300,0.0300)">
    <path d="M 100 0 L 0 0 L 0 100 L 100 100 L 100 0 L 100 0" fill="#2d5967" stroke="none" stroke-width="0.5"/>
  </g>
  <g transform="translate(73.00,7.00) scale(0.0300,0.0300)">
    <path d="M 100 0 L 0 0 L 0 100 L 100 100 L 100 0 L 100 0" fill="#2d5967" stroke="none" stroke-width="0.5"/>
  </g>
  <g transform="translate(55.00,7.00) scale(0.0300,0.0300)">
    <path d="M 100 0 L 0 0 L 0 100 L 100 100 L 100 0 L 100 0" fill="#2d5967" stroke="none" stroke-width="0.5"/>
  </g>
  <g transform="translate(67.00,7.00) scale(0.0300,0.0300)">
    <path d="M 100 0 L 0 0 L 0 100 L 100 100 L 100 0 L 100 0" fill="#2d5967" stroke="none" stroke-width="0.5"/>
  </g>
  <g transform="translate(61.00,7.00) scale(0.0300,0.0300)">
    <path d="M 100 0 L 0 0 L 0 100 L 100 100 L 100 0 L 100 0" fill="#2d5967" stroke="none" stroke-width="0.5"/>
  </g>
  <g transform="translate(21.00,7.00) scale(0.0100,0.0300)">
    <path d="M 0 20 L 0 26.67 L 0 100 L 100 100 L 100 0 L 0 0 L 0 20 L 0 20" fill="#2d5967" stroke="none" stroke-width="0.5"/>
  </g>
  <g transform="translate(25.00,7.00) scale(0.0300,0.0300)">
    <path d="M 100 0 L 0 0 L 0 100 L 100 100 L 100 0 L 100 0" fill="#2d5967" stroke="none" stroke-width="0.5"/>
  </g>
  <g transform="translate(26.00,68.00) scale(0.4800,0.0300)">
    <path d="M 100 0 L 0 0 L 0 100 L 100 100 L 100 0 L 100 0" fill="#2d5967" stroke="none" stroke-width="0.5"/>
  </g>
  <g transform="translate(54.00,25.00) scale(0.1500,0.0300)">
    <path d="M 100 0 L 0 0 L 0 100 L 100 100 L 100 0 L 100 0" fill="#2d5967" stroke="none" stroke-width="0.5"/>
  </g>
  <g transform="translate(11.00,25.00) scale(0.8000,0.5700)">
    <path d="M 86.51 67.02 L 13.49 67.02 L 13.49 5.61 C 13.49,5.26 13.49,5.26 13.99,5.26 L 45.5 5.26 L 45.5 0 L 13.99 0 C 11.74,0 9.75,2.81 9.75,5.96 L 9.75 69.47 L 0 94.74 L 0 97.19 L 3.75 100 L 96.25 100 L 100 97.55 L 100 95.09 L 90.25 68.42 L 90.25 45.61 L 86.51 45.61 L 86.51 67.02 L 86.51 67.02 M 95.75 94.74 L 4.25 94.74 L 12.99 71.93 L 87.51 71.93 L 95.75 94.74 L 95.75 94.74" fill="#2d5967" stroke="none" stroke-width="0.5"/>
  </g>
  <g transform="translate(39.00,73.00) scale(0.2300,0.0300)">
    <path d="M 100 0 L 0 0 L 0 100 L 100 100 L 100 0 L 100 0" fill="#2d5967" stroke="none" stroke-width="0.5"/>
  </g>
  <g transform="translate(14.00,2.00) scale(0.0400,0.1400)">
    <path d="M 0 40.28 L 17.43 100 L 86.93 100 L 100 40.28 L 100 0 L 0 0 L 0 40.28 L 0 40.28" fill="#2d5967" stroke="none" stroke-width="0.5"/>
  </g>
  <g transform="translate(14.00,18.00) scale(0.0400,0.0400)">
    <path d="M 0 0 L 0 10 L 0 100 L 100 100 L 100 10 L 100 0 L 0 0 L 0 0" fill="#2d5967" stroke="none" stroke-width="0.5"/>
  </g>
  <g transform="translate(72.00,18.00) scale(0.1900,0.3000)">
    <path d="M 81.64 0 L 18.36 0 C 8.13,0 0,5.3 0,11.92 L 0 88.08 C 0,94.7 8.13,100 18.36,100 L 81.64 100 C 91.87,100 100,94.7 100,88.08 L 100 12.58 C 100,5.96 91.87,0 81.64,0 L 81.64 0 M 81.64 91.39 L 18.36 91.39 C 16.32,91.39 15.29,90.07 15.29,88.74 L 15.29 83.44 L 84.71 83.44 L 84.71 88.74 C 84.71,90.07 82.66,91.39 81.64,91.39 L 81.64 91.39 M 14.27 74.17 L 14.27 12.58 C 14.27,11.26 16.32,10.6 17.34,10.6 L 80.61 10.6 C 82.66,10.6 83.68,11.26 83.68,12.58 L 83.68 74.17 L 14.27 74.17 L 14.27 74.17" fill="#2d5967" stroke="none" stroke-width="0.5"/>
  </g>
  <g transform="translate(80.00,24.00) scale(0.0300,0.0900)">
    <path d="M 0 39.13 L 13.03 100 L 86.62 100 L 100 39.13 L 100 0 L 0 0 L 0 39.13 L 0 39.13" fill="#2d5967" stroke="none" stroke-width="0.5"/>
  </g>
  <g transform="translate(80.00,35.00) scale(0.0300,0.0200)">
    <path d="M 100 0 L 0 0 L 0 100 L 100 100 L 100 0 L 100 0" fill="#2d5967" stroke="none" stroke-width="0.5"/>
  </g>
  <g transform="translate(49.00,13.00) scale(0.0300,0.0300)">
    <path d="M 100 0 L 0 0 L 0 100 L 100 100 L 100 0 L 100 0" fill="#2d5967" stroke="none" stroke-width="0.5"/>
  </g>
  <g transform="translate(49.00,19.00) scale(0.0300,0.0300)">
    <path d="M 100 0 L 0 0 L 0 100 L 100 100 L 100 0 L 100 0" fill="#2d5967" stroke="none" stroke-width="0.5"/>
  </g>
  <g transform="translate(49.00,7.00) scale(0.0200,0.0300)">
    <path d="M 0 100 L 100 100 L 100 26.67 L 100 0 L 0 0 L 0 26.67 L 0 100 L 0 100" fill="#2d5967" stroke="none" stroke-width="0.5"/>
  </g>
  <g transform="translate(49.00,25.00) scale(0.0300,0.0300)">
    <path d="M 100 0 L 0 0 L 0 100 L 100 100 L 100 0 L 100 0" fill="#2d5967" stroke="none" stroke-width="0.5"/>
  </g>
  <g transform="translate(47.00,30.00) scale(0.0600,0.2000)">
    <path d="M 14.6 100 L 85.25 100 L 100 40.38 L 100 14.42 L 100 0 L 0 0 L 0 14.42 L 0 40.38 L 14.6 100 L 14.6 100" fill="#2d5967" stroke="none" stroke-width="0.5"/>
  </g>
  <g transform="translate(47.00,54.00) scale(0.0600,0.0600)">
    <path d="M 100 0 L 0 0 L 0 100 L 100 100 L 100 0 L 100 0" fill="#2d5967" stroke="none" stroke-width="0.5"/>
  </g>
</svg>