<svg xmlns="http://www.w3.org/2000/svg" viewBox="0 0 81.0 125.00000000000001" width="81" height="125">
  <g transform="translate(18.00,-0.00) scale(0.8100,0.8400)">
    <path d="M 88.19 18.02 C 85.92,16.63 83.42,15.63 80.8,15.05 C 80.13,14.91 79.5,14.63 78.97,14.22 C 78.43,13.8 78.01,13.28 77.72,12.68 C 76.04,9.44 73.57,6.63 70.52,4.51 C 67.47,2.39 63.93,1.02 60.2,0.51 C 56.48,0 52.68,0.37 49.13,1.59 C 45.59,2.81 42.4,4.84 39.86,7.51 C 39.49,7.9 39.04,8.21 38.54,8.43 C 38.04,8.64 37.5,8.76 36.95,8.77 L 36.51 8.77 C 35.92,8.77 35.3,8.77 34.71,8.77 C 32.06,8.77 29.43,9.31 27,10.33 C 24.17,11.53 21.68,13.36 19.75,15.68 C 17.82,18 16.51,20.74 15.91,23.66 C 15.76,24.27 15.47,24.85 15.06,25.34 C 14.64,25.82 14.12,26.22 13.52,26.48 C 9.8,28.35 6.64,31.11 4.34,34.49 C 2.04,37.87 0.67,41.76 0.37,45.79 L 0.2 47.83 L 0 50.41 L 28.13 50.41 L 28.13 56.29 L 15.1 56.29 L 15.1 100 L 24.63 100 L 25.37 99.1 L 31.46 91.68 L 63.21 91.68 L 63.21 87.74 L 80.58 87.74 L 80.58 50.41 L 95.16 50.41 L 95.88 49.18 L 96.44 48.13 C 99.28,43.04 100,37.1 98.47,31.51 C 96.94,25.92 93.27,21.1 88.19,18.02 L 88.19 18.02" fill="#FFFFFF" stroke="none" stroke-width="0.5"/>
  </g>
  <g transform="translate(20.00,2.00) scale(0.7700,0.3800)">
    <path d="M 95.94 100 L 83.88 100 L 83.88 91.43 L 93.34 91.43 C 94.44,86.49 94.98,81.12 94.92,75.7 C 94.87,70.29 94.21,64.97 93,60.12 C 91.8,55.28 90.07,51.04 87.95,47.7 C 85.83,44.36 83.36,42.01 80.74,40.82 C 79.06,40.04 77.5,38.53 76.15,36.39 C 74.8,34.25 73.7,31.53 72.94,28.44 C 71.67,23.34 69.81,18.93 67.5,15.59 C 65.2,12.25 62.53,10.08 59.72,9.27 C 56.91,8.46 54.05,9.03 51.37,10.93 C 48.7,12.83 46.29,16.01 44.36,20.19 C 43.17,22.72 41.72,24.67 40.1,25.88 C 38.48,27.1 36.75,27.54 35.03,27.19 C 32.75,26.75 30.46,27.51 28.38,29.38 C 26.4,31.11 24.65,33.77 23.29,37.15 C 21.94,40.52 21.01,44.51 20.58,48.76 C 20.25,52.15 19.54,55.35 18.51,58.12 C 17.48,60.88 16.15,63.15 14.63,64.74 C 12.09,67.41 9.88,71.19 8.16,75.82 C 6.45,80.44 5.28,85.78 4.73,91.43 L 25.21 91.43 L 25.21 100 L 0 100 L 0.16 95.4 C 0.46,87.39 1.78,79.67 3.99,72.98 C 6.2,66.29 9.23,60.84 12.79,57.17 C 13.71,56.16 14.52,54.75 15.15,53.05 C 15.78,51.34 16.21,49.38 16.42,47.3 C 17.26,38.68 19.66,31 23.15,25.75 C 26.65,20.49 30.99,18.05 35.34,18.88 C 36.41,19.12 37.49,18.85 38.49,18.1 C 39.5,17.34 40.4,16.13 41.13,14.55 C 43.55,9.35 46.55,5.4 49.89,3.05 C 53.23,0.69 56.8,0 60.3,1.03 C 63.8,2.05 67.12,4.77 69.98,8.95 C 72.85,13.12 75.16,18.63 76.73,25 C 77.23,26.96 77.94,28.69 78.8,30.04 C 79.67,31.4 80.68,32.35 81.75,32.83 C 84.27,33.93 86.67,35.91 88.84,38.68 C 93.64,44.77 97.11,54.29 98.56,65.32 C 100,76.35 99.32,88.07 96.64,98.12 L 95.94 100 L 95.94 100" fill="#2d5967" stroke="none" stroke-width="0.5"/>
  </g>
  <g transform="translate(32.00,49.00) scale(0.3500,0.3300)">
    <path d="M 0 0 L 0 100 L 13.64 100 L 29.38 78.64 L 100 78.64 L 100 0 L 0 0 L 0 0 M 8.39 10.04 L 91.61 10.04 L 91.61 69.57 L 25.33 69.57 L 9.53 90.99 L 8.39 90.99 L 8.39 10.04 L 8.39 10.04" fill="#2d5967" stroke="none" stroke-width="0.5"/>
  </g>
  <g transform="translate(45.00,56.00) scale(0.1100,0.1300)">
    <path d="M 0 0 L 0 100 L 100 50 L 0 0 L 0 0" fill="#2d5967" stroke="none" stroke-width="0.5"/>
  </g>
  <g transform="translate(43.00,21.00) scale(0.3800,0.5100)">
    <path d="M 76.88 0 L 0 0 L 0 49.23 L 8.55 49.23 L 8.55 6.5 L 68.12 6.5 L 68.12 24.26 L 91.45 24.26 L 91.45 93.46 L 71.28 93.46 L 71.28 100 L 100 100 L 100 17.29 L 76.88 0 L 76.88 0 M 76.62 17.96 L 76.62 9.69 L 88.54 17.92 L 76.62 17.96 L 76.62 17.96" fill="#2d5967" stroke="none" stroke-width="0.5"/>
  </g>
</svg>