<svg xmlns="http://www.w3.org/2000/svg" viewBox="0 0 84.0 109.0000000000001" width="84" height="109">
  <g transform="translate(0.00,0.00) scale(0.8200,0.8200)">
    <path d="M 5.35 99.76 C 2.43,99.76 0,97.32 0,94.4 L 0 5.35 C 0,2.43 2.43,0 5.35,0 L 94.65 0 C 97.57,0 100,2.43 100,5.35 L 100 94.65 C 100,97.57 97.57,100 94.65,100 L 5.35 100 L 5.35 99.76 L 5.35 99.76" fill="#FFFFFF" stroke="none" stroke-width="0.5"/>
  </g>
  <g transform="translate(0.00,0.00) scale(0.8400,0.8400)">
    <path d="M 93.35 2.38 C 95.73,2.38 97.39,4.05 97.39,6.43 L 97.39 93.81 C 97.39,95.95 95.73,97.86 93.35,97.86 L 6.41 97.86 C 4.04,97.62 2.38,95.95 2.38,93.57 L 2.38 6.43 C 2.38,4.05 4.04,2.38 6.41,2.38 L 93.35 2.38 L 93.35 2.38 M 93.35 0 L 6.41 0 C 2.85,0 0,2.86 0,6.43 L 0 93.81 C 0,97.14 2.85,100 6.41,100 L 93.59 100 C 97.15,100 100,97.14 100,93.57 L 100 6.43 C 99.76,2.86 96.91,0 93.35,0 L 93.35 0" fill="#FFFFFF" stroke="none" stroke-width="0.5"/>
  </g>
  <g transform="translate(4.00,4.00) scale(0.7300,0.7300)">
    <path d="M 99.73 0 L 0 0 L 0 100 L 100 100 L 99.73 0 L 99.73 0 M 71.66 71.12 L 70.03 69.48 L 68.39 67.85 L 71.39 64.85 L 67.85 61.31 L 64.85 64.31 L 63.22 62.67 L 61.58 61.04 L 64.58 58.04 L 61.31 54.77 L 64.58 51.5 L 85.01 71.93 L 72.21 84.47 L 51.77 64.03 L 55.04 60.76 L 72.21 77.93 L 78.48 71.66 L 74.39 67.57 L 71.66 71.12 L 71.66 71.12 M 38.15 37.6 L 36.51 35.97 L 34.88 34.33 L 37.88 31.34 L 33.79 27.25 L 30.79 30.25 L 29.16 28.61 L 27.52 26.98 L 30.52 23.98 L 26.7 20.16 L 20.44 26.43 L 37.6 43.87 L 34.33 47.14 L 13.9 26.7 L 26.7 14.17 L 47.14 34.6 L 43.87 37.87 L 40.87 34.88 L 38.15 37.6 L 38.15 37.6 M 21.8 64.58 L 72.48 13.9 L 85.29 26.43 L 34.61 77.11 L 16.35 82.83 L 21.8 64.58 L 21.8 64.58" fill="#FFFFFF" stroke="none" stroke-width="0.5"/>
  </g>
  <g transform="translate(1.00,1.00) scale(0.8000,0.8000)">
    <path d="M 95.51 0 L 4.24 0 C 1.75,0 0,1.75 0,4.25 L 0 96 C 0,98.25 1.75,100 4.24,100 L 95.76 100 C 98,100 100,98.25 100,95.75 L 100 4.25 C 99.75,1.75 98,0 95.51,0 L 95.51 0 M 4.24 4.25 L 95.76 4.25 L 95.76 96 L 4.24 96 L 4.24 4.25 L 4.24 4.25" fill="#2d5967" stroke="none" stroke-width="0.5"/>
  </g>
  <g transform="translate(43.00,43.00) scale(0.2400,0.2400)">
    <path d="M 61.47 80.16 L 9.83 28.1 L 0 38.02 L 61.47 100 L 100 61.98 L 38.52 0 L 28.69 9.92 L 38.52 19.83 L 29.51 28.93 L 34.43 33.88 L 39.35 38.84 L 48.36 29.75 L 59.02 40.49 L 50 49.59 L 54.92 54.55 L 59.83 59.5 L 68.85 50.41 L 81.15 62.81 L 61.47 80.16 L 61.47 80.16" fill="#2d5967" stroke="none" stroke-width="0.5"/>
  </g>
  <g transform="translate(14.00,14.00) scale(0.2400,0.2400)">
    <path d="M 100 61.98 L 38.52 0 L 0 38.02 L 61.47 100 L 71.31 90.08 L 19.67 37.19 L 38.52 18.18 L 50 29.75 L 40.98 38.84 L 45.9 43.8 L 50.82 48.76 L 59.83 39.67 L 72.13 52.07 L 63.11 61.16 L 68.03 66.12 L 72.95 71.07 L 81.96 61.98 L 90.98 71.07 L 100 61.98 L 100 61.98" fill="#2d5967" stroke="none" stroke-width="0.5"/>
  </g>
  <g transform="translate(54.00,19.00) scale(0.0800,0.0800)">
    <path d="M 56.1 100 L 100 56.1 L 43.9 0 L 0 43.9 L 56.1 100 L 56.1 100" fill="#FFFFFF" stroke="none" stroke-width="0.5"/>
  </g>
  <g transform="translate(25.00,25.00) scale(0.3100,0.3100)">
    <path d="M 0 85.81 L 14.84 100 L 100 14.84 L 85.16 0 L 0 85.81 L 0 85.81" fill="#FFFFFF" stroke="none" stroke-width="0.5"/>
  </g>
  <g transform="translate(21.00,54.00) scale(0.0500,0.0500)">
    <path d="M 100 68.97 L 31.05 0 L 0 100 L 100 68.97 L 100 68.97" fill="#FFFFFF" stroke="none" stroke-width="0.5"/>
  </g>
  <g transform="translate(16.00,14.00) scale(0.5000,0.5000)">
    <path d="M 26.19 92.06 L 100 18.25 L 81.35 0 L 7.94 73.41 L 0 100 L 26.19 92.06 L 26.19 92.06 M 90.48 18.25 L 83.33 25.4 L 74.21 16.27 L 81.35 9.13 L 90.48 18.25 L 90.48 18.25 M 69.44 21.03 L 78.57 30.16 L 26.19 82.54 L 17.06 73.41 L 69.44 21.03 L 69.44 21.03 M 13.09 78.97 L 21.03 86.9 L 9.52 90.48 L 13.09 78.97 L 13.09 78.97" fill="#2d5967" stroke="none" stroke-width="0.5"/>
  </g>
</svg>