<svg xmlns="http://www.w3.org/2000/svg" viewBox="0 0 84.0 82.00000000000014" width="84" height="82">
  <g transform="translate(17.00,0.00) scale(0.8300,0.5600)">
    <path d="M 69.37 100 L 69.37 90.24 L 12.81 90.24 L 12.81 44.63 C 5.49,42.93 0,33.66 0,22.44 C 0,10 6.81,0 15.3,0 C 20.96,0 26.28,4.63 28.78,12.2 L 87.18 12.2 L 87.18 55.12 L 100 55.12 L 100 100 L 69.37 100 L 69.37 100" fill="#FFFFFF" stroke="none" stroke-width="0.5"/>
  </g>
  <g transform="translate(17.00,0.00) scale(0.8400,0.5800)">
    <path d="M 15.88 2.38 C 21.6,2.38 26.35,7.14 28.64,14.29 L 85.76 14.29 L 85.76 56.19 L 98.36 56.19 L 98.36 97.62 L 69.89 97.62 L 69.89 88.09 L 14.24 88.09 L 14.24 43.57 C 7.2,42.38 1.64,33.57 1.64,23.1 C 1.64,11.67 8.03,2.38 15.88,2.38 L 15.88 2.38 M 15.88 0 C 7.04,0 0,10.24 0,23.1 C 0,34.05 5.24,43.57 12.6,45.71 L 12.6 88.09 L 12.6 90.48 L 14.24 90.48 L 68.25 90.48 L 68.25 97.62 L 68.25 100 L 69.89 100 L 98.36 100 L 100 100 L 100 97.62 L 100 56.19 L 100 53.81 L 98.36 53.81 L 87.4 53.81 L 87.4 14.29 L 87.4 11.9 L 85.76 11.9 L 29.63 11.9 C 26.84,4.52 21.6,0 15.88,0 L 15.88 0" fill="#FFFFFF" stroke="none" stroke-width="0.5"/>
  </g>
  <g transform="translate(42.00,7.00) scale(0.4700,0.2600)">
    <path d="M 88.81 10.64 L 35.89 86.7 L 2.65 38.83 C 2.07,42.02 1.19,45.21 0,48.4 L 35.89 100 L 94.12 15.96 L 94.12 85.64 L 100 85.64 L 100 0 L 2.36 0 C 2.94,3.19 3.53,6.91 4.11,10.64 L 88.81 10.64 L 88.81 10.64" fill="#2d5967" stroke="none" stroke-width="0.5"/>
  </g>
  <g transform="translate(28.00,27.00) scale(0.4500,0.2300)">
    <path d="M 6.14 88.37 L 6.14 0 C 5.22,0 3.98,0 3.07,0 C 2.16,0 0.91,0 0,0 L 0 100 L 99.67 100 L 99.67 88.37 C 100,88.37 6.14,88.37 6.14,88.37 L 6.14 88.37" fill="#2d5967" stroke="none" stroke-width="0.5"/>
  </g>
  <g transform="translate(18.00,1.00) scale(0.2400,0.2400)">
    <path d="M 100 50 C 100,22.41 77.61,0 50,0 C 22.43,0 0,22.41 0,50 C 0,77.59 22.43,100 50,100 C 77.61,100 100,77.59 100,50 L 100 50 M 50 11.49 C 71.29,11.49 88.5,28.74 88.5,50 C 88.5,71.26 71.29,88.51 50,88.51 C 28.75,88.51 11.5,71.26 11.5,50 C 11.5,28.74 28.75,11.49 50,11.49 L 50 11.49" fill="#2d5967" stroke="none" stroke-width="0.5"/>
  </g>
  <g transform="translate(23.00,6.00) scale(0.1300,0.1300)">
    <path d="M 24.47 92.93 C 32.66,96.97 40.76,100 49.96,100 C 55.11,100 60.17,98.99 64.3,97.98 C 69.37,96.97 73.42,93.94 77.55,91.92 L 72.41 83.84 L 70.38 83.84 C 64.3,87.88 57.13,89.9 48.95,89.9 C 41.86,89.9 34.68,87.88 28.53,84.85 C 22.45,80.81 17.3,76.77 14.26,70.71 C 11.22,64.65 9.2,57.58 9.2,50.5 C 9.2,43.43 11.22,36.36 14.26,30.3 C 18.32,24.24 23.46,19.19 29.54,16.16 C 35.7,13.13 42.87,11.11 49.96,11.11 C 57.13,11.11 64.3,13.13 70.38,16.16 C 76.54,19.19 81.61,24.24 84.65,30.3 C 88.78,36.36 89.79,43.43 89.79,50.5 L 89.79 55.56 C 89.79,57.58 88.78,59.6 87.76,60.61 C 86.75,61.62 84.65,62.63 82.62,62.63 C 80.59,62.63 78.57,61.62 76.54,59.6 C 75.53,58.59 75.53,56.57 75.53,55.56 L 75.53 25.25 L 63.29 25.25 L 63.29 30.3 C 58.14,27.27 53.08,25.25 46.92,25.25 C 41.86,25.25 37.72,26.26 33.67,28.28 C 29.54,30.3 26.5,33.33 23.46,38.38 C 20.42,42.42 18.32,46.46 18.32,51.52 C 18.32,56.57 19.41,60.61 22.45,64.65 C 24.47,68.69 28.53,71.72 32.66,73.74 C 36.71,75.76 41.86,77.78 45.91,77.78 C 49.96,77.78 54.09,76.77 58.14,74.75 C 62.2,72.73 65.32,70.71 67.34,66.67 C 69.37,68.69 71.4,69.7 73.42,70.71 C 76.54,71.72 80.59,72.73 84.65,71.72 C 85.74,71.72 86.75,70.71 87.76,70.71 C 91.82,68.69 95.95,65.66 97.97,61.62 C 98.99,59.6 100,55.56 100,52.53 L 100 49.5 C 100,40.4 96.96,32.32 92.83,25.25 C 88.78,18.18 82.62,12.12 74.51,8.08 C 67.34,3.03 59.16,0 49.96,0 C 40.76,0 32.66,3.03 24.47,7.07 C 16.29,12.12 10.21,17.17 6.08,25.25 C 2.03,33.33 0,41.41 0,50.5 C 0,59.6 2.03,67.68 7.09,75.76 C 11.22,82.83 17.3,88.89 24.47,92.93 L 24.47 92.93 M 61.18 58.59 C 60.17,60.61 58.14,62.63 55.11,64.65 C 53.08,65.66 49.96,66.67 46.92,66.67 C 43.88,66.67 41.86,65.66 39.75,63.64 C 37.72,61.62 35.7,60.61 33.67,57.58 C 32.66,55.56 31.64,53.54 31.64,50.5 C 31.64,47.47 32.66,45.45 33.67,42.42 C 34.68,39.39 36.71,38.38 39.75,36.36 C 41.86,35.35 44.89,34.34 47.93,34.34 C 50.97,34.34 53.08,35.35 56.12,36.36 C 59.16,37.37 60.17,39.39 62.2,42.42 C 63.29,44.44 64.3,47.47 64.3,50.5 C 63.29,53.54 63.29,55.56 61.18,58.59 L 61.18 58.59" fill="#2d5967" stroke="none" stroke-width="0.5"/>
  </g>
  <g transform="translate(75.00,32.00) scale(0.2400,0.2400)">
    <path d="M 0 0 L 0 100 L 100 100 L 100 0 L 0 0 L 0 0 M 88.5 88.51 L 11.5 88.51 L 11.5 11.5 L 88.5 11.5 L 88.5 88.51 L 88.5 88.51" fill="#2d5967" stroke="none" stroke-width="0.5"/>
  </g>
  <g transform="translate(80.00,37.00) scale(0.1400,0.1300)">
    <path d="M 34.28 0 L 34.28 14.89 C 32.34,15.96 30.39,17.02 29.42,18.09 L 14.67 8.51 L 0 35.11 L 12.72 43.61 C 12.72,45.74 11.75,48.94 11.75,51.06 C 11.75,52.13 11.75,53.19 11.75,54.26 L 0 61.7 L 14.67 88.3 L 25.52 80.85 C 28.44,82.98 30.39,85.11 34.28,86.17 L 34.28 100 L 65.64 100 L 65.64 86.17 C 68.64,84.04 71.56,82.98 74.48,80.85 L 85.25 88.3 L 100 61.7 L 88.17 54.26 C 88.17,53.19 88.17,52.13 88.17,51.06 C 88.17,48.94 88.17,45.74 87.2,43.61 L 100 35.11 L 85.25 8.51 L 70.58 18.09 C 68.64,17.02 67.66,15.96 65.64,14.89 L 65.64 0 C 66.62,0 34.28,0 34.28,0 L 34.28 0 M 50 71.28 C 40.19,71.28 31.36,62.76 31.36,51.06 C 31.36,40.43 39.22,30.85 50,30.85 C 59.81,30.85 68.64,39.36 68.64,51.06 C 68.64,62.76 59.81,71.28 50,71.28 L 50 71.28" fill="#2d5967" stroke="none" stroke-width="0.5"/>
  </g>
</svg>