<svg xmlns="http://www.w3.org/2000/svg" viewBox="0 0 85.0 108.99999999999994" width="85" height="108">
  <g transform="translate(1.00,1.00) scale(0.8200,0.8200)">
    <path d="M 50 100 C 77.61,100 100,77.61 100,50 C 100,22.39 77.61,0 50,0 C 22.39,0 0,22.39 0,50 C 0,77.61 22.39,100 50,100 L 50 100" fill="#FFFFFF" stroke="none" stroke-width="0.5"/>
  </g>
  <g transform="translate(0.00,-0.00) scale(0.8500,0.8500)">
    <path d="M 50.48 2.36 C 59.81,2.36 68.93,5.12 76.68,10.31 C 84.44,15.49 90.48,22.85 94.05,31.47 C 97.62,40.09 98.56,49.57 96.74,58.72 C 94.92,67.87 90.42,76.27 83.83,82.87 C 77.23,89.46 68.83,93.96 59.68,95.78 C 50.53,97.6 41.05,96.66 32.43,93.09 C 23.81,89.52 16.45,83.48 11.27,75.72 C 6.08,67.97 3.32,58.85 3.32,49.52 C 3.32,37.01 8.29,25.02 17.13,16.17 C 25.98,7.33 37.97,2.36 50.48,2.36 L 50.48 2.36 M 50.48 0 C 40.69,0 31.11,2.9 22.97,8.35 C 14.82,13.79 8.48,21.52 4.73,30.57 C 0.98,39.62 0,49.58 1.91,59.18 C 3.82,68.79 8.54,77.61 15.46,84.54 C 22.39,91.46 31.21,96.18 40.82,98.09 C 50.43,100 60.38,99.02 69.43,95.27 C 78.48,91.52 86.21,85.18 91.65,77.03 C 97.1,68.89 100,59.31 100,49.52 C 100,36.39 94.78,23.79 85.5,14.5 C 76.21,5.22 63.61,0 50.48,0 L 50.48 0 L 50.48 0" fill="#FFFFFF" stroke="none" stroke-width="0.5"/>
  </g>
  <g transform="translate(12.00,2.00) scale(0.6400,0.3200)">
    <path d="M 47.15 10.25 C 55.93,10.23 64.6,14.12 72.49,21.63 C 80.37,29.15 87.27,40.08 92.64,53.6 L 68.78 88.31 L 9.05 38.41 C 19.56,20.28 33.11,10.27 47.15,10.25 L 47.15 10.25 M 47.15 0.03 C 38.22,0.05 29.39,3.79 21.26,11 C 13.12,18.22 5.88,28.73 0,41.84 L 69.63 100 L 100 55.86 C 94.29,38.7 86.46,24.6 77.23,14.85 C 68,5.09 57.66,0 47.15,0.03 L 47.15 0.03" fill="#2d5967" stroke="none" stroke-width="0.5"/>
  </g>
  <g transform="translate(2.00,23.00) scale(0.3200,0.5800)">
    <path d="M 19.43 7.63 L 73.93 20.71 L 88.08 92.34 C 65.51,88.04 45.92,79.9 32.05,69.06 C 18.18,58.23 10.73,45.23 10.74,31.91 C 10.74,23.58 13.69,15.32 19.43,7.63 L 19.43 7.63 M 14.28 0 C 5.41,9.54 0.63,20.11 0.31,30.86 C 0,41.61 4.17,52.26 12.48,61.95 C 20.79,71.65 33.03,80.14 48.22,86.74 C 63.4,93.34 81.13,97.88 100,100 L 83.55 16.75 L 14.28 0 L 14.28 0" fill="#2d5967" stroke="none" stroke-width="0.5"/>
  </g>
  <g transform="translate(42.00,29.00) scale(0.4100,0.5300)">
    <path d="M 88.9 10.5 C 90.15,15.18 90.78,19.95 90.78,24.73 C 90.77,41.51 82.94,57.72 68.75,70.32 C 54.55,82.93 34.96,91.07 13.64,93.23 L 8.58 57.28 L 88.9 10.5 L 88.9 10.5 M 93.72 0 L 0 54.46 L 6.46 100 C 21.5,99.51 36.18,96.28 49.33,90.56 C 62.48,84.85 73.74,76.81 82.2,67.09 C 90.66,57.37 96.08,46.24 98.04,34.59 C 100,22.94 98.44,11.09 93.48,0 L 93.72 0 L 93.72 0" fill="#2d5967" stroke="none" stroke-width="0.5"/>
  </g>
</svg>