<svg xmlns="http://www.w3.org/2000/svg" viewBox="0 0 81.0 108.99999999999994" width="81" height="108">
  <g transform="translate(1.00,-0.00) scale(0.7900,0.8200)">
    <path d="M 20.31 91.41 L 28.69 83.25 L 29.73 83.25 L 30.23 83.59 L 34.05 87.2 L 33.32 87.9 C 40.22,87.43 46.69,84.53 51.5,79.77 L 54.24 76.98 L 50.26 73.16 L 41.96 81.12 L 38.64 78.56 L 38.16 82.65 L 23.81 82.65 L 23.33 78.56 L 20.01 81.12 L 9.94 71.44 L 12.61 68.25 L 8.36 67.79 L 8.36 54.09 L 12.61 53.65 L 9.94 50.44 L 10.95 49.47 L 0 49.47 L 0.25 46.01 C 0.55,42.05 1.89,38.24 4.16,34.92 C 6.42,31.61 9.53,28.91 13.19,27.08 C 13.96,26.7 14.64,26.16 15.17,25.5 C 15.7,24.84 16.07,24.07 16.26,23.26 C 16.83,20.44 18.11,17.8 19.98,15.55 C 21.84,13.31 24.25,11.54 26.98,10.38 C 29.37,9.39 31.94,8.88 34.53,8.88 L 36.27 8.88 L 36.85 8.88 C 37.61,8.89 38.36,8.74 39.06,8.45 C 39.76,8.16 40.39,7.73 40.9,7.19 C 43.4,4.62 46.5,2.67 49.95,1.51 C 53.4,0.34 57.1,0 60.71,0.51 C 64.33,1.01 67.77,2.35 70.73,4.42 C 73.69,6.48 76.09,9.2 77.72,12.34 C 78.11,13.1 78.67,13.76 79.36,14.29 C 80.05,14.81 80.85,15.18 81.7,15.37 C 85.21,16.12 88.48,17.64 91.27,19.81 C 94.06,21.98 96.29,24.75 97.79,27.89 C 99.28,31.02 100,34.45 99.89,37.9 C 99.77,41.35 98.83,44.73 97.13,47.77 L 96.17 49.47 L 89.25 49.47 L 90.26 50.44 L 87.59 53.65 L 91.84 54.09 L 91.84 67.79 L 87.59 68.25 L 90.26 71.44 L 80.19 81.12 L 76.87 78.56 L 76.39 82.65 L 62.25 82.65 L 61.79 78.56 L 59.45 80.35 C 56.4,84.44 52.45,87.82 47.87,90.25 C 43.28,92.68 38.19,94.09 32.97,94.39 L 34.05 95.4 L 29.35 100 L 20.31 91.41 L 20.31 91.41" fill="#FFFFFF" stroke="none" stroke-width="0.5"/>
  </g>
  <g transform="translate(0.00,-0.00) scale(0.8100,0.8400)">
    <path d="M 56.84 2.37 C 60.71,2.35 64.5,3.38 67.8,5.35 C 71.09,7.32 73.75,10.14 75.46,13.5 C 75.94,14.41 76.63,15.21 77.47,15.82 C 78.31,16.44 79.29,16.86 80.33,17.06 C 83.53,17.76 86.52,19.16 89.07,21.16 C 91.62,23.16 93.66,25.71 95.02,28.6 C 96.38,31.49 97.04,34.64 96.94,37.82 C 96.83,41 95.97,44.11 94.42,46.91 L 93.86 47.95 L 84.78 47.95 L 87.07 50.16 L 83.9 53.98 L 83.9 54.15 L 88.94 54.69 L 88.94 66.03 L 83.9 66.57 L 83.9 66.74 L 87.07 70.58 L 78.89 78.5 L 74.92 75.43 L 74.75 75.43 L 74.19 80.17 L 62.61 80.17 L 62.05 75.46 L 61.88 75.46 L 57.93 78.52 C 54.97,82.6 51.06,85.93 46.51,88.26 C 41.96,90.58 36.91,91.83 31.77,91.89 L 30.28 91.89 L 32.55 94.04 L 29.7 96.68 L 22.69 89.98 L 29.57 83.21 L 32.4 85.9 L 30.43 87.81 L 31.64 87.81 C 35.41,87.78 39.13,87.03 42.59,85.6 C 46.05,84.17 49.18,82.08 51.8,79.47 C 52.24,79.02 54.6,76.64 55.26,75.91 L 49.73 70.53 L 41.6 78.38 L 37.66 75.32 L 37.49 75.32 L 37.02 80.17 L 25.44 80.17 L 24.88 75.46 L 24.71 75.46 L 20.76 78.52 L 12.56 70.46 L 15.72 66.62 L 15.72 66.45 L 10.61 66.03 L 10.61 54.69 L 15.65 54.24 L 15.65 54.07 L 12.49 50.26 L 14.78 48.04 L 2.6 48.04 L 2.75 45.92 C 3,42.24 4.22,38.7 6.3,35.61 C 8.38,32.53 11.24,30.01 14.61,28.31 C 15.52,27.85 16.32,27.2 16.94,26.4 C 17.56,25.61 17.98,24.69 18.18,23.71 C 18.93,20.03 20.97,16.72 23.96,14.33 C 26.95,11.95 30.7,10.65 34.57,10.65 C 35.08,10.65 35.61,10.65 36.12,10.65 L 36.8 10.65 C 37.72,10.66 38.62,10.49 39.46,10.14 C 40.3,9.79 41.06,9.27 41.67,8.62 C 43.63,6.64 45.98,5.06 48.59,3.99 C 51.2,2.91 54,2.36 56.84,2.37 L 56.84 2.37 M 56.84 0.02 C 53.65,0 50.49,0.62 47.56,1.84 C 44.63,3.06 41.99,4.84 39.8,7.09 C 39.42,7.49 38.95,7.82 38.43,8.04 C 37.91,8.26 37.35,8.37 36.78,8.36 L 36.32 8.36 C 35.73,8.33 35.13,8.33 34.54,8.36 C 30.12,8.38 25.84,9.88 22.43,12.6 C 19.02,15.33 16.69,19.11 15.82,23.31 C 15.67,23.95 15.37,24.54 14.95,25.05 C 14.53,25.56 14,25.97 13.39,26.26 C 9.67,28.13 6.51,30.9 4.21,34.3 C 1.91,37.7 0.54,41.61 0.24,45.66 L 0.07 47.76 L 0 50.3 L 9.54 50.3 L 10.66 51.62 L 11.17 52.26 L 10.35 52.26 L 8.18 52.5 L 8.18 67.94 L 10.35 68.17 L 11.17 68.17 L 10.66 68.81 L 9.3 70.46 L 10.83 71.95 L 19.04 80.17 L 20.57 81.66 L 22.27 80.34 L 22.93 79.84 L 22.93 80.64 L 23.17 82.74 L 26.78 82.74 L 20.93 88.31 L 19.23 89.98 L 20.96 91.65 L 27.97 98.35 L 29.72 100 L 31.42 98.33 L 34.27 95.54 L 35.98 93.87 C 40.7,93.25 45.24,91.71 49.33,89.34 C 53.41,86.96 56.96,83.82 59.76,80.08 L 60.15 79.77 L 60.15 80.57 L 60.39 82.67 L 76.33 82.67 L 76.58 80.57 L 76.58 79.77 L 77.21 80.27 L 78.91 81.59 L 80.45 80.1 L 88.65 72.16 L 90.18 70.67 L 88.82 69.02 L 88.46 68.38 L 89.28 68.38 L 91.45 68.15 L 91.45 52.59 L 89.28 52.35 L 88.46 52.35 L 88.97 51.72 L 90.09 50.4 L 95.13 50.4 L 95.83 49.15 L 96.39 48.11 C 99.26,42.98 100,36.99 98.47,31.35 C 96.94,25.71 93.26,20.85 88.16,17.74 C 85.86,16.34 83.32,15.33 80.67,14.75 C 80,14.61 79.38,14.33 78.84,13.92 C 78.3,13.51 77.87,12.99 77.58,12.39 C 75.66,8.66 72.7,5.53 69.03,3.34 C 65.37,1.15 61.14,0 56.84,0.02 L 56.84 0.02 M 41.89 81.54 L 43.43 80.06 L 49.83 73.86 L 51.97 75.95 C 51.19,76.78 50.39,77.58 50.14,77.82 C 46.16,81.8 40.92,84.4 35.25,85.19 L 34.22 84.23 L 32.57 82.53 L 39.21 82.53 L 39.43 80.43 L 39.43 79.63 L 40.09 80.13 L 41.79 81.45 L 41.89 81.54 L 41.89 81.54" fill="#FFFFFF" stroke="none" stroke-width="0.5"/>
  </g>
  <g transform="translate(18.00,66.00) scale(0.2700,0.1500)">
    <path d="M 91.48 0 C 90.17,2.65 88.78,5.3 87.4,7.83 C 79.53,21.9 70.11,33.1 59.7,40.78 C 49.3,48.45 38.11,52.44 26.8,52.52 L 23.24 52.52 L 29.13 42.3 L 20.98 27.9 L 0 64.14 L 20.98 100 L 29.5 85.1 L 22.73 73.61 L 27.17 73.61 C 41.01,73.31 54.66,67.93 67.22,57.8 C 79.77,47.68 90.95,33.06 100,14.9 L 95.2 6.57 L 91.48 0 L 91.48 0" fill="#2d5967" stroke="none" stroke-width="0.5"/>
  </g>
  <g transform="translate(35.00,20.00) scale(0.2700,0.1500)">
    <path d="M 78.81 0 L 70.2 14.97 L 76.53 25.76 L 73.8 25.76 C 60.85,25.9 48.03,30.46 36.1,39.17 C 24.17,47.88 13.35,60.58 4.27,76.52 C 2.8,79.19 1.33,81.85 0,84.64 L 5.3 93.78 L 8.68 100 C 10.11,97.12 11.58,94.33 13.1,91.62 C 21.03,77.62 30.49,66.46 40.93,58.79 C 51.38,51.12 62.6,47.1 73.95,46.95 L 76.75 46.95 L 70.35 57.99 L 79.03 72.84 L 100 36.55 L 78.81 0 L 78.81 0" fill="#2d5967" stroke="none" stroke-width="0.5"/>
  </g>
  <g transform="translate(2.00,1.00) scale(0.7700,0.3800)">
    <path d="M 88.86 38.5 C 86.69,35.74 84.29,33.76 81.78,32.64 C 80.68,32.2 79.65,31.28 78.76,29.93 C 77.87,28.59 77.15,26.86 76.64,24.87 C 75.07,18.52 72.75,13.03 69.89,8.88 C 67.02,4.72 63.7,2.02 60.2,1.01 C 56.7,0 53.13,0.71 49.8,3.07 C 46.47,5.43 43.47,9.38 41.07,14.57 C 40.34,16.15 39.43,17.37 38.42,18.12 C 37.42,18.87 36.33,19.14 35.27,18.9 C 30.92,18.08 26.58,20.53 23.08,25.77 C 19.59,31.01 17.19,38.67 16.35,47.25 C 16.14,49.35 15.7,51.33 15.06,53.05 C 14.42,54.77 13.6,56.18 12.65,57.18 C 9.12,60.88 6.12,66.32 3.93,73 C 1.75,79.67 0.45,87.35 0.15,95.32 L 0 99.9 L 8.39 99.9 L 9.57 97.53 L 12.65 91.46 L 4.75 91.46 C 5.3,85.82 6.47,80.49 8.19,75.89 C 9.9,71.28 12.11,67.51 14.66,64.85 C 16.19,63.27 17.52,61.01 18.56,58.25 C 19.59,55.48 20.3,52.29 20.64,48.9 C 21.27,42.39 23.08,36.59 25.73,32.62 C 28.38,28.65 31.67,26.81 34.96,27.44 C 36.68,27.79 38.41,27.34 40.03,26.13 C 41.64,24.91 43.1,22.97 44.28,20.44 C 46.21,16.25 48.63,13.07 51.31,11.16 C 53.99,9.25 56.87,8.68 59.69,9.49 C 62.51,10.3 65.19,12.47 67.49,15.81 C 69.8,19.15 71.67,23.57 72.95,28.68 C 73.72,31.78 74.83,34.51 76.2,36.63 C 77.57,38.76 79.16,40.25 80.85,40.97 C 83.48,42.17 85.94,44.52 88.06,47.85 C 90.17,51.19 91.9,55.42 93.1,60.25 C 94.31,65.07 94.96,70.38 95.03,75.77 C 95.09,81.17 94.55,86.53 93.46,91.46 L 86.91 91.46 L 89.99 97.63 L 91.17 100 L 96.05 100 L 96.64 97.79 C 99.31,87.76 100,76.08 98.56,65.08 C 97.11,54.09 93.65,44.59 88.86,38.5 L 88.86 38.5" fill="#2d5967" stroke="none" stroke-width="0.5"/>
  </g>
  <g transform="translate(49.00,44.00) scale(0.1300,0.1300)">
    <path d="M 100 50.48 C 100,40.68 97.09,31.11 91.65,22.97 C 86.21,14.82 78.48,8.48 69.43,4.73 C 60.38,0.98 50.43,0 40.82,1.91 C 31.21,3.82 22.39,8.54 15.47,15.46 C 8.54,22.39 3.83,31.21 1.91,40.82 C 0,50.42 0.98,60.38 4.73,69.43 C 8.48,78.47 14.82,86.21 22.97,91.65 C 31.11,97.09 40.68,100 50.48,100 C 56.98,100 63.42,98.71 69.43,96.23 C 75.44,93.74 80.9,90.1 85.5,85.5 C 90.09,80.9 93.74,75.43 96.23,69.43 C 98.72,63.42 100,56.98 100,50.48 L 100 50.48 M 26.09 50.48 C 26.09,45.54 27.55,40.71 30.3,36.6 C 33.05,32.49 36.94,29.29 41.51,27.4 C 46.08,25.51 51.1,25.01 55.95,25.98 C 60.79,26.94 65.24,29.32 68.74,32.81 C 72.23,36.31 74.61,40.76 75.57,45.6 C 76.54,50.45 76.04,55.47 74.15,60.04 C 72.26,64.6 69.06,68.51 64.95,71.25 C 60.85,73.99 56.01,75.46 51.07,75.46 C 47.74,75.54 44.43,74.95 41.33,73.73 C 38.23,72.51 35.41,70.68 33.03,68.36 C 30.64,66.03 28.75,63.25 27.45,60.18 C 26.17,57.11 25.5,53.81 25.5,50.48 L 26.09 50.48 L 26.09 50.48" fill="#2d5967" stroke="none" stroke-width="0.5"/>
  </g>
  <g transform="translate(8.00,34.00) scale(0.6400,0.3300)">
    <path d="M 87.07 4.56 L 82.01 12.27 L 81.79 12.27 L 81.08 0 L 66.28 0 L 65.57 12.27 L 65.35 12.27 L 60.32 4.56 L 50.99 22.35 L 49.84 24.66 L 53.76 34.02 L 53.76 34.44 L 47.36 35.57 L 47.36 55.19 L 42.29 56.43 L 41.76 59.45 C 41.49,61.13 41.14,62.76 40.71,64.31 L 39.93 67.16 L 43.04 74.81 L 39.19 82.22 L 35.18 76.29 L 33.68 77.71 C 32.87,78.53 32.02,79.2 31.14,79.73 L 29.55 80.73 L 28.96 90.46 L 23.46 90.46 L 22.87 80.73 L 21.29 79.73 C 20.41,79.2 19.55,78.53 18.74,77.71 L 17.25 76.29 L 13.24 82.22 L 9.32 74.81 L 12.43 67.16 L 11.75 64.43 C 11.32,62.88 10.96,61.25 10.69,59.57 L 10.16 56.55 L 5 55.36 L 5 44.75 L 10.1 43.69 L 10.69 40.72 C 10.96,39.05 11.32,37.42 11.75,35.86 L 12.52 33.02 L 9.42 25.37 L 13.33 17.9 L 17.34 23.83 L 18.83 22.35 C 19.65,21.53 20.5,20.85 21.38,20.33 L 22.97 19.38 L 23.56 9.66 L 29.09 9.66 L 29.68 19.38 L 31.26 20.33 C 32.14,20.85 32.99,21.53 33.81,22.35 L 35.3 23.83 L 39.31 17.9 L 43.23 25.37 L 46.49 17.66 L 39.59 4.56 L 34.55 12.27 L 34.34 12.27 L 33.62 0 L 18.83 0 L 18.12 12.27 L 17.9 12.27 L 12.87 4.56 L 2.39 24.54 L 6.43 34.14 L 6.43 34.56 L 0 35.92 L 0 64.43 L 6.43 65.8 L 6.43 66.21 L 2.39 75.88 L 12.87 95.79 L 17.9 88.08 L 18.12 88.08 L 18.83 100 L 33.62 100 L 34.34 88.14 L 34.55 88.14 L 39.59 95.85 L 49.97 76.11 L 49.07 73.92 L 45.96 66.45 L 45.96 66.03 L 48.88 65.56 L 49.78 65.56 L 52.55 64.43 L 52.55 44.87 L 57.61 43.81 L 58.14 40.72 C 58.42,39.05 58.77,37.42 59.2,35.86 L 59.98 33.02 L 56.87 25.37 L 60.78 17.9 L 64.79 23.83 L 66.28 22.35 C 67.1,21.53 67.95,20.85 68.83,20.33 L 70.45 19.38 L 71.01 9.66 L 76.48 9.66 L 77.03 19.38 L 78.62 20.33 C 79.5,20.85 80.35,21.53 81.17,22.35 L 82.66 23.83 L 86.67 17.9 L 90.62 25.37 L 87.51 33.02 L 88.25 35.86 C 88.68,37.42 89.04,39.05 89.31,40.72 L 89.84 43.81 L 94.93 44.87 L 94.93 55.48 L 89.84 56.55 L 89.31 59.57 C 89.04,61.25 88.68,62.88 88.25,64.43 L 87.51 67.28 L 90.62 74.93 L 86.67 82.22 L 82.69 76.29 L 81.2 77.71 C 80.38,78.53 79.53,79.2 78.65,79.73 L 77.07 80.73 L 76.48 90.4 L 70.91 90.4 L 70.26 80.68 L 68.65 79.67 C 67.77,79.14 66.91,78.47 66.1,77.65 L 64.7 76.29 L 60.69 82.22 L 57.12 75.34 L 56.62 75.05 L 53.51 82.45 L 60.32 95.38 L 65.35 87.67 L 65.57 87.67 L 66.28 100 L 81.08 100 L 81.79 88.14 L 82.01 88.14 L 87.07 95.85 L 97.51 75.93 L 93.47 66.27 L 93.47 65.86 L 100 64.43 L 100 35.92 L 93.57 34.8 L 93.57 34.38 L 97.61 24.78 L 87.07 4.56 L 87.07 4.56" fill="#2d5967" stroke="none" stroke-width="0.5"/>
  </g>
  <g transform="translate(18.00,44.00) scale(0.1300,0.1300)">
    <path d="M 0 49.52 C 0,59.31 2.9,68.89 8.34,77.03 C 13.78,85.17 21.52,91.52 30.57,95.27 C 39.62,99.02 49.58,100 59.18,98.09 C 68.79,96.18 77.61,91.46 84.54,84.54 C 91.46,77.61 96.18,68.79 98.1,59.18 C 100,49.57 99.02,39.62 95.27,30.57 C 91.53,21.52 85.18,13.79 77.03,8.35 C 68.89,2.9 59.31,0 49.52,0 C 36.38,0 23.79,5.22 14.5,14.5 C 5.21,23.79 0,36.39 0,49.52 L 0 49.52 M 73.91 49.52 C 73.91,54.46 72.44,59.29 69.7,63.4 C 66.96,67.51 63.05,70.71 58.49,72.6 C 53.93,74.49 48.9,74.99 44.06,74.02 C 39.21,73.06 34.76,70.68 31.26,67.19 C 27.77,63.69 25.39,59.24 24.43,54.39 C 23.46,49.55 23.96,44.53 25.85,39.96 C 27.74,35.39 30.94,31.49 35.05,28.75 C 39.16,26 43.99,24.54 48.93,24.54 C 52.26,24.46 55.57,25.05 58.67,26.27 C 61.77,27.49 64.6,29.32 66.98,31.64 C 69.36,33.97 71.25,36.75 72.55,39.82 C 73.84,42.89 74.51,46.19 74.51,49.52 L 73.91 49.52 L 73.91 49.52" fill="#2d5967" stroke="none" stroke-width="0.5"/>
  </g>
  <g transform="translate(34.00,45.00) scale(0.0000,0.0000)">
    <path d="M 100 100 L 100 0 L 0 0 L 100 100 L 100 100" fill="#2d5967" stroke="none" stroke-width="0.5"/>
  </g>
</svg>