<svg xmlns="http://www.w3.org/2000/svg" viewBox="0 0 82.0 109.0000000000001" width="82" height="109">
  <g transform="translate(11.00,2.00) scale(0.1900,0.7900)">
    <path d="M 0 78.22 L 0 21.53 L 100 0 L 100 100 L 0 78.22 L 0 78.22" fill="#FFFFFF" stroke="none" stroke-width="0.5"/>
  </g>
  <g transform="translate(11.00,0.00) scale(0.2100,0.8300)">
    <path d="M 90.99 5.15 L 90.99 94.61 L 9.01 75.88 L 9.01 23.42 L 90.99 5.15 L 90.99 5.15 M 100 0 L 84.69 3.28 L 2.7 21.78 L 0 22.48 L 0 23.42 L 0 75.88 L 0 77.05 L 2.7 77.75 L 84.69 96.49 L 100 100 L 100 94.85 L 100 5.15 L 100 0 L 100 0" fill="#FFFFFF" stroke="none" stroke-width="0.5"/>
  </g>
  <g transform="translate(72.00,2.00) scale(0.1900,0.7900)">
    <path d="M 0 0 L 100 21.53 L 100 78.22 L 0 100 L 0 0 L 0 0" fill="#FFFFFF" stroke="none" stroke-width="0.5"/>
  </g>
  <g transform="translate(71.00,0.00) scale(0.2100,0.8300)">
    <path d="M 9.01 5.16 L 90.99 23.47 L 90.99 76.06 L 9.01 94.84 L 9.01 5.16 L 9.01 5.16 M 0 0 L 0 5.16 L 0 94.84 L 0 100 L 15.31 96.48 L 97.3 77.7 L 100 77 L 100 75.82 L 100 23.47 L 100 22.54 L 97.3 21.83 L 15.31 3.52 L 0 0 L 0 0" fill="#FFFFFF" stroke="none" stroke-width="0.5"/>
  </g>
  <g transform="translate(31.00,3.00) scale(0.4100,0.8000)">
    <path d="M 51.9 100 L 50 91.22 L 48.1 100 L 0 100 L 31.9 0 L 69.05 0 L 100 100 L 51.9 100 L 51.9 100" fill="#FFFFFF" stroke="none" stroke-width="0.5"/>
  </g>
  <g transform="translate(30.00,2.00) scale(0.4300,0.8200)">
    <path d="M 66.22 2.38 L 95.05 97.62 L 54.06 97.62 L 50.45 78.57 L 46.85 97.62 L 5.86 97.62 L 35.14 2.38 L 66.22 2.38 L 66.22 2.38 M 70.27 0 L 66.22 0 L 34.68 0 L 30.63 0 L 30.18 1.9 L 0.9 97.14 L 0 100 L 5.4 100 L 46.4 100 L 50.45 100 L 53.6 100 L 94.6 100 L 100 100 L 99.1 97.14 L 70.27 1.9 L 70.27 0 L 70.27 0" fill="#FFFFFF" stroke="none" stroke-width="0.5"/>
  </g>
  <g transform="translate(15.00,10.00) scale(0.1100,0.6200)">
    <path d="M 100 0 L 0 16.72 L 0 83.28 L 100 100 L 100 0 L 100 0" fill="#FFFFFF" stroke="none" stroke-width="0.5"/>
  </g>
  <g transform="translate(12.00,4.00) scale(0.1700,0.7500)">
    <path d="M 0 79.11 L 100 100 L 100 0 L 0 20.37 L 0 79.11 L 0 79.11 M 16.48 22.19 L 83.51 8.36 L 83.51 91.12 L 16.48 77.02 L 16.48 22.19 L 16.48 22.19" fill="#2d5967" stroke="none" stroke-width="0.5"/>
  </g>
  <g transform="translate(76.00,10.00) scale(0.1100,0.6200)">
    <path d="M 0 100 L 100 83.28 L 100 16.72 L 0 0 L 0 100 L 0 100" fill="#FFFFFF" stroke="none" stroke-width="0.5"/>
  </g>
  <g transform="translate(73.00,4.00) scale(0.1700,0.7500)">
    <path d="M 0 0 L 0 100 L 100 79.06 L 100 20.42 L 0 0 L 0 0 M 83.52 77.49 L 16.48 91.62 L 16.48 8.38 L 83.52 22.25 L 83.52 77.49 L 83.52 77.49" fill="#2d5967" stroke="none" stroke-width="0.5"/>
  </g>
  <g transform="translate(36.00,7.00) scale(0.3200,0.7200)">
    <path d="M 37.19 0 L 0 100 L 37.19 100 L 50 42.7 L 62.8 100 L 100 100 L 64.02 0 L 37.19 0 L 37.19 0" fill="#FFFFFF" stroke="none" stroke-width="0.5"/>
  </g>
  <g transform="translate(32.00,4.00) scale(0.3800,0.7800)">
    <path d="M 32.83 0 L 0 100 L 45.96 100 L 50 80 L 54.04 100 L 100 100 L 67.68 0 C 68.18,0 32.83,0 32.83,0 L 32.83 0 M 60.61 96.25 L 50 43.25 L 39.39 96.25 L 8.59 96.25 L 39.39 3.75 L 62.12 3.75 L 91.92 96.25 L 60.61 96.25 L 60.61 96.25" fill="#2d5967" stroke="none" stroke-width="0.5"/>
  </g>
</svg>