<svg xmlns="http://www.w3.org/2000/svg" viewBox="0 0 84.0 125.00000000000017" width="84" height="125">
  <g transform="translate(28.00,1.00) scale(0.8200,0.8200)">
    <path d="M 5.35 99.76 C 2.43,99.76 0,97.32 0,94.4 L 0 5.35 C 0,2.43 2.43,0 5.35,0 L 94.65 0 C 97.57,0 100,2.43 100,5.35 L 100 94.65 C 100,97.57 97.57,100 94.65,100 L 5.35 99.76 L 5.35 99.76" fill="#FFFFFF" stroke="none" stroke-width="0.5"/>
  </g>
  <g transform="translate(27.00,0.00) scale(0.8400,0.8400)">
    <path d="M 93.35 2.38 C 95.49,2.38 97.39,4.29 97.39,6.43 L 97.39 93.81 C 97.39,95.95 95.49,97.86 93.35,97.86 L 6.41 97.86 C 4.28,97.62 2.38,95.71 2.38,93.57 L 2.38 6.43 C 2.38,4.29 4.28,2.38 6.41,2.38 L 93.35 2.38 L 93.35 2.38 M 93.35 0 L 6.41 0 C 2.85,0 0,2.86 0,6.43 L 0 93.81 C 0,97.14 2.85,100 6.41,100 L 93.59 100 C 97.15,100 100,97.14 100,93.57 L 100 6.43 C 99.76,2.86 96.91,0 93.35,0 L 93.35 0" fill="#FFFFFF" stroke="none" stroke-width="0.5"/>
  </g>
  <g transform="translate(29.00,2.00) scale(0.8000,0.8000)">
    <path d="M 95.51 0 L 4.24 0 C 2,0 0,2 0,4.25 L 0 96 C 0,98 2,100 4.24,100 L 95.76 100 C 98,100 100,98 100,95.75 L 100 4.25 C 99.75,2 97.75,0 95.51,0 L 95.51 0 M 96.01 95.75 C 96.01,96 95.76,96.25 95.51,96.25 L 4.24 96.25 C 3.99,96.25 3.74,96 3.74,95.75 L 3.74 4.25 C 3.74,4 3.99,3.75 4.24,3.75 L 95.76 3.75 C 96.01,3.75 96.26,4 96.26,4.25 L 96.01 95.75 L 96.01 95.75" fill="#2d5967" stroke="none" stroke-width="0.5"/>
  </g>
  <g transform="translate(50.00,10.00) scale(0.1700,0.1700)">
    <path d="M 100 0 L 0 0 L 0 100 L 100 100 L 100 0 L 100 0 M 83.15 84.27 L 16.85 84.27 L 16.85 16.85 L 83.15 16.85 L 83.15 84.27 L 83.15 84.27" fill="#2d5967" stroke="none" stroke-width="0.5"/>
  </g>
  <g transform="translate(70.00,10.00) scale(0.1700,0.1700)">
    <path d="M 100 0 L 0 0 L 0 100 L 100 100 C 98.87,100 98.87,0 100,0 L 100 0 M 83.15 84.27 L 16.86 84.27 L 16.86 16.85 L 83.15 16.85 L 83.15 84.27 L 83.15 84.27" fill="#2d5967" stroke="none" stroke-width="0.5"/>
  </g>
  <g transform="translate(60.00,31.00) scale(0.1700,0.0800)">
    <path d="M 15.91 35.71 L 84.09 35.71 L 84.09 92.86 L 100 100 L 100 0 L 0 0 L 0 100 L 15.91 92.86 L 15.91 35.71 L 15.91 35.71" fill="#2d5967" stroke="none" stroke-width="0.5"/>
  </g>
  <g transform="translate(80.00,31.00) scale(0.1700,0.1300)">
    <path d="M 15.91 22.39 L 84.09 22.39 L 84.09 95.52 L 100 100 L 100 0 L 0 0 L 0 67.16 L 15.91 73.13 L 15.91 22.39 L 15.91 22.39" fill="#2d5967" stroke="none" stroke-width="0.5"/>
  </g>
  <g transform="translate(40.00,31.00) scale(0.1700,0.1300)">
    <path d="M 15.91 22.39 L 84.09 22.39 L 84.09 73.13 L 100 67.16 L 100 0 L 0 0 L 0 100 L 15.91 95.52 L 15.91 22.39 L 15.91 22.39" fill="#2d5967" stroke="none" stroke-width="0.5"/>
  </g>
  <g transform="translate(37.00,39.00) scale(0.6300,0.3300)">
    <path d="M 50 0 L 0 23.21 L 0.63 27.38 C 6.33,70.24 26.58,100 50,100 C 73.42,100 93.99,70.24 99.37,27.38 L 100 23.21 L 50 0 L 50 0 M 47.79 10.12 L 47.79 91.07 C 28.16,89.88 11.39,64.88 5.7,29.76 L 47.79 10.12 L 47.79 10.12 M 52.21 91.07 L 52.21 10.12 L 94.3 29.76 C 88.61,64.88 71.84,89.88 52.21,91.07 L 52.21 91.07" fill="#2d5967" stroke="none" stroke-width="0.5"/>
  </g>
</svg>