<svg xmlns="http://www.w3.org/2000/svg" viewBox="0 0 83.0 109.0000000000001" width="83" height="109">
  <g transform="translate(0.00,2.00) scale(0.8000,0.8100)">
    <path d="M 72.36 91.21 L 55.29 100 L 58.65 81.23 L 51.44 74.11 L 0 74.11 L 0 13.3 L 31.01 13.3 L 43.51 11.4 L 49.28 0 L 54.81 11.4 L 67.55 13.3 L 58.41 22.09 L 60.58 34.44 L 49.28 28.74 L 37.98 34.44 L 40.14 22.09 L 37.26 19.24 L 6.01 19.24 L 6.01 68.41 L 45.19 68.41 L 44.71 67.93 L 63.94 65.08 L 72.36 48.22 L 81.01 65.08 L 100 67.93 L 86.06 81.23 L 89.42 100 L 72.36 91.21 L 72.36 91.21" fill="#FFFFFF" stroke="none" stroke-width="0.5"/>
  </g>
  <g transform="translate(0.00,0.00) scale(0.8300,0.8400)">
    <path d="M 48.39 5.23 L 53 14.55 L 63.36 15.91 L 55.76 23.18 L 57.6 33.41 L 48.39 28.64 L 39.17 33.41 L 41.01 23.18 L 37.56 19.77 L 5.76 19.77 L 5.76 68.86 L 47.47 68.86 L 46.54 68.18 L 63.13 65.91 L 70.51 51.14 L 77.88 65.91 L 94.47 68.18 L 82.49 79.77 L 85.25 96.14 L 70.51 88.41 L 55.76 96.14 L 58.52 79.77 L 50.69 72.27 L 2.31 72.27 L 2.31 16.36 L 33.64 16.36 L 33.18 15.91 L 43.78 14.55 L 48.39 5.23 L 48.39 5.23 M 48.39 0 L 46.31 4.09 L 42.17 12.27 L 32.95 13.64 L 29.72 14.09 L 2.31 14.09 L 0 14.09 L 0 16.36 L 0 72.27 L 0 74.55 L 2.31 74.55 L 49.77 74.55 L 55.99 80.46 L 53.46 95.46 L 52.77 100 L 56.91 97.96 L 70.74 90.91 L 84.56 97.96 L 88.71 100 L 88.02 95.46 L 85.48 80.46 L 96.54 69.77 L 100 66.59 L 95.39 65.91 L 79.95 63.64 L 73.04 50 L 70.97 45.91 L 68.89 50 L 61.98 63.64 L 46.54 65.91 L 41.94 66.59 L 8.06 66.59 L 8.06 22.05 L 36.41 22.05 L 38.48 24.09 L 36.87 33.18 L 36.18 37.73 L 40.32 35.68 L 48.62 31.36 L 56.91 35.68 L 61.06 37.73 L 60.37 33.18 L 58.76 24.09 L 65.44 17.73 L 68.89 14.55 L 64.29 13.86 L 55.07 12.5 L 50.92 4.32 L 48.39 0 L 48.39 0" fill="#FFFFFF" stroke="none" stroke-width="0.5"/>
  </g>
  <g transform="translate(1.00,13.00) scale(0.3700,0.4700)">
    <path d="M 7.69 94.31 L 7.69 6.1 L 69.74 6.1 L 62.05 0 L 0 0 L 0 100 L 100 100 L 92.31 94.31 L 7.69 94.31 L 7.69 94.31" fill="#2d5967" stroke="none" stroke-width="0.5"/>
  </g>
  <g transform="translate(37.00,42.00) scale(0.4000,0.3800)">
    <path d="M 100 37.88 L 65.38 32.83 L 50 0 L 34.62 32.83 L 0 37.88 L 25 63.64 L 19.23 100 L 50 82.83 L 80.77 100 L 75 63.64 L 100 37.88 L 100 37.88 M 28.36 85.86 L 32.69 60.61 L 15.38 42.93 L 39.42 39.39 L 50 16.67 L 60.58 39.39 L 84.62 42.93 L 67.31 60.61 L 71.15 85.86 L 49.52 74.24 L 28.36 85.86 L 28.36 85.86" fill="#2d5967" stroke="none" stroke-width="0.5"/>
  </g>
  <g transform="translate(26.00,4.00) scale(0.2500,0.2300)">
    <path d="M 25.19 63.71 L 19.08 100 L 49.62 83.06 L 80.15 100 L 74.04 63.71 L 100 37.9 L 65.65 33.06 L 50.38 0 L 35.11 33.06 L 0 37.9 L 25.19 63.71 L 25.19 63.71 M 24.43 46.77 L 41.99 44.35 L 49.62 27.42 L 57.25 44.35 L 74.81 46.77 L 61.83 59.68 L 64.88 78.23 L 50.38 69.35 L 34.35 78.23 L 37.4 59.68 L 24.43 46.77 L 24.43 46.77" fill="#2d5967" stroke="none" stroke-width="0.5"/>
  </g>
</svg>