<svg xmlns="http://www.w3.org/2000/svg" viewBox="0 0 87.0 96.00000000000007" width="87" height="96">
  <g transform="translate(0.00,0.00) scale(0.8500,0.7000)">
    <path d="M 34.01 100 L 34.01 95.61 L 38.87 92.68 L 39.47 92.68 L 39.68 91.46 L 21.86 91.46 L 21.86 59.76 L 0 59.76 L 0.2 55.85 C 0.81,46.1 5.47,37.32 12.75,32.93 C 14.37,31.95 15.59,30 15.79,28.05 C 17,21.22 20.85,15.37 26.11,12.44 C 28.34,11.22 30.77,10.73 33.4,10.73 C 34.01,10.73 34.41,10.73 35.02,10.73 C 35.22,10.73 35.42,10.73 35.63,10.73 C 37.25,10.73 38.66,10 39.68,8.54 C 43.93,3.17 49.8,0 55.87,0 C 64.17,0 71.86,5.61 75.51,14.63 C 76.32,16.59 77.73,18.05 79.55,18.54 C 81.98,19.27 84.41,20.49 86.64,22.19 C 96.56,29.76 100,45.61 94.53,58.05 L 94.13 59.76 L 76.11 59.76 L 76.11 91.46 L 58.3 91.46 L 58.5 92.68 L 59.51 92.68 L 64.37 95.61 L 64.37 100 L 34.01 100 L 34.01 100" fill="#FFFFFF" stroke="none" stroke-width="0.5"/>
  </g>
  <g transform="translate(0.00,0.00) scale(0.8700,0.7200)">
    <path d="M 55.73 2.38 C 63.64,2.38 70.55,7.62 74.11,15.95 C 75.1,18.1 76.68,19.76 78.85,20.24 C 81.23,20.95 83.4,21.91 85.57,23.57 C 94.86,30.71 98.02,45.24 92.89,56.9 L 92.29 58.1 L 74.31 58.1 L 74.31 88.81 L 56.72 88.81 L 57.11 92.38 L 58.89 92.38 L 62.85 94.76 L 62.85 97.14 L 58.89 97.14 L 39.33 97.14 L 35.38 97.14 L 35.38 94.76 L 39.33 92.38 L 40.51 92.38 L 40.91 88.81 L 23.32 88.81 L 23.32 58.33 L 2.17 58.33 L 2.37 55.71 C 2.96,46.43 7.31,38.57 14.03,34.29 C 15.81,33.1 17.19,30.95 17.59,28.57 C 18.58,22.14 22.13,16.9 27.08,14.29 C 29.25,13.1 31.42,12.62 33.79,12.62 C 34.39,12.62 34.78,12.62 35.38,12.62 C 35.57,12.62 35.77,12.62 35.97,12.62 C 37.75,12.62 39.53,11.67 40.71,10.24 C 44.66,5.24 50,2.38 55.73,2.38 L 55.73 2.38 M 55.73 0 C 49.41,0 43.48,3.1 39.33,8.57 C 38.54,9.76 37.35,10.24 35.97,10.24 C 35.77,10.24 35.57,10.24 35.57,10.24 C 34.98,10.24 34.39,10.24 33.79,10.24 C 31.23,10.24 28.66,10.95 26.28,12.14 C 20.75,15 16.8,21.19 15.61,28.33 C 15.41,30 14.43,31.43 13.04,32.38 C 5.73,37.14 0.79,45.71 0.2,55.71 L 0 58.33 L 0 60.71 L 2.17 60.71 L 21.34 60.71 L 21.34 89.05 L 21.34 91.43 L 23.32 91.43 L 36.96 91.43 L 34.39 92.86 L 33.2 93.57 L 33.2 95.24 L 33.2 97.62 L 33.2 100 L 35.18 100 L 39.13 100 L 58.7 100 L 62.65 100 L 64.62 100 L 64.62 97.62 L 64.62 95.24 L 64.62 93.81 L 63.44 93.1 L 60.87 91.67 L 73.91 91.67 L 75.89 91.67 L 75.89 89.29 L 75.89 60.71 L 91.9 60.71 L 93.08 60.71 L 93.68 59.52 L 94.27 58.33 C 100,45.48 96.44,29.52 86.36,21.67 C 84.19,20 81.62,18.81 79.05,18.1 C 77.67,17.62 76.29,16.67 75.69,15 C 72.13,5.71 64.43,0 55.73,0 L 55.73 0" fill="#FFFFFF" stroke="none" stroke-width="0.5"/>
  </g>
  <g transform="translate(20.00,30.00) scale(0.4400,0.4000)">
    <path d="M 0 85.11 L 34.5 85.11 L 33.72 91.49 L 31.4 91.49 L 23.64 95.74 L 23.64 100 L 31.4 100 L 69.77 100 L 77.52 100 L 77.52 95.74 L 69.77 91.49 L 66.28 91.49 L 65.5 85.11 L 100 85.11 L 100 0 L 0 0 L 0 85.11 L 0 85.11 M 41.47 91.49 L 42.25 85.11 L 57.75 85.11 L 58.53 91.49 L 41.47 91.49 L 41.47 91.49 M 7.75 8.51 L 92.25 8.51 L 92.25 61.28 L 79.46 61.28 L 79.46 65.53 L 71.71 65.53 L 71.71 61.28 L 62.4 61.28 L 62.4 65.53 L 54.65 65.53 L 54.65 61.28 L 45.35 61.28 L 45.35 65.53 L 37.6 65.53 L 37.6 61.28 L 28.29 61.28 L 28.29 65.53 L 20.54 65.53 L 20.54 61.28 L 8.91 61.28 L 8.91 8.51 L 7.75 8.51 L 7.75 8.51 M 7.75 69.79 L 92.25 69.79 L 92.25 76.17 L 7.75 76.17 L 7.75 69.79 L 7.75 69.79" fill="#2d5967" stroke="none" stroke-width="0.5"/>
  </g>
  <g transform="translate(1.00,1.00) scale(0.8300,0.4000)">
    <path d="M 86.8 38.3 C 84.74,35.32 82.27,33.62 79.79,32.34 C 77.73,31.49 75.88,28.51 74.85,24.68 C 71.34,9.36 64.12,0 55.88,0 C 49.9,0 44.12,5.11 40.21,14.04 C 38.76,17.02 36.7,18.72 34.64,18.3 C 31.55,17.87 28.66,18.72 25.98,21.28 C 20.82,25.96 17.11,35.74 16.08,46.81 C 15.67,51.06 14.23,54.89 12.37,57.02 C 5.36,64.68 0.82,79.15 0.21,95.32 L 0 100 L 18.97 100 L 18.97 91.49 L 4.54 91.49 C 5.57,80 9.07,70.21 14.23,64.68 C 17.32,61.28 19.38,55.32 20,48.51 C 20.82,40 23.71,32.77 27.63,28.94 C 29.69,27.23 31.96,26.38 34.02,26.81 C 37.53,27.66 40.82,25.11 43.09,19.57 C 46.6,12.77 51.13,8.51 55.88,8.51 C 62.47,8.51 68.45,16.17 71.34,28.08 C 72.78,34.47 75.67,39.15 79.18,40.43 C 81.24,41.28 83.09,42.98 84.74,45.11 C 92.17,54.89 95.05,74.89 91.55,91.06 L 78.56 91.06 L 78.56 99.57 L 94.23 99.57 L 94.84 97.45 C 100,77.02 96.7,50.64 86.8,38.3 L 86.8 38.3" fill="#2d5967" stroke="none" stroke-width="0.5"/>
  </g>
  <g transform="translate(28.00,48.00) scale(0.0300,0.0700)">
    <path d="M 0 0 L 0 78.26 L 0 100 L 100 100 L 100 78.26 L 100 0 L 0 0 L 0 0" fill="#2d5967" stroke="none" stroke-width="0.5"/>
  </g>
  <g transform="translate(36.00,45.00) scale(0.0300,0.1100)">
    <path d="M 0 0 L 0 84.85 L 0 100 L 100 100 L 100 84.85 L 100 0 L 0 0 L 0 0" fill="#2d5967" stroke="none" stroke-width="0.5"/>
  </g>
  <g transform="translate(44.00,40.00) scale(0.0300,0.1600)">
    <path d="M 0 0 L 0 89.36 L 0 100 L 100 100 L 100 89.36 L 100 0 L 0 0 L 0 0" fill="#2d5967" stroke="none" stroke-width="0.5"/>
  </g>
  <g transform="translate(52.00,36.00) scale(0.0300,0.2000)">
    <path d="M 0 0 L 0 91.6 L 0 100 L 100 100 L 100 91.6 L 100 0 L 0 0 L 0 0" fill="#2d5967" stroke="none" stroke-width="0.5"/>
  </g>
</svg>