<svg xmlns="http://www.w3.org/2000/svg" viewBox="0 0 84.0 125.00000000000017" width="84" height="125">
  <g transform="translate(6.00,1.00) scale(0.8300,0.8300)">
    <path d="M 37.23 99.76 L 35.77 87.59 C 34.79,87.35 34.06,86.86 33.09,86.37 L 23.6 93.92 L 5.6 75.91 L 13.14 66.42 C 12.65,65.45 12.41,64.72 12.17,63.75 L 0 62.29 L 0 37.23 L 12.17 35.77 C 12.41,34.79 12.9,34.06 13.14,33.09 L 5.6 23.6 L 23.6 5.6 L 33.09 13.14 C 34.06,12.65 34.79,12.41 35.77,12.17 L 37.23 0 L 62.77 0 L 63.99 12.17 C 64.96,12.41 65.69,12.9 66.67,13.14 L 76.16 5.6 L 94.16 23.6 L 86.62 33.09 C 87.11,34.06 87.35,34.79 87.83,35.77 L 100 37.23 L 100 62.77 L 87.83 63.99 C 87.59,64.96 87.11,65.69 86.62,66.67 L 94.16 76.16 L 76.16 94.16 L 66.67 86.62 C 65.69,87.1 64.96,87.35 63.99,87.83 L 62.77 100 L 37.23 100 L 37.23 99.76 L 37.23 99.76" fill="#FFFFFF" stroke="none" stroke-width="0.5"/>
  </g>
  <g transform="translate(5.00,0.00) scale(0.8400,0.8400)">
    <path d="M 61.87 2.39 L 63.07 13.88 C 64.51,14.35 65.71,14.83 67.15,15.55 L 76.26 8.37 L 92.57 24.64 L 85.37 33.73 C 85.85,34.93 86.57,36.36 87.05,37.56 L 98.56 38.76 L 98.56 61.72 L 87.05 62.92 C 86.57,64.12 86.09,65.55 85.37,66.75 L 92.57 75.84 L 76.26 92.11 L 67.15 84.93 C 65.95,85.41 64.51,86.13 63.31,86.6 L 61.87 98.09 L 38.85 98.09 L 37.65 86.6 C 36.21,86.13 35.01,85.65 33.81,84.93 L 24.7 92.11 L 8.39 75.84 L 15.59 66.75 C 15.11,65.55 14.39,64.12 13.91,62.92 L 2.4 61.72 L 2.4 38.76 L 13.91 37.56 C 14.39,36.12 14.87,34.93 15.59,33.49 L 8.39 24.4 L 24.7 8.13 L 33.81 15.31 C 35.01,14.83 36.45,14.11 37.65,13.64 L 38.85 2.39 L 61.87 2.39 L 61.87 2.39 M 64.03 0 L 61.87 0 L 38.85 0 L 36.69 0 L 36.45 2.15 L 35.25 12.2 C 34.77,12.44 34.29,12.68 33.81,12.68 L 25.9 6.22 L 24.22 4.78 L 22.78 6.7 L 6.71 22.73 L 5.28 24.16 L 6.71 25.84 L 13.19 33.73 C 12.95,34.21 12.71,34.69 12.71,35.17 L 2.64 36.36 L 0 36.6 L 0 38.76 L 0 61.72 L 0 63.88 L 2.16 64.12 L 12.23 65.31 C 12.47,65.79 12.71,66.27 12.71,66.51 L 6.23 74.4 L 4.8 76.08 L 6.23 77.51 L 22.54 93.78 L 23.98 95.22 L 25.66 93.78 L 33.57 87.32 C 34.05,87.56 34.53,87.8 35.01,87.8 L 36.21 97.85 L 36.45 100 L 38.61 100 L 61.63 100 L 63.79 100 L 64.03 97.85 L 65.23 87.8 C 65.71,87.56 66.19,87.32 66.43,87.32 L 74.34 93.78 L 76.02 95.22 L 77.46 93.78 L 93.77 77.51 L 95.2 76.08 L 93.77 74.4 L 87.29 66.51 C 87.53,66.03 87.77,65.55 87.77,65.31 L 97.84 64.12 L 100 63.88 L 100 61.72 L 100 38.76 L 100 36.6 L 97.84 36.36 L 87.77 35.17 C 87.53,34.69 87.29,34.21 87.29,33.73 L 93.77 25.84 L 95.2 24.16 L 93.77 22.73 L 77.46 6.46 L 76.02 5.02 L 74.34 6.46 L 66.43 12.92 C 65.95,12.68 65.47,12.44 65.23,12.44 L 64.03 2.39 L 64.03 0 L 64.03 0" fill="#FFFFFF" stroke="none" stroke-width="0.5"/>
  </g>
  <g transform="translate(7.00,2.00) scale(0.8100,0.8100)">
    <path d="M 100 61.85 L 100 37.91 L 88 36.66 C 87.5,35.16 87,33.92 86.25,32.67 L 93.75 23.19 L 76.75 6.23 L 67.25 13.72 C 66,13.22 64.5,12.47 63.25,11.97 L 62 0 L 38 0 L 36.75 11.97 C 35.25,12.47 34,12.97 32.5,13.72 L 23 6.23 L 6 23.19 L 13.5 32.67 C 13,33.92 12.25,35.41 11.75,36.66 L 0 37.91 L 0 61.85 L 12 63.09 C 12.5,64.59 13,65.84 13.75,67.33 L 6.25 76.81 L 23.25 93.77 L 32.75 86.28 C 34,86.78 35.5,87.53 36.75,88.03 L 38 100 L 62 100 L 63.25 88.03 C 64.5,87.53 66,87.03 67.25,86.28 L 76.75 93.77 L 93.75 76.81 L 86.25 67.33 C 86.75,66.08 87.5,64.59 88,63.34 L 100 61.85 L 100 61.85 M 88.75 76.31 L 76.5 88.53 L 67.75 81.55 L 66.75 82.29 C 65,83.29 63,84.04 61,84.79 L 60 85.04 L 58.75 96.26 L 41.5 96.26 L 40 85.04 L 38.75 84.54 C 36.75,84.04 34.75,83.04 33,82.04 L 32 81.55 L 23.25 88.53 L 11 76.31 L 18 67.58 L 17.5 66.58 C 16.5,64.84 15.75,62.84 15.25,60.85 L 14.75 59.85 L 3.5 58.6 L 3.5 41.4 L 14.75 39.9 L 15.25 38.65 C 15.75,36.91 16.75,34.91 17.5,33.17 L 18 32.17 L 11 23.44 L 23.25 11.22 L 32 18.2 L 33.25 17.46 C 35,16.46 37,15.71 39,15.21 L 40 14.71 L 41.25 3.49 L 58.5 3.49 L 60 14.71 L 61.25 15.21 C 63,15.71 65,16.71 66.75,17.46 L 67.75 17.96 L 76.5 10.97 L 88.75 23.19 L 81.75 31.92 L 82.25 32.92 C 83.25,34.66 84,36.66 84.75,38.65 L 85.25 39.9 L 96.5 41.15 L 96.5 58.35 L 85.25 59.85 L 84.75 61.1 C 84.25,63.09 83.25,64.84 82.25,66.83 L 81.75 67.83 L 88.75 76.31 L 88.75 76.31" fill="#2d5967" stroke="none" stroke-width="0.5"/>
  </g>
  <g transform="translate(56.00,33.00) scale(0.0700,0.0700)">
    <path d="M 100 0 L 0 0 L 0 100 L 100 100 L 100 0 L 100 0" fill="#2d5967" stroke="none" stroke-width="0.5"/>
  </g>
  <g transform="translate(65.00,33.00) scale(0.0700,0.0700)">
    <path d="M 100 0 L 0 0 L 0 100 L 100 100 L 100 0 L 100 0" fill="#2d5967" stroke="none" stroke-width="0.5"/>
  </g>
  <g transform="translate(56.00,43.00) scale(0.0700,0.0700)">
    <path d="M 100 0 L 0 0 L 0 100 L 100 100 L 100 0 L 100 0" fill="#2d5967" stroke="none" stroke-width="0.5"/>
  </g>
  <g transform="translate(65.00,43.00) scale(0.0700,0.0700)">
    <path d="M 100 0 L 0 0 L 0 100 L 100 100 L 100 0 L 100 0" fill="#2d5967" stroke="none" stroke-width="0.5"/>
  </g>
  <g transform="translate(38.00,33.00) scale(0.1500,0.1700)">
    <path d="M 0 0 L 56.58 50 L 0 100 L 44.74 100 L 100 50 L 44.74 0 L 0 0 L 0 0" fill="#2d5967" stroke="none" stroke-width="0.5"/>
  </g>
  <g transform="translate(20.00,34.00) scale(0.0600,0.0600)">
    <path d="M 50 100 C 77.6,100 100,77.61 100,50 C 100,22.39 77.6,0 50,0 C 22.38,0 0,22.39 0,50 C 0,77.61 22.38,100 50,100 L 50 100" fill="#2d5967" stroke="none" stroke-width="0.5"/>
  </g>
  <g transform="translate(28.00,46.00) scale(0.0400,0.0400)">
    <path d="M 50 100 C 77.6,100 100,77.61 100,50 C 100,22.38 77.6,0 50,0 C 22.4,0 0,22.38 0,50 C 0,77.61 22.4,100 50,100 L 50 100" fill="#2d5967" stroke="none" stroke-width="0.5"/>
  </g>
  <g transform="translate(18.00,42.00) scale(0.0700,0.0700)">
    <path d="M 50 100 C 77.61,100 100,77.61 100,50 C 100,22.39 77.61,0 50,0 C 22.39,0 0,22.39 0,50 C 0,77.61 22.39,100 50,100 L 50 100" fill="#2d5967" stroke="none" stroke-width="0.5"/>
  </g>
  <g transform="translate(28.00,33.00) scale(0.1000,0.1000)">
    <path d="M 49.99 100 C 77.62,100 100,77.61 100,50 C 100,22.39 77.62,0 49.99,0 C 22.38,0 0,22.39 0,50 C 0,77.61 22.38,100 49.99,100 L 49.99 100" fill="#2d5967" stroke="none" stroke-width="0.5"/>
  </g>
</svg>