<svg xmlns="http://www.w3.org/2000/svg" viewBox="0 0 84.0 68.00000000000004" width="84" height="68">
  <g transform="translate(1.00,0.00) scale(0.8200,0.4200)">
    <path d="M 0 99.76 L 0.27 92.78 C 0.6,84.85 1.97,77.22 4.25,70.61 C 6.53,64 9.64,58.63 13.29,55.02 C 14.07,54.19 14.74,53.03 15.24,51.62 C 15.75,50.21 16.08,48.59 16.22,46.9 C 17.04,38.74 19.31,31.39 22.62,26.11 C 25.93,20.83 30.09,17.95 34.38,17.96 C 34.95,17.89 35.52,17.89 36.08,17.96 L 36.67 17.96 C 37.44,17.98 38.2,17.69 38.9,17.1 C 39.6,16.52 40.24,15.65 40.76,14.56 C 43.26,9.36 46.38,5.41 49.84,3.05 C 53.3,0.69 57,0 60.63,1.03 C 64.26,2.06 67.71,4.78 70.68,8.97 C 73.65,13.15 76.05,18.67 77.67,25.04 C 78.05,26.65 78.62,28.06 79.33,29.16 C 80.04,30.27 80.87,31.04 81.76,31.42 C 85.26,32.94 88.52,36.02 91.3,40.39 C 94.08,44.77 96.3,50.33 97.79,56.64 C 99.28,62.95 100,69.85 99.89,76.79 C 99.78,83.73 98.84,90.53 97.15,96.65 L 96.23 100 L 0 99.76 L 0 99.76" fill="#FFFFFF" stroke="none" stroke-width="0.5"/>
  </g>
  <g transform="translate(0.00,0.00) scale(0.8400,0.4400)">
    <path d="M 57.2 4.55 C 61.09,4.52 64.91,6.58 68.22,10.5 C 71.53,14.43 74.19,20.05 75.92,26.73 C 76.38,28.52 77.05,30.08 77.87,31.31 C 78.69,32.53 79.65,33.39 80.66,33.82 C 83.07,34.86 85.36,36.67 87.45,39.19 C 92.05,44.7 95.38,53.37 96.76,63.43 C 98.15,73.48 97.48,84.17 94.9,93.32 L 94.33 95.36 L 2.56 95.36 L 2.73 91.18 C 2.99,83.92 4.22,76.9 6.29,70.8 C 8.37,64.7 11.23,59.71 14.59,56.32 C 15.51,55.42 16.31,54.13 16.93,52.56 C 17.56,50.99 17.99,49.16 18.2,47.23 C 18.72,42.13 19.87,37.35 21.57,33.28 C 23.26,29.22 25.44,26.01 27.92,23.91 C 30.07,22.13 32.37,21.2 34.71,21.19 L 36.28 21.19 L 36.94 21.19 C 37.83,21.16 38.71,20.8 39.52,20.11 C 40.34,19.42 41.07,18.43 41.68,17.19 C 43.67,13.14 46.08,9.93 48.75,7.75 C 51.42,5.58 54.3,4.49 57.2,4.55 L 57.2 4.55 M 57.2 0.01 C 54,0.01 50.83,1.28 47.89,3.74 C 44.96,6.19 42.32,9.78 40.14,14.28 C 39.74,15.1 39.26,15.74 38.72,16.18 C 38.18,16.62 37.6,16.84 37.01,16.82 L 36.56 16.82 C 35.97,16.76 35.37,16.76 34.78,16.82 C 30.33,16.84 26.01,19.81 22.58,25.23 C 19.14,30.65 16.79,38.18 15.92,46.55 C 15.78,47.83 15.5,49.03 15.09,50.07 C 14.68,51.11 14.15,51.95 13.55,52.55 C 9.83,56.27 6.67,61.74 4.36,68.46 C 2.05,75.17 0.67,82.9 0.36,90.91 L 0.19 95.09 L 0 100 L 95.75 100 L 96.42 97.64 L 96.99 95.59 C 98.75,89.39 99.74,82.49 99.87,75.44 C 100,68.38 99.27,61.36 97.74,54.94 C 96.21,48.52 93.92,42.87 91.05,38.44 C 88.18,34.01 84.81,30.92 81.21,29.41 C 80.54,29.14 79.91,28.59 79.36,27.81 C 78.81,27.02 78.36,26.02 78.03,24.87 C 76.12,17.4 73.16,11.12 69.47,6.72 C 65.79,2.33 61.54,0 57.2,0.01 L 57.2 0.01" fill="#FFFFFF" stroke="none" stroke-width="0.5"/>
  </g>
  <g transform="translate(2.00,2.00) scale(0.8100,0.4000)">
    <path d="M 96.6 97.65 L 96 99.9 L 51.33 99.9 C 49.44,99.89 47.58,99.13 45.84,97.66 C 44.1,96.2 42.53,94.06 41.2,91.37 C 39.87,88.68 38.82,85.48 38.1,81.98 C 37.39,78.46 37.03,74.71 37.03,70.91 L 41.3 70.91 C 41.28,76.26 42.31,81.41 44.17,85.23 C 46.03,89.06 48.57,91.24 51.23,91.3 L 93.42 91.3 C 95.23,83.29 95.54,74.24 94.3,65.8 C 93.06,57.36 90.35,50.11 86.67,45.37 C 84.92,43.04 82.98,41.35 80.94,40.37 C 79.24,39.62 77.65,38.12 76.28,35.97 C 74.91,33.83 73.8,31.1 73.02,27.97 C 71.58,22.06 69.34,17.08 66.55,13.61 C 63.77,10.14 60.56,8.33 57.28,8.38 C 54.83,8.39 52.4,9.44 50.16,11.44 C 47.92,13.45 45.91,16.37 44.25,20.03 C 43.07,22.57 41.62,24.53 40,25.74 C 38.38,26.96 36.64,27.4 34.92,27.02 C 32.66,26.63 30.39,27.38 28.32,29.22 C 26.35,30.96 24.62,33.64 23.28,37.01 C 21.93,40.39 21.02,44.37 20.6,48.62 C 20.27,52.01 19.57,55.2 18.55,57.97 C 17.53,60.74 16.21,63.01 14.69,64.61 C 12.15,67.28 9.94,71.06 8.22,75.68 C 6.5,80.3 5.32,85.64 4.77,91.3 L 37.03 91.3 C 38.17,94.69 39.61,97.64 41.28,100 L 0 100 L 0.17 95.4 C 0.45,87.41 1.73,79.7 3.9,72.99 C 6.08,66.27 9.06,60.79 12.58,57.06 C 13.54,56.07 14.38,54.66 15.03,52.93 C 15.69,51.2 16.14,49.2 16.36,47.07 C 16.9,41.46 18.11,36.2 19.88,31.73 C 21.65,27.27 23.93,23.73 26.53,21.43 C 29.28,19.02 32.28,18.04 35.27,18.58 C 36.33,18.81 37.41,18.55 38.41,17.8 C 39.42,17.06 40.32,15.85 41.05,14.28 C 43.1,9.8 45.6,6.22 48.37,3.77 C 51.14,1.32 54.13,0.04 57.16,0.03 C 61.23,0 65.23,2.27 68.69,6.58 C 72.15,10.89 74.94,17.08 76.74,24.43 C 77.23,26.39 77.93,28.11 78.79,29.46 C 79.65,30.81 80.64,31.75 81.71,32.22 C 84.22,33.37 86.62,35.36 88.81,38.12 C 93.62,44.19 97.1,53.72 98.55,64.78 C 100,75.84 99.3,87.59 96.6,97.65 L 96.6 97.65" fill="#2d5967" stroke="none" stroke-width="0.5"/>
  </g>
</svg>