<svg xmlns="http://www.w3.org/2000/svg" viewBox="0 0 84.0 109.0000000000001" width="84" height="109">
  <g transform="translate(1.00,1.00) scale(0.8200,0.8200)">
    <path d="M 5.36 100 C 2.55,100 0,97.7 0,94.64 L 0 5.36 C 0,2.55 2.3,0 5.36,0 L 94.64 0 C 97.7,0 100,2.3 100,5.36 L 100 94.64 C 100,97.7 97.7,100 94.64,100 L 5.36 100 L 5.36 100" fill="#FFFFFF" stroke="none" stroke-width="0.5"/>
  </g>
  <g transform="translate(0.00,0.00) scale(0.8400,0.8400)">
    <path d="M 93.53 2.49 C 95.77,2.49 97.51,4.23 97.51,6.47 L 97.51 93.53 C 97.51,95.77 95.77,97.51 93.53,97.51 L 6.47 97.51 C 4.23,97.51 2.49,95.77 2.49,93.53 L 2.49 6.47 C 2.49,4.23 4.23,2.49 6.47,2.49 L 93.53 2.49 L 93.53 2.49 M 93.53 0 L 6.47 0 C 2.98,0 0,2.99 0,6.47 L 0 93.53 C 0,97.02 2.98,100 6.47,100 L 93.53 100 C 97.01,100 100,97.02 100,93.53 L 100 6.47 C 100,2.99 97.26,0 93.53,0 L 93.53 0" fill="#FFFFFF" stroke="none" stroke-width="0.5"/>
  </g>
  <g transform="translate(2.00,2.00) scale(0.8000,0.8000)">
    <path d="M 95.81 0 L 4.19 0 C 1.83,0 0,1.83 0,4.19 L 0 95.81 C 0,98.17 1.83,100 4.19,100 L 95.81 100 C 98.17,100 100,98.17 100,95.81 L 100 4.19 C 100,1.83 98.17,0 95.81,0 L 95.81 0 M 96.34 95.81 C 96.34,96.07 96.07,96.34 95.81,96.34 L 4.19 96.34 C 3.93,96.34 3.66,96.07 3.66,95.81 L 3.66 4.19 C 3.66,3.93 3.93,3.66 4.19,3.66 L 95.81 3.66 C 96.07,3.66 96.34,3.93 96.34,4.19 L 96.34 95.81 L 96.34 95.81" fill="#2d5967" stroke="none" stroke-width="0.5"/>
  </g>
  <g transform="translate(10.00,55.00) scale(0.6200,0.1700)">
    <path d="M 0 100 L 100 100 L 100 0 L 0 0 L 0 100 L 0 100 M 5.03 16.47 L 95.3 16.47 L 95.3 83.53 L 5.03 83.53 L 5.03 16.47 L 5.03 16.47" fill="#2d5967" stroke="none" stroke-width="0.5"/>
  </g>
  <g transform="translate(61.00,62.00) scale(0.0400,0.0400)">
    <path d="M 50.01 100 C 77.62,100 100,77.62 100,50.01 C 100,22.4 77.62,0 50.01,0 C 22.4,0 0,22.4 0,50.01 C 0,77.62 22.4,100 50.01,100 L 50.01 100" fill="#2d5967" stroke="none" stroke-width="0.5"/>
  </g>
  <g transform="translate(10.00,10.00) scale(0.2900,0.1700)">
    <path d="M 100 0 L 0 0 L 0 100 L 100 100 L 100 0 L 100 0 M 46.38 17.65 L 54.35 17.65 L 54.35 84.71 L 46.38 84.71 C 46.38,83.53 46.38,17.65 46.38,17.65 L 46.38 17.65 M 36.23 83.53 L 28.26 83.53 L 28.26 17.65 L 36.23 17.65 L 36.23 83.53 L 36.23 83.53 M 64.49 17.65 L 72.46 17.65 L 72.46 84.71 L 64.49 84.71 L 64.49 17.65 L 64.49 17.65 M 10.87 17.65 L 18.84 17.65 L 18.84 84.71 L 10.87 84.71 L 10.87 17.65 L 10.87 17.65 M 89.86 83.53 L 81.88 83.53 L 81.88 17.65 L 89.86 17.65 L 89.86 83.53 L 89.86 83.53" fill="#2d5967" stroke="none" stroke-width="0.5"/>
  </g>
  <g transform="translate(44.00,10.00) scale(0.2900,0.1700)">
    <path d="M 0 100 L 100 100 L 100 0 L 0 0 L 0 100 L 0 100 M 53.62 83.53 L 45.65 83.53 L 45.65 17.65 L 53.62 17.65 L 53.62 83.53 L 53.62 83.53 M 63.77 17.65 L 71.74 17.65 L 71.74 84.71 L 63.77 84.71 L 63.77 17.65 L 63.77 17.65 M 35.51 83.53 L 27.54 83.53 L 27.54 17.65 L 35.51 17.65 L 35.51 83.53 L 35.51 83.53 M 89.86 83.53 L 81.88 83.53 L 81.88 17.65 L 89.86 17.65 L 89.86 83.53 L 89.86 83.53 M 10.14 17.65 L 18.12 17.65 L 18.12 84.71 L 10.14 84.71 L 10.14 17.65 L 10.14 17.65" fill="#2d5967" stroke="none" stroke-width="0.5"/>
  </g>
  <g transform="translate(10.00,33.00) scale(0.2900,0.1700)">
    <path d="M 100 0 L 0 0 L 0 100 L 100 100 L 100 0 L 100 0 M 46.38 16.47 L 54.35 16.47 L 54.35 83.53 L 46.38 83.53 C 46.38,82.35 46.38,16.47 46.38,16.47 L 46.38 16.47 M 36.23 83.53 L 28.26 83.53 L 28.26 16.47 L 36.23 16.47 L 36.23 83.53 L 36.23 83.53 M 64.49 16.47 L 72.46 16.47 L 72.46 83.53 L 64.49 83.53 L 64.49 16.47 L 64.49 16.47 M 10.87 16.47 L 18.84 16.47 L 18.84 83.53 L 10.87 83.53 L 10.87 16.47 L 10.87 16.47 M 89.86 83.53 L 81.88 83.53 L 81.88 16.47 L 89.86 16.47 L 89.86 83.53 L 89.86 83.53" fill="#2d5967" stroke="none" stroke-width="0.5"/>
  </g>
  <g transform="translate(44.00,33.00) scale(0.2900,0.1700)">
    <path d="M 0 100 L 100 100 L 100 0 L 0 0 L 0 100 L 0 100 M 53.62 83.53 L 45.65 83.53 L 45.65 16.47 L 53.62 16.47 L 53.62 83.53 L 53.62 83.53 M 63.77 16.47 L 71.74 16.47 L 71.74 83.53 L 63.77 83.53 L 63.77 16.47 L 63.77 16.47 M 35.51 83.53 L 27.54 83.53 L 27.54 16.47 L 35.51 16.47 L 35.51 83.53 L 35.51 83.53 M 89.86 83.53 L 81.88 83.53 L 81.88 16.47 L 89.86 16.47 L 89.86 83.53 L 89.86 83.53 M 10.14 16.47 L 18.12 16.47 L 18.12 83.53 L 10.14 83.53 L 10.14 16.47 L 10.14 16.47" fill="#2d5967" stroke="none" stroke-width="0.5"/>
  </g>
</svg>