<svg xmlns="http://www.w3.org/2000/svg" viewBox="0 0 85.0 121.00000000000007" width="85" height="121">
  <g transform="translate(25.00,0.00) scale(0.8500,0.8100)">
    <path d="M 88.08 19.43 C 85.75,17.88 83.18,16.77 80.48,16.15 C 79.91,16.02 79.38,15.76 78.92,15.38 C 78.46,15.01 78.08,14.53 77.82,13.98 C 76.13,10.41 73.63,7.33 70.56,4.99 C 67.48,2.65 63.9,1.14 60.14,0.57 C 56.38,0 52.55,0.4 48.97,1.73 C 45.39,3.06 42.17,5.28 39.58,8.21 C 39.26,8.57 38.86,8.86 38.42,9.06 C 37.98,9.26 37.5,9.36 37.02,9.35 C 36.89,9.35 36.76,9.35 36.64,9.35 C 36.03,9.29 35.42,9.26 34.82,9.26 C 30.3,9.26 25.92,10.91 22.43,13.92 C 18.94,16.94 16.55,21.14 15.68,25.79 C 15.57,26.38 15.33,26.93 14.98,27.41 C 14.64,27.88 14.19,28.27 13.68,28.53 C 9.92,30.59 6.72,33.63 4.39,37.36 C 2.06,41.08 0.68,45.37 0.38,49.82 L 0.22 52.08 L 0 55.46 L 19.85 55.46 L 19.85 88.04 C 19.85,90.24 20.81,93.33 25.34,95.64 C 27.67,96.82 30.84,97.74 34.8,98.43 C 44.75,100 54.87,100 64.82,98.43 C 68.76,97.76 71.95,96.82 74.27,95.64 C 78.84,93.33 79.8,90.24 79.8,88.04 L 79.8 55.46 L 94.98 55.46 L 95.83 53.8 L 96.39 52.7 C 99.26,47.08 100,40.52 98.46,34.35 C 96.92,28.18 93.21,22.85 88.08,19.43 L 88.08 19.43" fill="#FFFFFF" stroke="none" stroke-width="0.5"/>
  </g>
  <g transform="translate(27.00,2.00) scale(0.7900,0.3900)">
    <path d="M 96.62 100 L 81.7 100 L 81.7 91.44 L 94 91.44 C 95.81,83.44 96.1,74.41 94.84,66 C 93.57,57.6 90.82,50.39 87.1,45.7 C 85.33,43.47 83.38,41.86 81.33,40.96 C 79.62,40.22 78.02,38.73 76.65,36.6 C 75.27,34.46 74.15,31.74 73.37,28.63 C 72.09,23.52 70.21,19.11 67.89,15.77 C 65.57,12.43 62.87,10.26 60.04,9.45 C 57.21,8.63 54.32,9.2 51.62,11.11 C 48.92,13.01 46.49,16.19 44.54,20.37 C 43.36,22.91 41.89,24.87 40.27,26.08 C 38.64,27.3 36.89,27.75 35.16,27.39 C 31.85,26.77 28.54,28.63 25.88,32.6 C 23.21,36.57 21.39,42.37 20.75,48.88 C 20.41,52.26 19.7,55.45 18.66,58.21 C 17.62,60.98 16.28,63.23 14.74,64.82 C 12.18,67.48 9.96,71.25 8.23,75.86 C 6.5,80.47 5.32,85.8 4.76,91.44 L 17.84 91.44 L 17.84 100 L 0 100 L 0.17 95.4 C 0.46,87.43 1.76,79.73 3.96,73.05 C 6.16,66.36 9.19,60.91 12.74,57.22 C 13.71,56.22 14.56,54.8 15.21,53.07 C 15.87,51.33 16.32,49.33 16.53,47.2 C 17.38,38.62 19.79,30.97 23.31,25.74 C 26.82,20.5 31.18,18.05 35.55,18.86 C 36.62,19.1 37.71,18.83 38.72,18.09 C 39.73,17.35 40.64,16.15 41.38,14.59 C 43.8,9.39 46.82,5.44 50.17,3.07 C 53.52,0.71 57.11,0 60.63,1.01 C 64.16,2.01 67.5,4.71 70.39,8.86 C 73.27,13.01 75.61,18.49 77.2,24.83 C 77.69,26.8 78.4,28.52 79.27,29.87 C 80.15,31.21 81.16,32.15 82.24,32.62 C 85.64,34.12 88.82,37.18 91.53,41.54 C 94.24,45.9 96.4,51.46 97.85,57.77 C 99.3,64.09 100,70.98 99.89,77.92 C 99.77,84.86 98.86,91.65 97.21,97.76 L 96.62 100 L 96.62 100" fill="#2d5967" stroke="none" stroke-width="0.5"/>
  </g>
  <g transform="translate(46.00,58.00) scale(0.4200,0.1700)">
    <path d="M 100 0 L 0 0 L 0 71.47 C 0,87.28 22.39,100 50,100 C 77.61,100 100,87.21 100,71.47 L 100 0 L 100 0" fill="#FFFFFF" stroke="none" stroke-width="0.5"/>
  </g>
  <g transform="translate(44.00,56.00) scale(0.4600,0.2100)">
    <path d="M 50 100 C 44.88,100 0,99.1 0,68.06 L 0 7.98 C 0,5.87 0.39,3.84 1.08,2.34 C 1.78,0.84 2.72,0 3.7,0 L 96.3 0 C 97.28,0 98.22,0.84 98.92,2.34 C 99.61,3.84 100,5.87 100,7.98 L 100 67.99 C 100,99.1 55.12,100 50,100 L 50 100 M 7.41 67.56 C 9.14,73.54 24.54,84.03 50,84.03 C 75.46,84.03 90.86,73.59 92.59,67.56 L 92.59 15.97 L 7.41 15.97 L 7.41 67.56 L 7.41 67.56" fill="#2d5967" stroke="none" stroke-width="0.5"/>
  </g>
  <g transform="translate(46.00,46.00) scale(0.4200,0.1800)">
    <path d="M 100 0 L 0 0 L 0 71.92 C 0,87.46 22.39,100 50,100 C 77.61,100 100,87.39 100,71.92 L 100 0 L 100 0" fill="#FFFFFF" stroke="none" stroke-width="0.5"/>
  </g>
  <g transform="translate(44.00,44.00) scale(0.4600,0.2100)">
    <path d="M 50 100 C 44.88,100 0,99.11 0,68.48 L 0 7.88 C 0,5.79 0.39,3.79 1.08,2.31 C 1.78,0.83 2.72,0 3.7,0 L 96.3 0 C 97.28,0 98.22,0.83 98.92,2.31 C 99.61,3.79 100,5.79 100,7.88 L 100 68.42 C 100,99.11 55.12,100 50,100 L 50 100 M 7.41 67.98 C 9.14,73.9 24.54,84.24 50,84.24 C 75.46,84.24 90.86,73.94 92.59,67.98 L 92.59 15.76 L 7.41 15.76 L 7.41 67.98 L 7.41 67.98" fill="#2d5967" stroke="none" stroke-width="0.5"/>
  </g>
  <g transform="translate(46.00,34.00) scale(0.4200,0.1700)">
    <path d="M 100 0 L 0 0 L 0 70.98 C 0,87.04 22.39,100 50,100 C 77.61,100 100,86.97 100,70.98 L 100 0 L 100 0" fill="#FFFFFF" stroke="none" stroke-width="0.5"/>
  </g>
  <g transform="translate(44.00,32.00) scale(0.4600,0.2100)">
    <path d="M 50 100 C 44.88,100 0,99.09 0,67.6 L 0 8.1 C 0,5.95 0.39,3.89 1.08,2.37 C 1.78,0.85 2.72,0 3.7,0 L 96.3 0 C 97.28,0 98.22,0.85 98.92,2.37 C 99.61,3.89 100,5.95 100,8.1 L 100 67.54 C 100,99.09 55.12,100 50,100 L 50 100 M 7.41 67.07 C 9.14,73.15 24.54,83.8 50,83.8 C 75.46,83.8 90.86,73.19 92.59,67.07 L 92.59 16.2 L 7.41 16.2 L 7.41 67.07 L 7.41 67.07" fill="#2d5967" stroke="none" stroke-width="0.5"/>
  </g>
  <g transform="translate(46.00,28.00) scale(0.4200,0.1000)">
    <path d="M 50 100 C 77.62,100 100,77.61 100,50 C 100,22.39 77.62,0 50,0 C 22.39,0 0,22.39 0,50 C 0,77.61 22.39,100 50,100 L 50 100" fill="#FFFFFF" stroke="none" stroke-width="0.5"/>
  </g>
  <g transform="translate(44.00,27.00) scale(0.4600,0.1400)">
    <path d="M 50 100 C 31.42,100 0,89.46 0,50 C 0,10.54 31.48,0 50,0 C 68.52,0 100,10.54 100,50 C 100,89.46 68.57,100 50,100 L 50 100 M 7.49 50.03 C 9.4,59.63 24.61,75.74 50,75.74 C 75.39,75.74 90.6,59.63 92.51,50.03 C 90.6,40.43 75.39,24.29 50,24.29 C 24.61,24.29 9.4,40.43 7.49,50.03 L 7.49 50.03" fill="#2d5967" stroke="none" stroke-width="0.5"/>
  </g>
  <g transform="translate(48.00,40.00) scale(0.4700,0.4000)">
    <path d="M 89.26 35.96 L 91.05 34.32 L 91.05 29.94 L 91.55 24.86 L 74.19 4.47 L 70.37 0 L 66.59 4.51 L 53.45 20.22 L 49.69 24.7 L 53.08 28.64 L 38.38 28.64 C 35.54,28.64 32.82,29.96 30.81,32.33 C 28.8,34.69 27.67,37.89 27.67,41.24 L 27.67 49.11 L 26.78 48.06 L 21.68 42.13 L 17.92 37.75 L 14.16 42.12 L 1.58 56.72 L 0 58.61 L 0 68.32 L 1.92 70.21 L 12.86 80.99 L 14.27 82.39 L 16.13 82.46 L 19.07 82.58 L 21.4 82.66 L 23.04 80.72 L 26.81 76.25 L 27.7 75.2 L 27.7 100 L 100 100 L 100 48.56 C 100,46.91 99.72,45.26 99.18,43.73 C 98.64,42.2 97.85,40.81 96.85,39.64 C 95.86,38.47 94.67,37.55 93.37,36.92 C 92.07,36.28 90.67,35.96 89.26,35.96 L 89.26 35.96" fill="#FFFFFF" stroke="none" stroke-width="0.5"/>
  </g>
  <g transform="translate(64.00,54.00) scale(0.2900,0.2300)">
    <path d="M 100 100 L 0 100 L 0 10.72 C 0,7.88 0.91,5.15 2.55,3.14 C 4.18,1.13 6.39,0 8.69,0 L 34.78 0 C 36.32,0 37.84,0.47 39.2,1.37 C 40.55,2.26 41.71,3.56 42.56,5.15 L 46.55 12.5 L 91.31 12.5 C 93.61,12.5 95.82,13.63 97.45,15.64 C 99.08,17.65 100,20.38 100,23.22 L 100 100 L 100 100 M 11.59 85.71 L 88.41 85.71 L 88.41 26.79 L 40.38 26.79 L 33.61 14.29 L 11.59 14.29 L 11.59 85.71 L 11.59 85.71" fill="#2d5967" stroke="none" stroke-width="0.5"/>
  </g>
  <g transform="translate(75.00,43.00) scale(0.1200,0.1000)">
    <path d="M 100 57.92 L 49.61 0 L 0 58 L 19.21 79.84 L 36.57 59.52 L 36.57 100 L 63.53 100 L 63.53 59.87 L 80.99 79.92 L 100 57.92 L 100 57.92" fill="#2d5967" stroke="none" stroke-width="0.5"/>
  </g>
  <g transform="translate(50.00,59.00) scale(0.1000,0.1200)">
    <path d="M 100 35.12 L 61.46 35.12 L 79.91 19.04 L 57.93 0 L 0 50.39 L 58 100 L 79.84 80.82 L 57.93 62.08 L 100 62.08 L 100 35.12 L 100 35.12" fill="#2d5967" stroke="none" stroke-width="0.5"/>
  </g>
</svg>