<svg xmlns="http://www.w3.org/2000/svg" viewBox="0 0 84.0 104.0000000000001" width="84" height="104">
  <g transform="translate(1.00,0.00) scale(0.8200,0.7800)">
    <path d="M 49.86 100 L 45.63 100 C 40.95,99.83 36.3,99.26 31.71,98.3 C 30.32,98 28.94,97.6 27.6,97.11 C 26.4,96.72 25.25,96.18 24.17,95.51 C 23.2,95.05 22.36,94.32 21.74,93.39 C 21.13,92.47 20.77,91.39 20.7,90.26 L 20.7 54.25 L 0 54.25 L 0.25 50.56 C 0.55,46.23 1.89,42.06 4.15,38.43 C 6.41,34.81 9.51,31.85 13.15,29.85 C 13.95,29.42 14.64,28.8 15.17,28.05 C 15.71,27.3 16.08,26.43 16.26,25.5 C 16.83,22.43 18.1,19.54 19.96,17.09 C 21.81,14.64 24.21,12.7 26.93,11.45 C 29.27,10.37 31.8,9.81 34.36,9.79 C 34.93,9.76 35.51,9.76 36.08,9.79 L 36.66 9.79 C 37.43,9.8 38.2,9.64 38.92,9.32 C 39.64,8.99 40.28,8.52 40.82,7.92 C 43.31,5.1 46.4,2.96 49.85,1.67 C 53.29,0.39 56.98,0 60.59,0.55 C 64.21,1.09 67.64,2.55 70.61,4.81 C 73.57,7.06 75.97,10.04 77.61,13.49 C 78.01,14.35 78.59,15.1 79.31,15.69 C 80.03,16.28 80.86,16.69 81.75,16.88 C 85.24,17.7 88.51,19.36 91.3,21.74 C 94.08,24.11 96.3,27.14 97.79,30.57 C 99.28,34.01 100,37.76 99.89,41.53 C 99.77,45.31 98.83,49.01 97.14,52.34 L 96.22 54.13 L 79.02 54.13 L 79.02 90.07 C 79.01,90.92 78.81,91.76 78.44,92.52 C 78.07,93.28 77.53,93.94 76.88,94.44 C 76.44,94.8 75.98,95.13 75.5,95.43 C 70.62,98.47 61.4,99.47 56.32,99.78 C 54.2,99.93 51.95,100 49.86,100 L 49.86 100" fill="#FFFFFF" stroke="none" stroke-width="0.5"/>
  </g>
  <g transform="translate(0.00,0.00) scale(0.8400,0.7900)">
    <path d="M 57.24 2.41 C 61.14,2.39 64.97,3.53 68.29,5.71 C 71.61,7.89 74.28,11.01 76.01,14.72 C 76.48,15.71 77.16,16.58 77.99,17.27 C 78.82,17.95 79.79,18.43 80.81,18.67 C 83.2,19.25 85.47,20.25 87.55,21.62 C 92.16,24.7 95.5,29.51 96.9,35.09 C 98.3,40.67 97.65,46.61 95.09,51.7 L 94.51 52.85 L 77.29 52.85 L 77.29 89.28 C 77.26,89.92 77.1,90.54 76.82,91.1 C 76.54,91.66 76.14,92.15 75.65,92.52 C 75.28,92.85 74.88,93.14 74.46,93.4 C 70.46,95.78 62.97,97.07 56.23,97.52 C 53.99,97.67 51.85,97.71 49.95,97.71 L 45.86 97.71 C 41.34,97.56 36.83,97.01 32.39,96.07 C 31.08,95.78 29.78,95.41 28.51,94.95 C 27.42,94.57 26.37,94.07 25.37,93.47 C 24.59,93.12 23.91,92.55 23.42,91.83 C 22.92,91.1 22.62,90.25 22.54,89.35 L 22.54 52.85 L 2.34 52.85 L 2.49 50.46 C 2.77,46.43 4.02,42.53 6.12,39.15 C 8.22,35.76 11.1,33 14.48,31.13 C 15.41,30.63 16.23,29.92 16.87,29.05 C 17.51,28.18 17.96,27.16 18.18,26.08 C 18.94,22.01 21.01,18.34 24.03,15.71 C 27.05,13.07 30.84,11.63 34.75,11.62 C 35.27,11.62 35.8,11.62 36.32,11.62 L 36.99 11.62 C 37.9,11.65 38.8,11.48 39.63,11.13 C 40.47,10.77 41.23,10.23 41.87,9.55 C 43.83,7.31 46.21,5.51 48.85,4.28 C 51.5,3.05 54.35,2.42 57.24,2.41 L 57.24 2.41 M 57.24 0.02 C 54.05,0.03 50.89,0.73 47.96,2.08 C 45.03,3.44 42.4,5.42 40.23,7.91 C 39.81,8.37 39.31,8.73 38.75,8.98 C 38.19,9.23 37.6,9.36 36.99,9.36 L 36.54 9.36 C 35.95,9.32 35.35,9.32 34.75,9.36 C 32.1,9.37 29.48,9.95 27.05,11.07 C 24.23,12.39 21.74,14.41 19.82,16.96 C 17.89,19.52 16.57,22.53 15.98,25.74 C 15.82,26.46 15.51,27.12 15.07,27.7 C 14.64,28.27 14.09,28.73 13.47,29.05 C 9.76,31.13 6.61,34.16 4.31,37.88 C 2.01,41.61 0.64,45.89 0.34,50.32 L 0.18 52.7 L 0 55.23 L 20.36 55.23 L 20.36 89.28 C 20.42,90.6 20.82,91.87 21.52,92.96 C 22.21,94.05 23.18,94.91 24.31,95.45 C 25.43,96.14 26.61,96.71 27.84,97.14 C 29.07,97.57 30.46,97.98 31.99,98.33 C 36.53,99.29 41.14,99.84 45.77,100 C 47.19,100 48.6,100 49.95,100 C 52.01,100 54.23,100 56.39,99.79 C 62.54,99.41 70.89,98.31 75.58,95.36 C 76.11,95.04 76.61,94.67 77.09,94.26 C 77.83,93.67 78.44,92.9 78.86,92.02 C 79.29,91.15 79.52,90.17 79.53,89.19 L 79.53 55.23 L 95.85 55.23 L 96.48 53.97 L 97.07 52.82 C 98.8,49.4 99.76,45.6 99.88,41.72 C 100,37.83 99.27,33.97 97.75,30.44 C 96.23,26.91 93.95,23.79 91.11,21.35 C 88.26,18.9 84.92,17.19 81.35,16.34 C 80.65,16.18 79.99,15.85 79.42,15.39 C 78.86,14.92 78.4,14.33 78.07,13.65 C 76.15,9.54 73.18,6.08 69.5,3.67 C 65.81,1.26 61.57,0 57.24,0.02 L 57.24 0.02" fill="#FFFFFF" stroke="none" stroke-width="0.5"/>
  </g>
  <g transform="translate(2.00,1.00) scale(0.8100,0.4000)">
    <path d="M 88.79 38.09 C 86.62,35.37 84.25,33.39 81.76,32.24 C 80.69,31.77 79.69,30.82 78.82,29.46 C 77.95,28.11 77.25,26.38 76.75,24.41 C 74.95,17.07 72.16,10.89 68.7,6.58 C 65.24,2.27 61.25,0 57.18,0.04 C 54.17,0.05 51.19,1.32 48.43,3.75 C 45.67,6.19 43.19,9.74 41.14,14.18 C 40.4,15.73 39.5,16.93 38.49,17.67 C 37.49,18.42 36.42,18.69 35.36,18.47 C 31.03,17.67 26.7,20.11 23.21,25.33 C 19.72,30.55 17.31,38.18 16.44,46.76 C 16.22,48.91 15.77,50.93 15.12,52.67 C 14.47,54.42 13.63,55.85 12.67,56.85 C 9.13,60.58 6.12,66.07 3.93,72.8 C 1.75,79.52 0.45,87.26 0.16,95.28 L 0 100 L 18.73 100 L 18.73 91.32 L 4.68 91.32 C 5.23,85.65 6.41,80.29 8.13,75.67 C 9.85,71.04 12.06,67.25 14.61,64.59 C 16.14,62.99 17.47,60.72 18.5,57.94 C 19.52,55.17 20.23,51.96 20.56,48.56 C 21.19,42 23.01,36.16 25.67,32.17 C 28.33,28.19 31.64,26.34 34.94,27.01 C 36.66,27.38 38.4,26.94 40.03,25.72 C 41.65,24.5 43.12,22.53 44.3,19.98 C 46.24,15.79 48.65,12.61 51.34,10.71 C 54.02,8.81 56.89,8.24 59.7,9.06 C 62.52,9.88 65.19,12.07 67.5,15.42 C 69.8,18.77 71.67,23.2 72.94,28.33 C 73.72,31.45 74.83,34.18 76.2,36.32 C 77.57,38.47 79.16,39.97 80.85,40.73 C 82.89,41.6 84.83,43.2 86.59,45.44 C 90.29,50.14 93.02,57.36 94.29,65.79 C 95.55,74.22 95.26,83.29 93.47,91.32 L 80.43 91.32 L 80.43 99.91 L 96.05 99.91 L 96.66 97.64 C 99.33,87.55 100,75.8 98.54,64.75 C 97.08,53.7 93.6,44.17 88.79,38.09 L 88.79 38.09" fill="#2d5967" stroke="none" stroke-width="0.5"/>
  </g>
  <g transform="translate(19.00,26.00) scale(0.4600,0.5100)">
    <path d="M 99.98 14.14 C 100,14.03 100,13.92 99.98,13.81 C 100,13.66 100,13.51 99.98,13.37 C 99.93,12.37 99.64,11.39 99.12,10.5 C 98.61,9.61 97.88,8.83 96.99,8.23 C 96.3,7.72 95.57,7.26 94.82,6.83 C 87.52,2.9 73.83,1.03 61.54,0.33 C 57.44,0.11 53.55,0 50.06,0 C 47.73,0 45.23,0 42.6,0 C 34.34,0.23 26.11,1.1 18.01,2.61 C 15.61,3.05 13.24,3.64 10.92,4.37 C 8.94,4.99 7.02,5.76 5.18,6.68 C 3.76,7.27 2.53,8.18 1.62,9.33 C 0.71,10.48 0.16,11.82 0.02,13.22 C 0,13.37 0,13.52 0.02,13.66 C 0,13.77 0,13.88 0.02,13.99 L 0.02 87.11 C 0.16,88.49 0.72,89.81 1.63,90.92 C 2.54,92.04 3.77,92.92 5.18,93.46 C 7.01,94.39 8.93,95.15 10.92,95.74 C 13.25,96.44 15.61,97.02 18.01,97.47 C 26.12,98.91 34.34,99.76 42.6,100 L 50.06 100 C 53.55,100 57.48,100 61.54,99.71 C 73.83,99.01 87.52,97.21 94.82,93.35 C 95.58,92.95 96.3,92.5 96.99,91.99 C 97.88,91.42 98.6,90.67 99.12,89.8 C 99.64,88.94 99.93,87.98 99.98,87 L 99.98 14.14 L 99.98 14.14 M 50.06 6.1 C 76.17,6.1 91.82,10.8 93.18,13.44 C 91.82,16.05 76.17,20.79 50.06,20.79 C 23.96,20.79 8.3,16.09 6.95,13.44 C 8.3,10.8 23.96,6.1 50.06,6.1 L 50.06 6.1 M 6.91 20.79 C 17.15,25.3 36.74,26.59 50.06,26.59 C 63.38,26.59 82.85,25.16 93.22,20.53 L 93.22 38.27 C 92.24,39.88 80.02,45.32 50.06,45.32 C 20.1,45.32 8.05,40.03 6.91,38.41 L 6.91 20.79 L 6.91 20.79 M 93.22 45.72 L 93.22 62.76 C 92.24,64.41 80.02,69.85 50.06,69.85 C 20.1,69.85 8.05,64.3 6.91,62.65 L 6.91 45.61 C 17.15,50.13 36.87,51.52 50.06,51.52 C 63.26,51.52 82.97,50.13 93.22,45.61 L 93.22 45.72 L 93.22 45.72 M 50.06 94.05 C 20.1,94.05 7.89,88.62 6.91,87 L 6.91 69.89 C 17.15,74.33 36.74,75.8 50.06,75.8 C 63.38,75.8 82.85,74.4 93.22,69.89 L 93.22 87 C 92.24,88.62 80.02,94.05 50.06,94.05 L 50.06 94.05" fill="#2d5967" stroke="none" stroke-width="0.5"/>
  </g>
</svg>