<svg xmlns="http://www.w3.org/2000/svg" viewBox="0 0 84.0 121.00000000000007" width="84" height="121">
  <g transform="translate(0.00,0.00) scale(0.8400,0.7700)">
    <path d="M 92.92 0 L 7.08 0 C 5.2,0 3.4,0.82 2.07,2.28 C 0.75,3.74 0,5.71 0,7.78 L 0 73.43 C 0,74.45 0.18,75.46 0.54,76.41 C 0.9,77.35 1.42,78.21 2.07,78.93 C 2.73,79.65 3.51,80.22 4.37,80.61 C 5.23,81.01 6.15,81.21 7.08,81.21 L 28.28 81.21 C 27.46,82.01 26.77,82.97 26.25,84.03 L 11.11 84.03 C 9.86,84.03 8.66,84.58 7.78,85.55 C 6.89,86.52 6.4,87.83 6.4,89.21 C 6.4,90.58 6.89,91.9 7.78,92.87 C 8.66,93.84 9.86,94.38 11.11,94.38 L 26.25 94.38 C 27.1,96.08 28.35,97.5 29.87,98.49 C 31.38,99.48 33.12,100 34.88,100 C 36.65,100 38.38,99.48 39.9,98.49 C 41.42,97.5 42.66,96.08 43.51,94.38 L 88.8 94.38 C 90.05,94.38 91.25,93.84 92.13,92.87 C 93.01,91.9 93.51,90.58 93.51,89.21 C 93.51,87.83 93.01,86.52 92.13,85.55 C 91.25,84.58 90.05,84.03 88.8,84.03 L 43.51 84.03 C 42.99,82.97 42.3,82.02 41.49,81.21 L 92.92 81.21 C 94.8,81.21 96.6,80.39 97.93,78.93 C 99.25,77.47 100,75.49 100,73.43 L 100 7.78 C 100,5.71 99.25,3.74 97.93,2.28 C 96.6,0.82 94.8,0 92.92,0 L 92.92 0" fill="#FFFFFF" stroke="none" stroke-width="0.5"/>
  </g>
  <g transform="translate(27.00,16.00) scale(0.3000,0.3000)">
    <path d="M 50.48 100 C 40.69,100 31.11,97.1 22.97,91.65 C 14.82,86.21 8.48,78.48 4.73,69.43 C 0.98,60.38 0,50.42 1.91,40.82 C 3.82,31.21 8.54,22.39 15.46,15.46 C 22.39,8.54 31.21,3.82 40.82,1.91 C 50.42,0 60.38,0.98 69.43,4.73 C 78.48,8.48 86.21,14.82 91.66,22.97 C 97.1,31.11 100,40.69 100,50.48 C 100,63.61 94.78,76.21 85.49,85.5 C 76.21,94.78 63.61,100 50.48,100 L 50.48 100 M 50.48 11.59 C 42.77,11.59 35.24,13.88 28.83,18.16 C 22.42,22.44 17.43,28.53 14.48,35.65 C 11.54,42.77 10.77,50.61 12.28,58.17 C 13.79,65.72 17.5,72.67 22.96,78.11 C 28.41,83.56 35.36,87.26 42.92,88.76 C 50.48,90.25 58.31,89.47 65.43,86.51 C 72.55,83.56 78.63,78.55 82.9,72.14 C 87.17,65.72 89.45,58.19 89.43,50.48 C 89.42,40.16 85.31,30.27 78,22.98 C 70.7,15.68 60.8,11.59 50.48,11.59 L 50.48 11.59" fill="#2c5967" stroke="none" stroke-width="0.5"/>
  </g>
  <g transform="translate(37.00,24.00) scale(0.1200,0.1400)">
    <path d="M 100 50 L 0 0 L 0 100 L 100 50 L 100 50" fill="#2c5967" stroke="none" stroke-width="0.5"/>
  </g>
  <g transform="translate(2.00,2.00) scale(0.7900,0.5700)">
    <path d="M 95.49 100 L 4.51 100 C 3.92,100 3.33,99.84 2.78,99.53 C 2.24,99.21 1.74,98.75 1.32,98.17 C 0.9,97.6 0.57,96.91 0.34,96.15 C 0.12,95.4 0,94.59 0,93.77 L 0 6.23 C 0,4.58 0.48,2.99 1.32,1.83 C 2.17,0.66 3.31,0 4.51,0 L 95.49 0 C 96.69,0 97.83,0.66 98.68,1.83 C 99.52,2.99 100,4.58 100,6.23 L 100 93.77 C 100,95.42 99.52,97 98.68,98.17 C 97.83,99.34 96.69,100 95.49,100 L 95.49 100 M 4.51 5.53 C 4.38,5.53 4.25,5.61 4.15,5.74 C 4.06,5.87 4,6.05 4,6.23 L 4 93.77 C 4,93.95 4.06,94.13 4.15,94.26 C 4.25,94.39 4.38,94.47 4.51,94.47 L 95.49 94.47 C 95.62,94.47 95.75,94.39 95.85,94.26 C 95.94,94.13 96,93.95 96,93.77 L 96 6.23 C 96,6.05 95.94,5.87 95.85,5.74 C 95.75,5.61 95.62,5.53 95.49,5.53 L 4.51 5.53 L 4.51 5.53" fill="#2c5967" stroke="none" stroke-width="0.5"/>
  </g>
  <g transform="translate(7.00,67.00) scale(0.6800,0.0300)">
    <path d="M 97.68 100 L 2.32 100 C 1.7,100 1.12,94.74 0.68,85.35 C 0.24,75.99 0,63.26 0,50 C 0,36.74 0.24,24.04 0.68,14.65 C 1.12,5.26 1.7,0 2.32,0 L 97.68 0 C 98.3,0 98.89,5.26 99.32,14.65 C 99.76,24.04 100,36.74 100,50 C 100,63.26 99.76,75.99 99.32,85.35 C 98.89,94.74 98.3,100 97.68,100 L 97.68 100" fill="#2c5967" stroke="none" stroke-width="0.5"/>
  </g>
  <g transform="translate(25.00,64.00) scale(0.0800,0.0800)">
    <path d="M 49.99 100 C 77.61,100 100,77.61 100,49.99 C 100,22.39 77.61,0 49.99,0 C 22.39,0 0,22.39 0,49.99 C 0,77.61 22.39,100 49.99,100 L 49.99 100" fill="#FFFFFF" stroke="none" stroke-width="0.5"/>
  </g>
  <g transform="translate(23.00,62.00) scale(0.1100,0.1100)">
    <path d="M 50.48 100 C 40.69,100 31.11,97.1 22.97,91.66 C 14.83,86.21 8.48,78.48 4.73,69.43 C 0.98,60.38 0,50.43 1.92,40.82 C 3.82,31.21 8.54,22.39 15.46,15.46 C 22.39,8.54 31.21,3.82 40.82,1.92 C 50.43,0 60.38,0.98 69.43,4.73 C 78.48,8.47 86.21,14.83 91.66,22.97 C 97.1,31.11 100,40.68 100,50.48 C 100,63.62 94.78,76.21 85.5,85.5 C 76.21,94.78 63.62,100 50.48,100 L 50.48 100 M 50.48 27.65 C 45.97,27.65 41.56,28.99 37.8,31.49 C 34.05,34.01 31.11,37.58 29.39,41.74 C 27.66,45.92 27.21,50.51 28.09,54.94 C 28.97,59.36 31.15,63.43 34.34,66.63 C 37.53,69.82 41.6,71.99 46.03,72.87 C 50.45,73.76 55.04,73.3 59.22,71.58 C 63.39,69.85 66.96,66.92 69.47,63.17 C 71.97,59.41 73.32,55 73.32,50.48 C 73.32,47.48 72.72,44.51 71.58,41.74 C 70.43,38.97 68.74,36.46 66.63,34.34 C 64.51,32.22 61.99,30.53 59.22,29.38 C 56.45,28.24 53.48,27.65 50.48,27.65 L 50.48 27.65" fill="#2c5967" stroke="none" stroke-width="0.5"/>
  </g>
</svg>