<svg xmlns="http://www.w3.org/2000/svg" viewBox="0 0 79.0 109.0000000000001" width="79" height="109">
  <g transform="translate(11.00,0.00) scale(0.7900,0.8400)">
    <path d="M 96.33 31.99 L 94.7 31.99 L 94.35 30.64 C 93.15,25.74 90.19,21.36 85.98,18.23 C 81.76,15.1 76.54,13.4 71.15,13.41 L 70.97 13.41 L 70.59 12.51 L 68.32 6.6 L 67.67 5 L 65.83 4.65 L 41.5 0.33 L 39.6 0 L 38.35 1.35 L 22.16 18.86 L 20.87 20.26 L 21.54 21.96 L 23.01 25.71 L 23.28 27.74 C 23.1,25.76 22.13,23.92 20.56,22.58 C 19,21.24 16.95,20.5 14.82,20.51 L 0 20.51 L 0 30.87 L 12.44 30.87 L 16.7 81.77 C 16.86,83.35 17.52,84.85 18.6,86.08 C 19.69,87.31 21.14,88.2 22.77,88.64 C 22.76,88.86 22.76,89.08 22.77,89.3 C 22.77,92.13 23.98,94.86 26.13,96.87 C 28.27,98.87 31.19,100 34.23,100 C 37.26,100 40.18,98.87 42.32,96.87 C 44.47,94.86 45.68,92.13 45.68,89.3 L 45.68 88.95 L 64.22 88.95 L 64.22 89.3 C 64.22,92.13 65.43,94.86 67.58,96.87 C 69.72,98.87 72.64,100 75.68,100 C 78.71,100 81.63,98.87 83.77,96.87 C 85.92,94.86 87.13,92.13 87.13,89.3 C 87.14,89.18 87.14,89.06 87.13,88.95 L 93.28 88.95 L 93.28 78.64 L 27.56 78.64 L 27.56 77.59 L 85.87 77.59 C 88.1,77.59 90.25,76.83 91.91,75.44 C 93.57,74.06 94.63,72.15 94.89,70.08 L 99.55 35.47 L 100 31.99 L 96.33 31.99 L 96.33 31.99" fill="#FFFFFF" stroke="none" stroke-width="0.5"/>
  </g>
  <g transform="translate(13.00,13.00) scale(0.7300,0.6700)">
    <path d="M 55.64 23.09 C 55.94,18.3 57.88,13.81 61.07,10.48 C 64.26,7.15 68.48,5.23 72.9,5.09 C 76.61,5.08 80.23,6.38 83.2,8.78 C 86.18,11.18 88.37,14.56 89.44,18.41 L 94.25 18.41 C 93.1,13.18 90.36,8.53 86.48,5.19 C 82.6,1.85 77.8,0.02 72.84,0 C 67.18,0.17 61.78,2.63 57.71,6.91 C 53.64,11.18 51.2,16.96 50.86,23.09 L 18.56 23.09 L 17.89 14.23 C 17.75,12.75 17.11,11.38 16.09,10.39 C 15.06,9.4 13.74,8.85 12.37,8.86 L 0 8.86 L 0 14.04 L 12.37 14.04 C 12.56,14.03 12.74,14.1 12.89,14.23 C 13.03,14.37 13.13,14.56 13.15,14.76 L 17.95 81.1 C 18.08,82.6 18.72,83.99 19.75,85 C 20.78,86.01 22.12,86.57 23.5,86.56 L 25.46 86.56 C 24.82,87.99 24.53,89.56 24.61,91.15 C 24.69,92.73 25.14,94.27 25.92,95.61 C 26.69,96.95 27.77,98.06 29.05,98.83 C 30.33,99.6 31.77,100 33.23,100 C 34.69,100 36.13,99.6 37.41,98.83 C 38.69,98.06 39.76,96.95 40.54,95.61 C 41.32,94.27 41.77,92.73 41.85,91.15 C 41.93,89.56 41.63,87.99 41,86.56 L 69.76 86.56 C 69.13,87.99 68.85,89.56 68.93,91.14 C 69.01,92.72 69.47,94.25 70.24,95.59 C 71.02,96.93 72.1,98.04 73.37,98.8 C 74.65,99.57 76.09,99.97 77.55,99.97 C 79,99.97 80.44,99.57 81.72,98.8 C 83,98.04 84.07,96.93 84.85,95.59 C 85.63,94.25 86.08,92.72 86.16,91.14 C 86.25,89.56 85.96,87.99 85.33,86.56 L 92.89 86.56 L 92.89 81.38 L 23.5 81.38 C 23.31,81.39 23.13,81.32 22.99,81.19 C 22.84,81.05 22.75,80.87 22.73,80.66 L 22.12 72.33 L 88.75 72.33 C 90.26,72.32 91.72,71.72 92.85,70.63 C 93.98,69.55 94.71,68.06 94.91,66.43 L 100 23.09 L 55.64 23.09 L 55.64 23.09 M 37.2 90.87 C 37.2,91.72 36.97,92.55 36.53,93.26 C 36.09,93.97 35.47,94.52 34.75,94.84 C 34.02,95.17 33.22,95.25 32.45,95.09 C 31.68,94.92 30.98,94.51 30.42,93.91 C 29.86,93.31 29.49,92.54 29.33,91.71 C 29.18,90.87 29.26,90 29.56,89.22 C 29.86,88.43 30.37,87.76 31.02,87.28 C 31.67,86.81 32.44,86.56 33.23,86.56 C 33.75,86.56 34.27,86.67 34.75,86.89 C 35.23,87.1 35.67,87.42 36.04,87.82 C 36.4,88.22 36.7,88.69 36.9,89.22 C 37.09,89.74 37.2,90.3 37.2,90.87 L 37.2 90.87 M 81.65 90.87 C 81.65,91.72 81.41,92.55 80.97,93.26 C 80.54,93.97 79.91,94.52 79.19,94.85 C 78.46,95.17 77.66,95.25 76.89,95.09 C 76.12,94.92 75.41,94.5 74.86,93.9 C 74.3,93.29 73.93,92.52 73.78,91.69 C 73.63,90.85 73.71,89.98 74.02,89.19 C 74.32,88.41 74.83,87.74 75.49,87.27 C 76.15,86.8 76.92,86.55 77.71,86.56 C 78.22,86.56 78.74,86.67 79.22,86.89 C 79.7,87.1 80.13,87.42 80.5,87.82 C 80.87,88.22 81.16,88.7 81.35,89.22 C 81.55,89.74 81.65,90.3 81.65,90.87 L 81.65 90.87 M 90.28 65.9 C 90.23,66.27 90.07,66.62 89.81,66.86 C 89.55,67.11 89.21,67.25 88.87,67.24 L 21.75 67.24 L 18.87 28.46 L 94.5 28.46 L 90.28 65.9 L 90.28 65.9" fill="#2c5967" stroke="none" stroke-width="0.5"/>
  </g>
  <g transform="translate(30.00,2.00) scale(0.3300,0.2300)">
    <path d="M 20.51 100 L 11.48 65.19 L 41.59 15.94 L 86.83 28.17 L 89.78 39.95 C 93.11,38.33 96.53,37.12 100,36.32 L 94.67 15.41 L 37.64 0 L 0 62 L 9.79 100 L 20.51 100 L 20.51 100" fill="#2c5967" stroke="none" stroke-width="0.5"/>
  </g>
</svg>