<svg xmlns="http://www.w3.org/2000/svg" viewBox="0 0 84.0 108.00000000000004" width="84" height="108">
  <g transform="translate(4.00,0.00) scale(0.8400,0.7700)">
    <path d="M 92.92 0 L 7.08 0 C 5.2,0 3.4,0.82 2.07,2.28 C 0.75,3.74 0,5.71 0,7.78 L 0 73.43 C 0,74.45 0.18,75.46 0.54,76.41 C 0.89,77.35 1.42,78.21 2.07,78.93 C 2.73,79.65 3.51,80.22 4.37,80.62 C 5.23,81.01 6.15,81.21 7.08,81.21 L 28.28 81.21 C 27.46,82.02 26.78,82.97 26.25,84.03 L 11.11 84.03 C 9.86,84.03 8.66,84.58 7.78,85.55 C 6.89,86.52 6.4,87.84 6.4,89.21 C 6.4,90.58 6.89,91.9 7.78,92.87 C 8.66,93.84 9.86,94.38 11.11,94.38 L 26.25 94.38 C 27.1,96.08 28.35,97.5 29.87,98.49 C 31.38,99.48 33.12,100 34.88,100 C 36.65,100 38.38,99.48 39.9,98.49 C 41.42,97.5 42.66,96.08 43.51,94.38 L 88.8 94.38 C 90.05,94.38 91.25,93.84 92.13,92.87 C 93.01,91.9 93.51,90.58 93.51,89.21 C 93.51,87.84 93.01,86.52 92.13,85.55 C 91.25,84.58 90.05,84.03 88.8,84.03 L 43.51 84.03 C 42.98,82.97 42.29,82.01 41.46,81.21 L 92.92 81.21 C 94.8,81.2 96.59,80.38 97.92,78.92 C 99.25,77.47 99.99,75.49 100,73.43 L 100 7.78 C 100,5.71 99.25,3.74 97.93,2.28 C 96.6,0.82 94.8,0 92.92,0 L 92.92 0" fill="#fbf9f8" stroke="none" stroke-width="0.5"/>
  </g>
  <g transform="translate(6.00,2.00) scale(0.7900,0.5700)">
    <path d="M 95.51 100 L 4.51 100 C 3.32,100 2.18,99.35 1.33,98.19 C 0.48,97.02 0.01,95.45 0,93.8 L 0 6.24 C 0,4.58 0.48,3 1.32,1.83 C 2.17,0.66 3.32,0 4.51,0 L 95.51 0 C 96.7,0.01 97.85,0.67 98.69,1.84 C 99.53,3.01 100,4.59 100,6.24 L 100 93.8 C 100,95.44 99.53,97.02 98.69,98.18 C 97.84,99.35 96.7,100 95.51,100 L 95.51 100 M 4.51 5.54 C 4.38,5.54 4.25,5.61 4.15,5.74 C 4.06,5.87 4.01,6.05 4.01,6.24 L 4.01 93.8 C 4.01,93.98 4.06,94.16 4.15,94.29 C 4.25,94.43 4.38,94.5 4.51,94.5 L 95.51 94.5 C 95.64,94.49 95.77,94.41 95.86,94.28 C 95.96,94.15 96.01,93.98 96.02,93.8 L 96.02 6.24 C 96.02,6.05 95.96,5.87 95.87,5.74 C 95.77,5.61 95.65,5.54 95.51,5.54 L 4.51 5.54 L 4.51 5.54" fill="#2c5967" stroke="none" stroke-width="0.5"/>
  </g>
  <g transform="translate(11.00,67.00) scale(0.6800,0.0300)">
    <path d="M 97.68 100 L 2.32 100 C 1.7,100 1.12,94.71 0.68,85.35 C 0.24,75.96 0,63.26 0,50 C 0,36.74 0.24,24.01 0.68,14.65 C 1.12,5.26 1.7,0 2.32,0 L 97.68 0 C 98.3,0 98.89,5.26 99.32,14.65 C 99.76,24.01 100,36.74 100,50 C 100,63.26 99.76,75.96 99.32,85.35 C 98.89,94.71 98.3,100 97.68,100 L 97.68 100" fill="#2c5967" stroke="none" stroke-width="0.5"/>
  </g>
  <g transform="translate(29.00,64.00) scale(0.0800,0.0800)">
    <path d="M 49.99 100 C 77.61,100 100,77.61 100,50.01 C 100,22.39 77.61,0 49.99,0 C 22.39,0 0,22.39 0,50.01 C 0,77.61 22.39,100 49.99,100 L 49.99 100" fill="#FFFFFF" stroke="none" stroke-width="0.5"/>
  </g>
  <g transform="translate(27.00,62.00) scale(0.1100,0.1100)">
    <path d="M 50.48 100 C 40.69,100 31.11,97.1 22.97,91.65 C 14.83,86.21 8.48,78.48 4.73,69.43 C 0.98,60.38 0,50.42 1.92,40.82 C 3.82,31.21 8.54,22.39 15.46,15.46 C 22.39,8.54 31.21,3.82 40.82,1.91 C 50.43,0 60.38,0.98 69.43,4.73 C 78.48,8.47 86.21,14.82 91.66,22.97 C 97.1,31.11 100,40.68 100,50.48 C 100,63.62 94.78,76.21 85.5,85.5 C 76.21,94.78 63.62,100 50.48,100 L 50.48 100 M 50.48 27.65 C 45.97,27.65 41.56,28.99 37.8,31.49 C 34.05,34 31.11,37.57 29.39,41.74 C 27.66,45.92 27.21,50.51 28.09,54.93 C 28.97,59.36 31.15,63.43 34.34,66.63 C 37.53,69.81 41.6,71.99 46.03,72.87 C 50.45,73.75 55.04,73.3 59.22,71.57 C 63.39,69.85 66.96,66.92 69.47,63.17 C 71.97,59.41 73.32,54.99 73.32,50.48 C 73.33,47.47 72.76,44.5 71.62,41.72 C 70.48,38.94 68.8,36.41 66.68,34.28 C 64.55,32.17 62.03,30.48 59.25,29.34 C 56.47,28.2 53.49,27.63 50.48,27.65 L 50.48 27.65" fill="#2c5967" stroke="none" stroke-width="0.5"/>
  </g>
  <g transform="translate(14.00,11.00) scale(0.6400,0.2000)">
    <path d="M 84.23 0 C 80.55,0.03 76.99,4.26 74.2,11.92 C 71.4,19.58 69.55,30.18 68.97,41.81 L 62.21 41.81 C 61.66,36.61 60.61,32.09 59.22,28.89 C 57.83,25.69 56.16,23.97 54.44,23.97 C 52.73,23.97 51.06,25.69 49.67,28.89 C 48.28,32.09 47.23,36.61 46.68,41.81 L 41.37 41.81 C 40.82,36.62 39.77,32.12 38.38,28.93 C 36.98,25.75 35.31,24.03 33.6,24.03 C 31.88,24.03 30.21,25.75 28.82,28.93 C 27.43,32.12 26.38,36.62 25.82,41.81 L 20.42 41.81 C 19.87,36.62 18.82,32.12 17.42,28.93 C 16.03,25.75 14.36,24.03 12.65,24.03 C 10.93,24.03 9.26,25.75 7.87,28.93 C 6.47,32.12 5.43,36.62 4.87,41.81 L 2.73 41.81 C 2.39,41.69 2.04,41.8 1.71,42.14 C 1.38,42.48 1.08,43.03 0.82,43.77 C 0.56,44.51 0.36,45.42 0.22,46.43 C 0.07,47.44 0,48.54 0,49.65 C 0,50.76 0.07,51.85 0.22,52.87 C 0.36,53.88 0.56,54.78 0.82,55.52 C 1.08,56.26 1.38,56.82 1.71,57.16 C 2.04,57.5 2.39,57.61 2.73,57.49 L 4.72 57.49 C 5.2,63.04 6.24,67.93 7.67,71.42 C 9.1,74.91 10.85,76.8 12.65,76.8 C 14.44,76.8 16.19,74.91 17.63,71.42 C 19.06,67.93 20.09,63.04 20.57,57.49 L 25.79 57.49 C 26.27,63.04 27.31,67.93 28.74,71.42 C 30.17,74.91 31.92,76.8 33.72,76.8 C 35.51,76.8 37.26,74.91 38.69,71.42 C 40.13,67.93 41.16,63.04 41.64,57.49 L 46.57 57.49 C 47.04,63.08 48.07,68.02 49.5,71.54 C 50.94,75.06 52.7,76.97 54.5,76.97 C 56.31,76.97 58.07,75.06 59.51,71.54 C 60.94,68.02 61.97,63.08 62.44,57.49 L 69.06 57.49 C 69.52,66.83 70.8,75.55 72.75,82.63 C 74.71,89.71 77.26,94.84 80.1,97.42 C 82.94,100 85.95,99.92 88.77,97.18 C 91.6,94.45 94.12,89.18 96.04,82 C 97.96,74.81 99.19,66.02 99.6,56.66 C 100,47.29 99.56,37.76 98.32,29.18 C 97.08,20.6 95.1,13.33 92.62,8.24 C 90.13,3.16 87.24,0.46 84.29,0.48 L 84.23 0 L 84.23 0 M 12.65 61.1 C 11.99,61.1 11.35,60.47 10.8,59.3 C 10.25,58.14 9.83,56.47 9.58,54.53 C 9.32,52.58 9.26,50.44 9.39,48.38 C 9.51,46.32 9.83,44.42 10.3,42.93 C 10.76,41.44 11.35,40.43 12,40.02 C 12.64,39.61 13.31,39.82 13.92,40.62 C 14.52,41.43 15.04,42.79 15.41,44.54 C 15.77,46.29 15.97,48.35 15.97,50.46 C 15.97,53.28 15.62,55.99 15,57.98 C 14.37,59.98 13.53,61.1 12.65,61.1 L 12.65 61.1 M 33.6 61.1 C 32.94,61.1 32.3,60.47 31.75,59.3 C 31.2,58.14 30.78,56.47 30.53,54.53 C 30.27,52.58 30.21,50.44 30.34,48.38 C 30.47,46.32 30.78,44.42 31.25,42.93 C 31.71,41.44 32.3,40.43 32.95,40.02 C 33.59,39.61 34.26,39.82 34.87,40.62 C 35.48,41.43 36,42.79 36.36,44.54 C 36.73,46.29 36.92,48.35 36.92,50.46 C 36.92,51.85 36.84,53.24 36.67,54.53 C 36.5,55.82 36.26,56.99 35.95,57.98 C 35.64,58.97 35.27,59.75 34.87,60.29 C 34.47,60.82 34.03,61.1 33.6,61.1 L 33.6 61.1 M 54.37 61.1 C 53.71,61.12 53.07,60.51 52.52,59.35 C 51.97,58.19 51.53,56.54 51.28,54.6 C 51.02,52.65 50.95,50.51 51.08,48.44 C 51.2,46.37 51.52,44.46 51.98,42.97 C 52.44,41.47 53.04,40.44 53.68,40.03 C 54.33,39.61 55,39.81 55.61,40.62 C 56.22,41.42 56.74,42.78 57.1,44.53 C 57.47,46.29 57.67,48.35 57.67,50.46 C 57.67,53.21 57.33,55.86 56.73,57.85 C 56.14,59.84 55.32,61 54.46,61.1 L 54.37 61.1 L 54.37 61.1 M 84.05 83.05 C 81.97,83.05 79.94,81.08 78.21,77.38 C 76.48,73.68 75.14,68.43 74.34,62.28 C 73.55,56.14 73.34,49.37 73.74,42.85 C 74.15,36.32 75.15,30.33 76.62,25.63 C 78.09,20.92 79.96,17.72 82,16.42 C 84.04,15.12 86.15,15.79 88.07,18.33 C 89.99,20.88 91.63,25.19 92.78,30.72 C 93.94,36.25 94.55,42.76 94.55,49.41 C 94.55,58.23 93.46,66.68 91.53,72.97 C 89.6,79.26 86.98,82.87 84.23,83.05 L 84.05 83.05 L 84.05 83.05" fill="#2c5967" stroke="none" stroke-width="0.5"/>
  </g>
  <g transform="translate(65.00,17.00) scale(0.0700,0.0800)">
    <path d="M 0 100 L 100 50 L 0 0 L 0 100 L 0 100" fill="#2c5967" stroke="none" stroke-width="0.5"/>
  </g>
  <g transform="translate(14.00,30.00) scale(0.6300,0.1900)">
    <path d="M 97.83 42.62 L 79.27 42.62 C 78.7,30.75 76.83,19.93 73.98,12.12 C 71.14,4.3 67.51,0 63.76,0 C 60.01,0 56.39,4.3 53.54,12.12 C 50.7,19.93 48.82,30.75 48.25,42.62 L 42.22 42.62 C 41.68,37.18 40.61,32.43 39.18,29.07 C 37.74,25.7 36,23.88 34.22,23.88 C 32.44,23.88 30.7,25.7 29.27,29.07 C 27.83,32.43 26.76,37.18 26.23,42.62 L 20.82 42.62 C 20.29,37.17 19.23,32.4 17.8,29.02 C 16.36,25.63 14.63,23.81 12.84,23.81 C 11.06,23.81 9.32,25.63 7.89,29.02 C 6.45,32.4 5.39,37.17 4.86,42.62 L 2.78 42.62 C 2.43,42.49 2.08,42.61 1.74,42.95 C 1.4,43.3 1.1,43.86 0.83,44.61 C 0.57,45.37 0.36,46.29 0.22,47.31 C 0.07,48.34 0,49.46 0,50.58 C 0,51.71 0.07,52.83 0.22,53.85 C 0.36,54.88 0.57,55.8 0.83,56.56 C 1.1,57.31 1.4,57.87 1.74,58.22 C 2.08,58.56 2.43,58.68 2.78,58.55 L 4.86 58.55 C 5.38,64.04 6.44,68.85 7.88,72.26 C 9.32,75.67 11.07,77.52 12.86,77.52 C 14.65,77.52 16.39,75.67 17.83,72.26 C 19.27,68.85 20.33,64.04 20.85,58.55 L 26.23 58.55 C 26.75,64.04 27.81,68.85 29.25,72.26 C 30.68,75.67 32.43,77.52 34.22,77.52 C 36.01,77.52 37.76,75.67 39.2,72.26 C 40.64,68.85 41.7,64.04 42.22,58.55 L 48.25 58.55 C 48.9,70.17 50.8,80.69 53.62,88.27 C 56.45,95.85 60.02,100 63.7,100 C 67.39,100 70.96,95.85 73.78,88.27 C 76.61,80.69 78.51,70.17 79.15,58.55 L 97.77 58.55 C 98.38,58.34 98.95,57.4 99.36,55.93 C 99.77,54.46 100,52.56 100,50.58 C 100,48.61 99.77,46.71 99.36,45.24 C 98.95,43.77 98.38,42.83 97.77,42.62 L 97.83 42.62 L 97.83 42.62 M 12.86 61.93 C 11.96,61.93 11.1,60.79 10.47,58.77 C 9.84,56.74 9.48,53.98 9.48,51.12 C 9.48,48.25 9.84,45.5 10.47,43.47 C 11.1,41.44 11.96,40.3 12.86,40.3 C 13.75,40.3 14.61,41.44 15.25,43.47 C 15.88,45.5 16.24,48.25 16.24,51.12 C 16.24,53.98 15.88,56.74 15.25,58.77 C 14.61,60.79 13.75,61.93 12.86,61.93 L 12.86 61.93 M 34.16 61.93 C 33.49,61.93 32.84,61.3 32.28,60.11 C 31.73,58.92 31.29,57.23 31.04,55.26 C 30.78,53.28 30.72,51.1 30.85,49.01 C 30.98,46.91 31.3,44.98 31.77,43.47 C 32.24,41.95 32.85,40.92 33.5,40.51 C 34.16,40.09 34.84,40.3 35.45,41.12 C 36.07,41.94 36.6,43.33 36.97,45.11 C 37.34,46.88 37.54,48.98 37.54,51.12 C 37.5,53.9 37.13,56.53 36.5,58.45 C 35.87,60.38 35.03,61.45 34.16,61.45 L 34.16 61.93 L 34.16 61.93 M 63.76 84.73 C 61.66,84.69 59.61,82.66 57.86,78.9 C 56.12,75.14 54.76,69.82 53.95,63.6 C 53.15,57.37 52.94,50.53 53.34,43.92 C 53.75,37.32 54.76,31.24 56.24,26.46 C 57.72,21.68 59.61,18.41 61.67,17.05 C 63.73,15.69 65.87,16.31 67.82,18.83 C 69.77,21.35 71.45,25.66 72.64,31.21 C 73.82,36.77 74.48,43.32 74.51,50.05 C 74.5,54.56 74.22,59.01 73.68,63.17 C 73.14,67.32 72.34,71.1 71.35,74.27 C 70.35,77.45 69.17,79.96 67.86,81.67 C 66.56,83.38 65.17,84.26 63.76,84.24 L 63.76 84.73 L 63.76 84.73" fill="#2c5967" stroke="none" stroke-width="0.5"/>
  </g>
  <g transform="translate(51.00,36.00) scale(0.0700,0.0800)">
    <path d="M 0 100 L 100 50 L 0 0 L 0 100 L 0 100" fill="#2c5967" stroke="none" stroke-width="0.5"/>
  </g>
</svg>