<svg xmlns="http://www.w3.org/2000/svg" viewBox="0 0 84.0 121.00000000000007" width="84" height="121">
  <g transform="translate(0.00,0.00) scale(0.8400,0.7600)">
    <path d="M 97.99 2.32 C 97.33,1.57 96.53,0.99 95.66,0.59 C 94.78,0.2 93.84,0 92.89,0.02 L 7.09 0.02 C 5.21,0.02 3.41,0.84 2.08,2.31 C 0.75,3.77 0,5.76 0,7.84 L 0 73.95 C 0,76.03 0.75,78.02 2.08,79.49 C 3.41,80.95 5.21,81.78 7.09,81.78 L 27.78 81.78 C 27.24,82.4 26.78,83.1 26.4,83.85 L 11.33 83.85 C 10.13,83.95 9.01,84.53 8.19,85.5 C 7.38,86.47 6.92,87.74 6.92,89.07 C 6.92,90.39 7.38,91.66 8.19,92.63 C 9.01,93.6 10.13,94.19 11.33,94.28 L 26.33 94.28 C 27.17,96.01 28.42,97.45 29.94,98.46 C 31.47,99.47 33.22,100 34.99,100 C 36.77,100 38.52,99.47 40.04,98.46 C 41.57,97.45 42.82,96.01 43.66,94.28 L 89.23 94.28 C 90.42,94.19 91.54,93.6 92.36,92.63 C 93.18,91.66 93.63,90.39 93.63,89.07 C 93.63,87.74 93.18,86.47 92.36,85.5 C 91.54,84.53 90.42,83.95 89.23,83.85 L 43.59 83.85 C 43.2,83.11 42.74,82.41 42.21,81.78 L 92.89 81.78 C 93.83,81.78 94.75,81.58 95.61,81.18 C 96.47,80.79 97.25,80.21 97.91,79.49 C 98.57,78.76 99.09,77.9 99.45,76.95 C 99.8,76 99.99,74.98 99.99,73.95 L 99.99 7.84 C 100,6.82 99.83,5.81 99.49,4.86 C 99.15,3.91 98.64,3.05 97.99,2.32 L 97.99 2.32" fill="#FFFFFF" stroke="none" stroke-width="0.5"/>
  </g>
  <g transform="translate(2.00,2.00) scale(0.7900,0.5700)">
    <path d="M 95.48 100 L 4.52 100 C 3.32,100 2.17,99.34 1.32,98.18 C 0.48,97.01 0,95.43 0,93.78 L 0 6.22 C 0,4.57 0.48,2.99 1.32,1.82 C 2.17,0.66 3.32,0 4.52,0 L 95.48 0 C 96.68,0.01 97.83,0.66 98.68,1.82 C 99.1,2.4 99.43,3.08 99.66,3.84 C 99.88,4.6 100,5.41 100,6.22 L 100 93.78 C 100,95.43 99.52,97.01 98.67,98.18 C 97.83,99.34 96.68,100 95.48,100 L 95.48 100 M 4.52 5.53 C 4.38,5.53 4.25,5.6 4.16,5.73 C 4.06,5.86 4.01,6.04 4.01,6.22 L 4.01 93.78 C 4.01,93.96 4.06,94.14 4.16,94.27 C 4.25,94.4 4.38,94.47 4.52,94.47 L 95.48 94.47 C 95.62,94.47 95.74,94.4 95.84,94.27 C 95.93,94.14 95.99,93.96 95.99,93.78 L 95.99 6.22 C 96.01,6.08 95.99,5.92 95.94,5.79 C 95.89,5.7 95.82,5.62 95.73,5.58 C 95.66,5.53 95.57,5.51 95.48,5.53 L 4.52 5.53 L 4.52 5.53" fill="#2c5967" stroke="none" stroke-width="0.5"/>
  </g>
  <g transform="translate(8.00,66.00) scale(0.6800,0.0300)">
    <path d="M 97.91 100 L 2.09 100 C 1.51,98.65 0.98,92.8 0.6,83.58 C 0.21,74.33 0,62.37 0,49.98 C 0,37.59 0.21,25.64 0.6,16.42 C 0.98,7.2 1.51,1.32 2.09,0 L 97.91 0 C 98.49,1.32 99.02,7.2 99.4,16.42 C 99.79,25.64 100,37.59 100,49.98 C 100,62.37 99.79,74.33 99.4,83.58 C 99.02,92.8 98.49,98.65 97.91,100 L 97.91 100" fill="#2c5967" stroke="none" stroke-width="0.5"/>
  </g>
  <g transform="translate(25.00,64.00) scale(0.0800,0.0800)">
    <path d="M 50 100 C 77.61,100 100,77.62 100,50 C 100,22.38 77.61,0 50,0 C 22.38,0 0,22.38 0,50 C 0,77.62 22.38,100 50,100 L 50 100" fill="#FFFFFF" stroke="none" stroke-width="0.5"/>
  </g>
  <g transform="translate(23.00,62.00) scale(0.1200,0.1200)">
    <path d="M 50.48 100 C 40.68,100 31.11,97.09 22.97,91.65 C 14.83,86.21 8.48,78.48 4.73,69.43 C 0.99,60.38 0,50.42 1.91,40.82 C 3.82,31.21 8.54,22.38 15.46,15.46 C 22.39,8.54 31.21,3.82 40.82,1.9 C 50.43,0 60.38,0.98 69.43,4.72 C 78.47,8.48 86.21,14.82 91.66,22.96 C 97.09,31.11 100,40.69 100,50.48 C 100,63.61 94.78,76.21 85.5,85.5 C 76.21,94.78 63.61,100 50.48,100 L 50.48 100 M 50.48 27.79 C 45.95,27.79 41.54,29.14 37.77,31.65 C 34.01,34.17 31.09,37.75 29.36,41.94 C 27.64,46.11 27.19,50.71 28.09,55.16 C 28.98,59.59 31.17,63.66 34.38,66.85 C 37.6,70.04 41.68,72.2 46.12,73.06 C 50.56,73.92 55.16,73.45 59.34,71.7 C 63.5,69.94 67.06,66.99 69.55,63.21 C 72.04,59.44 73.35,55.01 73.32,50.48 C 73.28,44.45 70.85,38.68 66.58,34.43 C 62.3,30.18 56.51,27.79 50.48,27.79 L 50.48 27.79" fill="#2c5967" stroke="none" stroke-width="0.5"/>
  </g>
  <g transform="translate(31.00,20.00) scale(0.2200,0.2200)">
    <path d="M 50.48 0 C 40.69,0 31.11,2.9 22.97,8.35 C 14.82,13.79 8.48,21.52 4.73,30.57 C 0.98,39.62 0,49.58 1.91,59.18 C 3.82,68.79 8.54,77.61 15.46,84.54 C 22.39,91.46 31.21,96.18 40.82,98.09 C 50.43,100 60.38,99.02 69.43,95.27 C 78.48,91.52 86.21,85.18 91.65,77.03 C 97.1,68.89 100,59.31 100,49.52 C 99.98,36.39 94.75,23.81 85.47,14.53 C 76.19,5.25 63.61,0.02 50.48,0 L 50.48 0" fill="#FFFFFF" stroke="none" stroke-width="0.5"/>
  </g>
  <g transform="translate(31.00,20.00) scale(0.2200,0.2200)">
    <path d="M 50.48 100 C 40.68,100 31.11,97.1 22.97,91.65 C 14.82,86.21 8.48,78.48 4.73,69.43 C 0.98,60.38 0,50.42 1.91,40.82 C 3.82,31.21 8.54,22.39 15.46,15.46 C 22.39,8.54 31.21,3.82 40.82,1.91 C 50.42,0 60.38,0.98 69.43,4.73 C 78.48,8.48 86.21,14.82 91.65,22.97 C 97.1,31.11 100,40.69 100,50.48 C 100,56.98 98.72,63.42 96.23,69.43 C 93.74,75.44 90.1,80.9 85.5,85.5 C 80.9,90.09 75.44,93.74 69.43,96.23 C 63.42,98.72 56.98,100 50.48,100 L 50.48 100 M 50.48 15.22 C 43.51,15.22 36.69,17.29 30.89,21.16 C 25.09,25.04 20.57,30.54 17.9,36.99 C 15.23,43.43 14.53,50.52 15.9,57.36 C 17.26,64.2 20.62,70.48 25.55,75.41 C 30.48,80.34 36.76,83.7 43.6,85.06 C 50.44,86.42 57.53,85.73 63.97,83.06 C 70.42,80.39 75.92,75.87 79.8,70.07 C 83.68,64.27 85.74,57.45 85.74,50.48 C 85.74,41.13 82.03,32.16 75.41,25.55 C 68.8,18.93 59.83,15.22 50.48,15.22 L 50.48 15.22" fill="#2c5967" stroke="none" stroke-width="0.5"/>
  </g>
  <g transform="translate(39.00,27.00) scale(0.0700,0.0800)">
    <path d="M 100 50 L 0 0 L 0 100 L 100 50 L 100 50" fill="#2c5967" stroke="none" stroke-width="0.5"/>
  </g>
  <g transform="translate(54.00,20.00) scale(0.0600,0.2100)">
    <path d="M 44.67 100 L 3.03 91.27 C 32.37,79.41 48.09,65.21 48.01,50.65 C 48.07,35.56 31.24,20.86 0,8.73 L 40.71 0 C 78.08,14.41 98.58,31.85 99.28,49.82 C 100,67.78 80.87,85.35 44.67,100 L 44.67 100" fill="#2c5967" stroke="none" stroke-width="0.5"/>
  </g>
  <g transform="translate(62.00,14.00) scale(0.0800,0.3300)">
    <path d="M 35.65 100 L 3.33 94.2 C 40.72,81.23 60.5,65.73 59.9,49.87 C 59.31,34.01 38.36,18.6 0,5.8 L 32.09 0 C 75.2,14.44 98.71,31.8 99.36,49.66 C 100,67.52 77.72,84.98 35.65,99.59 L 35.65 100 L 35.65 100" fill="#2c5967" stroke="none" stroke-width="0.5"/>
  </g>
  <g transform="translate(54.00,20.00) scale(0.0600,0.2100)">
    <path d="M 44.67 100 L 3.03 91.27 C 32.37,79.41 48.09,65.21 48.01,50.65 C 48.07,35.56 31.24,20.86 0,8.73 L 40.71 0 C 78.08,14.41 98.58,31.85 99.28,49.82 C 100,67.78 80.87,85.35 44.67,100 L 44.67 100" fill="#2c5967" stroke="none" stroke-width="0.5"/>
  </g>
  <g transform="translate(23.00,20.00) scale(0.0600,0.2100)">
    <path d="M 56.83 100 C 19.85,85.38 0,67.91 0,50 C 0,32.09 19.85,14.62 56.83,0 L 100 8.89 C 69.42,21.02 53.01,35.51 53.01,50.36 C 53.01,65.21 69.42,79.69 100,91.82 L 56.83 100 L 56.83 100" fill="#2c5967" stroke="none" stroke-width="0.5"/>
  </g>
  <g transform="translate(23.00,20.00) scale(0.0600,0.2100)">
    <path d="M 56.83 100 C 19.85,85.38 0,67.91 0,50 C 0,32.09 19.85,14.62 56.83,0 L 100 8.89 C 69.42,21.02 53.01,35.51 53.01,50.36 C 53.01,65.21 69.42,79.69 100,91.82 L 56.83 100 L 56.83 100" fill="#2c5967" stroke="none" stroke-width="0.5"/>
  </g>
  <g transform="translate(14.00,15.00) scale(0.0700,0.3200)">
    <path d="M 66.47 100 C 23.21,85.37 0,67.9 0,50 C 0,32.1 23.21,14.63 66.47,0 L 100 5.88 C 61.72,18.87 41.18,34.36 41.18,50.24 C 41.18,66.11 61.72,81.6 100,94.59 L 66.47 100 L 66.47 100" fill="#2c5967" stroke="none" stroke-width="0.5"/>
  </g>
</svg>