<svg xmlns="http://www.w3.org/2000/svg" viewBox="0 0 84.0 107.00000000000014" width="84" height="107">
  <g transform="translate(1.00,0.00) scale(0.8100,0.8100)">
    <path d="M 67.73 100 L 67.73 92.19 L 47.09 92.19 L 47.09 70 C 38.36,68.78 31.31,61.71 30.11,52.93 L 25 52.93 L 29.14 60.49 L 0 60.49 L 14.57 33.9 L 21.61 46.59 L 30.11 46.59 C 31.31,37.8 38.36,30.73 47.09,29.51 L 47.09 13.17 L 33.26 13.17 L 33.26 20.98 L 12.39 20.98 L 12.39 0 L 33.26 0 L 33.26 7.32 L 52.92 7.32 L 52.92 30 C 61.65,31.22 68.7,38.29 69.91,47.07 L 74.27 47.07 L 79.62 38.05 L 93.21 38.05 L 100 50 L 93.21 61.71 L 79.62 61.71 L 74.76 53.17 L 70.4 53.17 C 69.18,61.95 62.15,69.02 53.4,70.24 L 53.4 86.34 L 67.96 86.34 L 67.96 79.02 L 88.85 79.02 L 88.85 100 L 67.73 100 L 67.73 100" fill="#FFFFFF" stroke="none" stroke-width="0.5"/>
  </g>
  <g transform="translate(0.00,0.00) scale(0.8400,0.8300)">
    <path d="M 33.03 2.38 L 33.03 9.52 L 51.99 9.52 L 51.99 31.43 C 60.89,32.38 67.69,39.29 68.61,48.33 L 74.47 48.33 L 79.63 39.52 L 91.34 39.52 L 97.19 50 L 91.34 60.48 L 79.63 60.48 L 74.94 52.14 L 68.85 52.14 C 67.91,61.19 61.13,68.1 52.23,69.05 L 52.23 86.9 L 68.61 86.9 L 68.61 79.76 L 86.41 79.76 L 86.41 97.62 L 68.61 97.62 L 68.61 90 L 48.71 90 L 48.71 68.57 C 39.81,67.86 32.79,60.71 32.09,51.67 L 24.13 51.67 L 28.1 59.05 L 3.99 59.05 L 16.16 36.9 L 22.25 48.1 L 32.09 48.1 C 33.03,39.05 39.81,32.14 48.71,31.19 L 48.71 12.86 L 33.03 12.86 L 33.03 20.48 L 15.23 20.48 L 15.23 2.38 L 33.03 2.38 L 33.03 2.38 M 35.36 0 L 33.03 0 L 15.23 0 L 12.88 0 L 12.88 2.38 L 12.88 20.48 L 12.88 22.86 L 15.23 22.86 L 33.03 22.86 L 35.36 22.86 L 35.36 20.48 L 35.36 15.24 L 46.37 15.24 L 46.37 29.29 C 38.17,30.95 31.61,37.38 29.98,45.95 L 23.43 45.95 L 18.04 35.95 L 15.93 32.14 L 14.05 35.95 L 1.88 58.1 L 0 61.67 L 3.99 61.67 L 27.88 61.67 L 31.85 61.67 L 29.98 58.1 L 27.88 54.29 L 29.98 54.29 C 31.61,62.62 37.94,69.29 46.37,70.95 L 46.37 90.24 L 46.37 92.62 L 48.71 92.62 L 66.28 92.62 L 66.28 97.62 L 66.28 100 L 68.61 100 L 86.41 100 L 88.76 100 L 88.76 97.62 L 88.76 79.52 L 88.76 77.14 L 86.41 77.14 L 68.61 77.14 L 66.28 77.14 L 66.28 79.52 L 66.28 84.29 L 54.56 84.29 L 54.56 70.71 C 62.76,69.05 69.33,62.38 70.96,54.05 L 73.54 54.05 L 77.51 61.19 L 78.22 62.38 L 79.63 62.38 L 91.34 62.38 L 92.74 62.38 L 93.44 61.19 L 99.3 50.71 L 100 49.52 L 99.3 48.33 L 93.44 37.86 L 92.74 36.67 L 91.34 36.67 L 79.63 36.67 L 78.22 36.67 L 77.51 38.1 L 73.06 45.71 L 70.72 45.71 C 69.09,37.38 62.53,30.71 54.34,29.05 L 54.34 9.52 L 54.34 7.14 L 51.99 7.14 L 35.36 7.14 L 35.36 2.38 L 35.36 0 L 35.36 0" fill="#FFFFFF" stroke="none" stroke-width="0.5"/>
  </g>
  <g transform="translate(3.00,1.00) scale(0.7800,0.7900)">
    <path d="M 69.59 51.75 L 76.13 51.75 L 81.16 60.5 L 93.72 60.5 L 100 49.5 L 93.98 38.75 L 81.41 38.75 L 75.89 48 L 69.59 48 C 68.59,38.5 61.31,31.25 51.76,30.25 L 51.76 7.5 L 31.41 7.5 L 31.41 0 L 12.31 0 L 12.31 19 L 31.41 19 L 31.41 11 L 48.24 11 L 48.24 30.25 C 38.69,31.25 31.16,38.75 30.41,48 L 19.59 48 L 13.06 36.25 L 0 59.5 L 25.63 59.5 L 21.35 51.75 L 29.9 51.75 C 30.9,61.25 38.18,68.5 47.73,69.5 L 47.73 92 L 69.1 92 L 69.1 100 L 88.2 100 L 88.2 81 L 69.1 81 L 69.1 88.5 L 51.5 88.5 L 51.5 69.75 C 61.31,68.75 68.84,61.25 69.59,51.75 L 69.59 51.75 M 16.08 15.25 L 16.08 3.75 L 27.64 3.75 L 27.64 15.25 L 16.08 15.25 L 16.08 15.25 M 6.53 56 L 13.06 44 L 19.59 56 L 6.53 56 L 6.53 56 M 84.92 84.75 L 84.92 96.25 L 73.36 96.25 L 73.36 84.75 L 84.92 84.75 L 84.92 84.75 M 33.92 50 C 33.92,41.25 41.2,34 50,34 C 58.8,34 66.08,41.25 66.08,50 C 66.08,58.75 58.8,66 50,66 C 41.2,66 33.92,58.75 33.92,50 L 33.92 50 M 79.14 49.75 L 83.42 42.5 L 91.71 42.5 L 95.73 49.75 L 91.46 57 L 83.17 57 L 79.14 49.75 L 79.14 49.75" fill="#2d5967" stroke="none" stroke-width="0.5"/>
  </g>
</svg>