<svg xmlns="http://www.w3.org/2000/svg" viewBox="0 0 84.0 77.00000000000013" width="84" height="77">
  <g transform="translate(1.00,1.00) scale(0.8200,0.5000)">
    <path d="M 69.51 100 L 69.51 90.52 L 0 90.52 L 0 0 L 94.15 0 L 94.15 48.22 L 100 48.22 L 100 100 L 69.51 100 L 69.51 100" fill="#FFFFFF" stroke="none" stroke-width="0.5"/>
  </g>
  <g transform="translate(0.00,0.00) scale(0.8400,0.5200)">
    <path d="M 91.9 3.8 L 91.9 50.19 L 97.62 50.19 L 97.62 96.58 L 70.24 96.58 L 70.24 87.45 L 67.86 87.45 L 22.14 87.45 L 21.91 87.45 L 19.05 87.45 L 16.67 87.45 L 10.71 87.45 L 2.38 87.45 L 2.38 3.8 L 10.71 3.8 L 16.43 3.8 L 18.81 3.8 L 21.67 3.8 L 22.14 3.8 L 79.52 3.8 L 91.9 3.8 L 91.9 3.8 M 94.29 0 L 91.9 0 L 79.76 0 L 22.14 0 L 21.91 0 L 19.05 0 L 16.67 0 L 10.71 0 L 2.38 0 L 0 0 L 0 3.8 L 0 87.07 L 0 90.87 L 2.38 90.87 L 10.71 90.87 L 16.43 90.87 L 18.81 90.87 L 21.67 90.87 L 22.14 90.87 L 67.62 90.87 L 67.62 96.2 L 67.62 100 L 70 100 L 97.62 100 L 100 100 L 100 96.2 L 100 50.19 L 100 46.39 L 97.62 46.39 L 94.29 46.39 L 94.29 3.8 L 94.29 0 L 94.29 0" fill="#FFFFFF" stroke="none" stroke-width="0.5"/>
  </g>
  <g transform="translate(2.00,2.00) scale(0.0400,0.4400)">
    <path d="M 58.32 93.61 L 58.32 6.39 L 100 6.39 L 100 0 L 0 0 L 0 100 L 100 100 L 100 93.61 L 58.32 93.61 L 58.32 93.61" fill="#2c5967" stroke="none" stroke-width="0.5"/>
  </g>
  <g transform="translate(9.00,2.00) scale(0.0400,0.4400)">
    <path d="M 58.33 93.61 L 58.33 6.39 L 100 6.39 L 100 0 L 0 0 L 0 100 L 100 100 L 100 93.61 L 58.33 93.61 L 58.33 93.61" fill="#2c5967" stroke="none" stroke-width="0.5"/>
  </g>
  <g transform="translate(16.00,2.00) scale(0.6100,0.4400)">
    <path d="M 4.25 0 L 3.92 0 L 0 0 L 0 6.39 L 0 93.61 L 0 100 L 3.92 100 L 4.25 100 L 66.99 100 L 66.99 93.61 L 4.25 93.61 L 4.25 6.39 L 95.42 6.39 L 95.42 50.69 L 100 50.69 L 100 0 L 4.25 0 L 4.25 0" fill="#2c5967" stroke="none" stroke-width="0.5"/>
  </g>
  <g transform="translate(21.00,7.00) scale(0.1800,0.0200)">
    <path d="M 100 0 L 0 0 L 0 100 L 100 100 L 100 0 L 100 0" fill="#2c5967" stroke="none" stroke-width="0.5"/>
  </g>
  <g transform="translate(21.00,12.00) scale(0.1800,0.0200)">
    <path d="M 100 0 L 0 0 L 0 100 L 100 100 L 100 0 L 100 0" fill="#2c5967" stroke="none" stroke-width="0.5"/>
  </g>
  <g transform="translate(21.00,17.00) scale(0.1800,0.0200)">
    <path d="M 100 0 L 0 0 L 0 100 L 100 100 L 100 0 L 100 0" fill="#2c5967" stroke="none" stroke-width="0.5"/>
  </g>
  <g transform="translate(48.00,32.00) scale(0.0800,0.0200)">
    <path d="M 100 0 L 0 0 L 0 100 L 100 100 L 100 0 L 100 0" fill="#2c5967" stroke="none" stroke-width="0.5"/>
  </g>
  <g transform="translate(48.00,37.00) scale(0.0800,0.0200)">
    <path d="M 100 0 L 0 0 L 0 100 L 100 100 L 100 0 L 100 0" fill="#2c5967" stroke="none" stroke-width="0.5"/>
  </g>
  <g transform="translate(59.00,26.00) scale(0.2300,0.2400)">
    <path d="M 0 0 L 0 100 L 100 100 L 100 0 L 0 0 L 0 0 M 87.82 88.53 L 12.18 88.53 L 12.18 11.47 L 87.82 11.47 L 87.82 88.53 L 87.82 88.53" fill="#2c5967" stroke="none" stroke-width="0.5"/>
  </g>
  <g transform="translate(65.00,34.00) scale(0.0200,0.0900)">
    <path d="M 100 0 L 0 0 L 0 100 L 100 100 L 100 0 L 100 0" fill="#2c5967" stroke="none" stroke-width="0.5"/>
  </g>
  <g transform="translate(69.00,34.00) scale(0.0600,0.0900)">
    <path d="M 50.01 0 L 0 0 L 0 100 L 29.41 100 L 29.41 68.08 L 50.01 68.08 C 67.64,68.08 79.4,65.96 88.24,59.58 C 97.05,53.19 100,44.68 100,34.04 C 100,23.41 97.05,14.89 88.24,8.52 C 79.4,2.13 67.64,0 50.01,0 L 50.01 0 M 64.71 46.81 C 61.76,48.94 52.94,51.06 44.13,51.06 L 29.41 51.06 L 29.41 17.02 L 44.13 17.02 C 52.94,17.02 61.76,19.15 64.71,21.27 C 67.64,23.41 70.59,27.66 70.59,34.04 C 70.59,38.29 70.59,42.56 64.71,46.81 L 64.71 46.81" fill="#2c5967" stroke="none" stroke-width="0.5"/>
  </g>
  <g transform="translate(59.00,7.00) scale(0.1200,0.1200)">
    <path d="M 0 0 L 0 100 L 100 100 L 100 0 L 0 0 L 0 0 M 77.78 79.03 L 22.22 79.03 L 22.22 22.58 L 77.78 22.58 L 77.78 79.03 L 77.78 79.03" fill="#2c5967" stroke="none" stroke-width="0.5"/>
  </g>
</svg>