<svg xmlns="http://www.w3.org/2000/svg" viewBox="0 0 85.0 124.0000000000001" width="85" height="124">
  <g transform="translate(1.00,1.00) scale(0.8300,0.8200)">
    <path d="M 54.77 99.99 C 47.92,100 41.16,98.4 35.02,95.3 C 28.89,92.21 23.55,87.71 19.44,82.16 C 17.04,80.49 14.81,78.6 12.77,76.5 C 11.76,75.57 10.85,74.55 10.02,73.45 C 9.63,72.97 7.97,70.72 7.61,70.01 C 7.25,69.31 7.15,69.28 6.94,68.89 L 6.29 67.82 C 6,67.31 5.68,66.82 5.42,66.31 C 5.15,65.8 5.01,65.5 4.82,65.09 L 4.26 63.89 C 4.02,63.41 3.78,62.92 3.57,62.41 C 3.35,61.89 3.2,61.48 3.03,60.99 L 2.5 59.75 C 2.31,59.28 2.14,58.8 1.98,58.28 C 1.81,57.77 1.69,57.16 1.54,56.6 L 1.2 55.29 C 1.2,54.87 0.99,54.43 0.89,53.99 C 0.79,53.55 0.63,52.43 0.53,51.55 L 0.39 50.46 C 0.39,50.12 0.27,49.8 0.22,49.46 C 0.07,48.04 0,46.51 0,44.97 C 0.01,33.05 4.7,21.62 13.02,13.19 C 21.35,4.75 32.64,0.01 44.41,0 C 45.83,0 47.33,0 48.82,0.22 L 49.71 0.34 L 50.24 0.34 C 51.18,0.34 52.14,0.59 53.08,0.78 L 54.19 1.22 L 54.67 1.34 C 55.56,1.56 56.36,1.76 57.08,2 L 58.33 2.41 L 58.82 2.58 L 61.03 3.41 C 61.54,3.61 62.02,3.85 62.5,4.07 L 62.77 4.07 L 64.81 5.07 L 66.45 6 C 67.12,6.39 67.77,6.78 68.4,7.19 L 69.99 8.29 L 71.75 9.63 C 72.53,10.21 73.26,10.85 73.94,11.54 C 76.03,13.43 77.94,15.52 79.65,17.78 C 87.52,23.17 93.47,30.98 96.63,40.06 C 99.8,49.13 100,58.99 97.21,68.19 C 94.43,77.39 88.8,85.45 81.17,91.17 C 73.52,96.89 64.27,99.98 54.77,99.99 L 54.77 99.99" fill="#FFFFFF" stroke="none" stroke-width="0.5"/>
  </g>
  <g transform="translate(0.00,0.00) scale(0.8500,0.8400)">
    <path d="M 44.94 2.39 C 46.35,2.39 47.76,2.46 49.16,2.6 L 50.51 2.79 C 51.44,2.91 52.34,3.03 53.24,3.22 C 53.79,3.22 54.31,3.48 54.85,3.6 L 57.23 4.2 L 58.84 4.77 C 59.58,5.03 60.29,5.27 61,5.56 L 62.64 6.3 L 64.6 7.25 C 65.15,7.54 65.67,7.85 66.19,8.16 C 66.72,8.47 67.45,8.9 68.05,9.28 C 68.64,9.66 69.07,9.97 69.56,10.33 C 70.06,10.69 70.7,11.16 71.27,11.62 L 73.31 13.36 C 75.38,15.22 77.26,17.29 78.93,19.51 C 84.07,22.99 88.38,27.54 91.58,32.87 C 94.78,38.19 96.79,44.15 97.47,50.33 C 98.14,56.51 97.47,62.77 95.49,68.66 C 93.52,74.56 90.29,79.95 86.03,84.46 C 81.77,88.97 76.58,92.49 70.83,94.77 C 65.08,97.06 58.9,98.06 52.73,97.7 C 46.55,97.34 40.53,95.63 35.08,92.69 C 29.63,89.76 24.88,85.66 21.17,80.68 C 18.81,79.08 16.61,77.24 14.62,75.2 C 14.62,75.2 12.48,72.81 12.01,72.29 C 11.53,71.76 10.02,69.64 9.64,68.99 C 9.26,68.35 9,67.94 8.69,67.42 C 8.38,66.89 7.88,66.13 7.52,65.49 C 7.17,64.84 6.95,64.32 6.69,63.74 C 6.43,63.17 6.03,62.43 5.74,61.74 C 5.46,61.05 5.27,60.45 5.03,59.81 C 4.8,59.16 4.53,58.52 4.32,57.85 C 4.11,57.18 3.94,56.35 3.75,55.61 C 3.56,54.87 3.42,54.39 3.28,53.77 C 3.14,53.15 2.99,51.96 2.87,51.05 C 2.87,50.55 2.69,50.05 2.64,49.55 C 2.46,48.12 2.38,46.66 2.38,45.18 C 2.41,33.84 6.91,22.98 14.88,14.96 C 22.86,6.94 33.66,2.42 44.94,2.39 L 44.94 2.39 M 44.94 0 C 33.03,0.04 21.62,4.81 13.21,13.28 C 4.79,21.74 0.04,33.21 0,45.18 C 0,46.72 0.08,48.26 0.24,49.79 C 0.24,50.15 0.24,50.5 0.38,50.84 C 0.53,51.17 0.38,51.2 0.38,51.39 L 0.38 51.89 C 0.38,52.65 0.57,53.44 0.74,54.27 C 0.9,55.11 0.95,55.16 1.07,55.61 C 1.19,56.06 1.07,56.01 1.24,56.21 L 1.38 56.83 C 1.52,57.42 1.66,57.99 1.85,58.57 C 2.04,59.14 2.19,59.57 2.38,60.07 L 2.59 60.64 L 2.8 61.24 C 2.96,61.73 3.14,62.22 3.35,62.69 C 3.56,63.22 3.82,63.74 4.06,64.25 L 4.35 64.79 L 4.61 65.37 C 4.79,65.8 4.99,66.22 5.22,66.63 C 5.51,67.16 5.82,67.66 6.12,68.18 L 6.43 68.68 L 6.74 69.18 C 6.98,69.59 7.19,69.97 7.45,70.35 C 7.71,70.73 9.59,73.31 10.02,73.81 C 10.87,74.94 11.81,75.99 12.84,76.96 C 14.82,79 17,80.83 19.34,82.45 C 23.32,87.55 28.34,91.73 34.06,94.7 C 39.78,97.67 46.08,99.38 52.52,99.69 C 58.95,100 65.38,98.92 71.36,96.51 C 77.34,94.1 82.74,90.43 87.19,85.74 C 91.63,81.05 95.02,75.45 97.13,69.33 C 99.23,63.2 100,56.69 99.38,50.25 C 98.76,43.8 96.77,37.56 93.54,31.95 C 90.31,26.34 85.92,21.5 80.67,17.75 C 78.96,15.52 77.06,13.45 74.97,11.57 C 74.3,10.91 73.59,10.3 72.84,9.73 L 71.03 8.37 L 69.42 7.28 C 68.8,6.87 68.14,6.49 67.5,6.11 C 66.86,5.73 66.38,5.44 65.81,5.15 L 63.73 4.13 L 63.44 4.01 L 62 3.36 C 61.26,3.05 60.5,2.79 59.76,2.53 L 59.17 2.39 L 57.89 1.93 C 57.11,1.69 56.33,1.5 55.52,1.31 L 55.35 1.31 L 54.88 1.15 L 53.72 0.88 C 52.74,0.69 51.77,0.55 50.82,0.43 L 50.37 0.43 L 49.37 0.21 C 47.88,0 46.38,0 44.94,0 L 44.94 0" fill="#FFFFFF" stroke="none" stroke-width="0.5"/>
  </g>
  <g transform="translate(1.00,1.00) scale(0.6100,0.6200)">
    <path d="M 13.25 85.19 C 8.75,77.31 6.4,68.42 6.42,59.38 C 6.43,50.34 8.79,41.44 13.27,33.55 C 17.76,25.65 24.23,19.01 32.06,14.26 C 39.89,9.51 48.83,6.8 58.02,6.4 C 67.22,6 76.37,7.91 84.6,11.96 C 89.91,12.77 95.09,14.27 100,16.41 C 88.72,5.78 73.6,0 57.98,0.33 C 42.36,0.65 27.51,7.06 16.7,18.15 C 5.89,29.23 0,44.09 0.33,59.44 C 0.67,74.79 7.19,89.38 18.47,100 C 16.08,95.31 14.32,90.33 13.25,85.19 L 13.25 85.19" fill="#2d5967" stroke="none" stroke-width="0.5"/>
  </g>
  <g transform="translate(10.00,10.00) scale(0.7300,0.7300)">
    <path d="M 50.34 0 C 40.56,0.03 31,2.95 22.88,8.4 C 14.76,13.86 8.43,21.59 4.7,30.63 C 0.97,39.68 0,49.62 1.92,59.22 C 3.83,68.81 8.54,77.62 15.46,84.54 C 22.38,91.46 31.19,96.17 40.78,98.08 C 50.38,100 60.32,99.03 69.36,95.3 C 78.41,91.57 86.14,85.24 91.6,77.12 C 97.05,69 99.97,59.44 100,49.66 C 100,36.49 94.77,23.86 85.45,14.55 C 76.14,5.23 63.51,0 50.34,0 L 50.34 0 M 50.34 94.88 C 41.36,94.88 32.59,92.22 25.12,87.23 C 17.66,82.24 11.84,75.15 8.41,66.85 C 4.98,58.56 4.08,49.43 5.83,40.63 C 7.58,31.83 11.91,23.74 18.26,17.39 C 24.61,11.05 32.7,6.73 41.5,4.98 C 50.31,3.23 59.43,4.13 67.73,7.57 C 76.02,11.01 83.11,16.83 88.09,24.3 C 93.07,31.77 95.73,40.54 95.72,49.52 C 95.71,61.55 90.92,73.08 82.41,81.59 C 73.9,90.09 62.37,94.87 50.34,94.88 L 50.34 94.88" fill="#2d5967" stroke="none" stroke-width="0.5"/>
  </g>
  <g transform="translate(38.00,19.00) scale(0.1600,0.5300)">
    <path d="M 100 84.66 L 87.13 80.68 L 59.19 89.25 L 59.19 10.75 L 87.13 19.32 L 100 15.34 L 50 0 L 0 15.34 L 12.99 19.32 L 40.93 10.75 L 40.93 89.25 L 12.99 80.68 L 0 84.66 L 50 100 L 100 84.66 L 100 84.66" fill="#2d5967" stroke="none" stroke-width="0.5"/>
  </g>
  <g transform="translate(20.00,38.00) scale(0.2500,0.1600)">
    <path d="M 67.25 100 L 100 50 L 67.25 0 L 58.75 12.87 L 77.05 40.81 L 0 40.81 L 0 59.07 L 77.05 59.07 L 58.75 87.01 L 67.25 100 L 67.25 100" fill="#2d5967" stroke="none" stroke-width="0.5"/>
  </g>
  <g transform="translate(48.00,38.00) scale(0.2500,0.1600)">
    <path d="M 100 40.81 L 23.03 40.81 L 41.25 12.87 L 32.83 0 L 0 50 L 32.83 100 L 41.25 87.01 L 23.03 59.07 L 100 59.07 L 100 40.81 L 100 40.81" fill="#2d5967" stroke="none" stroke-width="0.5"/>
  </g>
</svg>