<svg xmlns="http://www.w3.org/2000/svg" viewBox="0 0 84.0 142.00000000000014" width="84" height="142">
  <g transform="translate(8.00,1.00) scale(0.8200,0.8200)">
    <path d="M 94.71 0 L 5.29 0 C 2.37,0 0,2.37 0,5.29 L 0 94.71 C 0,97.63 2.37,100 5.29,100 L 94.71 100 C 97.63,100 100,97.63 100,94.71 L 100 5.29 C 100,2.37 97.63,0 94.71,0 L 94.71 0" fill="#FFFFFF" stroke="none" stroke-width="0.5"/>
  </g>
  <g transform="translate(7.00,0.00) scale(0.8400,0.8400)">
    <path d="M 93.64 2.38 C 94.7,2.38 95.71,2.8 96.45,3.55 C 97.2,4.29 97.62,5.3 97.62,6.36 L 97.62 93.64 C 97.62,94.7 97.2,95.71 96.45,96.46 C 95.71,97.2 94.7,97.62 93.64,97.62 L 6.36 97.62 C 5.3,97.62 4.29,97.2 3.55,96.46 C 2.8,95.71 2.38,94.7 2.38,93.64 L 2.38 6.36 C 2.38,5.3 2.8,4.29 3.55,3.55 C 4.29,2.8 5.3,2.38 6.36,2.38 L 93.64 2.38 L 93.64 2.38 M 93.64 0 L 6.36 0 C 4.67,0.01 3.06,0.68 1.87,1.87 C 0.68,3.06 0.01,4.67 0,6.36 L 0 93.64 C 0.01,95.33 0.68,96.94 1.87,98.13 C 3.06,99.32 4.67,99.99 6.36,100 L 93.64 100 C 95.33,99.99 96.94,99.32 98.13,98.13 C 99.32,96.94 99.99,95.33 100,93.64 L 100 6.36 C 99.99,4.67 99.32,3.06 98.13,1.87 C 96.94,0.68 95.33,0.01 93.64,0 L 93.64 0 L 93.64 0" fill="#FFFFFF" stroke="none" stroke-width="0.5"/>
  </g>
  <g transform="translate(9.00,2.00) scale(0.8000,0.8000)">
    <path d="M 95.82 0 L 4.18 0 C 3.07,0 2.01,0.44 1.22,1.22 C 0.44,2.01 0,3.07 0,4.17 L 0 95.82 C 0,96.93 0.44,97.99 1.22,98.78 C 2.01,99.56 3.07,100 4.18,100 L 95.82 100 C 96.93,100 97.99,99.56 98.78,98.78 C 99.56,97.99 100,96.93 100,95.82 L 100 4.17 C 100,3.07 99.56,2.01 98.78,1.22 C 97.99,0.44 96.93,0 95.82,0 L 95.82 0 M 96.3 95.82 C 96.29,95.95 96.24,96.07 96.15,96.15 C 96.07,96.24 95.95,96.29 95.82,96.3 L 4.18 96.3 C 4.05,96.29 3.93,96.24 3.85,96.15 C 3.76,96.07 3.71,95.95 3.7,95.82 L 3.7 4.17 C 3.71,4.05 3.76,3.93 3.85,3.85 C 3.93,3.76 4.05,3.71 4.18,3.7 L 95.82 3.7 C 95.95,3.71 96.07,3.76 96.15,3.85 C 96.24,3.93 96.29,4.05 96.3,4.17 L 96.3 95.82 L 96.3 95.82" fill="#2d5967" stroke="none" stroke-width="0.5"/>
  </g>
  <g transform="translate(13.00,7.00) scale(0.7000,0.7000)">
    <path d="M 50.48 0 C 40.68,0 31.11,2.9 22.97,8.35 C 14.82,13.79 8.48,21.52 4.73,30.57 C 0.98,39.62 0,49.58 1.91,59.18 C 3.82,68.79 8.54,77.61 15.46,84.54 C 22.39,91.46 31.21,96.18 40.82,98.09 C 50.42,100 60.38,99.02 69.43,95.27 C 78.48,91.52 86.21,85.18 91.65,77.03 C 97.1,68.89 100,59.31 100,49.52 C 99.99,36.39 94.76,23.8 85.48,14.52 C 76.2,5.24 63.61,0.02 50.48,0 L 50.48 0 M 50.48 94.83 C 41.52,94.83 32.76,92.17 25.31,87.19 C 17.86,82.22 12.05,75.14 8.62,66.86 C 5.19,58.58 4.29,49.47 6.04,40.68 C 7.79,31.89 12.1,23.82 18.44,17.48 C 24.78,11.14 32.85,6.83 41.64,5.08 C 50.43,3.33 59.54,4.23 67.82,7.66 C 76.1,11.09 83.18,16.9 88.15,24.35 C 93.13,31.8 95.79,40.56 95.79,49.52 C 95.74,61.52 90.95,73.02 82.46,81.5 C 73.97,89.99 62.48,94.78 50.48,94.83 L 50.48 94.83" fill="#2d5967" stroke="none" stroke-width="0.5"/>
  </g>
  <g transform="translate(41.00,16.00) scale(0.1600,0.5100)">
    <path d="M 59.16 88.91 L 59.16 11.05 L 87.13 19.88 L 100 15.78 L 50 0 L 0 15.78 L 12.87 19.88 L 40.84 11.05 L 40.84 88.91 L 12.87 80.13 L 0 84.23 L 50 100 L 100 84.23 L 87.13 80.13 L 59.16 88.91 L 59.16 88.91" fill="#2d5967" stroke="none" stroke-width="0.5"/>
  </g>
  <g transform="translate(50.00,34.00) scale(0.2400,0.1600)">
    <path d="M 42.52 12.87 L 33.83 0 L 0 50 L 33.83 100 L 42.52 87.13 L 23.72 59.16 L 100 59.16 L 100 40.84 L 23.72 40.84 L 42.52 12.87 L 42.52 12.87" fill="#2d5967" stroke="none" stroke-width="0.5"/>
  </g>
  <g transform="translate(23.00,34.00) scale(0.2400,0.1600)">
    <path d="M 66.19 0 L 57.51 12.87 L 76.29 40.84 L 0 40.84 L 0 59.16 L 76.29 59.16 L 57.51 87.13 L 66.19 100 L 100 50 L 66.19 0 L 66.19 0" fill="#2d5967" stroke="none" stroke-width="0.5"/>
  </g>
</svg>