<svg xmlns="http://www.w3.org/2000/svg" viewBox="0 0 47.0 129.0000000000001" width="47" height="129">
  <g transform="translate(30.00,1.00) scale(0.4500,0.8200)">
    <path d="M 90.83 0 L 9.15 0 C 4.11,0 0,2.24 0,5 L 0 95 C 0,97.76 4.11,100 9.15,100 L 90.83 100 C 95.89,100 100,97.76 100,95 L 100 5 C 100,2.24 95.89,0 90.83,0 L 90.83 0" fill="#FFFFFF" stroke="none" stroke-width="0.5"/>
  </g>
  <g transform="translate(29.00,0.00) scale(0.4700,0.8400)">
    <path d="M 89.09 2.38 C 90.86,2.39 92.52,2.78 93.78,3.47 C 95.01,4.16 95.71,5.09 95.73,6.07 L 95.73 93.93 C 95.71,94.91 95.01,95.84 93.78,96.53 C 92.52,97.22 90.86,97.61 89.09,97.62 L 10.89 97.62 C 9.14,97.61 7.48,97.22 6.22,96.53 C 4.99,95.84 4.29,94.91 4.27,93.93 L 4.27 6.07 C 4.29,5.09 4.99,4.16 6.22,3.47 C 7.48,2.78 9.14,2.39 10.89,2.38 L 89.09 2.38 L 89.09 2.38 M 89.09 0 L 10.89 0 C 8.02,0 5.23,0.64 3.19,1.78 C 1.15,2.92 0,4.46 0,6.07 L 0 93.93 C 0,94.73 0.27,95.52 0.83,96.25 C 1.37,96.99 2.18,97.66 3.19,98.22 C 4.2,98.79 5.41,99.23 6.74,99.54 C 8.06,99.84 9.48,100 10.89,100 L 89.09 100 C 91.98,100 94.77,99.36 96.81,98.22 C 98.85,97.08 100,95.54 100,93.93 L 100 6.07 C 100,4.46 98.85,2.92 96.81,1.78 C 94.77,0.64 91.98,0 89.09,0 L 89.09 0 L 89.09 0" fill="#FFFFFF" stroke="none" stroke-width="0.5"/>
  </g>
  <g transform="translate(31.00,2.00) scale(0.4300,0.8000)">
    <path d="M 92.73 0 L 7.27 0 C 5.33,0.01 3.51,0.42 2.14,1.14 C 0.79,1.87 0.02,2.85 0,3.88 L 0 96.12 C 0.02,97.15 0.79,98.13 2.14,98.86 C 3.51,99.58 5.33,99.99 7.27,100 L 92.73 100 C 94.67,99.99 96.49,99.58 97.86,98.86 C 99.21,98.13 99.98,97.15 100,96.12 L 100 3.88 C 99.98,2.85 99.21,1.87 97.86,1.14 C 96.49,0.42 94.67,0.01 92.73,0 L 92.73 0 M 93.54 96.12 C 93.52,96.24 93.44,96.34 93.3,96.42 C 93.15,96.5 92.95,96.54 92.73,96.55 L 7.27 96.55 C 7.05,96.54 6.85,96.5 6.7,96.42 C 6.56,96.34 6.48,96.24 6.46,96.12 L 6.46 3.88 C 6.48,3.76 6.56,3.66 6.7,3.58 C 6.85,3.5 7.05,3.46 7.27,3.45 L 92.73 3.45 C 92.95,3.46 93.15,3.5 93.3,3.58 C 93.44,3.66 93.52,3.76 93.54,3.88 L 93.54 96.12 L 93.54 96.12" fill="#2d5967" stroke="none" stroke-width="0.5"/>
  </g>
  <g transform="translate(35.00,6.00) scale(0.3300,0.1200)">
    <path d="M 0 100 L 100 100 L 100 0 L 0 0 L 0 100 L 0 100 M 8.32 22.22 L 91.52 22.22 L 91.52 77.78 L 8.32 77.78 L 8.32 22.22 L 8.32 22.22" fill="#2d5967" stroke="none" stroke-width="0.5"/>
  </g>
  <g transform="translate(61.00,11.00) scale(0.0200,0.0200)">
    <path d="M 50 100 C 77.86,100 100,77.61 100,50 C 100,22.38 77.86,0 50,0 C 22.14,0 0,22.38 0,50 C 0,77.61 22.14,100 50,100 L 50 100" fill="#2d5967" stroke="none" stroke-width="0.5"/>
  </g>
  <g transform="translate(35.00,21.00) scale(0.3300,0.1200)">
    <path d="M 0 100 L 100 100 L 100 0 L 0 0 L 0 100 L 0 100 M 8.32 21.61 L 91.52 21.61 L 91.52 77.26 L 8.32 77.26 L 8.32 21.61 L 8.32 21.61" fill="#2d5967" stroke="none" stroke-width="0.5"/>
  </g>
  <g transform="translate(61.00,26.00) scale(0.0200,0.0200)">
    <path d="M 50 100 C 77.86,100 100,77.61 100,50 C 100,22.39 77.86,0 50,0 C 22.14,0 0,22.39 0,50 C 0,77.61 22.14,100 50,100 L 50 100" fill="#2d5967" stroke="none" stroke-width="0.5"/>
  </g>
  <g transform="translate(35.00,36.00) scale(0.3300,0.1200)">
    <path d="M 0 100 L 100 100 L 100 0 L 0 0 L 0 100 L 0 100 M 8.32 22.26 L 91.52 22.26 L 91.52 77.74 L 8.32 77.74 L 8.32 22.26 L 8.32 22.26" fill="#2d5967" stroke="none" stroke-width="0.5"/>
  </g>
  <g transform="translate(61.00,40.00) scale(0.0200,0.0200)">
    <path d="M 50 100 C 77.86,100 100,77.62 100,50 C 100,22.38 77.86,0 50,0 C 22.14,0 0,22.38 0,50 C 0,77.62 22.14,100 50,100 L 50 100" fill="#2d5967" stroke="none" stroke-width="0.5"/>
  </g>
  <g transform="translate(35.00,50.00) scale(0.3300,0.1200)">
    <path d="M 0 100 L 100 100 L 100 0 L 0 0 L 0 100 L 0 100 M 8.32 22.26 L 91.52 22.26 L 91.52 78.38 L 8.32 78.38 L 8.32 22.26 L 8.32 22.26" fill="#2d5967" stroke="none" stroke-width="0.5"/>
  </g>
  <g transform="translate(61.00,55.00) scale(0.0200,0.0200)">
    <path d="M 50 100 C 77.86,100 100,77.6 100,49.98 C 100,22.4 77.86,0 50,0 C 22.14,0 0,22.4 0,49.98 C 0,77.6 22.14,100 50,100 L 50 100" fill="#2d5967" stroke="none" stroke-width="0.5"/>
  </g>
  <g transform="translate(35.00,65.00) scale(0.3300,0.1200)">
    <path d="M 0 100 L 100 100 L 100 0 L 0 0 L 0 100 L 0 100 M 8.32 22.23 L 91.52 22.23 L 91.52 77.77 L 8.32 77.77 L 8.32 22.23 L 8.32 22.23" fill="#2d5967" stroke="none" stroke-width="0.5"/>
  </g>
  <g transform="translate(61.00,70.00) scale(0.0200,0.0200)">
    <path d="M 50 100 C 77.86,100 100,77.6 100,50.02 C 100,22.4 77.86,0 50,0 C 22.14,0 0,22.4 0,50.02 C 0,77.6 22.14,100 50,100 L 50 100" fill="#2d5967" stroke="none" stroke-width="0.5"/>
  </g>
</svg>