<svg xmlns="http://www.w3.org/2000/svg" viewBox="0 0 84.0 104.0000000000001" width="84" height="104">
  <g transform="translate(0.00,0.00) scale(0.8200,0.7800)">
    <path d="M 47.13 100 C 21.15,100 0,77.56 0,50 C 0,22.44 21.15,0 47.13,0 C 69.89,0 89.43,17.07 93.56,40.98 C 97.24,42.2 100,45.85 100,50.24 C 100,54.63 97.47,58.05 93.56,59.51 C 89.43,82.93 70.11,100 47.13,100 L 47.13 100" fill="#FFFFFF" stroke="none" stroke-width="0.5"/>
  </g>
  <g transform="translate(0.00,0.00) scale(0.8400,0.7900)">
    <path d="M 47.3 2.38 C 69.6,2.38 88.06,19.52 91.67,41.9 C 95.05,42.86 97.75,45.95 97.75,50 C 97.75,53.81 95.05,57.14 91.67,58.1 C 88.29,80.48 69.6,97.62 47.3,97.62 C 22.52,97.62 2.25,76.19 2.25,50 C 2.25,23.81 22.52,2.38 47.3,2.38 L 47.3 2.38 M 47.3 0 C 21.17,0 0,22.38 0,50 C 0,77.62 21.17,100 47.3,100 C 70.05,100 89.41,83.1 93.69,59.76 C 97.52,58.1 100,54.29 100,50 C 100,45.71 97.3,41.67 93.69,40.24 C 89.41,16.9 70.05,0 47.3,0 L 47.3 0" fill="#FFFFFF" stroke="none" stroke-width="0.5"/>
  </g>
  <g transform="translate(1.00,1.00) scale(0.8000,0.7600)">
    <path d="M 100 50 C 100,46 97.18,42.5 93.65,41.5 C 89.88,18 70.35,0 47.06,0 C 21.18,0 0,22.5 0,50 C 0,77.5 21.18,100 47.06,100 C 70.35,100 89.65,82 93.41,58.5 C 97.18,57.5 100,54 100,50 L 100 50 M 91.76 54.5 C 89.41,54.5 87.53,52.5 87.53,50 C 87.53,47.5 89.41,45.5 91.76,45.5 C 94.12,45.5 96,47.5 96,50 C 96,52.5 94.12,54.5 91.76,54.5 L 91.76 54.5 M 89.65 41.75 C 86.82,42.5 84.71,45 84,48 L 65.88 48 C 65.88,43.75 65.41,39.75 64.71,35.75 C 68.47,34 71.29,30 71.29,25.25 C 71.29,19 66.35,13.75 60.47,13.75 C 59.29,13.75 58.35,14 57.41,14.25 C 55.76,11 53.88,7.75 51.53,4.75 C 70.59,6.5 86.12,22 89.65,41.75 L 89.65 41.75 M 33.88 65.25 C 39.76,63.75 44.23,58.5 44.94,52.25 L 61.88 52.25 C 61.41,67.75 56.24,82.75 47.06,94.75 C 40.47,86 36,76 33.88,65.25 L 33.88 65.25 M 19.53 50 C 19.53,43.75 24.47,38.5 30.35,38.5 C 36.24,38.5 41.18,43.75 41.18,50 C 41.18,56.25 36.24,61.5 30.35,61.5 C 24.47,61.5 19.53,56.25 19.53,50 L 19.53 50 M 44.94 48 C 44.23,41.5 39.53,36.25 33.65,35 C 35.77,24.25 40.47,14.25 46.82,5.5 C 49.41,8.75 51.53,12.5 53.41,16 C 50.82,18 49.18,21.5 49.18,25 C 49.18,31.25 54.12,36.5 60,36.5 L 60.24 36.5 C 60.94,40.25 61.41,44 61.41,48 L 44.94 48 L 44.94 48 M 60.47 17.75 C 64.23,17.75 67.29,21 67.29,25 C 67.29,29 64.23,32.25 60.47,32.25 C 56.71,32.25 53.65,29 53.65,25 C 53.65,21 56.47,17.75 60.47,17.75 L 60.47 17.75 M 42.82 4.5 C 36.47,13.5 32,23.5 29.88,34.5 C 22.59,34.75 16.71,40.5 15.76,48 L 4 48 C 4.94,25.25 21.65,6.75 42.82,4.5 L 42.82 4.5 M 4 52 L 15.76 52 C 16.71,59.5 22.59,65.25 29.88,65.5 C 32,76.25 36.47,86.5 42.82,95.5 C 21.65,93.25 4.94,74.75 4,52 L 4 52 M 51.53 95.5 C 60.47,83 65.41,67.75 65.88,52 L 84 52 C 84.71,55 86.82,57.25 89.65,58.25 C 86.12,78 70.59,93.5 51.53,95.5 L 51.53 95.5" fill="#2d5967" stroke="none" stroke-width="0.5"/>
  </g>
</svg>