<svg xmlns="http://www.w3.org/2000/svg" viewBox="0 0 84.0 102.00000000000014" width="84" height="102">
  <g transform="translate(12.00,8.00) scale(0.5900,0.5900)">
    <path d="M 50 100 C 77.62,100 100,77.61 100,50 C 100,22.39 77.62,0 50,0 C 22.39,0 0,22.39 0,50 C 0,77.61 22.39,100 50,100 L 50 100" fill="#FFFFFF" stroke="none" stroke-width="0.5"/>
  </g>
  <g transform="translate(11.00,8.00) scale(0.6100,0.6100)">
    <path d="M 50.15 3.05 C 75.99,3.05 96.96,24.09 96.96,50 C 96.96,75.91 75.99,96.95 50.15,96.95 C 24.31,96.95 3.04,75.91 3.04,50 C 3.04,24.09 24.31,3.05 50.15,3.05 L 50.15 3.05 M 50.15 0 C 22.49,0 0,22.26 0,50 C 0,77.74 22.49,100 49.84,100 C 77.51,100 99.69,77.44 99.69,50 C 100,22.26 77.51,0 50.15,0 L 50.15 0" fill="#FFFFFF" stroke="none" stroke-width="0.5"/>
  </g>
  <g transform="translate(0.00,32.00) scale(0.4200,0.4300)">
    <path d="M 98.24 100 C 52.66,100 14.59,67.66 8.41,24.68 C 3.54,22.55 0,17.87 0,12.77 C 0,5.96 6.2,0 13.28,0 C 20.34,0 26.54,5.96 26.54,12.77 C 26.54,17.45 23.88,21.28 19.91,23.83 C 25.67,60.85 58.86,88.51 97.79,88.51 L 100 88.51 L 100 100 L 98.24 100 L 98.24 100" fill="#FFFFFF" stroke="none" stroke-width="0.5"/>
  </g>
  <g transform="translate(0.00,32.00) scale(0.4400,0.4500)">
    <path d="M 14.77 4.08 C 20.67,4.08 25.31,8.57 25.31,14.29 C 25.31,18.37 22.8,22.04 18.99,23.67 C 23.64,60.41 56.54,88.98 95.79,88.98 L 95.79 95.92 C 52.32,95.92 16.88,64.49 11.81,24.08 C 7.59,22.86 4.21,18.78 4.21,14.29 C 4.21,8.57 8.86,4.08 14.77,4.08 L 14.77 4.08 M 14.77 0 C 6.75,0 0,6.53 0,14.29 C 0,19.59 3.38,24.49 8.02,26.94 C 14.34,68.57 51.48,100 95.79,100 L 100 100 L 100 95.92 L 100 88.98 L 100 84.9 L 95.79 84.9 C 59.91,84.9 29.53,59.59 23.64,25.71 C 27.01,23.27 29.53,18.78 29.53,14.29 C 29.53,6.53 22.8,0 14.77,0 L 14.77 0" fill="#FFFFFF" stroke="none" stroke-width="0.5"/>
  </g>
  <g transform="translate(40.00,0.00) scale(0.4200,0.4300)">
    <path d="M 86.72 100 C 79.21,100 73.46,94.04 73.46,87.23 C 73.46,82.55 76.12,78.72 80.09,76.17 C 74.33,39.15 41.14,11.49 2.21,11.49 L 0 11.49 L 0 0 L 2.21 0 C 47.79,0 85.84,32.34 92.04,75.32 C 96.91,77.45 100,82.13 100,87.23 C 100,94.04 94.25,100 86.72,100 L 86.72 100" fill="#FFFFFF" stroke="none" stroke-width="0.5"/>
  </g>
  <g transform="translate(40.00,0.00) scale(0.4400,0.4500)">
    <path d="M 4.21 4.08 C 47.27,4.08 83.12,35.51 88.19,75.92 C 92.41,77.14 95.79,81.22 95.79,85.71 C 95.79,91.43 91.14,95.92 85.23,95.92 C 79.33,95.92 74.69,91.43 74.69,85.71 C 74.69,81.63 77.23,77.96 81.01,76.33 C 76.36,39.59 43.46,11.02 4.21,11.02 L 4.21 4.08 L 4.21 4.08 M 4.21 0 L 0 0 L 0 4.08 L 0 11.02 L 0 15.1 L 4.21 15.1 C 40.09,15.1 70.47,40.41 76.36,74.29 C 72.58,76.73 70.47,81.22 70.47,85.71 C 70.47,93.47 77.23,100 85.23,100 C 93.25,100 100,93.47 100,85.71 C 100,80.41 96.62,75.51 91.98,73.06 C 85.23,31.43 48.11,0 4.21,0 L 4.21 0" fill="#FFFFFF" stroke="none" stroke-width="0.5"/>
  </g>
  <g transform="translate(12.00,9.00) scale(0.5700,0.5700)">
    <path d="M 50.16 0 C 22.64,0 0,22.4 0,50 C 0,77.6 22.33,100 49.84,100 C 77.34,100 100,77.6 100,50 C 100,22.4 77.67,0 50.16,0 L 50.16 0 M 94.49 47.4 L 70.23 47.4 C 69.57,32.47 64.72,17.86 55.98,5.84 C 77.02,8.44 93.2,25.97 94.49,47.4 L 94.49 47.4 M 35.28 52.6 L 64.72 52.6 C 64.08,67.21 58.9,81.49 49.84,93.18 C 41.1,81.49 35.92,67.53 35.28,52.6 L 35.28 52.6 M 35.28 47.4 C 35.92,32.79 41.1,18.51 50.16,6.82 C 59.23,18.51 64.41,32.47 65.05,47.4 L 35.28 47.4 L 35.28 47.4 M 44 5.84 C 35.28,17.86 30.41,32.47 29.77,47.4 L 5.51 47.4 C 6.8,25.97 23.31,8.44 44,5.84 L 44 5.84 M 5.51 52.6 L 29.77 52.6 C 30.41,67.53 35.28,82.14 44,94.16 C 23.31,91.56 6.8,74.03 5.51,52.6 L 5.51 52.6 M 55.98 94.16 C 64.72,82.14 69.57,67.53 70.23,52.6 L 94.49 52.6 C 93.2,74.03 77.02,91.56 55.98,94.16 L 55.98 94.16" fill="#2d5967" stroke="none" stroke-width="0.5"/>
  </g>
  <g transform="translate(1.00,33.00) scale(0.4000,0.4100)">
    <path d="M 16.13 21.33 C 20.29,19.56 23.04,15.56 23.04,11.11 C 23.04,4.89 17.99,0 11.53,0 C 5.07,0 0,4.89 0,11.11 C 0,16 3.69,20.44 8.29,21.78 C 13.83,65.78 52.54,100 100,100 L 100 92.44 C 56.69,92.44 21.21,61.33 16.13,21.33 L 16.13 21.33 M 11.53 7.56 C 13.83,7.56 15.22,9.33 15.22,11.11 C 15.22,12.89 13.83,14.67 11.53,14.67 C 9.23,14.67 7.85,13.33 7.85,11.11 C 7.85,8.89 9.23,7.56 11.53,7.56 L 11.53 7.56" fill="#2d5967" stroke="none" stroke-width="0.5"/>
  </g>
  <g transform="translate(41.00,1.00) scale(0.4000,0.4100)">
    <path d="M 91.67 78.22 C 86.13,34.22 47.24,0 0,0 L 0 7.56 C 43.06,7.56 79.19,38.67 84.26,78.67 C 80.11,80.44 76.85,84.44 76.85,88.89 C 76.85,95.11 81.95,100 88.44,100 C 94.93,100 100,95.11 100,88.89 C 100,84 96.77,79.56 91.67,78.22 L 91.67 78.22 M 88.44 92.44 C 86.13,92.44 84.73,90.67 84.73,88.89 C 84.73,87.11 86.57,85.33 88.44,85.33 C 90.75,85.33 92.14,87.11 92.14,88.89 C 92.14,90.67 90.75,92.44 88.44,92.44 L 88.44 92.44" fill="#2d5967" stroke="none" stroke-width="0.5"/>
  </g>
</svg>