<svg xmlns="http://www.w3.org/2000/svg" viewBox="0 0 84.0 129.0000000000001" width="84" height="129">
  <g transform="translate(1.00,1.00) scale(0.8200,0.8200)">
    <path d="M 94.7 0 L 5.3 0 C 2.37,0 0,2.37 0,5.29 L 0 94.71 C 0,97.63 2.37,100 5.3,100 L 94.7 100 C 97.63,100 100,97.63 100,94.71 L 100 5.29 C 100,2.37 97.63,0 94.7,0 L 94.7 0" fill="#FFFFFF" stroke="none" stroke-width="0.5"/>
  </g>
  <g transform="translate(0.00,0.00) scale(0.8400,0.8400)">
    <path d="M 93.64 2.38 C 94.7,2.38 95.71,2.8 96.45,3.55 C 97.2,4.29 97.62,5.3 97.62,6.36 L 97.62 93.64 C 97.62,94.7 97.2,95.71 96.45,96.46 C 95.71,97.2 94.7,97.62 93.64,97.62 L 6.36 97.62 C 5.3,97.62 4.29,97.2 3.55,96.46 C 2.8,95.71 2.37,94.7 2.37,93.64 L 2.37 6.36 C 2.37,5.3 2.8,4.29 3.55,3.55 C 4.29,2.8 5.3,2.38 6.36,2.38 L 93.64 2.38 L 93.64 2.38 M 93.64 0 L 6.36 0 C 4.68,0.01 3.06,0.68 1.88,1.87 C 0.67,3.06 0.01,4.67 0,6.36 L 0 93.64 C 0.01,95.33 0.67,96.94 1.88,98.13 C 3.06,99.32 4.68,99.99 6.36,100 L 93.64 100 C 95.32,99.99 96.94,99.32 98.12,98.13 C 99.33,96.94 99.99,95.33 100,93.64 L 100 6.36 C 99.99,4.67 99.33,3.06 98.12,1.87 C 96.94,0.68 95.32,0.01 93.64,0 L 93.64 0 L 93.64 0" fill="#FFFFFF" stroke="none" stroke-width="0.5"/>
  </g>
  <g transform="translate(2.00,2.00) scale(0.8000,0.8000)">
    <path d="M 95.81 0 L 4.17 0 C 3.06,0 2,0.44 1.22,1.22 C 0.43,2.01 0,3.07 0,4.17 L 0 95.82 C 0,96.93 0.43,97.99 1.22,98.78 C 2,99.56 3.06,100 4.17,100 L 95.81 100 C 96.93,100 97.99,99.56 98.77,98.78 C 99.55,97.99 100,96.93 100,95.82 L 100 4.17 C 100,3.07 99.55,2.01 98.77,1.22 C 97.99,0.44 96.93,0 95.81,0 L 95.81 0 M 96.3 95.82 C 96.29,95.95 96.23,96.07 96.15,96.15 C 96.06,96.24 95.94,96.29 95.81,96.3 L 4.17 96.3 C 4.04,96.29 3.92,96.24 3.85,96.15 C 3.75,96.07 3.7,95.95 3.69,95.82 L 3.69 4.17 C 3.7,4.05 3.75,3.93 3.85,3.85 C 3.92,3.76 4.04,3.71 4.17,3.7 L 95.81 3.7 C 95.94,3.71 96.06,3.76 96.15,3.85 C 96.23,3.93 96.29,4.05 96.3,4.17 L 96.3 95.82 L 96.3 95.82" fill="#2d5967" stroke="none" stroke-width="0.5"/>
  </g>
  <g transform="translate(37.00,42.00) scale(0.3900,0.1700)">
    <path d="M 73.24 12.43 L 85.4 40.71 L 0 40.71 L 0 58.23 L 85.85 58.23 L 73.24 87.57 L 78.56 100 L 100 49.94 L 78.56 0 L 73.24 12.43 L 73.24 12.43" fill="#2d5967" stroke="none" stroke-width="0.5"/>
  </g>
  <g transform="translate(8.00,59.00) scale(0.3900,0.1700)">
    <path d="M 26.65 12.41 L 21.34 0 L 0 50 L 21.34 100 L 26.65 87.59 L 14 58.04 L 100 58.04 L 100 40.54 L 14.62 40.54 L 26.65 12.41 L 26.65 12.41" fill="#2d5967" stroke="none" stroke-width="0.5"/>
  </g>
  <g transform="translate(37.00,8.00) scale(0.3900,0.1700)">
    <path d="M 73.24 12.43 L 85.56 41.06 L 0 41.06 L 0 58.58 L 85.72 58.58 L 73.24 87.69 L 78.56 100 L 100 50.06 L 78.56 0 L 73.24 12.43 L 73.24 12.43" fill="#2d5967" stroke="none" stroke-width="0.5"/>
  </g>
  <g transform="translate(8.00,25.00) scale(0.3900,0.1700)">
    <path d="M 26.65 87.59 L 14.16 58.39 L 100 58.39 L 100 40.9 L 14.46 40.9 L 26.65 12.41 L 21.34 0 L 0 50 L 21.34 100 L 26.65 87.59 L 26.65 87.59" fill="#2d5967" stroke="none" stroke-width="0.5"/>
  </g>
</svg>