<svg xmlns="http://www.w3.org/2000/svg" viewBox="0 0 84.0 109.0000000000001" width="84" height="109">
  <g transform="translate(1.00,1.00) scale(0.8200,0.8200)">
    <path d="M 62.93 100 L 62.93 62.93 L 77.8 62.93 L 77.8 53.17 L 21.7 53.17 L 21.7 62.93 L 37.07 62.93 L 37.07 100 L 0 100 L 0 62.93 L 15.36 62.93 L 15.36 53.17 L 0 53.17 L 0 46.83 L 46.82 46.83 L 46.82 37.07 L 31.22 37.07 L 31.22 0 L 68.3 0 L 68.3 37.07 L 53.18 37.07 L 53.18 46.83 L 100 46.83 L 100 53.17 L 84.15 53.17 L 84.15 62.93 L 100 62.93 L 100 100 L 62.93 100 L 62.93 100" fill="#FFFFFF" stroke="none" stroke-width="0.5"/>
  </g>
  <g transform="translate(0.00,0.00) scale(0.8400,0.8400)">
    <path d="M 66.66 2.38 L 66.66 36.19 L 52.14 36.19 L 52.14 48.1 L 97.62 48.1 L 97.62 52.14 L 82.14 52.14 L 82.14 64.05 L 97.62 64.05 L 97.62 97.62 L 63.81 97.62 L 63.81 63.81 L 78.1 63.81 L 78.1 51.9 L 21.19 51.9 L 21.19 63.81 L 35.95 63.81 L 35.95 97.62 L 2.37 97.62 L 2.37 63.81 L 17.14 63.81 L 17.14 51.9 L 2.37 51.9 L 2.37 47.86 L 48.1 47.86 L 48.1 35.95 L 32.86 35.95 L 32.86 2.38 L 66.66 2.38 L 66.66 2.38 M 69.05 0 L 66.66 0 L 32.86 0 L 30.48 0 L 30.48 2.38 L 30.48 36.19 L 30.48 38.57 L 32.86 38.57 L 45.48 38.57 L 45.48 45.71 L 2.37 45.71 L 0 45.71 L 0 48.1 L 0 52.14 L 0 54.52 L 2.37 54.52 L 14.76 54.52 L 14.76 61.67 L 2.37 61.67 L 0 61.67 L 0 64.05 L 0 97.62 L 0 100 L 2.37 100 L 36.19 100 L 38.57 100 L 38.57 97.62 L 38.57 63.81 L 38.57 61.43 L 36.19 61.43 L 23.57 61.43 L 23.57 54.29 L 75.95 54.29 L 75.95 61.43 L 64.05 61.43 L 61.66 61.43 L 61.66 63.81 L 61.66 97.62 L 61.66 100 L 64.05 100 L 97.62 100 L 100 100 L 100 97.62 L 100 63.81 L 100 61.43 L 97.62 61.43 L 84.52 61.43 L 84.52 54.29 L 97.62 54.29 L 100 54.29 L 100 51.9 L 100 47.86 L 100 45.48 L 97.62 45.48 L 54.29 45.48 L 54.29 38.33 L 66.66 38.33 L 69.05 38.33 L 69.05 35.95 L 69.05 2.38 L 69.05 0 L 69.05 0" fill="#FFFFFF" stroke="none" stroke-width="0.5"/>
  </g>
  <g transform="translate(2.00,2.00) scale(0.8000,0.8000)">
    <path d="M 100 52 L 100 47.75 L 51.99 47.75 L 51.99 35.25 L 67.49 35.25 L 67.49 0 L 32.01 0 L 32.01 35.5 L 47.76 35.5 L 47.76 48 L 0 48 L 0 52.25 L 15.5 52.25 L 15.5 64.75 L 0 64.75 L 0 100 L 35.5 100 L 35.5 64.5 L 19.75 64.5 L 19.75 52 L 79.75 52 L 79.75 64.5 L 64.75 64.5 L 64.75 100 L 100 100 L 100 64.5 L 83.74 64.5 L 83.74 52 L 100 52 L 100 52 M 31.25 68.75 L 31.25 95.75 L 4.25 95.75 L 4.25 68.75 L 31.25 68.75 L 31.25 68.75 M 36.25 31.25 L 36.25 4.25 L 63.25 4.25 L 63.25 31.25 L 36.25 31.25 L 36.25 31.25 M 95.75 68.75 L 95.75 95.75 L 68.75 95.75 L 68.75 68.75 L 95.75 68.75 L 95.75 68.75" fill="#2d5967" stroke="none" stroke-width="0.5"/>
  </g>
</svg>