<svg xmlns="http://www.w3.org/2000/svg" viewBox="0 0 84.0 125.00000000000001" width="84" height="125">
  <g transform="translate(8.00,1.00) scale(0.8200,0.7900)">
    <path d="M 72.2 99.81 C 68.96,99.81 65.83,98.65 63.32,96.53 C 60.81,94.42 59.08,91.47 58.41,88.19 L 41.74 88.19 C 41.26,90.57 40.21,92.8 38.68,94.66 C 37.16,96.52 35.21,97.95 33.02,98.83 C 30.82,99.71 28.45,100 26.12,99.68 C 23.78,99.36 21.57,98.44 19.66,97.01 C 17.76,95.57 16.24,93.66 15.23,91.46 C 14.22,89.25 13.76,86.82 13.89,84.38 C 14.01,81.95 14.73,79.58 15.97,77.5 C 17.2,75.43 18.92,73.7 20.96,72.49 L 15.82 56.07 C 15.31,56.11 14.8,56.11 14.29,56.07 C 12.01,56.07 9.75,55.5 7.73,54.4 C 5.7,53.3 3.96,51.7 2.66,49.75 C 1.37,47.8 0.54,45.55 0.27,43.19 C 0,40.83 0.28,38.44 1.1,36.23 C 1.92,34.01 3.24,32.03 4.96,30.47 C 6.68,28.9 8.74,27.79 10.96,27.24 C 13.19,26.68 15.51,26.69 17.72,27.28 C 19.94,27.86 21.98,28.99 23.69,30.58 L 37.23 20.61 C 36.42,18.73 35.99,16.69 35.99,14.62 C 35.99,10.74 37.47,7.02 40.12,4.28 C 42.76,1.54 46.34,0 50.08,0 C 53.81,0 57.4,1.54 60.04,4.28 C 62.68,7.02 64.17,10.74 64.17,14.62 C 64.17,16.69 63.76,18.73 62.95,20.61 L 76.52 30.68 C 79.08,28.24 82.43,26.88 85.91,26.88 C 89.65,26.88 93.23,28.42 95.87,31.16 C 98.52,33.9 100,37.62 100,41.5 C 100,45.38 98.52,49.09 95.87,51.84 C 93.23,54.58 89.65,56.12 85.91,56.12 C 85.42,56.12 84.9,56.12 84.41,56.12 L 79.24 72.54 C 81.94,74.14 84.06,76.63 85.26,79.61 C 86.46,82.59 86.67,85.9 85.86,89.02 C 85.06,92.14 83.28,94.89 80.81,96.85 C 78.34,98.81 75.31,99.87 72.2,99.86 L 72.2 99.81 L 72.2 99.81" fill="#FFFFFF" stroke="none" stroke-width="0.5"/>
  </g>
  <g transform="translate(8.00,0.00) scale(0.8400,0.8100)">
    <path d="M 49.69 2.37 C 51.86,2.38 53.98,2.97 55.87,4.09 C 57.75,5.21 59.32,6.82 60.43,8.76 C 61.54,10.7 62.14,12.91 62.19,15.17 C 62.24,17.43 61.73,19.66 60.7,21.65 L 75.28 32.72 C 76.71,31.16 78.48,29.99 80.45,29.32 C 82.41,28.65 84.51,28.5 86.54,28.89 C 88.57,29.27 90.48,30.17 92.1,31.52 C 93.72,32.86 94.99,34.6 95.81,36.58 C 96.63,38.56 96.96,40.72 96.78,42.87 C 96.6,45.02 95.92,47.09 94.78,48.9 C 93.65,50.7 92.11,52.18 90.29,53.21 C 88.47,54.24 86.44,54.79 84.37,54.8 C 83.61,54.81 82.85,54.74 82.1,54.61 L 76.53 72.53 C 78.48,73.51 80.15,75.01 81.38,76.86 C 82.61,78.72 83.36,80.88 83.55,83.13 C 83.75,85.38 83.38,87.64 82.48,89.7 C 81.58,91.76 80.19,93.54 78.44,94.86 C 76.69,96.19 74.64,97.02 72.49,97.27 C 70.34,97.52 68.16,97.19 66.17,96.3 C 64.18,95.41 62.45,94 61.14,92.2 C 59.83,90.4 58.99,88.28 58.7,86.04 L 40.64 86.04 C 40.35,88.28 39.51,90.4 38.19,92.2 C 36.88,93.99 35.14,95.41 33.15,96.29 C 31.16,97.18 28.99,97.51 26.84,97.26 C 24.69,97 22.64,96.17 20.89,94.84 C 19.14,93.51 17.75,91.73 16.85,89.67 C 15.96,87.61 15.59,85.35 15.79,83.1 C 15.99,80.85 16.74,78.69 17.97,76.83 C 19.21,74.98 20.88,73.49 22.83,72.51 L 17.26 54.61 C 16.51,54.75 15.75,54.82 14.99,54.82 C 12.91,54.82 10.88,54.28 9.05,53.25 C 7.23,52.22 5.68,50.73 4.54,48.93 C 3.4,47.12 2.71,45.04 2.53,42.89 C 2.35,40.73 2.68,38.56 3.5,36.57 C 4.32,34.59 5.59,32.84 7.22,31.5 C 8.84,30.15 10.76,29.24 12.8,28.86 C 14.84,28.48 16.94,28.63 18.91,29.3 C 20.88,29.98 22.66,31.15 24.09,32.72 L 38.66 21.65 C 37.64,19.66 37.12,17.42 37.17,15.16 C 37.22,12.9 37.83,10.69 38.94,8.75 C 40.05,6.81 41.63,5.2 43.51,4.08 C 45.4,2.96 47.53,2.38 49.69,2.37 L 49.69 2.37 M 49.69 0 C 45.77,0 42.01,1.63 39.23,4.52 C 36.46,7.41 34.89,11.34 34.89,15.43 C 34.89,17.29 35.21,19.13 35.84,20.87 L 24.22 29.65 C 22.37,28.11 20.2,27.06 17.88,26.58 C 15.56,26.1 13.16,26.2 10.89,26.89 C 8.61,27.57 6.53,28.82 4.81,30.51 C 3.1,32.21 1.79,34.31 1.01,36.64 C 0.23,38.98 0,41.47 0.33,43.91 C 0.67,46.36 1.55,48.68 2.92,50.7 C 4.3,52.71 6.11,54.35 8.21,55.48 C 10.31,56.61 12.65,57.2 15.01,57.19 L 15.67 57.19 L 20.22 71.44 C 18.23,72.82 16.59,74.67 15.43,76.86 C 14.28,79.04 13.65,81.48 13.6,83.97 C 13.54,86.46 14.07,88.93 15.13,91.16 C 16.19,93.4 17.75,95.33 19.68,96.79 C 21.62,98.26 23.86,99.21 26.22,99.58 C 28.58,99.94 30.99,99.7 33.25,98.88 C 35.5,98.06 37.53,96.68 39.16,94.86 C 40.79,93.04 41.98,90.84 42.62,88.44 L 56.95 88.44 C 57.58,90.85 58.77,93.06 60.4,94.89 C 62.03,96.72 64.06,98.1 66.32,98.93 C 68.58,99.76 71,100 73.37,99.64 C 75.74,99.28 77.99,98.32 79.92,96.85 C 81.86,95.38 83.43,93.45 84.49,91.21 C 85.55,88.97 86.08,86.49 86.02,83.99 C 85.97,81.5 85.34,79.05 84.18,76.86 C 83.02,74.68 81.37,72.82 79.37,71.44 L 83.92 57.19 L 84.37 57.19 C 86.38,57.31 88.4,57 90.29,56.28 C 92.18,55.55 93.91,54.43 95.37,52.99 C 96.83,51.55 98,49.81 98.79,47.87 C 99.59,45.94 100,43.86 100,41.76 C 100,39.66 99.59,37.58 98.79,35.65 C 98,33.72 96.83,31.98 95.37,30.53 C 93.91,29.09 92.18,27.97 90.29,27.25 C 88.4,26.53 86.38,26.21 84.37,26.33 C 81.03,26.32 77.78,27.51 75.16,29.7 L 63.57 20.92 C 64.18,19.18 64.5,17.34 64.5,15.48 C 64.5,13.45 64.12,11.44 63.38,9.56 C 62.63,7.68 61.54,5.97 60.17,4.54 C 58.79,3.1 57.16,1.96 55.36,1.18 C 53.57,0.4 51.64,0 49.69,0 L 49.69 0 L 49.69 0" fill="#FFFFFF" stroke="none" stroke-width="0.5"/>
  </g>
  <g transform="translate(10.00,1.00) scale(0.8000,0.7700)">
    <path d="M 86.05 27.66 C 84.27,27.65 82.5,28.03 80.86,28.76 C 79.22,29.49 77.74,30.57 76.5,31.92 L 61.2 20.29 C 62.29,18.2 62.83,15.85 62.79,13.47 C 62.74,11.09 62.1,8.76 60.94,6.71 C 59.77,4.67 58.11,2.97 56.13,1.8 C 54.15,0.62 51.91,0 49.63,0 C 47.35,0 45.12,0.62 43.13,1.8 C 41.15,2.97 39.5,4.67 38.33,6.71 C 37.17,8.76 36.53,11.09 36.48,13.47 C 36.44,15.85 36.98,18.2 38.07,20.29 L 22.74 31.92 C 21.24,30.29 19.37,29.07 17.31,28.37 C 15.25,27.67 13.05,27.52 10.92,27.93 C 8.79,28.33 6.79,29.28 5.09,30.69 C 3.4,32.1 2.06,33.93 1.2,36.01 C 0.35,38.09 0,40.36 0.19,42.62 C 0.38,44.87 1.1,47.05 2.28,48.94 C 3.47,50.84 5.09,52.4 6.99,53.48 C 8.89,54.56 11.02,55.14 13.19,55.15 C 13.99,55.15 14.79,55.08 15.58,54.93 L 21.43 73.71 C 19.38,74.74 17.62,76.31 16.32,78.26 C 15.03,80.21 14.24,82.47 14.03,84.84 C 13.83,87.21 14.21,89.58 15.15,91.75 C 16.09,93.91 17.54,95.78 19.38,97.18 C 21.22,98.58 23.37,99.45 25.63,99.72 C 27.89,99.99 30.17,99.64 32.26,98.71 C 34.35,97.78 36.17,96.29 37.55,94.4 C 38.93,92.52 39.81,90.29 40.12,87.94 L 59.08 87.94 C 59.38,90.29 60.26,92.52 61.64,94.41 C 63.01,96.3 64.83,97.78 66.92,98.71 C 69.01,99.65 71.29,100 73.55,99.74 C 75.81,99.47 77.96,98.6 79.8,97.21 C 81.64,95.81 83.1,93.94 84.04,91.78 C 84.98,89.62 85.37,87.24 85.17,84.88 C 84.97,82.51 84.18,80.24 82.89,78.29 C 81.59,76.34 79.84,74.77 77.79,73.74 L 83.67 54.93 C 84.45,55.08 85.25,55.15 86.05,55.15 C 87.84,55.26 89.64,54.99 91.33,54.35 C 93.01,53.72 94.56,52.72 95.86,51.44 C 97.17,50.15 98.21,48.6 98.92,46.88 C 99.63,45.16 100,43.3 100,41.43 C 100,39.55 99.63,37.7 98.92,35.98 C 98.21,34.25 97.17,32.7 95.86,31.42 C 94.56,30.13 93.01,29.14 91.33,28.5 C 89.64,27.86 87.84,27.59 86.05,27.71 L 86.05 27.66 L 86.05 27.66 M 72.11 96.17 C 70.22,96.17 68.38,95.58 66.81,94.49 C 65.23,93.39 64.01,91.83 63.29,90.01 C 62.57,88.18 62.38,86.18 62.74,84.24 C 63.11,82.31 64.02,80.53 65.36,79.13 C 66.69,77.74 68.4,76.79 70.25,76.4 C 72.1,76.01 74.02,76.21 75.77,76.97 C 77.51,77.72 79,79 80.05,80.64 C 81.1,82.29 81.66,84.21 81.66,86.19 C 81.66,88.84 80.65,91.37 78.86,93.25 C 77.07,95.12 74.64,96.17 72.11,96.17 L 72.11 96.17 M 40.14 84.27 C 39.75,81.17 38.35,78.31 36.18,76.16 L 43.34 65.7 C 45.26,66.77 47.4,67.33 49.57,67.33 C 51.74,67.33 53.87,66.78 55.78,65.7 L 62.94 76.16 C 60.76,78.3 59.36,81.17 58.96,84.27 L 40.14 84.27 L 40.14 84.27 M 17.49 86.11 C 17.49,84.14 18.05,82.21 19.1,80.57 C 20.15,78.93 21.64,77.65 23.38,76.89 C 25.13,76.14 27.05,75.94 28.9,76.33 C 30.75,76.71 32.45,77.66 33.79,79.06 C 35.13,80.45 36.03,82.23 36.4,84.17 C 36.77,86.1 36.58,88.11 35.86,89.93 C 35.14,91.76 33.91,93.32 32.34,94.41 C 30.77,95.51 28.93,96.09 27.04,96.09 C 24.5,96.09 22.07,95.04 20.28,93.17 C 18.49,91.3 17.49,88.76 17.49,86.11 L 17.49 86.11 M 13.24 31.35 C 15.13,31.35 16.97,31.93 18.54,33.03 C 20.11,34.13 21.34,35.69 22.06,37.51 C 22.78,39.33 22.97,41.34 22.6,43.28 C 22.23,45.21 21.33,46.99 19.99,48.39 C 18.66,49.78 16.95,50.73 15.1,51.12 C 13.25,51.5 11.33,51.3 9.58,50.55 C 7.84,49.79 6.35,48.51 5.3,46.87 C 4.25,45.23 3.69,43.3 3.69,41.33 C 3.69,38.68 4.69,36.14 6.48,34.27 C 8.28,32.4 10.7,31.35 13.24,31.35 L 13.24 31.35 M 40 13.88 C 40,11.91 40.56,9.98 41.61,8.34 C 42.66,6.7 44.15,5.42 45.9,4.66 C 47.64,3.91 49.56,3.71 51.41,4.09 C 53.27,4.48 54.97,5.43 56.3,6.83 C 57.64,8.22 58.55,10 58.92,11.94 C 59.28,13.87 59.1,15.88 58.37,17.7 C 57.65,19.53 56.43,21.08 54.86,22.18 C 53.29,23.28 51.44,23.86 49.55,23.86 C 48.29,23.86 47.03,23.6 45.87,23.09 C 44.7,22.58 43.64,21.84 42.75,20.9 C 41.87,19.96 41.17,18.84 40.69,17.62 C 40.22,16.39 39.98,15.08 40,13.76 L 40 13.88 L 40 13.88 M 73.09 43.82 L 61.51 47.69 C 60.57,45.63 59.15,43.84 57.38,42.49 C 55.62,41.14 53.56,40.27 51.39,39.96 L 51.39 27.48 C 54.35,27.07 57.08,25.61 59.12,23.34 L 74.48 34.97 C 73.44,36.96 72.89,39.2 72.9,41.48 C 72.9,42.26 72.97,43.03 73.09,43.8 L 73.09 43.82 L 73.09 43.82 M 59.27 53.63 C 59.27,55.6 58.71,57.53 57.66,59.17 C 56.61,60.81 55.12,62.09 53.37,62.85 C 51.63,63.6 49.71,63.8 47.85,63.42 C 46,63.03 44.3,62.08 42.96,60.69 C 41.63,59.29 40.72,57.51 40.35,55.58 C 39.98,53.64 40.17,51.63 40.89,49.81 C 41.62,47.99 42.84,46.43 44.41,45.33 C 45.98,44.23 47.83,43.65 49.72,43.65 C 52.25,43.65 54.67,44.7 56.46,46.56 C 58.25,48.43 59.26,50.96 59.27,53.6 L 59.27 53.63 L 59.27 53.63 M 47.86 27.48 L 47.86 39.96 C 45.69,40.26 43.64,41.13 41.87,42.48 C 40.11,43.82 38.69,45.61 37.76,47.67 L 26.15 43.8 C 26.3,42.98 26.37,42.14 26.37,41.3 C 26.35,39.09 25.82,36.92 24.82,34.97 L 40.14 23.31 C 42.18,25.59 44.9,27.06 47.86,27.48 L 47.86 27.48 M 25.08 47.44 L 36.68 51.31 C 36.53,52.13 36.46,52.97 36.47,53.8 C 36.46,55.67 36.82,57.52 37.53,59.24 C 38.23,60.96 39.27,62.5 40.57,63.78 L 33.41 74.26 C 31.51,73.18 29.37,72.61 27.2,72.62 C 26.4,72.61 25.6,72.69 24.82,72.84 L 18.94 53.78 C 21.62,52.45 23.79,50.22 25.1,47.44 L 25.08 47.44 L 25.08 47.44 M 72.11 72.39 C 69.95,72.4 67.81,72.95 65.9,74.01 L 58.74 63.58 C 60.04,62.3 61.08,60.75 61.78,59.04 C 62.49,57.32 62.85,55.47 62.85,53.6 C 62.85,52.77 62.78,51.93 62.63,51.11 L 74.12 47.29 C 75.42,50.11 77.59,52.4 80.28,53.78 L 74.43 72.59 C 73.66,72.45 72.89,72.38 72.11,72.39 L 72.11 72.39 M 76.5 41.4 C 76.5,39.43 77.06,37.5 78.11,35.86 C 79.16,34.22 80.65,32.94 82.4,32.18 C 84.14,31.43 86.06,31.23 87.92,31.61 C 89.77,32 91.47,32.95 92.81,34.35 C 94.14,35.74 95.05,37.52 95.42,39.46 C 95.79,41.39 95.6,43.4 94.88,45.22 C 94.15,47.05 92.93,48.6 91.36,49.7 C 89.79,50.8 87.94,51.38 86.05,51.38 C 83.52,51.38 81.09,50.33 79.3,48.46 C 77.51,46.59 76.5,44.05 76.5,41.4 L 76.5 41.4" fill="#aa643b" stroke="none" stroke-width="0.5"/>
  </g>
</svg>