<svg xmlns="http://www.w3.org/2000/svg" viewBox="0 0 85.0 125.00000000000017" width="85" height="125">
  <g transform="translate(26.00,1.00) scale(0.8200,0.8200)">
    <path d="M 50 100 C 77.61,100 100,77.61 100,50 C 100,22.39 77.61,0 50,0 C 22.39,0 0,22.39 0,50 C 0,77.61 22.39,100 50,100 L 50 100" fill="#FFFFFF" stroke="none" stroke-width="0.5"/>
  </g>
  <g transform="translate(25.00,0.00) scale(0.8500,0.8500)">
    <path d="M 50.48 2.36 C 59.81,2.36 68.93,5.12 76.68,10.31 C 84.44,15.49 90.48,22.85 94.05,31.47 C 97.62,40.09 98.56,49.57 96.74,58.72 C 94.92,67.87 90.42,76.27 83.83,82.87 C 77.23,89.46 68.83,93.96 59.68,95.78 C 50.53,97.6 41.05,96.66 32.43,93.09 C 23.81,89.52 16.45,83.48 11.27,75.72 C 6.08,67.97 3.32,58.85 3.32,49.52 C 3.32,37.01 8.29,25.02 17.13,16.17 C 25.98,7.33 37.97,2.36 50.48,2.36 L 50.48 2.36 M 50.48 0 C 40.69,0 31.11,2.9 22.97,8.35 C 14.82,13.79 8.48,21.52 4.73,30.57 C 0.98,39.62 0,49.58 1.91,59.18 C 3.82,68.79 8.54,77.61 15.46,84.54 C 22.39,91.46 31.21,96.18 40.82,98.09 C 50.43,100 60.38,99.02 69.43,95.27 C 78.48,91.52 86.21,85.18 91.65,77.03 C 97.1,68.89 100,59.31 100,49.52 C 100,36.39 94.78,23.79 85.5,14.5 C 76.21,5.22 63.61,0 50.48,0 L 50.48 0 L 50.48 0" fill="#FFFFFF" stroke="none" stroke-width="0.5"/>
  </g>
  <g transform="translate(27.00,2.00) scale(0.8100,0.8100)">
    <path d="M 50.48 0 C 40.69,0 31.11,2.9 22.97,8.35 C 14.82,13.79 8.48,21.52 4.73,30.57 C 0.98,39.62 0,49.58 1.91,59.18 C 3.82,68.79 8.54,77.61 15.46,84.54 C 22.39,91.46 31.21,96.18 40.82,98.09 C 50.43,100 60.38,99.02 69.43,95.27 C 78.48,91.52 86.21,85.18 91.65,77.03 C 97.1,68.89 100,59.31 100,49.52 C 100,43.02 98.72,36.58 96.23,30.57 C 93.74,24.56 90.09,19.1 85.5,14.5 C 80.9,9.91 75.44,6.26 69.43,3.77 C 63.42,1.28 56.98,0 50.48,0 L 50.48 0 M 50.48 94.91 C 41.5,94.91 32.73,92.24 25.27,87.26 C 17.8,82.27 11.98,75.18 8.55,66.89 C 5.11,58.6 4.21,49.47 5.97,40.67 C 7.72,31.86 12.04,23.78 18.39,17.43 C 24.73,11.08 32.82,6.76 41.63,5.01 C 50.43,3.26 59.55,4.15 67.85,7.59 C 76.14,11.02 83.23,16.84 88.22,24.31 C 93.2,31.77 95.86,40.54 95.86,49.52 C 95.85,61.55 91.07,73.09 82.56,81.6 C 74.05,90.11 62.51,94.89 50.48,94.91 L 50.48 94.91" fill="#2d5967" stroke="none" stroke-width="0.5"/>
  </g>
  <g transform="translate(58.00,12.00) scale(0.1800,0.5900)">
    <path d="M 59.12 89.24 L 59.12 10.76 L 87.03 19.33 L 100 15.35 L 50 0 L 0 15.35 L 12.97 19.33 L 40.88 10.76 L 40.88 89.24 L 12.97 80.68 L 0 84.65 L 50 100 L 100 84.65 L 87.03 80.68 L 59.12 89.24 L 59.12 89.24" fill="#2d5967" stroke="none" stroke-width="0.5"/>
  </g>
  <g transform="translate(38.00,33.00) scale(0.2700,0.1800)">
    <path d="M 67.29 0 L 58.79 12.97 L 77.09 40.88 L 0 40.88 L 0 59.12 L 77.09 59.12 L 58.79 87.03 L 67.29 100 L 100 50 L 67.29 0 L 67.29 0" fill="#2d5967" stroke="none" stroke-width="0.5"/>
  </g>
  <g transform="translate(69.00,33.00) scale(0.2700,0.1800)">
    <path d="M 22.91 40.88 L 41.21 12.97 L 32.71 0 L 0 50 L 32.71 100 L 41.21 87.03 L 22.91 59.12 L 100 59.12 L 100 40.88 L 22.91 40.88 L 22.91 40.88" fill="#2d5967" stroke="none" stroke-width="0.5"/>
  </g>
</svg>