<svg xmlns="http://www.w3.org/2000/svg" viewBox="0 0 73.0 138.00000000000003" width="73" height="138">
  <g transform="translate(1.00,1.00) scale(0.7100,0.8200)">
    <path d="M 50.05 100 C 48.4,100 46.76,99.93 45.11,99.78 L 44.13 99.78 L 43.15 99.66 C 42.19,99.66 41.27,99.44 40.34,99.27 C 39.41,99.1 38.52,98.88 37.53,98.69 L 36.58 98.47 L 35.74 98.16 C 31.01,96.9 26.53,95.04 22.43,92.65 L 21.34 91.94 L 20.38 91.31 L 18.61 90.14 L 17.63 89.37 L 16.84 88.76 C 16.23,88.28 15.61,87.79 15.02,87.28 L 14.18 86.48 C 13.33,85.7 12.52,84.93 11.73,84.05 C 5.6,77.55 1.84,69.61 0.92,61.26 C 0,52.9 1.97,44.5 6.57,37.11 C 7.3,35.92 8.06,34.85 8.81,33.83 L 9.26 33.28 C 9.96,32.4 10.67,31.58 11.4,30.85 L 12.18 30.05 C 12.86,29.34 13.59,28.64 14.34,27.94 L 15.21 27.18 C 16,26.5 16.79,25.85 17.63,25.24 L 18.36 24.68 C 19.34,23.98 20.27,23.35 21.17,22.74 L 21.7 22.33 C 22.77,21.67 23.89,21.07 25.01,20.49 C 28.88,18.54 33.04,17.04 37.36,16.04 C 38.8,15.73 40.17,15.46 41.55,15.27 L 41.77 15.27 L 37.14 11.14 L 50.03 0 L 62.94 11.14 L 58.2 15.27 L 58.34 15.27 L 59.8 15.46 L 61.17 15.75 L 62.55 16.07 L 64.23 16.43 L 65.64 16.8 C 67.97,17.46 70.24,18.27 72.43,19.22 L 73.81 19.83 C 74.39,20.1 74.93,20.39 75.46,20.68 L 76.61 21.29 C 77.79,21.94 78.91,22.65 80.04,23.35 C 83.55,25.68 86.68,28.41 89.36,31.46 C 90.31,32.55 91.04,33.49 91.74,34.44 L 92.11 34.95 C 92.73,35.83 93.32,36.72 93.85,37.62 L 94.36 38.45 C 94.83,39.3 95.28,40.17 95.7,41.04 L 96.18 42.06 C 96.54,42.94 96.91,43.81 97.22,44.73 L 97.58 45.7 C 97.89,46.72 98.17,47.72 98.43,48.74 L 98.57 49.42 C 98.85,50.64 99.05,51.87 99.18,53.11 C 100,60.15 98.78,67.25 95.65,73.79 C 91.33,82.74 83.58,90.14 73.69,94.73 C 72.46,95.31 71.33,95.75 70.21,96.19 L 69.76 96.38 L 69.09 96.65 L 66.81 97.38 L 65.69 97.72 L 64.51 98.08 C 63.81,98.28 63.11,98.4 62.43,98.57 L 61.14 98.83 L 59.82 99.1 C 56.61,99.68 53.34,99.96 50.05,99.95 L 50.05 100 L 50.05 100 M 42.05 15.27 L 43.01 15.12 L 44.89 14.88 L 46.43 14.76 L 46.63 14.76 L 46.63 11.26 L 42.05 15.27 L 42.05 15.27 M 55.39 14.85 L 57.13 15.07 L 58.11 15.22 L 53.42 11.26 L 53.42 14.73 L 53.62 14.73 L 53.62 14.61 L 55.39 14.85 L 55.39 14.85" fill="#FFFFFF" stroke="none" stroke-width="0.5"/>
  </g>
  <g transform="translate(0.00,0.00) scale(0.7300,0.8400)">
    <path d="M 50.16 3.34 L 54.87 7.41 L 55.04 7.55 L 60.87 12.55 L 58.13 14.92 L 55.12 12.31 L 52.11 9.8 L 52.11 17.19 C 53.09,17.19 54.08,17.19 55.04,17.33 C 55.8,17.33 56.57,17.52 57.34,17.62 L 59.33 17.88 C 59.99,18 60.65,18.16 61.28,18.3 C 61.91,18.45 62.81,18.61 63.55,18.8 C 66.66,19.63 69.66,20.74 72.51,22.12 C 73.25,22.47 73.9,22.85 74.61,23.23 L 75.16 23.51 C 76.29,24.13 77.35,24.79 78.39,25.48 C 81.79,27.67 84.83,30.25 87.43,33.15 L 87.59 33.32 C 88.33,34.19 89.05,35.09 89.7,35.99 L 90.06 36.47 C 90.63,37.3 91.18,38.15 91.7,39 L 92.17 39.78 C 92.63,40.59 93.04,41.42 93.43,42.15 C 93.59,42.46 93.76,42.79 93.89,43.1 C 94.25,43.95 94.58,44.78 94.88,45.63 C 94.88,45.96 95.12,46.27 95.21,46.58 C 95.54,47.53 95.78,48.47 96.03,49.44 C 96.03,49.66 96.03,49.87 96.03,50.08 C 96.29,51.24 96.48,52.41 96.6,53.59 C 97.5,61.48 95.69,69.42 91.39,76.42 C 87.09,83.42 80.49,89.17 72.42,92.94 L 72.26 92.94 C 71.25,93.42 70.18,93.84 69.14,94.27 L 68.04 94.7 C 67.19,95 66.35,95.26 65.47,95.53 C 64.59,95.79 64.32,95.9 63.72,96.05 C 63.11,96.19 62.02,96.45 61.17,96.61 C 60.32,96.78 59.94,96.92 59.31,97.02 C 56.25,97.56 53.14,97.83 50.02,97.82 C 48.46,97.83 46.9,97.77 45.34,97.63 L 43.84 97.44 C 42.82,97.44 41.81,97.21 40.8,97.04 C 39.78,96.87 38.83,96.61 37.84,96.4 L 36.36 96.07 C 31.88,94.88 27.63,93.12 23.77,90.84 C 23.22,90.53 22.72,90.17 22.2,89.84 C 21.68,89.51 20.78,88.97 20.12,88.47 C 19.47,87.97 19.19,87.76 18.73,87.38 C 18.26,87 17.36,86.34 16.73,85.77 C 16.1,85.2 16.18,85.25 15.91,85.01 C 15.12,84.27 14.35,83.48 13.61,82.64 C 7.92,76.48 4.45,69.01 3.63,61.16 C 2.8,53.31 4.66,45.42 8.98,38.48 C 9.63,37.44 10.35,36.42 11.09,35.45 L 11.58 34.83 C 12.21,34 12.89,33.22 13.58,32.47 L 14.32 31.68 C 14.97,31.02 15.66,30.33 16.37,29.69 L 17.22 28.96 C 17.96,28.32 18.7,27.71 19.49,27.11 C 19.74,26.92 19.99,26.74 20.26,26.57 C 21.11,25.93 22.01,25.34 23,24.77 L 23.52 24.44 C 24.56,23.82 25.6,23.23 26.7,22.69 L 26.89 22.69 C 30.48,20.88 34.34,19.5 38.36,18.59 C 39.65,18.3 40.93,18.04 42.22,17.85 L 42.88 17.85 C 43.67,17.85 44.47,17.59 45.29,17.52 C 46.27,17.52 47.23,17.36 48.22,17.33 L 48.22 9.8 L 45.29 12.34 L 42.28 14.94 L 39.54 12.57 L 45.29 7.58 L 45.45 7.44 L 50.16 3.36 L 50.16 3.34 L 50.16 3.34 M 50.16 0.02 L 48.25 1.7 L 43.53 5.75 L 43.37 5.9 L 37.59 10.87 L 35.65 12.55 L 37.59 14.21 L 39.43 15.79 C 38.85,15.79 38.25,16.01 37.68,16.15 C 33.38,17.14 29.26,18.61 25.41,20.53 L 25.27 20.65 C 24.15,21.22 23.03,21.86 21.93,22.5 L 21.38 22.83 C 20.42,23.44 19.49,24.08 18.64,24.75 L 17.82 25.34 C 17.03,25.93 16.26,26.57 15.41,27.28 L 15.22 27.44 L 14.32 28.06 C 13.61,28.7 12.89,29.39 12.13,30.17 L 11.93 30.38 L 11.36 30.97 C 10.68,31.73 9.99,32.54 9.22,33.48 L 9.09 33.67 L 8.84 34.08 C 8.07,35.09 7.34,36.16 6.65,37.27 C 2.01,44.66 0,53.08 0.88,61.45 C 1.75,69.83 5.48,77.8 11.58,84.35 L 11.72 84.49 C 12.51,85.34 13.39,86.17 14.13,86.86 L 14.32 87.14 L 14.86 87.66 C 15.47,88.18 16.07,88.66 16.7,89.13 L 17 89.39 L 17.44 89.72 L 18.48 90.53 L 20.23 91.69 L 20.7 92 L 21.19 92.33 L 22.31 93.04 C 26.43,95.45 30.93,97.32 35.68,98.58 L 36.72 98.82 L 37.24 98.82 L 37.57 98.82 C 38.47,99.03 39.4,99.24 40.3,99.41 C 41.21,99.57 42.25,99.69 43.18,99.79 L 43.51 99.79 L 44.03 99.79 L 45.1 99.79 C 46.74,99.93 48.41,100 50.05,100 C 53.35,100 56.65,99.72 59.88,99.15 L 61.22 98.86 L 61.83 98.72 L 62.43 98.72 C 63.14,98.58 63.85,98.44 64.54,98.25 L 65.82 97.87 L 66.4 97.68 L 66.78 97.56 C 67.58,97.32 68.34,97.09 69.14,96.8 L 69.88 96.52 L 70.29 96.35 C 71.27,95.98 72.45,95.5 73.6,94.96 L 73.74 94.96 C 83.62,90.34 91.35,82.92 95.65,73.95 C 98.78,67.43 100,60.33 99.21,53.3 L 99.21 53.16 C 99.07,51.95 98.85,50.79 98.6,49.51 C 98.59,49.36 98.59,49.21 98.6,49.06 L 98.6 48.83 C 98.33,47.71 98.05,46.72 97.75,45.8 C 97.68,45.55 97.59,45.3 97.48,45.06 L 97.48 44.8 C 97.12,43.81 96.77,42.93 96.41,42.13 C 96.41,41.84 96.17,41.56 96.03,41.27 L 96.03 41.11 C 95.59,40.16 95.15,39.31 94.69,38.5 C 94.52,38.27 94.39,38.01 94.25,37.77 C 93.62,36.75 93.04,35.85 92.44,35 L 92.11 34.55 C 91.37,33.53 90.61,32.56 89.84,31.66 L 89.65 31.47 C 86.96,28.53 83.83,25.91 80.34,23.68 C 79.11,22.87 77.96,22.16 76.83,21.55 L 76.45 21.31 L 76.26 21.31 L 75.68 21 C 75.13,20.7 74.59,20.41 74.01,20.15 L 71.27 18.9 C 70.04,18.4 68.78,17.93 67.52,17.52 L 64.48 16.58 L 64.35 16.58 L 62.68 16.22 L 62.02 16.08 L 61.36 15.94 L 60.95 15.94 L 62.76 14.21 L 64.68 12.53 L 62.76 10.85 L 56.98 5.87 L 56.82 5.73 L 52.11 1.68 L 50.16 0 L 50.16 0.02 L 50.16 0.02" fill="#FFFFFF" stroke="none" stroke-width="0.5"/>
  </g>
  <g transform="translate(2.00,14.00) scale(0.6900,0.6800)">
    <path d="M 55.14 0 L 55.14 4.19 C 66.63,5.53 77.18,11.27 84.63,20.24 C 92.08,29.21 95.86,40.74 95.2,52.45 C 94.55,64.16 89.5,75.18 81.09,83.24 C 72.69,91.29 61.56,95.78 50,95.78 C 38.44,95.78 27.31,91.29 18.91,83.24 C 10.5,75.18 5.45,64.16 4.8,52.45 C 4.14,40.74 7.92,29.21 15.37,20.24 C 22.82,11.27 33.37,5.53 44.86,4.19 L 44.86 0 C 32.27,1.34 20.66,7.53 12.44,17.29 C 4.22,27.05 0,39.65 0.66,52.48 C 1.32,65.3 6.81,77.38 15.99,86.23 C 25.17,95.07 37.34,100 50,100 C 62.66,100 74.83,95.07 84.01,86.23 C 93.19,77.38 98.68,65.3 99.34,52.48 C 100,39.65 95.78,27.05 87.56,17.29 C 79.34,7.53 67.73,1.34 55.14,0 L 55.14 0" fill="#2d5967" stroke="none" stroke-width="0.5"/>
  </g>
  <g transform="translate(28.00,2.00) scale(0.1500,0.7100)">
    <path d="M 40.8 100 L 59.07 100 L 59.07 7.64 L 72.84 10.64 L 87 13.71 L 100 10.89 L 72.84 4.98 L 72.07 4.81 L 49.94 0 L 27.79 4.81 L 27.03 4.98 L 0 10.89 L 12.87 13.71 L 27.03 10.64 L 40.8 7.64 L 40.8 100 L 40.8 100" fill="#2d5967" stroke="none" stroke-width="0.5"/>
  </g>
  <g transform="translate(38.00,40.00) scale(0.2300,0.1500)">
    <path d="M 41.23 87.02 L 22.93 59.13 L 100 59.13 L 100 40.88 L 22.93 40.88 L 41.23 12.98 L 32.72 0 L 8.43 37.02 L 0 50 L 8.43 62.98 L 32.72 100 L 41.23 87.02 L 41.23 87.02" fill="#2d5967" stroke="none" stroke-width="0.5"/>
  </g>
  <g transform="translate(11.00,40.00) scale(0.2300,0.1500)">
    <path d="M 58.8 12.98 L 77 40.88 L 0 40.88 L 0 59.13 L 77 59.13 L 58.8 87.02 L 67.23 100 L 91.49 62.98 L 100 50 L 91.49 37.02 L 67.23 0 L 58.8 12.98 L 58.8 12.98" fill="#2d5967" stroke="none" stroke-width="0.5"/>
  </g>
</svg>