<svg xmlns="http://www.w3.org/2000/svg" viewBox="0 0 84.0 98.0000000000002" width="84" height="98">
  <g transform="translate(38.00,0.00) scale(0.5800,0.5800)">
    <path d="M 50 4.17 C 24.69,4.17 4.17,24.69 4.17,50 C 4.17,75.31 24.69,95.83 50,95.83 C 75.31,95.83 95.83,75.31 95.83,50 C 95.83,24.69 75.31,4.17 50,4.17 L 50 4.17 M 0 50 C 0,22.39 22.39,0 50,0 C 77.62,0 100,22.39 100,50 C 100,77.61 77.62,100 50,100 C 22.39,100 0,77.61 0,50 L 0 50" fill="#2c5967" stroke="none" stroke-width="0.5"/>
  </g>
  <g transform="translate(25.00,25.00) scale(0.8400,0.0600)">
    <path d="M 0 0 L 100 0 L 100 100 L 0 100 L 0 0 L 0 0" fill="#FFFFFF" stroke="none" stroke-width="0.5"/>
  </g>
  <g transform="translate(30.00,28.00) scale(0.7500,0.0200)">
    <path d="M 0 0 L 100 0 L 100 100 L 0 100 L 0 0 L 0 0" fill="#2c5967" stroke="none" stroke-width="0.5"/>
  </g>
  <g transform="translate(99.00,22.00) scale(0.0800,0.1300)">
    <path d="M 20.58 0 L 100 50 L 20.58 100 L 0 87.04 L 58.83 50 L 0 12.96 L 20.58 0 L 20.58 0" fill="#2c5967" stroke="none" stroke-width="0.5"/>
  </g>
  <g transform="translate(27.00,22.00) scale(0.0800,0.1300)">
    <path d="M 79.42 0 L 100 12.96 L 41.16 50 L 100 87.04 L 79.42 100 L 0 50 L 79.42 0 L 79.42 0" fill="#2c5967" stroke="none" stroke-width="0.5"/>
  </g>
</svg>