<svg xmlns="http://www.w3.org/2000/svg" viewBox="0 0 84.0 129.0000000000001" width="84" height="129">
  <g transform="translate(10.00,1.00) scale(0.8200,0.8100)">
    <path d="M 74.82 87.53 L 79.08 83.31 L 84.29 88.49 C 83.62,81.81 81.44,72.17 74.94,65.29 C 69.74,59.99 62.65,56.93 55.21,56.78 C 55.21,57.28 55.21,57.77 55.21,58.27 C 54.7,68.93 51.99,79.38 47.26,88.95 C 42.17,97.54 37.03,99.32 33.59,99.32 C 32.97,99.33 32.34,99.27 31.73,99.16 C 22.03,97.37 16.04,82.73 13.77,69.63 C 12.77,64.12 12.22,58.54 12.12,52.94 L 0 52.94 L 0 46.94 L 12.12 46.94 C 12.25,41.13 12.87,35.35 13.96,29.64 C 17.14,11.82 24.75,0.7 33.81,0.7 C 39.09,0.7 48.57,4.53 53.66,30.25 C 54.34,34.12 54.81,38.02 55.07,41.94 C 55.07,42.45 55.07,42.93 55.07,43.44 C 62.64,43.28 69.85,40.16 75.13,34.76 C 81.63,27.81 83.69,18.14 84.29,11.48 L 79.08 16.69 L 74.82 12.47 L 87.35 0 L 99.88 12.47 L 95.73 16.69 L 90.45 11.55 C 89.84,18.96 87.54,30.29 79.67,38.74 C 76.24,42.41 71.99,45.22 67.26,46.94 L 88.15 46.94 L 83.3 42.33 L 87.45 37.99 L 100 49.88 L 87.49 62.3 L 83.23 58.08 L 88.46 52.94 L 66.89 52.94 C 71.63,54.61 75.9,57.37 79.35,61 C 87.3,69.44 89.7,80.87 90.38,88.33 L 95.73 83.19 L 99.88 87.53 L 87.35 100 L 74.82 87.53 L 74.82 87.53" fill="#FFFFFF" stroke="none" stroke-width="0.5"/>
  </g>
  <g transform="translate(9.00,0.00) scale(0.8400,0.8400)">
    <path d="M 86.06 3.29 L 88.41 5.63 L 90.77 7.82 L 96.56 13.73 L 94.21 16.06 L 90.53 12.63 L 88.18 10.29 C 87.92,16.9 86.27,29.48 77.84,38.47 C 74.85,41.54 71.28,44 67.33,45.7 C 63.38,47.4 59.13,48.3 54.83,48.37 L 89.78 48.37 L 83.75 42.69 L 86.11 40.17 L 96.56 49.95 L 86.2 60.32 L 83.73 57.87 L 89.92 51.73 L 53.79 51.73 C 58.18,51.7 62.53,52.56 66.57,54.24 C 70.62,55.92 74.28,58.39 77.34,61.51 C 85.8,70.45 87.59,83.08 87.92,89.78 L 90.27 87.33 L 94.21 83.8 L 96.56 86.37 L 90.7 92.2 L 88.34 94.54 L 85.99 96.87 L 83.44 94.07 L 81.94 92.6 L 75.55 86.37 L 78.03 83.92 L 81.68 87.54 L 84.5 90.34 C 84.22,84.22 82.6,72.2 74.87,64.03 C 72.11,61.25 68.8,59.05 65.16,57.57 C 61.52,56.08 57.61,55.34 53.67,55.39 C 53.67,56.25 53.63,57.11 53.53,57.98 C 53.11,68.16 50.59,78.13 46.11,87.3 C 41.66,94.75 37.24,96.64 33.91,96.64 C 33.38,96.64 32.84,96.6 32.31,96.5 C 23.39,94.87 17.85,80.6 15.83,68.88 C 14.78,63.22 14.21,57.48 14.13,51.73 L 2.36 51.73 L 2.36 48.25 L 14.13 48.25 C 14.16,42.31 14.73,36.38 15.83,30.53 C 18.84,14.01 25.91,3.5 34.03,3.43 C 38.74,3.43 47.29,7.07 52.07,31.09 C 52.73,34.78 53.18,38.49 53.42,42.23 C 53.42,43.07 53.53,43.93 53.58,44.82 C 57.58,44.85 61.54,44.09 65.23,42.57 C 68.92,41.05 72.27,38.8 75.06,35.97 C 82.81,27.71 84.24,15.66 84.48,9.64 L 81.77 12.44 L 78.03 16.18 L 75.55 13.84 L 81.96 7.35 L 83.23 6.09 L 86.06 3.29 L 86.06 3.29 M 86.06 0 L 84.39 1.66 L 81.58 4.46 L 80.29 5.72 L 73.88 12.07 L 72.21 13.73 L 73.88 15.36 L 76.35 17.69 L 78.03 19.35 L 79.7 17.69 L 81.61 15.8 C 80.78,22.64 77.93,29.07 73.43,34.31 C 68.8,39.05 62.54,41.89 55.89,42.25 L 55.89 42.02 C 55.63,38.2 55.17,34.4 54.52,30.63 C 49.62,6.23 40.72,1.1 34.13,1.1 L 33.94 1.1 C 24.52,1.1 16.82,12.04 13.59,30.11 C 12.61,35.33 12.04,40.61 11.89,45.91 L 0 45.91 L 0 54.06 L 11.89 54.06 C 12.02,59.17 12.55,64.26 13.47,69.28 C 15.83,82.31 21.76,96.92 31.87,98.76 C 32.53,98.88 33.21,98.95 33.89,98.95 C 37.54,98.95 42.96,97.13 48.02,88.47 C 52.69,78.99 55.32,68.66 55.75,58.12 C 55.74,58.04 55.74,57.95 55.75,57.87 C 62.27,58.23 68.41,61 72.96,65.64 C 77.55,70.82 80.5,77.21 81.47,84.03 L 79.7 82.28 L 78.03 80.63 L 76.35 82.28 L 73.88 84.62 L 72.21 86.28 L 73.88 87.93 L 80.29 94.26 L 81.77 95.75 L 84.39 98.34 L 86.06 100 L 87.73 98.34 L 90.09 96.01 L 92.44 93.67 L 98.33 87.86 L 100 86.21 L 98.33 84.55 L 95.86 82.1 L 94.18 80.46 L 92.53 82.12 L 89.99 84.62 C 89.02,75.49 85.23,66.88 79.13,59.97 C 76.93,57.63 74.38,55.64 71.57,54.06 L 84.24 54.06 L 82.05 56.21 L 80.41 57.87 L 82.05 59.5 L 84.41 61.95 L 86.08 63.61 L 87.75 61.95 L 98.19 51.61 L 99.91 49.91 L 98.16 48.27 L 87.68 38.38 L 85.96 36.76 L 84.34 38.45 L 81.98 40.97 L 80.36 42.65 L 82.05 44.26 L 83.82 45.91 L 71.86 45.91 C 74.69,44.32 77.25,42.31 79.46,39.94 C 85.45,33.04 89.13,24.47 89.99,15.41 L 92.35 17.74 L 93.99 19.4 L 95.67 17.74 L 98.14 15.41 L 99.81 13.77 L 98.14 12.11 L 92.37 6.26 L 90.16 4.06 L 87.8 1.73 L 86.06 0 L 86.06 0" fill="#FFFFFF" stroke="none" stroke-width="0.5"/>
  </g>
  <g transform="translate(60.00,33.00) scale(0.2900,0.1700)">
    <path d="M 16.58 57.6 L 81.15 57.6 L 63.57 87.9 L 70.59 100 L 100 48.85 L 70.25 0 L 63.57 12.44 L 80.68 40.44 L 17.71 40.44 C 11.97,44.29 6.05,47.26 0,49.31 C 5.64,51.31 11.19,54.08 16.58,57.6 L 16.58 57.6" fill="#2d5967" stroke="none" stroke-width="0.5"/>
  </g>
  <g transform="translate(10.00,2.00) scale(0.7900,0.7900)">
    <path d="M 93.52 89.95 L 91.03 92.58 C 90.67,85.4 88.77,71.88 79.8,62.31 C 76.55,58.97 72.66,56.32 68.37,54.52 C 64.07,52.72 59.46,51.81 54.8,51.84 C 54.8,50.59 54.8,49.34 54.8,48.11 C 59.5,48.12 64.16,47.18 68.49,45.34 C 72.82,43.51 76.73,40.82 80,37.44 C 88.95,27.82 90.7,14.35 90.97,7.27 L 93.47 9.77 L 97.5 13.7 L 100 11.2 L 93.8 4.85 L 91.3 2.5 L 88.8 0 L 85.8 3 L 84.45 4.35 L 77.7 11.07 L 80.33 13.57 L 84.3 9.57 L 87.25 6.75 C 87.02,13.2 85.5,26.09 77.25,34.94 C 74.28,37.98 70.74,40.38 66.82,42.01 C 62.9,43.63 58.69,44.45 54.45,44.41 C 54.45,43.46 54.45,42.54 54.27,41.64 C 54.03,37.64 53.55,33.66 52.85,29.72 C 47.8,3.87 38.72,0.05 33.73,0.05 C 25,0.12 17.5,11.37 14.37,29.07 C 13.18,35.32 12.55,41.67 12.5,48.04 L 0 48.04 L 0 51.76 L 12.5 51.76 C 12.57,57.92 13.15,64.05 14.25,70.11 C 16.42,82.6 22.3,97.93 31.75,99.68 C 32.31,99.78 32.88,99.83 33.45,99.83 C 36.97,99.83 41.67,97.8 46.4,89.83 C 51.15,80.01 53.83,69.33 54.27,58.44 C 54.27,57.52 54.32,56.59 54.42,55.66 C 58.6,55.61 62.75,56.4 66.62,57.99 C 70.48,59.58 73.99,61.93 76.92,64.91 C 85.12,73.66 86.92,86.53 87.15,93.08 L 84.15 90.08 L 80.33 86.1 L 77.7 88.85 L 84.47 95.65 L 86.07 97.23 L 88.85 100 L 91.35 97.5 L 93.85 95 L 100 88.85 L 97.5 86.1 L 93.52 89.95 L 93.52 89.95 M 42.5 87.53 C 40.2,91.4 36.65,95.83 32.72,95.03 C 27.12,94 21.32,83.15 18.93,69.21 C 17.89,63.43 17.34,57.58 17.3,51.71 L 39.8 51.71 L 33.22 58.29 L 35.72 60.91 L 46.8 49.81 L 35.15 38.87 L 32.65 41.54 L 39.5 48.09 L 17.2 48.09 C 17.26,42.02 17.83,35.96 18.93,29.99 C 22,12.65 28.72,4.72 33.67,4.7 C 38.28,4.7 44.5,11.47 48.27,30.54 C 51.32,47.64 50.65,71.86 42.5,87.53 L 42.5 87.53" fill="#2d5967" stroke="none" stroke-width="0.5"/>
  </g>
</svg>