<svg xmlns="http://www.w3.org/2000/svg" viewBox="0 0 84.0 83.00000000000004" width="84" height="83">
  <g transform="translate(1.00,1.00) scale(0.8200,0.5700)">
    <path d="M 69.51 100 L 69.51 91.23 L 25.85 91.23 L 24.88 90.17 L 21.95 87.02 L 25.61 80.35 L 0 80.35 L 0 0 L 70.97 0 L 71.22 0.35 L 74.88 4.56 L 71.22 10.88 L 94.15 10.88 L 94.15 53.68 L 100 53.68 L 100 100 L 69.51 100 L 69.51 100" fill="#FFFFFF" stroke="none" stroke-width="0.5"/>
  </g>
  <g transform="translate(0.00,0.00) scale(0.8400,0.5900)">
    <path d="M 70 3.4 L 72.63 6.12 L 68.34 13.95 L 91.66 13.95 L 91.66 55.44 L 97.62 55.44 L 97.62 96.94 L 70.24 96.94 L 70.24 88.43 L 41.19 88.43 L 33.34 88.43 L 27.63 88.43 L 26.9 88.43 L 26.19 87.76 L 24.29 85.71 L 28.58 77.89 L 25.48 77.89 L 22.14 77.89 L 19.05 77.89 L 16.67 77.89 L 10.71 77.89 L 2.38 77.89 L 2.38 3.4 L 10.71 3.4 L 16.43 3.4 L 18.81 3.4 L 22.14 3.4 L 63.58 3.4 L 66.66 3.4 L 70 3.4 L 70 3.4 M 70.95 0 L 70.24 0 L 67.14 0 L 64.05 0 L 22.14 0 L 19.05 0 L 16.67 0 L 10.71 0 L 2.38 0 L 0 0 L 0 3.4 L 0 77.89 L 0 81.29 L 2.38 81.29 L 10.71 81.29 L 16.43 81.29 L 18.81 81.29 L 22.14 81.29 L 23.57 81.29 L 22.38 83.33 L 20.95 86.05 L 22.86 88.43 L 24.76 90.48 L 25.48 91.16 L 26.19 91.84 L 27.14 91.84 L 27.86 91.84 L 33.34 91.84 L 41.19 91.84 L 67.86 91.84 L 67.86 96.6 L 67.86 100 L 70.24 100 L 97.62 100 L 100 100 L 100 96.6 L 100 55.44 L 100 52.04 L 97.62 52.04 L 94.29 52.04 L 94.29 13.95 L 94.29 10.54 L 91.9 10.54 L 73.34 10.54 L 74.52 8.16 L 75.95 5.44 L 74.05 3.4 L 71.43 0.68 L 70.95 0 L 70.95 0" fill="#FFFFFF" stroke="none" stroke-width="0.5"/>
  </g>
  <g transform="translate(2.00,2.00) scale(0.0400,0.4400)">
    <path d="M 58.32 93.61 L 58.32 6.39 L 100 6.39 L 100 0 L 0 0 L 0 100 L 100 100 L 100 93.61 L 58.32 93.61 L 58.32 93.61" fill="#2c5967" stroke="none" stroke-width="0.5"/>
  </g>
  <g transform="translate(9.00,2.00) scale(0.0400,0.4400)">
    <path d="M 58.33 93.61 L 58.33 6.39 L 100 6.39 L 100 0 L 0 0 L 0 100 L 100 100 L 100 93.61 L 58.33 93.61 L 58.33 93.61" fill="#2c5967" stroke="none" stroke-width="0.5"/>
  </g>
  <g transform="translate(16.00,2.00) scale(0.4000,0.4400)">
    <path d="M 13.43 100 L 18.92 93.61 L 11.94 93.61 L 6.47 93.61 L 6.47 89.04 L 6.47 6.39 L 94.54 6.39 L 100 0 L 93.05 0 L 6.47 0 L 0 0 L 0 6.39 L 0 93.61 L 0 100 L 6.47 100 L 13.43 100 L 13.43 100" fill="#2c5967" stroke="none" stroke-width="0.5"/>
  </g>
  <g transform="translate(21.00,7.00) scale(0.1800,0.0200)">
    <path d="M 100 0 L 0 0 L 0 100 L 100 100 L 100 0 L 100 0" fill="#2c5967" stroke="none" stroke-width="0.5"/>
  </g>
  <g transform="translate(21.00,12.00) scale(0.1800,0.0200)">
    <path d="M 100 0 L 0 0 L 0 100 L 100 100 L 100 0 L 100 0" fill="#2c5967" stroke="none" stroke-width="0.5"/>
  </g>
  <g transform="translate(21.00,17.00) scale(0.1800,0.0200)">
    <path d="M 100 0 L 0 0 L 0 100 L 100 100 L 100 0 L 100 0" fill="#2c5967" stroke="none" stroke-width="0.5"/>
  </g>
  <g transform="translate(58.00,8.00) scale(0.1900,0.2200)">
    <path d="M 11.32 0 L 0 12.5 L 15.43 12.5 L 85.6 12.5 L 85.6 100 L 100 100 L 100 0 L 11.32 0 L 11.32 0" fill="#2c5967" stroke="none" stroke-width="0.5"/>
  </g>
  <g transform="translate(25.00,49.00) scale(0.3200,0.0200)">
    <path d="M 6.93 0 L 0 100 L 8.81 100 L 100 100 L 100 0 L 6.93 0 L 6.93 0" fill="#2c5967" stroke="none" stroke-width="0.5"/>
  </g>
  <g transform="translate(20.00,2.00) scale(0.4000,0.5000)">
    <path d="M 5.41 100 L 100 3.2 L 94.57 0 L 0 96.8 L 5.41 100 L 5.41 100" fill="#2c5967" stroke="none" stroke-width="0.5"/>
  </g>
  <g transform="translate(48.00,39.00) scale(0.0800,0.0200)">
    <path d="M 100 0 L 0 0 L 0 100 L 100 100 L 100 0 L 100 0" fill="#2c5967" stroke="none" stroke-width="0.5"/>
  </g>
  <g transform="translate(48.00,44.00) scale(0.0800,0.0200)">
    <path d="M 100 0 L 0 0 L 0 100 L 100 100 L 100 0 L 100 0" fill="#2c5967" stroke="none" stroke-width="0.5"/>
  </g>
  <g transform="translate(59.00,32.00) scale(0.2300,0.2400)">
    <path d="M 0 0 L 0 100 L 100 100 L 100 0 L 0 0 L 0 0 M 87.81 88.53 L 12.19 88.53 L 12.19 11.48 L 87.81 11.48 L 87.81 88.53 L 87.81 88.53" fill="#2c5967" stroke="none" stroke-width="0.5"/>
  </g>
  <g transform="translate(65.00,40.00) scale(0.0200,0.0900)">
    <path d="M 100 0 L 0 0 L 0 100 L 100 100 L 100 0 L 100 0" fill="#2c5967" stroke="none" stroke-width="0.5"/>
  </g>
  <g transform="translate(69.00,40.00) scale(0.0600,0.0900)">
    <path d="M 50 0 L 0 0 L 0 100 L 29.48 100 L 29.48 68.09 L 50 68.09 C 67.75,68.09 79.48,65.96 88.27,59.58 C 97.07,53.19 100,44.68 100,34.04 C 100,23.41 97.07,14.9 88.27,8.51 C 79.48,4.26 67.75,0 50,0 L 50 0 M 64.66 46.81 C 61.73,48.93 52.93,51.07 44.14,51.07 L 29.48 51.07 L 29.48 19.16 L 44.14 19.16 C 52.93,19.16 61.73,21.28 64.66,23.41 C 67.75,25.53 70.68,29.79 70.68,36.18 C 70.68,40.42 70.68,44.68 64.66,46.81 L 64.66 46.81" fill="#2c5967" stroke="none" stroke-width="0.5"/>
  </g>
  <g transform="translate(59.00,13.00) scale(0.1200,0.1200)">
    <path d="M 0 0 L 0 100 L 100 100 L 100 0 L 0 0 L 0 0 M 77.75 77.78 L 22.25 77.78 L 22.25 22.22 L 77.75 22.22 L 77.75 77.78 L 77.75 77.78" fill="#2c5967" stroke="none" stroke-width="0.5"/>
  </g>
</svg>