<svg xmlns="http://www.w3.org/2000/svg" viewBox="0 0 84.0 129.0000000000001" width="84" height="129">
  <g transform="translate(1.00,1.00) scale(0.8200,0.8200)">
    <path d="M 81.8 100 L 81.8 93.9 L 89.08 93.9 L 55.1 59.76 C 54.13,71.46 51.46,81.71 47.33,89.51 C 42.23,98.29 37.14,100 33.74,100 C 33.25,100 32.52,100 31.8,99.76 C 22.09,98.05 16.02,83.17 13.83,70 C 12.86,65.12 12.38,59.27 12.14,53.17 L 0 53.17 L 0 47.07 L 12.14 47.07 C 12.38,40.73 12.86,34.63 13.83,29.51 C 16.99,11.46 24.51,0.24 33.74,0.24 C 39.08,0.24 48.54,4.15 53.64,30 C 54.13,33.41 54.61,36.83 54.85,40.24 L 88.83 6.1 L 81.55 6.1 L 81.55 0 L 99.27 0 L 99.27 17.8 L 93.45 17.8 L 93.45 10 L 56.8 47.07 L 88.11 47.07 L 83.25 42.44 L 87.38 38.05 L 100 50 L 87.62 62.44 L 83.25 58.05 L 88.35 52.93 L 57.04 52.93 L 93.45 89.76 L 93.45 82.19 L 99.51 82.19 L 99.51 100 L 81.8 100 L 81.8 100" fill="#FFFFFF" stroke="none" stroke-width="0.5"/>
  </g>
  <g transform="translate(0.00,0.00) scale(0.8400,0.8400)">
    <path d="M 96.93 2.38 L 96.93 17.38 L 93.38 17.38 L 93.38 8.1 L 53.9 48.1 L 53.9 48.33 L 89.84 48.33 L 83.92 42.62 L 86.29 40 L 96.93 50 L 86.53 60.48 L 84.16 58.1 L 90.31 51.9 L 53.9 51.9 L 93.38 91.67 L 93.38 82.62 L 96.93 82.62 L 96.93 97.62 L 82.03 97.62 L 82.03 94.05 L 90.78 94.05 L 53.66 56.67 C 53.19,67.62 50.83,78.81 46.1,87.86 C 41.61,95.48 37.12,97.38 33.81,97.38 C 33.33,97.38 32.62,97.38 32.15,97.14 C 23.17,95.48 17.73,80.95 15.6,69.05 C 14.89,64.05 14.19,57.86 14.19,51.67 L 2.36 51.67 L 2.36 48.1 L 14.19 48.1 C 14.19,41.67 14.89,35.48 15.84,30 C 18.91,13.33 25.77,2.62 34.04,2.62 C 38.77,2.62 47.28,6.43 52.01,30.71 C 52.72,34.52 53.19,38.57 53.43,43.1 L 90.78 5.95 L 82.03 5.95 L 82.03 2.38 L 96.93 2.38 L 96.93 2.38 M 99.29 0 L 96.93 0 L 82.03 0 L 79.67 0 L 79.67 2.38 L 79.67 5.95 L 79.67 8.33 L 82.03 8.33 L 85.11 8.33 L 55.56 37.86 C 55.32,35.24 54.85,32.86 54.61,30.48 C 49.65,5.48 40.9,0.24 34.28,0.24 C 24.59,0.24 17.02,11.43 13.71,29.76 C 12.77,34.52 12.29,40 12.06,45.95 L 2.36 45.95 L 0 45.95 L 0 48.33 L 0 51.9 L 0 54.29 L 2.36 54.29 L 11.82 54.29 C 12.06,59.76 12.53,65.24 13.48,69.76 C 15.84,83.1 21.75,97.86 31.91,99.76 C 32.62,99.76 33.33,100 34.04,100 C 37.59,100 43.03,98.1 48.23,89.29 C 52.01,81.91 54.61,72.86 55.56,62.38 L 85.11 91.67 L 82.03 91.67 L 79.67 91.67 L 79.67 94.05 L 79.67 97.62 L 79.67 100 L 82.03 100 L 96.93 100 L 99.29 100 L 99.29 97.62 L 99.29 82.62 L 99.29 80.24 L 96.93 80.24 L 93.38 80.24 L 91.02 80.24 L 91.02 82.62 L 91.02 85.95 L 59.58 54.05 L 84.4 54.05 L 82.27 56.19 L 80.62 57.86 L 82.27 59.52 L 84.63 61.9 L 86.29 63.57 L 87.94 61.9 L 98.34 51.43 L 100 49.76 L 98.34 48.1 L 87.94 38.1 L 86.29 36.43 L 84.63 38.1 L 82.27 40.71 L 80.62 42.38 L 82.27 44.05 L 83.92 45.71 L 59.34 45.71 L 91.02 13.81 L 91.02 17.38 L 91.02 19.76 L 93.38 19.76 L 96.93 19.76 L 99.29 19.76 L 99.29 17.38 L 99.29 2.38 L 99.29 0 L 99.29 0" fill="#FFFFFF" stroke="none" stroke-width="0.5"/>
  </g>
  <g transform="translate(2.00,2.00) scale(0.8000,0.8000)">
    <path d="M 100 15.75 L 100 0 L 84.25 0 L 84.25 3.75 L 93.5 3.75 L 54.25 42.75 C 54,38 53.5,33.75 52.75,29.75 C 47.75,4 38.75,0.25 33.75,0.25 C 25,0.25 17.75,11.5 14.5,29.25 C 13.25,35 12.75,41.5 12.5,48.25 L 0 48.25 L 0 52 L 12.5 52 C 12.5,58.5 13.25,64.75 14.25,70.25 C 16.5,82.75 22.25,98 31.75,99.75 C 32.25,99.75 32.75,100 33.5,100 C 37,100 41.75,98 46.5,90 C 51.5,80.5 53.75,68.75 54.5,57.25 L 93.75 96.5 L 84.5 96.5 L 84.5 100 L 100 100 L 100 84.25 L 96.25 84.25 L 96.25 93.75 L 54.5 52 L 92.75 52 L 86.25 58.5 L 88.75 61 L 100 50 L 89 39.5 L 86.5 42.25 L 92.75 48.25 L 54.5 48.25 L 54.5 48 L 96.25 6 L 96.25 15.75 L 100 15.75 L 100 15.75 M 42.25 87.5 C 40,91 37,95.25 33.25,95.25 C 33,95.25 32.75,95.25 32.5,95.25 C 27,94.25 21,83.5 18.75,69.5 C 17.75,64.25 17.25,58.25 17,52 L 39.25 52 L 32.75 58.5 L 35.5 61 L 46.5 50 L 35 39 L 32.5 41.75 L 39.25 48.25 L 17.25 48.25 C 17.25,42 18,35.5 19,30.25 C 22,12.75 28.75,5 33.5,5 C 38,5 44.25,11.75 48,30.75 C 51.25,47.75 50.5,72 42.25,87.5 L 42.25 87.5" fill="#2d5967" stroke="none" stroke-width="0.5"/>
  </g>
</svg>