<svg xmlns="http://www.w3.org/2000/svg" viewBox="0 0 84.0 109.0000000000001" width="84" height="109">
  <g transform="translate(1.00,12.00) scale(0.8100,0.7000)">
    <path d="M 52.93 100 C 51.66,100 50.13,99.71 48.6,99.43 C 44.52,98.29 39.95,94.57 39.95,91.14 L 39.95 67.43 L 26.71 67.43 L 37.14 79.14 L 27.23 90 L 0 59.43 L 27.23 28.86 L 37.14 40 L 26.71 51.71 L 39.95 51.71 L 39.95 32.57 L 28.5 20 C 26.2,18.86 24.94,17.14 24.94,15.14 L 24.94 8 C 24.94,7.43 24.94,6.86 25.19,6.57 C 25.96,3.71 29.52,1.71 35.88,0.57 L 38.17 0 L 37.14 2.29 C 36.9,3.14 36.64,4 36.64,4.86 C 36.64,5.14 36.64,6.57 36.64,6.57 L 36.13 7.14 C 35.11,7.43 34.1,7.71 33.34,8 L 34.1 8.29 C 34.35,8.29 34.85,8.57 35.11,8.57 L 36.38 8.86 C 39.69,9.71 44.78,10.29 49.11,10.29 C 52.42,10.29 56.49,9.71 59.54,9.14 L 60.81 8.86 C 62.6,8.57 64.12,8.29 65.15,7.71 C 64.38,7.43 63.36,7.14 62.34,7.14 L 60.56 6.86 L 61.33 5.14 C 61.83,4.29 62.09,3.14 62.09,2.29 L 62.09 0.57 L 63.62 0.86 C 70.24,2.29 73.54,4.57 73.54,8 C 73.54,8.29 73.54,8.86 73.29,9.14 L 73.29 15.43 C 73.29,17.43 72.27,18.86 70.24,20.29 L 59.28 32.57 L 59.28 51.71 L 73.29 51.71 L 62.86 40 L 72.77 28.86 L 100 59.43 L 72.77 90 L 62.86 78.86 L 73.29 67.14 L 59.28 67.14 L 59.28 95.14 C 59.28,96.29 58.78,97.43 57.77,98.29 C 56.75,99.43 54.96,100 52.93,100 L 52.93 100" fill="#FFFFFF" stroke="none" stroke-width="0.5"/>
  </g>
  <g transform="translate(0.00,11.00) scale(0.8400,0.7200)">
    <path d="M 36.85 3.6 C 36.36,4.71 36.36,5.54 36.36,6.65 C 36.36,6.93 36.36,6.93 36.36,7.2 C 33.66,7.76 31.45,8.59 30.71,9.14 C 31.2,9.7 32.44,9.97 33.91,10.53 L 34.4 10.53 C 34.64,10.53 35.14,10.8 35.63,10.8 C 38.57,11.63 44.47,12.74 49.39,12.74 C 53.31,12.74 57.99,11.91 60.94,11.36 C 64.63,10.8 67.07,9.7 68.06,8.86 C 67.32,8.31 65.11,7.48 62.16,6.65 C 62.65,5.54 62.9,4.43 62.9,3.05 C 67.32,4.16 71.25,5.82 71.25,8.59 C 71.25,8.86 71.25,9.14 71.01,9.42 L 71.01 15.79 C 71.01,17.17 70.28,18.28 68.55,19.39 L 57.5 32.13 L 57.5 52.63 L 75.19 52.63 L 63.89 39.89 L 66.09 37.4 L 71.75 31.02 L 96.31 58.73 L 71.75 86.43 L 66.34 81.16 L 64.12 78.67 L 75.42 65.93 L 57.74 65.93 L 57.74 94.46 C 57.74,95.29 57.5,95.84 56.76,96.4 C 56.02,97.23 54.55,97.51 52.82,97.51 C 51.6,97.51 50.36,97.23 48.9,96.95 C 45.21,96.12 41.53,92.52 41.53,90.3 L 41.53 65.93 L 24.58 65.93 L 35.88 78.67 L 33.66 81.16 L 28.01 87.53 L 3.44 59.83 L 28.01 32.13 L 33.66 38.5 L 35.88 41 L 24.58 53.46 L 41.53 53.46 L 41.53 32.96 L 29.98 20.22 C 28.01,19.11 27.27,18.01 27.27,16.62 L 27.27 9.7 C 27.27,9.42 27.27,9.14 27.51,8.86 C 28.01,6.09 32.19,4.43 36.85,3.6 L 36.85 3.6 M 41.04 0 L 36.61 0.83 C 29.98,2.22 26.29,4.16 25.31,7.48 C 25.06,8.03 24.81,8.86 24.81,9.42 L 24.81 16.34 C 24.81,18.84 26.05,20.78 28.75,22.16 L 39.31 33.79 L 39.31 40.17 L 37.84 38.5 L 35.63 36.01 L 29.98 29.64 L 28.25 27.7 L 26.54 29.64 L 1.96 57.34 L 0 59.56 L 1.73 61.5 L 26.29 89.2 L 28.01 91.14 L 29.72 89.2 L 35.37 82.83 L 37.59 80.33 L 39.06 78.67 L 39.06 90.03 C 39.06,94.46 44.47,98.61 48.4,99.45 C 49.88,99.72 51.35,100 52.82,100 C 55.29,100 57,99.45 58.47,98.34 C 59.7,97.23 60.2,95.84 60.2,94.18 L 60.2 68.42 L 69.54 68.42 L 62.65 76.18 L 60.94 78.12 L 62.65 80.06 L 64.86 82.55 L 70.51 88.92 L 72.24 90.86 L 73.71 89.2 L 98.27 61.5 L 100 59.56 L 98.27 57.62 L 73.71 29.92 L 71.99 27.98 L 70.28 29.92 L 64.63 36.29 L 62.41 38.78 L 60.69 40.72 L 62.41 42.66 L 69.29 50.42 L 59.95 50.42 L 59.95 33.79 L 70.02 22.16 C 72.98,20.5 73.46,18.01 73.46,16.34 L 73.46 10.8 C 73.71,10.25 73.71,9.97 73.71,9.42 C 73.71,3.32 65.85,1.66 63.15,1.11 L 60.44 0.55 L 60.44 3.88 C 60.44,4.71 60.2,5.54 59.95,6.09 L 58.47 9.42 L 58.72 9.42 L 57.99 9.7 C 55.29,10.25 52.09,10.53 49.39,10.53 C 45.95,10.53 42.01,9.97 39.06,9.42 L 38.82 7.2 C 38.82,6.93 38.82,6.93 38.82,6.93 C 38.82,6.09 39.06,5.54 39.31,4.71 L 41.04 0 L 41.04 0 M 30.46 50.69 L 37.35 42.94 L 38.82 41.27 L 38.82 50.69 L 30.46 50.69 L 30.46 50.69 M 30.46 68.7 L 38.82 68.7 L 38.82 78.12 L 37.35 76.45 L 30.46 68.7 L 30.46 68.7" fill="#FFFFFF" stroke="none" stroke-width="0.5"/>
  </g>
  <g transform="translate(36.00,1.00) scale(0.0900,0.0900)">
    <path d="M 50.05 100 C 77.62,100 100,77.61 100,50 C 100,22.39 77.62,0 50.05,0 C 22.38,0 0,22.39 0,50 C 0,77.61 22.38,100 50.05,100 L 50.05 100" fill="#FFFFFF" stroke="none" stroke-width="0.5"/>
  </g>
  <g transform="translate(35.00,0.00) scale(0.1200,0.1100)">
    <path d="M 50.04 17.24 C 68.97,17.24 82.73,32.76 82.73,50 C 82.73,67.24 67.22,82.76 50.04,82.76 C 32.78,82.76 15.51,68.97 15.51,50 C 15.51,31.03 31.03,17.24 50.04,17.24 L 50.04 17.24 M 50.04 0 C 22.44,0 0,22.41 0,50 C 0,77.59 22.44,100 50.04,100 C 77.56,100 100,77.59 100,50 C 100,22.41 77.56,0 50.04,0 L 50.04 0" fill="#FFFFFF" stroke="none" stroke-width="0.5"/>
  </g>
  <g transform="translate(31.00,11.00) scale(0.0900,0.0800)">
    <path d="M 77.01 97.67 C 56.25,95.35 33.37,93.02 12.5,88.37 L 8.37 88.37 L 6.25 83.72 C 2.12,74.42 0,65.12 0,55.81 C 0,25.58 22.88,0 50,0 C 77.01,0 100,25.58 100,55.81 C 100,69.77 95.76,83.72 85.38,95.35 L 81.25 100 L 77.01 97.67 L 77.01 97.67" fill="#FFFFFF" stroke="none" stroke-width="0.5"/>
  </g>
  <g transform="translate(30.00,10.00) scale(0.1200,0.1000)">
    <path d="M 49.14 18.87 C 67.76,18.87 81.38,35.85 81.38,54.72 C 81.38,64.15 77.93,73.59 72.84,79.25 C 54.22,79.25 35.6,77.36 20.34,73.59 C 16.98,67.92 15.26,62.26 15.26,54.72 C 15.26,35.85 30.52,18.87 49.14,18.87 L 49.14 18.87 M 49.14 0 C 22.07,0 0,24.53 0,54.72 C 0,64.15 1.72,73.59 6.81,83.02 L 10.17 90.57 L 18.62 92.45 C 35.6,96.23 55.95,98.11 72.84,100 L 81.38 100 L 86.47 94.34 C 94.91,84.91 100,69.81 100,56.6 C 98.28,26.41 76.29,0 49.14,0 L 49.14 0" fill="#FFFFFF" stroke="none" stroke-width="0.5"/>
  </g>
  <g transform="translate(42.00,9.00) scale(0.0900,0.0900)">
    <path d="M 50 100 C 22.88,100 0,77.08 0,50 C 0,22.92 22.88,0 50,0 C 77.01,0 100,22.92 100,50 C 100,77.08 77.01,100 50,100 L 50 100" fill="#FFFFFF" stroke="none" stroke-width="0.5"/>
  </g>
  <g transform="translate(41.00,8.00) scale(0.1200,0.1100)">
    <path d="M 50 17.24 C 68.95,17.24 82.72,32.76 82.72,50 C 82.72,67.24 67.19,82.76 50,82.76 C 32.72,82.76 17.19,67.24 17.19,50 C 17.19,32.76 31.05,17.24 50,17.24 L 50 17.24 M 50 0 C 22.37,0 0,22.41 0,50 C 0,77.59 22.37,100 50,100 C 77.54,100 100,77.59 100,50 C 100,22.41 77.54,0 50,0 L 50 0" fill="#FFFFFF" stroke="none" stroke-width="0.5"/>
  </g>
  <g transform="translate(13.00,14.00) scale(0.4500,0.6800)">
    <path d="M 95.03 17.46 C 98.2,16.57 99.56,15.09 99.56,13.61 L 99.56 6.8 C 100,6.51 100,6.21 100,5.92 C 100,2.96 92.77,0.89 84.62,0 C 84.62,1.48 84.16,2.66 83.26,3.85 C 88.7,4.44 92.77,5.33 94.13,6.21 C 92.31,7.1 87.34,7.99 81.01,8.88 C 75.58,9.47 66.97,10.35 59.74,10.35 C 50.69,10.35 39.83,9.17 34.39,8.28 C 33.49,8.28 33.03,7.99 32.14,7.99 L 31.24 7.99 C 28.52,7.4 26.24,6.8 25.35,6.51 C 26.7,5.92 30.32,5.03 35.75,4.44 C 35.75,4.14 35.75,4.14 35.75,3.85 C 35.75,2.66 36.21,1.48 36.65,0.59 C 28.06,0.59 20.37,2.37 19.01,5.33 C 18.55,5.62 18.55,5.92 18.55,6.21 L 18.55 13.61 C 18.55,15.09 20.37,16.57 23.53,17.46 L 44.8 31.06 L 44.8 52.96 L 14.04 52.96 L 34.85 39.35 L 30.78 36.69 L 0 56.8 L 45.26 56.8 L 51.13 56.8 L 51.13 33.43 C 53.41,33.73 56.12,34.02 59.28,34.02 C 63.35,34.02 66.53,33.73 69.24,33.43 L 69.24 96.15 C 67.89,96.45 65.17,96.74 60.2,95.86 C 55.66,95.27 51.59,92.9 51.13,92.01 L 51.13 62.42 L 23.09 62.42 L 0 62.42 L 30.78 82.54 L 34.85 79.88 L 14.04 66.27 L 45.26 66.27 L 45.26 92.31 C 45.26,94.97 52.49,98.52 58.84,99.41 C 61.53,99.7 63.81,100 66.07,100 C 69.24,100 71.96,99.7 73.32,98.82 C 74.22,98.22 75.12,97.63 75.12,96.74 L 75.12 31.06 L 95.03 17.46 L 95.03 17.46 M 29.88 11.24 L 32.57 11.83 C 38.47,13.02 49.77,13.91 59.74,13.91 C 67.43,13.91 76.47,13.02 81.91,12.43 L 84.62 12.13 C 88.24,11.54 91.41,11.24 94.13,10.35 L 94.13 13.61 C 91.85,14.79 76.47,17.16 59.28,17.16 C 42.08,17.16 26.7,15.09 24.45,13.31 L 24.45 10.06 C 26.24,10.35 28.06,10.95 29.88,11.24 L 29.88 11.24 M 59.28 21.01 C 67.89,21.01 76.47,20.41 83.72,19.53 L 70.14 28.7 C 68.78,29.59 65.17,30.18 59.28,30.18 C 53.84,30.18 51.13,29.88 50.23,28.99 L 35.75 19.82 C 43,20.41 51.13,21.01 59.28,21.01 L 59.28 21.01" fill="#2c5967" stroke="none" stroke-width="0.5"/>
  </g>
  <g transform="translate(50.00,57.00) scale(0.1900,0.1300)">
    <path d="M 0 0 L 0 19.12 L 66.63 19.12 L 17.18 86.76 L 26.86 100 L 100 0 L 0 0 L 0 0" fill="#2c5967" stroke="none" stroke-width="0.5"/>
  </g>
  <g transform="translate(58.00,34.00) scale(0.2200,0.4000)">
    <path d="M 8.26 0 L 0 5 L 82.55 50 L 0 95.5 L 8.26 100 L 100 50 L 8.26 0 L 8.26 0" fill="#2c5967" stroke="none" stroke-width="0.5"/>
  </g>
  <g transform="translate(50.00,39.00) scale(0.1900,0.1300)">
    <path d="M 0 100 L 100 100 L 26.86 0 L 17.18 13.24 L 66.63 80.88 L 0 80.88 L 0 100 L 0 100" fill="#2c5967" stroke="none" stroke-width="0.5"/>
  </g>
  <g transform="translate(37.00,2.00) scale(0.0700,0.0700)">
    <path d="M 100 50 C 100,21.05 76.31,0 50.07,0 C 23.69,0 0,23.68 0,50 C 0,76.32 23.69,100 50.07,100 C 76.31,100 100,78.95 100,50 L 100 50 M 50.07 34.21 C 60.51,34.21 65.73,42.11 65.73,50 C 65.73,57.89 57.83,65.79 50.07,65.79 C 42.17,65.79 34.27,57.89 34.27,50 C 34.27,42.11 39.49,34.21 50.07,34.21 L 50.07 34.21" fill="#2c5967" stroke="none" stroke-width="0.5"/>
  </g>
  <g transform="translate(31.00,12.00) scale(0.0800,0.0600)">
    <path d="M 0 60.61 C 0,72.73 2.61,81.82 7.69,90.91 C 30.77,96.97 58.93,100 87.09,100 C 94.78,90.91 100,75.76 100,60.61 C 100,27.27 76.92,3.03 51.24,3.03 C 23.08,0 0,27.27 0,60.61 L 0 60.61 M 66.62 60.61 C 66.62,72.73 58.93,78.79 51.24,78.79 C 40.94,78.79 35.85,69.7 35.85,60.61 C 35.85,48.49 43.55,42.42 51.24,42.42 C 58.93,39.39 66.62,48.49 66.62,60.61 L 66.62 60.61" fill="#2c5967" stroke="none" stroke-width="0.5"/>
  </g>
  <g transform="translate(42.00,10.00) scale(0.0700,0.0700)">
    <path d="M 0 50 C 0,78.95 23.69,100 49.93,100 C 78.85,100 100,76.32 100,50 C 100,23.68 76.31,0 49.93,0 C 23.69,0 0,23.68 0,50 L 0 50 M 68.41 50 C 68.41,60.53 60.51,65.79 52.61,65.79 C 42.03,65.79 36.81,57.89 36.81,50 C 36.81,39.47 44.71,34.21 52.61,34.21 C 60.51,34.21 68.41,42.11 68.41,50 L 68.41 50" fill="#2c5967" stroke="none" stroke-width="0.5"/>
  </g>
  <g transform="translate(2.00,34.00) scale(0.2200,0.4000)">
    <path d="M 100 5 L 91.74 0 L 0 50 L 91.74 100 L 100 95.5 L 16.52 50 L 100 5 L 100 5" fill="#2c5967" stroke="none" stroke-width="0.5"/>
  </g>
</svg>