<svg xmlns="http://www.w3.org/2000/svg" viewBox="0 0 77.0 125.00000000000017" width="77" height="125">
  <g transform="translate(1.00,1.00) scale(0.7500,0.8100)">
    <path d="M 39.33 90.09 L 43.12 86.69 C 42.33,86.57 41.55,86.42 40.76,86.23 L 39.74 86.01 C 39.04,85.84 38.36,85.65 37.68,85.43 C 37.23,85.32 36.78,85.18 36.35,85.02 L 34.7 84.42 L 33.05 83.76 L 31.98 83.28 L 29.89 82.24 L 29.14 81.81 C 28.32,81.35 27.62,80.94 26.97,80.5 L 25.84 79.75 L 24.72 78.98 L 23.65 78.16 C 22.2,77.02 20.85,75.78 19.6,74.46 L 18.66 73.47 L 17.82 72.43 L 16.98 71.42 C 16.51,70.79 16.07,70.16 15.63,69.51 L 15.1 68.69 C 14.74,68.11 14.4,67.53 14.06,66.92 C 13.72,66.32 13.64,66.15 13.46,65.79 C 13.27,65.43 12.96,64.77 12.75,64.27 C 12.54,63.76 12.28,63.25 12.1,62.74 C 11.96,62.39 11.85,62.03 11.76,61.66 C 11.47,60.88 11.26,60.26 11.08,59.6 L 10.87 58.69 C 10.69,57.96 10.5,57.21 10.37,56.46 L 10.16 55.26 C 10.16,54.82 10.01,54.39 9.96,53.93 L 9.96 52.77 L 0 52.77 L 0 47.31 L 9.88 47.31 L 9.88 46.15 C 9.88,45.69 10.01,45.25 10.09,44.82 L 10.29 43.61 C 10.29,42.86 10.61,42.11 10.82,41.36 C 11.03,40.61 10.97,40.69 11.05,40.44 C 11.24,39.79 11.44,39.16 11.68,38.51 C 11.91,37.86 11.97,37.71 12.1,37.3 C 12.23,36.89 12.54,36.26 12.78,35.76 C 13.01,35.25 13.22,34.77 13.48,34.26 C 13.74,33.75 13.9,33.49 14.11,33.1 C 14.32,32.71 14.76,31.94 15.13,31.36 L 15.68 30.51 C 16.1,29.89 16.54,29.26 17.01,28.63 L 17.82 27.62 C 18.08,27.25 18.37,26.89 18.66,26.55 L 19.6 25.54 C 20.85,24.25 22.2,23.04 23.65,21.94 L 24.69 21.09 L 25.87 20.29 L 26.91 19.57 C 27.59,19.14 28.3,18.72 28.98,18.34 L 29.87 17.83 L 31.8 16.86 L 33.03 16.31 C 33.57,16.07 34.12,15.85 34.67,15.66 L 36.32 15.03 L 37.5 14.67 L 39.72 14.06 L 40.71 13.82 L 43.12 13.34 L 39.33 9.91 L 50.04 0 L 60.78 9.91 L 57.04 13.34 L 59.39 13.8 L 60.41 14.04 C 61.12,14.21 61.8,14.4 62.48,14.62 L 63.81 15 L 65.46 15.63 L 67.1 16.28 C 67.44,16.43 67.78,16.57 68.1,16.74 L 68.36 16.86 C 68.98,17.15 69.61,17.47 70.24,17.81 L 71 18.22 L 73.19 19.55 L 74.34 20.32 L 75.44 21.07 L 76.51 21.89 C 77.92,23 79.24,24.22 80.46,25.51 L 81.4 26.53 C 81.68,26.87 81.97,27.23 82.23,27.59 L 83.04 28.61 C 83.51,29.23 83.96,29.86 84.37,30.49 L 84.92 31.31 C 85.29,31.89 85.63,32.5 85.94,33.08 L 86.57 34.24 C 86.83,34.73 87.07,35.24 87.28,35.76 C 87.51,36.26 87.75,36.77 87.93,37.28 C 88.11,37.79 88.22,38.03 88.35,38.42 C 88.48,38.8 88.82,39.77 89,40.42 L 89.23 41.34 C 89.44,42.09 89.6,42.84 89.76,43.59 L 89.97 44.79 C 90.05,45.23 90.12,45.68 90.15,46.12 L 90.15 47.28 L 100 47.28 L 100 52.72 L 90.15 52.72 L 90.15 53.85 C 90.11,54.29 90.05,54.73 89.97,55.16 L 89.76 56.39 C 89.6,57.14 89.44,57.89 89.23,58.61 L 89 59.56 C 88.82,60.21 88.61,60.84 88.37,61.46 C 88.25,61.88 88.1,62.29 87.93,62.7 C 87.75,63.2 87.51,63.71 87.28,64.22 C 87.04,64.73 86.83,65.23 86.57,65.74 L 85.99 66.8 C 85.63,67.48 85.29,68.06 84.92,68.64 L 84.37 69.46 C 83.96,70.11 83.51,70.74 83.04,71.37 L 82.26 72.36 L 81.4 73.45 L 80.48 74.49 C 79.23,75.75 77.88,76.93 76.46,78.01 L 75.41 78.86 L 74.31 79.61 L 73.17 80.38 C 72.49,80.82 71.81,81.23 71.1,81.61 L 70.24 82.12 C 69.58,82.46 68.96,82.77 68.3,83.06 L 68.07 83.06 L 67.08 83.52 L 65.43 84.18 L 63.78 84.78 L 62.45 85.19 C 61.77,85.41 61.09,85.6 60.39,85.77 L 59.37 85.99 C 58.58,86.18 57.8,86.33 57.02,86.45 L 60.78 90.09 L 50.04 100 L 39.33 90.09 L 39.33 90.09 M 52.99 89.64 L 56.18 86.83 L 55.81 86.83 C 55.34,86.91 54.86,86.97 54.38,87 L 53.12 87 L 52.99 89.64 L 52.99 89.64 M 47.11 89.64 L 47.11 87.22 L 45.86 87.22 C 45.38,87.19 44.9,87.13 44.42,87.05 L 44.06 87.05 L 47.11 89.64 L 47.11 89.64 M 54.25 12.95 L 55.68 13.14 L 56.05 13.14 L 52.99 10.36 L 52.99 12.78 L 54.25 12.95 L 54.25 12.95 M 44.06 13.19 L 44.42 13.19 L 45.86 13 L 47.11 12.78 L 47.11 10.36 L 44.06 13.19 L 44.06 13.19" fill="#FFFFFF" stroke="none" stroke-width="0.5"/>
  </g>
  <g transform="translate(1.00,0.00) scale(0.7700,0.8400)">
    <path d="M 50.19 3.29 L 54.05 6.82 L 54.18 6.93 L 58.88 11.23 L 56.63 13.29 L 54.07 10.95 L 51.7 8.76 L 51.7 15.22 L 54.07 15.39 L 55.91 15.64 L 56.68 15.64 C 57.45,15.64 58.19,15.92 58.95,16.09 L 59.9 16.3 L 61.86 16.83 L 63.12 17.21 L 64.67 17.79 L 66.41 18.44 L 67.59 18.98 C 68.2,19.26 68.79,19.54 69.37,19.87 L 70.22 20.34 C 70.88,20.71 71.54,21.08 72.18,21.5 L 72.77 21.92 C 73.28,22.25 73.79,22.58 74.28,22.93 C 76.34,24.46 78.22,26.18 79.9,28.06 C 80.28,28.51 80.64,28.97 81,29.42 L 81.46 29.98 C 81.92,30.56 82.32,31.17 82.73,31.78 C 83.14,32.38 83.06,32.27 83.24,32.55 C 83.42,32.83 83.91,33.62 84.21,34.18 C 84.52,34.74 84.6,34.91 84.8,35.26 C 85.01,35.61 85.26,36.19 85.47,36.68 C 85.67,37.17 85.9,37.61 86.08,38.1 C 86.26,38.59 86.36,38.87 86.51,39.25 C 86.67,39.62 86.92,40.44 87.1,41.05 L 87.33 41.91 C 87.51,42.61 87.66,43.29 87.82,43.99 C 87.82,44.22 87.82,44.45 87.82,44.69 C 87.82,44.92 88.02,45.81 88.1,46.37 C 88.1,47.1 88.15,47.82 88.25,48.54 L 97.88 48.54 L 97.88 51.37 L 88.22 51.37 C 88.22,52.1 88.17,52.82 88.07,53.54 C 88.07,54.1 87.89,54.66 87.79,55.22 C 87.69,55.78 87.79,55.69 87.79,55.92 C 87.64,56.62 87.48,57.3 87.3,58 L 87.07 58.86 C 86.9,59.47 86.69,60.05 86.49,60.66 C 86.28,61.27 86.21,61.41 86.05,61.8 C 85.9,62.2 85.65,62.76 85.44,63.23 C 85.24,63.69 85.01,64.18 84.78,64.65 L 84.19 65.72 L 83.22 67.36 L 82.71 68.13 C 82.3,68.74 81.89,69.32 81.43,69.9 L 80.97 70.49 C 80.61,70.93 80.25,71.4 79.87,71.84 C 78.14,73.76 76.2,75.5 74.07,77.05 C 73.59,77.4 73.08,77.73 72.57,78.05 L 71.98 78.47 C 71.34,78.89 70.68,79.27 70.01,79.64 L 69.17 80.11 C 68.58,80.41 67.99,80.72 67.38,81 L 66.21 81.53 L 64.65 82.14 L 63.09 82.7 L 61.84 83.1 L 59.87 83.63 L 58.93 83.84 L 56.65 84.29 L 55.89 84.29 L 54.05 84.54 C 53.25,84.54 52.46,84.59 51.67,84.68 L 51.67 91.06 L 54.05 88.89 L 56.6 86.55 L 58.85 88.61 L 54.15 92.9 L 52.41 94.47 L 50.17 96.52 L 47.92 94.47 L 46.21 92.9 L 41.53 88.72 L 43.78 86.67 L 46.33 89 L 48.53 91.06 L 48.53 84.75 C 47.73,84.75 46.94,84.71 46.16,84.61 L 44.32 84.36 L 43.55 84.36 L 41.28 83.91 L 40.33 83.7 L 38.36 83.17 L 37.11 82.77 C 36.58,82.61 36.07,82.4 35.56,82.21 L 34 81.6 L 32.82 81.07 C 32.21,80.79 31.62,80.48 31.03,80.18 L 30.19 79.71 C 29.53,79.34 28.86,78.96 28.22,78.54 L 27.64 78.12 C 27.13,77.8 26.62,77.47 26.13,77.12 C 24.07,75.59 22.19,73.86 20.51,71.98 C 20.13,71.54 19.77,71.07 19.41,70.61 C 19.05,70.14 19.11,70.26 18.95,70.04 C 18.49,69.46 18.08,68.88 17.67,68.27 C 17.5,68.01 17.32,67.76 17.16,67.5 C 17.01,67.24 16.5,66.4 16.19,65.87 L 15.61 64.79 C 15.38,64.32 15.15,63.83 14.94,63.37 C 14.74,62.9 14.51,62.41 14.3,61.94 C 14.1,61.48 14.02,61.17 13.9,60.8 C 13.77,60.43 13.49,59.61 13.31,59 L 13.08 58.14 C 12.9,57.44 12.75,56.76 12.59,56.04 C 12.59,55.83 12.59,55.59 12.59,55.36 C 12.59,55.12 12.39,54.24 12.31,53.68 C 12.31,52.95 12.31,52.23 12.13,51.51 L 2.55 51.51 L 2.55 48.54 L 12.16 48.54 C 12.16,47.82 12.16,47.09 12.34,46.37 C 12.34,45.81 12.52,45.25 12.62,44.69 C 12.72,44.13 12.62,44.22 12.62,43.99 C 12.77,43.29 12.92,42.61 13.1,41.91 L 13.33 41.05 C 13.51,40.44 13.72,39.83 13.92,39.25 L 14.33 38.1 C 14.53,37.61 14.74,37.15 14.97,36.68 C 15.2,36.21 15.4,35.72 15.63,35.26 C 15.86,34.79 16.02,34.53 16.22,34.18 C 16.42,33.83 16.83,33.08 17.19,32.55 C 17.4,32.27 17.63,32.01 17.88,31.75 C 18.29,31.17 18.7,30.56 19.16,29.98 L 19.62 29.42 C 19.97,28.97 20.33,28.51 20.72,28.06 C 22.39,26.18 24.27,24.46 26.33,22.93 L 27.82 21.92 L 28.43 21.5 C 29.07,21.08 29.73,20.71 30.39,20.34 C 30.67,20.17 30.95,20.01 31.24,19.87 C 31.83,19.57 32.41,19.26 33.03,18.98 L 34.2 18.44 L 35.76 17.84 L 37.32 17.25 L 38.57 16.88 L 40.41 16.34 L 41.35 16.13 C 42.12,15.97 42.86,15.81 43.63,15.69 L 44.39 15.69 L 46.23 15.43 L 48.53 15.22 L 48.53 8.85 L 46.16 11.04 L 43.6 13.38 L 41.35 11.32 L 46.23 7 L 46.23 6.89 L 50.06 3.36 L 50.19 3.29 L 50.19 3.29 M 50.06 0.07 L 48.53 1.66 L 44.7 5.16 L 44.55 5.16 L 39.72 9.57 L 37.93 11.23 L 39.72 12.89 L 40.79 13.85 L 40.51 13.85 L 39.74 14.01 L 37.65 14.59 L 37.52 14.59 L 36.32 14.94 L 34.64 15.55 L 33 16.34 L 31.93 16.83 L 31.75 16.83 C 31.09,17.14 30.45,17.44 29.83,17.77 L 29.17 18.14 L 28.91 18.28 C 28.22,18.68 27.53,19.08 26.85,19.52 C 26.69,19.61 26.54,19.71 26.41,19.82 L 26.18 19.96 L 25.77 20.24 L 24.6 21.01 L 22.43 22.62 C 21.71,23.23 21.02,23.84 20.36,24.49 L 18.54 26.45 L 17.67 27.5 L 17.42 28.02 L 17.27 28.23 C 17.14,28.35 17.03,28.48 16.93,28.62 C 16.45,29.26 16.02,29.89 15.58,30.52 L 15.58 30.73 L 15.15 31.36 C 14.79,31.92 14.46,32.5 14.13,33.11 C 13.79,33.71 13.69,33.88 13.49,34.25 C 13.28,34.63 13,35.26 12.77,35.75 C 12.54,36.24 12.34,36.77 12.13,37.29 C 11.93,37.8 11.85,38.01 11.72,38.36 L 11.72 38.5 C 11.49,39.13 11.29,39.76 11.08,40.42 C 11.08,40.65 11.08,40.88 10.91,41.12 L 10.91 41.35 C 10.7,42.07 10.52,42.82 10.4,43.68 L 10.4 44.17 L 10.4 44.41 L 10.4 44.9 C 10.4,45.34 10.24,45.76 10.19,46.23 L 0 46.23 L 0 53.7 L 9.73 53.7 C 9.73,54.14 9.86,54.59 9.94,55.03 L 9.94 55.5 L 10.22 56.04 L 10.22 56.5 C 10.34,57.27 10.52,58 10.73,58.84 L 10.73 59.07 C 10.73,59.3 10.73,59.54 10.91,59.77 C 11.11,60.42 11.31,61.06 11.54,61.69 L 11.93 62.81 C 12.16,63.32 12.36,63.83 12.59,64.32 C 12.82,64.82 13.05,65.35 13.31,65.84 L 13.9 66.89 C 14.28,67.57 14.61,68.18 14.97,68.74 L 15.38 69.34 L 15.53 69.58 C 15.96,70.21 16.4,70.84 16.88,71.47 L 17.21 71.89 L 17.37 72.08 L 17.67 72.45 C 17.96,72.82 18.24,73.17 18.54,73.52 L 20.33 75.51 C 21,76.16 21.68,76.79 22.4,77.4 L 24.52 79.03 L 25.67 79.83 L 26.1 80.11 L 26.33 80.27 L 26.74 80.55 C 27.43,81 28.15,81.39 28.84,81.79 L 29.07 81.91 L 29.73 82.28 C 30.37,82.63 31.01,82.93 31.67,83.24 L 31.8 83.24 L 32.92 83.75 L 34.58 84.4 L 36.24 85.01 L 37.45 85.38 L 37.57 85.38 C 38.26,85.59 38.95,85.78 39.67,85.95 L 40.43 86.13 L 40.69 86.13 L 39.62 87.11 L 37.83 88.77 L 39.62 90.43 L 44.32 94.72 L 46.05 96.29 L 48.3 98.34 L 50.09 100 L 51.9 98.34 L 54.15 96.29 L 55.89 94.72 L 60.56 90.43 L 62.38 88.77 L 60.56 87.11 L 59.49 86.13 L 59.74 86.13 L 60.51 85.95 C 61.23,85.78 61.92,85.59 62.6,85.38 L 63.91 84.99 L 65.62 84.36 C 66.16,84.17 66.72,83.94 67.25,83.7 C 67.79,83.47 67.99,83.38 68.35,83.21 L 68.51 83.21 C 69.14,82.91 69.81,82.61 70.42,82.26 L 71.26 81.72 L 71.52 81.72 C 72.21,81.32 72.9,80.93 73.59,80.48 L 74.05 80.18 L 74.25 80.04 L 74.66 79.76 L 75.84 78.96 L 77.98 77.35 C 78.67,76.75 79.36,76.14 80.02,75.49 L 81.86 73.5 C 82.17,73.15 82.45,72.78 82.76,72.4 L 83.04 72.05 L 83.19 71.87 L 83.53 71.44 C 84.01,70.82 84.44,70.19 84.88,69.55 L 84.88 69.34 L 85.29 68.74 C 85.67,68.15 86,67.55 86.33,66.96 C 86.67,66.38 86.77,66.17 86.95,65.82 C 87.13,65.47 87.46,64.82 87.66,64.3 C 87.87,63.79 88.12,63.3 88.33,62.78 C 88.53,62.27 88.61,62.04 88.73,61.66 L 88.73 61.55 C 88.97,60.94 89.18,60.31 89.35,59.65 C 89.35,59.42 89.35,59.19 89.55,58.95 L 89.55 58.72 C 89.76,57.97 89.94,57.25 90.06,56.5 L 90.06 55.99 L 90.06 55.76 L 90.06 55.29 C 90.06,54.84 90.22,54.4 90.27,53.96 L 100 53.96 L 100 46.21 L 90.65 46.21 C 90.65,45.74 90.52,45.32 90.45,44.88 L 90.45 44.41 L 90.45 44.17 L 90.45 43.66 C 90.45,42.91 90.14,42.19 89.94,41.33 L 89.94 41.07 C 89.94,40.84 89.94,40.63 89.76,40.39 C 89.58,39.74 89.37,39.11 89.14,38.48 L 89.14 38.36 C 89.02,37.99 88.89,37.64 88.73,37.26 C 88.58,36.89 88.3,36.24 88.07,35.75 C 87.84,35.26 87.61,34.72 87.36,34.23 C 87.1,33.74 87,33.53 86.79,33.18 C 86.41,32.48 86.08,31.89 85.72,31.33 L 85.31 30.73 L 85.16 30.49 C 84.72,29.86 84.29,29.23 83.81,28.6 L 83.47 28.2 L 82.99 28.02 L 82.68 27.64 C 82.4,27.27 82.12,26.92 81.81,26.57 L 80.02 24.56 C 79.36,23.91 78.67,23.28 77.98,22.69 L 75.81 21.01 L 74.64 20.22 L 74.23 19.94 L 74.07 19.89 L 73.61 19.59 C 72.92,19.15 72.23,18.75 71.52,18.35 L 71.31 18.23 L 70.63 17.84 C 70.01,17.51 69.35,17.21 68.71,16.9 L 68.56 16.9 L 67.41 16.34 L 65.75 15.69 L 64.09 15.11 L 62.89 14.73 L 62.76 14.73 L 60.66 14.01 L 59.9 14.01 L 59.64 14.01 L 60.71 13.05 L 62.53 11.39 L 60.71 9.74 L 55.99 5.28 L 55.86 5.28 L 52 1.66 L 50.19 0 L 50.06 0.07 L 50.06 0.07" fill="#FFFFFF" stroke="none" stroke-width="0.5"/>
  </g>
  <g transform="translate(42.00,45.00) scale(0.2600,0.2600)">
    <path d="M 0 90.5 L 0 100 C 25.53,97.22 49.36,85.8 67.54,67.62 C 85.72,49.43 97.17,25.58 100,0 L 90.6 0 C 87.86,23.1 77.42,44.6 60.98,61.02 C 44.54,77.44 23.06,87.83 0,90.5 L 0 90.5" fill="#2d5967" stroke="none" stroke-width="0.5"/>
  </g>
  <g transform="translate(10.00,45.00) scale(0.2600,0.2600)">
    <path d="M 9.41 0 L 0 0 C 2.83,25.58 14.28,49.43 32.46,67.62 C 50.64,85.8 74.47,97.22 100,100 L 100 90.5 C 76.95,87.83 55.46,77.44 39.02,61.02 C 22.58,44.6 12.15,23.1 9.41,0 L 9.41 0" fill="#2d5967" stroke="none" stroke-width="0.5"/>
  </g>
  <g transform="translate(42.00,12.00) scale(0.2600,0.2600)">
    <path d="M 90.6 100 L 100 100 C 97.22,74.43 85.79,50.58 67.6,32.4 C 49.42,14.21 25.57,2.78 0,0 L 0 9.41 C 23.09,12.11 44.6,22.52 61.04,38.96 C 77.48,55.4 87.89,76.91 90.6,100 L 90.6 100" fill="#2d5967" stroke="none" stroke-width="0.5"/>
  </g>
  <g transform="translate(10.00,12.00) scale(0.2600,0.2600)">
    <path d="M 100 9.41 L 100 0 C 74.43,2.78 50.58,14.21 32.4,32.4 C 14.21,50.58 2.78,74.43 0,100 L 9.41 100 C 12.11,76.91 22.52,55.4 38.96,38.96 C 55.41,22.52 76.91,12.11 100,9.41 L 100 9.41" fill="#2d5967" stroke="none" stroke-width="0.5"/>
  </g>
  <g transform="translate(33.00,2.00) scale(0.1300,0.7900)">
    <path d="M 59.2 5.95 L 72.89 8.3 L 87.03 10.7 L 100 8.5 L 72.89 3.9 L 72.16 3.78 L 49.92 0 L 27.83 3.78 L 27.1 3.9 L 0 8.5 L 12.96 10.7 L 27.1 8.3 L 40.79 5.95 L 40.79 94.05 L 27.1 91.73 L 12.96 89.33 L 0 91.52 L 27.1 96.13 L 36.96 97.8 L 49.92 100 L 62.89 97.8 L 72.89 96.13 L 100 91.52 L 87.03 89.33 L 72.89 91.73 L 59.2 94.05 L 59.2 5.95 L 59.2 5.95" fill="#2d5967" stroke="none" stroke-width="0.5"/>
  </g>
  <g transform="translate(41.00,35.00) scale(0.3500,0.1300)">
    <path d="M 13.24 40.8 L 18.41 27.1 L 23.75 12.96 L 18.86 0 L 8.62 27.1 L 0 49.93 L 8.62 72.9 L 18.86 100 L 23.75 87.04 L 18.41 72.9 L 13.24 59.21 L 100 59.21 L 100 40.8 L 13.24 40.8 L 13.24 40.8" fill="#2d5967" stroke="none" stroke-width="0.5"/>
  </g>
  <g transform="translate(2.00,35.00) scale(0.3500,0.1300)">
    <path d="M 86.76 59.21 L 81.59 72.9 L 76.25 87.04 L 81.14 100 L 95.1 62.89 L 100 49.93 L 95.1 37.11 L 81.14 0 L 76.25 12.96 L 81.59 27.1 L 86.76 40.8 L 0 40.8 L 0 59.21 L 86.76 59.21 L 86.76 59.21" fill="#2d5967" stroke="none" stroke-width="0.5"/>
  </g>
</svg>