<svg xmlns="http://www.w3.org/2000/svg" viewBox="0 0 75.0 125.00000000000017" width="75" height="125">
  <g transform="translate(21.00,0.00) scale(0.7300,0.8300)">
    <path d="M 49.93 99.96 C 48.27,99.98 46.65,99.48 45.35,98.57 C 44.06,97.66 43.14,96.38 42.78,94.94 C 42.42,93.51 42.62,92 43.36,90.69 C 44.1,89.37 45.33,88.31 46.82,87.7 L 46.82 81.49 C 41.62,81.07 36.57,79.64 32.05,77.31 C 27.53,74.98 23.63,71.81 20.64,68.01 L 14.53 71.12 C 14.61,71.85 14.53,72.59 14.31,73.3 C 13.9,74.67 13,75.87 11.73,76.73 C 10.47,77.58 8.93,78.04 7.34,78.04 C 6.06,78.04 4.81,77.74 3.7,77.18 C 2.59,76.61 1.67,75.8 1.03,74.82 C 0.55,74.09 0.24,73.28 0.12,72.43 C 0,71.59 0.07,70.74 0.34,69.92 C 0.64,68.93 1.21,68.02 1.99,67.27 C 2.77,66.52 3.74,65.94 4.83,65.59 C 5.91,65.24 7.07,65.13 8.22,65.26 C 9.36,65.39 10.45,65.76 11.4,66.34 L 17.51 63.2 C 15.34,59.05 14.21,54.53 14.22,49.95 C 14.2,45.37 15.34,40.84 17.54,36.69 L 11.43 33.6 C 10.23,34.34 8.8,34.75 7.34,34.75 C 6.07,34.75 4.84,34.45 3.74,33.89 C 2.91,33.48 2.19,32.92 1.6,32.26 C 1.02,31.59 0.59,30.83 0.34,30.02 C 0.07,29.2 0,28.34 0.12,27.5 C 0.24,26.66 0.55,25.84 1.03,25.11 C 1.68,24.14 2.6,23.33 3.71,22.77 C 4.81,22.21 6.06,21.92 7.34,21.92 C 8.59,21.91 9.82,22.2 10.9,22.76 C 11.74,23.17 12.46,23.73 13.05,24.4 C 13.63,25.07 14.06,25.84 14.31,26.66 C 14.53,27.36 14.61,28.1 14.53,28.84 L 20.67 31.93 C 23.66,28.13 27.55,24.96 32.07,22.64 C 36.59,20.31 41.62,18.89 46.82,18.46 L 46.82 12.23 C 45.34,11.61 44.13,10.56 43.41,9.24 C 42.7,7.93 42.49,6.44 42.85,5.02 C 43.21,3.59 44.12,2.32 45.4,1.41 C 46.68,0.5 48.27,0 49.93,0 C 51.56,0 53.17,0.5 54.45,1.41 C 55.73,2.32 56.64,3.59 57,5.02 C 57.36,6.44 57.15,7.93 56.44,9.24 C 55.72,10.56 54.51,11.61 53.02,12.23 L 53.02 18.46 C 58.23,18.88 63.28,20.3 67.8,22.63 C 72.33,24.95 76.24,28.13 79.23,31.93 L 85.35 28.84 C 85.28,28.1 85.35,27.37 85.57,26.66 C 85.81,25.84 86.25,25.07 86.83,24.4 C 87.41,23.74 88.14,23.18 88.98,22.76 C 90.07,22.2 91.3,21.91 92.57,21.92 C 93.83,21.92 95.08,22.22 96.19,22.78 C 97.3,23.35 98.2,24.16 98.85,25.13 C 99.68,26.4 100,27.88 99.76,29.32 C 99.51,30.77 98.71,32.1 97.5,33.09 C 96.28,34.08 94.73,34.67 93.07,34.76 C 91.42,34.85 89.8,34.44 88.44,33.6 L 82.34 36.71 C 84.51,40.87 85.63,45.4 85.63,49.98 C 85.63,54.56 84.51,59.09 82.34,63.25 L 88.44 66.36 C 89.67,65.62 91.12,65.21 92.6,65.21 C 93.86,65.22 95.1,65.52 96.19,66.08 C 97.28,66.64 98.2,67.45 98.84,68.43 C 99.47,69.4 99.8,70.5 99.8,71.62 C 99.8,72.75 99.47,73.85 98.85,74.82 C 98.2,75.8 97.3,76.61 96.19,77.18 C 95.08,77.74 93.83,78.04 92.57,78.04 C 91.3,78.05 90.07,77.76 88.98,77.2 C 87.78,76.6 86.81,75.72 86.16,74.64 C 85.53,73.57 85.24,72.36 85.35,71.14 L 79.23 68.03 C 76.24,71.83 72.35,75 67.82,77.33 C 63.29,79.65 58.26,81.07 53.04,81.49 L 53.04 87.72 C 54.55,88.34 55.77,89.39 56.51,90.71 C 57.26,92.03 57.46,93.53 57.1,94.96 C 56.72,96.4 55.82,97.68 54.52,98.6 C 53.22,99.51 51.61,100 49.95,99.99 L 49.93 99.96 L 49.93 99.96" fill="#FFFFFF" stroke="none" stroke-width="0.5"/>
  </g>
  <g transform="translate(21.00,0.00) scale(0.7500,0.8400)">
    <path d="M 50.03 1.81 C 51.45,1.82 52.81,2.28 53.89,3.1 C 54.98,3.93 55.69,5.06 55.95,6.31 C 56.19,7.55 55.93,8.83 55.22,9.93 C 54.51,11.03 53.39,11.87 52.05,12.3 L 52.05 19.87 C 57.32,20.15 62.44,21.53 67.01,23.89 C 71.56,26.24 75.46,29.52 78.34,33.45 L 85.73 29.67 C 85.54,28.87 85.54,28.05 85.73,27.26 C 86.11,25.89 87.08,24.72 88.43,23.98 C 89.12,23.63 89.88,23.4 90.68,23.31 C 91.47,23.22 92.27,23.27 93.04,23.46 C 93.8,23.64 94.52,23.96 95.15,24.39 C 95.78,24.83 96.32,25.37 96.71,25.98 C 97.1,26.6 97.36,27.28 97.46,27.98 C 97.57,28.68 97.51,29.4 97.3,30.08 C 97.09,30.76 96.74,31.41 96.25,31.97 C 95.75,32.53 95.15,33 94.46,33.35 C 93.55,33.82 92.52,34.07 91.47,34.07 C 90.01,34.06 88.61,33.59 87.52,32.75 L 80.12 36.53 C 82.44,40.69 83.64,45.27 83.64,49.92 C 83.64,54.56 82.44,59.14 80.12,63.31 L 87.52 67.09 C 88.63,66.25 90.03,65.79 91.48,65.79 C 92.54,65.79 93.56,66.03 94.46,66.49 C 95.15,66.84 95.75,67.31 96.25,67.87 C 96.74,68.43 97.09,69.07 97.3,69.76 C 97.51,70.44 97.57,71.15 97.46,71.86 C 97.36,72.56 97.1,73.24 96.71,73.85 C 96.32,74.47 95.78,75.01 95.15,75.44 C 94.52,75.88 93.8,76.19 93.04,76.38 C 92.27,76.57 91.47,76.61 90.68,76.52 C 89.88,76.43 89.12,76.21 88.43,75.85 C 87.08,75.12 86.11,73.94 85.73,72.58 C 85.54,71.78 85.54,70.96 85.73,70.17 L 78.34 66.39 C 75.46,70.32 71.56,73.59 67.01,75.95 C 62.44,78.31 57.32,79.69 52.05,79.97 L 52.05 87.53 C 53.4,87.96 54.54,88.79 55.26,89.89 C 55.97,90.99 56.24,92.28 56,93.53 C 55.75,94.78 55.02,95.92 53.94,96.74 C 52.84,97.56 51.46,98.01 50.03,98.01 C 48.6,98.01 47.22,97.56 46.12,96.74 C 45.04,95.92 44.29,94.78 44.05,93.53 C 43.82,92.28 44.08,90.99 44.8,89.89 C 45.52,88.79 46.66,87.96 48,87.53 L 48 80.07 C 42.72,79.78 37.6,78.41 33.03,76.04 C 28.45,73.68 24.57,70.4 21.68,66.46 L 14.33 70.24 C 14.55,71.34 14.39,72.47 13.87,73.49 C 13.34,74.5 12.47,75.35 11.38,75.9 C 10.57,76.31 9.67,76.54 8.75,76.59 C 7.82,76.64 6.9,76.5 6.05,76.18 C 5.19,75.86 4.43,75.37 3.82,74.74 C 3.22,74.12 2.78,73.38 2.54,72.59 C 2.3,71.79 2.28,70.95 2.46,70.15 C 2.64,69.34 3.03,68.58 3.59,67.92 C 4.15,67.27 4.88,66.74 5.71,66.37 C 6.54,66.01 7.45,65.81 8.38,65.81 C 9.83,65.82 11.23,66.29 12.33,67.13 L 19.68 63.33 C 17.36,59.17 16.15,54.6 16.15,49.95 C 16.15,45.31 17.36,40.73 19.68,36.58 L 12.3 32.8 C 11.21,33.64 9.82,34.11 8.38,34.12 C 6.84,34.03 5.39,33.42 4.34,32.42 C 3.28,31.41 2.7,30.09 2.7,28.72 C 2.7,27.34 3.28,26.02 4.34,25.01 C 5.39,24.01 6.84,23.4 8.38,23.31 C 9.43,23.32 10.47,23.56 11.38,24.03 C 12.73,24.76 13.7,25.94 14.08,27.31 C 14.29,28.1 14.29,28.92 14.08,29.71 L 21.47 33.5 C 24.36,29.57 28.24,26.29 32.81,23.93 C 37.36,21.58 42.49,20.2 47.75,19.91 L 47.75 12.3 C 46.4,11.86 45.26,11 44.56,9.88 C 43.86,8.76 43.62,7.46 43.89,6.2 C 44.15,4.94 44.93,3.8 46.05,3 C 47.18,2.19 48.58,1.77 50.03,1.81 L 50.03 1.81 M 50.03 0 C 48.26,0.02 46.54,0.55 45.14,1.51 C 43.75,2.48 42.73,3.83 42.27,5.35 C 41.82,6.87 41.93,8.49 42.59,9.95 C 43.27,11.41 44.45,12.63 45.97,13.44 L 45.97 18.25 C 41.06,18.76 36.32,20.16 32.05,22.37 C 27.78,24.57 24.06,27.53 21.12,31.06 L 16.49 28.68 C 16.49,28.05 16.39,27.43 16.19,26.83 C 15.92,25.91 15.45,25.05 14.8,24.3 C 14.15,23.55 13.33,22.93 12.41,22.47 C 11.18,21.84 9.79,21.51 8.38,21.5 C 6.95,21.51 5.55,21.84 4.31,22.48 C 3.08,23.12 2.05,24.04 1.35,25.14 C 0.29,26.8 0.01,28.76 0.57,30.6 C 1.13,32.44 2.49,34.01 4.35,34.96 C 5.57,35.59 6.94,35.92 8.35,35.93 C 9.78,35.92 11.17,35.58 12.41,34.94 L 17.09 37.35 C 15.15,41.34 14.15,45.64 14.15,49.99 C 14.15,54.34 15.15,58.64 17.09,62.63 L 12.41 65.02 C 11.19,64.37 9.8,64.02 8.38,64.01 C 6.6,64.01 4.87,64.53 3.46,65.49 C 2.05,66.45 1.03,67.8 0.56,69.33 C 0,71.17 0.28,73.14 1.35,74.79 C 2.05,75.9 3.08,76.81 4.31,77.45 C 5.55,78.09 6.95,78.43 8.38,78.43 C 9.78,78.42 11.16,78.09 12.38,77.47 C 13.31,77 14.12,76.38 14.77,75.63 C 15.42,74.88 15.9,74.02 16.17,73.11 C 16.37,72.5 16.48,71.87 16.49,71.23 L 21.12 68.82 C 24.05,72.37 27.78,75.35 32.05,77.56 C 36.34,79.78 41.07,81.19 45.99,81.7 L 45.99 86.52 C 44.45,87.32 43.24,88.54 42.56,90.01 C 41.88,91.48 41.75,93.11 42.21,94.65 C 42.68,96.18 43.7,97.54 45.11,98.51 C 46.53,99.48 48.27,100 50.06,100 C 51.84,100 53.57,99.48 54.99,98.51 C 56.41,97.54 57.42,96.18 57.89,94.65 C 58.35,93.11 58.24,91.48 57.55,90.01 C 56.86,88.54 55.65,87.32 54.11,86.52 L 54.11 81.7 C 59.03,81.19 63.76,79.78 68.04,77.57 C 72.31,75.36 76.03,72.39 78.97,68.85 L 83.64 71.25 C 83.64,71.88 83.74,72.5 83.92,73.11 C 84.48,74.95 85.85,76.52 87.7,77.47 C 88.94,78.11 90.33,78.45 91.76,78.45 C 93.2,78.46 94.6,78.13 95.84,77.5 C 97.08,76.86 98.1,75.95 98.82,74.85 C 99.54,73.75 99.92,72.5 99.92,71.23 C 99.92,69.96 99.54,68.71 98.82,67.61 C 98.1,66.51 97.08,65.6 95.84,64.96 C 94.6,64.33 93.2,64 91.76,64.01 C 90.33,64.01 88.94,64.35 87.7,64.99 L 83.05 62.58 C 84.97,58.58 85.97,54.27 85.97,49.92 C 85.97,45.56 84.97,41.25 83.05,37.25 L 87.7 34.84 C 88.94,35.48 90.33,35.81 91.76,35.81 C 93.18,35.81 94.59,35.48 95.81,34.84 C 96.98,34.26 97.96,33.42 98.68,32.41 C 99.38,31.41 99.82,30.26 99.9,29.07 C 100,27.88 99.76,26.69 99.21,25.61 C 98.66,24.52 97.82,23.57 96.77,22.84 C 95.71,22.11 94.46,21.63 93.14,21.44 C 91.82,21.24 90.47,21.34 89.2,21.72 C 87.94,22.1 86.8,22.76 85.89,23.63 C 84.97,24.5 84.31,25.55 83.98,26.7 C 83.78,27.31 83.69,27.93 83.69,28.56 L 79.01 30.97 C 76.06,27.43 72.32,24.48 68.04,22.28 C 63.75,20.09 59,18.7 54.09,18.2 L 54.09 13.39 C 55.58,12.57 56.75,11.35 57.39,9.9 C 58.04,8.45 58.15,6.85 57.69,5.34 C 57.24,3.83 56.24,2.5 54.86,1.53 C 53.47,0.57 51.79,0.03 50.03,0 L 50.03 0 L 50.03 0" fill="#FFFFFF" stroke="none" stroke-width="0.5"/>
  </g>
  <g transform="translate(22.00,1.00) scale(0.7100,0.8100)">
    <path d="M 96.75 67.21 C 95.6,66.64 94.3,66.39 93,66.51 C 91.69,66.62 90.47,67.08 89.47,67.83 L 81.75 63.91 C 84.16,59.58 85.43,54.82 85.43,50 C 85.43,45.18 84.16,40.42 81.75,36.09 L 89.47 32.17 C 90.62,33.04 92.09,33.53 93.6,33.54 C 94.78,33.54 95.94,33.24 96.94,32.69 C 97.94,32.14 98.75,31.35 99.26,30.41 C 99.78,29.47 100,28.43 99.88,27.39 C 99.76,26.35 99.32,25.36 98.6,24.53 C 97.88,23.7 96.93,23.07 95.82,22.7 C 94.72,22.33 93.52,22.24 92.35,22.44 C 91.19,22.64 90.13,23.13 89.27,23.84 C 88.4,24.55 87.78,25.46 87.46,26.46 C 87.25,27.29 87.25,28.14 87.46,28.97 L 79.74 32.89 C 76.71,28.81 72.65,25.41 67.89,22.96 C 63.11,20.51 57.76,19.08 52.24,18.79 L 52.24 10.88 C 53.66,10.44 54.83,9.57 55.6,8.43 C 56.35,7.29 56.63,5.95 56.36,4.65 C 56.11,3.35 55.35,2.17 54.2,1.32 C 53.07,0.47 51.61,0 50.13,0 C 48.63,0 47.19,0.47 46.04,1.32 C 44.89,2.17 44.13,3.35 43.88,4.65 C 43.63,5.95 43.89,7.29 44.66,8.43 C 45.41,9.57 46.6,10.44 48,10.88 L 48 18.74 C 42.5,19.03 37.13,20.46 32.37,22.91 C 27.59,25.36 23.53,28.76 20.5,32.84 L 12.67 28.92 C 12.89,28.09 12.89,27.24 12.67,26.41 C 12.27,25 11.25,23.77 9.84,23.01 C 8.83,22.49 7.67,22.22 6.5,22.24 C 5.33,22.26 4.19,22.57 3.2,23.12 C 2.22,23.68 1.42,24.47 0.91,25.4 C 0.39,26.33 0.18,27.36 0.29,28.39 C 0.4,29.42 0.82,30.41 1.52,31.24 C 2.22,32.07 3.17,32.71 4.26,33.09 C 5.34,33.48 6.53,33.59 7.68,33.42 C 8.84,33.25 9.92,32.8 10.8,32.12 L 18.55 36.04 C 16.12,40.36 14.86,45.12 14.86,49.94 C 14.86,54.76 16.12,59.51 18.55,63.83 L 10.55 67.83 C 9.66,67.16 8.59,66.72 7.44,66.56 C 6.3,66.39 5.12,66.5 4.04,66.89 C 2.97,67.27 2.03,67.91 1.34,68.74 C 0.64,69.56 0.22,70.54 0.11,71.56 C 0,72.59 0.21,73.62 0.72,74.54 C 1.23,75.46 2.02,76.25 3,76.8 C 3.97,77.36 5.11,77.66 6.27,77.69 C 7.43,77.71 8.58,77.45 9.58,76.94 C 10.72,76.36 11.63,75.49 12.18,74.43 C 12.74,73.38 12.9,72.2 12.67,71.06 L 20.36 67.13 C 23.39,71.22 27.46,74.63 32.23,77.09 C 37.01,79.54 42.36,80.97 47.89,81.26 L 47.89 89.12 C 46.48,89.56 45.29,90.43 44.54,91.57 C 43.79,92.71 43.51,94.05 43.76,95.35 C 44.03,96.65 44.79,97.83 45.92,98.68 C 47.07,99.53 48.51,100 50.01,100 C 51.51,100 52.95,99.53 54.1,98.68 C 55.23,97.83 55.99,96.65 56.26,95.35 C 56.51,94.05 56.23,92.71 55.48,91.57 C 54.73,90.43 53.54,89.56 52.13,89.12 L 52.13 81.26 C 57.64,80.97 62.99,79.54 67.77,77.09 C 72.55,74.64 76.61,71.24 79.62,67.16 L 87.36 71.09 C 87.15,71.91 87.15,72.76 87.36,73.59 C 87.75,75.01 88.77,76.23 90.18,76.99 C 90.9,77.35 91.71,77.59 92.53,77.69 C 93.35,77.78 94.19,77.73 95,77.53 C 95.79,77.34 96.54,77.01 97.21,76.56 C 97.87,76.11 98.43,75.55 98.84,74.91 C 99.25,74.27 99.51,73.57 99.63,72.84 C 99.74,72.11 99.68,71.37 99.46,70.65 C 99.24,69.94 98.87,69.28 98.35,68.7 C 97.84,68.11 97.21,67.62 96.49,67.26 L 96.75 67.21 L 96.75 67.21 M 24.04 65.26 L 31.48 61.46 C 32.92,62.92 34.79,64.01 36.88,64.61 C 39.67,65.25 42.64,64.89 45.14,63.61 L 52.44 59.85 L 50.04 56.2 L 44.1 59.28 L 41.98 56.03 L 47.95 53.13 L 45.82 49.9 L 39.88 52.95 L 37.56 49.22 L 43.5 46.17 L 41.38 42.92 L 34.03 46.72 C 31.94,47.91 30.35,49.67 29.51,51.73 C 28.68,53.79 28.62,56.04 29.35,58.13 L 21.95 62.01 C 19.88,58.27 18.8,54.16 18.81,50 C 18.75,44.06 20.87,38.26 24.86,33.47 C 28.84,28.68 34.47,25.17 40.89,23.44 C 47.33,21.72 54.23,21.88 60.54,23.91 C 66.86,25.94 72.27,29.72 75.95,34.69 L 69.76 37.84 L 69.58 37.57 C 67.95,35.87 65.68,34.73 63.2,34.33 C 60.7,33.93 58.14,34.31 55.92,35.39 L 49.52 38.69 L 51.7 41.92 L 46.05 44.75 L 48.45 48.37 L 54.05 45.62 L 56.17 48.85 L 50.69 51.63 L 52.8 54.85 L 58.3 52.03 L 60.7 55.63 L 67.09 52.33 C 69.15,51.15 70.73,49.42 71.58,47.39 C 72.43,45.37 72.52,43.15 71.81,41.07 L 78.08 37.89 C 82.18,44.23 83.27,51.75 81.11,58.79 C 78.93,65.84 73.7,71.83 66.54,75.46 C 59.36,79.09 50.86,80.05 42.89,78.14 C 34.92,76.23 28.15,71.59 24.04,65.26 L 24.04 65.26 M 91.56 27.51 C 91.63,27.27 91.75,27.04 91.93,26.85 C 92.09,26.65 92.31,26.48 92.56,26.36 C 92.8,26.22 93.07,26.12 93.35,26.08 C 93.65,26.03 93.94,26.04 94.22,26.09 C 94.52,26.15 94.78,26.26 95.02,26.42 C 95.25,26.57 95.44,26.77 95.59,26.99 C 95.74,27.22 95.82,27.47 95.85,27.72 C 95.88,27.98 95.85,28.24 95.77,28.48 C 95.68,28.73 95.53,28.96 95.34,29.15 C 95.15,29.35 94.91,29.5 94.65,29.62 C 94.16,29.85 93.6,29.91 93.07,29.78 C 92.55,29.65 92.09,29.34 91.83,28.92 C 91.66,28.7 91.56,28.46 91.52,28.2 C 91.47,27.95 91.49,27.69 91.56,27.44 L 91.56 27.51 L 91.56 27.51 M 50.01 3.73 C 50.44,3.73 50.85,3.84 51.19,4.05 C 51.54,4.25 51.82,4.55 51.97,4.89 C 52.13,5.24 52.17,5.62 52.08,5.98 C 52.01,6.34 51.8,6.68 51.49,6.94 C 51.2,7.2 50.82,7.38 50.41,7.45 C 49.99,7.52 49.57,7.48 49.17,7.33 C 48.79,7.18 48.47,6.94 48.23,6.63 C 48,6.32 47.88,5.95 47.89,5.58 C 47.89,5.09 48.13,4.62 48.52,4.27 C 48.92,3.92 49.45,3.73 50.01,3.73 L 50.01 3.73 M 8.25 28.74 C 7.98,29.16 7.53,29.47 7,29.6 C 6.47,29.73 5.91,29.68 5.43,29.44 C 4.95,29.19 4.61,28.8 4.46,28.33 C 4.31,27.86 4.37,27.37 4.63,26.94 C 4.83,26.67 5.09,26.45 5.41,26.3 C 5.73,26.14 6.08,26.06 6.44,26.06 C 6.82,26.06 7.19,26.14 7.52,26.29 C 8,26.55 8.36,26.96 8.51,27.44 C 8.57,27.68 8.59,27.92 8.54,28.16 C 8.5,28.4 8.4,28.63 8.25,28.84 L 8.25 28.74 L 8.25 28.74 M 8.48 72.46 C 8.33,72.94 7.97,73.35 7.49,73.61 C 7.01,73.83 6.44,73.88 5.92,73.76 C 5.39,73.63 4.94,73.32 4.66,72.91 C 4.4,72.48 4.34,71.99 4.49,71.52 C 4.64,71.05 4.98,70.66 5.45,70.41 C 5.93,70.17 6.5,70.12 7.03,70.25 C 7.56,70.38 8.01,70.69 8.28,71.11 C 8.43,71.33 8.52,71.57 8.55,71.82 C 8.59,72.07 8.56,72.32 8.48,72.56 L 8.48 72.46 L 8.48 72.46 M 50.01 96.27 C 49.58,96.27 49.17,96.16 48.83,95.95 C 48.48,95.75 48.2,95.45 48.04,95.11 C 47.89,94.76 47.85,94.38 47.94,94.02 C 48.01,93.66 48.22,93.32 48.52,93.06 C 48.82,92.8 49.2,92.62 49.61,92.55 C 50.02,92.48 50.45,92.52 50.85,92.67 C 51.23,92.82 51.55,93.06 51.79,93.37 C 52.02,93.68 52.14,94.05 52.13,94.42 C 52.13,94.91 51.89,95.38 51.49,95.73 C 51.1,96.08 50.57,96.27 50.01,96.27 L 50.01 96.27 M 95.44 73.14 C 95.16,73.55 94.72,73.86 94.19,73.99 C 93.66,74.12 93.09,74.07 92.62,73.84 C 92.37,73.72 92.15,73.55 91.99,73.35 C 91.81,73.16 91.69,72.93 91.62,72.69 C 91.55,72.41 91.53,72.12 91.59,71.84 C 91.66,71.56 91.8,71.3 91.99,71.07 C 92.19,70.84 92.44,70.66 92.74,70.53 C 93.02,70.4 93.34,70.34 93.66,70.34 C 94.03,70.33 94.38,70.42 94.71,70.58 C 95.18,70.84 95.53,71.25 95.66,71.73 C 95.81,72.2 95.72,72.71 95.44,73.14 L 95.44 73.14" fill="#2d5967" stroke="none" stroke-width="0.5"/>
  </g>
</svg>