<svg xmlns="http://www.w3.org/2000/svg" viewBox="0 0 78.0 125.00000000000017" width="78" height="125">
  <g transform="translate(11.00,1.00) scale(0.7400,0.8200)">
    <path d="M 50.4 100 C 47.16,100 43.94,98.78 41.77,96.82 C 39.08,94.38 38.01,91.2 38.28,87.78 L 20.22 78.48 C 18.06,80.2 15.1,81.42 12.13,81.42 C 8.9,81.42 5.66,80.2 3.51,78.24 C 1.08,76.04 0,73.35 0,70.42 C 0,67.48 1.34,64.55 3.51,62.59 C 4.85,61.37 6.47,60.64 8.09,59.9 L 8.09 41.08 C 6.47,40.59 4.85,39.61 3.51,38.39 C 1.08,36.19 0,33.5 0,30.56 C 0,27.63 1.08,24.69 3.24,22.49 C 5.66,20.54 8.63,19.32 11.86,19.32 C 14.83,19.32 17.52,20.29 19.68,21.76 L 38.01 12.22 C 37.47,8.8 38.81,5.62 41.5,3.18 C 43.94,0.98 46.89,0 50.13,0 C 53.37,0 56.6,1.22 58.75,3.18 C 61.45,5.62 62.8,9.29 62.26,12.71 L 80.05 22 C 82.21,20.29 85.17,19.32 87.87,19.32 C 91.1,19.32 94.34,20.54 96.49,22.49 C 98.92,24.69 100,27.38 100,30.32 C 100,33.25 98.66,36.19 96.49,38.14 C 95.42,39.12 93.53,40.34 91.37,41.08 L 91.37 59.66 C 93.53,60.15 95.15,61.12 96.49,62.1 C 98.92,64.3 100,66.99 100,69.93 C 100,72.86 98.66,75.79 96.49,77.75 C 94.07,79.95 91.1,80.93 87.87,80.93 C 84.63,80.93 81.68,79.95 79.51,78 L 61.99 87.04 C 62.53,90.46 61.19,93.89 58.48,96.33 C 56.6,98.78 53.64,100 50.4,100 L 50.4 100" fill="#FFFFFF" stroke="none" stroke-width="0.5"/>
  </g>
  <g transform="translate(10.00,0.00) scale(0.7800,0.8400)">
    <path d="M 49.87 2.38 C 52.46,2.38 55.3,3.33 57.37,5.23 C 59.95,7.6 60.98,10.93 60.21,14.25 L 79.08 24.23 C 80.88,22.33 83.46,21.38 86.05,21.38 C 88.63,21.38 91.48,22.33 93.54,24.23 C 95.62,26.13 96.65,28.5 96.65,31.12 C 96.65,33.73 95.62,36.1 93.54,38 C 92,39.43 90.19,40.38 88.37,40.86 L 88.37 60.81 C 90.45,61.28 92,61.76 93.54,63.18 C 95.62,65.08 96.65,67.46 96.65,70.07 C 96.65,72.68 95.62,75.06 93.54,76.96 C 91.48,78.86 88.89,79.81 86.05,79.81 C 83.46,79.81 80.63,78.86 78.55,76.96 C 78.29,76.72 78.29,76.72 78.29,76.49 L 59.95 86.22 C 60.72,89.31 59.69,92.87 57.1,95.01 C 55.04,96.91 52.46,97.86 49.61,97.86 C 46.78,97.86 44.19,96.91 42.12,95.01 C 39.79,92.87 38.5,89.55 39.28,86.46 L 20.68 76.01 L 20.42 76.25 C 18.34,78.15 15.76,79.1 12.92,79.1 C 10.34,79.1 7.49,78.15 5.43,76.25 C 3.62,74.58 2.58,71.97 2.58,69.6 C 2.58,66.98 3.62,64.61 5.68,62.71 C 6.97,61.52 8.53,60.57 10.34,60.33 L 10.34 40.38 C 8.53,39.91 6.97,39.19 5.68,38 C 3.62,35.87 2.58,33.49 2.58,30.88 C 2.58,28.27 3.62,25.89 5.68,23.99 C 7.75,22.33 10.34,21.38 12.92,21.38 C 15.51,21.38 18.08,22.33 20.16,23.99 L 39.28 13.78 C 38.5,10.69 39.53,7.36 42.12,5.23 C 44.44,3.33 47.04,2.38 49.87,2.38 L 49.87 2.38 M 49.87 0 C 46.52,0 43.16,1.19 40.56,3.56 C 37.99,5.94 36.7,9.26 36.7,12.59 L 20.42 21.14 C 18.34,19.72 15.76,19 12.92,19 C 9.56,19 6.2,20.19 3.88,22.57 C 1.29,24.94 0,27.79 0,31.12 C 0,34.2 1.29,37.29 3.88,39.67 C 4.91,40.62 6.46,41.57 7.75,42.04 L 7.75 58.67 C 6.2,59.38 4.91,60.1 3.88,61.05 C 1.29,63.42 0,66.27 0,69.6 C 0,72.68 1.29,75.77 3.88,78.15 C 6.46,80.52 9.56,81.71 13.17,81.71 C 16.02,81.71 18.86,80.76 21.19,79.34 L 36.96 87.65 C 36.96,90.97 38.24,94.06 40.82,96.44 C 43.41,98.81 46.52,100 50.13,100 C 53.49,100 56.84,98.81 59.44,96.44 C 62.01,94.06 63.57,90.5 63.32,87.17 L 78.55 79.1 C 80.88,80.76 83.72,81.71 86.83,81.71 C 90.19,81.71 93.54,80.52 96.13,78.15 C 98.71,75.77 100,72.92 100,69.6 C 100,66.51 98.71,63.42 96.13,61.05 C 94.83,59.86 93.54,59.14 91.74,58.43 L 91.74 42.04 C 93.28,41.33 94.83,40.38 96.13,39.19 C 98.71,36.82 100,33.97 100,30.64 C 100,27.55 98.71,24.47 96.13,22.09 C 93.54,19.72 90.45,18.53 86.83,18.53 C 83.98,18.53 81.4,19.24 79.08,20.9 L 63.32 12.59 C 63.57,9.03 62.27,5.7 59.44,3.09 C 56.59,1.19 53.24,0 49.87,0 L 49.87 0" fill="#FFFFFF" stroke="none" stroke-width="0.5"/>
  </g>
  <g transform="translate(12.00,1.00) scale(0.7300,0.8100)">
    <path d="M 90.95 61.39 L 90.95 40.59 C 93.15,40.1 95.07,39.11 96.43,37.62 C 98.63,35.64 99.73,33.17 99.73,30.45 C 99.73,27.72 98.63,25.25 96.43,23.27 C 92.05,19.31 85.2,19.31 80.83,23.27 L 60.82 13.37 C 61.64,10.15 60.55,6.44 57.82,3.96 C 53.43,0 46.58,0 42.2,3.96 C 39.45,6.44 38.36,9.65 39.18,12.87 L 18.91 23.51 C 14.53,19.8 7.68,19.8 3.29,23.76 C 1.11,25.5 0,27.97 0,30.69 C 0,33.42 1.11,35.89 3.29,37.87 C 4.66,39.11 6.31,40.1 8.23,40.35 L 8.23 61.14 C 6.31,61.63 4.66,62.38 3.29,63.61 C 1.11,65.84 0,68.32 0,71.04 C 0,73.76 1.11,76.24 3.29,78.22 C 5.48,79.95 8.23,80.94 10.96,80.94 C 13.71,80.94 16.71,79.95 18.91,77.97 L 19.19 77.72 L 39.18 88.12 C 38.63,91.34 39.72,94.56 42.2,97.03 C 44.38,99.01 47.13,100 50.14,100 C 52.88,100 55.89,99.01 58.09,97.03 C 60.82,94.56 61.92,91.09 61.1,87.87 L 80.54 77.72 C 80.54,77.97 80.83,77.97 80.83,78.22 C 83.01,80.2 85.75,81.19 88.77,81.19 C 91.5,81.19 94.52,80.2 96.71,78.22 C 98.91,76.24 100,73.76 100,71.04 C 100,68.32 98.91,65.84 96.71,63.86 C 94.79,62.38 92.88,61.88 90.95,61.39 L 90.95 61.39 M 58.64 83.66 C 58.36,83.42 58.09,83.17 57.82,82.92 C 56.44,81.68 54.52,80.69 52.61,80.45 L 52.61 63.12 C 56.16,62.87 59.46,61.63 62.46,59.9 L 77.81 67.82 C 77.26,69.55 76.99,71.54 77.81,73.52 L 58.64 83.66 L 58.64 83.66 M 42.2 82.92 C 41.92,83.17 41.38,83.66 41.1,83.91 L 21.65 73.76 C 22.19,71.78 22.19,69.8 21.65,67.82 L 36.99 59.65 C 40.27,61.39 43.84,62.62 47.68,62.87 L 47.68 80.2 C 45.75,80.69 43.84,81.44 42.2,82.92 L 42.2 82.92 M 13.43 40.59 C 15.62,40.1 17.55,39.36 18.91,37.87 C 19.19,37.62 19.19,37.62 19.46,37.38 L 32.88 44.31 C 31.24,45.79 29.87,47.52 28.76,49.51 L 27.94 50.5 L 28.49 51.49 C 29.6,53.47 30.97,55.2 32.6,56.68 L 18.91 63.86 C 17.26,62.38 15.35,61.63 13.43,61.14 L 13.43 40.59 L 13.43 40.59 M 41.38 17.08 C 41.65,17.33 41.92,17.82 42.2,18.07 C 43.84,19.55 45.75,20.3 47.68,20.79 L 47.68 37.87 C 43.84,38.12 40.27,39.36 36.99,41.09 L 21.92 33.17 C 22.47,31.19 22.47,29.21 21.65,27.23 L 41.38 17.08 L 41.38 17.08 M 57.82 18.07 C 58.09,17.82 58.36,17.57 58.36,17.33 L 77.81 27.48 C 76.99,29.46 76.99,31.44 77.53,33.17 L 63.01 41.09 C 60,39.36 56.44,38.12 52.88,37.87 L 52.88 20.54 C 54.52,20.3 56.44,19.31 57.82,18.07 L 57.82 18.07 M 63.84 53.47 C 56.16,60.4 44.11,60.4 36.44,53.47 C 35.35,52.48 34.52,51.49 33.7,50.5 C 34.52,49.51 35.35,48.52 36.44,47.52 C 44.11,40.59 56.16,40.59 63.84,47.52 C 64.94,48.52 65.76,49.51 66.58,50.5 C 65.48,51.49 64.66,52.48 63.84,53.47 L 63.84 53.47 M 80.83 63.86 C 80.83,63.86 80.54,63.86 80.83,63.86 L 67.12 56.93 C 67.12,56.93 67.4,56.93 67.4,56.68 C 69.03,55.2 70.42,53.47 71.51,51.49 L 72.06 50.5 L 71.51 49.51 C 70.42,47.52 69.03,45.79 67.4,44.31 L 80.54 37.38 C 80.83,37.62 80.83,37.62 81.1,37.87 C 82.47,39.11 84.38,40.1 86.29,40.59 L 86.29 61.39 C 83.83,61.63 82.19,62.62 80.83,63.86 L 80.83 63.86 M 84.38 26.98 C 86.85,24.75 90.41,24.75 92.88,26.98 C 93.97,27.97 94.52,29.46 94.52,30.69 C 94.52,32.18 93.97,33.42 92.88,34.41 C 91.77,35.4 90.13,36.14 88.49,35.89 C 86.85,35.89 85.47,35.4 84.38,34.41 C 82.47,32.67 81.92,29.95 83.56,27.72 C 83.83,27.48 84.11,27.23 84.38,26.98 L 84.38 26.98 M 45.75 7.18 C 48.22,4.95 51.78,4.95 54.25,7.18 C 56.16,8.91 56.44,11.39 55.34,13.37 C 55.07,13.86 54.52,14.36 54.25,14.85 C 51.78,17.08 48.22,17.08 45.75,14.85 C 45.2,14.36 44.66,13.86 44.38,13.12 C 43.56,11.14 44.11,8.66 45.75,7.18 L 45.75 7.18 M 5.21 30.69 C 5.21,29.21 5.75,27.97 6.86,26.98 C 9.32,24.75 12.89,24.75 15.35,26.98 C 15.62,27.23 15.89,27.48 16.17,27.72 C 17.82,29.95 17.55,32.67 15.35,34.65 C 14.25,35.64 12.61,36.39 10.96,36.14 C 9.32,36.14 7.95,35.64 6.86,34.65 C 5.75,33.66 5.21,32.18 5.21,30.69 L 5.21 30.69 M 6.86 74.75 C 5.75,73.76 5.21,72.28 5.21,71.04 C 5.21,69.55 5.75,68.32 6.86,67.33 C 7.95,66.34 9.32,65.84 10.96,65.84 C 12.61,65.84 14.25,66.34 15.35,67.33 C 17.26,69.06 17.55,71.78 16.17,73.76 C 15.89,74.26 15.62,74.51 15.35,75 C 12.89,76.98 9.32,76.98 6.86,74.75 L 6.86 74.75 M 54.25 93.81 C 51.78,96.04 48.22,96.04 45.75,93.81 C 44.11,92.33 43.56,90.1 44.38,87.87 C 44.66,87.13 45.2,86.63 45.75,86.14 C 48.22,83.91 51.78,83.91 54.25,86.14 C 54.8,86.63 55.07,87.13 55.34,87.62 C 56.44,89.85 56.16,92.33 54.25,93.81 L 54.25 93.81 M 92.88 74.75 C 90.41,76.98 86.85,76.98 84.38,74.75 C 84.11,74.26 83.56,74.01 83.29,73.52 C 81.92,71.54 82.47,68.81 84.38,67.08 C 85.47,66.09 86.85,65.59 88.49,65.59 C 90.13,65.59 91.77,66.09 92.88,67.08 C 93.97,68.07 94.52,69.55 94.52,70.79 C 94.52,72.53 93.97,73.76 92.88,74.75 L 92.88 74.75 M 56.71 50.5 C 56.71,53.71 53.98,56.19 50.41,56.19 C 46.86,56.19 44.11,53.71 44.11,50.5 C 44.11,47.28 46.86,44.8 50.41,44.8 C 53.7,44.8 56.71,47.28 56.71,50.5 L 56.71 50.5" fill="#2d5967" stroke="none" stroke-width="0.5"/>
  </g>
</svg>