<svg xmlns="http://www.w3.org/2000/svg" viewBox="0 0 84.0 125.00000000000001" width="84" height="125">
  <g transform="translate(1.00,1.00) scale(0.8200,0.8200)">
    <path d="M 86.99 100 L 69.41 77.63 L 37.29 77.63 L 27.06 87.9 L 26.18 87.02 C 24.7,85.54 22.69,84.71 20.59,84.71 C 18.5,84.71 16.49,85.54 15,87.02 L 14.13 87.9 L 5.38 79.12 L 0 74.02 L 0 0 L 100 0 L 100 100 L 86.99 100 L 86.99 100" fill="#FFFFFF" stroke="none" stroke-width="0.5"/>
  </g>
  <g transform="translate(0.00,-0.00) scale(0.8400,0.8400)">
    <path d="M 97.58 2.38 L 97.58 97.62 L 86.67 97.62 L 69.58 75.79 L 37.07 75.79 L 35.29 77.6 L 33.34 79.55 L 27.59 85.31 C 26.76,84.48 25.78,83.82 24.7,83.37 C 23.61,82.92 22.45,82.69 21.28,82.69 C 20.11,82.69 18.95,82.92 17.86,83.37 C 16.78,83.82 15.8,84.48 14.97,85.31 L 8.94 79.26 L 7.27 77.6 L 2.38 72.93 L 2.38 2.38 L 97.58 2.38 L 97.58 2.38 M 99.95 0 L 0 0 L 0 73.95 L 0.74 74.67 L 5.63 79.43 L 7.27 81.05 L 13.31 87 L 14.97 88.69 L 16.63 87 C 17.24,86.39 17.96,85.9 18.75,85.57 C 19.55,85.24 20.4,85.07 21.26,85.07 C 22.12,85.07 22.97,85.24 23.76,85.57 C 24.55,85.9 25.27,86.39 25.88,87 L 27.57 88.69 L 29.23 87 L 34.98 81.24 L 36.93 79.29 L 38.05 78.17 L 68.42 78.17 L 84.79 99.1 L 85.55 100 L 100 100 L 100 0 L 99.95 0 L 99.95 0" fill="#FFFFFF" stroke="none" stroke-width="0.5"/>
  </g>
  <g transform="translate(11.00,71.00) scale(0.1200,0.1200)">
    <path d="M 51.11 99.97 C 41.21,100 31.53,97.09 23.28,91.6 C 15.04,86.13 8.61,78.32 4.81,69.18 C 1,60.05 0,49.99 1.92,40.29 C 3.84,30.58 8.6,21.67 15.6,14.67 L 19.27 11.34 L 22.77 8.67 C 31.15,3.05 41.02,0.03 51.11,0 C 60.64,0.29 69.9,3.3 77.79,8.67 L 81.12 11.17 C 82.55,12.22 83.88,13.39 85.12,14.67 C 89.84,19.31 93.58,24.85 96.13,30.96 C 98.68,37.06 100,43.62 100,50.24 C 100,56.86 98.68,63.41 96.13,69.52 C 93.58,75.62 89.84,81.16 85.12,85.81 C 76,94.68 63.83,99.75 51.11,99.97 L 51.11 99.97" fill="#FFFFFF" stroke="none" stroke-width="0.5"/>
  </g>
  <g transform="translate(10.00,70.00) scale(0.1400,0.1400)">
    <path d="M 50.69 14.33 C 57.46,14.36 64.06,16.4 69.71,20.21 C 70.56,20.69 71.36,21.27 72.08,21.94 L 74.31 23.95 C 80.27,30.78 83.44,39.68 83.19,48.84 C 82.94,58 79.28,66.71 72.98,73.18 C 66.66,79.67 58.17,83.41 49.25,83.67 C 40.32,83.93 31.64,80.67 24.98,74.56 C 21.73,71.23 19.16,67.27 17.41,62.92 C 15.66,58.56 14.76,53.9 14.78,49.18 C 14.74,44.49 15.63,39.83 17.38,35.5 C 19.14,31.17 21.72,27.24 24.98,23.95 L 25.82 23.23 L 27.49 21.65 L 28.34 21.65 L 30.43 20.21 C 36.45,16.19 43.52,14.14 50.69,14.33 L 50.69 14.33 M 50.69 0 C 41.32,0.02 32.15,2.8 24.28,8.03 L 21.63 10.04 L 20.51 10.89 L 18.28 13.05 L 17.58 13.05 L 15.06 14.33 C 8.27,21.4 3.67,30.38 1.83,40.12 C 0,49.86 1.01,59.94 4.75,69.1 C 8.48,78.25 14.77,86.07 22.82,91.57 C 30.87,97.06 40.33,100 50,100 C 59.67,100 69.12,97.06 77.17,91.57 C 85.23,86.07 91.52,78.25 95.25,69.1 C 98.99,59.94 100,49.86 98.16,40.12 C 96.33,30.38 91.73,21.4 84.94,14.33 L 84.1 14.33 L 83.4 14.33 C 83.4,14.33 81.86,12.9 81.03,12.05 L 80.33 12.05 L 77.39 9.89 C 69.68,3.9 60.37,0.44 50.69,0 L 50.69 0" fill="#FFFFFF" stroke="none" stroke-width="0.5"/>
  </g>
  <g transform="translate(2.00,2.00) scale(0.8000,0.8000)">
    <path d="M 0.15 0 L 0 69.57 C 1.31,68.5 2.7,67.53 4.17,66.67 L 4.17 4.17 L 95.86 4.17 L 95.86 95.82 L 90.56 95.82 L 72.62 72.92 L 43.24 72.92 L 43.36 72.92 L 45.46 75.02 L 45.61 75.18 L 47.25 76.95 L 70.59 76.95 L 88.54 100 L 100 100 L 100 0 L 0.15 0 L 0.15 0" fill="#2d5967" stroke="none" stroke-width="0.5"/>
  </g>
  <g transform="translate(22.00,20.00) scale(0.1800,0.2700)">
    <path d="M 36.17 84.31 L 67.21 100 L 100 52.64 L 100 0 L 0 0 L 0 56.91 L 35.85 56.91 L 36.17 84.31 L 36.17 84.31 M 18.58 44.9 L 18.58 12.15 L 82.08 12.15 L 82.08 49.39 L 60.22 80.84 L 54.64 78.31 L 54.64 44.9 L 18.58 44.9 L 18.58 44.9" fill="#2d5967" stroke="none" stroke-width="0.5"/>
  </g>
  <g transform="translate(44.00,20.00) scale(0.1800,0.2700)">
    <path d="M 36.05 84.31 L 67.03 100 L 100 52.64 L 100 0 L 0 0 L 0 56.91 L 36.05 56.91 L 36.05 84.31 L 36.05 84.31 M 18.35 44.9 L 18.35 12.15 L 82.2 12.15 L 82.2 49.39 L 60.22 80.84 L 54.4 78.31 L 54.4 44.9 L 18.35 44.9 L 18.35 44.9" fill="#2d5967" stroke="none" stroke-width="0.5"/>
  </g>
  <g transform="translate(2.00,54.00) scale(0.3100,0.0800)">
    <path d="M 7.45 100 C 8.15,97.29 8.91,94.81 9.67,92.32 C 20.75,56.85 35.12,37.23 50,37.23 C 64.88,37.23 79.25,56.85 90.33,92.32 C 91.09,94.81 91.85,97.29 92.55,100 L 100 73.36 C 86.69,26.36 68.72,0 50,0 C 31.28,0 13.31,26.36 0,73.36 L 7.45 100 L 7.45 100" fill="#2d5967" stroke="none" stroke-width="0.5"/>
  </g>
  <g transform="translate(6.00,60.00) scale(0.2300,0.0700)">
    <path d="M 50.04 0.04 C 40.75,0 31.54,5.93 22.95,17.48 C 14.37,29.05 6.57,46.01 0,67.42 L 10.01 100 C 11.36,95.58 12.72,91.43 14.16,87.56 C 24.29,60.78 36.95,46.15 50,46.15 C 63.05,46.15 75.71,60.78 85.83,87.56 C 87.28,91.43 88.63,95.58 89.99,100 L 100 67.42 C 93.45,46.04 85.66,29.08 77.09,17.51 C 68.51,5.96 59.32,0.01 50.04,0.04 L 50.04 0.04" fill="#2d5967" stroke="none" stroke-width="0.5"/>
  </g>
  <g transform="translate(10.00,66.00) scale(0.1500,0.0500)">
    <path d="M 50.32 0.27 C 32.68,0 15.66,18.06 2.62,50.84 L 0 57.35 L 14.94 100 C 19.5,87.38 24.93,77.37 30.9,70.54 C 36.87,63.71 43.27,60.18 49.74,60.18 C 56.2,60.18 62.6,63.71 68.57,70.54 C 74.54,77.37 79.97,87.38 84.53,100 L 100 57.35 L 97.37 50.84 C 84.51,18.48 67.74,0.46 50.32,0.27 L 50.32 0.27" fill="#2d5967" stroke="none" stroke-width="0.5"/>
  </g>
  <g transform="translate(13.00,72.00) scale(0.1000,0.1000)">
    <path d="M 81.54 13.13 L 78.41 10.36 C 77.4,9.43 76.27,8.63 75.08,7.97 C 67.17,2.77 57.95,0 48.54,0 C 39.11,0 29.9,2.77 22,7.97 L 19.05 9.96 L 17.88 9.96 L 15.53 12.14 L 14.35 13.13 C 9.78,17.69 6.16,23.13 3.7,29.14 C 1.25,35.15 0,41.59 0.05,48.1 C 0.03,54.63 1.29,61.1 3.74,67.13 C 6.19,73.16 9.8,78.65 14.35,83.26 C 18.79,88.3 24.2,92.37 30.24,95.21 C 36.29,98.05 42.83,99.62 49.5,99.81 C 56.15,100 62.78,98.81 68.97,96.31 C 75.16,93.82 80.77,90.06 85.48,85.28 C 90.2,80.51 93.9,74.8 96.36,68.52 C 98.83,62.24 100,55.53 99.81,48.77 C 99.63,42.02 98.08,35.38 95.28,29.24 C 92.47,23.12 88.46,17.64 83.49,13.13 L 81.54 13.13 L 81.54 13.13" fill="#2d5967" stroke="none" stroke-width="0.5"/>
  </g>
</svg>