<svg xmlns="http://www.w3.org/2000/svg" viewBox="0 0 84.0 114.0000000000001" width="84" height="114">
  <g transform="translate(48.00,37.00) scale(0.3900,0.3500)">
    <path d="M 0 100 L 0 0 L 100 0 L 100 80.39 L 31.96 80.39 L 18.27 100 L 0 100 L 0 100" fill="#FFFFFF" stroke="none" stroke-width="0.5"/>
  </g>
  <g transform="translate(47.00,36.00) scale(0.4000,0.3700)">
    <path d="M 95.7 4.74 L 95.7 76.58 L 31.67 76.58 L 18.75 95.26 L 4.32 95.26 L 4.32 4.74 L 95.7 4.74 L 95.7 4.74 M 100 0 L 0 0 L 0 100 L 20.74 100 L 22.04 98.15 L 33.79 81.32 L 100 81.32 L 100 0 L 100 0" fill="#FFFFFF" stroke="none" stroke-width="0.5"/>
  </g>
  <g transform="translate(5.00,0.00) scale(0.6600,0.4800)">
    <path d="M 51.36 100 L 36.61 73.43 L 26.46 73.43 C 19.44,73.43 12.71,69.56 7.76,62.67 C 2.79,55.79 0,46.45 0,36.71 C 0,26.98 2.79,17.64 7.76,10.75 C 12.71,3.87 19.44,0 26.46,0 L 73.54 0 C 80.56,0 87.29,3.87 92.24,10.75 C 97.21,17.64 100,26.98 100,36.71 C 100,46.45 97.21,55.79 92.24,62.67 C 87.29,69.56 80.56,73.43 73.54,73.43 L 62.49 73.43 L 62.49 100 L 51.36 100 L 51.36 100" fill="#FFFFFF" stroke="none" stroke-width="0.5"/>
  </g>
  <g transform="translate(4.00,0.00) scale(0.6900,0.4900)">
    <path d="M 72.53 3.67 C 75.76,3.53 78.98,4.29 82,5.91 C 85.01,7.53 87.76,9.98 90.08,13.11 C 92.4,16.24 94.25,19.99 95.51,24.14 C 96.77,28.28 97.42,32.74 97.42,37.24 C 97.42,41.74 96.77,46.2 95.51,50.34 C 94.25,54.49 92.4,58.24 90.08,61.37 C 87.76,64.5 85.01,66.95 82,68.57 C 78.98,70.19 75.76,70.96 72.53,70.81 L 60.7 70.81 L 60.7 96.38 L 51.87 96.38 L 37.78 70.81 L 27.44 70.81 C 24.21,70.96 20.99,70.19 17.99,68.57 C 14.97,66.95 12.23,64.5 9.9,61.37 C 7.58,58.24 5.73,54.49 4.47,50.34 C 3.22,46.2 2.56,41.74 2.56,37.24 C 2.56,32.74 3.22,28.28 4.47,24.14 C 5.73,19.99 7.58,16.24 9.9,13.11 C 12.23,9.98 14.97,7.53 17.99,5.91 C 20.99,4.29 24.21,3.53 27.44,3.67 L 72.53 3.67 L 72.53 3.67 M 72.53 0.16 L 27.44 0.16 C 23.87,0 20.32,0.85 17,2.64 C 13.68,4.44 10.65,7.15 8.08,10.6 C 5.54,14.06 3.49,18.2 2.11,22.78 C 0.71,27.35 0,32.27 0,37.24 C 0,42.21 0.71,47.13 2.11,51.7 C 3.49,56.28 5.54,60.42 8.08,63.88 C 10.65,67.34 13.68,70.04 17,71.84 C 20.32,73.63 23.87,74.48 27.44,74.33 L 36.52 74.33 L 49.87 98.63 L 50.63 100 L 63.25 100 L 63.25 74.33 L 72.56 74.33 C 76.13,74.48 79.68,73.63 83,71.83 C 86.32,70.03 89.35,67.33 91.92,63.86 C 94.46,60.4 96.5,56.26 97.89,51.69 C 99.27,47.11 100,42.19 99.98,37.22 C 99.98,32.25 99.27,27.34 97.88,22.76 C 96.5,18.19 94.45,14.05 91.89,10.59 C 89.34,7.13 86.3,4.43 82.97,2.64 C 79.65,0.84 76.1,0 72.53,0.16 L 72.53 0.16" fill="#FFFFFF" stroke="none" stroke-width="0.5"/>
  </g>
  <g transform="translate(57.00,46.00) scale(0.2200,0.0400)">
    <path d="M 100 0 L 0 0 L 0 100 L 100 100 L 100 0 L 100 0" fill="#2d5967" stroke="none" stroke-width="0.5"/>
  </g>
  <g transform="translate(57.00,53.00) scale(0.2200,0.0400)">
    <path d="M 100 0 L 0 0 L 0 100 L 100 100 L 100 0 L 100 0" fill="#2d5967" stroke="none" stroke-width="0.5"/>
  </g>
  <g transform="translate(49.00,38.00) scale(0.3700,0.3300)">
    <path d="M 0 0 L 0 100 L 15.64 100 L 29.78 79.36 L 100 79.36 L 100 0 L 0 0 L 0 0 M 88.52 66.68 L 24.31 66.68 L 11.56 85.28 L 11.56 12.68 L 88.52 12.68 L 88.52 66.68 L 88.52 66.68" fill="#2d5967" stroke="none" stroke-width="0.5"/>
  </g>
  <g transform="translate(5.00,1.00) scale(0.6500,0.4600)">
    <path d="M 100 36.33 C 100,31.57 99.34,26.86 98.03,22.47 C 96.75,18.07 94.86,14.08 92.48,10.72 C 90.09,7.36 87.26,4.7 84.15,2.89 C 81.02,1.08 77.69,0.15 74.32,0.16 L 26.42 0.16 C 22.99,0 19.57,0.82 16.38,2.57 C 13.18,4.31 10.26,6.95 7.8,10.32 C 5.33,13.69 3.37,17.73 2.03,22.2 C 0.69,26.66 0,31.46 0,36.31 C 0,41.16 0.69,45.96 2.03,50.42 C 3.37,54.89 5.33,58.93 7.8,62.3 C 10.26,65.67 13.18,68.31 16.38,70.06 C 19.57,71.8 22.99,72.62 26.42,72.46 L 37.41 72.46 L 52.38 100 L 61.75 100 L 61.75 72.46 L 74.32 72.46 C 77.69,72.48 81.02,71.56 84.15,69.75 C 87.26,67.94 90.08,65.28 92.48,61.92 C 94.86,58.57 96.75,54.58 98.03,50.19 C 99.34,45.79 100,41.09 100,36.33 L 100 36.33 M 55.24 63.3 L 55.24 90.23 L 40.6 63.3 L 26.42 63.3 C 23.86,63.43 21.3,62.84 18.9,61.54 C 16.5,60.25 14.31,58.28 12.45,55.76 C 10.6,53.24 9.13,50.22 8.12,46.88 C 7.12,43.54 6.61,39.94 6.61,36.31 C 6.61,32.68 7.12,29.08 8.12,25.74 C 9.13,22.4 10.6,19.38 12.45,16.86 C 14.31,14.34 16.5,12.37 18.9,11.08 C 21.3,9.78 23.86,9.19 26.42,9.32 L 74.32 9.32 C 76.9,9.19 79.46,9.78 81.86,11.08 C 84.26,12.37 86.45,14.34 88.3,16.86 C 90.16,19.38 91.62,22.4 92.62,25.74 C 93.64,29.08 94.15,32.68 94.15,36.31 C 94.15,39.94 93.64,43.54 92.62,46.88 C 91.62,50.22 90.16,53.24 88.3,55.76 C 86.45,58.28 84.26,60.25 81.86,61.54 C 79.46,62.84 76.9,63.43 74.32,63.3 L 55.24 63.3 L 55.24 63.3" fill="#2d5967" stroke="none" stroke-width="0.5"/>
  </g>
  <g transform="translate(45.00,9.00) scale(0.1800,0.1800)">
    <path d="M 100 50.57 C 100,40.77 97.14,31.19 91.7,23.04 C 86.27,14.88 78.53,8.52 69.51,4.76 C 60.43,0.99 50.5,0 40.86,1.9 C 31.28,3.8 22.42,8.51 15.47,15.43 C 8.58,22.35 3.81,31.18 1.91,40.79 C 0,50.39 0.95,60.35 4.71,69.41 C 8.46,78.46 14.8,86.2 22.98,91.65 C 31.11,97.09 40.7,100 50.5,100 C 63.62,100 76.18,94.8 85.48,85.53 C 94.73,76.26 100,63.69 100,50.57 L 100 50.57 M 23.71 50.57 C 23.71,45.25 25.28,40.05 28.2,35.62 C 31.17,31.19 35.31,27.73 40.25,25.68 C 45.18,23.64 50.56,23.1 55.77,24.13 C 60.99,25.17 65.81,27.73 69.56,31.49 C 73.32,35.25 75.9,40.04 76.91,45.26 C 77.97,50.48 77.41,55.89 75.39,60.8 C 73.32,65.71 69.84,69.91 65.41,72.85 C 60.99,75.79 55.77,77.36 50.5,77.34 C 43.39,77.31 36.6,74.49 31.56,69.47 C 26.57,64.46 23.71,57.66 23.71,50.57 L 23.71 50.57" fill="#2d5967" stroke="none" stroke-width="0.5"/>
  </g>
  <g transform="translate(13.00,9.00) scale(0.1800,0.1800)">
    <path d="M 50.56 0.02 C 40.81,0 31.22,2.89 23.04,8.32 C 14.91,13.75 8.52,21.47 4.76,30.52 C 1.01,39.56 0,49.52 1.91,59.13 C 3.81,68.74 8.52,77.57 15.41,84.51 C 22.37,91.44 31.17,96.16 40.81,98.08 C 50.39,100 60.37,99.03 69.39,95.28 C 78.48,91.54 86.21,85.19 91.65,77.05 C 97.09,68.9 100,59.33 100,49.53 C 100,36.41 94.79,23.84 85.54,14.55 C 76.29,5.27 63.68,0.04 50.56,0.02 L 50.56 0.02 M 50.56 76.29 C 45.24,76.31 40.08,74.75 35.65,71.8 C 31.17,68.86 27.75,64.67 25.67,59.76 C 23.65,54.85 23.09,49.44 24.16,44.22 C 25.17,39 27.75,34.21 31.5,30.45 C 35.26,26.69 40.08,24.13 45.29,23.09 C 50.5,22.06 55.89,22.6 60.82,24.64 C 65.7,26.69 69.9,30.14 72.87,34.58 C 75.78,39.01 77.35,44.21 77.35,49.53 C 77.3,56.62 74.5,63.41 69.51,68.42 C 64.46,73.44 57.68,76.26 50.56,76.29 L 50.56 76.29" fill="#2d5967" stroke="none" stroke-width="0.5"/>
  </g>
</svg>