<svg xmlns="http://www.w3.org/2000/svg" viewBox="0 0 76.0 109.0000000000001" width="76" height="109">
  <g transform="translate(17.00,1.00) scale(0.7400,0.8200)">
    <path d="M 12.44 98.3 L 4.05 90.75 L 2.43 86.38 L 6.77 82.48 L 14.61 75.43 C 17.04,72.99 20.01,71.05 22.71,69.1 L 31.09 63.26 C 27.58,57.91 25.69,52.07 25.69,45.74 C 25.69,44.77 25.69,43.55 25.96,42.58 L 16.5 42.58 C 15.15,45.26 12.17,47.2 8.66,47.2 C 4.05,47.2 0,43.8 0,39.66 C 0,35.52 3.78,32.12 8.66,32.12 C 8.93,32.12 9.47,32.12 9.74,32.12 L 22.17 12.65 C 21.09,10.95 20.55,9.49 20.55,7.79 C 20.55,3.65 24.34,0 29.2,0 C 34.06,0 37.58,3.41 37.58,7.79 C 37.58,9.49 37.04,10.95 35.96,12.17 L 40.55 18.98 C 47.03,14.6 54.6,12.17 62.98,12.17 C 72.98,12.17 82.16,15.57 89.19,21.9 C 96.22,28.22 100,36.74 100,45.5 C 100,54.26 96.22,62.77 89.19,69.1 C 82.16,75.43 72.98,78.83 62.98,78.83 C 55.95,78.83 49.47,77.13 43.52,73.97 L 36.77 81.75 C 34.6,84.43 32.17,86.86 29.74,89.05 L 21.9 96.11 L 17.58 100 L 12.44 98.3 L 12.44 98.3" fill="#FFFFFF" stroke="none" stroke-width="0.5"/>
  </g>
  <g transform="translate(17.00,0.00) scale(0.7600,0.8400)">
    <path d="M 29.11 2.38 C 33.08,2.38 36.25,5.23 36.25,8.79 C 36.25,10.45 35.46,11.88 34.4,13.06 L 39.96 21.38 C 46.3,16.86 53.97,14.25 62.17,14.25 C 71.43,14.25 80.43,17.58 87.04,23.52 C 93.65,29.45 97.35,37.29 97.35,45.84 C 97.35,54.39 93.65,62.23 87.04,68.17 C 80.43,74.11 71.7,77.44 62.17,77.44 C 55.3,77.44 48.42,75.54 42.87,72.21 L 41.01 74.35 L 35.72 80.52 C 33.61,82.9 31.23,85.27 28.85,87.65 L 21.17 94.54 L 17.74 97.39 L 13.77 96.2 L 6.1 89.31 L 4.78 85.75 L 8.48 82.42 L 16.15 75.54 C 18.27,73.4 20.91,71.26 23.82,69.36 L 30.7 64.61 L 33.08 62.95 C 29.37,57.96 27.26,51.78 27.26,45.61 C 27.26,44.18 27.52,42.76 27.52,41.33 L 16.15 41.33 C 15.36,43.94 12.71,45.84 9.54,45.84 C 5.57,45.84 2.38,42.99 2.38,39.67 C 2.38,36.34 5.57,33.25 9.54,33.25 C 10.07,33.25 10.86,33.25 11.39,33.49 L 24.35 13.06 C 23.03,11.88 22.23,10.45 22.23,8.79 C 22.23,5.23 25.14,2.38 29.11,2.38 L 29.11 2.38 M 29.11 0 C 23.82,0 19.59,3.8 19.59,8.79 C 19.59,10.45 20.12,12.11 21.17,13.54 L 9.8 30.88 L 9.54 30.88 C 4.25,30.88 0,34.68 0,39.43 C 0,44.18 4.25,47.98 9.8,47.98 C 13.24,47.98 16.68,46.08 18.27,43.47 L 24.88 43.47 C 24.88,44.18 24.88,44.89 24.88,45.37 C 24.88,51.31 26.47,57.01 29.9,62.23 L 29.37 62.47 L 22.5 67.22 C 19.59,69.12 16.94,71.26 14.3,73.63 L 6.36 80.76 L 2.65 84.09 L 1.59 85.04 L 2.12 86.46 L 3.44 90.02 L 3.7 90.5 L 4.25 90.97 L 11.92 97.86 L 12.45 98.34 L 12.98 98.58 L 16.94 99.76 L 18.27 100 L 19.32 99.05 L 23.03 95.96 L 30.7 89.07 C 33.34,86.7 35.72,84.32 37.84,81.71 L 43.13 75.54 L 43.39 75.06 C 48.95,77.91 55.56,79.57 62.17,79.57 C 72.23,79.57 81.75,76.01 88.89,69.6 C 96.03,63.18 100,54.63 100,45.61 C 100,36.58 96.03,28.03 88.89,21.62 C 81.75,15.2 72.23,11.88 62.17,11.88 C 54.24,11.88 47.1,14.01 40.75,17.81 L 37.57 12.83 C 38.37,11.4 38.9,9.98 38.9,8.55 C 38.9,3.8 34.4,0 29.11,0 L 29.11 0" fill="#FFFFFF" stroke="none" stroke-width="0.5"/>
  </g>
  <g transform="translate(18.00,2.00) scale(0.2700,0.3600)">
    <path d="M 38.26 81.42 C 37.52,79.23 36.05,77.05 33.85,75.41 L 69.86 28.42 C 71.33,28.42 72.8,28.96 74.27,28.96 C 75.74,28.96 77.95,28.96 79.42,28.42 L 91.91 44.26 C 94.85,42.08 97.06,40.44 100,38.8 L 88.97 24.59 C 91.91,21.86 94.12,18.58 94.12,14.75 C 94.12,6.56 85.3,0 75.01,0 C 63.25,0 55.16,6.56 55.16,14.75 C 55.16,18.58 57.37,22.4 61.04,25.14 L 25.03 72.13 C 22.82,71.04 21.35,71.04 19.88,71.04 C 8.86,71.04 0,77.6 0,85.79 C 0,93.99 8.86,100 19.88,100 C 28.7,100 36.05,95.63 38.26,89.62 L 61.78 89.62 C 62.51,86.89 62.51,84.15 63.98,81.42 L 38.26 81.42 L 38.26 81.42 M 65.45 14.75 C 65.45,11.48 69.13,8.2 74.27,8.2 C 78.68,8.2 83.09,10.93 83.09,14.75 C 83.09,18.58 79.42,21.31 74.27,21.31 C 69.86,20.77 65.45,18.03 65.45,14.75 L 65.45 14.75 M 19.88 91.8 C 15.47,91.8 11.06,89.07 11.06,85.25 C 11.06,81.97 14.74,78.69 19.88,78.69 C 25.03,78.69 28.7,81.42 28.7,85.25 C 28.7,89.07 24.29,91.8 19.88,91.8 L 19.88 91.8" fill="#2d5967" stroke="none" stroke-width="0.5"/>
  </g>
  <g transform="translate(22.00,12.00) scale(0.6700,0.6700)">
    <path d="M 60.65 78.4 C 71.01,78.4 81.07,74.26 88.46,66.86 C 95.86,59.47 100,49.7 100,39.05 C 100,28.4 95.86,18.64 88.46,11.24 C 81.07,4.14 71.01,0 60.65,0 C 50.3,0 40.24,4.14 32.84,11.54 C 25.44,18.93 21.3,28.7 21.3,39.35 C 21.3,47.04 23.67,54.73 27.81,60.95 L 25.15 63.02 L 17.46 68.93 C 14.5,71.3 11.54,73.96 8.58,76.63 L 0 85.21 L 14.79 100 L 23.37 91.42 C 26.04,88.76 28.7,85.8 31.07,82.54 L 36.98 74.85 L 39.05 72.19 C 45.27,76.04 52.96,78.4 60.65,78.4 L 60.65 78.4 M 36.09 14.5 C 42.6,7.99 51.48,4.44 60.65,4.44 C 69.82,4.44 78.7,7.99 85.21,14.5 C 91.72,21.01 95.56,29.88 95.56,39.05 C 95.56,48.22 92.01,57.1 85.21,63.61 C 78.7,70.12 69.82,73.67 60.65,73.67 C 51.48,73.67 42.6,70.12 36.09,63.31 C 29.59,56.8 26.04,47.93 26.04,38.76 C 26.04,29.59 29.59,21.01 36.09,14.5 L 36.09 14.5 M 33.43 71.89 L 27.51 79.59 C 25.15,82.54 22.78,85.21 20.41,87.87 L 15.09 93.19 L 6.51 84.61 L 11.83 79.29 C 14.5,76.92 17.16,74.26 20.12,72.19 L 27.81 66.27 L 30.47 64.2 C 31.07,65.09 31.95,65.98 32.84,66.86 C 33.73,67.75 34.62,68.34 35.5,69.23 L 33.43 71.89 L 33.43 71.89" fill="#2d5967" stroke="none" stroke-width="0.5"/>
  </g>
  <g transform="translate(40.00,17.00) scale(0.4600,0.4200)">
    <path d="M 50 100 C 62.17,100 73.48,94.76 82.17,85.24 C 100,65.71 100,34.29 82.17,14.76 C 73.48,5.24 62.17,0 50,0 C 37.83,0 26.52,5.24 17.83,14.76 C 0,34.29 0,65.71 17.83,85.24 C 26.52,94.76 37.83,100 50,100 L 50 100 M 50 7.14 C 60.43,7.14 70.43,11.43 77.83,19.52 C 93.04,36.19 93.04,63.33 77.83,80 C 70.43,88.09 60.43,92.38 50,92.38 C 39.57,92.38 29.57,88.09 22.17,80 C 6.96,63.33 6.96,36.19 22.17,19.52 C 29.57,11.9 39.57,7.14 50,7.14 L 50 7.14" fill="#2d5967" stroke="none" stroke-width="0.5"/>
  </g>
  <g transform="translate(19.00,71.00) scale(0.1000,0.1000)">
    <path d="M 0 9.26 L 9.25 37.03 L 64.85 90.74 L 92.6 100 L 100 90.74 L 9.25 0 L 0 9.26 L 0 9.26" fill="#2d5967" stroke="none" stroke-width="0.5"/>
  </g>
  <g transform="translate(47.00,24.00) scale(0.2700,0.2600)">
    <path d="M 14.49 50.76 L 3.62 50.76 L 0 50.76 C 0,52.27 0,53.79 0,55.3 C 0,57.58 0,59.85 0.72,62.12 L 15.22 62.12 C 18.12,83.33 36.23,100 57.25,100 C 80.43,100 100,80.3 100,55.3 C 100,30.3 81.16,10.61 57.25,10.61 C 51.45,10.61 46.38,12.12 41.3,13.64 L 35.51 3.79 L 33.33 0 C 29.71,1.51 26.81,3.03 23.91,5.3 L 31.16 18.94 C 21.74,26.52 15.22,37.88 14.49,50.76 L 14.49 50.76 M 56.52 87.88 C 39.13,87.88 24.64,72.73 24.64,54.55 C 24.64,36.36 39.13,21.21 56.52,21.21 C 73.91,21.21 88.41,36.36 88.41,54.55 C 88.41,72.73 73.91,87.88 56.52,87.88 L 56.52 87.88" fill="#2d5967" stroke="none" stroke-width="0.5"/>
  </g>
</svg>