<svg xmlns="http://www.w3.org/2000/svg" viewBox="0 0 84.0 121.00000000000007" width="84" height="121">
  <g transform="translate(0.00,0.00) scale(0.4000,0.7800)">
    <path d="M 82.62 100 C 67.6,100 53.99,96.11 46.01,89.29 C 25.36,87.35 10.33,77.62 10.33,66.67 C 10.33,66.18 10.33,65.69 10.33,65.21 C 3.74,61.07 0,55.72 0,50.12 C 0,44.53 3.74,39.17 10.33,35.04 C 10.33,34.55 10.33,34.06 10.33,33.58 C 10.33,22.38 25.82,12.65 46.48,10.71 C 51.64,6.57 59.15,3.16 68.06,1.46 C 72.76,0.49 77.92,0 83.09,0 L 84.02 0 C 92.95,0.24 100,3.89 100,8.76 L 100 91.24 C 100,95.86 92.95,99.76 84.51,100 C 83.55,100 83.09,100 82.62,100 L 82.62 100" fill="#FFFFFF" stroke="none" stroke-width="0.5"/>
  </g>
  <g transform="translate(0.00,0.00) scale(0.4200,0.8000)">
    <path d="M 81.54 2.39 C 81.99,2.39 81.99,2.39 82.43,2.39 C 89.64,2.39 95.52,5.73 95.52,9.79 L 95.52 90.69 C 95.52,94.75 90.09,97.85 82.88,98.09 C 82.43,98.09 81.99,98.09 81.54,98.09 C 67.57,98.09 54.96,94.27 47.75,87.83 C 28.84,86.4 14.42,77.33 14.42,66.59 C 14.42,66.11 14.42,65.39 14.42,64.68 C 8.1,60.38 4.51,55.37 4.51,50.12 C 4.51,44.87 8.1,39.86 14.42,35.8 C 14.42,35.08 14.42,34.61 14.42,33.89 C 14.42,23.15 28.84,14.08 48.19,12.65 C 52.7,8.59 59.91,5.49 68.48,3.58 C 72.52,2.86 77.03,2.39 81.54,2.39 L 81.54 2.39 M 81.54 0 C 76.59,0 71.18,0.48 66.67,1.43 C 58.1,3.1 50.45,6.44 45.49,10.5 C 25.22,12.65 9.91,22.43 9.91,33.89 C 9.91,34.37 9.91,34.61 9.91,35.08 C 3.59,39.14 0,44.63 0,50.12 C 0,55.61 3.59,60.86 9.91,65.15 C 9.91,65.39 9.91,65.87 9.91,66.11 C 9.91,77.33 24.78,87.35 45.04,89.5 C 53.15,96.18 66.67,100 81.54,100 C 81.99,100 82.43,100 82.88,100 C 92.34,99.76 100,95.47 100,90.21 L 100 9.79 C 100,4.53 92.34,0.24 82.43,0 C 81.99,0 81.99,0 81.54,0 L 81.54 0" fill="#FFFFFF" stroke="none" stroke-width="0.5"/>
  </g>
  <g transform="translate(41.00,0.00) scale(0.4000,0.7800)">
    <path d="M 15.57 99.76 C 6.59,99.51 0,95.86 0,91 L 0 8.76 C 0,4.14 7.06,0.24 16.04,0 L 16.97 0 C 22.16,0 26.88,0.49 31.6,1.46 C 40.56,3.16 48.11,6.33 53.3,10.71 C 74.05,12.65 89.62,22.14 89.62,33.58 C 89.62,34.06 89.62,34.55 89.62,35.04 C 96.24,39.17 100,44.53 100,50.12 C 100,55.72 96.24,61.07 89.62,65.21 C 89.62,65.69 89.62,66.18 89.62,66.67 C 89.62,77.86 74.05,87.59 53.76,89.3 C 45.74,96.11 32.07,100 16.97,100 C 16.5,99.76 16.04,99.76 15.57,99.76 L 15.57 99.76" fill="#FFFFFF" stroke="none" stroke-width="0.5"/>
  </g>
  <g transform="translate(41.00,0.00) scale(0.4200,0.8000)">
    <path d="M 18.46 2.38 C 22.97,2.38 27.48,2.85 31.99,3.8 C 40.09,5.46 47.3,8.55 52.25,12.83 C 71.16,14.25 86.03,23.28 86.03,33.97 C 86.03,34.68 86.03,35.15 86.03,35.87 C 92.34,39.9 95.94,44.89 95.94,50.12 C 95.94,55.34 92.34,60.33 86.03,64.37 C 86.03,65.08 86.03,65.56 86.03,66.27 C 86.03,76.72 71.63,85.75 52.7,87.41 C 45.04,93.35 32.43,97.39 18.46,97.39 C 18.01,97.39 17.57,97.39 17.12,97.39 C 9.91,97.15 4.48,94.06 4.48,90.02 L 4.48 9.74 C 4.48,5.7 10.36,2.61 17.57,2.38 C 18.01,2.38 18.46,2.38 18.46,2.38 L 18.46 2.38 M 18.46 0 C 18.01,0 17.57,0 17.57,0 C 7.66,0.24 0,4.28 0,9.74 L 0 90.26 C 0,95.49 7.66,99.76 17.12,100 C 17.57,100 18.01,100 18.46,100 C 33.33,100 46.85,95.96 54.96,89.55 C 75.22,87.41 90.09,77.43 90.09,66.27 C 90.09,66.03 90.09,65.56 90.09,65.32 C 96.41,61.05 100,55.82 100,50.36 C 100,44.89 96.41,39.43 90.09,35.39 C 90.09,34.92 90.09,34.68 90.09,34.2 C 90.09,22.8 75.22,13.06 54.51,10.93 C 49.55,6.89 41.9,3.56 33.33,1.9 C 28.82,0.47 23.41,0 18.46,0 L 18.46 0" fill="#FFFFFF" stroke="none" stroke-width="0.5"/>
  </g>
  <g transform="translate(1.00,1.00) scale(0.3800,0.7600)">
    <path d="M 85.62 0 C 80.18,0 75.22,0.5 69.78,1.5 C 60.88,3.25 52.95,6.5 47.51,11 C 26.74,12.5 10.4,22 10.4,33.25 C 10.4,34 10.4,34.5 10.4,35.25 C 3.95,39.25 0,44.5 0,50 C 0,55.5 3.95,60.75 10.89,65 C 10.89,65.75 10.89,66.25 10.89,67 C 10.89,78 26.74,87.5 47.51,89.25 C 55.43,96 69.29,100 84.64,100 C 85.13,100 85.62,100 86.11,100 C 94.04,99.75 100,96.5 100,92.25 L 100 7.75 C 100,3.5 93.55,0 85.62,0 L 85.62 0 M 85.62 94.25 C 85.13,94.25 85.13,94.25 84.64,94.25 C 72.77,94.25 61.37,90.75 55.92,85 L 54.45 83.75 L 51.48 83.75 C 34.66,83 21.78,75.75 21.78,67 C 21.78,66.25 21.78,65.5 22.27,64.5 L 22.76 63 L 20.77 62 C 14.35,58.75 10.89,54.5 10.89,50 C 10.89,45.5 14.35,41.25 20.77,38 L 22.76 37 L 22.27 35.5 C 21.78,34.5 21.78,33.75 21.78,33 C 21.78,24.25 35.15,16.75 51.48,16.25 L 54.45 16.25 L 55.92 15 C 59.9,11.25 65.83,8.5 73.75,7 C 77.21,6.25 81.19,6 84.64,6 C 85.13,6 85.13,6 85.62,6 C 87.61,6 89.6,7 89.6,8 L 89.6 34.5 L 63.84 34.5 L 61.88 33.5 C 62.86,32.5 63.35,31.25 63.35,30.25 C 63.35,26 56.44,22.25 48,22.25 C 39.59,22.25 32.67,25.75 32.67,30.25 C 32.67,34.75 39.59,38.25 48,38.25 C 49.99,38.25 51.97,38 53.96,37.5 L 57.91 39.5 C 58.89,40 60.39,40.25 61.88,40.25 L 89.11 40.25 L 89.11 47.5 L 51.48 47.5 C 49.5,44.5 43.56,42.5 37.11,42.5 C 28.7,42.5 21.78,46 21.78,50.5 C 21.78,55 28.7,58.5 37.11,58.5 C 43.56,58.5 49.01,56.5 51.48,53.5 L 89.11 53.5 L 89.11 60.5 L 60.88 60.5 C 59.41,60.5 57.91,60.75 56.93,61.25 L 53.44 62.5 C 51.48,62 49.5,61.75 47.51,61.75 C 39.1,61.75 32.18,65.25 32.18,69.75 C 32.18,74.25 39.1,77.75 47.51,77.75 C 55.92,77.75 62.86,74.25 62.86,69.75 C 62.86,68.5 62.37,67.5 61.37,66.5 L 63.35 65.5 L 89.11 65.5 L 89.11 92.5 C 89.11,93.5 87.61,94.25 85.62,94.25 L 85.62 94.25 M 47.51 32 C 45.03,32 43.07,31 43.07,29.75 C 43.07,28.5 45.03,27.5 47.51,27.5 C 49.99,27.5 51.97,28.5 51.97,29.75 C 51.97,31 49.99,32 47.51,32 L 47.51 32 M 41.57 50 C 41.57,51.25 39.59,52.25 37.11,52.25 C 34.66,52.25 32.67,51.25 32.67,50 C 32.67,48.75 34.66,47.75 37.11,47.75 C 39.59,47.75 41.57,48.75 41.57,50 L 41.57 50 M 51.97 69.75 C 51.97,71 49.99,72 47.51,72 C 45.03,72 43.07,71 43.07,69.75 C 43.07,68.5 45.03,67.5 47.51,67.5 C 49.99,67.5 51.97,68.5 51.97,69.75 L 51.97 69.75" fill="#2d5967" stroke="none" stroke-width="0.5"/>
  </g>
  <g transform="translate(42.00,1.00) scale(0.3900,0.7700)">
    <path d="M 100 50.12 C 100,44.64 96.07,39.4 89.16,35.16 C 89.16,34.41 89.16,33.92 89.16,33.17 C 89.16,21.95 73.39,12.47 52.24,10.97 C 47.3,6.73 39.42,3.49 30.05,1.5 C 25.14,0.5 19.72,0 14.31,0 C 6.42,0 0,3.49 0,7.73 L 0 92.27 C 0,96.51 5.91,99.75 13.79,100 C 14.31,100 14.79,100 15.28,100 C 30.56,100 44.35,96.01 52.24,89.28 C 72.91,87.78 88.68,78.3 88.68,67.08 C 88.68,66.58 88.68,65.84 88.68,65.09 C 96.07,60.85 100,55.61 100,50.12 L 100 50.12 M 77.84 64.59 C 78.33,65.59 78.33,66.33 78.33,67.08 C 78.33,75.81 65.51,83.04 48.77,83.79 L 45.81 83.79 L 44.35 85.29 C 38.93,91.02 27.58,94.51 15.77,94.51 C 15.28,94.51 15.28,94.51 14.79,94.51 C 12.81,94.51 11.32,93.52 11.32,92.52 L 11.32 65.59 L 36.95 65.59 L 38.93 66.58 C 37.93,67.58 37.44,68.83 37.44,69.83 C 37.44,74.06 44.35,77.81 52.72,77.81 C 61.09,77.81 67.98,74.31 67.98,69.83 C 67.98,65.34 61.09,61.85 52.72,61.85 C 50.75,61.85 48.77,62.09 46.82,62.59 L 42.86 60.6 C 41.89,60.1 40.4,59.85 38.93,59.85 L 11.32 59.85 L 11.32 52.87 L 48.77 52.87 C 50.75,55.86 56.65,57.86 63.07,57.86 C 71.44,57.86 78.33,54.36 78.33,49.88 C 78.33,45.39 71.44,41.9 63.07,41.9 C 56.65,41.9 51.23,43.89 48.77,46.88 L 11.32 46.88 L 11.32 39.65 L 39.42 39.65 C 40.88,39.65 42.37,39.4 43.35,38.9 L 47.3 36.91 C 49.25,37.41 51.23,37.66 53.21,37.66 C 61.58,37.66 68.49,34.16 68.49,29.68 C 68.49,25.19 61.58,21.7 53.21,21.7 C 44.84,21.7 37.93,25.19 37.93,29.68 C 37.93,30.92 38.42,31.92 39.42,32.92 L 37.44 33.92 L 11.32 33.92 L 11.32 7.98 C 11.32,6.98 12.81,5.99 15.28,5.99 C 15.77,5.99 15.77,5.99 16.26,5.99 C 19.72,5.99 23.65,6.23 27.09,6.98 C 34.49,8.48 40.88,11.22 44.84,14.96 L 45.81 16.21 L 48.77 16.21 C 65.51,16.96 78.33,24.19 78.33,32.92 C 78.33,33.67 78.33,34.41 77.84,35.41 L 77.35 36.91 L 79.33 37.91 C 85.72,41.15 89.16,45.39 89.16,49.88 C 89.16,54.36 85.72,58.6 79.33,61.85 L 77.35 62.84 L 77.84 64.59 L 77.84 64.59 M 52.72 67.58 C 55.19,67.58 57.14,68.58 57.14,69.83 C 57.14,71.07 55.19,72.07 52.72,72.07 C 50.26,72.07 48.28,71.07 48.28,69.83 C 48.28,68.58 50.26,67.58 52.72,67.58 L 52.72 67.58 M 58.63 50.12 C 58.63,48.88 60.61,47.88 63.07,47.88 C 65.51,47.88 67.49,48.88 67.49,50.12 C 67.49,51.37 65.51,52.37 63.07,52.37 C 60.61,52.37 58.63,51.37 58.63,50.12 L 58.63 50.12 M 48.28 29.93 C 48.28,28.68 50.26,27.68 52.72,27.68 C 55.19,27.68 57.14,28.68 57.14,29.93 C 57.14,31.17 55.19,32.17 52.72,32.17 C 50.26,32.17 48.28,31.17 48.28,29.93 L 48.28 29.93" fill="#2d5967" stroke="none" stroke-width="0.5"/>
  </g>
</svg>