<svg xmlns="http://www.w3.org/2000/svg" viewBox="0 0 84.0 125.00000000000001" width="84" height="125">
  <g transform="translate(7.00,1.00) scale(0.8200,0.8200)">
    <path d="M 86.98 100 L 69.45 77.59 L 46.14 77.59 L 46.14 84.1 L 41.58 84.61 L 44.43 88.2 L 34.31 98.32 L 30.75 95.44 L 30.24 100 L 15.92 100 L 15.44 95.44 L 11.85 98.32 L 1.73 88.2 L 4.58 84.61 L 0.05 84.1 L 0.05 74.93 L 0 74.93 L 0 0 L 100 0 L 100 100 L 86.98 100 L 86.98 100" fill="#FFFFFF" stroke="none" stroke-width="0.5"/>
  </g>
  <g transform="translate(6.00,-0.00) scale(0.8400,0.8400)">
    <path d="M 97.62 2.38 L 97.62 97.62 L 86.67 97.62 L 69.57 75.74 L 45.05 75.74 L 45.05 82.24 L 39.83 82.81 C 39.8,82.91 39.76,83.01 39.71,83.1 L 42.98 87.19 L 34.62 95.57 L 30.52 92.29 L 30.24 92.43 L 29.64 97.62 L 17.74 97.62 L 17.17 92.43 L 16.86 92.29 L 12.86 95.57 L 4.48 87.19 L 7.74 83.1 C 7.75,83 7.75,82.91 7.74,82.81 L 2.38 82.24 L 2.38 73.93 L 2.38 74.33 L 2.38 2.38 L 97.62 2.38 L 97.62 2.38 M 100 0 L 0 0 L 0 74.33 L 0 84.36 L 2.12 84.6 L 3.36 84.74 L 2.62 85.71 L 1.29 87.36 L 2.79 88.88 L 11.17 97.24 L 12.67 98.76 L 14.33 97.43 L 15.31 96.64 L 15.45 97.88 L 15.69 100 L 31.79 100 L 32.02 97.88 L 32.17 96.64 L 33.12 97.43 L 34.79 98.76 L 36.31 97.24 L 44.67 88.88 L 46.17 87.36 L 44.86 85.71 L 44.07 84.74 L 45.31 84.6 L 47.43 84.36 L 47.43 78.12 L 68.43 78.12 L 84.83 99.1 L 85.55 100 L 100 100 L 100 0 L 100 0" fill="#FFFFFF" stroke="none" stroke-width="0.5"/>
  </g>
  <g transform="translate(8.00,2.00) scale(0.8000,0.8000)">
    <path d="M 0 0 L 0 63.97 L 1.3 62.67 L 4.17 59.82 L 4.27 4.17 L 95.83 4.17 L 95.83 95.75 L 90.55 95.75 L 72.58 72.85 L 47.91 72.85 L 47.91 73.27 L 47.91 77 L 70.56 77 L 88.5 100 L 100 100 L 100 0 L 0 0 L 0 0" fill="#2d5967" stroke="none" stroke-width="0.5"/>
  </g>
  <g transform="translate(28.00,20.00) scale(0.1800,0.2700)">
    <path d="M 35.97 84.6 L 67.1 100 L 100 52.51 L 100 0 L 0 0 L 0 56.94 L 35.97 56.94 L 35.97 84.6 L 35.97 84.6 M 18.31 45.1 L 18.31 12.2 L 81.91 12.2 L 81.91 49.67 L 59.98 81.19 L 54.82 78.72 L 54.82 45.32 L 18.31 45.1 L 18.31 45.1" fill="#2d5967" stroke="none" stroke-width="0.5"/>
  </g>
  <g transform="translate(50.00,20.00) scale(0.1800,0.2700)">
    <path d="M 35.89 84.6 L 67.18 100 L 100 52.51 L 100 0 L 0 0 L 0 56.94 L 35.89 56.94 L 35.89 84.6 L 35.89 84.6 M 18.16 45.1 L 18.16 12.2 L 81.73 12.2 L 81.73 49.67 L 59.85 81.19 L 54.16 78.72 L 54.16 45.32 L 18.16 45.1 L 18.16 45.1" fill="#2d5967" stroke="none" stroke-width="0.5"/>
  </g>
  <g transform="translate(8.00,46.00) scale(0.3600,0.3600)">
    <path d="M 100 35.95 L 87.78 34.6 C 87.7,34.36 87.61,34.11 87.5,33.87 L 95.15 24.3 L 75.56 4.82 L 65.96 12.54 L 65.29 12.21 L 63.89 0 L 35.99 0 L 34.65 12.21 L 33.93 12.54 L 24.55 4.82 L 4.91 24.3 L 12.55 33.87 C 12.59,34.12 12.59,34.36 12.55,34.6 L 0 35.95 L 0 63.94 L 12.16 65.28 C 12.19,65.51 12.19,65.73 12.16,65.96 L 4.91 75.48 L 24.55 95.19 L 34.1 87.46 L 34.82 87.79 L 36.16 100 L 64.06 100 L 65.46 87.79 L 66.13 87.46 L 75.72 95.19 L 95.31 75.48 L 87.5 65.85 C 87.62,65.63 87.71,65.41 87.78,65.17 L 100 63.83 L 100 35.95 L 100 35.95 M 80.92 56.55 L 79.97 59.46 C 79.44,61.16 78.77,62.81 77.96,64.39 L 76.56 67.08 L 82.7 74.8 L 74.83 82.7 L 66.96 76.48 L 64.23 77.88 C 62.66,78.72 61.01,79.41 59.32,79.96 L 56.47 80.85 L 55.8 90.65 L 44.64 90.65 L 43.58 80.85 L 40.68 79.96 C 38.99,79.4 37.35,78.71 35.77,77.88 L 32.92 76.48 L 25.22 82.7 L 17.36 74.8 L 23.55 67.08 L 22.32 64.39 C 21.5,62.81 20.8,61.16 20.26,59.46 L 19.36 56.55 L 9.54 55.49 L 9.54 44.29 L 19.36 43.22 L 20.26 40.31 C 20.8,38.61 21.5,36.97 22.32,35.39 L 23.55 32.81 L 17.36 24.97 L 25.22 17.08 L 32.92 23.29 L 35.6 21.89 C 37.18,21.06 38.82,20.37 40.51,19.82 L 43.42 18.93 L 44.64 9.07 L 55.8 9.07 L 56.92 18.93 L 59.77 19.82 C 61.46,20.36 63.11,21.05 64.68,21.89 L 67.41 23.29 L 75.06 17.08 L 82.93 24.97 L 76.56 32.81 L 77.96 35.5 C 78.77,37.08 79.44,38.73 79.97,40.43 L 80.92 43.34 L 90.68 44.4 L 90.68 55.6 L 80.92 56.55 L 80.92 56.55" fill="#2d5967" stroke="none" stroke-width="0.5"/>
  </g>
  <g transform="translate(18.00,57.00) scale(0.1400,0.1400)">
    <path d="M 50.48 0 C 40.69,0 31.12,2.91 22.97,8.35 C 14.82,13.79 8.48,21.52 4.73,30.57 C 0.99,39.62 0,49.58 1.91,59.18 C 3.83,68.79 8.54,77.61 15.47,84.53 C 22.39,91.46 31.22,96.17 40.82,98.09 C 50.42,100 60.38,99.01 69.43,95.27 C 78.48,91.52 86.21,85.18 91.65,77.03 C 97.09,68.89 100,59.32 100,49.52 C 100,36.39 94.78,23.79 85.5,14.51 C 76.21,5.22 63.61,0 50.48,0 L 50.48 0 M 50.48 76.65 C 45.25,76.65 40.14,75.09 35.8,72.19 C 31.45,69.29 28.06,65.16 26.06,60.33 C 24.06,55.5 23.54,50.19 24.56,45.06 C 25.58,39.94 28.1,35.23 31.79,31.53 C 35.49,27.83 40.2,25.32 45.33,24.3 C 50.45,23.28 55.76,23.8 60.6,25.8 C 65.42,27.8 69.55,31.19 72.46,35.53 C 75.36,39.88 76.91,44.99 76.91,50.22 C 76.91,57.22 74.13,63.95 69.17,68.91 C 64.21,73.86 57.49,76.65 50.48,76.65 L 50.48 76.65" fill="#2d5967" stroke="none" stroke-width="0.5"/>
  </g>
</svg>