<svg xmlns="http://www.w3.org/2000/svg" viewBox="0 0 84.0 107.00000000000014" width="84" height="107">
  <g transform="translate(0.00,0.00) scale(0.8300,0.8100)">
    <path d="M 59.52 100 C 54.52,100 50.71,95.85 50.71,90.97 C 50.71,88.05 52.14,85.36 54.29,83.66 L 53.09 79.27 C 51.19,79.51 49.29,79.76 47.38,79.76 C 37.62,79.76 28.57,75.37 22.38,67.56 L 20.48 69.02 C 20.71,69.76 20.71,70.49 20.71,71.46 C 20.71,76.59 16.67,80.73 11.67,80.73 C 6.67,80.73 2.62,76.59 2.62,71.46 C 2.62,66.34 6.67,62.2 11.67,62.2 C 13.57,62.2 15.71,62.93 17.14,64.15 L 19.05 62.68 C 16.43,57.8 15.24,52.44 15.24,47.07 C 15.24,44.88 15.48,42.44 15.95,40.24 L 12.38 39.02 C 11.19,40.49 9.28,41.22 7.62,41.22 C 4.05,41.22 0.95,38.05 0.95,34.39 C 0.95,30.73 4.05,27.56 7.62,27.56 C 10.95,27.56 13.81,30 14.29,33.41 L 17.86 34.15 C 19.05,31.46 20.48,28.78 22.38,26.34 L 19.52 23.66 C 17.38,25.12 15.24,25.85 12.62,25.85 C 5.71,25.85 0,20 0,12.93 C 0,5.85 5.71,0 12.62,0 C 19.52,0 25.24,5.85 25.24,12.93 C 25.24,15.12 24.76,17.32 23.57,19.51 L 26.43 22.19 C 32.38,16.83 39.76,14.15 47.62,14.15 C 54.52,14.15 60.95,16.34 66.43,20.49 L 68.33 18.29 C 67.62,16.83 67.14,15.37 67.14,13.66 C 67.14,8.29 71.43,4.15 76.43,4.15 C 81.43,4.15 85.71,8.54 85.71,13.66 C 85.71,18.78 81.67,23.17 76.43,23.17 C 75,23.17 73.81,22.93 72.62,22.19 L 70.95 24.15 C 76.67,30.24 79.76,38.29 79.76,46.83 C 79.76,49.51 79.52,52.19 78.81,55.12 L 81.67 56.1 C 83.57,53.41 86.67,51.95 89.76,51.95 C 95.48,51.95 100,56.59 100,62.44 C 100,68.29 95.48,72.93 89.76,72.93 C 84.05,72.93 79.52,68.29 79.52,62.44 C 79.52,62.2 79.52,61.95 79.52,61.71 L 76.67 60.73 C 73.1,68.54 66.9,74.39 59.05,77.56 L 60.24 81.71 C 65,81.95 68.81,85.85 68.81,90.73 C 68.57,95.85 64.52,100 59.52,100 L 59.52 100" fill="#FFFFFF" stroke="none" stroke-width="0.5"/>
  </g>
  <g transform="translate(0.00,0.00) scale(0.8400,0.8200)">
    <path d="M 13.58 2.39 C 19.91,2.39 24.82,7.66 24.82,13.88 C 24.82,16.27 24.12,18.66 22.72,20.33 L 26.93 24.4 C 32.32,19.14 39.58,16.03 47.78,16.03 C 54.8,16.03 61.36,18.42 66.51,22.73 L 69.56 19.14 C 68.62,17.7 68.15,16.27 68.15,14.59 C 68.15,10.05 71.66,6.46 76.11,6.46 C 80.56,6.46 84.08,10.05 84.08,14.59 C 84.08,19.14 80.56,22.73 76.11,22.73 C 74.71,22.73 73.3,22.25 71.9,21.53 L 68.85 24.88 C 74.47,30.38 77.99,38.28 77.99,46.89 C 77.99,50 77.52,52.87 76.82,55.74 L 81.5 57.42 C 83.14,54.78 85.95,53.11 88.99,53.11 C 93.91,53.11 97.89,57.18 97.89,62.2 C 97.89,67.22 93.91,71.29 88.99,71.29 C 84.08,71.29 80.09,67.22 80.09,62.2 C 80.09,61.72 80.09,61.24 80.09,60.77 L 75.41 59.09 C 72.13,67.22 65.34,73.45 57.14,76.32 L 58.78 82.54 C 59.02,82.54 59.02,82.54 59.25,82.54 C 63.47,82.54 66.75,86.12 66.75,90.19 C 66.75,94.26 63.93,98.09 59.72,98.09 C 55.5,98.09 52.22,94.5 52.22,90.43 C 52.22,87.56 53.86,85.17 55.97,83.73 L 54.33 77.51 C 52.22,77.99 50.12,78.23 47.78,78.23 C 37.94,78.23 29.04,73.45 23.42,65.79 L 19.91 68.18 C 20.14,69.14 20.38,70.1 20.38,71.05 C 20.38,75.36 16.86,78.95 12.65,78.95 C 8.43,78.95 4.92,75.36 4.92,71.05 C 4.92,66.75 8.43,63.16 12.65,63.16 C 14.75,63.16 16.63,64.11 18.03,65.31 L 21.55 62.92 C 18.97,58.37 17.33,52.87 17.33,47.13 C 17.33,44.5 17.57,42.11 18.27,39.71 L 13.11 38.04 C 12.18,39.47 10.54,40.43 8.66,40.43 C 5.62,40.43 3.28,38.04 3.28,34.93 C 3.28,31.82 5.62,29.43 8.66,29.43 C 11.71,29.43 14.05,31.82 14.05,34.93 L 19.2 36.6 C 20.38,33.25 22.25,30.14 24.36,27.51 L 20.61 23.21 C 18.74,24.64 16.39,25.6 13.82,25.6 C 7.49,25.36 2.34,20.33 2.34,13.88 C 2.34,7.66 7.49,2.39 13.58,2.39 L 13.58 2.39 M 13.58 0 C 6.09,0 0,6.22 0,13.88 C 0,19.62 3.51,24.64 8.43,26.79 C 4.21,27.03 0.94,30.38 0.94,34.69 C 0.94,39 4.45,42.58 8.66,42.58 C 10.54,42.58 12.41,41.87 13.82,40.67 L 15.69 41.15 C 15.46,43.06 15.22,44.98 15.22,47.13 C 15.22,52.39 16.39,57.42 18.74,61.96 L 18.27 62.2 C 16.63,61 14.75,60.53 12.88,60.53 C 7.26,60.53 2.81,65.07 2.81,70.81 C 2.81,76.55 7.26,81.34 12.65,81.34 C 18.03,81.34 22.72,76.79 22.72,71.05 C 22.72,70.57 22.72,69.86 22.48,69.14 L 22.95 68.9 C 29.27,76.32 38.17,80.38 47.78,80.38 C 49.42,80.38 51.05,80.38 52.46,79.9 L 53.16 82.3 C 51.05,84.21 49.65,87.08 49.65,89.95 C 49.65,95.45 54.1,100 59.49,100 C 64.87,100 69.32,95.45 69.32,89.95 C 69.32,84.93 65.57,80.62 60.66,79.9 L 59.95 77.51 C 66.98,74.4 73.07,68.9 76.58,61.72 L 77.52 62.2 C 77.52,68.42 82.67,73.45 88.76,73.45 C 94.85,73.45 100,68.42 100,61.96 C 100,55.74 94.85,50.48 88.76,50.48 C 85.48,50.48 82.44,51.91 80.33,54.31 L 79.16 53.83 C 79.63,51.44 79.86,49.04 79.86,46.65 C 79.86,38.28 77.05,30.62 71.66,24.64 L 72.13 24.16 C 73.3,24.64 74.47,24.88 75.64,24.88 C 81.27,24.88 85.95,20.1 85.95,14.35 C 85.95,8.61 81.27,3.83 75.64,3.83 C 70.02,3.83 65.34,8.61 65.34,14.35 C 65.34,15.79 65.57,17.22 66.28,18.66 L 65.81 19.38 C 60.42,15.55 54.1,13.64 47.54,13.64 C 40.05,13.64 32.55,16.27 26.93,21.29 L 25.76 19.86 C 26.7,17.94 27.17,15.79 27.17,13.64 C 27.17,6.22 21.08,0 13.58,0 L 13.58 0 M 13.58 27.75 C 15.93,27.75 18.27,27.27 20.14,26.08 L 21.55 27.27 C 20.14,29.19 18.97,31.1 18.03,33.25 L 16.39 32.78 C 15.93,30.62 14.52,28.95 12.65,27.75 C 12.88,27.75 13.35,27.75 13.58,27.75 L 13.58 27.75" fill="#FFFFFF" stroke="none" stroke-width="0.5"/>
  </g>
  <g transform="translate(1.00,1.00) scale(0.8100,0.7800)">
    <path d="M 90.27 53.52 C 86.86,53.52 84.18,55.28 82.48,58.04 L 77.62 56.28 C 78.35,53.27 78.83,50.25 78.83,46.98 C 78.83,37.94 75.18,29.65 69.34,23.87 L 72.51 20.1 C 73.72,20.85 75.18,21.36 76.89,21.36 C 81.51,21.36 85.16,17.59 85.16,12.81 C 85.16,8.04 81.51,4.27 76.89,4.27 C 72.26,4.27 68.61,8.04 68.61,12.81 C 68.61,14.57 69.1,16.33 70.07,17.59 L 66.91 21.36 C 61.56,17.09 54.75,14.32 47.45,14.32 C 39.17,14.32 31.39,17.59 25.79,23.12 L 21.41 19.1 C 22.63,17.09 23.6,14.82 23.6,12.31 C 23.36,5.53 18.25,0 11.68,0 C 5.11,0 0,5.53 0,12.06 C 0,18.59 5.35,24.12 11.68,24.12 C 14.36,24.12 16.79,23.12 18.73,21.61 L 23.11 25.88 C 20.92,28.64 18.98,31.91 17.76,35.43 L 12.41 33.67 C 12.41,30.65 9.73,27.89 6.81,27.89 C 3.65,27.89 1.22,30.4 1.22,33.67 C 1.22,36.93 3.65,39.45 6.81,39.45 C 8.76,39.45 10.46,38.44 11.44,36.93 L 16.79 38.69 C 16.3,41.21 15.82,43.97 15.82,46.48 C 15.82,52.51 17.52,58.04 20.19,63.07 L 16.55 65.58 C 15.09,64.07 13.14,63.32 10.95,63.32 C 6.57,63.32 2.92,67.08 2.92,71.61 C 2.92,76.13 6.57,79.9 10.95,79.9 C 15.33,79.9 18.98,76.13 18.98,71.61 C 18.98,70.6 18.73,69.6 18.49,68.59 L 22.14 66.08 C 27.98,73.87 36.98,79.14 47.45,79.14 C 49.88,79.14 52.07,78.89 54.26,78.39 L 55.96 84.92 C 53.53,86.43 52.07,88.94 52.07,91.96 C 52.07,96.48 55.72,100 59.85,100 C 64.23,100 67.64,96.23 67.64,91.96 C 67.64,87.69 63.99,83.92 59.85,83.92 C 59.61,83.92 59.61,83.92 59.37,83.92 L 57.66 77.39 C 66.18,74.37 72.99,67.84 76.64,59.3 L 81.51 61.06 C 81.51,61.56 81.51,62.06 81.51,62.56 C 81.51,67.84 85.65,72.11 90.75,72.11 C 95.86,72.11 100,67.84 100,62.56 C 100,57.29 95.38,53.52 90.27,53.52 L 90.27 53.52 M 72.02 12.81 C 72.02,10.05 74.21,8.04 76.64,8.04 C 79.08,8.04 81.27,10.3 81.27,12.81 C 81.27,15.33 79.32,17.59 76.89,17.59 C 74.21,17.59 72.02,15.58 72.02,12.81 L 72.02 12.81 M 8.76 33.92 C 8.76,35.18 7.79,35.93 6.81,35.93 C 5.84,35.93 4.87,35.18 4.87,33.92 C 4.87,32.66 5.84,31.91 6.81,31.91 C 7.79,31.91 8.76,32.91 8.76,33.92 L 8.76 33.92 M 15.33 72.11 C 15.33,74.62 13.38,76.88 10.95,76.88 C 8.52,76.88 6.57,74.87 6.57,72.11 C 6.57,69.35 8.52,67.34 10.95,67.34 C 13.38,67.34 15.33,69.6 15.33,72.11 L 15.33 72.11 M 63.99 92.46 C 63.99,94.97 62.04,96.99 59.61,96.99 C 57.18,96.99 55.23,94.97 55.23,92.46 C 55.23,89.95 57.18,87.94 59.61,87.94 C 62.04,87.94 63.99,89.95 63.99,92.46 L 63.99 92.46 M 19.46 48.74 L 32.6 48.74 C 32.85,58.54 36.25,67.59 42.09,75.13 C 29.68,72.86 20.19,62.06 19.46,48.74 L 19.46 48.74 M 41.85 18.59 C 36.01,26.13 32.6,35.18 32.36,44.97 L 19.46 44.97 C 20.19,31.91 29.68,21.11 41.85,18.59 L 41.85 18.59 M 75.18 45.23 L 62.04 45.23 C 61.8,35.43 58.39,26.38 52.55,18.84 C 64.96,21.11 74.45,31.91 75.18,45.23 L 75.18 45.23 M 36.01 45.23 C 36.5,34.92 40.39,25.63 47.2,18.34 C 54.02,25.63 57.91,35.18 58.39,45.23 L 36.01 45.23 L 36.01 45.23 M 36.01 48.74 L 58.39 48.74 C 57.91,58.79 54.02,68.34 47.2,75.63 C 40.39,68.34 36.5,59.05 36.01,48.74 L 36.01 48.74 M 62.04 48.74 L 75.18 48.74 C 74.45,61.81 64.96,72.86 52.55,75.13 C 58.39,67.84 61.8,58.54 62.04,48.74 L 62.04 48.74 M 11.68 20.35 C 7.3,20.35 3.65,16.58 3.65,12.06 C 3.65,7.54 7.3,3.77 11.68,3.77 C 16.06,3.77 19.71,7.54 19.71,12.06 C 19.71,16.58 16.3,20.35 11.68,20.35 L 11.68 20.35 M 90.27 68.84 C 87.11,68.84 84.67,66.33 84.67,63.07 C 84.67,59.8 87.11,57.29 90.27,57.29 C 93.43,57.29 95.86,59.8 95.86,63.07 C 95.86,66.33 93.43,68.84 90.27,68.84 L 90.27 68.84" fill="#2d5967" stroke="none" stroke-width="0.5"/>
  </g>
</svg>