<svg xmlns="http://www.w3.org/2000/svg" viewBox="0 0 87.0 106.00000000000007" width="87" height="106">
  <g transform="translate(0.00,0.00) scale(0.8500,0.8000)">
    <path d="M 63.16 99.27 C 48.51,91.51 39.82,79.37 38.9,66.02 L 38.9 52.43 L 0 52.43 L 0.23 49.27 C 0.91,40.78 5.49,33.25 12.59,29.13 C 14.19,28.16 15.33,26.46 15.79,24.51 C 17.16,18.45 20.82,13.35 26.09,10.92 C 28.38,9.95 30.89,9.22 33.18,9.22 C 33.64,9.22 34.32,9.22 34.78,9.22 C 35.01,9.22 35.24,9.22 35.47,9.22 C 37.07,9.22 38.67,8.5 39.82,7.28 C 43.94,2.67 49.66,0 55.84,0 C 64.07,0 71.62,4.85 75.29,12.86 C 76.2,14.56 77.57,15.78 79.63,16.26 C 82.15,16.75 84.44,17.96 86.73,19.42 C 96.57,25.97 100,39.81 94.51,50.73 L 93.59 52.43 L 89.93 52.43 L 89.93 65.78 C 89.24,79.13 80.32,91.26 65.67,99.27 L 64.53 100 L 63.16 99.27 L 63.16 99.27" fill="#FFFFFF" stroke="none" stroke-width="0.5"/>
  </g>
  <g transform="translate(0.00,0.00) scale(0.8700,0.8200)">
    <path d="M 55.71 2.37 C 63.31,2.37 70.25,6.87 73.83,14.22 C 74.72,16.35 76.51,17.77 78.75,18.25 C 80.98,18.72 83.22,19.67 85.23,21.09 C 94.41,27.25 97.54,39.81 92.39,50 L 91.95 50.95 L 87.92 50.95 L 87.92 65.17 C 87.25,77.73 78.97,89.34 64.88,96.68 L 64.21 97.16 L 63.53 96.68 C 49.67,89.34 41.16,77.73 40.49,65.17 L 40.49 50.95 L 2.46 50.95 L 2.68 49.05 C 3.13,41 7.61,34.12 14.32,30.33 C 16.33,29.38 17.67,27.25 18.12,25.12 C 19.24,19.67 22.6,15.17 27.52,12.8 C 29.31,11.85 31.32,11.37 33.56,11.37 C 34,11.37 34.45,11.37 35.12,11.37 C 35.35,11.37 35.57,11.37 35.79,11.37 C 37.81,11.37 39.6,10.66 40.72,9 C 44.74,4.74 50.11,2.37 55.71,2.37 L 55.71 2.37 M 55.71 0 C 49.44,0 43.4,2.84 39.15,7.58 C 38.26,8.53 37.14,9 35.79,9 C 35.57,9 35.57,9 35.35,9 C 34.9,9 34.23,9 33.56,9 C 31.1,9 28.41,9.48 26.17,10.66 C 20.81,13.27 16.78,18.48 15.66,24.64 C 15.44,26.3 14.32,27.49 12.98,28.44 C 5.59,32.46 0.89,40.28 0.22,49.05 L 0 50.95 L 0 53.32 L 2.46 53.32 L 38.26 53.32 L 38.26 65.17 L 38.26 65.4 C 38.93,78.91 47.87,91.23 62.42,99.05 L 63.09 99.53 L 64.21 100 L 65.32 99.53 L 66 99.05 C 80.54,91 89.49,78.91 90.16,65.4 L 90.16 53.55 L 91.95 53.55 L 93.29 53.55 L 93.96 52.13 L 94.41 51.18 C 100,40.05 96.64,26.07 86.35,19.19 C 84.12,17.77 81.66,16.59 79.19,16.11 C 77.63,15.64 76.51,14.69 75.84,13.27 C 71.81,4.98 64.21,0 55.71,0 L 55.71 0" fill="#FFFFFF" stroke="none" stroke-width="0.5"/>
  </g>
  <g transform="translate(1.00,1.00) scale(0.8300,0.3900)">
    <path d="M 87.09 38.54 C 84.98,35.61 82.63,33.66 80.28,32.68 C 77.93,31.71 76.06,28.78 75.12,24.39 C 71.6,9.27 64.32,0 56.1,0 C 50.23,0 44.6,4.88 40.61,14.15 C 39.2,17.56 36.85,19.02 34.51,18.54 C 31.69,18.05 28.64,19.02 26.06,21.46 C 21.13,26.34 17.37,35.61 16.43,46.83 C 15.96,51.71 14.55,55.61 12.44,57.56 C 5.4,65.37 0.94,79.51 0.24,96.1 L 0 100 L 37.56 100 L 37.56 92.68 L 17.14 92.68 L 17.14 75.61 L 38.5 75.61 L 38.5 76.59 L 47.65 68.29 L 29.34 68.29 L 29.34 50.24 L 50.7 50.24 L 50.7 65.37 L 54.23 62.44 L 54.23 50.24 L 74.65 50.24 L 74.65 60.98 L 78.17 63.9 L 78.17 50.24 L 88.97 50.24 C 91.31,55.12 92.96,61.46 93.66,68.29 L 83.1 68.29 L 91.31 75.61 L 94.37 75.61 C 94.37,80.49 94.13,85.37 93.19,90.24 L 93.19 100 L 94.83 100 L 95.3 98.05 C 100,77.07 96.71,51.22 87.09,38.54 L 87.09 38.54 M 13.62 92.68 L 3.99 92.68 C 4.46,86.34 5.63,80.49 7.51,75.61 L 13.62 75.61 L 13.62 92.68 L 13.62 92.68 M 25.82 68.29 L 11.03 68.29 C 11.97,66.83 12.91,65.37 14.08,63.9 C 16.67,60.98 18.78,56.1 19.48,50.24 L 25.82 50.24 L 25.82 68.29 L 25.82 68.29 M 38.26 43.41 L 20.42 43.41 C 21.83,36.59 24.18,31.22 27.46,28.29 C 29.58,26.34 31.92,25.37 34.04,25.85 C 35.45,26.34 36.85,25.85 38.03,24.88 L 38.26 43.41 L 38.26 43.41 M 53.99 7.32 C 54.7,7.32 55.4,6.83 56.1,6.83 C 60.8,6.83 65.26,10.73 68.54,17.56 L 53.99 17.56 L 53.99 7.32 L 53.99 7.32 M 50.47 9.27 L 50.47 18.05 L 43.66 18.05 C 45.54,13.66 47.89,10.73 50.47,9.27 L 50.47 9.27 M 62.68 43.41 L 41.78 43.41 L 41.78 25.37 L 62.68 25.37 L 62.68 43.41 L 62.68 43.41 M 65.96 43.41 L 65.96 25.37 L 71.13 25.37 C 71.36,26.34 71.6,26.83 71.83,27.8 C 73.24,34.15 76.06,38.54 79.34,40 C 80.99,40.49 82.39,41.95 83.8,43.41 L 65.96 43.41 L 65.96 43.41" fill="#2d5967" stroke="none" stroke-width="0.5"/>
  </g>
  <g transform="translate(34.00,24.00) scale(0.4100,0.5400)">
    <path d="M 0 16.43 L 0 51.79 C 1.42,70.71 18.87,88.21 48.58,99.29 L 50 100 L 51.42 99.29 C 80.66,88.21 98.58,70.71 100,51.79 L 100 16.07 L 50 0 L 0 16.43 L 0 16.43 M 92.92 51.79 C 91.51,67.86 77.36,82.86 52.83,92.86 L 52.83 40.71 L 45.75 40.71 L 45.75 92.14 C 22.17,81.79 8.02,67.14 6.6,51.43 L 6.6 19.64 L 45.75 6.79 L 45.75 33.93 L 52.83 33.93 L 52.83 6.43 L 92.92 19.29 L 92.92 51.79 L 92.92 51.79" fill="#2d5967" stroke="none" stroke-width="0.5"/>
  </g>
</svg>