<svg xmlns="http://www.w3.org/2000/svg" viewBox="0 0 84.0 92.00000000000014" width="84" height="92">
  <g transform="translate(26.00,0.00) scale(0.8300,0.6600)">
    <path d="M 0 99.76 L 0 7.06 C 0,3.16 2.52,0 5.62,0 L 31.01 0 C 32.76,0 34.5,0.97 35.47,2.92 L 40.7 11.68 L 94.38 11.68 C 97.48,11.68 100,14.84 100,18.73 L 100 100 L 0 100 L 0 99.76 L 0 99.76" fill="#FFFFFF" stroke="none" stroke-width="0.5"/>
  </g>
  <g transform="translate(26.00,0.00) scale(0.8400,0.6700)">
    <path d="M 31.43 2.38 C 32.76,2.38 34.29,3.33 35.05,4.76 L 40.37 13.81 L 93.53 13.81 C 96,13.81 98.1,16.43 98.1,19.52 L 98.1 97.62 L 1.9 97.62 L 1.9 8.1 C 1.9,5 4,2.38 6.48,2.38 L 31.43 2.38 L 31.43 2.38 M 31.43 0 L 6.48 0 C 2.86,0 0,3.57 0,8.1 L 0 97.62 L 0 100 L 1.9 100 L 98.1 100 L 100 100 L 100 97.62 L 100 19.29 C 100,14.76 97.14,11.19 93.53,11.19 L 41.34 11.19 L 36.58 3.1 C 35.24,1.19 33.34,0 31.43,0 L 31.43 0" fill="#FFFFFF" stroke="none" stroke-width="0.5"/>
  </g>
  <g transform="translate(27.00,1.00) scale(0.8100,0.6400)">
    <path d="M 95.24 12 L 39.99 12 L 34.46 2.5 C 33.67,1 32.28,0 30.69,0 L 4.76 0 C 2.18,0 0,2.75 0,6 L 0 100 L 100 100 L 100 17.75 C 100,14.5 97.82,12 95.24,12 L 95.24 12 M 95.63 94.75 L 4.16 94.75 L 4.16 6 C 4.16,5.75 4.37,5.25 4.76,5.25 L 30.69 5.25 C 30.89,5.25 31.09,5.25 31.09,5.5 L 38.02 17.25 L 95.44 17.25 C 95.63,17.25 96.04,17.5 96.04,18 L 95.63 94.75 L 95.63 94.75" fill="#2d5967" stroke="none" stroke-width="0.5"/>
  </g>
  <g transform="translate(35.00,8.00) scale(0.1300,0.1300)">
    <path d="M 36.87 100 L 61.87 100 L 61.87 63.1 L 100 63.1 L 100 38.1 L 61.87 38.1 L 61.87 0 L 36.87 0 L 36.87 38.1 L 0 38.1 L 0 63.1 L 36.87 63.1 L 36.87 100 L 36.87 100" fill="#2d5967" stroke="none" stroke-width="0.5"/>
  </g>
  <g transform="translate(78.00,30.00) scale(0.2000,0.1800)">
    <path d="M 63.28 28.95 L 49.23 0 L 35.18 28.95 L 13.28 72.81 L 0 100 L 28.1 100 L 71.9 100 L 100 100 L 85.95 72.81 L 63.28 28.95 L 63.28 28.95 M 27.33 82.45 L 49.23 38.6 L 71.08 82.45 L 27.33 82.45 L 27.33 82.45" fill="#2d5967" stroke="none" stroke-width="0.5"/>
  </g>
  <g transform="translate(59.00,31.00) scale(0.1900,0.1700)">
    <path d="M 76.25 7.34 C 68.63,2.75 60.18,0 51.67,0 C 48.33,0 44.05,0 40.66,0.92 C 15.24,7.34 0,34.86 5.95,61.47 C 11.01,84.4 29.64,100 51.67,100 C 55.06,100 59.34,100 62.74,99.08 C 74.58,96.33 84.76,88.07 91.55,76.15 C 98.33,65.14 100,51.37 97.44,37.62 C 94.05,25.69 86.43,14.68 76.25,7.34 L 76.25 7.34 M 76.25 66.97 C 72.02,74.31 66.13,78.9 58.45,80.73 C 55.95,81.65 54.23,81.65 51.67,81.65 C 38.99,81.65 26.25,71.56 23.75,57.8 C 20.36,41.28 29.64,23.85 44.94,20.18 C 47.44,19.27 49.17,19.27 51.67,19.27 C 56.79,19.27 61.85,21.1 66.96,23.85 C 73.75,28.44 77.98,34.86 79.64,43.12 C 81.37,51.37 79.64,59.63 76.25,66.97 L 76.25 66.97" fill="#2d5967" stroke="none" stroke-width="0.5"/>
  </g>
  <g transform="translate(37.00,31.00) scale(0.2000,0.1700)">
    <path d="M 79.84 9.26 L 74.97 0 L 65.34 0 L 34.66 0 L 25.03 0 L 20.16 9.26 L 4.87 39.81 L 0 50 L 4.87 60.19 L 20.16 90.74 L 25.03 100 L 34.66 100 L 65.34 100 L 74.97 100 L 79.84 90.74 L 95.13 60.19 L 100 50 L 95.98 39.81 L 79.84 9.26 L 79.84 9.26 M 65.34 80.56 L 34.66 80.56 L 19.37 50 L 34.66 19.44 L 65.34 19.44 L 80.63 50 L 65.34 80.56 L 65.34 80.56" fill="#2d5967" stroke="none" stroke-width="0.5"/>
  </g>
</svg>