<svg xmlns="http://www.w3.org/2000/svg" viewBox="0 0 63.0 125.00000000000017" width="63" height="125">
  <g transform="translate(19.00,0.00) scale(0.6300,0.8400)">
    <path d="M 0 15.29 L 0 51.14 C 1.45,70.38 19.77,88.51 49.01,99.62 L 50 100 L 50.99 99.62 C 80.23,88.49 98.55,70.36 100,51.14 L 100 15.29 L 50 0 L 0 15.29 L 0 15.29 M 95.58 50.99 C 94.21,68.79 77.21,85.65 50,96.24 C 22.79,85.65 5.76,68.79 4.42,50.99 L 4.42 17.55 L 50 3.61 L 95.58 17.55 L 95.58 50.99 L 95.58 50.99" fill="#2d5967" stroke="none" stroke-width="0.5"/>
  </g>
  <g transform="translate(26.00,17.00) scale(0.2300,0.4500)">
    <path d="M 86.41 0 C 86.06,0 85.71,0 85.37,0 C 80.35,0 75.33,0.47 70.46,1.4 C 61.26,3.15 53.45,6.45 48.22,10.74 C 27.04,12.39 10.87,21.92 10.87,33.13 C 10.87,33.74 10.87,34.35 11.01,34.99 C 3.9,39.15 0,44.41 0,50 C 0,55.59 3.9,60.85 11.01,65.01 C 10.87,65.62 10.87,66.22 10.87,66.8 C 10.87,77.97 26.9,87.46 47.95,89.18 C 55.89,95.88 69.97,100 85.3,100 C 85.79,100 86.27,100 86.76,100 C 92.75,99.89 97.7,98.03 100,95.38 C 99.45,94.34 99.16,93.23 99.16,92.08 L 99.16 7.92 C 99.16,6.77 99.45,5.69 100,4.66 C 97.63,1.97 92.48,0.11 86.34,0 L 86.41 0 L 86.41 0 M 47.95 21.24 C 38.6,21.24 31.08,25.14 31.08,29.98 C 31.08,34.81 38.68,38.72 47.95,38.72 C 50.38,38.72 52.68,38.43 54.77,37.97 L 59.3 40.29 L 89.34 40.29 L 89.34 46.92 L 51.5 46.92 C 49.06,43.66 42.93,41.33 35.75,41.33 C 26.41,41.33 18.88,45.24 18.88,50.07 C 18.88,54.91 26.48,58.81 35.75,58.81 C 42.93,58.81 49.06,56.48 51.5,53.19 L 89.34 53.19 L 89.34 59.49 L 59.3 59.49 L 54.77 61.82 C 52.68,61.32 50.38,61.07 47.95,61.07 C 38.6,61.07 31.08,64.97 31.08,69.81 C 31.08,74.64 38.68,78.55 47.95,78.55 C 57.21,78.55 64.81,74.64 64.81,69.81 C 64.81,68.55 64.25,67.33 63.34,66.26 L 64.32 65.76 L 89.34 65.76 L 89.34 92.12 C 89.34,93.01 88.02,93.77 86.34,93.8 C 86,93.8 85.65,93.8 85.3,93.8 C 73.38,93.8 62.58,90.4 57.07,84.88 L 55.54 83.35 L 52.2 83.2 C 35.82,82.52 22.92,75.36 22.92,66.87 C 22.92,66.15 23.06,65.36 23.35,64.43 L 23.76 62.86 L 21.6 61.75 C 15.47,58.63 12.12,54.48 12.12,50.04 C 12.12,45.59 15.54,41.44 21.67,38.32 L 23.9 37.21 L 23.41 35.64 C 23.13,34.71 23,33.92 23,33.17 C 23,24.64 35.89,17.44 52.4,16.83 L 55.75 16.69 L 57.35 15.19 C 61.11,11.53 67.32,8.74 74.77,7.31 C 78.26,6.63 81.88,6.3 85.44,6.3 C 85.71,6.3 85.92,6.3 86.2,6.3 C 88.02,6.3 89.41,7.06 89.41,7.99 L 89.41 34.06 L 64.39 34.06 L 63.42 33.56 C 64.32,32.49 64.88,31.27 64.88,30.01 C 64.88,25.21 57.28,21.27 48.01,21.27 L 47.95 21.24 L 47.95 21.24 M 52.75 29.98 C 52.75,31.34 50.59,32.45 47.95,32.45 C 45.3,32.45 43.14,31.34 43.14,29.98 C 43.14,28.62 45.3,27.51 47.95,27.51 C 50.59,27.51 52.75,28.62 52.75,29.98 L 52.75 29.98 M 40.56 50.04 C 40.56,51.4 38.4,52.51 35.75,52.51 C 33.1,52.51 30.94,51.4 30.94,50.04 C 30.94,48.67 33.1,47.56 35.75,47.56 C 38.4,47.56 40.56,48.67 40.56,50.04 L 40.56 50.04 M 52.75 69.77 C 52.75,71.13 50.59,72.24 47.95,72.24 C 45.3,72.24 43.14,71.13 43.14,69.77 C 43.14,68.41 45.3,67.3 47.95,67.3 C 50.59,67.3 52.75,68.41 52.75,69.77 L 52.75 69.77" fill="#2d5967" stroke="none" stroke-width="0.5"/>
  </g>
  <g transform="translate(51.00,16.00) scale(0.2300,0.4500)">
    <path d="M 14.49 100 C 14.97,100 15.45,100 15.94,100 C 31.05,100 44.92,95.88 52.75,89.18 C 73.49,87.5 89.29,77.97 89.29,66.8 C 89.29,66.22 89.29,65.62 89.15,65.01 C 96.16,60.85 100,55.59 100,50 C 100,44.41 96.16,39.15 89.15,34.99 C 89.29,34.35 89.29,33.74 89.29,33.13 C 89.29,21.92 73.35,12.39 52.47,10.75 C 47.32,6.45 39.63,3.19 30.56,1.4 C 25.76,0.47 20.81,0 15.8,0 C 15.45,0 15.11,0 14.77,0 C 6.46,0.11 0,3.58 0,7.92 L 0 92.05 C 0,96.35 6.32,99.82 14.42,99.96 L 14.49 100 L 14.49 100 M 78.71 38.32 C 84.76,41.44 88.12,45.59 88.12,50.04 C 88.12,54.48 84.82,58.63 78.78,61.75 L 76.65 62.86 L 77.06 64.43 C 77.34,65.37 77.47,66.15 77.47,66.87 C 77.47,75.36 64.84,82.56 48.63,83.2 L 45.33 83.35 L 43.82 84.89 C 38.4,90.4 27.75,93.8 16,93.8 C 15.66,93.8 15.32,93.8 14.97,93.8 C 13.4,93.8 12.02,93.01 12.02,92.12 L 12.02 65.76 L 36.68 65.76 L 37.64 66.26 C 36.75,67.34 36.2,68.55 36.2,69.81 C 36.2,74.61 43.68,78.55 52.82,78.55 C 61.95,78.55 69.44,74.64 69.44,69.81 C 69.44,64.97 61.95,61.07 52.82,61.07 C 50.41,61.07 48.15,61.35 46.09,61.82 L 41.62 59.49 L 12.02 59.49 L 12.02 53.19 L 49.32 53.19 C 51.72,56.48 57.76,58.81 64.84,58.81 C 74.04,58.81 81.46,54.91 81.46,50.07 C 81.46,45.24 73.97,41.33 64.84,41.33 C 57.76,41.33 51.72,43.66 49.32,46.92 L 12.02 46.92 L 12.02 40.29 L 41.62 40.29 L 46.09 37.97 C 48.15,38.47 50.41,38.72 52.82,38.72 C 62.02,38.72 69.44,34.81 69.44,29.98 C 69.44,25.14 61.95,21.24 52.82,21.24 C 43.68,21.24 36.2,25.14 36.2,29.98 C 36.2,31.23 36.75,32.45 37.64,33.52 L 36.68 34.03 L 12.02 34.03 L 12.02 7.95 C 12.02,7.06 13.4,6.3 15.18,6.27 C 15.18,6.27 15.66,6.27 15.94,6.27 C 19.44,6.27 23.01,6.59 26.45,7.27 C 33.79,8.7 39.9,11.5 43.61,15.15 L 45.19 16.65 L 48.49 16.8 C 64.7,17.44 77.47,24.61 77.47,33.13 C 77.47,33.88 77.34,34.67 77.06,35.6 L 76.58 37.18 L 78.78 38.29 L 78.71 38.32 L 78.71 38.32 M 48.01 69.77 C 48.01,68.41 50.14,67.3 52.75,67.3 C 55.36,67.3 57.49,68.41 57.49,69.77 C 57.49,71.13 55.36,72.24 52.75,72.24 C 50.14,72.24 48.01,71.13 48.01,69.77 L 48.01 69.77 M 60.03 50.04 C 60.03,48.67 62.16,47.56 64.77,47.56 C 67.38,47.56 69.51,48.67 69.51,50.04 C 69.51,51.4 67.38,52.51 64.77,52.51 C 62.16,52.51 60.03,51.4 60.03,50.04 L 60.03 50.04 M 48.01 29.98 C 48.01,28.62 50.14,27.51 52.75,27.51 C 55.36,27.51 57.49,28.62 57.49,29.98 C 57.49,31.34 55.36,32.45 52.75,32.45 C 50.14,32.45 48.01,31.34 48.01,29.98 L 48.01 29.98" fill="#2d5967" stroke="none" stroke-width="0.5"/>
  </g>
</svg>