<svg xmlns="http://www.w3.org/2000/svg" viewBox="0 0 85.0 106.00000000000007" width="85" height="106">
  <g transform="translate(23.00,0.00) scale(0.8300,0.8000)">
    <path d="M 88.84 99.96 C 86.23,99.94 83.72,98.96 81.76,97.19 C 79.8,95.42 78.52,92.97 78.16,90.31 C 77.8,87.64 78.39,84.93 79.81,82.67 C 81.22,80.41 83.38,78.76 85.89,78.02 L 85.89 72.09 L 55.59 72.09 C 54.98,73.33 54,74.34 52.8,74.97 L 52.8 78.02 C 55.32,78.75 57.5,80.4 58.93,82.66 C 60.36,84.92 60.95,87.64 60.59,90.32 C 60.23,92.99 58.95,95.45 56.98,97.22 C 55.01,99 52.48,99.97 49.86,99.97 C 47.25,99.97 44.72,99 42.75,97.22 C 40.77,95.45 39.49,92.99 39.13,90.32 C 38.77,87.64 39.37,84.92 40.8,82.66 C 42.23,80.4 44.41,78.75 46.92,78.02 L 46.92 74.97 C 45.72,74.34 44.75,73.33 44.14,72.09 L 14.03 72.09 L 14.03 78.04 C 16.54,78.77 18.72,80.42 20.15,82.68 C 21.58,84.94 22.18,87.66 21.82,90.34 C 21.46,93.02 20.18,95.47 18.2,97.25 C 16.23,99.02 13.7,100 11.09,100 C 8.47,100 5.95,99.02 3.97,97.25 C 2,95.47 0.72,93.02 0.36,90.34 C 0,87.66 0.59,84.94 2.02,82.68 C 3.46,80.42 5.63,78.77 8.15,78.04 L 8.15 66.09 L 44.19 66.09 C 44.8,64.85 45.78,63.84 46.97,63.19 L 46.97 59.32 L 14.1 59.32 L 14.1 4.88 C 14.1,3.58 14.59,2.34 15.48,1.43 C 16.37,0.51 17.57,0 18.82,0 L 36.71 0 C 37.44,0 38.17,0.18 38.83,0.52 C 39.49,0.86 40.07,1.36 40.51,1.98 L 43.79 6.68 L 81.03 6.68 C 82.28,6.68 83.48,7.19 84.36,8.11 C 85.25,9.02 85.75,10.26 85.75,11.56 L 85.75 59.32 L 52.85 59.32 L 52.85 63.12 C 54.03,63.77 54.98,64.79 55.59,66.02 L 91.76 66.02 L 91.76 78.02 C 94.3,78.73 96.5,80.37 97.95,82.63 C 99.4,84.89 100,87.63 99.64,90.32 C 99.28,93 97.99,95.47 96,97.24 C 94.01,99.01 91.47,99.98 88.84,99.96 L 88.84 99.96" fill="#FFFFFF" stroke="none" stroke-width="0.5"/>
  </g>
  <g transform="translate(22.00,0.00) scale(0.8500,0.8200)">
    <path d="M 37.03 2.38 C 37.57,2.38 38.1,2.51 38.59,2.76 C 39.07,3.02 39.49,3.38 39.81,3.83 L 43.48 8.9 L 80.33 8.9 C 81.24,8.9 82.12,9.28 82.77,9.95 C 83.41,10.62 83.78,11.52 83.78,12.47 L 83.78 57.89 L 51.63 57.89 L 51.63 63.57 C 52.35,63.84 53,64.27 53.54,64.83 C 54.08,65.39 54.5,66.06 54.76,66.81 L 89.61 66.81 L 89.61 78.25 C 91.92,78.69 93.99,80.01 95.41,81.94 C 96.83,83.87 97.5,86.29 97.29,88.71 C 97.07,91.12 95.99,93.37 94.26,95.01 C 92.52,96.64 90.26,97.55 87.91,97.55 C 85.56,97.55 83.29,96.64 81.56,95.01 C 79.82,93.37 78.74,91.12 78.52,88.71 C 78.31,86.29 78.98,83.87 80.4,81.94 C 81.82,80.01 83.89,78.69 86.2,78.25 L 86.2 70.35 L 54.76 70.35 C 54.5,71.09 54.09,71.77 53.54,72.32 C 53,72.88 52.35,73.3 51.63,73.56 L 51.63 78.32 C 53.94,78.76 56.01,80.08 57.42,82.02 C 58.84,83.95 59.51,86.36 59.3,88.78 C 59.08,91.2 58,93.44 56.26,95.08 C 54.53,96.71 52.26,97.62 49.91,97.62 C 47.56,97.62 45.3,96.71 43.56,95.08 C 41.83,93.44 40.75,91.2 40.53,88.78 C 40.32,86.36 40.98,83.95 42.4,82.02 C 43.82,80.08 45.89,78.76 48.2,78.32 L 48.2 73.56 C 47.48,73.3 46.83,72.88 46.29,72.33 C 45.75,71.77 45.34,71.09 45.09,70.35 L 13.74 70.35 L 13.74 78.27 C 16.05,78.72 18.12,80.03 19.54,81.97 C 20.95,83.9 21.62,86.32 21.41,88.73 C 21.19,91.15 20.11,93.4 18.37,95.03 C 16.64,96.67 14.37,97.57 12.02,97.57 C 9.68,97.57 7.41,96.67 5.68,95.03 C 3.94,93.4 2.86,91.15 2.64,88.73 C 2.43,86.32 3.1,83.9 4.51,81.97 C 5.93,80.03 8,78.72 10.31,78.27 L 10.31 66.85 L 45.09 66.85 C 45.34,66.11 45.75,65.43 46.29,64.88 C 46.83,64.32 47.48,63.89 48.2,63.62 L 48.2 57.89 L 16.11 57.89 L 16.11 5.95 C 16.11,5 16.48,4.09 17.13,3.42 C 17.77,2.76 18.65,2.38 19.57,2.38 L 37.03 2.38 L 37.03 2.38 M 37.03 0 L 19.57 0 C 18.04,0 16.58,0.63 15.5,1.74 C 14.42,2.86 13.81,4.37 13.81,5.95 L 13.81 60.26 L 45.89 60.26 L 45.89 62.12 C 44.97,62.73 44.18,63.54 43.59,64.5 L 8.01 64.5 L 8.01 76.4 C 5.42,77.37 3.24,79.26 1.87,81.72 C 0.49,84.19 0,87.08 0.48,89.88 C 0.96,92.68 2.38,95.22 4.49,97.05 C 6.6,98.88 9.27,99.88 12.02,99.88 C 14.78,99.88 17.45,98.88 19.56,97.05 C 21.67,95.22 23.09,92.68 23.57,89.88 C 24.05,87.08 23.56,84.19 22.18,81.72 C 20.81,79.26 18.63,77.37 16.04,76.4 L 16.04 72.73 L 43.68 72.73 C 44.27,73.69 45.06,74.5 45.99,75.11 L 45.99 76.51 C 43.4,77.49 41.23,79.38 39.85,81.84 C 38.47,84.31 37.98,87.2 38.46,90 C 38.94,92.8 40.36,95.34 42.47,97.17 C 44.58,99 47.25,100 50.01,100 C 52.76,100 55.43,99 57.54,97.17 C 59.65,95.34 61.07,92.8 61.55,90 C 62.03,87.2 61.54,84.31 60.16,81.84 C 58.79,79.38 56.61,77.49 54.03,76.51 L 54.03 75.11 C 54.96,74.5 55.74,73.69 56.33,72.73 L 83.97 72.73 L 83.97 76.44 C 81.38,77.42 79.2,79.3 77.82,81.77 C 76.45,84.23 75.95,87.12 76.43,89.93 C 76.91,92.73 78.33,95.27 80.44,97.1 C 82.55,98.93 85.22,99.93 87.98,99.93 C 90.73,99.93 93.4,98.93 95.51,97.1 C 97.62,95.27 99.04,92.73 99.52,89.93 C 100,87.12 99.51,84.23 98.13,81.77 C 96.75,79.3 94.57,77.42 91.98,76.44 L 91.98 64.43 L 56.17 64.43 C 55.58,63.47 54.79,62.66 53.86,62.05 L 53.86 60.19 L 86.04 60.19 L 86.04 12.47 C 86.03,10.89 85.43,9.38 84.35,8.27 C 83.27,7.15 81.81,6.53 80.28,6.52 L 44.54 6.52 L 41.63 2.38 C 41.1,1.64 40.4,1.05 39.6,0.63 C 38.8,0.22 37.92,0 37.03,0 L 37.03 0 L 37.03 0" fill="#FFFFFF" stroke="none" stroke-width="0.5"/>
  </g>
  <g transform="translate(24.00,1.00) scale(0.8000,0.7800)">
    <path d="M 91.7 79.66 L 91.7 67.65 L 55.05 67.65 C 54.77,66.87 54.33,66.16 53.76,65.57 C 53.19,64.99 52.51,64.54 51.75,64.25 L 51.75 58.28 L 85.52 58.28 L 85.52 10.59 C 85.52,9.6 85.13,8.65 84.45,7.95 C 83.77,7.25 82.85,6.85 81.89,6.84 L 43.13 6.84 L 39.23 1.52 C 38.9,1.07 38.47,0.69 37.98,0.43 C 37.49,0.16 36.95,0.02 36.39,0 L 18.03 0 C 17.06,0 16.13,0.39 15.45,1.1 C 14.76,1.8 14.38,2.75 14.37,3.75 L 14.37 58.28 L 48.14 58.28 L 48.14 64.25 C 47.39,64.53 46.7,64.98 46.14,65.57 C 45.57,66.16 45.14,66.87 44.87,67.65 L 8.29 67.65 L 8.29 79.64 C 5.86,80.1 3.69,81.49 2.19,83.52 C 0.7,85.55 0,88.08 0.23,90.62 C 0.45,93.16 1.59,95.51 3.41,97.23 C 5.24,98.95 7.62,99.9 10.09,99.9 C 12.56,99.9 14.95,98.95 16.77,97.23 C 18.6,95.51 19.73,93.16 19.96,90.62 C 20.19,88.08 19.49,85.55 17.99,83.52 C 16.5,81.49 14.33,80.1 11.9,79.64 L 11.9 71.37 L 44.87 71.37 C 45.14,72.15 45.57,72.86 46.13,73.44 C 46.7,74.02 47.39,74.47 48.14,74.74 L 48.14 79.74 C 45.71,80.2 43.54,81.59 42.05,83.62 C 40.55,85.65 39.85,88.18 40.08,90.72 C 40.31,93.26 41.44,95.61 43.27,97.33 C 45.09,99.05 47.47,100 49.95,100 C 52.42,100 54.8,99.05 56.63,97.33 C 58.45,95.61 59.59,93.26 59.81,90.72 C 60.04,88.18 59.34,85.65 57.85,83.62 C 56.35,81.59 54.18,80.2 51.75,79.74 L 51.75 74.74 C 52.51,74.47 53.2,74.02 53.77,73.44 C 54.34,72.85 54.77,72.15 55.05,71.37 L 88.12 71.37 L 88.12 79.66 C 85.68,80.12 83.51,81.51 82.01,83.54 C 80.52,85.57 79.82,88.1 80.04,90.64 C 80.27,93.18 81.4,95.54 83.23,97.26 C 85.05,98.98 87.44,99.93 89.91,99.93 C 92.38,99.93 94.76,98.98 96.59,97.26 C 98.41,95.54 99.55,93.18 99.78,90.64 C 100,88.1 99.3,85.57 97.8,83.54 C 96.31,81.51 94.13,80.12 91.7,79.66 L 91.7 79.66 M 17.98 3.75 L 36.39 3.75 L 41.24 10.59 L 81.91 10.59 L 81.91 54.58 L 17.98 54.58 L 17.98 3.75 L 17.98 3.75 M 3.66 89.71 C 3.66,88.42 4.03,87.16 4.72,86.1 C 5.42,85.03 6.4,84.2 7.55,83.7 C 8.7,83.21 9.97,83.08 11.19,83.33 C 12.41,83.58 13.53,84.2 14.41,85.11 C 15.3,86.02 15.9,87.18 16.14,88.44 C 16.38,89.7 16.26,91 15.78,92.19 C 15.3,93.38 14.5,94.39 13.46,95.11 C 12.42,95.82 11.21,96.2 9.96,96.2 C 9.13,96.2 8.31,96.03 7.55,95.71 C 6.79,95.38 6.09,94.9 5.51,94.3 C 4.92,93.69 4.46,92.98 4.14,92.19 C 3.82,91.4 3.66,90.56 3.66,89.71 L 3.66 89.71 M 49.96 71.37 C 49.48,71.36 49.02,71.16 48.68,70.81 C 48.34,70.46 48.15,69.99 48.14,69.5 C 48.15,69 48.34,68.53 48.68,68.19 C 49.02,67.84 49.48,67.65 49.96,67.65 C 50.43,67.65 50.89,67.84 51.23,68.19 C 51.56,68.54 51.75,69.01 51.75,69.5 C 51.75,69.99 51.56,70.46 51.23,70.81 C 50.89,71.16 50.44,71.36 49.96,71.37 L 49.96 71.37 M 49.96 96.2 C 48.71,96.2 47.49,95.82 46.46,95.11 C 45.42,94.39 44.62,93.38 44.14,92.19 C 43.66,91 43.54,89.7 43.78,88.44 C 44.02,87.18 44.62,86.02 45.5,85.11 C 46.38,84.2 47.51,83.58 48.73,83.33 C 49.95,83.08 51.22,83.21 52.37,83.7 C 53.52,84.2 54.5,85.03 55.2,86.1 C 55.89,87.16 56.26,88.42 56.26,89.71 C 56.26,90.56 56.09,91.4 55.78,92.19 C 55.46,92.98 55,93.69 54.41,94.3 C 53.83,94.9 53.13,95.38 52.37,95.71 C 51.6,96.03 50.79,96.2 49.96,96.2 L 49.96 96.2 M 83.61 89.71 C 83.61,88.42 83.98,87.16 84.67,86.1 C 85.36,85.03 86.35,84.2 87.5,83.7 C 88.65,83.21 89.91,83.08 91.14,83.33 C 92.36,83.58 93.48,84.2 94.36,85.11 C 95.24,86.02 95.84,87.18 96.09,88.44 C 96.33,89.7 96.2,91 95.73,92.19 C 95.25,93.38 94.44,94.39 93.41,95.11 C 92.37,95.82 91.15,96.2 89.91,96.2 C 89.08,96.2 88.26,96.03 87.5,95.71 C 86.73,95.38 86.04,94.9 85.45,94.3 C 84.87,93.69 84.41,92.98 84.09,92.19 C 83.77,91.4 83.61,90.56 83.61,89.71 L 83.61 89.71" fill="#2d5967" stroke="none" stroke-width="0.5"/>
  </g>
  <g transform="translate(50.00,13.00) scale(0.2700,0.2700)">
    <path d="M 100 79.86 L 100 20.04 L 100 19.19 C 99.67,16.86 98.77,14.66 97.37,12.77 C 95.97,10.88 94.12,9.37 92,8.37 C 86.2,5.26 79.93,3.13 73.44,2.07 C 65.71,0.66 57.86,0 50,0.09 C 42.07,0.04 34.14,0.75 26.34,2.21 C 19.78,3.3 13.45,5.53 7.65,8.79 C 5.49,9.84 3.65,11.44 2.31,13.43 C 0.96,15.41 0.17,17.72 0,20.11 L 0 79.94 C 0.17,82.32 0.96,84.61 2.3,86.59 C 3.65,88.56 5.49,90.15 7.65,91.18 C 13.43,94.5 19.76,96.75 26.34,97.83 C 34.14,99.29 42.07,100 50,99.95 C 57.93,100 65.85,99.29 73.65,97.83 C 80.23,96.75 86.57,94.5 92.35,91.18 C 94.51,90.14 96.37,88.55 97.71,86.56 C 99.06,84.57 99.84,82.26 100,79.86 L 100 79.86 M 10.34 19.75 C 10.34,19.05 11.4,18.2 13.17,17.14 C 15.7,15.87 18.36,14.89 21.1,14.24 C 25.17,12.96 29.34,12.04 33.57,11.48 C 39.16,10.75 44.79,10.4 50.42,10.42 C 56.2,10.4 61.98,10.8 67.7,11.62 C 71.97,12.12 76.19,13 80.31,14.24 C 83.06,14.97 85.73,16.01 88.24,17.35 C 89.87,18.41 90.72,19.26 90.72,20.04 C 90.72,20.81 89.87,21.59 88.24,22.65 C 85.86,24.07 83.32,25.19 80.67,25.98 C 76.55,27.26 72.33,28.18 68.06,28.73 C 62.34,29.59 56.56,29.99 50.78,29.94 C 45.02,29.99 39.26,29.59 33.57,28.73 C 29.29,28.18 25.08,27.26 20.96,25.98 C 18.31,25.19 15.76,24.07 13.39,22.65 C 11.33,21.31 10.34,20.74 10.34,20.04 L 10.34 19.75 L 10.34 19.75 M 8.99 32.48 C 14.75,35.25 20.88,37.16 27.2,38.14 C 34.44,39.39 41.79,40.01 49.15,39.98 L 53.82 39.98 L 57.93 39.98 L 64.45 39.48 C 66.29,39.48 68.06,38.99 69.83,38.64 L 76.27 37.43 L 78.04 36.94 C 79.12,36.52 80.16,36.03 81.16,35.45 L 84.56 34.39 L 88.24 33.33 L 88.74 33.33 L 89.8 32.69 L 89.8 50.16 C 89.8,50.87 89.02,51.79 87.32,52.85 C 84.94,54.27 82.4,55.38 79.74,56.17 C 75.6,57.45 71.36,58.37 67.07,58.93 C 61.32,59.81 55.52,60.23 49.72,60.2 C 43.91,60.23 38.11,59.81 32.37,58.93 C 28.07,58.38 23.83,57.46 19.69,56.17 C 17.03,55.38 14.49,54.27 12.11,52.85 C 10.41,51.79 9.56,50.87 9.56,50.16 L 8.99 32.48 L 8.99 32.48 M 49.15 89.06 C 43.35,89.08 37.55,88.67 31.8,87.86 C 27.5,87.3 23.26,86.38 19.12,85.1 C 16.48,84.26 13.93,83.12 11.54,81.7 C 9.84,80.71 8.99,79.79 8.99,79.09 L 8.99 62.11 C 14.73,64.92 20.87,66.81 27.2,67.7 C 34.44,68.95 41.79,69.57 49.15,69.54 L 54.18 69.54 C 60.84,69.57 67.5,69.05 74.08,67.98 C 79.43,67.14 84.61,65.47 89.44,63.03 L 89.44 79.44 C 89.44,80.15 88.67,81.07 86.97,82.06 C 84.58,83.47 82.04,84.61 79.39,85.45 C 75.25,86.73 71.01,87.65 66.71,88.21 C 60.96,89.02 55.17,89.43 49.36,89.41 L 49.15 89.06 L 49.15 89.06" fill="#2d5967" stroke="none" stroke-width="0.5"/>
  </g>
</svg>