<svg xmlns="http://www.w3.org/2000/svg" viewBox="0 0 87.0 100" width="87" height="100">
  <g transform="translate(16.00,0.00) scale(0.8500,0.7400)">
    <path d="M 47.54 99.27 C 32.84,91.02 24.09,77.91 23.45,63.59 L 23.45 56.31 L 0 56.31 L 0.21 53.16 C 0.85,43.93 5.54,35.92 12.58,31.55 C 14.28,30.58 15.57,28.64 15.99,26.46 C 17.06,19.9 20.89,14.56 26.23,11.89 C 28.36,10.68 30.92,10.19 33.26,10.19 C 33.91,10.19 34.33,10.19 34.96,10.19 C 35.17,10.19 35.4,10.19 35.61,10.19 C 37.31,10.19 39.02,9.47 40.09,8.01 C 44.13,2.91 49.89,0 56.08,0 C 64.39,0 71.86,5.34 75.48,13.59 C 76.12,16.02 77.83,17.48 79.74,17.96 C 82.31,18.69 84.65,19.66 86.79,21.36 C 96.59,28.4 100,43.2 94.46,54.85 L 93.82 56.31 L 73.98 56.31 L 73.98 63.59 C 73.35,77.91 64.39,90.78 49.89,99.27 L 48.82 100 L 47.54 99.27 L 47.54 99.27" fill="#FFFFFF" stroke="none" stroke-width="0.5"/>
  </g>
  <g transform="translate(15.00,0.00) scale(0.8700,0.7600)">
    <path d="M 55.72 2.38 C 63.41,2.38 70.27,7.36 73.81,15.2 C 74.84,17.58 76.72,19 78.79,19.72 C 81.07,20.19 83.37,21.14 85.24,22.8 C 94.38,29.45 97.5,42.99 92.51,53.92 L 92.1 54.87 L 72.35 54.87 L 72.35 63.18 C 71.72,76.72 63.21,89.07 49.27,97.15 L 48.65 97.39 L 48.03 96.91 C 34.09,88.84 25.78,76.49 24.94,62.95 L 24.94 54.87 L 2.29 54.87 L 2.5 52.97 C 3.12,44.42 7.28,36.82 14.13,33.02 C 16.22,31.83 17.46,29.69 17.88,27.32 C 18.71,21.14 22.25,16.15 27.03,13.78 C 29.1,12.83 31.4,12.11 33.47,12.11 C 33.88,12.11 34.51,12.11 34.93,12.11 C 35.13,12.11 35.34,12.11 35.55,12.11 C 37.63,12.11 39.29,11.16 40.75,9.5 C 44.69,4.99 50.1,2.38 55.72,2.38 L 55.72 2.38 M 55.72 0 C 49.48,0 43.66,2.85 39.5,8.08 C 38.46,9.26 37.21,9.74 35.97,9.74 C 35.76,9.74 35.55,9.74 35.55,9.74 C 34.93,9.74 34.51,9.74 33.88,9.74 C 31.4,9.74 28.9,10.45 26.62,11.4 C 20.79,14.25 16.84,19.95 15.59,26.6 C 15.18,28.27 14.34,29.93 12.88,30.64 C 5.62,35.15 0.84,43.23 0.21,52.73 L 0.21 54.63 L 0 57.01 L 2.29 57.01 L 22.87 57.01 L 22.87 62.71 L 22.87 62.95 C 23.7,77.43 32.43,90.5 46.99,99.05 L 47.6 99.53 L 48.65 100 L 49.69 99.53 L 50.31 99.05 C 64.87,90.74 73.81,77.67 74.43,63.18 L 74.43 57.01 L 92.1 57.01 L 93.34 57.01 L 93.97 55.82 L 94.38 54.87 C 100,42.99 96.47,27.79 86.49,20.67 C 84.19,19 81.91,17.81 79.21,17.34 C 77.54,16.86 76.3,15.68 75.47,14.01 C 71.72,5.46 64.24,0 55.72,0 L 55.72 0" fill="#FFFFFF" stroke="none" stroke-width="0.5"/>
  </g>
  <g transform="translate(16.00,1.00) scale(0.8300,0.4000)">
    <path d="M 86.96 38.74 C 84.79,36.04 82.61,33.78 80.22,32.88 C 77.83,31.98 75.87,28.83 75.01,24.32 C 71.31,9.46 64.14,0 56.1,0 C 50.22,0 44.56,4.96 40.66,13.96 C 39.13,17.57 36.97,19.37 34.57,18.47 C 31.52,18.02 28.71,18.92 26.09,21.62 C 21.1,26.13 17.39,35.59 16.31,46.85 C 15.87,51.35 14.35,55.41 12.39,57.66 C 5.44,65.32 0.88,79.28 0.23,95.5 L 0 99.1 L 21.31 99.1 L 21.31 92.34 L 3.7 92.34 C 4.78,79.73 8.49,69.37 13.92,63.06 C 16.96,59.91 18.91,54.05 19.57,47.75 C 20.44,38.74 23.48,31.08 27.4,27.48 C 29.57,25.68 31.97,24.77 34.14,25.23 C 37.4,26.13 40.66,23.42 42.83,18.47 C 46.09,10.81 51.1,6.76 55.88,6.76 C 62.62,6.76 68.92,14.41 71.75,27.48 C 73.27,33.78 75.87,37.84 79.13,39.64 C 81.31,40.54 83.05,42.34 85.01,44.59 C 92.83,54.95 95.88,75.68 91.74,93.24 L 76.09 93.24 L 76.09 100 L 94.14 100 L 94.57 98.2 C 100,77.03 96.52,50.9 86.96,38.74 L 86.96 38.74" fill="#2d5967" stroke="none" stroke-width="0.5"/>
  </g>
  <g transform="translate(36.00,19.00) scale(0.4100,0.5400)">
    <path d="M 0 16.33 L 0 51.67 C 1.33,70.67 19.29,88 48.69,99.33 L 50 100 L 51.31 99.33 C 80.68,88 98.23,70.67 100,51.67 L 100 16 L 50 0 L 0 16.33 L 0 16.33 M 93.4 51.67 C 92.09,68 77.64,83 53.07,93.33 L 53.07 89 L 53.07 40.67 L 46.49 40.67 L 46.49 89 L 46.49 93.33 C 21.93,83 7.47,68 6.14,51.67 L 6.14 19.67 L 46.49 6.67 L 46.49 10.67 L 46.49 34.67 L 53.07 34.67 L 53.07 10.67 L 53.07 6.67 L 93.4 19.67 L 93.4 51.67 L 93.4 51.67" fill="#2d5967" stroke="none" stroke-width="0.5"/>
  </g>
</svg>