<svg xmlns="http://www.w3.org/2000/svg" viewBox="0 0 84.0 109.0000000000001" width="84" height="109">
  <g transform="translate(1.00,63.00) scale(0.4200,0.1800)">
    <path d="M 0 100 L 0 84.04 L 7.21 75.54 L 7.21 26.6 C 7.21,11.7 12.5,0 19.23,0 L 82.21 0 C 88.94,0 94.23,11.7 94.23,26.6 L 94.23 75.54 L 100 84.04 L 100 100 L 0 100 L 0 100" fill="#FFFFFF" stroke="none" stroke-width="0.5"/>
  </g>
  <g transform="translate(0.00,63.00) scale(0.4300,0.2000)">
    <path d="M 80.65 9.71 C 85.71,9.71 89.86,18.45 89.86,29.12 L 89.86 76.7 L 95.39 83.5 L 95.39 90.29 L 4.61 90.29 L 4.61 83.5 L 11.52 76.7 L 11.52 29.12 C 11.52,18.45 15.67,9.71 20.74,9.71 L 80.65 9.71 L 80.65 9.71 M 80.65 0 L 20.28 0 C 12.9,0 6.45,12.62 6.45,29.12 L 6.45 70.88 L 2.3 75.73 L 0 76.7 L 0 82.52 L 0 90.29 L 0 100 L 4.61 100 L 95.39 100 L 100 100 L 100 90.29 L 100 83.5 L 100 77.67 L 97.7 74.76 L 94.01 69.9 L 94.01 28.16 C 94.47,12.62 88.48,0 80.65,0 L 80.65 0" fill="#FFFFFF" stroke="none" stroke-width="0.5"/>
  </g>
  <g transform="translate(3.00,1.00) scale(0.8000,0.7900)">
    <path d="M 83.07 96.45 L 55.8 69.29 L 41.41 53.3 L 35.86 58.88 C 36.87,60.91 36.36,63.45 34.85,65.23 L 32.07 68.02 C 31.06,69.04 29.8,69.54 28.28,69.54 C 26.77,69.54 25.5,69.04 24.49,68.02 L 2.02 45.43 C 0,43.4 0,39.85 2.02,37.56 L 4.8 34.77 C 5.81,33.76 7.07,33.25 8.58,33.25 C 9.34,33.25 10.35,33.5 10.86,33.76 L 33.84 10.66 C 32.83,8.63 33.33,6.09 34.85,4.31 L 37.62 1.52 C 38.63,0.51 40.15,0 41.41,0 C 42.67,0 44.19,0.51 45.2,1.52 L 67.68 24.11 C 69.69,26.14 69.69,29.7 67.68,31.98 L 64.9 34.77 C 63.88,35.79 62.37,36.29 61.1,36.29 C 60.35,36.29 59.35,36.04 58.58,35.79 L 53.03 41.37 L 69.18 55.33 L 96.46 82.74 L 100 87.31 L 98.23 92.13 L 92.17 98.22 L 87.37 100 L 83.07 96.45 L 83.07 96.45" fill="#FFFFFF" stroke="none" stroke-width="0.5"/>
  </g>
  <g transform="translate(2.00,0.00) scale(0.8200,0.8100)">
    <path d="M 41.91 2.47 C 42.89,2.47 44.12,2.96 44.85,3.7 L 66.66 25.68 C 68.14,27.16 68.14,29.88 66.66,31.6 L 63.97 34.32 C 63.23,35.06 62.02,35.56 61.03,35.56 C 60.05,35.56 59.32,35.31 58.58,34.57 L 51.23 41.73 L 68.14 56.3 L 94.36 82.72 L 97.3 86.42 L 96.08 90.37 L 90.44 95.8 L 86.52 97.04 L 83.09 94.32 L 56.62 67.65 L 41.91 51.11 L 34.8 58.27 C 36.03,59.75 36.03,62.22 34.56,63.7 L 31.62 66.42 C 30.88,67.16 29.66,67.65 28.68,67.65 C 27.7,67.65 26.47,67.16 25.74,66.42 L 3.92 44.44 C 2.21,42.96 2.21,40.25 3.92,38.52 L 6.62 35.8 C 7.35,35.06 8.58,34.57 9.56,34.57 C 10.54,34.57 11.27,34.81 12.01,35.56 L 35.78 11.6 C 34.56,9.88 34.56,7.65 36.03,6.17 L 38.97 3.7 C 39.95,2.96 40.93,2.47 41.91,2.47 L 41.91 2.47 M 41.91 0 C 40.2,0 38.48,0.74 37.26,1.98 L 34.56 4.69 C 32.84,6.42 32.35,9.14 33.09,11.36 L 12.01 32.59 C 11.27,32.35 10.54,32.35 10.05,32.35 C 8.33,32.35 6.62,33.09 5.39,34.32 L 2.45 37.04 C 0,39.51 0,43.7 2.45,46.42 L 24.27 68.4 C 25.49,69.63 27.21,70.37 28.92,70.37 C 30.64,70.37 32.35,69.63 33.58,68.4 L 36.27 65.68 C 37.99,63.95 38.48,61.23 37.99,59.01 L 41.91 55.06 L 54.9 69.63 L 81.37 96.3 L 85.04 99.26 L 86.03 100 L 87.25 99.51 L 91.18 98.27 L 91.67 98.02 L 92.16 97.53 L 97.55 92.1 L 98.04 91.61 L 98.28 91.11 L 99.51 87.16 L 100 85.93 L 99.27 84.94 L 96.33 81.23 L 69.86 54.32 L 55.15 41.48 L 59.06 37.53 C 59.81,37.78 60.3,37.78 61.03,37.78 C 62.75,37.78 64.47,37.04 65.69,35.8 L 68.38 33.09 C 70.83,30.62 70.83,26.42 68.38,23.7 L 46.57 1.73 C 45.34,0.74 43.63,0 41.91,0 L 41.91 0" fill="#FFFFFF" stroke="none" stroke-width="0.5"/>
  </g>
  <g transform="translate(2.00,78.00) scale(0.3900,0.0300)">
    <path d="M 93.91 0 L 94.92 0 L 92.39 0 L 7.61 0 L 0 53.34 L 0 100 L 100 100 L 100 53.34 L 93.91 0 L 93.91 0" fill="#2d5967" stroke="none" stroke-width="0.5"/>
  </g>
  <g transform="translate(4.00,64.00) scale(0.3400,0.1100)">
    <path d="M 100 34.49 C 100,15.52 94.73,0 88.3,0 L 11.69 0 C 5.26,0 0,15.52 0,34.49 L 0 100 L 99.41 100 C 100,100 100,34.49 100,34.49 L 100 34.49 M 91.23 74.14 L 8.77 74.14 L 8.77 34.49 C 8.77,29.31 9.94,25.86 11.69,25.86 L 88.3 25.86 C 90.06,25.86 91.23,29.31 91.23,34.49 L 91.23 74.14 L 91.23 74.14" fill="#2d5967" stroke="none" stroke-width="0.5"/>
  </g>
  <g transform="translate(72.00,68.00) scale(0.0900,0.0900)">
    <path d="M 100 10.21 L 89.63 0 L 0 87.75 L 10.37 100 L 41.59 87.75 L 89.63 42.85 L 100 10.21 L 100 10.21" fill="#2d5967" stroke="none" stroke-width="0.5"/>
  </g>
  <g transform="translate(4.00,1.00) scale(0.7500,0.7500)">
    <path d="M 71.28 58.71 L 52.93 42.9 L 60.64 35.12 C 61.44,35.66 62.5,36.19 63.3,36.19 C 64.37,36.19 65.69,35.66 66.49,34.85 L 69.41 31.9 C 71.01,30.29 71.01,27.35 69.41,25.47 L 45.74 1.61 C 44.15,0 41.22,0 39.36,1.61 L 36.44 4.56 C 34.84,6.17 34.84,8.58 36.17,10.46 L 10.37 36.46 C 9.04,35.12 6.38,35.12 4.79,36.73 L 1.86 39.68 C 0,41.55 0,44.24 1.86,46.11 L 25.53 69.97 C 26.33,70.78 27.66,71.31 28.72,71.31 C 29.79,71.31 31.12,70.78 31.92,69.97 L 34.84 67.02 C 36.44,65.42 36.44,63 35.11,61.13 L 42.82 53.35 L 58.78 71.31 L 87.51 100 L 100 87.4 L 71.28 58.71 L 71.28 58.71 M 39.63 7.24 L 42.55 4.29 L 42.82 4.29 L 43.09 4.29 L 66.75 28.15 C 67.01,28.42 67.01,28.69 66.75,28.95 L 63.83 31.9 C 63.56,32.17 63.3,32.17 63.03,31.9 L 39.63 8.04 C 39.36,7.77 39.36,7.51 39.63,7.24 L 39.63 7.24 M 31.92 64.07 L 28.99 67.02 C 28.72,67.29 28.46,67.29 28.19,67.02 L 4.79 43.16 C 4.52,42.9 4.52,42.63 4.79,42.36 L 7.71 39.68 L 7.98 39.41 C 7.98,39.41 8.24,39.41 8.24,39.68 L 31.92 63.54 C 32.18,63.54 32.18,63.81 31.92,64.07 L 31.92 64.07 M 32.18 58.18 L 13.3 39.14 L 38.83 13.4 L 57.71 32.44 L 49.73 40.48 L 39.63 50.67 L 32.18 58.18 L 32.18 58.18 M 61.71 68.37 L 45.48 50.4 L 50.27 45.58 L 68.62 61.39 L 94.41 87.4 L 87.51 94.37 L 61.71 68.37 L 61.71 68.37" fill="#2d5967" stroke="none" stroke-width="0.5"/>
  </g>
</svg>