<svg xmlns="http://www.w3.org/2000/svg" viewBox="0 0 84.0 118.0000000000002" width="84" height="118">
  <g transform="translate(14.00,0.00) scale(0.7200,0.7500)">
    <path d="M 58.89 99.51 C 35.79,88.32 21.82,71.05 20.56,52.07 L 20.56 41.12 L 12.18 41.12 L 16.5 45.26 L 12.18 49.39 L 0 37.71 L 12.18 26.03 L 16.75 30.41 L 12.18 34.79 L 20.81 34.79 L 20.81 16.3 L 60.41 0 L 100 16.3 L 100 51.82 C 98.73,71.05 85.02,88.32 61.68,99.27 L 60.41 100 L 58.89 99.51 L 58.89 99.51" fill="#FFFFFF" stroke="none" stroke-width="0.5"/>
  </g>
  <g transform="translate(13.00,0.00) scale(0.7400,0.7700)">
    <path d="M 59.96 2.59 L 97.06 17.92 L 97.06 51.42 C 96.08,69.34 82.81,85.85 60.7,96.46 L 59.96 96.93 L 59.22 96.46 C 37.11,85.85 23.84,69.34 22.85,51.42 L 22.85 39.86 L 10.58 39.86 L 13.28 42.45 L 15.97 45.05 L 13.52 47.41 L 8.11 42.45 L 7.38 41.75 L 3.44 37.97 L 7.38 34.2 L 7.87 33.73 L 13.52 28.3 L 15.97 30.66 L 13.03 33.49 L 10.32 36.08 L 22.85 36.08 L 22.85 33.49 L 22.85 17.92 L 59.96 2.59 L 59.96 2.59 M 59.96 0 L 58.97 0.47 L 21.87 15.8 L 20.4 16.51 L 20.4 18.16 L 20.4 33.96 L 20.4 34.2 L 16.23 34.2 L 17.7 32.78 L 19.41 31.13 L 17.7 29.48 L 15.23 27.12 L 13.52 25 L 11.79 26.65 L 6.14 32.08 L 5.66 32.55 L 1.73 36.32 L 0 37.97 L 1.73 39.62 L 5.66 43.4 L 6.4 44.1 L 11.79 49.29 L 13.52 50.94 L 15.23 49.29 L 17.7 46.93 L 19.41 45.28 L 17.7 43.63 L 16.47 42.45 L 20.4 42.45 L 20.4 51.65 L 20.4 51.89 C 21.63,70.76 35.38,87.97 58.23,99.06 L 58.97 99.53 L 60.2 100 L 61.43 99.53 L 62.17 99.06 C 85.02,87.97 98.78,70.99 100,52.12 L 100 17.92 L 100 16.27 L 98.53 15.57 L 60.94 0.47 L 59.96 0 L 59.96 0" fill="#FFFFFF" stroke="none" stroke-width="0.5"/>
  </g>
  <g transform="translate(3.00,39.00) scale(0.0800,0.0800)">
    <path d="M 50 100 C 21.68,100 0,78.25 0,50 C 0,21.74 21.68,0 50,0 C 78.2,0 100,21.74 100,50 C 100,78.25 78.2,100 50,100 L 50 100" fill="#FFFFFF" stroke="none" stroke-width="0.5"/>
  </g>
  <g transform="translate(3.00,39.00) scale(0.1000,0.1000)">
    <path d="M 50 17.86 C 67.8,17.86 82.1,32.14 82.1,50 C 82.1,67.86 67.8,82.15 50,82.15 C 32.1,82.15 17.9,67.86 17.9,50 C 17.9,32.14 32.1,17.86 50,17.86 L 50 17.86 M 50 0 C 23.25,0 0,21.43 0,50 C 0,76.78 21.4,100 50,100 C 78.6,100 100,78.58 100,50 C 100,23.22 76.75,0 50,0 L 50 0" fill="#FFFFFF" stroke="none" stroke-width="0.5"/>
  </g>
  <g transform="translate(11.00,39.00) scale(0.0800,0.0800)">
    <path d="M 50 100 C 21.68,100 0,78.25 0,50 C 0,23.91 21.68,0 50,0 C 76.07,0 95.61,19.56 100,43.48 C 100,45.65 100,47.82 100,50 C 100,52.17 100,54.35 100,56.52 C 95.61,82.6 73.93,100 50,100 L 50 100" fill="#FFFFFF" stroke="none" stroke-width="0.5"/>
  </g>
  <g transform="translate(11.00,39.00) scale(0.1000,0.1000)">
    <path d="M 50 17.86 C 66.05,17.86 80.35,30.36 82.1,46.43 C 82.1,48.22 82.1,48.22 82.1,50 C 82.1,51.79 82.1,51.79 82.1,53.57 C 80.35,69.64 66.05,82.15 50,82.15 C 32.1,82.15 17.8,67.86 17.8,50 C 17.8,32.14 32.1,17.86 50,17.86 L 50 17.86 M 50 0 C 23.25,0 0,21.43 0,50 C 0,78.58 21.4,100 50,100 C 75,100 96.4,80.36 100,55.36 C 100,53.57 100,51.79 100,50 C 100,48.22 100,46.43 100,44.64 C 96.4,19.64 75,0 50,0 L 50 0" fill="#FFFFFF" stroke="none" stroke-width="0.5"/>
  </g>
  <g transform="translate(19.00,39.00) scale(0.0800,0.0800)">
    <path d="M 50 100 C 21.68,100 0,78.25 0,50 C 0,21.74 21.68,0 50,0 C 78.2,0 100,21.74 100,50 C 100,78.25 76.07,100 50,100 L 50 100" fill="#FFFFFF" stroke="none" stroke-width="0.5"/>
  </g>
  <g transform="translate(19.00,39.00) scale(0.1000,0.1000)">
    <path d="M 50 17.86 C 67.8,17.86 82.1,32.14 82.1,50 C 82.1,67.86 67.8,82.15 50,82.15 C 32.1,82.15 17.8,67.86 17.8,50 C 17.8,32.14 32.1,17.86 50,17.86 L 50 17.86 M 50 0 C 23.15,0 0,21.43 0,50 C 0,78.58 21.4,100 50,100 C 78.5,100 100,78.58 100,50 C 100,21.43 76.75,0 50,0 L 50 0" fill="#FFFFFF" stroke="none" stroke-width="0.5"/>
  </g>
  <g transform="translate(29.00,2.00) scale(0.5500,0.7300)">
    <path d="M 50.01 0 L 0 16.25 L 0 33 L 4.98 33 L 4.98 18.5 L 50.01 4 L 95.04 18.5 L 95.04 51.5 C 93.7,69 77.16,85 50.01,95.75 C 22.51,85.25 6.3,69 4.98,51.5 L 4.98 42.25 L 0 42.25 L 0 51.75 C 1.34,70.75 19.21,88.25 49.02,99.5 L 50.01 100 L 51 99.5 C 80.81,88.25 98.68,70.75 100,51.75 L 100 16.25 L 50.01 0 L 50.01 0" fill="#2d5967" stroke="none" stroke-width="0.5"/>
  </g>
  <g transform="translate(4.00,41.00) scale(0.0600,0.0600)">
    <path d="M 50 100 C 77.56,100 100,77.61 100,50 C 100,22.39 77.56,0 50,0 C 22.28,0 0,22.39 0,50 C 0,77.61 22.28,100 50,100 L 50 100" fill="#2d5967" stroke="none" stroke-width="0.5"/>
  </g>
  <g transform="translate(12.00,41.00) scale(0.0600,0.0600)">
    <path d="M 100 44.44 C 97.28,19.45 75.04,0 50.08,0 C 22.24,0 0,22.22 0,50 C 0,77.78 22.24,100 50.08,100 C 75.04,100 97.28,80.55 100,55.56 C 100,52.78 100,52.78 100,50 C 100,47.22 100,47.22 100,44.44 L 100 44.44" fill="#2d5967" stroke="none" stroke-width="0.5"/>
  </g>
  <g transform="translate(20.00,41.00) scale(0.0600,0.0600)">
    <path d="M 50.08 100 C 77.6,100 100,77.61 100,50 C 100,22.39 77.6,0 50.08,0 C 22.4,0 0,22.39 0,50 C 0,77.61 22.4,100 50.08,100 L 50.08 100" fill="#2d5967" stroke="none" stroke-width="0.5"/>
  </g>
  <g transform="translate(37.00,38.00) scale(0.0800,0.1300)">
    <path d="M 0 13.89 L 55.27 50 L 0 86.11 L 23.41 100 L 100 50 L 23.41 0 L 0 13.89 L 0 13.89" fill="#2d5967" stroke="none" stroke-width="0.5"/>
  </g>
  <g transform="translate(14.00,22.00) scale(0.5000,0.2400)">
    <path d="M 82.32 36.64 C 89.18,36.64 94.59,48.09 94.59,62.6 C 94.59,77.1 89.18,88.55 82.32,88.55 L 66.8 88.55 L 66.8 100 L 82.32 100 C 92.07,100 100,83.21 100,62.6 C 100,41.98 92.07,25.19 82.32,25.19 L 10.11 25.19 L 14.08 16.79 L 18.41 7.63 L 14.81 0 L 6.51 17.56 L 5.78 19.08 L 0 31.3 L 5.78 43.51 L 6.86 45.04 L 14.81 61.83 L 18.41 54.2 L 14.46 45.04 L 10.48 36.64 L 82.32 36.64 L 82.32 36.64" fill="#2d5967" stroke="none" stroke-width="0.5"/>
  </g>
</svg>