<svg xmlns="http://www.w3.org/2000/svg" viewBox="0 0 84.0 121.00000000000007" width="84" height="121">
  <g transform="translate(0.00,1.00) scale(0.8200,0.7500)">
    <path d="M 49.55 99.81 C 48.19,99.06 16.3,82.69 16.3,65.07 L 16.3 63.45 L 0 63.45 L 0 57.45 L 16.3 57.45 L 16.3 50.84 L 0 50.84 L 0 44.89 L 16.3 44.89 L 16.3 38.33 L 0 38.33 L 0 32.33 L 16.3 32.33 L 16.3 25.77 L 0 25.77 L 0 19.77 L 16.3 19.77 L 16.3 13.65 L 17.39 13.65 C 40.33,13.65 47.45,4.46 49.07,1.59 L 50.01 0 L 50.93 1.59 C 53.52,6.08 61.1,13.65 82.61,13.65 L 83.7 13.65 L 83.7 19.77 L 100 19.77 L 100 25.77 L 83.7 25.77 L 83.7 32.33 L 100 32.33 L 100 38.33 L 83.7 38.33 L 83.7 44.89 L 100 44.89 L 100 50.84 L 83.7 50.84 L 83.7 57.4 L 100 57.4 L 100 63.4 L 83.7 63.4 L 83.7 65.02 C 83.7,82.64 51.83,99.06 50.47,99.76 L 50.01 100 L 49.55 99.81 L 49.55 99.81" fill="#FFFFFF" stroke="none" stroke-width="0.5"/>
  </g>
  <g transform="translate(0.00,0.00) scale(0.8400,0.7700)">
    <path d="M 50.01 4.33 C 52,7.71 58.78,16.47 81.91,16.47 L 81.91 22.39 L 97.86 22.39 L 97.86 25.86 L 81.91 25.86 L 81.91 34.52 L 97.86 34.52 L 97.86 37.99 L 81.91 37.99 L 81.91 46.59 L 97.86 46.59 L 97.86 50.06 L 81.91 50.06 L 81.91 58.72 L 97.86 58.72 L 97.86 62.19 L 81.91 62.19 L 81.91 64.99 C 81.91,81.46 50.01,97.6 50.01,97.6 C 50.01,97.6 18.09,81.53 18.09,64.99 L 18.09 62.26 L 2.14 62.26 L 2.14 58.79 L 18.09 58.79 L 18.09 50.13 L 2.14 50.13 L 2.14 46.59 L 18.09 46.59 L 18.09 37.99 L 2.14 37.99 L 2.14 34.52 L 18.09 34.52 L 18.09 25.86 L 2.14 25.86 L 2.14 22.39 L 18.09 22.39 L 18.09 16.47 C 40.43,16.47 48.1,7.71 50.01,4.33 L 50.01 4.33 M 50.01 0 L 48.19 3.07 C 46.67,5.66 40,14.14 18.18,14.14 L 16.03 14.14 L 16.03 20.06 L 0 20.06 L 0 28.19 L 15.95 28.19 L 15.95 32.19 L 0 32.19 L 0 40.32 L 15.95 40.32 L 15.95 44.26 L 0 44.26 L 0 52.39 L 15.95 52.39 L 15.95 56.39 L 0 56.39 L 0 64.52 L 15.95 64.52 L 15.95 64.92 C 15.95,82.69 47.74,98.86 49.11,99.56 L 50.01 100 L 50.91 99.56 C 52.26,98.86 84.05,82.69 84.05,64.92 L 84.05 64.52 L 100 64.52 L 100 56.46 L 84.05 56.46 L 84.05 52.46 L 100 52.46 L 100 44.26 L 84.05 44.26 L 84.05 40.32 L 100 40.32 L 100 32.19 L 84.05 32.19 L 84.05 28.19 L 100 28.19 L 100 20.06 L 84.05 20.06 L 84.05 14.14 L 81.91 14.14 C 61.37,14.14 54.23,7.15 51.9,3.07 L 50.01 0 L 50.01 0 L 50.01 0" fill="#FFFFFF" stroke="none" stroke-width="0.5"/>
  </g>
  <g transform="translate(1.00,17.00) scale(0.1100,0.0200)">
    <path d="M 100 0 L 0 0 L 0 100 L 100 100 L 100 0 L 100 0" fill="#2c5967" stroke="none" stroke-width="0.5"/>
  </g>
  <g transform="translate(71.00,17.00) scale(0.1100,0.0200)">
    <path d="M 100 0 L 0 0 L 0 100 L 100 100 L 100 0 L 100 0" fill="#2c5967" stroke="none" stroke-width="0.5"/>
  </g>
  <g transform="translate(71.00,26.00) scale(0.1100,0.0200)">
    <path d="M 100 0 L 0 0 L 0 100 L 100 100 L 100 0 L 100 0" fill="#2c5967" stroke="none" stroke-width="0.5"/>
  </g>
  <g transform="translate(1.00,26.00) scale(0.1100,0.0200)">
    <path d="M 100 0 L 0 0 L 0 100 L 100 100 L 100 0 L 100 0" fill="#2c5967" stroke="none" stroke-width="0.5"/>
  </g>
  <g transform="translate(71.00,36.00) scale(0.1100,0.0200)">
    <path d="M 100 0 L 0 0 L 0 100 L 100 100 L 100 0 L 100 0" fill="#2c5967" stroke="none" stroke-width="0.5"/>
  </g>
  <g transform="translate(1.00,36.00) scale(0.1100,0.0200)">
    <path d="M 100 0 L 0 0 L 0 100 L 100 100 L 100 0 L 100 0" fill="#2c5967" stroke="none" stroke-width="0.5"/>
  </g>
  <g transform="translate(1.00,45.00) scale(0.1100,0.0200)">
    <path d="M 100 0 L 0 0 L 0 100 L 100 100 L 100 0 L 100 0" fill="#2c5967" stroke="none" stroke-width="0.5"/>
  </g>
  <g transform="translate(71.00,45.00) scale(0.1100,0.0200)">
    <path d="M 100 0 L 0 0 L 0 100 L 100 100 L 100 0 L 100 0" fill="#2c5967" stroke="none" stroke-width="0.5"/>
  </g>
  <g transform="translate(15.00,3.00) scale(0.5400,0.7200)">
    <path d="M 50.02 100 C 50.02,100 100,82.85 100,65.1 L 100 13.03 C 63.75,13.03 53.14,3.62 50.02,0 C 46.89,3.62 35,13.03 0,13.03 L 0 65.1 C 0,82.85 50.02,100 50.02,100 L 50.02 100 M 50.02 95.8 L 50.29 95.8 L 50.02 95.8 L 50.02 95.8 M 95 65.1 C 95,70.98 86.9,78.42 72.25,86.08 C 65.93,89.33 59.34,92.28 52.5,94.9 L 52.5 51.15 L 95 51.15 L 95 65.1 L 95 65.1 M 60.36 11.2 C 71.26,14.82 83.06,16.69 95,16.67 L 95 47.42 L 52.5 47.42 L 52.5 7.43 C 54.93,8.89 57.57,10.16 60.36,11.2 L 60.36 11.2 M 5 16.67 C 16.77,16.64 28.39,14.78 39.13,11.22 C 42.1,10.16 44.91,8.86 47.5,7.35 L 47.5 47.35 L 5 47.35 L 5 16.67 L 5 16.67 M 5 51.15 L 47.5 51.15 L 47.5 94.9 C 40.67,92.28 34.08,89.33 27.78,86.08 C 13.1,78.42 5,71.07 5,65.1 L 5 51.15 L 5 51.15" fill="#2c5967" stroke="none" stroke-width="0.5"/>
  </g>
</svg>