<svg xmlns="http://www.w3.org/2000/svg" viewBox="0 0 65.0 125.00000000000033" width="65" height="125">
  <g transform="translate(26.00,1.00) scale(0.6200,0.8200)">
    <path d="M 48.4 99.51 C 18.91,88.32 1.28,71.05 0,52.07 L 0 16.3 L 50 0 L 100 16.3 L 100 51.83 C 98.4,71.05 81.09,88.32 51.6,99.27 L 50 100 L 48.4 99.51 L 48.4 99.51" fill="#FFFFFF" stroke="none" stroke-width="0.5"/>
  </g>
  <g transform="translate(25.00,0.00) scale(0.6500,0.8400)">
    <path d="M 49.69 2.6 L 96.3 17.97 L 96.3 51.54 C 95.06,69.5 78.39,86.05 50.62,96.69 L 49.69 97.16 L 48.76 96.69 C 20.99,86.05 4.32,69.74 3.09,51.54 L 3.09 17.97 L 49.69 2.6 L 49.69 2.6 M 49.69 0 L 48.46 0.47 L 1.85 15.84 L 0 16.31 L 0 17.97 L 0 51.54 L 0 51.77 C 1.54,70.69 18.83,87.94 47.53,99.05 L 48.46 99.53 L 50 100 L 51.54 99.53 L 52.47 99.05 C 81.17,87.94 98.46,70.92 100,52.01 L 100 17.97 L 100 16.31 L 98.15 15.6 L 50.93 0.47 L 49.69 0 L 49.69 0" fill="#FFFFFF" stroke="none" stroke-width="0.5"/>
  </g>
  <g transform="translate(27.00,2.00) scale(0.6000,0.8000)">
    <path d="M 50 0 L 0 16.25 L 0 51.75 C 1.32,70.75 19.21,88.25 49.01,99.5 L 50 100 L 50.99 99.5 C 80.8,88.25 98.68,70.75 100,51.75 L 100 16.25 L 50 0 L 50 0 M 95.36 51.75 C 94.04,69.25 77.48,85.25 50.33,96 C 22.52,85.25 6.29,69.25 4.97,51.75 L 4.97 18.5 L 50 4 L 95.03 18.5 C 95.36,18.5 95.36,51.75 95.36,51.75 L 95.36 51.75" fill="#2d5967" stroke="none" stroke-width="0.5"/>
  </g>
  <g transform="translate(41.00,33.00) scale(0.3100,0.1400)">
    <path d="M 21.39 0 C 9.43,0 0,21.43 0,48.57 C 0,75.71 9.43,97.14 21.39,97.14 C 31.45,97.14 39.62,81.43 42.14,60 L 70.44 60 L 70.44 97.14 L 79.87 97.14 L 79.87 60 L 90.57 60 L 90.57 100 L 100 100 L 100 40 L 42.77 40 C 40.25,17.14 32.07,0 21.39,0 L 21.39 0 M 21.39 77.14 C 14.47,77.14 9.43,64.29 9.43,50 C 9.43,35.71 15.1,22.86 21.39,22.86 C 27.67,22.86 33.33,35.71 33.33,50 C 33.33,64.29 28.3,77.14 21.39,77.14 L 21.39 77.14" fill="#2d5967" stroke="none" stroke-width="0.5"/>
  </g>
</svg>