<svg xmlns="http://www.w3.org/2000/svg" viewBox="0 0 84.0 105.00000000000017" width="84" height="105">
  <g transform="translate(0.00,0.00) scale(0.8200,0.7900)">
    <path d="M 0 100 L 0 96.02 L 4.76 93.54 L 5.32 93.54 L 5.32 78.88 L 1.45 78.88 L 1.45 51.29 L 5.32 51.29 L 5.32 41.66 L 1.45 41.66 L 1.45 14.07 L 5.32 14.07 L 5.32 0 L 94.68 0 L 94.68 93.54 L 95.24 93.54 L 100 96.02 L 100 100 L 0 100 L 0 100" fill="#FFFFFF" stroke="none" stroke-width="0.5"/>
  </g>
  <g transform="translate(0.00,0.00) scale(0.8400,0.8100)">
    <path d="M 92.51 2.38 L 92.51 93.69 L 93.93 93.69 L 97.71 95.67 L 97.71 97.62 L 2.29 97.62 L 2.29 95.67 L 6.07 93.69 L 7.49 93.69 L 7.49 77.02 L 3.71 77.02 L 3.71 52.38 L 7.49 52.38 L 7.49 40.48 L 3.71 40.48 L 3.71 16.12 L 7.49 16.12 L 7.49 2.38 L 92.51 2.38 L 92.51 2.38 M 94.8 0 L 5.2 0 L 5.2 13.74 L 1.42 13.74 L 1.42 43.05 L 5.2 43.05 L 5.2 50.19 L 1.42 50.19 L 1.42 79.38 L 5.2 79.38 L 5.2 91.48 L 5.04 91.48 L 1.26 93.43 L 0 94.19 L 0 100 L 100 100 L 100 94.19 L 98.74 93.52 L 94.96 91.57 L 94.8 91.57 L 94.8 0 L 94.8 0" fill="#FFFFFF" stroke="none" stroke-width="0.5"/>
  </g>
  <g transform="translate(6.00,35.00) scale(0.0300,0.0400)">
    <path d="M 100 0 L 0 0 L 0 100 L 100 100 L 100 0 L 100 0" fill="#2d5967" stroke="none" stroke-width="0.5"/>
  </g>
  <g transform="translate(6.00,1.00) scale(0.7100,0.7100)">
    <path d="M 4.45 12.23 L 4.45 10 L 4.45 4.45 L 10 4.45 L 90 4.45 L 95.55 4.45 L 95.55 10 L 95.55 90 L 95.55 95.55 L 90 95.55 L 10 95.55 L 4.45 95.55 L 4.45 90 L 4.45 87.79 L 0 87.79 L 0 100 L 100 100 L 100 0 L 0 0 L 0 12.23 L 4.45 12.23 L 4.45 12.23" fill="#2d5967" stroke="none" stroke-width="0.5"/>
  </g>
  <g transform="translate(3.00,7.00) scale(0.6900,0.6000)">
    <path d="M 12.63 90.78 L 12.63 100 L 100 100 L 100 0 L 12.63 0 L 12.63 9.19 L 0 9.19 L 0 42.09 L 12.63 42.09 L 12.63 58.04 L 0 58.04 L 0 90.78 L 12.63 90.78 L 12.63 90.78 M 4.6 81.56 L 9.2 81.56 L 9.2 76.29 L 4.6 76.29 L 4.6 72.37 L 9.2 72.37 L 9.2 67.1 L 4.6 67.1 L 4.6 63.15 L 17.23 63.15 L 17.23 36.82 L 4.6 36.82 L 4.6 32.9 L 9.2 32.9 L 9.2 27.63 L 4.6 27.63 L 4.6 23.68 L 9.2 23.68 L 9.2 18.41 L 4.6 18.41 L 4.6 14.45 L 17.23 14.45 L 17.23 5.26 L 95.43 5.26 L 95.43 94.61 L 17.23 94.61 L 17.23 85.51 L 4.6 85.51 L 4.6 81.56 L 4.6 81.56" fill="#2d5967" stroke="none" stroke-width="0.5"/>
  </g>
  <g transform="translate(1.00,76.00) scale(0.8000,0.0300)">
    <path d="M 96.04 0 L 3.96 0 L 0 49.69 L 0 100 L 3.96 100 L 96.04 100 L 100 100 L 100 49.69 L 96.04 0 L 96.04 0" fill="#2d5967" stroke="none" stroke-width="0.5"/>
  </g>
  <g transform="translate(46.00,22.00) scale(0.1300,0.2100)">
    <path d="M 75.93 77.58 C 75.73,82.52 74.63,87.43 72.66,92.22 L 94.65 100 C 98.18,92.63 99.98,84.99 100,77.31 C 99.99,59.46 90.12,42.14 71.99,28.12 C 53.85,14.1 28.5,4.2 0,0 L 0 15.46 C 21.95,19.47 41.2,27.68 54.87,38.87 C 68.55,50.06 75.94,63.63 75.93,77.58 L 75.93 77.58" fill="#2d5967" stroke="none" stroke-width="0.5"/>
  </g>
  <g transform="translate(25.00,22.00) scale(0.1300,0.2100)">
    <path d="M 24.85 77.31 C 24.88,63.44 32.21,49.94 45.74,38.81 C 59.27,27.67 78.29,19.49 100,15.46 L 100 0 C 71.55,4.14 46.2,14.03 28.07,28.05 C 9.92,42.08 0.03,59.43 0,77.31 C 0.02,84.99 1.82,92.63 5.33,100 L 27.66 91.95 C 25.85,87.15 24.91,82.24 24.85,77.31 L 24.85 77.31" fill="#2d5967" stroke="none" stroke-width="0.5"/>
  </g>
  <g transform="translate(30.00,49.00) scale(0.2400,0.0600)">
    <path d="M 49.57 54.03 C 35.45,53.68 21.89,34.37 11.65,0 L 0 23.95 C 6.44,47.97 14.19,67.11 22.79,80.18 C 31.39,93.26 40.65,100 50,100 C 59.36,100 68.61,93.26 77.21,80.18 C 85.81,67.11 93.56,47.97 100,23.95 L 87.96 0.28 C 77.56,34.82 63.83,54.04 49.57,54.03 L 49.57 54.03" fill="#2d5967" stroke="none" stroke-width="0.5"/>
  </g>
  <g transform="translate(21.00,16.00) scale(0.4100,0.3600)">
    <path d="M 46.19 36.21 C 44.22,36.58 42.3,37.2 40.46,38.07 C 35.51,40.46 31.37,44.66 28.68,50.01 C 25.98,55.37 24.88,61.59 25.54,67.73 C 25.82,69.99 26.31,72.21 27.02,74.34 L 0 92.44 C 1.13,95.06 2.41,97.58 3.83,100 L 30.9 81.9 C 32.19,83.66 33.64,85.25 35.24,86.64 C 39.52,90.26 44.69,92.22 50,92.22 C 55.31,92.22 60.48,90.26 64.76,86.64 C 66.36,85.25 67.81,83.66 69.1,81.9 L 96.17 100 C 97.59,97.58 98.87,95.06 100,92.44 L 72.93 74.34 C 73.68,72.22 74.19,70 74.46,67.73 C 75.12,61.59 74.01,55.37 71.32,50.01 C 68.63,44.66 64.49,40.46 59.54,38.07 C 57.7,37.2 55.78,36.58 53.81,36.21 L 53.81 0 C 52.56,0 51.27,0 49.98,0 C 48.68,0 47.44,0 46.19,0 L 46.19 36.21 L 46.19 36.21 M 67.02 64.06 C 67.07,67.96 66.11,71.78 64.26,75.05 C 62.42,78.31 59.77,80.87 56.66,82.4 C 53.55,83.93 50.12,84.36 46.8,83.63 C 43.47,82.9 40.41,81.05 38.01,78.31 C 35.6,75.58 33.95,72.08 33.28,68.26 C 32.6,64.44 32.93,60.47 34.21,56.87 C 35.49,53.26 37.67,50.18 40.48,48.01 C 43.29,45.84 46.6,44.68 49.98,44.68 C 52.2,44.65 54.41,45.14 56.47,46.1 C 58.53,47.07 60.4,48.49 61.99,50.29 C 63.57,52.09 64.83,54.23 65.69,56.6 C 66.56,58.96 67.01,61.49 67.02,64.06 L 67.02 64.06" fill="#2d5967" stroke="none" stroke-width="0.5"/>
  </g>
  <g transform="translate(37.00,35.00) scale(0.0800,0.0800)">
    <path d="M 50 100 C 77.61,100 100,77.61 100,50 C 100,22.39 77.61,0 50,0 C 22.39,0 0,22.39 0,50 C 0,77.61 22.39,100 50,100 L 50 100" fill="#2d5967" stroke="none" stroke-width="0.5"/>
  </g>
</svg>