<svg xmlns="http://www.w3.org/2000/svg" viewBox="0 0 82.0 109.0000000000001" width="82" height="109">
  <g transform="translate(47.00,58.00) scale(0.2000,0.2300)">
    <path d="M 88.42 15.99 L 59.46 77.11 L 49.64 64.85 L 72.49 16.72 L 60.81 12.44 L 38.26 60.22 L 20.48 62.85 L 48.19 4.27 L 36.5 0 L 0 77.2 L 39.4 71.3 L 62.36 100 L 100 20.26 L 88.42 15.99 L 88.42 15.99" fill="#2c5967" stroke="none" stroke-width="0.5"/>
  </g>
  <g transform="translate(66.00,58.00) scale(0.1700,0.2300)">
    <path d="M 56.42 0 L 42.47 4.27 L 75.56 62.85 L 54.32 60.22 L 27.16 11.63 L 13.21 15.81 L 40.74 64.85 L 29.02 77.11 L 8.15 40.15 L 0 54.59 L 25.56 100 L 52.97 71.3 L 100 77.2 L 56.42 0 L 56.42 0" fill="#2c5967" stroke="none" stroke-width="0.5"/>
  </g>
  <g transform="translate(5.00,0.00) scale(0.8200,0.8500)">
    <path d="M 98.35 88.16 L 90.3 69.53 C 93.59,65.86 95.41,61.2 95.46,56.37 C 95.51,51.53 93.77,46.84 90.56,43.12 C 90.4,34.63 87.63,26.38 82.6,19.39 C 77.57,12.41 70.51,7.01 62.29,3.88 C 54.08,0.74 45.09,0 36.44,1.75 C 27.8,3.51 19.88,7.68 13.69,13.74 C 7.5,19.8 3.32,27.48 1.66,35.82 C 0,44.16 0.94,52.78 4.37,60.61 C 7.79,68.43 13.55,75.11 20.91,79.81 C 28.28,84.5 36.92,87 45.76,86.99 C 47.33,86.99 48.88,86.99 50.43,86.77 L 49.81 88.16 L 48.16 91.97 L 52.46 91.25 L 60.72 89.99 L 65.59 96.63 L 68.17 100 L 69.8 96.21 L 74.18 86.08 L 78.57 96.21 L 80.09 99.9 L 82.67 96.53 L 87.44 89.99 L 95.77 91.35 L 100 92.07 L 98.35 88.16 L 98.35 88.16" fill="#FFFFFF" stroke="none" stroke-width="0.5"/>
  </g>
  <g transform="translate(7.00,2.00) scale(0.7000,0.7000)">
    <path d="M 58.82 95.55 C 56.67,95.94 54.5,96.18 52.31,96.27 L 52.31 52.24 L 62.37 52.24 C 63.18,50.94 64.11,49.72 65.14,48.6 L 52.31 48.6 L 52.31 4.56 C 56.84,4.76 61.31,5.62 65.59,7.12 C 70.33,18.24 73.43,29.99 74.77,42.01 C 75.94,41.57 77.14,41.22 78.35,40.96 C 77.11,30 74.43,19.25 70.38,8.98 C 77.16,12.23 83.04,17.09 87.51,23.14 C 91.97,29.18 94.89,36.23 96,43.66 C 97.43,44.52 98.78,45.53 100,46.67 C 99.27,37.06 95.75,27.86 89.86,20.22 C 83.98,12.57 75.99,6.81 66.88,3.63 C 57.77,0.45 47.93,0 38.56,2.33 C 29.19,4.65 20.71,9.66 14.15,16.73 C 7.59,23.8 3.23,32.63 1.61,42.13 C 0,51.64 1.19,61.41 5.05,70.25 C 8.91,79.09 15.27,86.61 23.34,91.89 C 31.41,97.18 40.86,100 50.51,100 C 52.73,99.98 54.96,99.81 57.16,99.49 L 58.82 95.55 L 58.82 95.55 M 31.45 8.65 C 26.2,21.34 23.26,34.87 22.78,48.6 L 4.72 48.6 C 5.05,40.12 7.73,31.91 12.45,24.86 C 17.16,17.81 23.74,12.2 31.45,8.65 L 31.45 8.65 M 4.6 52.24 L 22.66 52.24 C 23.21,65.96 26.16,79.49 31.36,92.21 C 23.64,88.67 17.05,83.05 12.33,76 C 7.6,68.94 4.93,60.72 4.6,52.24 L 4.6 52.24 M 48.67 96.27 C 44.4,96.12 40.17,95.36 36.12,94.01 C 30.35,80.8 27.07,66.64 26.42,52.24 L 48.67 52.24 L 48.67 96.27 L 48.67 96.27 M 48.67 48.6 L 26.42 48.6 C 27.01,34.19 30.3,20.01 36.12,6.82 C 37.61,6.33 39.13,5.92 40.66,5.58 C 42.75,5.12 44.88,4.81 47.02,4.65 C 47.57,4.62 48.12,4.62 48.67,4.65 L 48.67 48.6 L 48.67 48.6" fill="#2c5967" stroke="none" stroke-width="0.5"/>
  </g>
  <g transform="translate(47.00,32.00) scale(0.3600,0.4900)">
    <path d="M 80.45 54.26 C 86.45,49.8 90.54,44.14 92.18,37.97 C 93.83,31.8 92.97,25.41 89.71,19.61 C 86.45,13.8 80.94,8.84 73.87,5.35 C 66.81,1.86 58.5,0 50,0 C 41.5,0 33.19,1.86 26.13,5.35 C 19.06,8.84 13.55,13.8 10.29,19.61 C 7.03,25.41 6.17,31.8 7.82,37.97 C 9.46,44.14 13.55,49.8 19.55,54.26 L 0 89.04 L 22.23 86.41 L 35.18 100 L 55.66 63.49 C 57.31,63.35 58.94,63.13 60.56,62.84 L 72.23 83.34 L 66.45 89 L 56.59 71.43 L 52.74 78.29 L 64.82 99.87 L 77.77 86.41 L 100 89.21 L 80.45 54.26 L 80.45 54.26 M 21.59 80.97 L 11.55 82.09 L 25.26 57.66 C 27.63,58.89 30.15,59.94 32.79,60.81 L 21.59 80.97 L 21.59 80.97 M 33.25 89 L 27.71 83.17 L 39.38 62.67 C 42.1,63.15 44.87,63.45 47.66,63.58 L 33.25 89 L 33.25 89 M 49.71 58.36 C 42.6,58.36 35.65,56.8 29.73,53.87 C 23.82,50.95 19.22,46.8 16.5,41.94 C 13.78,37.08 13.07,31.73 14.46,26.57 C 15.86,21.41 19.28,16.68 24.32,12.96 C 29.35,9.25 35.76,6.72 42.73,5.7 C 49.71,4.68 56.94,5.21 63.5,7.23 C 70.07,9.24 75.68,12.66 79.62,17.04 C 83.56,21.41 85.66,26.56 85.65,31.82 C 85.63,38.82 81.88,45.54 75.2,50.51 C 68.53,55.48 59.47,58.3 50,58.36 L 49.71 58.36 L 49.71 58.36 M 67.21 60.94 C 69.84,60.09 72.34,59.04 74.68,57.79 L 88.62 82.09 L 78.59 80.8 L 67.21 60.94 L 67.21 60.94" fill="#2c5967" stroke="none" stroke-width="0.5"/>
  </g>
  <g transform="translate(56.00,43.00) scale(0.0600,0.0800)">
    <path d="M 0 18.3 L 36.74 18.3 L 36.74 100 L 63.26 100 L 63.26 18.3 L 100 18.3 L 100 0 L 0 0 L 0 18.3 L 0 18.3" fill="#2c5967" stroke="none" stroke-width="0.5"/>
  </g>
  <g transform="translate(63.00,43.00) scale(0.0500,0.0800)">
    <path d="M 32.81 0 L 0 0 L 0 100 L 100 100 L 100 80.93 L 32.81 80.93 L 32.81 0 L 32.81 0" fill="#2c5967" stroke="none" stroke-width="0.5"/>
  </g>
  <g transform="translate(69.00,43.00) scale(0.0600,0.0800)">
    <path d="M 99.61 70.68 C 100,64.44 97.25,58.31 91.88,53.35 C 84.65,48.21 75.68,44.46 65.81,42.46 L 51.37 38.99 C 45.56,37.77 39.99,36.02 34.81,33.79 C 33.42,33.14 32.27,32.26 31.46,31.23 C 30.67,30.19 30.24,29.03 30.23,27.85 C 30.23,21.42 37.98,18.2 53.82,18.2 C 59.99,18.25 66.13,18.75 72.15,19.69 C 78.78,20.51 85.28,21.84 91.52,23.65 L 91.52 5.33 C 85.9,3.5 80,2.17 73.92,1.37 C 67.27,0.59 60.56,0.18 53.82,0.13 C 44.2,0 34.65,1.18 25.66,3.6 C 18.28,5.54 11.9,8.99 7.33,13.5 C 2.57,18.28 0,23.99 0,29.83 C 0,35.68 2.57,41.38 7.33,46.17 C 14.29,51.29 23.03,55.05 32.69,57.06 L 47.14 60.53 C 53.07,61.53 58.69,63.29 63.69,65.72 C 65,66.36 66.07,67.21 66.8,68.21 C 67.54,69.2 67.92,70.3 67.92,71.42 C 67.91,73.01 67.29,74.56 66.11,75.91 C 64.93,77.27 63.24,78.37 61.23,79.09 C 55.43,81.08 49.01,82.01 42.56,81.81 C 28.34,81.63 14.28,79.7 1,76.12 L 1 94.44 C 4.78,95.75 8.81,96.67 12.97,97.16 C 18.29,98.1 23.72,98.76 29.17,99.14 L 46.09 99.14 C 60.22,100 74.34,97.28 85.88,91.47 C 90.39,89.04 93.99,85.88 96.39,82.26 C 98.78,78.64 99.89,74.66 99.61,70.68 L 99.61 70.68" fill="#2c5967" stroke="none" stroke-width="0.5"/>
  </g>
</svg>