<svg xmlns="http://www.w3.org/2000/svg" viewBox="0 0 83.0 109.0000000000001" width="83" height="109">
  <g transform="translate(1.00,1.00) scale(0.8000,0.8200)">
    <path d="M 0.05 100 L 0.05 83.66 C 0,76.81 2.72,70.22 7.62,65.34 C 12.52,60.45 19.2,57.67 26.19,57.61 L 33.96 57.61 L 33.96 48.39 C 31.78,46.3 30.05,43.81 28.87,41.06 C 27.69,38.3 27.07,35.35 27.06,32.37 L 27.06 17.32 C 27.06,6.63 33.29,0 43.27,0 L 72.99 0 L 72.99 32.37 C 72.95,35.33 72.32,38.26 71.12,40.99 C 69.92,43.71 68.19,46.18 66.02,48.24 L 66.02 57.61 L 73.26 57.61 C 76.77,57.6 80.23,58.27 83.47,59.57 C 86.71,60.87 89.66,62.79 92.14,65.21 C 94.62,67.63 96.59,70.5 97.94,73.67 C 99.29,76.83 99.99,80.23 100,83.66 L 100 100 L 0.05 100 L 0.05 100" fill="#FFFFFF" stroke="none" stroke-width="0.5"/>
  </g>
  <g transform="translate(0.00,0.00) scale(0.8300,0.8400)">
    <path d="M 71.19 2.38 L 71.19 32.79 C 71.17,35.6 70.56,38.39 69.4,40.96 C 68.25,43.54 66.57,45.86 64.47,47.79 L 64.47 58.62 L 72.75 58.62 C 76,58.61 79.22,59.23 82.23,60.45 C 85.24,61.66 87.98,63.45 90.28,65.7 C 92.59,67.95 94.42,70.62 95.67,73.57 C 96.92,76.51 97.57,79.67 97.57,82.86 L 97.57 97.62 L 2.48 97.62 L 2.48 82.86 C 2.43,76.49 4.96,70.36 9.51,65.81 C 14.07,61.27 20.27,58.68 26.77,58.62 L 35.56 58.62 L 35.56 47.93 C 33.44,45.99 31.75,43.65 30.59,41.04 C 29.43,38.44 28.84,35.63 28.83,32.79 L 28.83 18.1 C 28.83,8.26 34.3,2.38 43.41,2.38 L 71.19 2.38 L 71.19 2.38 M 73.62 0 L 43.43 0 C 32.94,0 26.43,6.93 26.43,18.1 L 26.43 32.79 C 26.44,38.82 28.86,44.61 33.16,48.93 L 33.16 56.24 L 26.77 56.24 C 19.63,56.3 12.8,59.14 7.79,64.13 C 2.78,69.12 0,75.86 0.05,82.86 L 0.05 100 L 100 100 L 100 82.86 C 99.98,75.79 97.1,69.02 92,64.03 C 86.9,59.04 79.98,56.24 72.77,56.24 L 66.92 56.24 L 66.92 48.79 C 71.18,44.5 73.59,38.77 73.65,32.79 L 73.65 0 L 73.62 0 L 73.62 0" fill="#FFFFFF" stroke="none" stroke-width="0.5"/>
  </g>
  <g transform="translate(2.00,2.00) scale(0.7800,0.8000)">
    <path d="M 73.93 59.05 L 65.23 59.05 L 65.23 47.67 C 67.44,45.66 69.2,43.22 70.42,40.51 C 71.64,37.81 72.28,34.88 72.3,31.92 L 72.3 0 L 43.1 0 C 33.5,0 27.78,6.18 27.78,16.5 L 27.78 31.92 C 27.78,34.91 28.41,37.86 29.63,40.59 C 30.84,43.33 32.62,45.79 34.85,47.82 L 34.85 59.05 L 25.58 59.05 C 18.75,59.12 12.23,61.83 7.44,66.6 C 2.66,71.38 0,77.81 0.05,84.5 L 0.05 100 L 4.39 100 L 4.39 84.5 C 4.34,78.94 6.54,73.58 10.51,69.61 C 14.48,65.63 19.9,63.37 25.58,63.3 L 36.53 63.3 L 50.01 77.5 L 63.52 63.2 L 73.93 63.2 C 79.69,63.19 85.2,65.42 89.28,69.4 C 93.35,73.37 95.65,78.77 95.66,84.4 L 95.66 100 L 100 100 L 100 84.5 C 99.99,77.74 97.23,71.26 92.35,66.49 C 87.46,61.72 80.84,59.04 73.93,59.05 L 73.93 59.05 M 42.97 4.25 L 67.96 4.25 C 67.4,10.97 64.06,14.25 58.18,14.25 L 32.19 14.25 C 32.68,9.25 35,4.25 42.97,4.25 L 42.97 4.25 M 32.09 31.92 L 32.09 18.62 L 58.18 18.62 C 59.98,18.7 61.77,18.42 63.45,17.79 C 65.13,17.17 66.67,16.22 67.96,15 L 67.96 31.92 C 67.88,36.54 65.97,40.95 62.64,44.21 C 59.31,47.48 54.81,49.35 50.09,49.42 C 45.35,49.42 40.81,47.58 37.46,44.3 C 34.1,41.02 32.22,36.57 32.22,31.92 L 32.09 31.92 L 32.09 31.92 M 50.09 71.32 L 39.24 59.8 L 39.24 50.95 C 42.56,52.76 46.29,53.72 50.09,53.72 C 53.91,53.72 57.66,52.73 60.97,50.85 L 60.97 59.8 L 50.09 71.32 L 50.09 71.32" fill="#2c5967" stroke="none" stroke-width="0.5"/>
  </g>
</svg>