<svg xmlns="http://www.w3.org/2000/svg" viewBox="0 0 84.0 101.00000000000007" width="84" height="101">
  <g transform="translate(0.00,0.00) scale(0.8200,0.7400)">
    <path d="M 64.83 99.51 C 45.72,88.81 33.85,72.51 31.87,54.74 L 31.65 51.82 L 31.65 46.23 L 30.11 46.23 L 30.11 52.55 L 24.62 52.55 L 24.62 46.23 L 16.71 46.23 C 15.39,49.88 12.3,52.55 8.56,52.55 C 3.74,52.55 0,48.18 0,43.07 C 0,37.71 3.96,33.58 8.56,33.58 C 12.3,33.58 15.61,36.25 16.71,40.39 L 31.43 40.39 L 31.43 16.3 L 65.72 0 L 100 16.3 L 100 51.82 C 98.9,71.05 86.81,88.32 66.82,99.27 L 65.72 100 L 64.83 99.51 L 64.83 99.51" fill="#FFFFFF" stroke="none" stroke-width="0.5"/>
  </g>
  <g transform="translate(0.00,0.00) scale(0.8400,0.7600)">
    <path d="M 65.45 2.6 L 97.85 17.97 L 97.85 51.54 C 97,69.5 85.41,86.05 66.1,96.69 L 65.45 97.16 L 64.81 96.69 C 46.56,86.52 35.19,71.16 33.26,54.14 L 33.05 51.54 L 33.05 44.92 L 30.69 44.92 L 29.4 44.92 L 29.4 51.06 L 26.18 51.06 L 26.18 44.92 L 16.52 44.92 C 15.66,48.46 12.87,51.06 9.44,51.06 C 5.36,51.06 2.15,47.52 2.15,43.03 C 2.15,38.53 5.36,34.99 9.44,34.99 C 13.09,34.99 16.1,37.83 16.52,41.61 L 30.48 41.61 L 32.84 41.61 L 32.84 17.97 L 65.45 2.6 L 65.45 2.6 M 65.45 0 L 64.59 0.47 L 32.19 15.84 L 30.9 16.55 L 30.9 18.2 L 30.9 39.48 L 30.69 39.48 L 18.24 39.48 C 16.74,35.7 13.3,32.86 9.44,32.86 C 4.29,32.86 0,37.59 0,43.26 C 0,48.94 4.29,53.66 9.44,53.66 C 13.3,53.66 16.52,51.3 18.02,47.52 L 24.04 47.52 L 24.04 51.3 L 24.04 53.66 L 26.18 53.66 L 29.4 53.66 L 30.9 53.66 L 30.9 54.61 C 32.84,72.58 44.85,88.65 63.53,99.05 L 64.16 99.53 L 65.24 100 L 66.52 99.29 L 67.16 98.82 C 87.12,87.71 99.14,70.69 100,51.77 L 100 17.97 L 100 16.31 L 98.71 15.6 L 66.31 0.47 L 65.45 0 L 65.45 0" fill="#FFFFFF" stroke="none" stroke-width="0.5"/>
  </g>
  <g transform="translate(27.00,2.00) scale(0.5400,0.7200)">
    <path d="M 50 0 L 0 16.25 L 0 38.5 L 4.96 38.5 L 4.96 18.5 L 50 4 L 95.04 18.5 L 95.04 51.5 C 93.71,69 77.16,85 50,95.75 C 24.17,85.75 7.95,70.75 5.29,54.5 L 4.96 54.5 L 0.33 54.5 C 3.3,72.5 20.85,88.75 49.02,99.5 L 50 100 L 51 99.5 C 80.81,88.25 98.69,70.75 100,51.75 L 100 16.25 L 50 0 L 50 0" fill="#2d5967" stroke="none" stroke-width="0.5"/>
  </g>
  <g transform="translate(56.00,14.00) scale(0.1100,0.0900)">
    <path d="M 100 21.15 L 84.1 0 L 34.94 59.61 L 15.9 38.46 L 0 57.69 L 34.94 100 L 100 21.15 L 100 21.15" fill="#2d5967" stroke="none" stroke-width="0.5"/>
  </g>
  <g transform="translate(58.00,48.00) scale(0.0700,0.0600)">
    <path d="M 0 100 L 100 100 L 48.86 0 L 0 100 L 0 100" fill="#2d5967" stroke="none" stroke-width="0.5"/>
  </g>
  <g transform="translate(42.00,48.00) scale(0.0700,0.0700)">
    <path d="M 39.06 5.01 C 14.63,10 0,35 7.39,60 C 14.63,85 36.65,100 61.08,92.49 C 85.37,85 100,62.5 92.76,37.5 C 87.78,15 63.49,0 39.06,5.01 L 39.06 5.01" fill="#2d5967" stroke="none" stroke-width="0.5"/>
  </g>
  <g transform="translate(36.00,26.00) scale(0.3600,0.1800)">
    <path d="M 100 0 L 0 0 L 0 100 L 99.5 100 L 100 0 L 100 0 M 92.49 85 L 7.51 85 L 7.51 15 L 92.49 15 L 92.49 85 L 92.49 85" fill="#2d5967" stroke="none" stroke-width="0.5"/>
  </g>
  <g transform="translate(60.00,32.00) scale(0.0500,0.0500)">
    <path d="M 50.1 100 C 77.55,100 100,77.62 100,50 C 100,22.38 77.55,0 50.1,0 C 22.45,0 0,22.38 0,50 C 0,77.62 22.45,100 50.1,100 L 50.1 100" fill="#2d5967" stroke="none" stroke-width="0.5"/>
  </g>
  <g transform="translate(42.00,19.00) scale(0.0700,0.0200)">
    <path d="M 100 0 L 0 0 L 0 100 L 100 100 L 100 0 L 100 0" fill="#2d5967" stroke="none" stroke-width="0.5"/>
  </g>
  <g transform="translate(1.00,26.00) scale(0.2800,0.1200)">
    <path d="M 90.58 61.97 L 90.58 100 L 100 100 L 100 98.59 L 100 39.44 L 83.66 39.44 L 42.76 39.44 C 40.89,16.9 32.06,0 21.36,0 C 9.42,0 0,21.13 0,47.89 C 0,74.65 9.42,95.77 21.36,95.77 C 31.44,95.77 39.61,80.28 42.14,59.15 L 70.43 59.15 L 70.43 95.77 L 79.88 95.77 L 79.88 61.97 L 83.66 61.97 L 90.58 61.97 L 90.58 61.97 M 21.36 77.46 C 14.47,77.46 9.42,64.79 9.42,50.7 C 9.42,36.62 15.1,23.94 21.36,23.94 C 27.67,23.94 33.35,36.62 33.35,50.7 C 33.35,66.2 28.29,77.46 21.36,77.46 L 21.36 77.46" fill="#2d5967" stroke="none" stroke-width="0.5"/>
  </g>
</svg>