<svg xmlns="http://www.w3.org/2000/svg" viewBox="0 0 84.0 86.00000000000007" width="84" height="86">
  <g transform="translate(5.00,0.00) scale(0.8300,0.6000)">
    <path d="M 0 100 L 0 62.96 C 0.02,59.52 1.04,56.23 2.84,53.8 C 4.63,51.38 7.06,50.01 9.59,50.01 L 13.44 50.01 L 13.44 49.25 C 10.92,47.26 8.96,44.21 7.84,40.55 C 6.72,36.9 6.51,32.85 7.24,29.01 C 7.97,25.18 9.6,21.78 11.88,19.33 C 14.17,16.88 16.98,15.51 19.88,15.43 C 22.79,15.35 25.64,16.57 27.99,18.9 C 30.34,21.23 32.07,24.55 32.91,28.34 C 33.75,32.13 33.65,36.19 32.64,39.9 C 31.62,43.61 29.75,46.76 27.29,48.89 L 28.18 48.89 C 29.24,47.02 30.6,45.52 32.15,44.48 C 33.71,43.44 35.41,42.91 37.14,42.91 L 41.8 42.91 L 41.8 40.25 C 38.82,37.81 36.51,34.1 35.22,29.7 C 33.93,25.3 33.74,20.44 34.67,15.88 C 35.6,11.31 37.61,7.29 40.38,4.42 C 43.15,1.55 46.54,0 50.02,0 C 53.5,0 56.89,1.55 59.66,4.42 C 62.43,7.29 64.43,11.31 65.37,15.88 C 66.3,20.44 66.11,25.3 64.82,29.7 C 63.53,34.1 61.22,37.81 58.23,40.25 L 58.23 42.69 L 63 42.69 C 64.73,42.71 66.43,43.26 67.98,44.29 C 69.53,45.33 70.89,46.82 71.96,48.67 L 72.85 48.67 C 70.41,46.55 68.53,43.4 67.51,39.7 C 66.5,36 66.4,31.95 67.23,28.16 C 68.06,24.38 69.77,21.07 72.11,18.73 C 74.45,16.39 77.29,15.15 80.19,15.21 C 83.09,15.27 85.9,16.61 88.19,19.04 C 90.48,21.46 92.13,24.84 92.88,28.66 C 93.63,32.47 93.45,36.52 92.35,40.18 C 91.26,43.84 89.32,46.91 86.83,48.94 L 86.83 50.01 L 90.41 50.01 C 92.96,50.01 95.39,51.39 97.19,53.84 C 98.98,56.28 100,59.6 100,63.05 L 100 100 L 0 100 L 0 100" fill="#FFFFFF" stroke="none" stroke-width="0.5"/>
  </g>
  <g transform="translate(5.00,0.00) scale(0.8400,0.6200)">
    <path d="M 49.92 2.38 C 53.19,2.37 56.36,3.83 58.95,6.54 C 61.54,9.24 63.39,13.03 64.21,17.32 C 65.04,21.6 64.79,26.13 63.51,30.21 C 62.22,34.28 59.98,37.66 57.12,39.81 L 57.12 44.17 L 62.67 44.17 C 64.32,44.18 65.94,44.72 67.4,45.73 C 68.86,46.74 70.13,48.2 71.1,50 L 76.78 50 C 73.85,49.12 71.26,46.8 69.51,43.49 C 67.76,40.19 66.97,36.12 67.3,32.07 C 67.62,28.02 69.04,24.28 71.28,21.56 C 73.51,18.85 76.41,17.34 79.41,17.34 C 82.42,17.34 85.31,18.85 87.55,21.56 C 89.79,24.28 91.21,28.02 91.53,32.07 C 91.86,36.12 91.07,40.19 89.32,43.49 C 87.57,46.8 84.98,49.12 82.05,50 L 85.21 50 L 85.21 51.1 L 89.69 51.1 C 91.95,51.1 94.11,52.32 95.71,54.48 C 97.31,56.65 98.2,59.58 98.21,62.64 L 98.21 97.62 L 1.76 97.62 L 1.76 62.64 C 1.76,59.58 2.66,56.65 4.26,54.48 C 5.85,52.32 8.02,51.1 10.28,51.1 L 14.88 51.1 L 14.88 50 L 17.92 50 C 14.98,49.12 12.4,46.8 10.64,43.49 C 8.89,40.19 8.11,36.12 8.43,32.07 C 8.76,28.02 10.18,24.28 12.41,21.56 C 14.65,18.85 17.55,17.34 20.55,17.34 C 23.56,17.34 26.45,18.85 28.69,21.56 C 30.93,24.28 32.34,28.02 32.67,32.07 C 33,36.12 32.21,40.19 30.46,43.49 C 28.71,46.8 26.12,49.12 23.19,50 L 28.86 50 C 29.8,48.2 31.04,46.73 32.48,45.71 C 33.92,44.7 35.52,44.17 37.15,44.17 L 42.6 44.17 L 42.6 39.71 C 39.77,37.53 37.55,34.14 36.3,30.07 C 35.04,26 34.81,21.49 35.65,17.22 C 36.49,12.96 38.34,9.19 40.92,6.51 C 43.5,3.82 46.67,2.37 49.92,2.38 L 49.92 2.38 M 49.92 0 C 46.37,0 42.92,1.55 40.07,4.43 C 37.22,7.3 35.14,11.35 34.12,15.96 C 33.11,20.57 33.21,25.5 34.43,30.02 C 35.65,34.54 37.91,38.41 40.88,41.05 L 40.88 41.79 L 37.19 41.79 C 35.68,41.79 34.19,42.18 32.8,42.95 C 33.82,40.42 34.4,37.61 34.5,34.73 C 34.6,31.85 34.21,28.98 33.37,26.33 C 32.52,23.69 31.24,21.34 29.62,19.47 C 28,17.6 26.09,16.25 24.02,15.54 C 21.96,14.82 19.81,14.76 17.73,15.35 C 15.64,15.93 13.69,17.16 12.01,18.93 C 10.33,20.7 8.97,22.97 8.04,25.56 C 7.1,28.15 6.62,31 6.62,33.88 C 6.63,36.73 7.1,39.54 8.01,42.11 C 8.92,44.68 10.25,46.93 11.89,48.71 L 10.13 48.71 C 7.44,48.77 4.86,50.26 2.96,52.87 C 1.07,55.47 0,58.98 0,62.64 L 0 100 L 100 100 L 100 62.64 C 99.99,58.95 98.91,55.41 96.99,52.8 C 95.06,50.19 92.45,48.72 89.72,48.71 L 87.97 48.71 C 89.83,46.74 91.29,44.15 92.21,41.19 C 93.13,38.24 93.48,35.01 93.23,31.83 C 92.98,28.64 92.13,25.59 90.77,22.96 C 89.41,20.34 87.58,18.23 85.45,16.83 C 83.32,15.43 80.96,14.79 78.6,14.96 C 76.24,15.14 73.95,16.12 71.95,17.83 C 69.94,19.53 68.29,21.9 67.15,24.71 C 66,27.52 65.41,30.67 65.41,33.88 C 65.42,37.07 66.02,40.21 67.17,43 C 65.72,42.2 64.17,41.79 62.6,41.79 L 58.88 41.79 L 58.88 41.17 C 61.87,38.54 64.15,34.68 65.39,30.15 C 66.63,25.63 66.75,20.68 65.74,16.05 C 64.73,11.42 62.65,7.35 59.8,4.46 C 56.95,1.57 53.48,0 49.92,0 L 49.92 0 L 49.92 0" fill="#FFFFFF" stroke="none" stroke-width="0.5"/>
  </g>
  <g transform="translate(61.00,10.00) scale(0.2000,0.2000)">
    <path d="M 49.46 99.98 C 59.25,100 68.84,97.11 76.99,91.67 C 85.14,86.24 91.5,78.5 95.25,69.45 C 99.01,60.4 100,50.44 98.09,40.83 C 96.18,31.22 91.46,22.39 84.54,15.46 C 77.61,8.53 68.78,3.82 59.17,1.91 C 49.56,0 39.59,0.99 30.54,4.74 C 21.5,8.5 13.76,14.86 8.33,23.01 C 2.89,31.16 0,40.75 0.01,50.54 C 0.12,63.62 5.37,76.13 14.62,85.38 C 23.86,94.63 36.38,99.87 49.46,99.98 L 49.46 99.98 M 49.46 13.29 C 56.91,13.21 64.21,15.36 70.44,19.46 C 76.66,23.55 81.53,29.41 84.42,36.28 C 87.31,43.15 88.09,50.72 86.66,58.04 C 85.22,65.35 81.65,72.08 76.38,77.35 C 71.12,82.62 64.4,86.21 57.09,87.66 C 49.78,89.1 42.21,88.34 35.33,85.47 C 28.45,82.59 22.59,77.74 18.48,71.52 C 14.37,65.3 12.21,58 12.26,50.54 C 12.36,40.7 16.3,31.29 23.25,24.33 C 30.21,17.36 39.61,13.4 49.46,13.29 L 49.46 13.29" fill="#2d5967" stroke="none" stroke-width="0.5"/>
  </g>
  <g transform="translate(6.00,27.00) scale(0.8100,0.3300)">
    <path d="M 91.17 12.96 L 88.57 12.96 L 88.11 14.43 C 87.22,17.29 86.06,19.6 84.74,21.19 C 83.43,22.78 81.97,23.61 80.5,23.61 C 79.03,23.61 77.58,22.78 76.26,21.19 C 74.94,19.6 73.79,17.29 72.89,14.43 L 72.44 12.96 L 72.29 12.96 C 71.37,9.05 70.04,5.79 68.45,3.52 C 66.85,1.24 65.04,0.03 63.19,0 L 60.08 0 L 59.62 1.47 C 58.48,5.11 57.01,8.06 55.33,10.09 C 53.64,12.12 51.79,13.17 49.92,13.17 C 48.04,13.17 46.19,12.12 44.51,10.09 C 42.83,8.06 41.36,5.11 40.22,1.47 L 39.76 0 L 36.72 0 C 34.87,0.03 33.06,1.24 31.46,3.51 C 29.87,5.79 28.54,9.04 27.62,12.96 L 27.16 14.43 C 26.27,17.29 25.11,19.6 23.79,21.19 C 22.47,22.78 21.02,23.61 19.55,23.61 C 18.08,23.61 16.63,22.78 15.31,21.19 C 13.99,19.6 12.84,17.29 11.94,14.43 L 11.49 12.96 L 8.83 12.96 C 6.49,12.97 4.25,15.25 2.59,19.3 C 0.94,23.35 0.01,28.84 0,34.57 L 0 100 L 3.06 100 L 3.06 34.57 C 3.06,30.82 3.67,27.22 4.75,24.57 C 5.83,21.91 7.3,20.41 8.83,20.4 L 9.96 20.4 C 11.94,25.9 14.64,29.52 17.6,30.63 C 20.56,31.74 23.58,30.26 26.14,26.46 L 26.14 100 L 29.13 100 L 29.13 25.88 C 29.13,21 29.92,16.32 31.33,12.87 C 32.74,9.42 34.65,7.48 36.65,7.48 L 38.23 7.48 C 39.67,11.6 41.45,14.91 43.46,17.17 C 45.47,19.44 47.66,20.62 49.87,20.62 C 52.09,20.62 54.27,19.44 56.28,17.17 C 58.29,14.91 60.08,11.6 61.51,7.48 L 63.08 7.48 C 65.07,7.48 66.99,9.42 68.4,12.87 C 69.81,16.32 70.6,21 70.6,25.88 L 70.6 100 L 73.66 100 L 73.66 26.19 C 76.21,30.22 79.28,31.86 82.29,30.79 C 85.3,29.73 88.06,26.04 90.04,20.4 L 91.17 20.4 C 92.7,20.41 94.17,21.91 95.26,24.56 C 96.34,27.22 96.95,30.81 96.96,34.57 L 96.96 100 L 100 100 L 100 34.57 C 99.99,28.84 99.06,23.35 97.41,19.3 C 95.75,15.25 93.51,12.97 91.17,12.96 L 91.17 12.96" fill="#2d5967" stroke="none" stroke-width="0.5"/>
  </g>
  <g transform="translate(12.00,10.00) scale(0.2000,0.2000)">
    <path d="M 49.46 99.98 C 59.25,100 68.84,97.11 76.99,91.67 C 85.14,86.24 91.5,78.5 95.25,69.45 C 99.01,60.4 100,50.44 98.09,40.83 C 96.18,31.22 91.46,22.39 84.54,15.46 C 77.61,8.53 68.78,3.82 59.17,1.91 C 49.56,0 39.59,0.99 30.54,4.74 C 21.5,8.5 13.76,14.86 8.33,23.01 C 2.89,31.16 0,40.75 0.01,50.54 C 0.12,63.62 5.37,76.13 14.62,85.38 C 23.86,94.63 36.38,99.87 49.46,99.98 L 49.46 99.98 M 49.46 13.29 C 56.88,13.29 64.14,15.49 70.31,19.61 C 76.49,23.74 81.3,29.6 84.14,36.46 C 86.98,43.32 87.73,50.87 86.28,58.15 C 84.83,65.44 81.25,72.13 76,77.38 C 70.75,82.63 64.06,86.2 56.78,87.65 C 49.5,89.1 41.95,88.36 35.09,85.52 C 28.23,82.67 22.36,77.86 18.24,71.69 C 14.11,65.51 11.91,58.25 11.91,50.83 C 11.91,40.87 15.86,31.32 22.9,24.28 C 29.95,17.24 39.5,13.29 49.46,13.29 L 49.46 13.29" fill="#2d5967" stroke="none" stroke-width="0.5"/>
  </g>
  <g transform="translate(34.00,1.00) scale(0.2500,0.2500)">
    <path d="M 49.64 99.98 C 59.43,99.96 69,97.04 77.13,91.58 C 85.26,86.12 91.58,78.38 95.31,69.32 C 99.04,60.27 100,50.32 98.07,40.72 C 96.14,31.12 91.41,22.31 84.48,15.4 C 77.54,8.49 68.71,3.79 59.1,1.89 C 49.5,0 39.55,1 30.51,4.76 C 21.47,8.52 13.75,14.87 8.32,23.02 C 2.89,31.17 0,40.74 0.01,50.53 C 0.02,57.04 1.31,63.48 3.81,69.49 C 6.3,75.5 9.97,80.95 14.57,85.54 C 19.18,90.14 24.65,93.78 30.67,96.26 C 36.69,98.73 43.14,100 49.64,99.98 L 49.64 99.98 M 49.64 10.92 C 57.48,10.92 65.14,13.24 71.65,17.6 C 78.17,21.95 83.24,28.13 86.24,35.37 C 89.24,42.61 90.02,50.57 88.49,58.26 C 86.97,65.94 83.19,73 77.65,78.54 C 72.11,84.08 65.05,87.85 57.37,89.38 C 49.69,90.91 41.72,90.12 34.49,87.13 C 27.25,84.13 21.06,79.05 16.71,72.54 C 12.35,66.02 10.03,58.36 10.03,50.53 C 10.05,40.03 14.22,29.96 21.65,22.54 C 29.07,15.11 39.14,10.94 49.64,10.92 L 49.64 10.92" fill="#2d5967" stroke="none" stroke-width="0.5"/>
  </g>
  <g transform="translate(35.00,45.00) scale(0.0200,0.1500)">
    <path d="M 49.98 0 L 0 0 L 0 100 L 24.99 100 L 100 100 L 100 16.22 L 49.98 0 L 49.98 0" fill="#2d5967" stroke="none" stroke-width="0.5"/>
  </g>
  <g transform="translate(56.00,45.00) scale(0.0200,0.1500)">
    <path d="M 49.98 0 L 0 16.22 L 0 100 L 83.31 100 L 100 100 L 100 0 L 49.98 0 L 49.98 0" fill="#2d5967" stroke="none" stroke-width="0.5"/>
  </g>
  <g transform="translate(79.00,48.00) scale(0.0200,0.1200)">
    <path d="M 0 19.24 L 0 100 L 100 100 L 100 0 L 50.02 0 L 0 19.24 L 0 19.24" fill="#2d5967" stroke="none" stroke-width="0.5"/>
  </g>
  <g transform="translate(12.00,48.00) scale(0.0200,0.1200)">
    <path d="M 0 0 L 0 100 L 100 100 L 100 19.24 L 49.7 0 L 0 0 L 0 0" fill="#2d5967" stroke="none" stroke-width="0.5"/>
  </g>
</svg>