<svg xmlns="http://www.w3.org/2000/svg" viewBox="0 0 54.0 109.0000000000001" width="54" height="109">
  <g transform="translate(10.00,1.00) scale(0.5200,0.8200)">
    <path d="M 76.93 100 C 71.52,100 66.53,98.78 62.68,96.83 L 0 96.83 L 0 80.49 L 6.92 80.49 L 9.23 47.56 C 5.38,47.07 2.31,44.88 2.31,42.2 L 2.31 21.46 L 26.54 21.46 L 26.54 28.78 L 30.77 28.78 L 30.77 21.46 L 38.07 21.46 L 38.07 0 L 61.53 0 C 65.38,0 68.84,1.71 69.61,4.15 L 94.22 4.15 L 86.54 12.44 L 94.22 20.49 L 68.46 20.49 C 64.61,20.49 61.53,18.78 60.38,16.59 L 60 16.59 L 60 16.34 L 47.68 16.34 L 47.68 21.22 L 55 21.22 L 55 28.54 L 59.23 28.54 L 59.23 21.22 L 83.45 21.22 L 83.45 41.95 C 83.45,44.63 80.37,46.83 76.52,47.32 L 78.07 70.98 C 89.98,71.46 99.6,77.81 99.6,85.37 C 100,93.41 89.6,100 76.93,100 L 76.93 100" fill="#FFFFFF" stroke="none" stroke-width="0.5"/>
  </g>
  <g transform="translate(9.00,0.00) scale(0.5400,0.8400)">
    <path d="M 61.33 2.38 C 64.68,2.38 67.66,4.29 67.66,6.43 L 89.6 6.43 L 83.27 13.33 L 89.6 20 L 68.03 20 C 64.68,20 62.07,18.33 61.7,16.19 C 61.7,15.95 61.33,15.95 61.33,15.95 L 46.1 15.95 L 46.1 23.1 L 53.15 23.1 L 53.15 30.24 L 60.96 30.24 L 60.96 23.1 L 80.68 23.1 L 80.68 42.14 C 80.68,44.29 77.7,46.19 74.34,46.19 L 73.6 46.19 L 75.09 71.67 C 75.46,71.67 75.46,71.67 75.83,71.67 C 86.99,71.67 95.91,77.38 95.91,84.52 C 95.91,91.67 87.36,97.62 76.22,97.62 C 70.99,97.62 66.53,96.43 62.83,94.52 L 3.72 94.52 L 3.72 80.95 L 10.41 80.95 L 13.01 46.43 L 12.27 46.43 C 8.92,46.43 5.95,44.52 5.95,42.38 L 5.95 23.33 L 25.65 23.33 L 25.65 30.48 L 33.46 30.48 L 33.46 23.33 L 40.52 23.33 L 40.52 2.38 L 44.23 2.38 L 46.47 2.38 L 61.33 2.38 L 61.33 2.38 M 61.33 0 L 46.47 0 L 44.23 0 L 40.52 0 L 36.8 0 L 36.8 2.38 L 36.8 20.95 L 33.46 20.95 L 29.74 20.95 L 29.74 23.33 L 29.74 28.1 L 29.37 28.1 L 29.37 23.33 L 29.37 20.95 L 25.65 20.95 L 5.95 20.95 L 2.23 20.95 L 2.23 23.33 L 2.23 42.38 C 2.23,45.24 5.21,47.62 8.92,48.57 L 6.69 78.57 L 3.72 78.57 L 0 78.57 L 0 80.95 L 0 94.52 L 0 96.91 L 3.72 96.91 L 61.7 96.91 C 65.79,99.05 70.99,100 76.22,100 C 89.21,100 100,93.1 100,84.76 C 100,76.91 90.71,70.48 78.81,69.52 L 77.33 48.33 C 81.42,47.38 84.01,45 84.01,42.14 L 84.01 23.1 L 84.01 22.38 L 89.21 22.38 L 95.91 22.38 L 92.93 18.81 L 87.73 13.33 L 92.93 7.62 L 96.28 4.05 L 89.97 4.05 L 70.62 4.05 C 69.14,1.67 65.42,0 61.33,0 L 61.33 0 M 49.82 18.33 L 57.98 18.33 L 57.98 18.57 L 58.74 18.57 C 59.48,19.52 60.22,20.24 61.33,20.71 L 60.96 20.71 L 57.24 20.71 L 57.24 23.1 L 57.24 27.86 L 56.87 27.86 L 56.87 23.1 L 56.87 20.71 L 53.15 20.71 L 49.82 20.71 L 49.82 18.33 L 49.82 18.33" fill="#FFFFFF" stroke="none" stroke-width="0.5"/>
  </g>
  <g transform="translate(11.00,2.00) scale(0.4600,0.7700)">
    <path d="M 6.49 95.84 L 6.49 88.83 L 7.36 88.83 L 56.27 88.83 C 56.27,87.53 56.7,86.23 57.13,84.93 L 14.28 84.93 L 17.31 47.53 L 75.32 47.53 L 77.04 72.99 C 79.22,72.73 81.38,72.47 83.53,72.47 L 81.81 47.79 L 82.24 47.79 C 86.14,47.79 89.61,45.71 89.61,43.38 L 89.61 22.6 L 66.66 22.6 L 66.66 30.39 L 57.56 30.39 L 57.56 22.6 L 49.35 22.6 L 49.35 14.81 L 67.09 14.81 C 67.52,14.81 67.52,15.06 67.52,15.06 C 67.52,17.4 70.99,19.22 74.89,19.22 L 100 19.22 L 92.63 11.95 L 100 4.42 L 74.46 4.42 C 74.46,2.08 70.99,0 67.09,0 L 49.78 0 L 47.17 0 L 42.85 0 L 42.85 22.86 L 34.63 22.86 L 34.63 30.65 L 25.54 30.65 L 25.54 22.86 L 2.59 22.86 L 2.59 43.64 C 2.59,45.97 6.06,48.05 9.96,48.05 L 10.82 48.05 L 7.79 85.19 L 0 85.19 L 0 100 L 62.32 100 C 60.6,98.7 59.31,97.4 58.44,96.1 L 6.49 96.1 L 6.49 95.84 L 6.49 95.84 M 88.3 7.79 L 84.85 11.43 L 88.3 14.81 L 74.89 14.81 C 74.46,14.81 74.46,14.55 74.46,14.55 L 74.46 7.79 L 88.3 7.79 L 88.3 7.79 M 67.09 3.38 C 67.52,3.38 67.95,3.64 67.95,3.9 L 67.95 10.39 L 67.52 10.39 L 49.78 10.39 L 49.78 3.38 L 67.09 3.38 L 67.09 3.38 M 9.96 43.64 C 9.52,43.64 9.09,43.38 9.09,43.12 L 9.09 26.23 L 19.04 26.23 L 19.04 34.03 L 41.12 34.03 L 41.12 26.23 L 51.07 26.23 L 51.07 34.03 L 73.57 34.03 L 73.57 26.23 L 83.53 26.23 L 83.53 43.12 C 83.53,43.38 83.1,43.64 82.67,43.64 L 81.81 43.64 L 10.82 43.64 L 9.96 43.64 L 9.96 43.64" fill="#2c5967" stroke="none" stroke-width="0.5"/>
  </g>
  <g transform="translate(39.00,60.00) scale(0.2200,0.2100)">
    <path d="M 49.57 0 C 22.02,0 0,22.22 0,50 C 0,77.78 22.02,100 49.57,100 C 77.07,100 99.09,77.78 99.09,50 C 100,23.15 77.07,0 49.57,0 L 49.57 0 M 49.57 87.04 C 29.38,87.04 13.75,70.37 13.75,50.93 C 13.75,31.48 30.29,14.82 49.57,14.82 C 68.8,14.82 85.34,31.48 85.34,50.93 C 85.34,70.37 69.71,87.04 49.57,87.04 L 49.57 87.04" fill="#2c5967" stroke="none" stroke-width="0.5"/>
  </g>
  <g transform="translate(45.00,67.00) scale(0.1000,0.0800)">
    <path d="M 78.01 0 L 36.02 48.84 L 21.99 34.88 L 0 60.46 L 36.02 100 L 100 25.58 L 78.01 0 L 78.01 0" fill="#2c5967" stroke="none" stroke-width="0.5"/>
  </g>
  <g transform="translate(29.00,42.00) scale(0.1400,0.1100)">
    <path d="M 44.24 19.64 L 58.54 37.5 L 0 37.5 L 0 64.29 L 58.54 64.29 L 44.24 82.15 L 59.96 100 L 100 50 L 59.96 0 L 44.24 19.64 L 44.24 19.64" fill="#2c5967" stroke="none" stroke-width="0.5"/>
  </g>
  <g transform="translate(21.00,50.00) scale(0.1300,0.1100)">
    <path d="M 56.5 19.64 L 40.56 0 L 0 50 L 40.56 100 L 56.5 80.35 L 43.46 66.07 L 100 66.07 L 100 39.28 L 40.56 39.28 L 56.5 19.64 L 56.5 19.64" fill="#2c5967" stroke="none" stroke-width="0.5"/>
  </g>
  <g transform="translate(11.00,2.00) scale(0.4600,0.7700)">
    <path d="M 6.49 95.84 L 6.49 88.83 L 7.36 88.83 L 56.27 88.83 C 56.27,87.53 56.7,86.23 57.13,84.93 L 14.29 84.93 L 17.31 47.53 L 75.32 47.53 L 77.05 72.99 C 79.22,72.73 81.38,72.47 83.53,72.47 L 81.81 47.79 L 82.24 47.79 C 86.14,47.79 89.61,45.71 89.61,43.38 L 89.61 22.6 L 66.66 22.6 L 66.66 30.39 L 57.56 30.39 L 57.56 22.6 L 49.35 22.6 L 49.35 14.81 L 67.09 14.81 C 67.52,14.81 67.52,15.06 67.52,15.06 C 67.52,17.4 70.99,19.22 74.89,19.22 L 100 19.22 L 92.63 11.95 L 100 4.42 L 74.46 4.42 C 74.46,2.08 70.99,0 67.09,0 L 49.78 0 L 47.17 0 L 42.85 0 L 42.85 22.86 L 34.63 22.86 L 34.63 30.65 L 25.54 30.65 L 25.54 22.86 L 2.6 22.86 L 2.6 43.64 C 2.6,45.97 6.06,48.05 9.96,48.05 L 10.82 48.05 L 7.79 85.19 L 0 85.19 L 0 100 L 62.32 100 C 60.6,98.7 59.31,97.4 58.45,96.1 L 6.49 96.1 L 6.49 95.84 L 6.49 95.84 M 88.3 7.79 L 84.85 11.43 L 88.3 14.81 L 74.89 14.81 C 74.46,14.81 74.46,14.55 74.46,14.55 L 74.46 7.79 L 88.3 7.79 L 88.3 7.79 M 67.09 3.38 C 67.52,3.38 67.95,3.64 67.95,3.9 L 67.95 10.39 L 67.52 10.39 L 49.78 10.39 L 49.78 3.38 L 67.09 3.38 L 67.09 3.38 M 9.96 43.64 C 9.52,43.64 9.09,43.38 9.09,43.12 L 9.09 26.23 L 19.05 26.23 L 19.05 34.03 L 41.12 34.03 L 41.12 26.23 L 51.07 26.23 L 51.07 34.03 L 73.57 34.03 L 73.57 26.23 L 83.53 26.23 L 83.53 43.12 C 83.53,43.38 83.1,43.64 82.67,43.64 L 81.81 43.64 L 10.82 43.64 L 9.96 43.64 L 9.96 43.64" fill="#2c5967" stroke="none" stroke-width="0.5"/>
  </g>
  <g transform="translate(39.00,60.00) scale(0.2200,0.2100)">
    <path d="M 49.57 0 C 22.02,0 0,22.22 0,50 C 0,77.78 22.02,100 49.57,100 C 77.07,100 99.09,77.78 99.09,50 C 100,23.15 77.07,0 49.57,0 L 49.57 0 M 49.57 87.04 C 29.38,87.04 13.75,70.37 13.75,50.93 C 13.75,31.48 30.29,14.82 49.57,14.82 C 68.8,14.82 85.34,31.48 85.34,50.93 C 85.34,70.37 69.71,87.04 49.57,87.04 L 49.57 87.04" fill="#2c5967" stroke="none" stroke-width="0.5"/>
  </g>
  <g transform="translate(45.00,67.00) scale(0.1000,0.0800)">
    <path d="M 78.01 0 L 36.02 48.84 L 21.99 34.88 L 0 60.46 L 36.02 100 L 100 25.58 L 78.01 0 L 78.01 0" fill="#2c5967" stroke="none" stroke-width="0.5"/>
  </g>
  <g transform="translate(29.00,42.00) scale(0.1400,0.1100)">
    <path d="M 44.24 19.64 L 58.54 37.5 L 0 37.5 L 0 64.29 L 58.54 64.29 L 44.24 82.15 L 59.96 100 L 100 50 L 59.96 0 L 44.24 19.64 L 44.24 19.64" fill="#2c5967" stroke="none" stroke-width="0.5"/>
  </g>
  <g transform="translate(21.00,50.00) scale(0.1300,0.1100)">
    <path d="M 56.54 19.64 L 40.59 0 L 0 50 L 40.59 100 L 56.54 80.35 L 43.49 66.07 L 100 66.07 L 100 39.28 L 40.59 39.28 L 56.54 19.64 L 56.54 19.64" fill="#2c5967" stroke="none" stroke-width="0.5"/>
  </g>
</svg>