<svg xmlns="http://www.w3.org/2000/svg" viewBox="0 0 84.0 104.0000000000001" width="84" height="104">
  <g transform="translate(0.00,0.00) scale(0.8200,0.7700)">
    <path d="M 76.04 99.22 C 63.02,92.34 55.25,81.51 54.61,69.61 L 54.61 59.22 L 0 59.22 L 0 0 L 80.21 0 L 80.21 38.32 L 100 47.45 L 100 69.63 C 99.36,81.63 91.55,92.43 78.58,99.32 L 77.32 100 L 76.04 99.22 L 76.04 99.22" fill="#FFFFFF" stroke="none" stroke-width="0.5"/>
  </g>
  <g transform="translate(0.00,0.00) scale(0.8400,0.7900)">
    <path d="M 78.4 2.38 L 78.4 39.41 L 97.8 48.23 L 97.8 69.12 C 97.2,80.34 89.81,90.52 77.49,97.05 L 76.75 97.46 L 76.01 97.05 C 63.69,90.52 56.28,80.41 55.66,69.12 L 55.66 57.86 L 2.24 57.86 L 2.24 2.38 L 78.4 2.38 L 78.4 2.38 M 80.65 0 L 0 0 L 0 60.23 L 53.39 60.23 L 53.39 68.93 L 53.39 69.07 C 54.05,81.22 61.9,92.13 74.95,99.07 L 75.7 99.45 L 76.7 100 L 77.69 99.45 L 78.43 99.07 C 91.49,92.13 99.35,81.22 100,69.15 L 100 46.66 L 98.65 46.04 L 80.65 37.84 L 80.65 0 L 80.65 0" fill="#FFFFFF" stroke="none" stroke-width="0.5"/>
  </g>
  <g transform="translate(1.00,1.00) scale(0.6400,0.4400)">
    <path d="M 4.35 6.34 L 95.65 6.34 L 95.65 61.57 L 97.82 60.2 L 100 61.57 L 100 0 L 0 0 L 0 100 L 66.86 100 L 66.86 93.66 L 4.35 93.66 L 4.35 6.34 L 4.35 6.34" fill="#2d5967" stroke="none" stroke-width="0.5"/>
  </g>
  <g transform="translate(47.00,30.00) scale(0.3500,0.4600)">
    <path d="M 50.01 0 L 0 16.19 L 0 51.76 C 1.42,70.86 19.02,88.18 48.26,99.31 L 50.01 100 L 51.77 99.31 C 81.01,88.18 98.55,70.98 100,51.76 L 100 16.31 L 50.01 0 L 50.01 0 M 92.11 51.56 C 90.95,67.18 77.13,81.59 53.96,91.71 L 53.96 40.88 L 46.07 40.88 L 46.07 91.78 C 22.9,81.67 8.87,67.26 7.86,51.64 L 7.86 20.23 L 46.07 7.77 L 46.07 34.48 L 54.05 34.48 L 54.05 7.77 L 92.23 20.23 L 92.11 51.56 L 92.11 51.56" fill="#2d5967" stroke="none" stroke-width="0.5"/>
  </g>
  <g transform="translate(37.00,9.00) scale(0.1500,0.1200)">
    <path d="M 13.01 40.16 L 0 56.54 L 34.26 100 L 100 16.54 L 87.06 0 L 34.26 67.09 L 13.01 40.16 L 13.01 40.16" fill="#2d5967" stroke="none" stroke-width="0.5"/>
  </g>
  <g transform="translate(39.00,23.00) scale(0.1100,0.1100)">
    <path d="M 100 82.41 L 67.48 50.08 L 100 17.59 L 82.52 0 L 50.09 32.5 L 17.57 0 L 0 17.59 L 32.43 50.08 L 0 82.41 L 17.57 100 L 50.09 67.5 L 82.52 100 L 100 82.41 L 100 82.41" fill="#2d5967" stroke="none" stroke-width="0.5"/>
  </g>
  <g transform="translate(11.00,26.00) scale(0.1900,0.1000)">
    <path d="M 100 100 L 100 43.94 C 100,32.29 97.34,21.11 92.64,12.87 C 87.93,4.63 81.51,0 74.81,0 L 25.19 0 C 18.49,0 12.07,4.63 7.36,12.87 C 2.66,21.11 0,32.29 0,43.94 L 0 100 L 14.17 100 L 14.17 43.94 C 14.17,41.51 14.45,39.11 15.01,36.86 C 15.5,34.62 16.28,32.57 17.28,30.85 C 18.27,29.14 19.44,27.77 20.71,26.84 C 22.04,25.91 23.42,25.43 24.81,25.43 L 74.42 25.43 C 75.8,25.43 77.19,25.91 78.46,26.85 C 79.73,27.78 80.9,29.14 81.89,30.87 C 82.83,32.59 83.61,34.63 84.16,36.87 C 84.66,39.12 84.94,41.52 84.94,43.94 L 84.94 100 L 100 100 L 100 100" fill="#2d5967" stroke="none" stroke-width="0.5"/>
  </g>
  <g transform="translate(14.00,10.00) scale(0.1300,0.1300)">
    <path d="M 49.56 100 C 59.36,100 68.92,97.1 77.03,91.65 C 85.22,86.21 91.57,78.48 95.26,69.43 C 99.04,60.38 100,50.42 98.07,40.82 C 96.22,31.21 91.49,22.39 84.58,15.46 C 77.59,8.54 68.84,3.82 59.2,1.91 C 49.56,0 39.6,0.98 30.6,4.73 C 21.53,8.48 13.82,14.82 8.35,22.97 C 2.89,31.11 0,40.69 0,50.48 C 0,63.61 5.22,76.21 14.54,85.5 C 23.78,94.78 36.39,100 49.56,100 L 49.56 100 M 49.56 22.26 C 55.26,22.26 60.8,23.95 65.54,27.12 C 70.28,30.28 73.98,34.78 76.14,40.04 C 78.31,45.3 78.88,51.09 77.75,56.67 C 76.63,62.26 73.9,67.39 69.88,71.41 C 65.86,75.44 60.72,78.18 55.18,79.29 C 49.56,80.4 43.78,79.83 38.55,77.65 C 33.25,75.48 28.76,71.79 25.62,67.05 C 22.41,62.32 20.72,56.75 20.72,51.06 C 20.72,43.42 23.78,36.1 29.16,30.7 C 34.54,25.3 41.93,22.26 49.56,22.26 L 49.56 22.26" fill="#2d5967" stroke="none" stroke-width="0.5"/>
  </g>
</svg>