<svg xmlns="http://www.w3.org/2000/svg" viewBox="0 0 82.0 125.00000000000017" width="82" height="125">
  <g transform="translate(20.00,1.00) scale(0.8000,0.8200)">
    <path d="M 0 100 L 0 40.49 L 48.99 40.49 L 48.99 20.24 L 58.3 16.34 C 58.3,16.1 58.3,15.85 58.3,15.61 C 58.3,15.12 58.3,14.63 58.3,14.15 C 59.05,6.1 65.84,0 74.38,0 C 82.67,0 89.44,5.85 90.21,13.9 C 90.21,14.39 90.21,15.12 90.21,15.61 C 90.21,15.85 90.21,16.1 90.21,16.1 L 100 20 L 100 42.93 C 99.5,51.22 95.48,58.78 88.19,65.12 L 99 75.61 L 94.48 80 L 91.96 77.56 L 91.96 100 L 0 100 L 0 100" fill="#FFFFFF" stroke="none" stroke-width="0.5"/>
  </g>
  <g transform="translate(19.00,0.00) scale(0.8200,0.8400)">
    <path d="M 73.77 2.38 C 81.13,2.38 87.25,7.86 88.24,14.76 C 88.24,15.24 88.24,15.71 88.24,16.43 C 88.24,16.9 88.24,17.38 88.24,17.86 L 97.79 21.9 L 97.79 43.33 C 97.3,51.43 93.13,59.05 85.78,65 L 96.32 75.24 L 93.87 77.62 L 90.19 74.05 L 90.19 97.62 L 2.44 97.62 L 2.44 41.9 L 50.24 41.9 L 50.24 21.67 L 59.31 17.86 C 59.31,17.38 59.31,16.9 59.31,16.43 C 59.31,15.95 59.31,15.48 59.31,15 C 60.04,7.86 66.17,2.38 73.77,2.38 L 73.77 2.38 M 73.77 0 C 64.95,0 57.84,6.43 56.85,14.76 C 56.85,15.24 56.85,15.71 56.85,16.43 L 49.25 19.52 L 47.79 20.24 L 47.79 21.9 L 47.79 39.76 L 2.44 39.76 L 0 39.76 L 0 42.14 L 0 97.62 L 0 100 L 2.44 100 L 89.95 100 L 92.4 100 L 92.4 97.62 L 92.4 79.76 L 93.62 80.95 L 95.33 79.29 L 97.79 76.91 L 99.5 75.24 L 97.79 73.57 L 89.21 65.24 C 95.82,59.05 99.5,51.43 100,43.57 L 100 22.14 L 100 20.24 L 98.52 19.52 L 90.68 16.19 C 90.68,15.71 90.68,15.24 90.68,14.52 C 89.46,6.19 82.35,0 73.77,0 L 73.77 0" fill="#FFFFFF" stroke="none" stroke-width="0.5"/>
  </g>
  <g transform="translate(86.00,76.00) scale(0.0600,0.0600)">
    <path d="M 50 50 L 0 50 L 0 100 L 100 100 L 100 0 L 50 0 L 50 50 L 50 50" fill="#2d5967" stroke="none" stroke-width="0.5"/>
  </g>
  <g transform="translate(21.00,76.00) scale(0.0600,0.0600)">
    <path d="M 50 0 L 0 0 L 0 100 L 100 100 L 100 50 L 50 50 L 50 0 L 50 0" fill="#2d5967" stroke="none" stroke-width="0.5"/>
  </g>
  <g transform="translate(21.00,35.00) scale(0.0600,0.0600)">
    <path d="M 0 100 L 50 100 L 50 50 L 100 50 L 100 0 L 0 0 L 0 100 L 0 100" fill="#2d5967" stroke="none" stroke-width="0.5"/>
  </g>
  <g transform="translate(62.00,79.00) scale(0.0600,0.0300)">
    <path d="M 100 0 L 0 0 L 0 100 L 100 100 L 100 0 L 100 0" fill="#2d5967" stroke="none" stroke-width="0.5"/>
  </g>
  <g transform="translate(70.00,79.00) scale(0.0600,0.0300)">
    <path d="M 100 0 L 0 0 L 0 100 L 100 100 L 100 0 L 100 0" fill="#2d5967" stroke="none" stroke-width="0.5"/>
  </g>
  <g transform="translate(78.00,79.00) scale(0.0600,0.0300)">
    <path d="M 100 0 L 0 0 L 0 100 L 100 100 L 100 0 L 100 0" fill="#2d5967" stroke="none" stroke-width="0.5"/>
  </g>
  <g transform="translate(53.00,79.00) scale(0.0600,0.0300)">
    <path d="M 100 0 L 0 0 L 0 100 L 100 100 L 100 0 L 100 0" fill="#2d5967" stroke="none" stroke-width="0.5"/>
  </g>
  <g transform="translate(45.00,79.00) scale(0.0600,0.0300)">
    <path d="M 100 0 L 0 0 L 0 100 L 100 100 L 100 0 L 100 0" fill="#2d5967" stroke="none" stroke-width="0.5"/>
  </g>
  <g transform="translate(37.00,79.00) scale(0.0600,0.0300)">
    <path d="M 100 0 L 0 0 L 0 100 L 100 100 L 100 0 L 100 0" fill="#2d5967" stroke="none" stroke-width="0.5"/>
  </g>
  <g transform="translate(29.00,79.00) scale(0.0600,0.0300)">
    <path d="M 100 0 L 0 0 L 0 100 L 100 100 L 100 0 L 100 0" fill="#2d5967" stroke="none" stroke-width="0.5"/>
  </g>
  <g transform="translate(21.00,60.00) scale(0.0300,0.0600)">
    <path d="M 100 0 L 0 0 L 0 100 L 100 100 L 100 0 L 100 0" fill="#2d5967" stroke="none" stroke-width="0.5"/>
  </g>
  <g transform="translate(21.00,68.00) scale(0.0300,0.0600)">
    <path d="M 100 0 L 0 0 L 0 100 L 100 100 L 100 0 L 100 0" fill="#2d5967" stroke="none" stroke-width="0.5"/>
  </g>
  <g transform="translate(90.00,68.00) scale(0.0300,0.0600)">
    <path d="M 100 0 L 0 0 L 0 100 L 100 100 L 100 0 L 100 0" fill="#2d5967" stroke="none" stroke-width="0.5"/>
  </g>
  <g transform="translate(21.00,51.00) scale(0.0300,0.0600)">
    <path d="M 100 0 L 0 0 L 0 100 L 100 100 L 100 0 L 100 0" fill="#2d5967" stroke="none" stroke-width="0.5"/>
  </g>
  <g transform="translate(21.00,43.00) scale(0.0300,0.0600)">
    <path d="M 100 0 L 0 0 L 0 100 L 100 100 L 100 0 L 100 0" fill="#2d5967" stroke="none" stroke-width="0.5"/>
  </g>
  <g transform="translate(45.00,35.00) scale(0.0600,0.0300)">
    <path d="M 100 0 L 0 0 L 0 100 L 100 100 L 100 0 L 100 0" fill="#2d5967" stroke="none" stroke-width="0.5"/>
  </g>
  <g transform="translate(54.00,35.00) scale(0.0400,0.0300)">
    <path d="M 95.25 33.33 L 95.25 0 L 0 0 L 0 100 L 100 100 C 95.25,80 95.25,60 95.25,33.33 L 95.25 33.33" fill="#2d5967" stroke="none" stroke-width="0.5"/>
  </g>
  <g transform="translate(37.00,35.00) scale(0.0600,0.0300)">
    <path d="M 100 0 L 0 0 L 0 100 L 100 100 L 100 0 L 100 0" fill="#2d5967" stroke="none" stroke-width="0.5"/>
  </g>
  <g transform="translate(29.00,35.00) scale(0.0600,0.0300)">
    <path d="M 100 0 L 0 0 L 0 100 L 100 100 L 100 0 L 100 0" fill="#2d5967" stroke="none" stroke-width="0.5"/>
  </g>
  <g transform="translate(84.00,56.00) scale(0.1300,0.0900)">
    <path d="M 0 73.92 L 15.17 95.65 L 39.4 63.04 L 39.4 100 L 62.11 100 L 62.11 63.04 L 84.83 95.65 L 100 73.92 L 49.96 0 L 0 73.92 L 0 73.92" fill="#2d5967" stroke="none" stroke-width="0.5"/>
  </g>
  <g transform="translate(75.00,27.00) scale(0.0700,0.1500)">
    <path d="M 44.75 1.32 C 23.62,2.63 5.25,11.84 2.62,22.37 C 0,34.21 13.12,43.42 31.49,48.68 L 39.36 50 L 23.62 100 L 76.24 100 L 63.12 51.32 L 65.75 51.32 C 84.25,47.37 100,38.16 100,27.63 C 100,11.84 73.62,0 44.75,1.32 L 44.75 1.32" fill="#2d5967" stroke="none" stroke-width="0.5"/>
  </g>
  <g transform="translate(60.00,2.00) scale(0.3800,0.5900)">
    <path d="M 19.26 22.11 L 0 27.55 L 0 58.16 C 1.56,74.49 19.26,89.46 48.44,99.32 L 50 100 L 51.56 99.32 C 81.26,89.79 98.44,74.83 100,58.16 L 100 27.55 L 79.67 21.77 C 79.67,21.09 79.67,20.41 79.67,19.73 C 79.67,19.05 79.67,18.37 79.67,17.35 C 78.63,7.82 65.63,0 50,0 C 34.37,0 20.82,7.82 19.26,18.03 C 19.26,18.71 19.26,19.39 19.26,20.07 C 19.26,20.75 19.26,21.43 19.26,22.11 L 19.26 22.11 M 92.7 58.16 C 91.67,72.45 76.04,85.71 50,94.22 C 24.48,85.37 8.85,72.45 7.3,58.16 L 7.3 30.95 L 50 19.05 L 92.7 30.95 L 92.7 58.16 L 92.7 58.16 M 50 5.1 C 59.89,5.1 68.74,9.52 71.86,15.31 C 72.4,16.67 72.92,18.03 72.92,19.73 L 50 13.61 L 26.56 20.07 C 26.56,18.71 27.08,17.01 27.6,15.65 C 30.71,9.52 39.59,5.1 50,5.1 L 50 5.1" fill="#2d5967" stroke="none" stroke-width="0.5"/>
  </g>
</svg>