<svg xmlns="http://www.w3.org/2000/svg" viewBox="0 0 65.0 109.00000000000027" width="65" height="109">
  <g transform="translate(1.00,0.00) scale(0.6300,0.8300)">
    <path d="M 49.3 99.78 C 47.29,99.06 0,82.25 0,64.25 L 0 11.64 L 1.62 11.64 C 34.48,11.64 48.36,3.33 48.36,0 L 51.61 0 C 51.61,2.47 63.31,11.61 98.38,11.61 L 100 11.61 L 100 64.25 C 100,82.25 52.68,99.06 50.67,99.78 L 49.98 100 L 49.3 99.78 L 49.3 99.78" fill="#FFFFFF" stroke="none" stroke-width="0.5"/>
  </g>
  <g transform="translate(0.00,0.00) scale(0.6500,0.8400)">
    <path d="M 49.98 0 C 49.98,3.62 62.89,12.67 96.85,12.67 L 96.85 63.39 C 96.85,80.59 49.98,97.45 49.98,97.45 C 49.98,97.45 3.15,80.59 3.15,63.39 L 3.15 12.7 C 35.95,12.7 49.98,4.11 49.98,0 L 49.98 0 M 53.13 0 L 46.84 0 C 46.71,2.12 34.97,10.27 3.15,10.27 L 0 10.27 L 0 63.39 C 0,81.93 46.68,98.83 48.66,99.54 L 49.98 100 L 51.31 99.54 C 53.29,98.83 100,81.93 100,63.39 L 100 10.27 L 96.85 10.27 C 65.31,10.27 53.51,2.16 53.13,0 L 53.13 0" fill="#FFFFFF" stroke="none" stroke-width="0.5"/>
  </g>
  <g transform="translate(2.00,0.00) scale(0.6100,0.8200)">
    <path d="M 49.98 0 C 49.98,4.19 35,13.01 0,13.01 L 0 65.05 C 0,82.7 49.98,100 49.98,100 C 49.98,100 100,82.83 100,65.18 L 100 13.03 C 63.82,13.03 49.98,3.74 49.98,0 L 49.98 0 M 52.5 8.31 C 54.61,9.45 56.86,10.44 59.22,11.26 C 70.53,14.86 82.7,16.71 95,16.7 L 95 47.43 L 52.5 47.43 L 52.5 8.31 L 52.5 8.31 M 5.01 16.7 C 17.12,16.69 29.11,14.92 40.31,11.48 C 42.88,10.64 45.34,9.61 47.63,8.41 L 47.63 47.43 L 5.01 47.43 L 5.01 16.7 L 5.01 16.7 M 27.75 86 C 13.07,78.33 5.01,70.89 5.01,65.05 L 5.01 51.12 L 47.5 51.12 L 47.5 94.86 C 40.67,92.21 34.07,89.25 27.75,86 L 27.75 86 M 49.98 95.76 L 50.25 95.76 L 49.98 95.76 L 49.98 95.76 M 95 65.05 C 95,70.89 86.9,78.33 72.22,86 C 65.91,89.26 59.32,92.22 52.5,94.86 L 52.5 51.12 L 95 51.12 L 95 65.05 L 95 65.05" fill="#2d5967" stroke="none" stroke-width="0.5"/>
  </g>
</svg>