<svg xmlns="http://www.w3.org/2000/svg" viewBox="0 0 64.0 109.0000000000001" width="64" height="109">
  <g transform="translate(25.00,1.00) scale(0.6200,0.8200)">
    <path d="M 48.88 99.51 C 23.97,92.46 12.14,80.29 6.4,71.05 C 0,60.58 0,51.82 0,51.34 L 0 16.3 L 50.16 0 L 100 16.3 L 100 51.58 C 100,53.04 99.36,86.13 51.76,99.51 L 50.48 100 L 48.88 99.51 L 48.88 99.51" fill="#FFFFFF" stroke="none" stroke-width="0.5"/>
  </g>
  <g transform="translate(24.00,0.00) scale(0.6400,0.8400)">
    <path d="M 50 2.61 L 96.59 18.01 L 96.59 51.66 C 96.59,53.08 95.97,84.36 50.93,97.16 L 50 97.39 L 49.38 97.16 C 25.61,90.52 14.51,78.91 9.26,70.14 C 3.39,60.43 3.1,51.9 3.1,51.66 L 3.1 18.01 L 50 2.61 L 50 2.61 M 50 0 L 48.76 0.47 L 1.86 15.88 L 0 16.35 L 0 18.01 L 0 51.66 C 0,52.13 0,60.9 6.49,71.33 C 12.05,80.33 23.77,92.65 48.45,99.53 L 49.38 99.76 L 50.31 100 L 51.24 99.76 L 52.15 99.53 C 99.38,86.26 100,53.08 100,51.66 L 100 18.01 L 100 16.35 L 98.14 15.64 L 51.24 0.47 L 50 0 L 50 0" fill="#FFFFFF" stroke="none" stroke-width="0.5"/>
  </g>
  <g transform="translate(26.00,2.00) scale(0.6000,0.8000)">
    <path d="M 50 0 L 0 16.25 L 0 51.75 C 0,52 0,61 6.57,71.25 C 12.17,80.5 24.33,92.75 49.34,99.75 L 50.33 100 L 51.32 99.75 C 99.34,86.25 100,53 100,51.75 L 100 16.25 L 50 0 L 50 0 M 94.73 51.75 C 94.73,53 94.09,83.25 50,96 C 31.58,90.75 18.42,82 10.84,69.75 C 4.94,60 4.94,52 4.94,51.75 L 4.94 18.75 L 50 4 L 94.73 18.75 L 94.73 51.75 L 94.73 51.75" fill="#aa643b" stroke="none" stroke-width="0.5"/>
  </g>
  <g transform="translate(38.00,25.00) scale(0.1800,0.0300)">
    <path d="M 100 0 L 0 0 L 0 100 L 100 100 L 100 0 L 100 0" fill="#aa643b" stroke="none" stroke-width="0.5"/>
  </g>
  <g transform="translate(62.00,21.00) scale(0.1200,0.1000)">
    <path d="M 100 20 L 82.55 0 L 36.49 58 L 17.45 34 L 0 56 L 36.49 100 L 100 20 L 100 20" fill="#aa643b" stroke="none" stroke-width="0.5"/>
  </g>
  <g transform="translate(38.00,39.00) scale(0.1800,0.0300)">
    <path d="M 100 0 L 0 0 L 0 100 L 100 100 L 100 0 L 100 0" fill="#aa643b" stroke="none" stroke-width="0.5"/>
  </g>
  <g transform="translate(63.00,36.00) scale(0.1000,0.1000)">
    <path d="M 80.43 0 L 51.04 30.77 L 19.67 0 L 0 21.15 L 29.4 50 L 0 78.85 L 19.67 100 L 51.04 71.15 L 80.43 100 L 100 78.85 L 70.6 50 L 100 21.15 L 80.43 0 L 80.43 0" fill="#aa643b" stroke="none" stroke-width="0.5"/>
  </g>
  <g transform="translate(38.00,53.00) scale(0.1800,0.0300)">
    <path d="M 100 0 L 0 0 L 0 100 L 100 100 L 100 0 L 100 0" fill="#aa643b" stroke="none" stroke-width="0.5"/>
  </g>
  <g transform="translate(62.00,50.00) scale(0.1200,0.1000)">
    <path d="M 100 20 L 82.55 0 L 36.49 58 L 17.45 34 L 0 56 L 36.49 100 L 100 20 L 100 20" fill="#aa643b" stroke="none" stroke-width="0.5"/>
  </g>
</svg>