<svg xmlns="http://www.w3.org/2000/svg" viewBox="0 0 84.0 102.00000000000014" width="84" height="102">
  <g transform="translate(0.00,0.00) scale(0.8200,0.7500)">
    <path d="M 74.28 100 C 73.5,99.99 72.74,99.8 72.04,99.44 C 71.34,99.8 70.57,100 69.8,100 L 30.38 100 C 29.61,99.99 28.84,99.8 28.14,99.44 C 27.44,99.8 26.68,99.99 25.9,100 L 5.24 100 C 3.85,100 2.52,99.4 1.54,98.33 C 0.55,97.26 0,95.81 0,94.29 L 0 80.37 C 0.01,79.52 0.19,78.69 0.54,77.93 C 0.19,77.17 0.01,76.34 0,75.49 L 0 61.95 C 0,61.11 0.18,60.27 0.52,59.51 C 0.18,58.75 0.01,57.92 0,57.07 L 0 43.02 C 0.01,42.18 0.18,41.35 0.52,40.59 C 0.18,39.82 0,38.99 0,38.15 L 0 24.61 C 0.01,23.77 0.18,22.93 0.52,22.17 C 0.18,21.41 0.01,20.58 0,19.73 L 0 5.71 C 0,4.19 0.55,2.74 1.54,1.67 C 2.52,0.6 3.85,0 5.24,0 L 25.77 0 C 26.55,0 27.31,0.2 28.01,0.59 C 28.7,0.21 29.47,0.01 30.25,0 L 69.71 0 C 70.48,0 71.25,0.2 71.95,0.59 C 72.64,0.21 73.41,0.01 74.19,0 L 94.78 0 C 96.17,0.01 97.49,0.61 98.47,1.68 C 99.45,2.75 100,4.2 100,5.71 L 100 19.63 C 100,20.48 99.82,21.31 99.48,22.07 C 99.82,22.84 99.99,23.67 100,24.51 L 100 38.05 C 100,38.89 99.82,39.73 99.48,40.49 C 99.82,41.25 99.99,42.08 100,42.93 L 100 56.88 C 99.99,57.72 99.82,58.55 99.48,59.32 C 99.82,60.08 100,60.91 100,61.76 L 100 75.19 C 99.99,76.04 99.82,76.87 99.48,77.63 C 99.82,78.4 100,79.23 100,80.07 L 100 94 C 100,95.51 99.45,96.96 98.47,98.03 C 97.49,99.1 96.17,99.7 94.78,99.71 L 74.28 100 L 74.28 100" fill="#FFFFFF" stroke="none" stroke-width="0.5"/>
  </g>
  <g transform="translate(0.00,0.00) scale(0.8400,0.7700)">
    <path d="M 93.89 2.4 C 94.42,2.4 94.94,2.51 95.43,2.73 C 95.91,2.95 96.36,3.28 96.73,3.68 C 97.1,4.09 97.4,4.57 97.6,5.11 C 97.8,5.64 97.9,6.21 97.9,6.78 L 97.9 20.37 C 97.89,21.22 97.66,22.05 97.22,22.75 C 97.66,23.45 97.89,24.28 97.9,25.13 L 97.9 38.34 C 97.89,39.19 97.66,40.02 97.22,40.72 C 97.65,41.43 97.89,42.26 97.9,43.11 L 97.9 56.72 C 97.89,57.57 97.65,58.4 97.22,59.1 C 97.66,59.8 97.89,60.63 97.9,61.48 L 97.9 74.6 C 97.89,75.45 97.66,76.28 97.22,76.98 C 97.66,77.68 97.89,78.51 97.9,79.36 L 97.9 92.95 C 97.94,93.55 97.86,94.15 97.68,94.71 C 97.49,95.28 97.2,95.8 96.83,96.23 C 96.45,96.67 96,97.02 95.49,97.26 C 94.98,97.5 94.44,97.62 93.89,97.62 L 73.75 97.62 C 72.97,97.61 72.21,97.35 71.56,96.88 C 70.92,97.36 70.15,97.62 69.37,97.62 L 30.84 97.62 C 30.06,97.62 29.29,97.36 28.65,96.88 C 27.97,97.39 27.15,97.65 26.33,97.62 L 6.26 97.62 C 5.19,97.62 4.16,97.16 3.41,96.34 C 2.65,95.51 2.23,94.4 2.23,93.24 L 2.23 79.65 C 2.25,78.8 2.48,77.97 2.91,77.27 C 2.48,76.56 2.24,75.73 2.23,74.88 L 2.23 61.67 C 2.23,60.82 2.47,59.99 2.91,59.29 C 2.47,58.59 2.23,57.76 2.23,56.91 L 2.23 43.2 C 2.23,42.35 2.47,41.52 2.91,40.82 C 2.47,40.12 2.23,39.29 2.23,38.44 L 2.23 25.23 C 2.23,24.38 2.47,23.55 2.91,22.85 C 2.47,22.15 2.23,21.32 2.23,20.47 L 2.23 6.78 C 2.23,5.62 2.65,4.5 3.41,3.68 C 4.16,2.86 5.19,2.4 6.26,2.4 L 26.33 2.4 C 27.11,2.4 27.87,2.66 28.52,3.14 C 29.16,2.66 29.93,2.4 30.71,2.4 L 69.29 2.4 C 70.07,2.4 70.83,2.66 71.48,3.14 C 72.12,2.66 72.89,2.41 73.67,2.4 L 93.8 2.4 L 93.89 2.4 L 93.89 2.4 M 93.8 0.02 L 73.75 0.02 C 73.01,0.02 72.26,0.17 71.56,0.47 C 70.87,0.17 70.12,0.02 69.37,0.02 L 30.84 0.02 C 30.09,0.02 29.35,0.17 28.65,0.47 C 27.91,0.15 27.12,0 26.33,0.02 L 6.26 0.02 C 4.61,0.02 3.03,0.73 1.86,2 C 0.69,3.27 0.04,4.99 0.04,6.78 L 0.04 20.37 C 0.04,21.19 0.18,21.99 0.45,22.75 C 0.18,23.51 0.04,24.32 0.04,25.13 L 0.04 38.34 C 0.04,39.16 0.18,39.97 0.45,40.72 C 0.18,41.48 0.04,42.29 0.04,43.11 L 0.04 56.72 C 0.04,57.54 0.18,58.34 0.45,59.1 C 0.18,59.86 0.04,60.67 0.04,61.48 L 0.04 74.58 C 0.05,75.39 0.19,76.19 0.45,76.96 C 0.19,77.72 0.05,78.52 0.04,79.34 L 0.04 92.93 C 0,93.84 0.13,94.75 0.43,95.61 C 0.72,96.47 1.17,97.25 1.76,97.91 C 2.34,98.57 3.04,99.1 3.81,99.46 C 4.58,99.82 5.42,100 6.26,100 L 26.33 100 C 27.08,100 27.82,99.85 28.52,99.55 C 29.21,99.85 29.96,100 30.71,100 L 69.29 100 C 70.04,100 70.78,99.85 71.48,99.55 C 72.17,99.84 72.92,100 73.67,100 L 93.8 100 C 95.45,99.99 97.02,99.28 98.18,98.01 C 99.35,96.74 100,95.03 100,93.24 L 100 79.65 C 100,78.83 99.86,78.02 99.58,77.27 C 99.86,76.51 100,75.7 100,74.88 L 100 61.67 C 100,60.86 99.86,60.05 99.58,59.29 C 99.86,58.53 100,57.73 100,56.91 L 100 43.2 C 100,42.39 99.86,41.58 99.58,40.82 C 99.86,40.06 100,39.25 100,38.44 L 100 25.23 C 100,24.41 99.86,23.61 99.58,22.85 C 99.86,22.09 100,21.28 100,20.47 L 100 6.78 C 100,5.01 99.36,3.31 98.22,2.04 C 97.07,0.78 95.52,0.05 93.89,0.02 L 93.8 0.02 L 93.8 0.02" fill="#FFFFFF" stroke="none" stroke-width="0.5"/>
  </g>
  <g transform="translate(1.00,1.00) scale(0.8100,0.7400)">
    <path d="M 100 4.63 C 100,4.03 99.89,3.43 99.68,2.87 C 99.48,2.31 99.17,1.8 98.78,1.38 C 98.39,0.95 97.93,0.61 97.42,0.38 C 96.91,0.15 96.36,0.03 95.81,0.03 L 74.77 0.03 C 73.96,0.04 73.16,0.31 72.48,0.8 C 71.81,0.3 71.01,0.03 70.2,0.03 L 29.93 0.03 C 29.12,0.03 28.32,0.3 27.64,0.8 C 26.93,0.27 26.08,0 25.22,0.03 L 4.25 0.03 C 3.14,0.03 2.06,0.51 1.28,1.38 C 0.49,2.24 0.04,3.41 0.04,4.63 L 0.04 18.9 C 0.04,19.79 0.29,20.66 0.75,21.4 C 0.29,22.13 0.04,23 0.04,23.9 L 0.04 37.77 C 0.04,38.66 0.29,39.53 0.75,40.27 C 0.29,41.01 0.05,41.87 0.04,42.77 L 0.04 57.06 C 0.05,57.95 0.29,58.82 0.75,59.56 C 0.29,60.3 0.04,61.17 0.04,62.06 L 0.04 75.81 C 0.05,76.7 0.3,77.56 0.75,78.3 C 0.31,79.05 0.06,79.92 0.04,80.8 L 0.04 95.08 C 0,95.71 0.08,96.34 0.27,96.93 C 0.47,97.53 0.77,98.08 1.16,98.54 C 1.56,99 2.04,99.37 2.57,99.62 C 3.1,99.87 3.67,100 4.25,100 L 25.22 100 C 26.04,100 26.83,99.73 27.51,99.22 C 28.18,99.73 28.98,100 29.8,100 L 70.1 100 C 70.92,100 71.72,99.73 72.39,99.22 C 73.07,99.72 73.87,99.99 74.68,100 L 95.72 100 C 96.27,100 96.81,99.88 97.32,99.65 C 97.83,99.42 98.3,99.08 98.69,98.65 C 99.08,98.22 99.38,97.72 99.59,97.16 C 99.8,96.6 99.91,96 99.9,95.4 L 99.9 81.13 C 99.9,80.24 99.66,79.37 99.2,78.63 C 99.66,77.89 99.9,77.02 99.9,76.13 L 99.9 62.26 C 99.9,61.37 99.66,60.5 99.2,59.76 C 99.65,59.02 99.9,58.15 99.9,57.26 L 99.9 42.87 C 99.9,41.97 99.65,41.11 99.2,40.37 C 99.66,39.63 99.9,38.76 99.9,37.87 L 99.9 24 C 99.9,23.1 99.66,22.23 99.2,21.5 C 99.66,20.76 99.9,19.89 99.9,19 L 100 4.63 L 100 4.63 M 3.86 4.63 C 3.87,4.49 3.92,4.36 4.01,4.26 C 4.1,4.17 4.22,4.11 4.35,4.1 L 25.22 4.1 C 25.34,4.11 25.46,4.17 25.54,4.27 C 25.63,4.36 25.68,4.49 25.68,4.63 L 25.68 18.9 C 25.68,19.03 25.63,19.16 25.54,19.26 C 25.46,19.36 25.34,19.42 25.22,19.42 L 4.25 19.42 C 4.13,19.42 4.01,19.36 3.92,19.26 C 3.83,19.17 3.78,19.04 3.77,18.9 L 3.86 4.63 L 3.86 4.63 M 25.81 95.4 C 25.81,95.53 25.77,95.66 25.68,95.76 C 25.6,95.86 25.48,95.92 25.36,95.92 L 4.25 95.92 C 4.13,95.92 4.01,95.86 3.92,95.76 C 3.83,95.67 3.78,95.54 3.77,95.4 L 3.77 81.13 C 3.78,80.99 3.83,80.86 3.92,80.76 C 4.01,80.67 4.13,80.61 4.25,80.6 L 25.22 80.6 C 25.34,80.61 25.46,80.67 25.54,80.77 C 25.63,80.86 25.68,80.99 25.68,81.13 L 25.81 95.4 L 25.81 95.4 M 96.36 95.4 C 96.36,95.53 96.31,95.66 96.22,95.76 C 96.14,95.86 96.02,95.92 95.9,95.92 L 74.77 95.92 C 74.65,95.92 74.53,95.86 74.45,95.76 C 74.36,95.66 74.31,95.53 74.31,95.4 L 74.31 81.13 C 74.31,80.99 74.36,80.86 74.45,80.77 C 74.53,80.67 74.65,80.61 74.77,80.6 L 95.81 80.6 C 95.93,80.61 96.05,80.67 96.13,80.77 C 96.22,80.86 96.27,80.99 96.27,81.13 L 96.36 95.4 L 96.36 95.4 M 96.17 37.77 C 96.17,37.9 96.13,38.03 96.04,38.13 C 95.96,38.23 95.84,38.29 95.72,38.29 L 77.66 38.29 C 78.18,39.62 78.61,40.98 78.96,42.37 L 95.81 42.37 C 95.93,42.37 96.05,42.42 96.13,42.51 C 96.22,42.61 96.27,42.73 96.27,42.87 L 96.27 57.16 C 96.27,57.29 96.22,57.42 96.13,57.52 C 96.05,57.61 95.93,57.66 95.81,57.66 L 79.4 57.66 C 79.13,59.04 78.78,60.4 78.34,61.73 L 95.81 61.73 C 95.93,61.74 96.05,61.8 96.13,61.9 C 96.22,61.99 96.27,62.12 96.27,62.26 L 96.27 76.03 C 96.27,76.1 96.25,76.16 96.23,76.22 C 96.21,76.28 96.17,76.34 96.13,76.38 C 96.09,76.43 96.04,76.47 95.98,76.49 C 95.93,76.52 95.87,76.53 95.81,76.53 L 68.71 76.53 C 66.86,78.16 64.83,79.53 62.66,80.6 L 70.08 80.6 C 70.21,80.61 70.33,80.67 70.42,80.76 C 70.5,80.86 70.56,80.99 70.56,81.13 L 70.56 95.4 C 70.56,95.54 70.5,95.67 70.42,95.76 C 70.33,95.86 70.21,95.92 70.08,95.92 L 29.93 95.92 C 29.81,95.92 29.69,95.86 29.61,95.76 C 29.52,95.66 29.48,95.53 29.48,95.4 L 29.48 81.13 C 29.48,80.99 29.52,80.86 29.61,80.77 C 29.69,80.67 29.81,80.61 29.93,80.6 L 37.58 80.6 C 35.42,79.51 33.38,78.14 31.51,76.53 L 4.25 76.53 C 4.13,76.53 4.01,76.48 3.92,76.39 C 3.83,76.29 3.78,76.17 3.77,76.03 L 3.77 62.26 C 3.78,62.12 3.83,61.99 3.92,61.9 C 4.01,61.8 4.13,61.74 4.25,61.73 L 21.9 61.73 C 21.47,60.4 21.13,59.04 20.87,57.66 L 4.25 57.66 C 4.13,57.66 4.01,57.61 3.92,57.52 C 3.83,57.42 3.78,57.3 3.77,57.16 L 3.77 42.87 C 3.78,42.73 3.83,42.6 3.92,42.51 C 4.01,42.42 4.13,42.37 4.25,42.37 L 21.3 42.37 C 21.64,40.97 22.08,39.61 22.61,38.29 L 4.3 38.29 C 4.17,38.29 4.05,38.23 3.97,38.13 C 3.88,38.03 3.82,37.9 3.82,37.77 L 3.82 24 C 3.82,23.86 3.88,23.73 3.97,23.64 C 4.06,23.55 4.18,23.5 4.3,23.5 L 34.05 23.5 C 36.67,21.65 39.55,20.27 42.57,19.42 L 29.93 19.42 C 29.81,19.42 29.69,19.36 29.61,19.26 C 29.52,19.16 29.48,19.03 29.48,18.9 L 29.48 4.63 C 29.48,4.49 29.52,4.36 29.61,4.27 C 29.69,4.17 29.81,4.11 29.93,4.1 L 70.1 4.1 C 70.23,4.11 70.35,4.17 70.44,4.26 C 70.53,4.36 70.58,4.49 70.58,4.63 L 70.58 18.9 C 70.58,19.04 70.53,19.17 70.44,19.26 C 70.35,19.36 70.23,19.42 70.1,19.42 L 57.65 19.42 C 60.68,20.27 63.56,21.65 66.19,23.5 L 95.81 23.5 C 95.87,23.5 95.93,23.51 95.98,23.53 C 96.04,23.56 96.09,23.6 96.13,23.64 C 96.17,23.69 96.21,23.74 96.23,23.81 C 96.25,23.87 96.27,23.93 96.27,24 L 96.17 37.77 L 96.17 37.77 M 96.17 18.9 C 96.17,19.03 96.13,19.16 96.04,19.26 C 95.96,19.36 95.84,19.42 95.72,19.42 L 74.77 19.42 C 74.65,19.42 74.53,19.36 74.45,19.26 C 74.36,19.16 74.31,19.03 74.31,18.9 L 74.31 4.63 C 74.31,4.49 74.36,4.36 74.45,4.27 C 74.53,4.17 74.65,4.11 74.77,4.1 L 95.81 4.1 C 95.93,4.11 96.05,4.17 96.13,4.27 C 96.22,4.36 96.27,4.49 96.27,4.63 L 96.17 18.9 L 96.17 18.9" fill="#2d5967" stroke="none" stroke-width="0.5"/>
  </g>
  <g transform="translate(20.00,17.00) scale(0.4400,0.4400)">
    <path d="M 50.48 0 C 40.69,0 31.11,2.9 22.97,8.35 C 14.82,13.79 8.48,21.52 4.73,30.57 C 0.98,39.62 0,49.58 1.91,59.18 C 3.82,68.79 8.54,77.61 15.46,84.54 C 22.39,91.46 31.21,96.18 40.82,98.09 C 50.42,100 60.38,99.02 69.43,95.27 C 78.48,91.52 86.21,85.18 91.65,77.03 C 97.1,68.89 100,59.31 100,49.52 C 99.99,36.39 94.77,23.8 85.48,14.52 C 76.2,5.23 63.61,0.01 50.48,0 L 50.48 0 M 50.48 92.01 C 42.02,92.01 33.76,89.5 26.73,84.8 C 19.71,80.1 14.23,73.42 11.01,65.6 C 7.78,57.79 6.95,49.19 8.61,40.9 C 10.28,32.61 14.37,25.01 20.36,19.04 C 26.35,13.08 33.98,9.03 42.28,7.4 C 50.57,5.78 59.17,6.65 66.97,9.92 C 74.77,13.18 81.42,18.69 86.09,25.74 C 90.76,32.79 93.22,41.07 93.18,49.52 C 93.16,60.83 88.65,71.68 80.65,79.68 C 72.64,87.67 61.8,92.17 50.48,92.18 L 50.48 92.01 L 50.48 92.01" fill="#2d5967" stroke="none" stroke-width="0.5"/>
  </g>
  <g transform="translate(32.00,23.00) scale(0.2100,0.3300)">
    <path d="M 72.46 33.28 C 66.87,28.85 61.73,24.21 57.07,19.37 C 54.62,16.41 53.79,13.01 54.69,9.72 C 55.66,6.87 60.14,4.63 63.05,2.18 C 59.49,0.81 55.42,0.06 51.26,0 C 45.37,0.08 39.76,1.6 35.6,4.24 C 22.22,12.12 22.66,22.33 28.03,33.45 C 25.16,32.94 22.21,32.66 19.23,32.61 C 14.19,32.55 9.3,33.73 5.6,35.9 C 7.92,36.47 10,37.37 11.69,38.54 C 13.37,39.7 14.62,41.09 15.32,42.61 C 16.03,44.12 16.18,45.72 15.76,47.28 C 15.34,48.84 14.36,50.31 12.9,51.59 C 11.31,53.43 9.64,55.17 7.88,57.18 C 2.53,62.52 0,68.8 0.65,75.11 C 1.3,81.42 5.09,87.44 11.49,92.3 C 16.26,96.09 22.83,98.79 30.23,100 C 28.82,98.5 28.2,97.66 27.42,96.93 C 23,93.22 20.65,88.68 20.74,84.03 C 20.84,79.38 23.37,74.88 27.94,71.25 C 29.61,69.85 31.46,68.51 33.31,67.23 C 37.69,64.78 41.03,61.67 43.01,58.18 C 45,54.7 45.56,50.95 44.66,47.29 C 44.64,46.63 44.79,45.97 45.1,45.34 C 52.53,48.88 57.62,54.06 59.35,59.86 C 60.34,62.77 60.27,65.8 59.16,68.7 C 58.05,71.6 55.92,74.3 52.93,76.61 C 56.63,76.72 60.33,76.3 63.75,75.38 C 66.93,74.12 69.88,72.64 72.55,70.97 C 81.35,76.94 78.97,87.33 64.8,98.88 C 85.57,95.42 100,76.89 94.72,60.92 C 90.59,50.78 82.98,41.34 72.46,33.28 L 72.46 33.28" fill="#2d5967" stroke="none" stroke-width="0.5"/>
  </g>
</svg>