<svg xmlns="http://www.w3.org/2000/svg" viewBox="0 0 85.0 101.00000000000007" width="85" height="101">
  <g transform="translate(4.00,0.00) scale(0.8300,0.7400)">
    <path d="M 48.28 99.09 C 33.32,90.75 24.34,77.73 23.59,63.37 L 23.59 56.84 L 0 56.84 L 0.27 52.86 C 0.59,48.34 1.95,43.99 4.22,40.23 C 6.49,36.46 9.58,33.4 13.22,31.34 C 13.98,30.87 14.64,30.21 15.15,29.41 C 15.65,28.61 15.98,27.69 16.11,26.72 C 16.7,23.49 17.96,20.46 19.82,17.89 C 21.67,15.32 24.05,13.29 26.77,11.96 C 29.1,10.83 31.62,10.25 34.17,10.23 C 34.73,10.19 35.29,10.19 35.87,10.23 L 36.44 10.23 C 37.2,10.24 37.96,10.08 38.66,9.74 C 39.36,9.41 39.99,8.92 40.5,8.3 C 42.99,5.33 46.09,3.08 49.53,1.74 C 52.97,0.39 56.65,0 60.26,0.59 C 63.87,1.17 67.3,2.73 70.24,5.11 C 73.2,7.49 75.58,10.63 77.2,14.27 C 77.58,15.18 78.14,15.98 78.86,16.6 C 79.56,17.23 80.37,17.68 81.26,17.9 C 83.84,18.53 86.3,19.66 88.52,21.23 C 93.46,24.69 97.03,30.11 98.51,36.38 C 100,42.65 99.29,49.32 96.53,55.04 L 95.62 56.95 L 75.91 56.95 L 75.91 63.4 C 75.18,77.84 66.24,90.86 51.22,99.19 L 49.76 100 L 48.28 99.09 L 48.28 99.09" fill="#FFFFFF" stroke="none" stroke-width="0.5"/>
  </g>
  <g transform="translate(3.00,0.00) scale(0.8500,0.7600)">
    <path d="M 56.79 2.63 C 60.65,2.61 64.45,3.81 67.72,6.07 C 71.01,8.34 73.66,11.59 75.38,15.45 C 75.83,16.48 76.49,17.39 77.31,18.1 C 78.13,18.81 79.07,19.3 80.08,19.55 C 82.47,20.15 84.75,21.2 86.83,22.65 C 91.39,25.84 94.69,30.85 96.07,36.66 C 97.44,42.48 96.77,48.66 94.22,53.94 L 93.65 55.13 L 73.99 55.13 L 73.99 62.74 C 73.3,76.3 64.77,88.62 50.59,96.53 L 49.7 97.03 L 48.78 96.53 C 34.65,88.65 26.1,76.3 25.42,62.74 L 25.42 55.18 L 2.54 55.18 L 2.7 52.76 C 2.96,48.56 4.19,44.5 6.25,40.98 C 8.31,37.45 11.14,34.57 14.49,32.61 C 15.4,32.09 16.19,31.34 16.81,30.43 C 17.43,29.53 17.86,28.47 18.06,27.35 C 18.58,24.41 19.72,21.64 21.41,19.29 C 23.09,16.95 25.26,15.09 27.73,13.88 C 29.85,12.84 32.14,12.31 34.46,12.3 L 36.01 12.3 L 36.7 12.3 C 37.58,12.29 38.46,12.07 39.26,11.68 C 40.07,11.28 40.8,10.71 41.41,9.99 C 43.38,7.64 45.76,5.78 48.41,4.51 C 51.05,3.25 53.91,2.61 56.79,2.63 L 56.79 2.63 M 56.79 0 C 53.6,0.01 50.47,0.74 47.55,2.16 C 44.63,3.58 42.02,5.65 39.86,8.25 C 39.46,8.72 38.98,9.1 38.44,9.35 C 37.91,9.6 37.34,9.73 36.77,9.72 L 36.3 9.72 C 35.7,9.69 35.12,9.69 34.52,9.72 C 30.11,9.73 25.83,11.45 22.42,14.58 C 19.01,17.72 16.66,22.07 15.8,26.91 C 15.67,27.65 15.4,28.34 14.99,28.94 C 14.58,29.54 14.06,30.03 13.45,30.38 C 9.76,32.53 6.61,35.69 4.33,39.57 C 2.03,43.45 0.67,47.92 0.35,52.55 L 0.19 54.97 L 0 57.81 L 23.06 57.81 L 23.06 62.67 L 23.06 62.85 C 23.82,77.46 32.79,90.57 47.75,98.92 L 48.64 99.42 L 49.7 100 L 50.76 99.42 L 51.66 98.92 C 66.6,90.57 75.61,77.43 76.34,62.93 L 76.34 57.81 L 95.19 57.81 L 95.84 56.44 L 96.4 55.26 C 99.27,49.36 100,42.47 98.45,36 C 96.91,29.52 93.2,23.95 88.09,20.42 C 85.8,18.79 83.27,17.64 80.6,17 C 79.94,16.84 79.32,16.52 78.77,16.07 C 78.24,15.62 77.79,15.04 77.47,14.38 C 75.57,10.06 72.63,6.43 68.97,3.89 C 65.31,1.35 61.1,0 56.79,0 L 56.79 0" fill="#FFFFFF" stroke="none" stroke-width="0.5"/>
  </g>
  <g transform="translate(35.00,29.00) scale(0.2000,0.2000)">
    <path d="M 0 49.52 C 0,59.32 2.87,68.89 8.35,77.04 C 13.77,85.18 21.49,91.52 30.57,95.27 C 39.59,99.02 49.56,100 59.15,98.09 C 68.75,96.18 77.62,91.46 84.51,84.54 C 91.44,77.61 96.19,68.79 98.07,59.18 C 100,49.58 99.01,39.62 95.25,30.57 C 91.5,21.52 85.19,13.79 77,8.35 C 68.86,2.9 59.31,0 49.5,0 C 36.36,0 23.79,5.22 14.5,14.5 C 5.22,23.79 0,36.39 0,49.52 L 0 49.52 M 82.32 49.52 C 82.32,55.99 80.39,62.31 76.79,67.69 C 73.19,73.07 68.08,77.25 62.08,79.72 C 56.13,82.2 49.56,82.84 43.19,81.57 C 36.83,80.3 31.04,77.18 26.45,72.6 C 21.91,68.02 18.78,62.18 17.53,55.84 C 16.28,49.49 16.95,42.91 19.46,36.94 C 21.91,30.97 26.13,25.88 31.51,22.3 C 36.93,18.72 43.24,16.82 49.71,16.84 C 54.04,16.8 58.32,17.61 62.28,19.24 C 66.3,20.86 69.95,23.27 73.03,26.3 C 76.06,29.34 78.51,32.96 80.18,36.94 C 81.85,40.93 82.68,45.2 82.68,49.52 L 82.32 49.52 L 82.32 49.52" fill="#2d5967" stroke="none" stroke-width="0.5"/>
  </g>
  <g transform="translate(31.00,49.00) scale(0.2700,0.0700)">
    <path d="M 78.27 0.46 L 70.47 0.46 L 68.6 9.14 C 66.35,19.7 63.48,28.23 60.2,34.1 C 56.91,39.99 53.28,43.04 49.66,43.04 C 45.99,43.04 42.36,39.99 39.08,34.1 C 35.79,28.23 32.93,19.7 30.67,9.14 L 28.88 0.46 L 20.74 0.46 C 16.69,0.61 12.72,4.18 9.09,10.9 C 5.5,17.63 2.37,27.3 0,39.17 C 1.8,59.15 4.24,78.32 7.26,96.32 C 7.26,83.25 8.67,70.73 11.23,61.49 C 13.75,52.26 17.23,47.07 20.82,47.07 L 22.92 47.07 C 26.32,60.6 30.44,71.42 35.06,78.82 C 39.69,86.22 44.65,90.04 49.69,90.04 C 54.74,90.04 59.74,86.22 64.36,78.82 C 68.98,71.42 73.11,60.6 76.51,47.07 L 78.27 47.07 C 81.86,47.07 85.29,52.25 87.85,61.48 C 90.41,70.7 91.86,83.22 91.86,96.32 L 91.86 100 C 95.26,80.99 97.98,60.56 100,39.17 C 97.52,26.78 94.23,16.78 90.45,10.03 C 86.67,3.28 82.47,0 78.27,0.46 L 78.27 0.46" fill="#2d5967" stroke="none" stroke-width="0.5"/>
  </g>
  <g transform="translate(5.00,2.00) scale(0.8000,0.4000)">
    <path d="M 88.79 38.12 C 86.61,35.35 84.2,33.36 81.67,32.22 C 80.61,31.75 79.62,30.81 78.75,29.46 C 77.89,28.11 77.2,26.39 76.72,24.43 C 74.91,17.08 72.12,10.89 68.65,6.58 C 65.2,2.27 61.2,0 57.14,0.03 C 54.12,0.05 51.16,1.3 48.4,3.73 C 45.64,6.15 43.16,9.69 41.11,14.13 C 40.38,15.7 39.47,16.91 38.47,17.65 C 37.46,18.4 36.39,18.66 35.33,18.43 C 32.34,17.89 29.35,18.87 26.59,21.28 C 24,23.58 21.72,27.12 19.95,31.58 C 18.18,36.05 16.97,41.31 16.42,46.92 C 16.2,49.05 15.76,51.05 15.11,52.78 C 14.45,54.51 13.62,55.92 12.65,56.91 C 9.13,60.64 6.15,66.12 3.97,72.83 C 1.8,79.54 0.52,87.26 0.25,95.25 L 0 100 L 20.89 100 L 20.89 91.3 L 4.77 91.3 C 5.32,85.64 6.49,80.3 8.22,75.68 C 9.93,71.06 12.15,67.28 14.69,64.61 C 16.22,63.02 17.55,60.74 18.58,57.96 C 19.61,55.19 20.32,51.97 20.65,48.57 C 21.05,44.32 21.98,40.34 23.32,36.96 C 24.66,33.59 26.39,30.91 28.35,29.17 C 30.43,27.33 32.71,26.58 34.95,26.97 C 36.67,27.34 38.39,26.9 40,25.69 C 41.6,24.49 43.06,22.55 44.23,20.03 C 45.89,16.46 47.88,13.6 50.1,11.65 C 52.32,9.7 54.71,8.69 57.14,8.68 C 60.41,8.63 63.62,10.44 66.41,13.91 C 69.19,17.38 71.42,22.35 72.86,28.27 C 73.64,31.4 74.75,34.13 76.13,36.27 C 77.5,38.42 79.08,39.92 80.78,40.67 C 83.41,41.84 85.87,44.19 88,47.53 C 90.12,50.87 91.86,55.12 93.06,59.98 C 94.26,64.83 94.92,70.17 94.97,75.6 C 95.02,81.02 94.47,86.41 93.36,91.35 L 78.48 91.35 L 78.48 100 L 95.99 100 L 96.59 97.75 C 99.29,87.68 100,75.91 98.56,64.82 C 97.11,53.74 93.62,44.19 88.79,38.12 L 88.79 38.12" fill="#2d5967" stroke="none" stroke-width="0.5"/>
  </g>
  <g transform="translate(24.00,19.00) scale(0.4100,0.5400)">
    <path d="M 0 16.31 L 0 51.84 C 1.4,70.89 18.95,88.19 48.1,99.3 L 49.99 100 L 51.83 99.3 C 80.92,88.23 98.6,70.89 100,51.84 L 100 16.31 L 49.99 0 L 0 16.31 L 0 16.31 M 91.7 51.55 C 90.4,67.86 75.25,82.84 49.99,92.92 C 24.73,82.84 9.58,67.86 8.33,51.55 L 8.33 20.48 L 49.99 6.9 L 91.7 20.48 L 91.7 51.55 L 91.7 51.55" fill="#2d5967" stroke="none" stroke-width="0.5"/>
  </g>
</svg>