<svg xmlns="http://www.w3.org/2000/svg" viewBox="0 0 56.0 109.00000000000027" width="56" height="109">
  <g transform="translate(22.00,1.00) scale(0.5400,0.8200)">
    <path d="M 47.79 99.27 C 18.75,89.78 1.47,74.7 0,58.15 L 0 27.49 L 19.12 22.14 C 19.12,21.65 19.12,21.17 19.12,20.44 C 19.12,9.25 32.72,0 50,0 C 67.28,0 80.88,9.25 80.88,20.44 C 80.88,20.92 80.88,21.41 80.88,22.14 L 100 27.49 L 100 58.15 C 98.53,74.7 81.25,89.78 52.21,99.27 L 50 100 L 47.79 99.27 L 47.79 99.27" fill="#FFFFFF" stroke="none" stroke-width="0.5"/>
  </g>
  <g transform="translate(21.00,0.00) scale(0.5600,0.8400)">
    <path d="M 50.36 2.38 C 65.72,2.38 78.57,10.69 78.57,21.14 C 78.57,21.85 78.57,22.8 78.22,23.52 L 97.14 28.98 L 97.14 58.19 C 95.71,73.87 79.29,88.12 51.79,97.39 L 50.36 97.39 L 49.29 96.91 C 21.43,87.89 5,73.63 3.57,57.96 L 3.57 28.74 L 22.5 23.28 C 22.5,22.57 22.14,21.62 22.14,20.9 C 22.14,10.69 34.64,2.38 50.36,2.38 L 50.36 2.38 M 50.36 0 C 32.86,0 18.57,9.5 18.57,21.14 C 18.57,21.38 18.57,21.62 18.57,22.09 L 2.14 26.84 L 0 27.08 L 0 28.74 L 0 57.72 L 0 57.96 C 1.43,74.58 18.57,89.55 47.5,99.05 L 48.57 99.53 L 50 100 L 51.43 99.53 L 52.5 99.05 C 81.43,89.55 98.57,74.58 100,57.96 L 100 28.74 L 100 27.08 L 97.86 26.37 L 81.43 21.62 C 81.43,21.38 81.43,21.14 81.43,20.67 C 81.79,9.5 67.86,0 50.36,0 L 50.36 0" fill="#FFFFFF" stroke="none" stroke-width="0.5"/>
  </g>
  <g transform="translate(23.00,2.00) scale(0.5200,0.8000)">
    <path d="M 80.08 22 C 80.08,21.25 80.46,20.5 80.46,19.5 C 80.46,8.75 67.05,0 50.19,0 C 33.33,0 19.92,8.75 19.92,19.75 C 19.92,20.5 19.92,21.5 20.31,22.25 L 0 27.75 L 0 58.25 C 1.53,75 19.16,90 48.66,99.5 L 49.81 100 L 50.96 99.5 C 80.84,90 98.85,75 100,58.5 L 100 27.75 L 80.08 22 L 80.08 22 M 25.67 19.75 C 25.67,11 36.78,3.75 50.19,3.75 C 63.6,3.75 74.71,11 74.71,19.75 C 74.71,20 74.71,20.25 74.71,20.75 L 50.19 14 L 25.67 20.5 C 25.67,20.25 25.67,20 25.67,19.75 L 25.67 19.75 M 94.25 58.25 C 92.72,73.25 76.63,86.75 49.81,95.75 C 22.99,86.75 6.9,73 5.36,58.25 L 5.36 30.25 L 49.81 17.75 L 94.25 30.25 L 94.25 58.25 L 94.25 58.25" fill="#2d5967" stroke="none" stroke-width="0.5"/>
  </g>
  <g transform="translate(43.00,35.00) scale(0.1000,0.2000)">
    <path d="M 0 26.21 C 0,35.92 11.32,44.66 28.3,48.54 L 35.86 50.48 L 22.64 100 L 77.36 100 L 64.15 50.48 L 66.04 49.51 C 84.91,45.63 100,36.89 100,25.24 C 100,11.65 77.36,0 50.95,0 C 24.53,0 0,12.62 0,26.21 L 0 26.21" fill="#2d5967" stroke="none" stroke-width="0.5"/>
  </g>
</svg>