<svg xmlns="http://www.w3.org/2000/svg" viewBox="0 0 85.0 126.00000000000007" width="85" height="126">
  <g transform="translate(4.00,0.00) scale(0.8300,0.7900)">
    <path d="M 68.4 94.69 C 65.54,91.65 62.9,88.41 60.47,84.98 L 53.97 75.5 C 50.25,77.44 46.13,78.38 41.97,78.23 C 37.82,78.07 33.76,76.83 30.18,74.61 C 26.6,72.39 23.6,69.27 21.48,65.52 C 19.35,61.78 18.14,57.53 17.97,53.17 L 0 53.17 L 0.25 49.53 C 0.56,45.27 1.89,41.16 4.13,37.59 C 6.38,34.01 9.46,31.1 13.07,29.13 C 13.86,28.7 14.54,28.09 15.08,27.35 C 15.61,26.61 15.97,25.75 16.14,24.84 C 16.96,20.46 19.21,16.52 22.49,13.69 C 25.77,10.86 29.88,9.31 34.13,9.31 C 34.71,9.31 35.29,9.31 35.85,9.31 L 36.44 9.31 C 37.21,9.32 37.97,9.16 38.68,8.84 C 39.38,8.52 40.02,8.05 40.54,7.46 C 42.66,5.1 45.21,3.22 48.05,1.94 C 50.9,0.66 53.96,0.01 57.05,0.02 C 61.23,0 65.32,1.22 68.88,3.52 C 72.44,5.83 75.3,9.14 77.16,13.07 C 77.56,13.92 78.14,14.66 78.85,15.24 C 79.56,15.82 80.4,16.22 81.28,16.42 C 83.86,17.03 86.32,18.1 88.56,19.57 C 93.48,22.85 97.03,27.96 98.51,33.87 C 100,39.78 99.3,46.06 96.56,51.45 L 95.64 53.22 L 67.75 53.22 C 67.61,56.89 66.73,60.49 65.18,63.78 L 74.18 70.57 C 77.45,73.12 80.54,75.91 83.42,78.92 L 88.51 84.23 L 73.48 100 L 68.4 94.69 L 68.4 94.69" fill="#FFFFFF" stroke="none" stroke-width="0.5"/>
  </g>
  <g transform="translate(3.00,0.00) scale(0.8500,0.8100)">
    <path d="M 56.9 2.37 C 60.77,2.36 64.57,3.49 67.85,5.62 C 71.14,7.75 73.8,10.8 75.51,14.43 C 75.98,15.41 76.65,16.27 77.48,16.94 C 78.31,17.61 79.27,18.08 80.3,18.3 C 82.7,18.85 84.99,19.83 87.07,21.2 C 91.64,24.23 94.94,28.94 96.32,34.4 C 97.69,39.87 97.05,45.67 94.49,50.66 L 93.91 51.76 L 66.24 51.76 L 66.24 51.93 C 66.24,56.01 65.26,60.03 63.4,63.61 L 72.94 70.81 C 76.08,73.25 79.06,75.92 81.84,78.81 L 85.98 83.15 L 72.92 96.77 L 68.77 92.42 C 66.02,89.53 63.47,86.44 61.14,83.17 L 54.17 73.17 C 50.63,75.18 46.66,76.2 42.64,76.12 C 38.64,76.05 34.7,74.88 31.24,72.74 C 27.78,70.6 24.91,67.56 22.92,63.91 C 20.93,60.26 19.88,56.13 19.86,51.93 L 19.86 51.81 L 2.43 51.81 L 2.59 49.45 C 2.87,45.51 4.11,41.7 6.19,38.39 C 8.28,35.09 11.13,32.4 14.49,30.57 C 15.4,30.07 16.19,29.36 16.81,28.49 C 17.43,27.63 17.85,26.63 18.05,25.57 C 18.57,22.79 19.73,20.19 21.43,17.98 C 23.11,15.77 25.29,14.02 27.75,12.87 C 29.9,11.91 32.2,11.41 34.53,11.41 C 35.04,11.41 35.56,11.41 36.09,11.41 L 36.76 11.41 C 37.66,11.45 38.55,11.3 39.39,10.96 C 40.22,10.63 40.98,10.11 41.61,9.45 C 43.56,7.24 45.92,5.47 48.55,4.25 C 51.18,3.03 54.02,2.39 56.9,2.37 L 56.9 2.37 M 56.9 0.01 C 53.72,0.01 50.57,0.7 47.67,2.03 C 44.75,3.36 42.13,5.3 39.96,7.73 C 39.57,8.18 39.07,8.55 38.52,8.79 C 37.98,9.03 37.38,9.15 36.79,9.15 L 36.32 9.15 C 35.72,9.15 35.14,9.15 34.55,9.15 C 30.14,9.12 25.86,10.69 22.43,13.6 C 19.02,16.51 16.66,20.58 15.79,25.1 C 15.68,25.8 15.42,26.46 15.04,27.04 C 14.64,27.62 14.13,28.1 13.54,28.45 C 9.81,30.46 6.65,33.43 4.34,37.08 C 2.02,40.73 0.65,44.94 0.33,49.31 L 0.19 51.67 L 0 54.12 L 17.69 54.12 C 18.23,60.77 21.14,66.97 25.83,71.48 C 30.53,76 36.67,78.5 43.06,78.5 C 46.66,78.5 50.22,77.69 53.51,76.14 L 59.31 84.57 C 61.72,87.89 64.35,91.04 67.16,94.01 L 71.32 98.35 L 72.92 100 L 74.52 98.35 L 87.59 84.69 L 89.17 83.01 L 87.59 81.33 L 83.5 77.11 C 80.68,74.15 77.67,71.4 74.48,68.87 L 66.44 62.83 C 67.63,60.08 68.35,57.13 68.59,54.12 L 95.24 54.12 L 95.87 52.9 L 96.45 51.79 C 99.28,46.28 100,39.86 98.49,33.82 C 96.96,27.78 93.31,22.57 88.26,19.22 C 85.97,17.7 83.42,16.6 80.77,15.99 C 80.09,15.83 79.43,15.51 78.87,15.06 C 78.31,14.61 77.87,14.03 77.54,13.37 C 75.65,9.35 72.69,5.97 69.04,3.61 C 65.4,1.24 61.19,0 56.9,0.01 L 56.9 0.01" fill="#FFFFFF" stroke="none" stroke-width="0.5"/>
  </g>
  <g transform="translate(5.00,1.00) scale(0.8100,0.4000)">
    <path d="M 88.87 38.15 C 86.7,35.37 84.29,33.39 81.76,32.29 C 80.69,31.83 79.67,30.89 78.8,29.53 C 77.94,28.18 77.22,26.45 76.74,24.46 C 74.94,17.12 72.17,10.94 68.72,6.61 C 65.26,2.29 61.28,0 57.21,0 C 54.19,0.05 51.21,1.34 48.44,3.8 C 45.68,6.26 43.21,9.84 41.16,14.31 C 40.42,15.84 39.52,17.01 38.51,17.72 C 37.51,18.43 36.43,18.67 35.37,18.41 C 31.01,17.55 26.64,20.01 23.14,25.31 C 19.64,30.6 17.24,38.35 16.42,47.02 C 16.21,49.16 15.75,51.17 15.1,52.91 C 14.45,54.65 13.62,56.08 12.65,57.08 C 9.12,60.77 6.12,66.21 3.93,72.88 C 1.75,79.56 0.46,87.26 0.16,95.23 L 0 100 L 14.93 100 C 14.93,97.13 15.04,94.26 15.26,91.42 L 4.73 91.42 C 5.29,85.75 6.48,80.41 8.2,75.79 C 9.92,71.17 12.12,67.38 14.67,64.71 C 16.2,63.12 17.52,60.85 18.57,58.08 C 19.6,55.3 20.31,52.09 20.64,48.69 C 21.28,42.2 23.07,36.42 25.71,32.44 C 28.33,28.47 31.58,26.58 34.85,27.13 C 36.57,27.5 38.32,27.05 39.93,25.84 C 41.56,24.62 43.01,22.67 44.2,20.13 C 46.12,15.87 48.53,12.63 51.22,10.67 C 53.92,8.71 56.79,8.11 59.62,8.9 C 62.46,9.69 65.15,11.87 67.48,15.23 C 69.8,18.59 71.67,23.03 72.95,28.18 C 73.72,31.31 74.84,34.05 76.21,36.19 C 77.58,38.34 79.17,39.84 80.86,40.58 C 82.89,41.48 84.85,43.09 86.59,45.35 C 90.29,50.05 93.03,57.28 94.29,65.7 C 95.56,74.13 95.27,83.2 93.47,91.23 L 70.07 91.23 C 70.29,94.07 70.41,96.94 70.41,99.81 L 96.05 99.81 L 96.66 97.57 C 99.34,87.51 100,75.8 98.57,64.78 C 97.12,53.77 93.65,44.25 88.87,38.15 L 88.87 38.15" fill="#2d5967" stroke="none" stroke-width="0.5"/>
  </g>
  <g transform="translate(19.00,22.00) scale(0.5600,0.5600)">
    <path d="M 55.78 55.88 C 53.12,58.57 49.94,60.7 46.46,62.15 C 42.97,63.6 39.22,64.35 35.43,64.35 C 31.64,64.35 27.89,63.6 24.4,62.15 C 20.91,60.7 17.72,58.57 15.06,55.88 C 11.21,52.06 8.53,47.2 7.37,41.9 L 13.54 48.08 L 28.17 33.45 L 44.14 49.43 L 46.32 47.26 L 81.92 11.77 L 81.92 17.84 L 88.02 17.84 L 88.02 0.87 L 71.23 0.87 L 71.23 6.98 L 78.02 6.98 L 44.31 40.68 L 41.1 37.29 L 28.34 24.56 L 13.71 39.22 L 6.92 32.43 C 7.52,27.05 9.61,21.95 12.99,17.71 C 16.34,13.47 20.84,10.26 25.93,8.46 C 31.04,6.66 36.55,6.33 41.83,7.51 C 47.11,8.7 51.94,11.35 55.78,15.16 C 57.05,16.41 58.19,17.79 59.18,19.27 L 63.6 14.89 C 62.57,13.45 61.44,12.1 60.21,10.85 C 55.63,6.25 49.87,3.02 43.58,1.51 C 37.28,0 30.67,0.28 24.51,2.31 C 18.36,4.34 12.89,8.04 8.73,13.01 C 4.57,17.97 1.87,24 0.93,30.41 C 0,36.82 0.86,43.37 3.45,49.31 C 6.03,55.26 10.21,60.37 15.52,64.07 C 20.84,67.77 27.09,69.92 33.56,70.27 C 40.02,70.63 46.47,69.17 52.16,66.06 L 62.54 80.49 C 66.04,85.18 69.89,89.63 74.01,93.79 L 80.35 100 L 100 80.35 L 93.77 74.11 C 89.59,69.98 85.11,66.16 80.39,62.67 L 66.04 52.32 C 69.72,45.55 71.08,37.77 69.91,30.16 L 64.2 35.86 C 64.16,43.38 61.14,50.58 55.78,55.88 L 55.78 55.88 M 76.79 67.62 C 81.27,70.93 85.52,74.55 89.5,78.45 L 91.38 80.35 L 80.39 91.35 L 78.49 89.45 C 74.57,85.5 70.93,81.28 67.59,76.82 L 57.43 62.6 C 58.4,61.83 59.33,61 60.21,60.13 C 61.12,59.21 61.94,58.29 62.71,57.34 L 76.79 67.62 L 76.79 67.62" fill="#2d5967" stroke="none" stroke-width="0.5"/>
  </g>
</svg>