<svg xmlns="http://www.w3.org/2000/svg" viewBox="0 0 85.0 120.00000000000001" width="85" height="120">
  <g transform="translate(0.00,0.00) scale(0.8300,0.7400)">
    <path d="M 26.79 100 L 26.79 57.23 L 0 57.23 L 0.24 53.42 C 0.52,48.85 1.85,44.44 4.09,40.61 C 6.33,36.78 9.42,33.66 13.03,31.55 C 13.83,31.09 14.53,30.43 15.06,29.63 C 15.61,28.82 15.98,27.89 16.15,26.91 C 16.98,22.24 19.22,18.04 22.5,15.02 C 25.77,11.99 29.88,10.34 34.13,10.34 C 34.69,10.3 35.25,10.3 35.82,10.34 L 36.42 10.34 C 37.2,10.35 37.98,10.17 38.69,9.83 C 39.4,9.49 40.05,8.98 40.58,8.34 C 43.05,5.36 46.14,3.1 49.57,1.75 C 53,0.4 56.67,0 60.26,0.59 C 63.85,1.18 67.26,2.74 70.21,5.14 C 73.14,7.53 75.52,10.69 77.13,14.34 C 77.54,15.26 78.14,16.06 78.86,16.69 C 79.58,17.31 80.42,17.75 81.31,17.97 C 83.89,18.62 86.35,19.75 88.59,21.32 C 93.49,24.82 97.04,30.26 98.53,36.57 C 100,42.88 99.3,49.59 96.56,55.34 L 95.67 57.21 L 78.34 57.21 C 78.34,64.96 78.34,68.36 78.11,69.84 L 78.3 69.84 C 78.23,71.84 77.86,73.82 77.2,75.68 L 81.53 79.15 C 83.45,80.76 85.28,82.53 86.98,84.42 L 90.81 88.73 L 82.83 97.69 L 80.66 99.95 L 26.79 100 L 26.79 100" fill="#FFFFFF" stroke="none" stroke-width="0.5"/>
  </g>
  <g transform="translate(0.00,0.00) scale(0.8500,0.7500)">
    <path d="M 56.91 2.4 C 60.81,2.38 64.62,3.59 67.93,5.89 C 71.23,8.19 73.91,11.48 75.63,15.4 C 76.1,16.46 76.77,17.39 77.62,18.12 C 78.45,18.84 79.43,19.35 80.46,19.59 C 82.87,20.18 85.16,21.25 87.23,22.73 C 91.81,25.98 95.12,31.07 96.51,36.96 C 97.89,42.86 97.23,49.12 94.67,54.48 L 94.09 55.7 L 76.66 55.7 L 76.66 69.24 C 76.6,71.38 76.14,73.48 75.31,75.41 L 80.22 79.38 C 82.07,80.92 83.81,82.61 85.43,84.43 L 88.42 87.79 L 81.36 95.74 L 79.57 97.6 L 28.4 97.6 L 28.4 55.7 L 2.28 55.7 L 2.43 53.32 C 2.7,49.05 3.95,44.93 6.04,41.35 C 8.13,37.77 11,34.85 14.38,32.87 C 15.3,32.33 16.1,31.57 16.72,30.64 C 17.34,29.71 17.78,28.63 17.98,27.49 C 18.51,24.5 19.67,21.69 21.36,19.31 C 23.05,16.93 25.24,15.04 27.72,13.8 C 29.85,12.75 32.16,12.21 34.49,12.21 C 35.01,12.17 35.53,12.17 36.05,12.21 L 36.74 12.21 C 37.66,12.21 38.55,12 39.39,11.59 C 40.22,11.18 40.98,10.58 41.6,9.83 C 43.57,7.48 45.94,5.6 48.57,4.33 C 51.2,3.05 54.04,2.39 56.91,2.4 L 56.91 2.4 M 56.91 0.02 C 53.73,0.01 50.6,0.75 47.68,2.17 C 44.76,3.6 42.13,5.68 39.98,8.3 C 39.55,8.81 39.03,9.21 38.46,9.48 C 37.89,9.75 37.27,9.89 36.65,9.87 L 36.19 9.87 C 35.6,9.87 35,9.87 34.4,9.87 C 30.02,9.9 25.77,11.62 22.38,14.76 C 19,17.9 16.67,22.25 15.82,27.09 C 15.68,27.88 15.38,28.62 14.95,29.27 C 14.52,29.91 13.96,30.43 13.31,30.8 C 9.62,32.96 6.48,36.15 4.19,40.07 C 1.9,43.99 0.55,48.5 0.25,53.18 L 0.09 55.56 L 0 58.08 L 26.28 58.08 L 26.28 100 L 80.46 100 L 81.05 99.36 L 82.85 97.5 L 89.96 89.5 L 91.46 87.81 L 89.96 86.14 L 86.81 82.74 C 85.11,80.85 83.3,79.09 81.39,77.48 L 77.82 74.58 C 78.31,72.88 78.6,71.12 78.68,69.34 C 78.68,68.29 78.68,66.34 78.68,62.46 L 78.68 58.08 L 95.29 58.08 L 95.87 56.82 L 96.44 55.63 C 99.27,49.73 100,42.85 98.49,36.37 C 96.99,29.89 93.35,24.29 88.31,20.71 C 86.02,19.09 83.5,17.92 80.86,17.25 C 80.14,17.08 79.47,16.72 78.88,16.21 C 78.31,15.7 77.84,15.05 77.52,14.3 C 75.61,10 72.67,6.38 69.03,3.85 C 65.38,1.33 61.19,0 56.91,0.02 L 56.91 0.02" fill="#FFFFFF" stroke="none" stroke-width="0.5"/>
  </g>
  <g transform="translate(1.00,1.00) scale(0.8100,0.4000)">
    <path d="M 88.85 38.49 C 86.68,35.74 84.31,33.75 81.8,32.63 C 80.72,32.17 79.72,31.23 78.85,29.87 C 77.98,28.52 77.28,26.79 76.79,24.81 C 75.21,18.47 72.89,12.99 70.02,8.85 C 67.15,4.7 63.82,2.01 60.31,1 C 56.81,0 53.23,0.71 49.91,3.08 C 46.57,5.45 43.57,9.4 41.17,14.6 C 40.43,16.19 39.53,17.41 38.52,18.18 C 37.52,18.95 36.43,19.25 35.36,19.04 C 31.01,18.21 26.66,20.65 23.16,25.89 C 19.65,31.12 17.25,38.78 16.42,47.37 C 16.21,49.51 15.76,51.52 15.11,53.25 C 14.46,54.99 13.61,56.41 12.65,57.41 C 9.12,61.1 6.12,66.55 3.92,73.23 C 1.74,79.9 0.44,87.59 0.16,95.56 L 0 100 L 24.16 100 L 24.16 91.43 L 4.68 91.43 C 5.22,85.78 6.4,80.44 8.12,75.83 C 9.83,71.22 12.06,67.44 14.6,64.78 C 16.13,63.2 17.46,60.94 18.5,58.18 C 19.52,55.42 20.24,52.23 20.56,48.84 C 21.2,42.33 23.02,36.53 25.67,32.56 C 28.32,28.59 31.62,26.75 34.92,27.39 C 36.63,27.74 38.37,27.29 39.98,26.07 C 41.61,24.85 43.06,22.9 44.25,20.37 C 46.18,16.19 48.6,13.01 51.29,11.11 C 53.98,9.21 56.85,8.64 59.66,9.45 C 62.48,10.26 65.17,12.43 67.49,15.77 C 69.78,19.11 71.65,23.53 72.93,28.63 C 73.71,31.75 74.81,34.48 76.19,36.61 C 77.55,38.75 79.15,40.24 80.85,40.98 C 82.89,41.87 84.83,43.48 86.59,45.73 C 90.3,50.41 93.02,57.61 94.28,66.01 C 95.56,74.4 95.26,83.43 93.47,91.43 L 81.05 91.43 L 81.05 100 L 96.04 100 L 96.64 97.74 C 99.31,87.72 100,76.04 98.56,65.05 C 97.12,54.05 93.65,44.57 88.85,38.49 L 88.85 38.49" fill="#2d5967" stroke="none" stroke-width="0.5"/>
  </g>
  <g transform="translate(24.00,21.00) scale(0.4100,0.5200)">
    <path d="M 99.9 18.03 L 77.07 0 L 0 0 L 0 100 L 97.05 100 L 95.4 98.65 C 93.22,96.96 91.17,95.18 89.27,93.32 L 8.47 93.32 L 8.47 6.57 L 69.01 6.57 L 69.01 25.09 L 91.5 25.09 L 91.5 34.74 C 93.07,35.61 94.53,36.58 95.87,37.65 C 97.41,38.84 98.79,40.15 100,41.56 L 99.9 18.03 L 99.9 18.03 M 77.43 9.65 L 88.65 18.51 L 77.43 18.51 L 77.43 9.65 L 77.43 9.65" fill="#2d5967" stroke="none" stroke-width="0.5"/>
  </g>
  <g transform="translate(32.00,46.00) scale(0.0700,0.0300)">
    <path d="M 0 0 L 0 100 L 87.1 100 C 89.59,65.73 93.84,32.2 100,0 L 0 0 L 0 0" fill="#2d5967" stroke="none" stroke-width="0.5"/>
  </g>
  <g transform="translate(32.00,62.00) scale(0.1700,0.0300)">
    <path d="M 63.29 0 L 0 0 L 0 100 L 100 100 C 86.22,82.24 73.61,47.87 63.29,0 L 63.29 0" fill="#2d5967" stroke="none" stroke-width="0.5"/>
  </g>
  <g transform="translate(32.00,54.00) scale(0.0700,0.0300)">
    <path d="M 0 100 L 100 100 C 92.75,68.27 87.59,34.67 84.52,0 L 0 0 L 0 100 L 0 100" fill="#2d5967" stroke="none" stroke-width="0.5"/>
  </g>
  <g transform="translate(32.00,38.00) scale(0.1500,0.0300)">
    <path d="M 66.85 100 C 67.41,97.4 68.04,94.27 68.75,91.67 C 77.65,52.41 88.3,21.25 100,0 L 0 0 L 0 100 L 66.85 100 L 66.85 100" fill="#2d5967" stroke="none" stroke-width="0.5"/>
  </g>
  <g transform="translate(41.00,39.00) scale(0.3400,0.3400)">
    <path d="M 67.41 50.85 C 70.99,43.36 71.79,34.86 69.69,26.84 C 67.59,18.81 62.72,11.79 55.96,7.01 C 49.17,2.23 40.93,0 32.65,0.71 C 24.41,1.43 16.67,5.04 10.8,10.92 C 4.97,16.79 1.36,24.54 0.68,32.81 C 0,41.07 2.25,49.31 7.07,56.07 C 11.85,62.83 18.89,67.67 26.91,69.75 C 34.94,71.82 43.46,70.98 50.93,67.39 L 59.72 79.67 C 63.12,84.21 66.82,88.51 70.83,92.52 L 78.3 100 L 100 78.24 L 92.59 70.82 C 88.52,66.77 84.17,63.04 79.57,59.65 L 67.41 50.85 L 67.41 50.85 M 17.78 53.38 C 13.67,49.26 11.11,43.84 10.52,38.04 C 9.97,32.24 11.42,26.42 14.66,21.58 C 17.9,16.74 22.72,13.17 28.27,11.47 C 33.86,9.78 39.85,10.08 45.22,12.31 C 50.62,14.54 55.06,18.56 57.81,23.7 C 60.56,28.84 61.42,34.77 60.28,40.48 C 59.14,46.2 56.08,51.34 51.57,55.04 C 47.07,58.73 41.42,60.75 35.59,60.75 C 32.28,60.76 29.01,60.11 25.96,58.85 C 22.9,57.58 20.12,55.72 17.78,53.38 L 17.78 53.38 M 85.59 77.98 L 85.9 77.98 L 78.52 85.41 L 78.21 85.09 C 74.51,81.52 71.05,77.71 67.87,73.66 L 59.23 61.75 C 59.66,61.33 60.09,60.96 60.46,60.54 L 61.67 59.28 L 73.46 67.81 C 77.75,70.9 81.79,74.3 85.59,77.98 L 85.59 77.98" fill="#2d5967" stroke="none" stroke-width="0.5"/>
  </g>
  <g transform="translate(49.00,47.00) scale(0.0800,0.0900)">
    <path d="M 100 61.4 L 100 38.2 L 0 0 L 0 29.4 L 61.73 49.61 L 0 70.4 L 0 100 L 100 61.4 L 100 61.4" fill="#2d5967" stroke="none" stroke-width="0.5"/>
  </g>
</svg>