<svg xmlns="http://www.w3.org/2000/svg" viewBox="0 0 86.0 108.00000000000004" width="86" height="108">
  <g transform="translate(0.00,0.00) scale(0.8400,0.8100)">
    <path d="M 29.54 99.03 L 26.28 98.06 L 22.56 94.19 L 4.88 94.19 C 2.33,94.19 0,92.01 0,89.1 L 0 5.08 C 0,2.42 2.09,0 4.88,0 L 85.58 0 C 88.37,0 90.46,2.18 90.46,5.08 L 90.46 27.85 C 100,39.47 100,56.9 90.46,68.77 L 90.46 89.1 C 90.46,92.01 88.37,94.19 85.58,94.19 L 35.81 94.19 L 30.23 100 L 29.54 99.03 L 29.54 99.03" fill="#FFFFFF" stroke="none" stroke-width="0.5"/>
  </g>
  <g transform="translate(0.00,0.00) scale(0.8600,0.8300)">
    <path d="M 84.58 2.34 C 86.62,2.34 88.21,3.98 88.21,6.09 L 88.21 28.57 C 97.51,39.58 97.51,56.21 88.21,67.21 L 88.21 87.35 C 88.21,89.46 86.62,91.1 84.58,91.1 L 35.37 91.1 L 30.61 96.02 L 27.44 94.85 L 23.58 90.87 L 5.9 90.87 C 3.85,90.87 2.27,89.23 2.27,87.12 L 2.27 6.09 C 2.27,3.98 3.85,2.34 5.9,2.34 L 84.58 2.34 L 84.58 2.34 M 84.58 0 L 5.9 0 C 2.72,0 0,2.81 0,6.09 L 0 87.35 C 0,90.63 2.72,93.44 5.9,93.44 L 22.68 93.44 L 25.85 96.72 L 26.3 97.19 L 26.76 97.42 L 29.25 98.36 L 30.39 100 L 32.43 98.13 L 36.73 93.91 L 84.81 93.91 C 87.98,93.91 90.7,91.1 90.7,87.82 L 90.7 67.92 C 100,56.21 100,39.11 90.7,27.63 L 90.7 6.09 C 90.48,2.81 87.76,0 84.58,0 L 84.58 0" fill="#FFFFFF" stroke="none" stroke-width="0.5"/>
  </g>
  <g transform="translate(32.00,58.00) scale(0.4200,0.1700)">
    <path d="M 93.55 81.61 C 93.55,82.76 93.09,83.91 92.63,83.91 L 6.45 83.91 C 5.99,85.06 5.53,86.21 5.07,87.35 L 0 100 L 92.63 100 C 96.77,100 100,91.96 100,81.61 L 100 0 C 98.16,4.6 95.85,9.2 93.55,13.8 L 93.55 81.61 L 93.55 81.61" fill="#2d5967" stroke="none" stroke-width="0.5"/>
  </g>
  <g transform="translate(1.00,1.00) scale(0.7400,0.7400)">
    <path d="M 19.52 98.42 L 19.26 97.89 L 18.73 96.31 L 4.22 96.31 C 3.96,96.31 3.69,96.04 3.69,95.78 L 3.69 4.22 C 3.69,3.96 3.96,3.69 4.22,3.69 L 95.78 3.69 C 96.04,3.69 96.31,3.96 96.31,4.22 L 96.31 22.43 C 97.63,23.48 98.95,24.54 100,25.59 L 100 4.49 C 100,2.11 98.15,0.26 95.78,0.26 L 4.22 0.26 C 1.85,0 0,1.85 0,4.22 L 0 95.78 C 0,98.15 1.85,100 4.22,100 L 21.11 100 L 20.05 98.94 L 19.52 98.42 L 19.52 98.42" fill="#2d5967" stroke="none" stroke-width="0.5"/>
  </g>
  <g transform="translate(7.00,8.00) scale(0.0300,0.0800)">
    <path d="M 50 100 L 100 100 L 100 0 L 65 0 L 0 20.46 L 0 34.09 L 50 25 L 50 100 L 50 100" fill="#2d5967" stroke="none" stroke-width="0.5"/>
  </g>
  <g transform="translate(14.00,14.00) scale(0.0100,0.0100)">
    <path d="M 100 0 L 0 0 L 0 100 L 100 100 L 100 0 L 100 0" fill="#2d5967" stroke="none" stroke-width="0.5"/>
  </g>
  <g transform="translate(14.00,10.00) scale(0.0100,0.0100)">
    <path d="M 100 0 L 0 0 L 0 100 L 100 100 L 100 0 L 100 0" fill="#2d5967" stroke="none" stroke-width="0.5"/>
  </g>
  <g transform="translate(19.00,7.00) scale(0.0800,0.0800)">
    <path d="M 24.39 100 L 48.78 62.22 L 73.17 100 L 100 100 L 65.85 48.89 L 97.57 0 L 70.74 0 L 48.78 35.56 L 26.83 0 L 0 0 L 31.7 48.89 L 0 100 L 24.39 100 L 24.39 100" fill="#2d5967" stroke="none" stroke-width="0.5"/>
  </g>
  <g transform="translate(29.00,7.00) scale(0.0700,0.0900)">
    <path d="M 52.5 0 C 35,0 22.49,4.35 15,13.04 C 4.99,21.74 0,34.78 0,50 C 0,65.22 4.99,78.26 12.51,86.96 C 22.49,95.65 35,100 49.99,100 C 67.49,100 80,95.65 87.49,86.96 C 97.5,78.26 100,65.22 100,50 C 100,34.78 94.99,21.74 87.49,13.04 C 82.5,4.35 70,0 52.5,0 L 52.5 0 M 75 76.09 C 70,82.61 62.5,84.78 55,84.78 C 47.5,84.78 37.5,80.44 32.49,76.09 C 27.5,71.74 25,63.04 25,52.17 C 25,41.3 27.5,32.61 32.49,28.26 C 37.5,21.74 45,19.56 52.5,19.56 C 59.99,19.56 67.49,21.74 72.5,28.26 C 77.49,34.78 80,41.3 80,52.17 C 80,60.87 77.49,69.56 75,76.09 L 75 76.09" fill="#2d5967" stroke="none" stroke-width="0.5"/>
  </g>
  <g transform="translate(40.00,7.00) scale(0.0700,0.0800)">
    <path d="M 100 0 L 72.5 0 L 50.01 33.33 L 27.5 0 L 0 0 L 32.51 48.89 L 0 100 L 25.01 100 C 25.01,100 27.5,100 27.5,97.78 L 50.01 62.22 L 62.5 80 C 70.01,77.78 77.51,73.33 85,71.11 L 70.01 46.67 L 100 0 L 100 0" fill="#2d5967" stroke="none" stroke-width="0.5"/>
  </g>
  <g transform="translate(51.00,7.00) scale(0.0800,0.0500)">
    <path d="M 85.37 22.22 C 75.61,7.41 63.41,0 48.79,0 C 31.71,0 19.51,7.41 12.2,22.22 C 2.44,37.04 0,59.26 0,85.18 C 0,92.59 0,96.3 0,100 C 4.89,100 12.2,96.3 21.96,96.3 C 21.96,92.59 21.96,88.89 21.96,88.89 C 21.96,70.37 24.4,55.55 29.27,48.15 C 34.14,37.04 41.47,33.33 48.79,33.33 C 56.1,33.33 63.41,37.04 68.3,48.15 C 73.17,59.26 75.61,70.37 75.61,88.89 L 75.61 92.59 C 82.93,92.59 92.69,92.59 100,92.59 L 100 88.89 C 97.56,59.26 95.11,37.04 85.37,22.22 L 85.37 22.22" fill="#2d5967" stroke="none" stroke-width="0.5"/>
  </g>
  <g transform="translate(61.00,7.00) scale(0.0700,0.0700)">
    <path d="M 100 0 L 72.5 0 L 50.01 40.54 L 27.5 0 L 0 0 L 32.51 59.46 L 25 75.68 C 32.51,78.38 40.01,81.08 47.5,81.08 L 50.01 75.68 L 55 83.78 C 67.51,89.19 80,94.6 90,100 L 67.51 59.46 L 100 0 L 100 0" fill="#2d5967" stroke="none" stroke-width="0.5"/>
  </g>
  <g transform="translate(7.00,23.00) scale(0.0500,0.0800)">
    <path d="M 60.72 68.18 C 67.85,61.36 75,56.82 82.14,52.27 C 89.27,47.73 92.85,43.18 92.85,38.64 C 96.42,34.09 100,31.82 100,27.27 C 100,18.18 96.42,11.36 85.71,6.82 C 75,2.27 64.28,0 46.43,0 C 39.28,0 32.15,0 21.44,2.27 C 14.29,4.55 7.15,4.55 0,6.82 L 0 25 C 14.29,20.46 28.57,18.18 39.28,18.18 C 57.14,18.18 64.28,22.73 64.28,31.82 C 64.28,31.82 64.28,34.09 64.28,36.36 C 64.28,38.64 60.72,40.91 57.14,45.45 C 53.57,47.73 46.43,52.27 39.28,59.09 L 0 86.36 L 0 100 L 100 100 L 100 81.82 L 39.28 81.82 L 60.72 68.18 L 60.72 68.18" fill="#2d5967" stroke="none" stroke-width="0.5"/>
  </g>
  <g transform="translate(14.00,30.00) scale(0.0100,0.0100)">
    <path d="M 100 0 L 0 0 L 0 100 L 100 100 L 100 0 L 100 0" fill="#2d5967" stroke="none" stroke-width="0.5"/>
  </g>
  <g transform="translate(14.00,26.00) scale(0.0100,0.0100)">
    <path d="M 100 0 L 0 0 L 0 100 L 100 100 L 100 0 L 100 0" fill="#2d5967" stroke="none" stroke-width="0.5"/>
  </g>
  <g transform="translate(19.00,23.00) scale(0.0800,0.0800)">
    <path d="M 97.56 0 L 70.73 0 L 48.79 34.09 L 26.83 0 L 0 0 L 31.71 47.73 L 0 100 L 24.39 100 L 48.79 63.64 L 73.17 100 L 100 100 L 65.86 47.73 L 97.56 0 L 97.56 0" fill="#2d5967" stroke="none" stroke-width="0.5"/>
  </g>
  <g transform="translate(30.00,23.00) scale(0.0400,0.0800)">
    <path d="M 24.01 17.07 C 8.01,26.83 0,41.46 0,58.54 C 0,75.61 8.01,90.24 20.01,100 C 24.01,90.24 32.01,78.05 36.01,68.29 C 36.01,65.85 36.01,60.98 36.01,56.1 C 36.01,43.9 40.02,34.15 48.01,29.27 C 56,24.39 64.01,19.51 80.01,19.51 C 88,12.2 92.01,7.32 100,0 C 96.02,0 88,0 80.01,0 C 60,2.44 40.02,7.32 24.01,17.07 L 24.01 17.07" fill="#2d5967" stroke="none" stroke-width="0.5"/>
  </g>
  <g transform="translate(18.00,54.00) scale(0.2300,0.2200)">
    <path d="M 90.68 24.14 L 74.58 44.83 C 68.64,52.58 61.86,60.34 55.08,68.1 L 40.68 82.76 L 16.95 59.48 L 31.36 44.83 C 38.14,37.93 45.76,31.03 54.24,25 L 75.42 9.48 C 72.88,6.03 70.34,3.45 67.8,0 L 46.61 15.52 C 38.14,21.55 30.51,29.31 22.88,36.21 L 0 59.48 L 39.83 100 L 62.71 76.72 C 70.34,68.96 77.12,61.21 83.05,52.58 L 100 31.89 C 97.46,29.31 94.07,26.72 90.68,24.14 L 90.68 24.14" fill="#2d5967" stroke="none" stroke-width="0.5"/>
  </g>
  <g transform="translate(16.00,69.00) scale(0.1000,0.1000)">
    <path d="M 9.62 0 L 0 7.84 L 9.62 37.26 L 63.46 90.2 L 90.38 100 L 100 90.2 L 9.62 0 L 9.62 0" fill="#2d5967" stroke="none" stroke-width="0.5"/>
  </g>
  <g transform="translate(29.00,12.00) scale(0.5400,0.5100)">
    <path d="M 49.82 100 C 61.45,100 73.09,95.44 82.18,85.93 C 100,67.3 100,37.26 82.18,18.63 C 64.36,0 35.64,0 17.82,18.63 C 0,37.26 0,67.3 17.82,85.93 C 26.55,95.44 38.18,100 49.82,100 L 49.82 100 M 21.46 22.43 C 29.46,14.07 39.64,9.89 50.18,9.89 C 60.73,9.89 70.91,14.07 78.91,22.43 C 94.55,38.78 94.55,65.78 78.91,82.13 C 63.27,98.48 37.46,98.48 21.46,82.13 C 5.45,65.78 5.45,39.16 21.46,22.43 L 21.46 22.43" fill="#2d5967" stroke="none" stroke-width="0.5"/>
  </g>
  <g transform="translate(42.00,31.00) scale(0.1400,0.1500)">
    <path d="M 51.35 100 C 67.56,100 79.73,95.06 87.83,87.65 C 95.94,79.01 100,66.67 100,50.62 C 100,34.57 95.94,22.22 86.48,13.58 C 78.38,4.94 66.22,0 50,0 C 33.78,0 22.97,4.94 13.51,13.58 C 5.41,22.22 0,34.57 0,50.62 C 0,66.67 4.05,79.01 13.51,87.65 C 24.32,95.06 35.14,100 51.35,100 L 51.35 100 M 32.43 25.93 C 36.49,19.75 43.24,17.28 52.7,17.28 C 60.81,17.28 67.56,19.75 72.97,25.93 C 77.02,32.1 79.73,39.51 79.73,49.38 C 79.73,59.26 77.02,67.9 72.97,74.07 C 68.92,80.25 60.81,82.72 51.35,82.72 C 43.24,82.72 36.49,80.25 31.08,74.07 C 27.03,67.9 24.32,60.49 24.32,49.38 C 25.68,39.51 27.03,30.86 32.43,25.93 L 32.43 25.93" fill="#2d5967" stroke="none" stroke-width="0.5"/>
  </g>
  <g transform="translate(58.00,31.00) scale(0.1100,0.1500)">
    <path d="M 59.02 35.9 L 32.79 1.28 L 1.64 1.28 L 39.35 48.72 L 0 100 L 29.51 100 L 57.38 62.82 L 85.25 100 L 88.53 100 C 93.45,93.59 96.73,87.18 100,79.49 L 75.42 48.72 L 98.37 19.23 C 95.08,12.82 91.81,6.41 86.89,0 L 83.61 0 L 59.02 35.9 L 59.02 35.9" fill="#2d5967" stroke="none" stroke-width="0.5"/>
  </g>
  <g transform="translate(37.00,17.00) scale(0.4000,0.4000)">
    <path d="M 47.6 100 C 59.62,100 72.12,95.19 81.25,86.06 C 100,67.31 100,37.5 81.25,18.75 C 62.5,0 32.69,0 13.94,18.75 C 4.81,27.88 0,39.9 0,52.4 C 0,64.9 4.81,76.92 13.94,86.06 C 23.56,95.19 35.58,100 47.6,100 L 47.6 100 M 18.75 23.56 C 26.92,15.38 37.02,11.54 47.6,11.54 C 58.17,11.54 68.75,15.38 76.44,23.56 C 92.31,39.42 92.31,65.38 76.44,81.25 C 60.58,97.11 34.61,97.11 18.75,81.25 C 11.06,73.56 6.73,63.46 6.73,52.4 C 6.73,41.35 11.06,31.25 18.75,23.56 L 18.75 23.56" fill="#2d5967" stroke="none" stroke-width="0.5"/>
  </g>
</svg>