<svg xmlns="http://www.w3.org/2000/svg" viewBox="0 0 87.0 104.0000000000001" width="87" height="104">
  <g transform="translate(0.00,0.00) scale(0.8500,0.7700)">
    <path d="M 15.82 98.3 L 7.91 89.54 L 6.37 84.43 L 10.11 80.54 L 17.14 72.75 C 19.56,70.07 21.98,67.64 24.83,65.45 L 33.19 58.64 C 32.53,57.42 31.87,55.96 31.21,54.74 L 0 54.74 L 0 47.45 L 28.79 47.45 C 28.13,44.28 27.69,41.12 27.69,37.96 L 0 37.96 L 0 30.9 L 28.35 30.9 C 29.01,27.49 29.89,24.33 31.21,21.41 L 0 21.41 L 0 14.11 L 35.38 14.11 C 36.26,12.9 36.92,11.92 37.8,11.19 C 44.4,3.89 52.97,0 62.2,0 C 71.43,0 80,3.89 86.59,11.19 C 100,26.03 100,50.12 86.59,64.96 C 80.22,72.26 71.43,76.16 62.2,76.16 C 55.6,76.16 49.23,74.21 43.74,70.32 L 37.58 79.56 C 35.6,82.48 33.41,85.4 30.99,88.08 L 23.96 95.86 L 20.44 100 L 15.82 98.3 L 15.82 98.3" fill="#FFFFFF" stroke="none" stroke-width="0.5"/>
  </g>
  <g transform="translate(0.00,0.00) scale(0.8700,0.7900)">
    <path d="M 61.93 2.37 C 70.32,2.37 78.71,5.92 84.95,12.8 C 97.63,26.78 97.63,49.53 84.95,63.51 C 78.49,70.62 70.32,73.93 61.93,73.93 C 55.48,73.93 49.25,71.8 43.66,67.77 L 42.15 69.91 L 36.99 77.49 C 35.05,80.33 32.9,83.18 30.54,85.55 L 23.66 93.6 L 20.64 97.16 L 16.99 95.73 L 9.68 87.68 L 8.39 83.65 L 11.61 80.33 L 18.49 72.75 C 20.86,70.14 23.23,67.77 25.81,65.64 L 32.69 59.95 L 34.62 58.29 C 33.55,56.64 32.69,54.74 32.04,53.08 L 2.15 53.08 L 2.15 48.58 L 30.75 48.58 C 29.68,44.79 29.25,40.76 29.46,36.97 L 2.15 36.97 L 2.15 32.46 L 29.89 32.46 C 30.54,28.44 31.83,24.41 33.55,20.85 L 2.15 20.85 L 2.15 16.11 L 36.34 16.11 C 37.2,14.93 38.06,13.98 38.92,12.8 C 45.16,5.92 53.55,2.37 61.93,2.37 L 61.93 2.37 M 61.93 0 C 52.69,0 43.87,4.03 37.42,11.14 C 36.77,11.85 36.13,12.8 35.27,13.74 L 2.15 13.74 L 0 13.74 L 0 16.11 L 0 20.62 L 0 22.99 L 2.15 22.99 L 30.11 22.99 C 29.25,25.12 28.6,27.49 28.17,29.86 L 2.15 29.86 L 0 29.86 L 0 32.23 L 0 36.73 L 0 39.1 L 2.15 39.1 L 27.31 39.1 C 27.31,41.47 27.53,43.84 27.96,45.97 L 2.15 45.97 L 0 45.97 L 0 48.34 L 0 52.84 L 0 55.21 L 2.15 55.21 L 30.97 55.21 C 31.4,55.92 31.83,56.87 32.04,57.58 L 31.61 57.82 L 24.73 63.51 C 22.15,65.64 19.57,68.25 17.2,70.85 L 10.32 78.44 L 7.1 81.75 L 6.02 82.7 L 6.45 84.6 L 7.74 88.63 L 7.96 89.1 L 8.39 89.57 L 15.7 97.63 L 16.13 98.1 L 16.56 98.34 L 20 99.53 L 21.29 100 L 22.15 98.82 L 25.16 95.26 L 32.26 87.68 C 34.62,85.07 36.77,82.23 38.92,79.38 L 44.09 71.8 L 44.3 71.33 C 49.68,74.88 55.7,76.54 61.93,76.54 C 71.18,76.54 80,72.51 86.45,65.4 C 100,50.47 100,26.3 86.45,11.14 C 80,4.03 71.18,0 61.93,0 L 61.93 0" fill="#FFFFFF" stroke="none" stroke-width="0.5"/>
  </g>
  <g transform="translate(1.00,13.00) scale(0.2700,0.0300)">
    <path d="M 0 0 L 0 100 L 92.36 100 C 94.44,68.42 97.22,31.58 100,0 C 100,0 0,0 0,0 L 0 0" fill="#2d5967" stroke="none" stroke-width="0.5"/>
  </g>
  <g transform="translate(1.00,26.00) scale(0.2200,0.0300)">
    <path d="M 0 0 L 0 100 L 98.29 100 C 98.29,68.42 99.15,31.58 100,0 L 0 0 L 0 0" fill="#2d5967" stroke="none" stroke-width="0.5"/>
  </g>
  <g transform="translate(1.00,39.00) scale(0.2400,0.0300)">
    <path d="M 0 0 L 0 100 L 100 100 C 97.65,68.42 96.09,36.84 95.31,0 L 0 0 L 0 0" fill="#2d5967" stroke="none" stroke-width="0.5"/>
  </g>
  <g transform="translate(27.00,5.00) scale(0.5100,0.4800)">
    <path d="M 18.08 86.1 C 26.94,95.37 38.75,100 50.18,100 C 61.99,100 73.43,95.37 82.29,86.1 C 100,67.57 100,37.07 82.29,18.53 C 64.58,0 35.42,0 17.71,18.53 C 0,37.07 0,67.57 18.08,86.1 L 18.08 86.1 M 21.77 22.78 C 37.27,6.56 62.73,6.56 78.23,22.78 C 93.73,39 93.73,65.64 78.23,81.85 C 62.73,98.07 37.27,98.07 21.77,81.85 C 6.27,65.64 6.27,39 21.77,22.78 L 21.77 22.78" fill="#2d5967" stroke="none" stroke-width="0.5"/>
  </g>
  <g transform="translate(9.00,0.00) scale(0.7500,0.7500)">
    <path d="M 37.09 73 C 43.36,77.25 50.88,79.5 58.4,79.5 C 68.17,79.5 77.95,75.75 85.21,68.5 C 100,53.75 100,29.75 85.21,15 C 70.43,0.25 46.37,0 31.58,14.75 C 18.55,27.75 17.04,48 26.82,62.75 L 24.56 64.5 L 16.54 70.5 C 13.53,72.75 10.53,75.25 8.02,78 L 0 86 L 14.03 100 L 22.05 92 C 24.81,89.25 27.32,86.5 29.57,83.5 L 35.59 75.5 L 37.09 73 L 37.09 73 M 34.34 17.5 C 47.62,4.25 69.42,4.25 82.71,17.5 C 95.99,30.75 95.99,52.5 82.71,65.75 C 75.94,72.5 67.17,75.75 58.65,75.75 C 49.87,75.75 41.1,72.5 34.59,65.75 C 20.8,52.5 20.8,30.75 34.34,17.5 L 34.34 17.5 M 26.31 81 C 24.06,83.75 21.8,86.5 19.3,89.25 L 13.78 94.75 L 5.26 86 L 10.78 80.5 C 13.28,78 16.04,75.5 19.05,73.5 L 27.07 67.5 L 29.32 65.75 C 30.08,66.75 30.83,67.5 31.58,68.25 C 32.33,69 33.33,69.75 34.09,70.5 L 32.33 72.75 L 26.31 81 L 26.31 81" fill="#2d5967" stroke="none" stroke-width="0.5"/>
  </g>
  <g transform="translate(6.00,66.00) scale(0.1100,0.1100)">
    <path d="M 8.07 0 L 0 8.07 L 8.07 35.48 L 62.9 90.32 L 90.32 100 L 100 90.32 L 8.07 0 L 8.07 0" fill="#2d5967" stroke="none" stroke-width="0.5"/>
  </g>
  <g transform="translate(38.00,15.00) scale(0.3000,0.3300)">
    <path d="M 15.85 78.53 C 22.56,78.53 28.05,73.45 28.05,67.23 L 28.05 66.67 L 43.9 58.19 L 43.9 71.75 C 37.8,74.01 34.15,79.1 34.15,85.31 C 34.15,93.22 41.46,100 50,100 C 58.54,100 65.85,93.22 65.85,85.31 C 65.85,79.1 61.58,74.01 56.1,71.75 L 56.1 58.19 L 71.95 66.67 L 71.95 67.23 C 71.95,73.45 77.44,78.53 84.15,78.53 C 90.85,78.53 96.34,73.45 96.34,67.23 C 96.34,61.02 90.85,55.93 84.15,55.93 C 81.71,55.93 79.88,56.5 78.05,57.63 L 61.58 48.59 L 73.78 42.37 C 76.83,44.63 79.88,45.76 84.15,45.76 C 92.68,45.76 100,38.98 100,31.07 C 100,23.16 92.68,16.38 84.15,16.38 C 75.61,16.38 68.29,23.16 68.29,31.07 C 68.29,31.64 68.29,32.2 68.29,32.77 L 56.1 38.98 L 56.1 21.47 C 59.76,19.77 62.19,15.82 62.19,11.3 C 62.19,5.08 56.7,0 50,0 C 43.29,0 37.8,5.08 37.8,11.3 C 37.8,15.82 40.24,19.21 43.9,21.47 L 43.9 38.98 L 31.7 32.77 C 31.7,32.2 31.7,31.64 31.7,31.07 C 31.7,23.16 24.39,16.38 15.85,16.38 C 7.31,16.38 0,23.16 0,31.07 C 0,38.98 7.31,45.76 15.85,45.76 C 19.51,45.76 23.17,44.63 26.22,42.37 L 38.41 48.59 L 21.95 57.63 C 20.12,56.5 18.29,55.93 15.85,55.93 C 9.15,55.93 3.66,61.02 3.66,67.23 C 3.66,73.45 9.15,78.53 15.85,78.53 L 15.85 78.53 M 56.7 85.31 C 56.7,88.7 53.66,91.53 50,91.53 C 46.34,91.53 43.29,88.7 43.29,85.31 C 43.29,81.92 46.34,79.1 50,79.1 C 53.66,79.1 56.7,81.92 56.7,85.31 L 56.7 85.31 M 77.44 31.07 C 77.44,27.68 80.49,24.86 84.15,24.86 C 87.8,24.86 90.85,27.68 90.85,31.07 C 90.85,34.46 87.8,37.29 84.15,37.29 C 80.49,37.29 77.44,34.46 77.44,31.07 L 77.44 31.07 M 15.85 37.29 C 12.19,37.29 9.15,34.46 9.15,31.07 C 9.15,27.68 12.19,24.86 15.85,24.86 C 19.51,24.86 22.56,27.68 22.56,31.07 C 22.56,34.46 19.51,37.29 15.85,37.29 L 15.85 37.29" fill="#2d5967" stroke="none" stroke-width="0.5"/>
  </g>
</svg>