<svg xmlns="http://www.w3.org/2000/svg" viewBox="0 0 82.0 109.0000000000001" width="82" height="109">
  <g transform="translate(19.00,16.00) scale(0.4800,0.4700)">
    <path d="M 50 100 C 22.5,100 0,77.5 0,50 C 0,22.5 22.5,0 50,0 C 77.5,0 100,22.5 100,50 C 100,77.5 77.92,100 50,100 L 50 100" fill="#FFFFFF" stroke="none" stroke-width="0.5"/>
  </g>
  <g transform="translate(18.00,15.00) scale(0.5000,0.4900)">
    <path d="M 50 4 C 75.6,4 96,24.8 96,50 C 96,75.2 75.6,96 50,96 C 24.4,96 4,75.2 4,50 C 4,24.4 24.8,4 50,4 L 50 4 M 50 0 C 22.4,0 0,22.4 0,50 C 0,77.6 22.4,100 50,100 C 77.6,100 100,77.6 100,50 C 100,22.4 77.6,0 50,0 L 50 0" fill="#FFFFFF" stroke="none" stroke-width="0.5"/>
  </g>
  <g transform="translate(23.00,53.00) scale(0.5100,0.3000)">
    <path d="M 0 99.34 L 0 44.74 L 68.09 44.74 C 68.87,44.74 74.32,39.47 80.93,26.32 C 84.82,18.42 88.33,9.87 89.88,3.29 L 90.66 0 L 92.61 1.31 C 94.16,2.63 95.72,3.29 97.28,3.95 L 100 4.6 L 99.22 8.55 C 96.5,20.39 90.66,32.24 88.33,36.84 C 85.6,42.1 78.99,54.6 72.76,59.21 L 72.76 100 L 0 99.34 L 0 99.34" fill="#FFFFFF" stroke="none" stroke-width="0.5"/>
  </g>
  <g transform="translate(22.00,51.00) scale(0.5300,0.3200)">
    <path d="M 89.59 8.54 C 91.08,9.76 92.94,10.98 94.8,10.98 C 92.19,21.34 86.62,32.32 84.76,36.59 C 82.53,40.85 75.46,53.66 69.52,57.32 L 69.52 93.9 L 3.72 93.9 L 3.72 48.78 L 66.91 48.78 C 68.4,48.78 73.98,42.68 80.67,30.49 C 84.76,22.56 88.1,14.63 89.59,8.54 L 89.59 8.54 M 87.73 0 L 86.25 6.1 C 84.76,11.59 81.78,19.51 78.07,26.83 C 72.12,38.42 68.03,42.07 66.91,43.29 L 3.72 43.29 L 0 43.29 L 0 49.39 L 0 93.9 L 0 100 L 3.72 100 L 69.52 100 L 73.23 100 L 73.23 93.9 L 73.23 60.98 C 79.18,56.1 85.13,45.12 87.36,40.24 C 89.59,35.98 95.17,24.39 98.14,12.8 L 100 5.49 L 95.17 4.88 C 93.68,4.88 92.57,4.27 91.08,3.05 L 87.73 0 L 87.73 0" fill="#FFFFFF" stroke="none" stroke-width="0.5"/>
  </g>
  <g transform="translate(67.00,40.00) scale(0.1300,0.1300)">
    <path d="M 50 100 C 41.17,100 32.36,97.1 25,92.75 C 10.3,84.06 0,66.66 0,49.27 C 0,21.74 22.06,0 50,0 C 77.95,0 100,21.74 100,49.27 C 100,76.81 79.42,100 50,100 L 50 100" fill="#FFFFFF" stroke="none" stroke-width="0.5"/>
  </g>
  <g transform="translate(66.00,39.00) scale(0.1500,0.1500)">
    <path d="M 50 12.82 C 70.51,12.82 87.18,29.49 87.18,50 C 87.18,70.51 70.51,87.18 50,87.18 C 43.59,87.18 37.18,85.89 32.06,82.05 C 20.51,75.64 12.83,62.82 12.83,50 C 11.54,29.49 29.49,12.82 50,12.82 L 50 12.82 M 50 0 C 21.8,0 0,23.08 0,50 C 0,67.95 10.26,84.61 25.64,93.59 C 33.34,97.43 41.02,100 50,100 C 78.21,100 100,76.92 100,50 C 100,21.79 76.93,0 50,0 L 50 0" fill="#FFFFFF" stroke="none" stroke-width="0.5"/>
  </g>
  <g transform="translate(9.00,9.00) scale(0.2100,0.2400)">
    <path d="M 0 94.31 L 1.87 90.24 C 14.02,52.03 44.86,19.51 85.98,1.63 L 89.72 0 L 100 17.89 L 96.26 19.51 C 60.75,34.96 34.58,62.6 23.36,95.93 L 22.43 100 L 0 94.31 L 0 94.31" fill="#FFFFFF" stroke="none" stroke-width="0.5"/>
  </g>
  <g transform="translate(8.00,7.00) scale(0.2400,0.2700)">
    <path d="M 84.16 10.22 L 89.17 19.71 C 56.66,33.58 32.5,59.12 22.5,90.51 L 10.83 87.59 C 21.67,53.28 48.33,25.55 84.16,10.22 L 84.16 10.22 M 87.5 0 L 80 3.65 C 42.5,20.44 14.17,49.63 2.5,85.4 L 0 92.7 L 8.33 94.89 L 20 97.81 L 28.33 100 L 30.83 92.7 C 40,64.23 63.33,40.15 93.33,26.28 L 100 22.63 L 96.66 16.06 L 91.67 6.57 L 87.5 0 L 87.5 0" fill="#FFFFFF" stroke="none" stroke-width="0.5"/>
  </g>
  <g transform="translate(1.00,1.00) scale(0.2600,0.2900)">
    <path d="M 0 95.33 L 0.77 92 C 13.85,52.67 46.15,20 88.46,1.33 L 91.54 0 L 100 14.67 L 96.93 16 C 59.23,32 30.77,62 19.23,96.67 L 18.46 100 L 0 95.33 L 0 95.33" fill="#FFFFFF" stroke="none" stroke-width="0.5"/>
  </g>
  <g transform="translate(0.00,0.00) scale(0.2800,0.3200)">
    <path d="M 85.42 7.98 L 90.28 16.56 C 55.56,31.9 29.17,59.51 18.75,92.64 L 9.03 90.18 C 20.14,53.99 48.61,24.54 85.42,7.98 L 85.42 7.98 M 88.89 0 L 82.64 2.45 C 43.06,20.25 13.89,51.53 2.08,88.34 L 0 94.48 L 6.94 96.32 L 16.67 98.16 L 23.61 100 L 25.7 93.86 C 36.11,62.58 60.42,36.2 93.75,21.47 L 100 19.02 L 97.22 13.5 L 92.36 5.52 L 88.89 0 L 88.89 0" fill="#FFFFFF" stroke="none" stroke-width="0.5"/>
  </g>
  <g transform="translate(24.00,67.00) scale(0.3500,0.1400)">
    <path d="M 100 100 L 0 100 L 0 0 L 100 0 L 100 100 L 100 100 M 8.47 80.82 L 92.09 80.82 L 92.09 20.55 L 8.47 20.55 L 8.47 80.82 L 8.47 80.82" fill="#2d5967" stroke="none" stroke-width="0.5"/>
  </g>
  <g transform="translate(35.00,32.00) scale(0.1700,0.1700)">
    <path d="M 50 100 C 22.09,100 0,77.91 0,50 C 0,22.09 22.09,0 50,0 C 77.9,0 100,22.09 100,50 C 100,77.91 77.9,100 50,100 L 50 100 M 50 17.44 C 31.39,17.44 17.44,32.56 17.44,50 C 17.44,67.44 32.56,82.56 50,82.56 C 67.44,82.56 82.56,67.44 82.56,50 C 82.56,32.56 68.6,17.44 50,17.44 L 50 17.44" fill="#2d5967" stroke="none" stroke-width="0.5"/>
  </g>
  <g transform="translate(20.00,17.00) scale(0.4600,0.4500)">
    <path d="M 50 100 C 22.18,100 0,77.39 0,50 C 0,22.61 22.61,0 50,0 C 77.39,0 100,22.61 100,50 C 100,77.39 77.83,100 50,100 L 50 100 M 50 6.09 C 26.09,6.09 6.09,25.65 6.09,50 C 6.09,73.91 25.65,93.91 50,93.91 C 74.35,93.91 93.91,74.35 93.91,50 C 93.91,26.09 74.35,6.09 50,6.09 L 50 6.09" fill="#2d5967" stroke="none" stroke-width="0.5"/>
  </g>
  <g transform="translate(58.00,54.00) scale(0.1500,0.1600)">
    <path d="M 49.33 44.45 C 25.34,70.37 6.67,81.48 0,81.48 L 0 100 C 21.33,100 54.66,66.67 64,56.79 C 70.67,49.38 90.67,27.16 100,4.94 C 93.33,4.94 86.67,2.47 81.33,0 C 76,12.35 64,28.4 49.33,44.45 L 49.33 44.45" fill="#2d5967" stroke="none" stroke-width="0.5"/>
  </g>
  <g transform="translate(68.00,41.00) scale(0.1100,0.1100)">
    <path d="M 50 0 C 22.41,0 0,22.41 0,50 C 0,68.96 10.35,84.48 25.86,93.1 C 32.76,96.55 41.38,100 50,100 C 77.58,100 100,77.59 100,50 C 100,22.41 77.58,0 50,0 L 50 0 M 50 74.14 C 36.2,74.14 24.14,62.07 24.14,48.28 C 24.14,34.48 36.2,22.41 50,22.41 C 63.79,22.41 75.86,34.48 75.86,48.28 C 74.14,63.79 63.79,74.14 50,74.14 L 50 74.14" fill="#2d5967" stroke="none" stroke-width="0.5"/>
  </g>
  <g transform="translate(11.00,10.00) scale(0.1800,0.2100)">
    <path d="M 100 11.82 L 93.62 0 C 48.93,19.09 13.83,54.55 0,96.36 L 14.89 100 C 27.66,60.91 58.51,29.09 100,11.82 L 100 11.82" fill="#2d5967" stroke="none" stroke-width="0.5"/>
  </g>
  <g transform="translate(2.00,2.00) scale(0.2300,0.2700)">
    <path d="M 100 9.49 L 94.91 0 C 49.15,18.98 14.41,54.01 0,97.08 L 11.87 100 C 25.42,59.85 57.63,27.01 100,9.49 L 100 9.49" fill="#2d5967" stroke="none" stroke-width="0.5"/>
  </g>
</svg>