<svg xmlns="http://www.w3.org/2000/svg" viewBox="0 0 84.0 108.00000000000004" width="84" height="108">
  <g transform="translate(1.00,1.00) scale(0.8200,0.8100)">
    <path d="M 5.34 100 C 2.66,100 0.48,98.05 0,95.37 L 0 4.88 C 0.23,2.2 2.42,0 5.34,0 L 78.64 0 C 81.55,0 83.98,2.44 83.98,5.37 L 83.98 10.98 L 88.11 6.83 L 100 18.78 L 88.11 30.73 L 83.74 26.83 L 83.74 42.68 L 87.87 38.54 L 99.76 50.49 L 87.87 62.44 L 83.74 58.54 L 83.74 74.15 L 87.87 70 L 99.76 81.95 L 87.87 93.9 L 83.74 90 L 83.74 94.63 C 83.74,97.56 81.31,100 78.4,100 L 5.34 100 L 5.34 100 M 83.74 89.76 L 88.34 85.12 L 83.74 85.12 L 83.74 89.76 L 83.74 89.76 M 88.34 79.02 L 83.74 74.63 L 83.74 79.27 L 88.34 79.27 L 88.34 79.02 L 88.34 79.02 M 83.74 58.05 L 88.34 53.41 L 83.74 53.41 L 83.74 58.05 L 83.74 58.05 M 88.11 47.32 L 83.74 42.93 L 83.74 47.32 L 88.11 47.32 L 88.11 47.32 M 83.74 26.34 L 88.34 21.71 L 83.74 21.71 L 83.74 26.34 L 83.74 26.34 M 88.34 15.85 L 83.74 11.22 L 83.74 15.85 L 88.34 15.85 L 88.34 15.85" fill="#FFFFFF" stroke="none" stroke-width="0.5"/>
  </g>
  <g transform="translate(0.00,0.00) scale(0.8400,0.8300)">
    <path d="M 77.36 2.38 C 79.47,2.38 81.36,4.29 81.36,6.43 L 81.36 17.86 L 89.86 17.86 L 84.2 12.14 L 86.56 9.76 L 96.46 19.76 L 86.56 29.76 L 84.2 27.14 L 89.86 21.43 L 81.36 21.43 L 81.36 48.81 L 89.62 48.81 L 83.96 43.1 L 86.32 40.48 L 96.22 50.48 L 86.32 60.48 L 83.96 58.1 L 89.86 52.14 L 81.36 52.14 L 81.36 79.52 L 89.86 79.52 L 83.96 73.81 L 86.32 71.43 L 96.22 81.43 L 86.32 91.43 L 83.96 89.05 L 89.86 83.1 L 81.36 83.1 L 81.36 93.57 C 81.36,95.71 79.47,97.62 77.36,97.62 L 6.36 97.62 C 4.25,97.62 2.6,95.95 2.36,94.05 L 2.36 5.95 C 2.6,3.81 4.25,2.38 6.36,2.38 L 77.36 2.38 L 77.36 2.38 M 77.36 0 L 6.36 0 C 3.06,0 0.47,2.38 0,5.71 L 0 5.95 L 0 6.19 L 0 94.29 L 0 94.52 L 0 94.76 C 0.47,97.62 3.06,100 6.36,100 L 77.6 100 C 81.14,100 83.96,97.14 83.96,93.57 L 83.96 91.91 L 85.14 93.09 L 86.79 94.76 L 88.44 93.09 L 98.35 83.1 L 100 81.43 L 98.35 79.76 L 88.44 69.76 L 86.79 68.1 L 84.9 69.52 L 83.73 70.71 L 83.73 61.19 L 84.9 62.38 L 86.56 64.05 L 88.21 62.38 L 98.11 52.38 L 99.76 50.71 L 98.11 49.05 L 88.21 39.05 L 86.56 37.38 L 84.9 38.81 L 83.73 40 L 83.73 30.24 L 84.9 31.43 L 86.56 33.1 L 88.21 31.43 L 98.11 21.43 L 99.76 19.76 L 98.11 18.1 L 88.21 8.1 L 86.56 6.43 L 84.9 7.86 L 83.73 9.05 L 83.73 6.43 C 83.73,2.86 80.9,0 77.36,0 L 77.36 0 M 83.73 15.48 L 83.73 15 L 83.96 15.24 L 83.73 15.24 L 83.73 15.48 L 83.73 15.48 M 83.73 23.81 L 84.2 23.81 L 83.73 24.29 L 83.73 23.81 L 83.73 23.81 M 83.73 46.19 L 83.73 45.95 L 83.96 46.19 L 83.73 46.19 L 83.73 46.19 M 83.73 54.52 L 84.2 54.52 L 83.73 55 L 83.73 54.52 L 83.73 54.52 M 83.73 77.14 L 83.73 76.9 L 83.96 77.14 L 83.73 77.14 L 83.73 77.14 M 83.73 85.48 L 84.2 85.48 L 83.73 85.95 L 83.73 85.48 L 83.73 85.48" fill="#FFFFFF" stroke="none" stroke-width="0.5"/>
  </g>
  <g transform="translate(2.00,2.00) scale(0.6700,0.7900)">
    <path d="M 94.65 0 L 5.05 0 C 2.38,0 0.28,1.5 0,3.75 L 5.95 3.75 L 94.65 3.75 C 94.94,3.75 95.24,4 95.24,4.25 L 95.24 96 C 95.24,96.25 94.94,96.5 94.65,96.5 L 5.95 96.5 L 0 96.5 C 0.28,98.25 2.38,100 5.05,100 L 94.94 100 C 97.62,100 100,98 100,95.75 L 100 4.25 C 99.7,2 97.62,0 94.65,0 L 94.65 0" fill="#2d5967" stroke="none" stroke-width="0.5"/>
  </g>
  <g transform="translate(50.00,12.00) scale(0.0800,0.0800)">
    <path d="M 100 0 L 0 0 L 0 100 L 100 100 L 100 0 L 100 0" fill="#2d5967" stroke="none" stroke-width="0.5"/>
  </g>
  <g transform="translate(36.00,12.00) scale(0.0800,0.0800)">
    <path d="M 100 0 L 0 0 L 0 100 L 100 100 L 100 0 L 100 0" fill="#2d5967" stroke="none" stroke-width="0.5"/>
  </g>
  <g transform="translate(21.00,12.00) scale(0.0800,0.0800)">
    <path d="M 100 0 L 0 0 L 0 100 L 100 100 L 100 0 L 100 0" fill="#2d5967" stroke="none" stroke-width="0.5"/>
  </g>
  <g transform="translate(7.00,12.00) scale(0.0800,0.0800)">
    <path d="M 100 0 L 0 0 L 0 100 L 100 100 L 100 0 L 100 0" fill="#2d5967" stroke="none" stroke-width="0.5"/>
  </g>
  <g transform="translate(50.00,38.00) scale(0.0800,0.0800)">
    <path d="M 100 0 L 0 0 L 0 100 L 100 100 L 100 0 L 100 0" fill="#2d5967" stroke="none" stroke-width="0.5"/>
  </g>
  <g transform="translate(36.00,38.00) scale(0.0800,0.0800)">
    <path d="M 100 0 L 0 0 L 0 100 L 100 100 L 100 0 L 100 0" fill="#2d5967" stroke="none" stroke-width="0.5"/>
  </g>
  <g transform="translate(50.00,64.00) scale(0.0800,0.0800)">
    <path d="M 100 0 L 0 0 L 0 100 L 100 100 L 100 0 L 100 0" fill="#2d5967" stroke="none" stroke-width="0.5"/>
  </g>
  <g transform="translate(36.00,64.00) scale(0.0800,0.0800)">
    <path d="M 100 0 L 0 0 L 0 100 L 100 100 L 100 0 L 100 0" fill="#2d5967" stroke="none" stroke-width="0.5"/>
  </g>
  <g transform="translate(21.00,64.00) scale(0.0800,0.0800)">
    <path d="M 100 0 L 0 0 L 0 100 L 100 100 L 100 0 L 100 0" fill="#2d5967" stroke="none" stroke-width="0.5"/>
  </g>
  <g transform="translate(71.00,33.00) scale(0.1000,0.1600)">
    <path d="M 0 11.9 L 46.18 40.48 L 0 40.48 L 0 58.33 L 48.11 58.33 L 0 88.1 L 19.27 100 L 100 50 L 21.2 0 L 0 11.9 L 0 11.9" fill="#2d5967" stroke="none" stroke-width="0.5"/>
  </g>
  <g transform="translate(71.00,8.00) scale(0.1000,0.1600)">
    <path d="M 0 87.06 L 19.27 100 L 100 50.59 L 21.2 0 L 1.94 11.76 L 48.11 40 L 0 40 L 0 58.82 L 48.11 58.82 L 0 87.06 L 0 87.06" fill="#2d5967" stroke="none" stroke-width="0.5"/>
  </g>
  <g transform="translate(70.00,59.00) scale(0.1000,0.1600)">
    <path d="M 1.94 11.91 L 48.11 40.48 L 0 40.48 L 0 58.33 L 48.11 58.33 L 0 88.09 L 19.27 100 L 100 50 L 19.27 0 L 1.94 11.91 L 1.94 11.91" fill="#2d5967" stroke="none" stroke-width="0.5"/>
  </g>
</svg>