<svg xmlns="http://www.w3.org/2000/svg" viewBox="0 0 84.0 109.0000000000001" width="84" height="109">
  <g transform="translate(6.00,1.00) scale(0.8200,0.8200)">
    <path d="M 5.35 99.76 C 2.43,99.76 0,97.32 0,94.4 L 0 5.35 C 0,2.43 2.43,0 5.35,0 L 94.65 0 C 97.57,0 100,2.43 100,5.35 L 100 94.65 C 100,97.57 97.57,100 94.65,100 L 5.35 99.76 L 5.35 99.76" fill="#FFFFFF" stroke="none" stroke-width="0.5"/>
  </g>
  <g transform="translate(5.00,0.00) scale(0.8400,0.8400)">
    <path d="M 93.35 2.38 C 95.49,2.38 97.39,4.29 97.39,6.43 L 97.39 93.81 C 97.39,95.95 95.49,97.86 93.35,97.86 L 6.41 97.86 C 4.27,97.62 2.37,95.71 2.37,93.57 L 2.37 6.43 C 2.37,4.29 4.27,2.38 6.41,2.38 L 93.35 2.38 L 93.35 2.38 M 93.35 0 L 6.41 0 C 2.85,0 0,2.86 0,6.43 L 0 93.81 C 0,97.14 2.85,100 6.41,100 L 93.59 100 C 97.15,100 100,97.14 100,93.57 L 100 6.43 C 99.76,2.86 96.91,0 93.35,0 L 93.35 0" fill="#FFFFFF" stroke="none" stroke-width="0.5"/>
  </g>
  <g transform="translate(7.00,2.00) scale(0.8000,0.8000)">
    <path d="M 95.51 0 L 4.24 0 C 1.99,0 0,2 0,4.25 L 0 96 C 0,98 1.99,100 4.24,100 L 18.95 100 L 29.18 100 L 45.14 100 L 55.36 100 L 71.32 100 L 81.55 100 L 95.76 100 C 98.01,100 100,98 100,95.75 L 100 4.25 C 99.75,2 97.76,0 95.51,0 L 95.51 0 M 3.74 28.75 L 96.01 28.75 L 96.01 33.5 L 75.31 49.5 L 49.38 42.5 L 23.69 62.75 L 3.74 53.5 L 3.74 28.75 L 3.74 28.75 M 4.24 3.75 L 95.76 3.75 C 96.01,3.75 96.26,4 96.26,4.25 L 96.26 25 L 3.99 25 L 3.99 4.25 C 3.74,4 3.99,3.75 4.24,3.75 L 4.24 3.75 M 22.69 96.25 L 22.69 80.5 L 25.44 80.5 L 25.44 96.25 L 22.69 96.25 L 22.69 96.25 M 48.63 96.25 L 48.63 60.25 L 51.37 60.25 L 51.37 96.25 L 48.63 96.25 L 48.63 96.25 M 74.81 96.25 L 74.81 67.25 L 77.56 67.25 L 77.56 96.5 L 74.81 96.5 L 74.81 96.25 L 74.81 96.25 M 95.51 96.25 L 81.3 96.25 L 81.3 63.5 L 71.07 63.5 L 71.07 96.25 L 55.11 96.25 L 55.11 56.5 L 44.89 56.5 L 44.89 96.25 L 28.93 96.25 L 28.93 76.75 L 18.95 76.75 L 18.95 96.25 L 4.24 96.25 C 3.99,96.25 3.74,96 3.74,95.75 L 3.74 57.5 L 24.19 67 L 50.13 46.5 L 76.06 53.5 L 96.01 38.25 L 96.01 96 C 96.01,96 95.76,96.25 95.51,96.25 L 95.51 96.25" fill="#2d5967" stroke="none" stroke-width="0.5"/>
  </g>
  <g transform="translate(13.00,8.00) scale(0.0900,0.0900)">
    <path d="M 100 0 L 0 0 L 0 100 L 100 100 L 100 0 L 100 0 M 70.83 70.83 L 31.25 70.83 L 31.25 31.25 L 68.74 31.25 L 70.83 70.83 L 70.83 70.83" fill="#2d5967" stroke="none" stroke-width="0.5"/>
  </g>
</svg>