<svg xmlns="http://www.w3.org/2000/svg" viewBox="0 0 84.0 123.00000000000004" width="84" height="123">
  <g transform="translate(11.00,0.00) scale(0.8300,0.6400)">
    <path d="M 42.19 100 L 37.65 97.06 L 32.79 90.09 L 32.32 89.61 C 26.76,83.74 23.19,75.27 22.38,66.02 L 0 66.02 L 0.24 61.82 C 0.53,56.55 1.86,51.47 4.09,47.05 C 6.32,42.63 9.39,39.03 12.99,36.59 C 13.81,36.04 14.53,35.25 15.08,34.3 C 15.63,33.34 16.01,32.23 16.19,31.05 C 17.01,25.68 19.24,20.84 22.5,17.36 C 25.76,13.88 29.84,11.97 34.06,11.96 C 34.62,11.96 35.18,11.96 35.74,11.96 L 36.38 11.96 C 37.19,11.96 37.98,11.75 38.72,11.33 C 39.46,10.91 40.13,10.3 40.68,9.53 C 43.16,6.11 46.23,3.53 49.64,1.99 C 53.05,0.45 56.7,0 60.28,0.68 C 63.85,1.37 67.24,3.16 70.17,5.92 C 73.09,8.67 75.46,12.3 77.08,16.5 C 77.49,17.59 78.09,18.55 78.84,19.3 C 79.58,20.05 80.44,20.57 81.36,20.82 C 83.93,21.56 86.38,22.87 88.61,24.71 C 93.51,28.73 97.05,35.02 98.53,42.3 C 100,49.59 99.3,57.32 96.55,63.96 L 95.71 66.02 L 77.15 66.02 C 76.32,75.29 72.72,83.76 67.13,89.61 L 66.55 90.21 L 61.82 97.06 L 57.28 100 L 42.19 100 L 42.19 100" fill="#FFFFFF" stroke="none" stroke-width="0.5"/>
  </g>
  <g transform="translate(11.00,0.00) scale(0.8400,0.6500)">
    <path d="M 57.33 2.38 C 61.27,2.36 65.13,3.77 68.47,6.44 C 71.82,9.12 74.52,12.95 76.26,17.5 C 76.75,18.71 77.44,19.76 78.28,20.58 C 79.12,21.41 80.09,21.98 81.12,22.26 C 83.56,22.95 85.88,24.18 87.99,25.9 C 92.63,29.69 95.98,35.61 97.38,42.46 C 98.78,49.31 98.11,56.59 95.51,62.83 L 94.94 64.21 L 76.34 64.21 C 76.04,68.75 75.03,73.16 73.37,77.17 C 71.72,81.19 69.45,84.74 66.7,87.6 L 66.13 88.19 L 61.46 94.86 L 57.33 97.62 L 42.88 97.62 L 38.76 94.95 L 34.09 88.29 L 33.52 87.69 C 30.8,84.81 28.55,81.26 26.91,77.24 C 25.28,73.22 24.29,68.81 23.99,64.29 L 1.99 64.29 L 2.16 61.43 C 2.43,56.46 3.68,51.66 5.8,47.49 C 7.91,43.32 10.82,39.92 14.25,37.62 C 15.19,37.01 16.01,36.13 16.65,35.05 C 17.29,33.97 17.73,32.71 17.94,31.38 C 18.71,26.38 20.8,21.89 23.86,18.65 C 26.91,15.41 30.73,13.64 34.68,13.62 C 35.22,13.62 35.73,13.62 36.27,13.62 C 36.49,13.64 36.72,13.64 36.95,13.62 C 37.87,13.63 38.78,13.4 39.63,12.93 C 40.47,12.46 41.23,11.77 41.86,10.9 C 43.85,8.2 46.25,6.05 48.91,4.59 C 51.57,3.12 54.44,2.37 57.33,2.38 L 57.33 2.38 M 57.33 0 C 54.16,0.01 51.03,0.85 48.12,2.49 C 45.22,4.13 42.61,6.52 40.46,9.52 C 40,10.14 39.45,10.63 38.84,10.97 C 38.23,11.3 37.58,11.46 36.91,11.45 L 36.4 11.45 C 35.83,11.45 35.23,11.45 34.64,11.45 C 30.28,11.45 26.05,13.38 22.67,16.94 C 19.28,20.49 16.96,25.44 16.08,30.95 C 15.94,31.96 15.63,32.92 15.16,33.74 C 14.69,34.57 14.08,35.24 13.38,35.71 C 9.7,38.19 6.56,41.84 4.28,46.31 C 1.99,50.79 0.63,55.94 0.31,61.29 L 0.15 64.14 L 0 66.67 L 22.3 66.67 C 23.29,75.64 26.87,83.8 32.32,89.52 L 32.78 90 L 37.36 96.52 L 37.6 96.86 L 37.91 97.07 L 42.05 99.74 L 42.45 100 L 57.77 100 L 58.16 99.74 L 62.29 97.09 L 62.61 96.88 L 62.83 96.55 L 67.41 90.02 L 67.87 89.55 C 73.35,83.84 76.96,75.67 77.96,66.67 L 95.98 66.67 L 96.51 65.43 L 97.08 64.02 C 98.8,59.9 99.76,55.32 99.88,50.64 C 100,45.96 99.28,41.3 97.77,37.04 C 96.26,32.78 94.01,29.03 91.19,26.07 C 88.38,23.12 85.07,21.05 81.53,20.02 C 80.74,19.83 79.99,19.4 79.36,18.78 C 78.72,18.16 78.19,17.35 77.83,16.43 C 75.94,11.5 73.02,7.35 69.39,4.45 C 65.77,1.54 61.59,0 57.33,0 L 57.33 0 L 57.33 0" fill="#FFFFFF" stroke="none" stroke-width="0.5"/>
  </g>
  <g transform="translate(12.00,1.00) scale(0.8100,0.4000)">
    <path d="M 88.93 38.18 C 86.79,35.42 84.42,33.43 81.93,32.3 C 80.86,31.85 79.86,30.92 78.99,29.59 C 78.12,28.26 77.41,26.56 76.91,24.61 C 75.11,17.21 72.31,10.97 68.83,6.62 C 65.34,2.28 61.32,0 57.23,0.05 C 54.21,0.06 51.24,1.32 48.47,3.75 C 45.71,6.18 43.23,9.72 41.17,14.16 C 40.45,15.72 39.56,16.93 38.56,17.68 C 37.57,18.43 36.5,18.72 35.45,18.5 C 32.42,17.87 29.36,18.85 26.57,21.35 C 23.97,23.65 21.68,27.18 19.9,31.65 C 18.13,36.11 16.91,41.37 16.36,46.99 C 16.14,49.14 15.69,51.17 15.03,52.91 C 14.37,54.66 13.52,56.08 12.54,57.06 C 9,60.78 5.99,66.27 3.8,73 C 1.61,79.73 0.32,87.48 0.04,95.5 L 0 100 L 19.32 100 L 19.32 91.47 L 4.73 91.47 C 5.27,85.76 6.44,80.38 8.16,75.72 C 9.88,71.06 12.1,67.24 14.66,64.56 C 16.19,62.96 17.53,60.68 18.56,57.9 C 19.6,55.12 20.3,51.9 20.64,48.49 C 21.04,44.25 21.95,40.27 23.27,36.88 C 24.6,33.5 26.32,30.81 28.27,29.04 C 30.38,27.21 32.69,26.5 34.97,26.96 C 36.69,27.32 38.43,26.88 40.05,25.66 C 41.67,24.44 43.13,22.47 44.3,19.92 C 46.25,15.75 48.66,12.58 51.34,10.68 C 54.02,8.79 56.89,8.22 59.7,9.04 C 62.51,9.85 65.18,12.02 67.49,15.37 C 69.79,18.71 71.66,23.12 72.94,28.23 C 73.71,31.35 74.83,34.09 76.2,36.23 C 77.57,38.38 79.16,39.87 80.86,40.61 C 82.89,41.54 84.82,43.15 86.59,45.37 C 90.3,50.1 93.04,57.38 94.3,65.86 C 95.56,74.33 95.25,83.44 93.44,91.5 L 80.08 91.5 L 80.08 92.77 C 80.08,93.58 80.08,94.39 80.08,95.23 C 80.08,96.08 80.08,96.69 80.08,97.46 L 80.08 100 L 96.02 100 L 96.61 97.77 C 99.3,87.72 100,76 98.58,64.94 C 97.15,53.89 93.71,44.34 88.93,38.18 L 88.93 38.18" fill="#2d5967" stroke="none" stroke-width="0.5"/>
  </g>
  <g transform="translate(30.00,17.00) scale(0.4500,0.4000)">
    <path d="M 49.97 0.03 C 39.84,0.05 29.95,3.62 21.68,10.26 C 13.4,16.91 7.14,26.29 3.74,37.14 C 0.35,47.98 0,59.75 2.73,70.83 C 5.47,81.9 11.15,91.76 19.01,99.02 L 20.07 100 L 79.8 100 L 80.86 99.02 C 88.76,91.78 94.49,81.93 97.24,70.83 C 100,59.74 99.66,47.95 96.26,37.08 C 92.86,26.22 86.58,16.82 78.27,10.19 C 69.97,3.55 60.06,0 49.9,0.03 L 49.97 0.03 L 49.97 0.03 M 91.12 60.64 C 90.26,70.04 86.91,78.93 81.52,86.14 L 74.4 78.01 L 71.68 81.1 L 68.96 84.18 L 75.19 91.29 L 24.41 91.29 L 30.64 84.07 L 27.92 80.98 L 25.34 78.01 L 18.46 85.82 C 13.1,78.71 9.75,69.94 8.82,60.64 L 18.87 60.64 L 18.87 51.89 L 8.76 51.89 C 9.43,42.48 12.6,33.52 17.84,26.19 L 25.34 34.51 L 28.06 31.43 L 30.77 28.34 L 23.38 19.94 C 29.65,13.86 37.4,10.06 45.6,9.05 L 45.6 21.16 L 53.31 21.16 L 53.31 8.93 C 61.9,9.68 70.07,13.47 76.67,19.75 L 69.1 28.34 L 71.82 31.43 L 74.54 34.51 L 82.07 25.96 C 87.43,33.31 90.67,42.37 91.33,51.89 L 81 51.89 L 81 60.64 L 91.12 60.64 L 91.12 60.64" fill="#2d5967" stroke="none" stroke-width="0.5"/>
  </g>
  <g transform="translate(48.00,33.00) scale(0.1200,0.1100)">
    <path d="M 44.41 20.94 C 41.55,20.67 38.69,20.67 35.84,20.94 C 30.77,21.32 25.83,22.72 21.31,25.07 C 16.77,27.42 12.75,30.67 9.46,34.62 C 6.16,38.58 3.67,43.17 2.12,48.12 C 0.57,53.07 0,58.29 0.43,63.46 C 1.3,73.91 6.12,83.58 13.86,90.43 C 20.97,96.65 30.06,100 39.42,99.85 L 42.49 99.85 C 52.58,99.14 62.02,94.45 68.81,86.76 C 72.72,82.08 75.49,76.53 76.91,70.55 C 78.34,64.57 78.36,58.33 77,52.35 L 100 0 L 44.41 20.94 L 44.41 20.94 M 46.45 66.61 C 45.13,68.09 43.44,69.14 41.55,69.65 C 39.67,70.15 37.68,70.1 35.83,69.47 C 33.98,68.85 32.35,67.69 31.12,66.14 C 29.9,64.59 29.14,62.7 28.94,60.72 C 28.78,58.7 29.22,56.67 30.18,54.91 C 31.16,53.14 32.62,51.71 34.39,50.8 C 36.16,49.88 38.15,49.53 40.12,49.78 C 42.09,50.03 43.93,50.88 45.43,52.21 C 47.4,54 48.6,56.51 48.79,59.19 C 48.99,61.89 48.14,64.54 46.45,66.61 L 46.45 66.61" fill="#2d5967" stroke="none" stroke-width="0.5"/>
  </g>
  <g transform="translate(43.00,60.00) scale(0.1900,0.0300)">
    <path d="M 81.8 0 L 18.2 0 L 0 0 L 0 50 L 18.2 100 L 81.8 100 L 100 50 L 100 0 L 81.8 0 L 81.8 0" fill="#2d5967" stroke="none" stroke-width="0.5"/>
  </g>
</svg>