<svg xmlns="http://www.w3.org/2000/svg" viewBox="0 0 63.0 129.0000000000001" width="63" height="129">
  <g transform="translate(1.00,1.00) scale(0.6100,0.8200)">
    <path d="M 6.93 100 C 3.3,100 0,97.8 0,94.88 L 0 14.88 C 0,12.2 2.97,9.76 6.93,9.76 L 24.09 9.76 C 25.08,7.8 27.72,6.34 30.7,6.34 L 37.96 6.34 C 39.61,2.68 44.55,0 49.84,0 C 55.12,0 60.08,2.68 61.72,6.34 L 69.31 6.34 C 72.28,6.34 74.93,7.8 75.91,9.76 L 93.07 9.76 C 96.71,9.76 100,11.95 100,14.88 L 100 94.88 C 100,97.56 97.04,100 93.07,100 L 6.93 100 L 6.93 100" fill="#FFFFFF" stroke="none" stroke-width="0.5"/>
  </g>
  <g transform="translate(0.00,0.00) scale(0.6300,0.8400)">
    <path d="M 49.99 2.38 C 55.09,2.38 59.24,5 60.19,8.57 L 68.79 8.57 C 71.33,8.57 73.57,10 73.88,11.9 L 91.72 11.9 C 94.58,11.9 96.81,13.57 96.81,15.71 L 96.81 93.81 C 96.81,95.95 94.58,97.62 91.72,97.62 L 8.28 97.62 C 5.41,97.62 3.18,95.95 3.18,93.81 L 3.18 15.71 C 3.18,13.57 5.41,11.9 8.28,11.9 L 26.11 11.9 C 26.43,10 28.66,8.57 31.21,8.57 L 39.81 8.57 C 40.76,5 44.91,2.38 49.99,2.38 L 49.99 2.38 M 49.99 0 C 44.58,0 39.49,2.62 37.26,6.19 L 30.89 6.19 C 27.71,6.19 24.84,7.62 23.57,9.52 L 8.28 9.52 C 3.5,9.52 0,12.38 0,15.71 L 0 93.81 C 0,97.14 3.5,100 8.28,100 L 91.72 100 C 96.17,100 100,97.14 100,93.81 L 100 15.71 C 100,12.38 96.49,9.52 91.72,9.52 L 76.11 9.52 C 74.84,7.62 71.98,6.19 68.79,6.19 L 62.42 6.19 C 60.51,2.62 55.41,0 49.99,0 L 49.99 0" fill="#FFFFFF" stroke="none" stroke-width="0.5"/>
  </g>
  <g transform="translate(2.00,2.00) scale(0.5900,0.8000)">
    <path d="M 94.57 10 L 75.52 10 C 75.18,8 72.78,6.5 70.07,6.5 L 60.89 6.5 C 59.87,2.75 55.44,0 50,0 C 44.57,0 40.14,2.75 39.12,6.5 L 29.59 6.5 C 26.87,6.5 24.83,8 24.49,10 L 5.44 10 C 2.38,10 0,11.75 0,14 L 0 96 C 0,98.25 2.38,100 5.44,100 L 94.57 100 C 97.62,100 100,98.25 100,96 L 100 14 C 99.66,11.75 97.29,10 94.57,10 L 94.57 10 M 27.89 89.25 L 14.63 79.5 L 27.89 79.5 L 27.89 89.25 L 27.89 89.25 M 12.93 76 L 12.93 19.75 L 24.15 19.75 L 24.15 23.25 L 75.18 23.25 L 75.18 19.75 L 86.39 19.75 L 86.39 90.5 L 32.65 90.5 L 32.65 76 L 12.93 76 L 12.93 76 M 29.25 10.5 C 29.25,10.25 29.25,10 29.59,10 L 43.2 10 L 43.2 8.25 C 43.2,5.5 46.26,3.5 49.66,3.5 C 53.07,3.5 56.12,5.75 56.12,8.25 L 56.12 10 L 69.73 10 C 70.07,10 70.41,10.25 70.41,10.5 L 70.41 19.75 L 29.25 19.75 L 29.25 10.5 L 29.25 10.5 M 95.25 96 C 95.25,96.25 94.91,96.5 94.57,96.5 L 5.44 96.5 C 5.1,96.5 4.76,96.25 4.76,96 L 4.76 14 C 4.76,13.75 5.1,13.5 5.44,13.5 L 24.49 13.5 L 24.49 16.25 L 8.5 16.25 L 8.5 79.75 L 27.89 94 L 91.84 94 L 91.84 16.25 L 75.86 16.25 L 75.86 13.5 L 94.91 13.5 C 95.25,13.5 95.59,13.75 95.59,14 L 95.25 96 L 95.25 96" fill="#2d5967" stroke="none" stroke-width="0.5"/>
  </g>
  <g transform="translate(29.00,7.00) scale(0.0300,0.0300)">
    <path d="M 49.85 0 C 22.16,0 0,22.22 0,50 C 0,77.78 22.16,100 49.85,100 C 77.84,100 100,77.78 100,50 C 100,22.22 72.01,0 49.85,0 L 49.85 0" fill="#2d5967" stroke="none" stroke-width="0.5"/>
  </g>
  <g transform="translate(12.00,51.00) scale(0.3800,0.0200)">
    <path d="M 100 0 L 0 0 L 0 100 L 100 100 L 100 0 L 100 0" fill="#2d5967" stroke="none" stroke-width="0.5"/>
  </g>
  <g transform="translate(12.00,57.00) scale(0.2600,0.0200)">
    <path d="M 100 0 L 0 0 L 0 100 L 100 100 L 100 0 L 100 0" fill="#2d5967" stroke="none" stroke-width="0.5"/>
  </g>
  <g transform="translate(24.00,29.00) scale(0.1300,0.1300)">
    <path d="M 39.39 100 L 60.63 100 L 60.63 59.7 L 100 59.7 L 100 38.81 L 60.63 38.81 L 60.63 0 L 39.39 0 L 39.39 38.81 L 0 38.81 L 0 59.7 L 39.39 59.7 L 39.39 100 L 39.39 100" fill="#2d5967" stroke="none" stroke-width="0.5"/>
  </g>
  <g transform="translate(19.00,24.00) scale(0.2300,0.2300)">
    <path d="M 49.99 100 C 77.98,100 100,77.31 100,50.42 C 100,23.53 77.98,0 49.99,0 C 22.03,0 0,22.69 0,49.58 C 0,76.47 22.03,100 49.99,100 L 49.99 100 M 49.99 11.76 C 71.17,11.76 88.12,28.57 88.12,49.58 C 88.12,70.59 71.17,87.4 49.99,87.4 C 28.81,87.4 11.86,70.59 11.86,49.58 C 11.86,28.57 28.81,11.76 49.99,11.76 L 49.99 11.76" fill="#2d5967" stroke="none" stroke-width="0.5"/>
  </g>
</svg>