<svg xmlns="http://www.w3.org/2000/svg" viewBox="0 0 84.0 109.00000000000027" width="84" height="109">
  <g transform="translate(1.00,0.00) scale(0.8200,0.8200)">
    <path d="M 53.17 100 C 44.39,100 37.07,92.7 37.07,83.94 L 37.07 16.3 C 37.07,10.71 32.44,6.33 27.07,6.33 C 21.71,6.33 16.83,10.71 16.83,16.3 L 16.83 23.11 L 27.56 23.11 L 27.56 50.85 L 16.83 50.85 L 16.83 72.26 L 27.56 72.26 L 27.56 100 L 0 100 L 0 72.26 L 10.73 72.26 L 10.73 50.85 L 0 50.85 L 0 23.11 L 10.73 23.11 L 10.73 16.3 C 10.73,7.3 18.05,0.24 26.83,0.24 C 35.85,0.24 42.93,7.54 42.93,16.3 L 42.93 83.94 C 42.93,89.54 47.56,93.92 52.93,93.92 C 58.29,93.92 62.93,89.54 62.93,83.94 L 62.93 75.18 L 52.44 75.18 L 52.44 47.45 L 63.17 47.45 L 63.17 23.84 C 63.17,18.25 66.83,13.63 72.19,12.17 L 72.19 0 L 100 0 L 100 27.74 L 72.19 27.74 L 72.19 18.73 C 70.49,19.71 69.27,21.65 69.27,23.84 L 69.27 47.69 L 80 47.69 L 80 75.42 L 69.27 75.42 L 69.27 84.18 C 69.27,92.7 61.95,100 53.17,100 L 53.17 100" fill="#FFFFFF" stroke="none" stroke-width="0.5"/>
  </g>
  <g transform="translate(0.00,0.00) scale(0.8400,0.8400)">
    <path d="M 97.62 2.38 L 97.62 27.14 L 72.86 27.14 L 72.86 17.62 C 69.76,18.33 67.62,21.19 67.62,24.29 L 67.62 48.57 L 78.1 48.57 L 78.1 73.33 L 67.62 73.33 L 67.62 83.1 C 67.62,91.19 61.19,97.62 53.1,97.62 C 45,97.62 38.57,91.19 38.57,83.1 L 38.57 16.9 C 38.57,10.95 33.57,5.95 27.62,5.95 C 21.43,5.95 16.43,10.95 16.43,16.9 L 16.43 24.76 L 26.91 24.76 L 26.91 49.52 L 16.43 49.52 L 16.43 72.86 L 26.91 72.86 L 26.91 97.62 L 2.38 97.62 L 2.38 72.86 L 12.86 72.86 L 12.86 49.52 L 2.38 49.52 L 2.38 24.76 L 12.86 24.76 L 12.86 16.9 C 12.86,8.81 19.52,2.38 27.62,2.38 C 35.71,2.38 42.14,8.81 42.14,16.9 L 42.14 83.1 C 42.14,89.05 47.14,94.05 53.1,94.05 C 59.05,94.05 64.05,89.05 64.05,83.1 L 64.05 73.33 L 53.57 73.33 L 53.57 48.57 L 64.05 48.57 L 64.05 24.29 C 64.05,19.05 67.86,14.76 72.86,14.05 L 72.86 2.38 L 97.62 2.38 L 97.62 2.38 M 100 0 L 97.62 0 L 72.86 0 L 70.48 0 L 70.48 2.38 L 70.48 12.14 C 65.24,13.81 61.67,18.81 61.67,24.29 L 61.67 46.19 L 53.57 46.19 L 51.19 46.19 L 51.19 48.57 L 51.19 73.33 L 51.19 75.71 L 53.57 75.71 L 61.67 75.71 L 61.67 83.1 C 61.67,87.86 57.86,91.67 53.1,91.67 C 48.33,91.67 44.52,87.86 44.52,83.1 L 44.52 16.9 C 44.52,7.62 36.91,0 27.62,0 C 18.1,0 10.48,7.62 10.48,16.9 L 10.48 22.38 L 2.38 22.38 L 0 22.38 L 0 24.76 L 0 49.52 L 0 51.9 L 2.38 51.9 L 10.48 51.9 L 10.48 70.48 L 2.38 70.48 L 0 70.48 L 0 72.86 L 0 97.62 L 0 100 L 2.38 100 L 27.14 100 L 29.52 100 L 29.52 97.62 L 29.52 72.86 L 29.52 70.48 L 27.14 70.48 L 18.81 70.48 L 18.81 51.9 L 26.91 51.9 L 29.29 51.9 L 29.29 49.52 L 29.29 24.76 L 29.29 22.38 L 26.91 22.38 L 18.81 22.38 L 18.81 16.9 C 18.81,12.14 22.62,8.33 27.38,8.33 C 32.14,8.33 35.95,12.14 35.95,16.9 L 35.95 83.1 C 35.95,92.38 43.57,100 52.86,100 C 62.14,100 69.76,92.38 69.76,83.1 L 69.76 75.71 L 77.86 75.71 L 80.24 75.71 L 80.24 73.33 L 80.24 48.57 L 80.24 46.19 L 77.86 46.19 L 69.76 46.19 L 69.76 24.29 C 69.76,23.57 70,22.86 70.24,22.14 L 70.24 26.9 L 70.24 29.29 L 72.62 29.29 L 97.62 29.29 L 100 29.29 L 100 26.9 L 100 2.38 L 100 0 L 100 0" fill="#FFFFFF" stroke="none" stroke-width="0.5"/>
  </g>
  <g transform="translate(2.00,2.00) scale(0.8000,0.8000)">
    <path d="M 100 26 L 100 0 L 74 0 L 74 12.25 C 68.75,13 64.75,17.75 64.75,23 L 64.75 48.5 L 53.75 48.5 L 53.75 74.5 L 64.75 74.5 L 64.75 84.75 C 64.75,91 59.5,96.25 53.25,96.25 C 47,96.25 41.75,91 41.75,84.75 L 41.75 15.25 C 41.75,6.75 35,0 26.5,0 C 18,0 11,6.75 11,15.25 L 11 23.5 L 0 23.5 L 0 49.5 L 11 49.5 L 11 74 L 0 74 L 0 100 L 26 100 L 26 74 L 14.75 74 L 14.75 49.5 L 25.75 49.5 L 25.75 23.5 L 14.75 23.5 L 14.75 15.25 C 14.75,9 20,3.75 26.25,3.75 C 32.5,3.75 37.75,9 37.75,15.25 L 37.75 84.75 C 37.75,93.25 44.5,100 53,100 C 61.5,100 68.25,93.25 68.25,84.75 L 68.25 74.5 L 79.25 74.5 L 79.25 48.5 L 68.25 48.5 L 68.25 23 C 68.25,19.5 70.75,16.75 73.75,16 L 73.75 26 C 74,26 100,26 100,26 L 100 26 M 22.25 96.25 L 3.75 96.25 L 3.75 77.75 L 22.25 77.75 L 22.25 96.25 L 22.25 96.25 M 22.25 45.75 L 3.75 45.75 L 3.75 27.25 L 22.25 27.25 L 22.25 45.75 L 22.25 45.75 M 76 70.75 L 57.5 70.75 L 57.5 52.25 L 76 52.25 L 76 70.75 L 76 70.75 M 96.25 3.75 L 96.25 22.25 L 77.75 22.25 L 77.75 3.75 L 96.25 3.75 L 96.25 3.75" fill="#2d5967" stroke="none" stroke-width="0.5"/>
  </g>
</svg>