<svg xmlns="http://www.w3.org/2000/svg" viewBox="0 0 84.0 129.0000000000001" width="84" height="129">
  <g transform="translate(5.00,0.00) scale(0.8000,0.7900)">
    <path d="M 0 84.17 L 9.03 75.11 C 11.75,72.4 14.67,69.88 17.76,67.59 L 27.17 60.54 C 22.03,52.38 20.09,42.62 21.7,33.12 C 23.3,23.62 28.36,15.05 35.89,9.04 C 43.41,3.02 52.9,0 62.52,0.54 C 72.14,1.08 81.23,5.14 88.04,11.95 C 94.86,18.77 98.92,27.85 99.46,37.47 C 100,47.1 96.97,56.58 90.96,64.11 C 84.95,71.64 76.37,76.69 66.87,78.3 C 57.37,79.91 47.61,77.96 39.46,72.83 L 32.38 82.24 C 30.09,85.32 27.57,88.23 24.86,90.94 L 15.82 100 L 0 84.17 L 0 84.17" fill="#FFFFFF" stroke="none" stroke-width="0.5"/>
  </g>
  <g transform="translate(4.00,0.00) scale(0.8200,0.8200)">
    <path d="M 60.56 2.45 C 66.34,2.45 72.05,3.8 77.21,6.41 C 82.37,9.01 86.86,12.79 90.3,17.43 C 93.75,22.08 96.05,27.47 97.03,33.17 C 98.01,38.87 97.63,44.72 95.95,50.25 C 94.26,55.78 91.3,60.84 87.3,65.02 C 83.31,69.2 78.38,72.39 72.94,74.32 C 67.48,76.26 61.65,76.89 55.91,76.16 C 50.17,75.44 44.69,73.38 39.89,70.15 L 38.21 72.4 L 32.31 80.24 C 30.07,83.19 27.62,85.98 24.99,88.59 L 17.13 96.53 L 3.44 82.88 L 11.4 74.94 C 14,72.29 16.79,69.84 19.77,67.61 L 27.6 61.73 L 29.83 60.06 C 26.08,54.5 23.94,48.02 23.6,41.32 C 23.27,34.62 24.75,27.96 27.9,22.04 C 31.06,16.12 35.76,11.17 41.51,7.72 C 47.27,4.27 53.85,2.45 60.56,2.45 L 60.56 2.45 M 60.56 0 C 53.6,0 46.76,1.84 40.74,5.34 C 34.72,8.83 29.73,13.85 26.28,19.9 C 22.83,25.94 21.03,32.79 21.08,39.75 C 21.13,46.71 23.02,53.53 26.55,59.53 L 26.14 59.84 L 18.3 65.73 C 15.24,68.03 12.35,70.56 9.68,73.28 L 1.74 81.14 L 0 82.88 L 1.74 84.61 L 15.39 98.27 L 17.13 100 L 18.84 98.27 L 26.79 90.38 C 29.47,87.68 31.96,84.8 34.24,81.75 L 40.14 73.91 L 40.48 73.47 C 46.47,77.02 53.3,78.92 60.26,78.97 C 67.22,79.02 74.08,77.23 80.13,73.77 C 86.18,70.31 91.2,65.32 94.69,59.29 C 98.17,53.26 100,46.41 99.99,39.45 C 100,34.27 98.98,29.14 97,24.35 C 95.02,19.57 92.11,15.22 88.46,11.55 C 84.79,7.89 80.44,4.98 75.65,3 C 70.87,1.02 65.74,0 60.56,0 L 60.56 0" fill="#FFFFFF" stroke="none" stroke-width="0.5"/>
  </g>
  <g transform="translate(3.00,68.00) scale(0.1500,0.1500)">
    <path d="M 56.81 90.66 L 9.34 43.2 L 0 15.2 L 15.24 0 L 100 84.93 L 84.83 100 L 56.81 90.66 L 56.81 90.66" fill="#FFFFFF" stroke="none" stroke-width="0.5"/>
  </g>
  <g transform="translate(2.00,66.00) scale(0.1700,0.1700)">
    <path d="M 19.5 16.36 L 83.8 80.25 L 77.44 86.57 L 58.07 80.14 L 19.5 41.42 L 12.96 22.23 L 19.5 15.91 L 19.5 16.36 L 19.5 16.36 M 19.5 0 L 11.4 7.9 L 5.04 14.33 L 0 19.75 L 2.28 26.3 L 8.64 45.48 L 9.54 47.97 L 11.4 49.89 L 50.09 88.15 L 51.95 90.07 L 54.53 90.86 L 73.79 97.86 L 80.5 100 L 85.54 95.15 L 91.9 88.71 L 100 80.82 L 91.9 72.8 L 27.53 8.35 L 19.5 0.45 L 19.5 0 L 19.5 0" fill="#FFFFFF" stroke="none" stroke-width="0.5"/>
  </g>
  <g transform="translate(7.00,1.00) scale(0.7800,0.7800)">
    <path d="M 60.12 78.86 C 68.82,78.85 77.26,75.94 84.1,70.58 C 90.95,65.23 95.8,57.74 97.9,49.3 C 100,40.86 99.23,31.97 95.68,24.03 C 92.14,16.08 86.06,9.55 78.38,5.48 C 70.7,1.4 61.89,0 53.33,1.51 C 44.78,3.02 36.96,7.35 31.15,13.81 C 25.33,20.27 21.85,28.49 21.24,37.17 C 20.63,45.84 22.94,54.47 27.81,61.67 L 25.46 63.42 L 17.19 69.62 C 14.06,71.98 11.11,74.55 8.36,77.34 L 0 85.62 L 14.41 100 L 22.77 91.64 C 25.53,88.89 28.11,85.95 30.48,82.84 L 36.68 74.59 L 38.45 72.22 C 44.85,76.54 52.4,78.85 60.12,78.86 L 60.12 78.86 M 84.91 15.07 C 89.81,19.97 93.16,26.22 94.51,33.03 C 95.87,39.84 95.16,46.89 92.51,53.3 C 89.86,59.71 85.36,65.19 79.6,69.05 C 73.83,72.9 67.05,74.96 60.11,74.96 C 53.18,74.96 46.39,72.9 40.62,69.05 C 34.86,65.19 30.37,59.71 27.71,53.3 C 25.06,46.89 24.35,39.84 25.71,33.03 C 27.06,26.22 30.41,19.97 35.31,15.07 C 41.89,8.5 50.82,4.81 60.11,4.81 C 69.4,4.81 78.33,8.5 84.91,15.07 L 84.91 15.07 M 33.48 72.25 L 27.29 80.5 C 25.06,83.46 22.63,86.26 20.01,88.89 L 14.41 94.5 L 5.54 85.62 L 11.27 80.01 C 13.88,77.38 16.69,74.95 19.65,72.73 L 27.9 66.53 L 30.25 64.79 C 31.02,65.71 31.82,66.59 32.68,67.36 C 33.5,68.21 34.36,69.02 35.26,69.78 L 33.48 72.25 L 33.48 72.25" fill="#2d5967" stroke="none" stroke-width="0.5"/>
  </g>
  <g transform="translate(29.00,7.00) scale(0.4900,0.5000)">
    <path d="M 14.69 84.67 C 21.68,91.53 30.59,96.21 40.27,98.1 C 49.97,100 60.03,99.03 69.15,95.32 C 78.28,91.61 86.09,85.32 91.59,77.26 C 97.08,69.19 100,59.7 100,50 C 100,40.3 97.08,30.81 91.59,22.74 C 86.09,14.68 78.28,8.39 69.15,4.68 C 60.03,0.97 49.97,0 40.27,1.9 C 30.59,3.79 21.68,8.47 14.69,15.33 C 10.04,19.87 6.35,25.28 3.81,31.22 C 1.29,37.17 0,43.56 0,50 C 0,56.44 1.29,62.83 3.81,68.78 C 6.35,74.72 10.04,80.13 14.69,84.67 L 14.69 84.67 M 81.03 80.4 C 73.2,88.05 62.71,92.52 51.68,92.91 C 40.63,93.3 29.85,89.59 21.49,82.52 C 13.11,75.45 7.77,65.54 6.52,54.76 C 5.27,43.99 8.19,33.15 14.74,24.41 C 15.9,26.77 17.7,28.76 19.94,30.15 C 22.21,31.55 24.81,32.29 27.48,32.3 L 28.88 32.3 L 34.77 50.02 C 32.71,51.18 31,52.83 29.77,54.81 C 28.54,56.78 27.82,59.03 27.69,61.35 C 27.57,63.66 28.05,65.97 29.07,68.07 C 30.09,70.16 31.61,71.97 33.52,73.33 C 35.42,74.7 37.65,75.57 40,75.88 C 42.35,76.19 44.72,75.91 46.92,75.09 C 49.14,74.26 51.09,72.91 52.64,71.15 C 54.18,69.39 55.24,67.28 55.75,65.01 L 74.72 65.01 C 75.29,67.57 76.6,69.91 78.47,71.78 C 80.35,73.64 82.72,74.95 85.33,75.55 C 84.01,77.28 82.57,78.9 81.03,80.4 L 81.03 80.4 M 50.03 6.97 C 54.1,6.99 58.16,7.55 62.08,8.63 L 62.08 16.52 C 60.17,16.93 58.37,17.73 56.79,18.86 C 55.2,19.99 53.86,21.44 52.89,23.11 L 41.5 19.52 C 41.5,19.08 41.5,18.65 41.5,18.21 C 41.5,16.3 41.1,14.4 40.31,12.65 L 48.34 6.85 L 50.03 6.97 L 50.03 6.97 M 88.61 69.87 C 87.02,69.87 85.43,69.41 84.12,68.53 C 82.79,67.65 81.75,66.4 81.13,64.94 C 80.73,63.99 80.54,62.97 80.54,61.94 C 80.54,60.91 80.73,59.89 81.13,58.94 C 81.3,58.51 81.49,58.1 81.75,57.71 C 82.87,55.97 84.65,54.72 86.68,54.24 C 87.13,54.12 87.57,54.05 88.02,54.04 L 88.61 54.04 C 89.46,54.03 90.3,54.17 91.11,54.44 C 91.95,54.72 92.76,55.13 93.48,55.66 C 92.82,60.63 91.28,65.45 88.95,69.91 L 88.61 69.87 L 88.61 69.87 M 89.99 48.09 L 88.61 48.09 C 86.68,48.1 84.78,48.48 83,49.23 L 75.84 39.52 C 78.13,36.96 79.4,33.67 79.42,30.25 C 79.42,29.82 79.42,29.38 79.42,28.95 L 86.85 26.62 C 89.58,30.71 91.55,35.24 92.67,40 L 89.99 48.09 L 89.99 48.09 M 47.58 49.15 C 45.8,48.41 43.89,48.02 41.94,48.01 L 40.59 48.01 L 34.72 30.29 C 36.82,29.07 38.56,27.34 39.78,25.28 L 51.15 28.87 C 51.15,29.3 51.15,29.74 51.15,30.17 C 51.15,33.58 52.42,36.86 54.73,39.4 L 47.58 49.15 L 47.58 49.15 M 50.03 61.94 C 50.01,62.96 49.82,63.98 49.42,64.94 C 48.72,66.63 47.43,68.02 45.8,68.89 C 44.15,69.75 42.26,70.03 40.44,69.68 C 38.6,69.33 36.97,68.36 35.78,66.95 C 34.6,65.54 33.96,63.76 33.96,61.94 C 33.94,60.78 34.19,59.64 34.68,58.59 C 35.19,57.54 35.91,56.61 36.8,55.86 C 37.62,55.21 38.53,54.72 39.53,54.4 C 40.33,54.13 41.18,53.99 42.03,54.01 L 42.64 54.01 C 43.07,54.01 43.51,54.08 43.91,54.2 C 44.93,54.43 45.9,54.86 46.73,55.47 C 47.58,56.08 48.32,56.84 48.87,57.71 C 49.12,58.08 49.33,58.48 49.5,58.9 C 49.86,59.87 50.05,60.9 50.03,61.94 L 50.03 61.94 M 59.64 43.04 C 61.42,43.78 63.35,44.17 65.3,44.18 C 67.25,44.19 69.15,43.8 70.93,43.04 L 78.17 52.66 C 76.54,54.45 75.42,56.61 74.87,58.94 L 55.75 58.94 C 55.22,56.62 54.1,54.47 52.49,52.7 L 59.64 43.04 L 59.64 43.04 M 57.19 30.25 C 57.19,28.39 57.84,26.58 59.07,25.16 C 59.88,24.18 60.91,23.41 62.08,22.91 C 64.03,22.13 66.21,22.13 68.16,22.91 C 69.38,23.39 70.48,24.16 71.33,25.16 C 72.56,26.58 73.22,28.39 73.22,30.25 C 73.22,30.25 73.22,30.64 73.22,30.88 C 73.13,32.16 72.71,33.39 72.01,34.47 C 70.89,36.22 69.13,37.47 67.08,37.94 C 66.46,38.1 65.83,38.18 65.19,38.18 C 64.54,38.19 63.88,38.11 63.26,37.94 C 61.21,37.46 59.43,36.2 58.31,34.43 C 57.63,33.36 57.21,32.14 57.1,30.88 C 57.19,30.68 57.15,30.45 57.15,30.25 L 57.19 30.25 L 57.19 30.25 M 77.51 23.27 C 76.54,21.6 75.21,20.15 73.64,19.02 C 72.05,17.88 70.23,17.09 68.33,16.68 L 68.33 10.87 C 73.07,12.99 77.39,15.93 81.07,19.56 C 81.71,20.19 82.34,20.86 82.96,21.57 L 77.51 23.27 L 77.51 23.27 M 31.78 11.43 C 32.65,12.1 33.39,12.93 33.96,13.87 C 34.55,14.7 35,15.64 35.23,16.64 C 35.38,17.02 35.49,17.42 35.55,17.82 C 35.55,17.82 35.55,18.21 35.55,18.41 C 35.55,20.28 34.87,22.08 33.62,23.5 C 33.35,23.86 33.01,24.19 32.67,24.49 C 31.87,25.13 30.95,25.63 29.98,25.95 C 29.16,26.22 28.31,26.35 27.44,26.34 L 26.87 26.34 C 24.96,26.22 23.16,25.43 21.79,24.11 C 20.41,22.79 19.56,21.04 19.39,19.16 C 22.76,15.93 26.66,13.27 30.89,11.27 C 31.19,11.36 31.46,11.48 31.74,11.62 L 31.78 11.43 L 31.78 11.43" fill="#2d5967" stroke="none" stroke-width="0.5"/>
  </g>
  <g transform="translate(4.00,69.00) scale(0.1200,0.1200)">
    <path d="M 9.21 0 L 0 9 L 9.21 36.34 L 63.57 90.84 L 90.87 100 L 100 91 L 9.21 0 L 9.21 0" fill="#2d5967" stroke="none" stroke-width="0.5"/>
  </g>
</svg>