<svg xmlns="http://www.w3.org/2000/svg" viewBox="0 0 84.0 117.00000000000014" width="84" height="117">
  <g transform="translate(10.00,0.00) scale(0.8200,0.7100)">
    <path d="M 46.61 100 C 40.04,100 33.69,99.27 29.02,98.05 C 22.88,96.34 19.7,93.66 19.7,90 L 19.7 54.63 L 0 54.63 L 0.21 50.98 C 0.85,41.95 5.3,34.15 12.29,30 C 13.77,29.02 14.83,27.56 15.25,25.61 C 16.31,19.27 20.13,13.9 25.21,11.46 C 27.33,10.49 29.66,9.76 32.2,9.76 C 32.63,9.76 33.26,9.76 33.9,9.76 C 34.11,9.76 34.32,9.76 34.53,9.76 C 36.02,9.76 37.5,9.02 38.35,7.8 C 41.95,3.17 46.82,0.49 52.12,0 L 54.24 0 C 62.08,0.24 69.07,5.37 72.46,13.41 C 72.67,13.9 73.09,14.63 73.52,15.12 C 73.94,15.85 74.79,17.07 75.21,18.05 C 81.57,18.29 87.29,22.19 90.68,28.29 L 90.68 28.54 L 91.31 32.2 L 100 42.19 L 95.76 47.07 L 93.01 43.9 C 91.31,54.15 83.48,61.71 74.15,61.71 C 73.94,61.71 73.52,61.71 73.31,61.71 L 73.31 89.76 C 73.31,93.41 70.34,96.1 63.98,97.8 C 59.53,99.27 53.18,100 46.61,100 L 46.61 100" fill="#FFFFFF" stroke="none" stroke-width="0.5"/>
  </g>
  <g transform="translate(10.00,0.00) scale(0.8400,0.7300)">
    <path d="M 53.1 2.38 C 60.54,2.38 67.15,7.14 70.46,14.76 C 70.87,15.48 71.08,16.19 71.69,16.67 C 72.11,17.38 72.93,18.81 73.55,19.76 C 79.75,19.76 85.33,23.57 88.43,29.29 L 89.26 33.1 L 97.31 42.38 L 94.63 45.48 L 91.12 41.43 C 90.5,51.9 82.85,60.24 73.55,60.24 C 72.93,60.24 72.31,60.24 71.69,60 L 71.69 88.81 C 71.69,91.67 69.01,94.05 63.43,95.48 C 58.88,96.67 52.89,97.38 46.49,97.38 C 40.08,97.38 34.09,96.67 29.55,95.48 C 23.97,94.05 21.28,91.67 21.28,88.81 L 21.28 53.1 L 2.27 53.1 L 2.48 50.71 C 3.1,42.38 7.23,35 13.64,31.19 C 15.29,30.48 16.53,28.57 16.94,26.43 C 17.98,20.71 21.28,15.71 26.03,13.33 C 28.1,12.38 30.17,11.9 32.44,11.9 C 32.85,11.9 33.47,11.9 33.88,11.9 C 34.09,11.9 34.3,11.9 34.5,11.9 C 36.16,11.9 37.81,11.19 39.05,9.76 C 42.56,5.24 47.52,2.86 52.69,2.62 L 52.69 4.76 L 52.69 2.62 C 52.69,2.38 52.89,2.38 53.1,2.38 L 53.1 2.38 M 54.55 0 L 52.48 0 L 50.41 0 L 50.41 0.24 C 45.46,0.95 40.7,3.57 37.19,7.86 C 36.57,9.05 35.54,9.52 34.3,9.52 C 34.09,9.52 34.09,9.52 33.88,9.52 C 33.27,9.52 32.85,9.52 32.23,9.52 C 29.75,9.52 27.27,10.24 25,11.19 C 19.63,13.81 15.91,19.29 14.67,25.95 C 14.46,27.38 13.64,28.81 12.4,29.52 C 5.37,33.81 0.83,41.9 0.21,50.95 L 0 53.33 L 0 55.71 L 2.27 55.71 L 19.22 55.71 L 19.22 89.05 C 19.22,95.24 26.65,97.38 29.13,98.1 C 33.88,99.29 40.08,100 46.49,100 C 53.1,100 59.09,99.29 63.84,98.1 C 66.32,97.38 73.76,95.48 73.76,89.05 L 73.76 62.86 C 82.44,62.86 90.08,55.95 92.36,46.43 L 92.98 47.14 L 94.42 48.81 L 95.87 47.14 L 98.55 44.05 L 100 42.38 L 98.55 40.71 L 90.91 31.9 L 90.29 28.81 L 90.29 28.33 L 90.08 28.1 C 86.78,21.9 80.99,17.86 74.59,17.38 C 74.17,16.67 73.55,15.71 73.35,15.24 L 73.35 15 L 73.14 14.76 C 72.93,14.76 72.52,14.29 72.31,13.81 C 69.01,5.71 62.19,0.71 54.55,0 L 54.55 0" fill="#FFFFFF" stroke="none" stroke-width="0.5"/>
  </g>
  <g transform="translate(11.00,1.00) scale(0.8000,0.6900)">
    <path d="M 4.35 48.75 L 16.96 48.75 L 16.96 53.25 L 0 53.25 L 0.22 50.75 C 0.87,42 5.22,34.25 11.96,30.25 C 13.7,29.25 15,27.25 15.44,25 C 16.52,19 20,13.75 25,11.25 C 27.39,9.75 30.22,9.25 33.04,9.75 C 35.22,10 37.17,9.25 38.48,7.5 C 42.17,2.75 47.39,0.25 52.83,0 C 53.04,0 53.26,0 53.26,0 C 61.09,0 68.04,5 71.52,13 C 71.96,13.75 72.17,14.5 72.83,15 C 71.3,15.25 69.78,15.5 68.48,16 C 68.26,15.75 68.26,15.5 68.04,15 C 65.22,8.5 59.56,4.5 53.26,4.5 C 53.04,4.5 53.04,4.5 52.83,4.5 C 48.48,4.5 44.13,6.75 41.09,10.5 C 38.91,13.25 35.65,14.75 32.39,14.25 C 30.22,14 28.26,14.5 26.09,15.5 C 22.39,17.5 19.57,21.25 18.91,26 C 18.26,29.75 16.3,32.75 13.26,34.5 C 8.7,37.25 5.43,42.5 4.35,48.75 L 4.35 48.75 M 73.04 27.25 L 76.96 27.25 L 82.39 49.5 L 78.04 49.5 L 77.39 44.75 L 72.61 44.75 L 71.52 49.5 L 67.39 49.5 L 73.04 27.25 L 73.04 27.25 M 73.26 41 L 76.52 41 L 74.78 32.75 L 73.26 41 L 73.26 41 M 56.52 38 L 52.83 33.75 L 50 37 L 58.48 46.75 L 66.96 37 L 64.13 33.75 L 60.65 37.75 C 61.3,29.25 67.61,22.75 75,22.75 C 80.43,22.75 85.22,26.25 87.83,31.5 L 90.65 28.25 C 87.39,22.25 81.52,18.25 75,18.25 C 65.22,18.25 57.17,27 56.52,38 L 56.52 38 M 100 41.75 L 91.52 32.25 L 83.04 42 L 85.87 45.25 L 89.35 41.25 C 88.7,49.75 82.39,56.25 75,56.25 C 69.57,56.25 64.78,52.75 62.17,47.5 L 59.35 50.75 C 62.61,56.75 68.48,60.75 75,60.75 C 84.78,60.75 92.83,52 93.48,41 L 97.17 45.25 L 100 41.75 L 100 41.75 M 68.91 63.75 C 70.22,64.25 71.52,64.5 72.83,64.75 L 72.83 91 C 72.83,94 70,96.5 64.13,98 C 59.35,99.25 53.04,100 46.3,100 C 39.57,100 33.26,99.25 28.48,98 C 22.61,96.5 19.78,94 19.78,91 L 19.78 41.75 C 19.78,38.75 22.61,36.5 28.48,35 C 33.04,33.75 39.35,33.25 46.3,33.25 C 46.52,33.25 46.96,33.25 47.39,33.25 L 47.39 37.75 C 47.17,37.75 46.74,37.75 46.3,37.75 C 31.96,37.75 24.78,40.5 23.91,42 L 23.91 42.25 C 24.78,44 33.04,46.75 46.3,46.75 C 49.13,46.75 51.52,46.75 53.91,46.5 C 54.35,48 54.78,49.5 55.44,51 C 52.61,51.25 49.57,51.5 46.3,51.5 C 39.57,51.5 33.26,50.75 28.48,49.5 C 26.52,49 25,48.5 23.7,47.75 L 23.7 58.5 C 24.57,60.25 32.83,63 46.09,63 C 53.48,63 59.35,62 63.26,61 C 65.22,62 66.96,63 68.91,63.75 C 67.61,64.5 66.09,65 64.13,65.5 C 59.35,66.75 53.04,67.5 46.3,67.5 C 39.57,67.5 33.26,66.75 28.48,65.5 C 26.52,65 25,64.5 23.7,63.75 L 23.7 74.5 C 24.57,76.25 32.83,79 46.09,79 C 59.35,79 67.61,76 68.48,74.5 L 68.91 63.75 L 68.91 63.75 M 68.91 80 C 67.61,80.75 66.09,81.25 64.13,81.75 C 59.35,83 53.04,83.75 46.3,83.75 C 39.57,83.75 33.26,83 28.48,81.75 C 26.52,81.25 25,80.75 23.7,80 L 23.7 90.75 C 24.57,92.25 31.96,95.25 46.09,95.25 C 60.22,95.25 67.83,92 68.48,90.75 L 68.91 80 L 68.91 80" fill="#2d5967" stroke="none" stroke-width="0.5"/>
  </g>
</svg>