<svg xmlns="http://www.w3.org/2000/svg" viewBox="0 0 79.0 109.00000000000027" width="79" height="109">
  <g transform="translate(20.00,5.00) scale(0.2000,0.1300)">
    <path d="M 65.69 95.59 L 100 50 L 100 0 L 0 0 L 0 100 L 33.33 51.47 L 65.69 95.59 L 65.69 95.59" fill="#FFFFFF" stroke="none" stroke-width="0.5"/>
  </g>
  <g transform="translate(19.00,71.00) scale(0.0600,0.0600)">
    <path d="M 100 100 L 100 0 L 0 0 C 9.1,51.51 48.49,90.91 100,100 L 100 100" fill="#FFFFFF" stroke="none" stroke-width="0.5"/>
  </g>
  <g transform="translate(17.00,2.00) scale(0.2600,0.2600)">
    <path d="M 69.18 88.06 L 11.28 88.06 L 11.28 76.87 L 12.03 77.61 L 37.6 52.98 L 62.4 75.37 L 88.72 51.49 L 88.72 74.63 C 92.48,72.39 96.24,70.9 100,69.4 L 100 0 L 0 0 L 0 100 L 58.65 100 C 60.9,97.02 63.91,94.03 66.17,91.05 C 67.67,89.55 68.42,88.81 69.18,88.06 L 69.18 88.06 M 11.28 11.19 L 87.97 11.19 L 87.97 36.57 L 61.65 59.7 L 36.84 37.31 L 11.28 61.94 L 11.28 11.19 L 11.28 11.19" fill="#2c5967" stroke="none" stroke-width="0.5"/>
  </g>
  <g transform="translate(21.00,53.00) scale(0.2200,0.2200)">
    <path d="M 85.96 49.56 C 85.96,67.26 72.81,82.3 56.14,85.84 L 56.14 52.21 L 70.18 38.05 C 66.67,35.4 63.16,32.74 59.65,29.2 L 46.49 42.48 L 14.04 42.48 C 16.67,26.55 29.82,14.16 46.49,12.39 C 43.86,7.96 41.23,4.42 39.48,0 C 16.67,4.42 0,24.78 0,49.56 L 0 56.64 L 42.98 56.64 L 42.98 100 L 50 100 C 76.32,100 97.37,79.64 100,53.98 C 95.61,52.21 91.23,50.44 86.84,48.67 C 85.96,48.67 85.96,48.67 85.96,49.56 L 85.96 49.56" fill="#2c5967" stroke="none" stroke-width="0.5"/>
  </g>
  <g transform="translate(16.00,67.00) scale(0.1300,0.1300)">
    <path d="M 0 12.31 C 0,60 38.46,100 87.69,100 L 100 100 L 100 0 L 0 0 L 0 12.31 L 0 12.31 M 75.39 24.62 L 75.39 75.39 C 49.24,70.77 29.24,50.77 24.62,24.62 L 75.39 24.62 L 75.39 24.62" fill="#2c5967" stroke="none" stroke-width="0.5"/>
  </g>
  <g transform="translate(59.00,2.00) scale(0.2600,0.2600)">
    <path d="M 11.94 11.28 L 88.06 11.28 L 88.06 88.72 L 77.61 88.72 L 77.61 28.57 L 65.67 28.57 L 65.67 88.72 L 55.97 88.72 L 55.97 43.61 L 43.29 43.61 L 43.29 88.72 L 34.33 88.72 L 34.33 59.4 L 22.39 59.4 L 22.39 81.2 C 26.86,84.21 30.6,87.22 34.33,90.98 C 37.32,93.98 39.55,96.99 42.54,100 L 100 100 L 100 0 L 0 0 L 0 70.68 C 3.73,72.18 7.46,73.68 11.19,75.19 L 11.19 11.28 L 11.94 11.28 L 11.94 11.28" fill="#2c5967" stroke="none" stroke-width="0.5"/>
  </g>
  <g transform="translate(32.00,25.00) scale(0.3700,0.3500)">
    <path d="M 86.1 85.88 C 95.19,76.27 100,63.84 100,50.28 C 100,36.72 95.19,24.29 86.1,14.69 C 77.01,5.08 65.24,0 52.41,0 C 39.57,0 27.81,5.08 18.72,14.69 C 0,34.46 0,66.1 18.72,85.31 C 27.81,94.92 39.57,100 52.41,100 C 65.24,100 77.01,94.92 86.1,85.88 L 86.1 85.88" fill="#FFFFFF" stroke="none" stroke-width="0.5"/>
  </g>
  <g transform="translate(64.00,55.00) scale(0.1900,0.1900)">
    <path d="M 56.84 26.31 L 21.05 0 C 17.9,4.21 14.74,8.42 10.52,12.63 C 7.36,15.79 4.21,18.95 0,22.1 L 28.42 60 C 35.79,70.52 40,74.73 49.47,84.21 L 65.26 100 L 100 65.26 L 90.53 55.79 C 78.95,45.26 68.42,34.74 56.84,26.31 L 56.84 26.31" fill="#FFFFFF" stroke="none" stroke-width="0.5"/>
  </g>
  <g transform="translate(14.00,0.00) scale(0.7900,0.8400)">
    <path d="M 98.48 81.71 L 97.22 80.52 L 95.2 78.62 L 90.15 73.87 C 87.37,71.26 84.6,68.88 81.56,66.75 L 74.24 61.76 C 75.76,58.43 76.52,54.63 76.52,51.07 C 76.52,46.08 75.25,41.33 72.47,37.29 L 89.9 37.29 L 92.93 37.29 L 92.93 34.44 L 92.93 2.85 L 92.93 0 L 89.9 0 L 56.57 0 L 53.53 0 L 53.53 2.85 L 53.53 24.47 C 51.51,23.99 49.5,23.75 47.22,23.75 C 44.95,23.75 42.68,23.99 40.66,24.47 L 40.66 2.85 L 40.66 0 L 37.88 0 L 4.55 0 L 1.52 0 L 1.52 2.85 L 1.52 34.68 L 1.52 37.53 L 4.55 37.53 L 22.47 37.53 C 19.95,41.57 18.44,46.32 18.44,51.31 C 18.44,54.39 18.94,57.48 19.95,60.33 C 12.37,62 6.82,68.41 6.82,76.01 L 6.82 77.91 L 3.03 77.91 L 0 77.91 L 0 80.76 L 0 82.66 C 0,91.69 7.83,98.81 17.17,98.81 L 19.19 98.81 L 22.22 98.81 L 22.22 95.96 L 22.22 92.4 L 24.24 92.4 C 33.08,92.4 40.4,86.22 41.41,78.15 C 43.43,78.62 45.45,78.86 47.73,78.86 C 51.77,78.86 56.06,77.91 59.85,76.49 L 65.4 83.37 C 67.17,85.75 68.43,87.17 70.96,89.55 L 77.53 95.73 L 79.55 97.63 L 80.81 98.81 L 82.07 100 L 83.84 99.53 L 87.88 98.34 L 88.64 98.1 L 89.14 97.63 L 97.47 89.79 L 97.98 89.31 L 98.23 88.6 L 99.49 84.8 L 100 83.14 L 98.48 81.71 L 98.48 81.71 M 56.57 2.85 L 90.15 2.85 L 90.15 34.68 L 70.71 34.68 C 69.95,33.73 68.94,32.78 67.93,31.83 C 66.67,30.64 65.4,29.69 63.89,28.74 L 63.89 21.62 L 68.18 21.62 L 68.18 30.88 L 71.46 30.88 L 71.46 16.63 L 75.76 16.63 L 75.76 30.88 L 79.04 30.88 L 79.04 11.88 L 83.08 11.88 L 83.08 30.88 L 86.62 30.88 L 86.62 6.41 L 60.61 6.41 L 60.61 26.6 C 59.34,26.13 58.08,25.42 56.82,25.18 L 56.82 2.85 L 56.57 2.85 L 56.57 2.85 M 4.55 34.44 L 4.55 2.85 L 37.88 2.85 L 37.88 25.18 C 36.62,25.65 35.35,26.13 34.09,26.84 L 34.09 19.24 L 25.25 26.84 L 16.92 19.72 L 8.33 27.55 L 8.08 27.32 L 8.08 30.88 L 27.78 30.88 C 27.53,31.12 27.27,31.35 26.77,31.59 C 25.76,32.54 25,33.49 24.24,34.44 L 4.55 34.44 L 4.55 34.44 M 19.19 95.73 L 17.17 95.73 C 9.34,95.73 2.78,89.79 2.78,82.19 L 2.78 80.29 L 19.19 80.29 L 19.19 95.73 L 19.19 95.73 M 23.99 89.31 L 22.22 89.31 L 22.22 77.67 L 9.6 77.67 L 9.6 76.01 C 9.6,69.6 14.39,64.13 20.96,62.71 C 21.46,63.9 22.22,65.08 22.98,66.03 C 18.18,66.51 14.39,69.83 13.64,74.11 L 23.23 74.11 L 27.02 70.55 C 28.03,71.5 29.04,72.21 30.05,72.92 L 26.01 76.72 L 26.01 85.51 C 30.81,84.56 34.6,80.52 34.6,75.77 L 34.6 75.54 C 35.86,76.01 37.12,76.72 38.38,76.96 C 37.63,84.09 31.57,89.31 23.99,89.31 L 23.99 89.31 M 79.29 93.35 L 72.73 87.17 C 70.2,84.8 69.19,83.61 67.42,81.24 L 60.61 72.45 C 56.82,74.58 52.27,75.54 47.73,75.54 C 47.22,75.54 46.97,75.54 46.47,75.54 C 46.21,75.54 46.21,75.54 45.96,75.54 C 45.71,75.54 45.45,75.54 45.2,75.54 C 44.95,75.54 44.7,75.54 44.44,75.54 C 44.19,75.54 44.19,75.54 43.94,75.54 C 43.69,75.54 43.43,75.54 43.18,75.54 C 42.93,75.54 42.93,75.54 42.68,75.54 C 42.42,75.54 42.17,75.54 41.92,75.3 L 41.67 75.3 C 40.15,75.06 38.64,74.58 37.37,73.87 C 36.87,73.63 36.62,73.63 36.11,73.4 C 34.6,72.68 33.08,71.73 31.57,70.78 L 31.31 70.55 C 31.06,70.31 31.06,70.31 30.81,70.07 L 30.56 69.83 C 30.05,69.6 29.8,69.12 29.29,68.88 C 29.29,68.88 29.29,68.88 29.04,68.65 C 27.53,67.22 26.01,65.32 25,63.66 C 24.24,62.47 23.74,61.28 23.23,59.86 C 23.23,59.86 23.23,59.86 23.23,59.62 C 22.73,59.38 22.73,59.14 22.73,59.14 C 22.73,58.91 22.73,58.91 22.47,58.67 C 22.47,58.43 22.22,57.96 22.22,57.72 C 22.22,57.48 22.22,57.48 21.97,57.24 C 21.97,57.01 21.97,56.77 21.72,56.77 C 21.72,56.53 21.72,56.53 21.72,56.29 C 21.72,56.06 21.72,55.82 21.72,55.82 C 21.72,55.58 21.72,55.58 21.72,55.34 C 21.72,55.11 21.72,55.11 21.72,54.87 C 21.72,54.63 21.72,54.16 21.72,53.92 C 21.72,53.68 21.72,53.68 21.72,53.44 C 21.72,53.21 21.72,52.97 21.72,52.97 C 21.72,52.73 21.72,52.73 21.72,52.49 C 21.72,52.26 21.72,52.02 21.72,52.02 C 21.72,51.78 21.72,51.78 21.72,51.54 C 21.72,51.31 21.72,51.07 21.72,50.83 C 21.72,50.59 21.72,50.36 21.72,50.12 C 21.72,49.88 21.72,49.64 21.72,49.41 C 21.72,49.17 21.72,49.17 21.72,48.93 C 21.72,48.69 21.72,48.46 21.72,48.22 C 21.72,47.98 21.72,47.98 21.72,47.74 C 21.72,47.51 21.72,47.27 21.72,47.03 C 21.72,46.79 21.72,46.79 21.72,46.56 C 21.72,46.32 21.97,45.84 21.97,45.61 C 21.97,45.37 21.97,45.37 21.97,45.13 C 21.97,44.89 21.97,44.66 22.22,44.42 C 22.22,44.18 22.22,44.18 22.47,43.94 C 22.47,43.71 22.73,43.47 22.73,43.23 C 22.73,42.99 22.73,42.76 22.73,42.76 C 22.73,42.52 22.98,42.28 22.98,42.04 C 22.98,42.04 22.98,41.81 23.23,41.81 C 23.48,41.57 23.48,41.33 23.74,40.86 C 23.74,40.62 23.74,40.62 23.99,40.38 C 23.99,40.14 24.24,39.91 24.24,39.67 C 24.24,39.43 24.49,39.43 24.49,39.19 C 24.49,38.95 24.75,38.72 25,38.48 C 25,38.48 25,38.24 25.25,38.24 C 25.51,38 25.76,37.53 25.76,37.29 L 26.01 37.05 C 27.02,35.87 28.03,34.44 29.29,33.49 C 29.55,33.25 29.8,33.02 30.05,32.78 C 30.3,32.54 30.56,32.54 30.56,32.3 L 30.81 32.07 C 31.06,31.83 31.31,31.59 31.57,31.35 C 32.32,30.64 33.33,30.17 34.09,29.69 C 34.6,29.45 35.35,28.98 35.86,28.74 C 36.11,28.5 36.36,28.5 36.87,28.27 C 37.12,28.03 37.63,28.03 37.88,27.79 C 38.89,27.32 40.15,27.08 41.41,26.84 C 41.41,26.84 41.41,26.84 41.67,26.84 C 41.92,26.84 42.42,26.6 42.68,26.6 L 42.93 26.6 C 43.18,26.6 43.43,26.6 43.94,26.37 C 44.19,26.37 44.19,26.37 44.44,26.37 C 44.7,26.37 44.95,26.37 45.2,26.37 C 45.45,26.37 45.71,26.37 45.96,26.37 C 46.21,26.37 46.47,26.37 46.47,26.37 C 46.97,26.37 47.22,26.37 47.73,26.37 C 48.23,26.37 48.49,26.37 48.99,26.37 C 49.24,26.37 49.24,26.37 49.5,26.37 C 49.75,26.37 50,26.37 50.25,26.37 C 50.5,26.37 50.76,26.37 51.01,26.37 C 51.26,26.37 51.26,26.37 51.51,26.37 C 51.77,26.37 52.02,26.37 52.27,26.37 C 52.52,26.37 52.52,26.37 52.78,26.37 C 53.03,26.37 53.28,26.37 53.53,26.6 L 53.79 26.6 C 54.8,26.84 56.06,27.08 57.07,27.55 C 58.33,28.03 59.6,28.5 60.86,29.22 C 61.87,29.69 62.88,30.4 63.89,31.12 C 63.89,31.12 63.89,31.12 64.14,31.35 C 64.39,31.59 64.65,31.59 64.9,31.83 L 65.15 32.07 C 65.4,32.3 65.4,32.3 65.66,32.54 C 65.91,32.78 66.16,33.02 66.41,33.25 C 67.93,34.68 68.94,36.1 69.95,37.53 C 69.95,37.77 70.2,37.77 70.2,38 C 70.45,38.24 70.45,38.48 70.45,38.72 C 70.45,38.95 70.71,38.95 70.71,39.19 C 70.71,39.43 70.96,39.67 70.96,39.67 C 70.96,39.91 71.21,39.91 71.21,40.14 C 71.21,40.38 71.46,40.62 71.46,40.62 C 71.46,40.86 71.72,40.86 71.72,41.09 C 71.72,41.33 71.97,41.57 71.97,41.57 C 71.97,41.81 72.22,41.81 72.22,42.04 C 72.22,42.28 72.47,42.52 72.47,42.52 C 72.47,42.76 72.73,42.99 72.73,42.99 C 72.73,43.23 72.73,43.47 72.98,43.47 C 72.98,43.71 72.98,43.94 73.23,43.94 C 73.23,44.18 73.23,44.42 73.48,44.42 C 73.48,44.66 73.48,44.89 73.74,45.13 C 73.74,45.37 73.74,45.61 73.74,45.61 C 73.74,45.84 73.74,46.08 73.74,46.32 C 73.74,46.56 73.74,46.56 73.74,46.79 C 73.74,47.03 73.74,47.27 73.74,47.51 C 73.74,47.74 73.74,47.74 73.74,47.98 C 73.74,48.22 73.74,48.46 73.74,48.69 C 73.74,48.93 73.74,48.93 73.74,49.17 C 73.74,49.64 73.74,49.88 73.74,50.36 C 73.74,54.39 72.73,58.43 70.71,62 L 79.55 68.17 C 82.57,70.31 85.35,72.45 87.88,75.06 L 92.93 79.81 L 79.29 93.35 L 79.29 93.35 M 94.95 87.65 L 86.62 95.49 L 82.57 96.68 L 81.31 95.49 L 84.09 92.87 L 92.42 85.04 L 95.2 82.42 L 96.46 83.61 L 94.95 87.65 L 94.95 87.65" fill="#FFFFFF" stroke="none" stroke-width="0.5"/>
  </g>
  <g transform="translate(78.00,68.00) scale(0.1200,0.1200)">
    <path d="M 89.99 0 L 71.67 18.33 L 18.33 71.67 L 0 90 L 8.33 100 L 36.67 90 L 89.99 36.66 L 100 8.33 L 89.99 0 L 89.99 0" fill="#2c5967" stroke="none" stroke-width="0.5"/>
  </g>
  <g transform="translate(31.00,22.00) scale(0.5600,0.5600)">
    <path d="M 93.24 73.12 C 89.68,69.53 85.76,65.95 81.49,62.72 L 69.04 53.76 C 71.89,48.39 73.31,42.65 73.31,36.2 C 73.31,35.48 73.31,35.13 73.31,34.41 C 73.31,34.05 73.31,34.05 73.31,33.69 C 73.31,33.33 73.31,32.97 73.31,32.62 C 73.31,32.26 73.31,32.26 73.31,31.9 C 73.31,31.54 73.31,31.18 73.31,30.82 C 73.31,30.47 73.31,30.47 73.31,30.11 C 73.31,29.75 73.31,29.39 73.31,29.03 C 73.31,28.67 73.31,28.32 73.31,28.32 C 73.31,27.96 73.31,27.6 72.95,27.24 C 72.95,26.88 72.95,26.52 72.6,26.52 C 72.6,26.16 72.6,25.81 72.24,25.81 C 72.24,25.45 72.24,25.09 71.89,25.09 C 71.89,24.73 71.89,24.37 71.53,24.37 C 71.53,24.01 71.17,23.66 71.17,23.66 C 71.17,23.3 70.82,23.3 70.82,22.94 C 70.82,22.58 70.46,22.22 70.46,22.22 C 70.46,21.86 70.11,21.86 70.11,21.51 C 70.11,21.15 69.75,20.79 69.75,20.79 C 69.75,20.43 69.39,20.43 69.39,20.07 C 69.39,19.71 69.04,19.35 69.04,19.35 C 69.04,19 68.68,19 68.68,18.64 C 68.68,18.28 68.33,17.92 68.33,17.56 C 68.33,17.2 67.97,17.2 67.97,16.85 C 66.55,14.7 64.77,12.19 62.99,10.39 C 62.63,10.04 62.28,9.68 61.92,9.32 C 61.57,8.96 61.57,8.96 61.21,8.6 L 60.85 8.24 C 60.5,7.89 60.14,7.89 59.79,7.53 C 59.79,7.53 59.79,7.53 59.43,7.17 C 58.01,6.09 56.58,5.02 55.16,4.3 C 53.38,3.23 51.6,2.51 49.82,1.79 C 48.4,1.08 46.98,0.72 45.2,0.36 L 44.84 0.36 C 44.48,0.36 44.13,0.36 43.77,0 C 43.42,0 43.42,0 43.06,0 C 42.71,0 42.35,0 41.99,0 C 41.64,0 41.64,0 41.28,0 C 40.93,0 40.57,0 40.21,0 C 39.86,0 39.5,0 39.15,0 C 38.79,0 38.79,0 38.43,0 C 37.72,0 37.37,0 36.66,0 C 35.94,0 35.59,0 34.88,0 C 34.52,0 34.16,0 34.16,0 C 33.81,0 33.45,0 33.1,0 C 32.74,0 32.38,0 32.03,0 C 31.67,0 31.67,0 31.32,0 C 30.96,0 30.61,0 29.89,0.36 L 29.54 0.36 C 29.18,0.36 28.47,0.72 28.11,0.72 C 28.11,0.72 28.11,0.72 27.76,0.72 C 25.98,1.08 24.56,1.43 22.78,2.15 C 22.42,2.51 21.71,2.51 21.35,2.87 C 21,3.23 20.64,3.23 19.93,3.58 C 19.22,3.94 18.15,4.3 17.44,5.02 C 16.01,5.73 14.95,6.45 13.88,7.53 C 13.52,7.89 13.17,8.24 12.81,8.6 L 12.46 8.96 C 12.1,9.32 11.74,9.32 11.74,9.68 C 11.39,10.04 11.03,10.39 10.68,10.75 C 8.9,12.54 7.47,14.34 6.05,16.13 L 5.69 16.49 C 4.98,16.13 4.63,16.49 4.63,17.2 C 4.63,17.2 4.63,17.56 4.27,17.56 C 3.92,17.92 3.92,18.28 3.56,18.64 C 3.56,19 3.2,19 3.2,19.35 C 3.2,19.71 2.85,20.07 2.85,20.43 C 2.85,20.79 2.85,20.79 2.49,21.15 C 2.14,21.51 2.14,21.86 1.78,22.58 C 1.78,22.58 1.78,22.94 1.42,22.94 C 1.42,23.3 1.07,23.66 1.07,24.01 C 1.42,23.66 1.42,24.01 1.42,24.37 C 1.42,24.73 1.07,25.09 1.07,25.45 C 1.07,25.81 1.07,25.81 0.71,26.16 C 0.71,26.52 0.36,26.88 0.36,27.24 C 0.36,27.6 0.36,27.6 0.36,27.96 C 0.36,28.32 0,29.03 0,29.39 C 0,29.75 0,29.75 0,30.11 C 0,30.47 0,30.82 0,31.18 C 0,31.54 0,31.54 0,31.9 C 0,32.26 0,32.62 0,32.97 C 0,33.33 0,33.33 0,33.69 C 0,34.05 0,34.41 0,34.77 C 0,35.13 0,35.48 0,35.84 C 0,36.2 0,36.56 0,36.92 C 0,37.28 0,37.28 0,37.63 C 0,37.99 0,38.35 0,38.35 C 0,38.71 0,38.71 0,39.07 C 0,39.43 0,39.78 0,39.78 C 0,40.14 0,40.14 0,40.5 C 0,40.86 0,41.58 0,41.94 C 0,42.29 0,42.29 0,42.65 C 0,43.01 0,43.01 0,43.37 C 0,43.73 0,44.09 0,44.09 C 0,44.44 0,44.44 0,44.8 C 0,45.16 0,45.52 0.36,45.52 C 0.36,45.88 0.36,45.88 0.71,46.24 C 0.71,46.59 1.07,47.31 1.07,47.67 C 1.07,48.03 1.07,48.03 1.42,48.39 C 1.42,48.39 1.42,48.75 1.78,49.1 C 1.78,49.1 1.78,49.1 1.78,49.46 C 2.49,51.25 3.2,53.41 4.27,55.2 C 5.69,58.06 7.83,60.57 9.97,62.72 C 9.97,62.72 9.97,62.72 10.32,63.08 C 11.03,63.8 11.39,64.16 12.1,64.52 L 12.46 64.88 C 12.81,65.23 12.81,65.23 13.17,65.59 L 13.52 65.95 C 15.66,67.38 17.44,68.82 19.93,69.89 C 20.64,70.25 21,70.25 21.71,70.61 C 23.84,71.33 25.62,72.04 27.76,72.76 L 28.11 72.76 C 28.47,72.76 28.83,72.76 29.18,73.12 C 29.54,73.12 29.54,73.12 29.89,73.12 C 30.25,73.12 30.61,73.12 30.96,73.12 C 31.32,73.12 31.32,73.12 31.67,73.12 C 32.03,73.12 32.38,73.12 32.74,73.12 C 33.1,73.12 33.45,73.12 33.81,73.12 C 34.16,73.12 34.16,73.12 34.52,73.12 C 35.23,73.12 35.59,73.12 36.3,73.12 C 42.71,73.12 49.11,71.33 54.45,68.46 L 64.06 81.72 C 66.55,85.3 67.97,87.1 71.53,90.68 L 80.78 100 L 100 80.65 L 93.24 73.12 L 93.24 73.12 M 81.14 92.12 L 75.8 86.74 C 72.6,83.51 71.53,81.72 68.68,78.5 L 59.08 65.59 C 60.14,64.52 61.57,63.8 62.63,62.37 C 64.06,60.93 65.13,59.5 66.19,58.06 L 78.29 67.03 C 82.21,69.89 86.12,73.12 89.32,76.7 L 92.53 79.93 L 81.14 92.12 L 81.14 92.12" fill="#2c5967" stroke="none" stroke-width="0.5"/>
  </g>
  <g transform="translate(32.00,25.00) scale(0.3700,0.3500)">
    <path d="M 18.28 85.39 C 27.42,94.94 39.25,100 52.15,100 C 65.05,100 76.88,94.94 86.02,85.39 C 95.16,75.84 100,63.48 100,50 C 100,36.52 95.16,24.16 86.02,14.61 C 76.88,5.06 65.05,0 52.15,0 C 39.25,0 27.42,5.06 18.28,14.61 C 0,34.27 0,65.73 18.28,85.39 L 18.28 85.39" fill="#FFFFFF" stroke="none" stroke-width="0.5"/>
  </g>
  <g transform="translate(41.00,32.00) scale(0.2000,0.1500)">
    <path d="M 100 14.1 L 89.11 0 L 32.67 71.79 L 10.89 42.31 L 0 56.41 L 32.67 100 L 100 14.1 L 100 14.1" fill="#2c5967" stroke="none" stroke-width="0.5"/>
  </g>
  <g transform="translate(37.00,36.00) scale(0.2700,0.1900)">
    <path d="M 92.75 0 L 38.4 77.32 L 7.25 34.02 L 0 44.33 L 38.4 100 L 100 11.34 L 92.75 0 L 92.75 0" fill="#2c5967" stroke="none" stroke-width="0.5"/>
  </g>
</svg>