<svg xmlns="http://www.w3.org/2000/svg" viewBox="0 0 80.0 109.0000000000001" width="80" height="109">
  <g transform="translate(54.00,32.00) scale(0.0800,0.0200)">
    <path d="M 100 0 L 0 0 L 0 100 L 100 100 L 100 0 L 100 0" fill="#FFFFFF" stroke="none" stroke-width="0.5"/>
  </g>
  <g transform="translate(46.00,21.00) scale(0.2500,0.5700)">
    <path d="M 0 100 L 100 100 L 100 0 L 0 0 L 0 100 L 0 100 M 69.19 90.03 C 66.96,90.51 64.61,90.88 62.22,91.14 C 59.45,91.44 56.59,91.58 53.74,91.56 C 49.45,91.69 45.17,91.37 41.18,90.63 C 37.24,89.89 33.75,88.75 30.98,87.31 C 25.27,83.77 22.46,79.5 23.01,75.18 C 22.71,71.94 24.06,68.72 26.83,65.73 C 29.09,63.47 32.87,61.59 37.7,60.32 C 42.57,59.11 48.07,58.51 53.65,58.58 C 56.51,58.56 59.36,58.7 62.13,59 C 63.98,59.15 65.79,59.42 67.51,59.8 L 67.51 65.06 C 65.83,64.73 64.06,64.48 62.3,64.3 C 60.29,64.11 58.23,64.02 56.13,64.02 C 53.65,63.95 51.13,64.16 48.82,64.62 C 46.56,65.09 44.58,65.81 43.12,66.7 C 39.71,69.22 38.16,72.12 38.66,75.03 C 38.29,77.89 39.76,80.73 42.91,83.23 C 44.29,84.19 46.26,84.98 48.57,85.49 C 50.92,86.01 53.53,86.24 56.13,86.16 C 60.66,86.09 65.11,85.6 69.19,84.73 L 69.19 90.03 L 69.19 90.03 M 9.66 4.22 L 90.01 4.22 L 90.01 9.87 L 9.66 9.87 L 9.66 4.22 L 9.66 4.22 M 9.66 19 L 19.31 19 L 19.31 14.09 L 80.69 14.09 L 80.69 19 L 90.01 19 L 90.01 24.65 L 80.69 24.65 L 80.69 29.57 L 19.31 29.57 L 19.31 24.65 L 9.66 24.65 L 9.66 19 L 9.66 19 M 9.66 33.79 L 90.01 33.79 L 90.01 39.4 L 9.66 39.4 L 9.66 33.79 L 9.66 33.79 M 9.66 43.65 L 90.01 43.65 L 90.01 49.3 L 9.66 49.3 L 9.66 43.65 L 9.66 43.65" fill="#FFFFFF" stroke="none" stroke-width="0.5"/>
  </g>
  <g transform="translate(19.00,0.00) scale(0.8000,0.8400)">
    <path d="M 97.07 37.58 L 77.72 41.87 L 71.95 43.03 L 71.95 40.49 L 83.95 40.49 L 84.64 39.22 L 85.11 38.1 C 87.43,33.97 88.02,29.16 86.77,24.63 C 85.52,20.1 82.54,16.19 78.4,13.68 C 76.52,12.55 74.45,11.75 72.28,11.3 C 71.91,11.23 71.57,11.08 71.28,10.86 C 71,10.65 70.75,10.37 70.58,10.06 C 69.03,7.03 66.61,4.49 63.62,2.71 C 60.62,0.93 57.16,0 53.64,0.02 C 51.05,0.03 48.48,0.55 46.1,1.55 C 43.73,2.54 41.59,3.99 39.82,5.8 C 39.63,6.01 39.38,6.18 39.12,6.29 C 38.84,6.4 38.55,6.45 38.25,6.44 L 38.03 6.44 L 36.54 6.44 C 32.86,6.41 29.29,7.6 26.44,9.82 C 23.59,12.04 21.64,15.14 20.93,18.58 C 20.87,18.92 20.72,19.23 20.51,19.5 C 20.3,19.77 20.03,19.98 19.71,20.13 C 16.68,21.64 14.1,23.86 12.23,26.59 C 10.35,29.32 9.24,32.47 8.99,35.72 L 8.83 37.8 L 8.63 40.49 L 27.64 40.49 L 27.64 51.1 L 0 51.1 L 0 100 L 100 100 L 100 36.89 L 97.07 37.58 L 97.07 37.58 M 72.37 77.43 L 72.37 73.58 L 76.41 73.58 L 76.41 77.43 L 72.37 77.43 L 72.37 77.43 M 76.41 80.31 L 76.41 84.14 L 72.37 84.14 L 72.37 80.31 L 76.41 80.31 L 76.41 80.31 M 72.37 70.79 L 72.37 66.84 L 76.41 66.84 L 76.41 70.7 L 72.37 70.79 L 72.37 70.79 M 72.37 64.05 L 72.37 60.1 L 76.41 60.1 L 76.41 63.96 L 72.37 64.05 L 72.37 64.05 M 72.37 57.32 L 72.37 53.36 L 76.41 53.36 L 76.41 57.15 L 72.37 57.32 L 72.37 57.32 M 11.32 38.1 L 11.47 36.03 C 11.53,35.31 11.62,34.6 11.77,33.89 C 12.35,31.06 13.68,28.41 15.63,26.2 C 17.09,24.57 18.86,23.22 20.85,22.23 C 21.49,21.91 22.04,21.46 22.49,20.91 C 22.92,20.36 23.23,19.73 23.39,19.06 C 23.9,16.53 25.21,14.21 27.13,12.39 C 27.5,12.04 27.9,11.7 28.32,11.39 C 29.19,10.77 30.12,10.24 31.11,9.82 C 31.59,9.62 32.08,9.45 32.57,9.3 L 33.05 9.3 L 34.09 9.09 L 34.64 9.09 L 35.69 9.09 C 36.36,9.04 37.04,9.04 37.7,9.09 C 37.21,9.09 36.71,9.09 36.21,9.09 L 36.46 9.09 C 36.88,9.06 37.28,9.06 37.7,9.09 C 37.99,9.11 38.27,9.11 38.55,9.09 L 38.95 9.09 L 39.55 8.94 L 39.91 8.94 C 40.14,8.88 40.33,8.78 40.52,8.66 L 40.82 8.51 C 41.09,8.32 41.35,8.1 41.59,7.87 C 41.95,7.49 42.39,7.11 42.8,6.75 C 45.75,4.29 49.5,2.91 53.41,2.85 C 57.33,2.79 61.12,4.07 64.14,6.44 C 65.27,7.23 66.3,8.15 67.2,9.18 C 67.62,9.8 68.01,10.45 68.37,11.11 C 68.72,11.71 69.19,12.24 69.78,12.65 C 70.36,13.06 71.02,13.35 71.73,13.49 C 73.65,13.92 75.5,14.67 77.16,15.7 C 80.76,17.89 83.36,21.29 84.43,25.24 C 85.52,29.18 85.01,33.37 83.01,36.96 L 82.43 37.99 L 72.48 37.99 L 72.48 34.13 L 79.95 34.13 C 81.1,31.45 81.23,28.47 80.3,25.72 C 79.38,22.96 77.47,20.6 74.91,19.06 C 73.68,18.3 72.31,17.76 70.85,17.47 C 69.53,17.19 68.29,16.62 67.23,15.82 C 66.16,15.02 65.31,13.99 64.7,12.82 C 63.67,10.85 62.09,9.19 60.13,8.03 C 58.15,6.87 55.89,6.25 53.58,6.25 C 51.87,6.25 50.18,6.59 48.61,7.24 C 47.04,7.89 45.64,8.84 44.48,10.04 C 43.58,10.97 42.46,11.68 41.22,12.13 C 39.98,12.58 38.64,12.75 37.34,12.63 C 35.75,12.49 34.17,12.73 32.73,13.35 C 31.36,13.93 30.15,14.82 29.23,15.95 C 28.3,17.07 27.66,18.39 27.38,19.8 C 27.12,21.04 26.57,22.21 25.77,23.23 C 24.97,24.24 23.95,25.07 22.78,25.65 C 21.05,26.51 19.54,27.71 18.35,29.17 C 17.16,30.64 16.33,32.33 15.88,34.13 L 27.13 34.13 L 27.13 38.1 L 11.32 38.1 L 11.32 38.1 M 2.49 97.62 L 2.49 53.36 L 27.13 53.36 L 27.13 57.15 L 6.51 57.15 L 6.51 93.76 L 16.05 93.76 L 16.05 88.48 L 20.08 88.48 L 20.08 93.76 L 27.55 93.76 L 27.55 97.62 L 2.49 97.62 L 2.49 97.62 M 9.52 77.43 L 9.52 73.58 L 27.13 73.58 L 27.13 77.43 L 9.52 77.43 L 9.52 77.43 M 27.13 80.31 L 27.13 84.14 L 9.52 84.14 L 9.52 80.31 L 27.13 80.31 L 27.13 80.31 M 9.52 70.79 L 9.52 66.84 L 27.13 66.84 L 27.13 70.7 L 9.52 70.79 L 9.52 70.79 M 9.52 64.05 L 9.52 60.1 L 27.13 60.1 L 27.13 63.96 L 9.52 64.05 L 9.52 64.05 M 64.91 97.62 L 30.06 97.62 L 30.06 21.63 L 69.36 21.63 L 69.36 97.62 L 64.91 97.62 L 64.91 97.62 M 97.51 93.76 L 97.51 97.62 L 72.37 97.62 L 72.37 93.76 L 79.42 93.76 L 79.42 88.48 L 83.45 88.48 L 83.45 93.76 L 93.41 93.76 L 93.41 44.72 L 72.28 49.48 L 72.28 45.48 L 97.41 39.89 L 97.51 93.76 L 97.51 93.76 M 83.45 60.1 L 83.45 63.96 L 79.42 63.96 L 79.42 60.1 L 83.45 60.1 L 83.45 60.1 M 79.42 57.15 L 79.42 53.36 L 83.45 53.36 L 83.45 57.15 L 79.42 57.15 L 79.42 57.15 M 83.45 66.67 L 83.45 70.53 L 79.42 70.53 L 79.42 66.84 L 83.45 66.67 L 83.45 66.67 M 83.45 73.41 L 83.45 77.27 L 79.42 77.27 L 79.42 73.58 L 83.45 73.41 L 83.45 73.41 M 83.45 80.15 L 83.45 83.98 L 79.42 83.98 L 79.42 80.31 L 83.45 80.15 L 83.45 80.15 M 90.48 59.93 L 90.48 63.79 L 86.46 63.79 L 86.46 60.1 L 90.48 59.93 L 90.48 59.93 M 86.46 57.15 L 86.46 53.36 L 90.48 53.36 L 90.48 57.15 L 86.46 57.15 L 86.46 57.15 M 90.48 66.67 L 90.48 70.53 L 86.46 70.53 L 86.46 66.84 L 90.48 66.67 L 90.48 66.67 M 90.48 73.41 L 90.48 77.27 L 86.46 77.27 L 86.46 73.58 L 90.48 73.41 L 90.48 73.41 M 90.48 80.15 L 90.48 83.98 L 86.46 83.98 L 86.46 80.31 L 90.48 80.15 L 90.48 80.15" fill="#FFFFFF" stroke="none" stroke-width="0.5"/>
  </g>
  <g transform="translate(43.00,18.00) scale(0.3100,0.6400)">
    <path d="M 0 0 L 0 100 L 100 100 L 100 0 L 0 0 L 0 0 M 89.73 94.92 L 10.27 94.92 L 10.27 5.08 L 89.73 5.08 L 89.73 94.92 L 89.73 94.92" fill="#2c5967" stroke="none" stroke-width="0.5"/>
  </g>
  <g transform="translate(49.00,24.00) scale(0.2000,0.0300)">
    <path d="M 100 0 L 0 0 L 0 100 L 100 100 L 100 0 L 100 0" fill="#2c5967" stroke="none" stroke-width="0.5"/>
  </g>
  <g transform="translate(49.00,29.00) scale(0.2000,0.0800)">
    <path d="M 12.02 100 L 88.4 100 L 88.4 68.24 L 100 68.24 L 100 31.76 L 88.4 31.76 L 88.4 0 L 12.02 0 L 12.02 31.76 L 0 31.76 L 0 68.24 L 12.02 68.24 L 12.02 100 L 12.02 100 M 28.16 36.26 L 72.26 36.26 L 72.26 63.74 L 28.16 63.74 L 28.16 36.26 L 28.16 36.26" fill="#2c5967" stroke="none" stroke-width="0.5"/>
  </g>
  <g transform="translate(49.00,41.00) scale(0.2000,0.0300)">
    <path d="M 100 0 L 0 0 L 0 100 L 100 100 L 100 0 L 100 0" fill="#2c5967" stroke="none" stroke-width="0.5"/>
  </g>
  <g transform="translate(49.00,46.00) scale(0.2000,0.0300)">
    <path d="M 100 0 L 0 0 L 0 100 L 100 100 L 100 0 L 100 0" fill="#2c5967" stroke="none" stroke-width="0.5"/>
  </g>
  <g transform="translate(52.00,55.00) scale(0.1100,0.1900)">
    <path d="M 43.04 74.24 C 36.3,66.72 33.15,58.19 33.96,49.63 C 32.97,40.89 36.3,32.16 43.58,24.61 C 46.72,21.93 50.94,19.78 55.8,18.37 C 60.65,16.96 66.04,16.33 71.43,16.55 C 75.83,16.56 80.23,16.84 84.55,17.38 C 88.41,17.93 92.09,18.7 95.69,19.68 L 95.69 3.88 C 92.09,2.75 88.23,1.93 84.28,1.47 C 78.35,0.58 72.24,0.15 66.13,0.21 C 54.18,0 42.32,1.81 31.9,5.45 C 21.83,9.31 14.02,14.98 9.34,21.67 C 3.41,30.67 0.63,40.34 1.17,50.05 C 0,63.03 6.02,75.87 18.24,86.49 C 24.08,90.89 31.54,94.39 39.98,96.68 C 48.52,98.97 57.68,100 66.94,99.68 C 73.05,99.73 79.16,99.3 85.09,98.42 C 90.21,97.64 95.24,96.52 100,95.07 L 100 78.74 C 91.02,81.35 81.31,82.74 71.43,82.82 C 65.86,83.09 60.29,82.43 55.26,80.92 C 50.31,79.41 46.09,77.1 43.04,74.24 L 43.04 74.24" fill="#2c5967" stroke="none" stroke-width="0.5"/>
  </g>
  <g transform="translate(26.00,50.00) scale(0.1400,0.0300)">
    <path d="M 100 0 L 0 0 L 0 100 L 100 100 L 100 0 L 100 0" fill="#2c5967" stroke="none" stroke-width="0.5"/>
  </g>
  <g transform="translate(26.00,56.00) scale(0.1400,0.0300)">
    <path d="M 100 0 L 0 0 L 0 100 L 100 100 L 100 0 L 100 0" fill="#2c5967" stroke="none" stroke-width="0.5"/>
  </g>
  <g transform="translate(26.00,62.00) scale(0.1400,0.0300)">
    <path d="M 100 0 L 0 0 L 0 100 L 100 100 L 100 0 L 100 0" fill="#2c5967" stroke="none" stroke-width="0.5"/>
  </g>
  <g transform="translate(26.00,68.00) scale(0.1400,0.0300)">
    <path d="M 100 0 L 0 0 L 0 100 L 100 100 L 100 0 L 100 0" fill="#2c5967" stroke="none" stroke-width="0.5"/>
  </g>
  <g transform="translate(77.00,45.00) scale(0.0300,0.0300)">
    <path d="M 100 0 L 0 0 L 0 100 L 100 100 L 100 0 L 100 0" fill="#2c5967" stroke="none" stroke-width="0.5"/>
  </g>
  <g transform="translate(77.00,50.00) scale(0.0300,0.0300)">
    <path d="M 100 0 L 0 0 L 0 100 L 100 100 L 100 0 L 100 0" fill="#2c5967" stroke="none" stroke-width="0.5"/>
  </g>
  <g transform="translate(83.00,45.00) scale(0.0300,0.0300)">
    <path d="M 100 0 L 0 0 L 0 100 L 100 100 L 100 0 L 100 0" fill="#2c5967" stroke="none" stroke-width="0.5"/>
  </g>
  <g transform="translate(83.00,50.00) scale(0.0300,0.0300)">
    <path d="M 100 0 L 0 0 L 0 100 L 100 100 L 100 0 L 100 0" fill="#2c5967" stroke="none" stroke-width="0.5"/>
  </g>
  <g transform="translate(83.00,56.00) scale(0.0300,0.0300)">
    <path d="M 100 0 L 0 0 L 0 100 L 100 100 L 100 0 L 100 0" fill="#2c5967" stroke="none" stroke-width="0.5"/>
  </g>
  <g transform="translate(83.00,62.00) scale(0.0300,0.0300)">
    <path d="M 100 0 L 0 0 L 0 100 L 100 100 L 100 0 L 100 0" fill="#2c5967" stroke="none" stroke-width="0.5"/>
  </g>
  <g transform="translate(88.00,45.00) scale(0.0300,0.0300)">
    <path d="M 100 0 L 0 0 L 0 100 L 100 100 L 100 0 L 100 0" fill="#2c5967" stroke="none" stroke-width="0.5"/>
  </g>
  <g transform="translate(88.00,50.00) scale(0.0300,0.0300)">
    <path d="M 100 0 L 0 0 L 0 100 L 100 100 L 100 0 L 100 0" fill="#2c5967" stroke="none" stroke-width="0.5"/>
  </g>
  <g transform="translate(88.00,56.00) scale(0.0300,0.0300)">
    <path d="M 100 0 L 0 0 L 0 100 L 100 100 L 100 0 L 100 0" fill="#2c5967" stroke="none" stroke-width="0.5"/>
  </g>
  <g transform="translate(88.00,62.00) scale(0.0300,0.0300)">
    <path d="M 100 0 L 0 0 L 0 100 L 100 100 L 100 0 L 100 0" fill="#2c5967" stroke="none" stroke-width="0.5"/>
  </g>
  <g transform="translate(83.00,68.00) scale(0.0300,0.0300)">
    <path d="M 100 0 L 0 0 L 0 100 L 100 100 L 100 0 L 100 0" fill="#2c5967" stroke="none" stroke-width="0.5"/>
  </g>
  <g transform="translate(77.00,56.00) scale(0.0300,0.0300)">
    <path d="M 100 0 L 0 0 L 0 100 L 100 100 L 100 0 L 100 0" fill="#2c5967" stroke="none" stroke-width="0.5"/>
  </g>
  <g transform="translate(77.00,62.00) scale(0.0300,0.0300)">
    <path d="M 100 0 L 0 0 L 0 100 L 100 100 L 100 0 L 100 0" fill="#2c5967" stroke="none" stroke-width="0.5"/>
  </g>
  <g transform="translate(77.00,68.00) scale(0.0300,0.0300)">
    <path d="M 100 0 L 0 0 L 0 100 L 100 100 L 100 0 L 100 0" fill="#2c5967" stroke="none" stroke-width="0.5"/>
  </g>
  <g transform="translate(88.00,68.00) scale(0.0300,0.0300)">
    <path d="M 100 0 L 0 0 L 0 100 L 100 100 L 100 0 L 100 0" fill="#2c5967" stroke="none" stroke-width="0.5"/>
  </g>
  <g transform="translate(77.00,33.00) scale(0.2000,0.4800)">
    <path d="M 0 9.65 L 0 16.49 L 84.08 8.41 L 84.08 93.32 L 43.96 93.32 L 43.96 84.16 L 28.04 84.16 L 28.04 93.32 L 0 93.32 L 0 100 L 100 100 L 100 96.66 L 100 93.32 L 100 0 L 0 9.65 L 0 9.65" fill="#2c5967" stroke="none" stroke-width="0.5"/>
  </g>
  <g transform="translate(21.00,45.00) scale(0.2000,0.3700)">
    <path d="M 69.98 91.28 L 69.98 79.34 L 54.06 79.34 L 54.06 91.28 L 16.02 91.28 L 16.02 8.71 L 98.02 8.71 L 98.02 0 L 0 0 L 0 91.28 L 0 95.64 L 0 100 L 100 100 L 100 91.28 L 69.98 91.28 L 69.98 91.28" fill="#2c5967" stroke="none" stroke-width="0.5"/>
  </g>
  <g transform="translate(28.00,1.00) scale(0.6000,0.3000)">
    <path d="M 6.08 88.88 C 6.68,83.84 7.83,79.12 9.43,75.03 C 11.02,70.94 13.04,67.58 15.37,65.19 C 16.96,63.57 18.37,61.26 19.44,58.42 C 20.54,55.59 21.28,52.3 21.65,48.81 C 22.02,44.88 22.88,41.18 24.13,38.04 C 25.38,34.9 27.01,32.41 28.86,30.77 C 30.79,29.06 32.93,28.37 35.06,28.78 C 36.84,29.14 38.66,28.67 40.33,27.41 C 42.01,26.15 43.52,24.14 44.74,21.52 C 46.32,18.18 48.21,15.51 50.33,13.69 C 52.44,11.87 54.72,10.93 57.02,10.94 C 60.13,10.96 63.16,12.69 65.79,15.93 C 68.43,19.18 70.56,23.81 71.94,29.31 C 72.75,32.51 73.91,35.31 75.32,37.51 C 76.75,39.71 78.41,41.25 80.17,42.02 C 82.14,42.9 84.01,44.5 85.69,46.75 C 89.16,51.09 91.73,57.74 92.97,65.51 C 94.2,73.27 93.99,81.65 92.4,89.15 L 82.34 89.15 L 82.34 100 L 95.75 100 L 96.53 97.14 C 99.28,87.06 100,75.29 98.55,64.19 C 97.11,53.1 93.58,43.51 88.72,37.36 C 86.5,34.61 84.06,32.63 81.51,31.5 C 80.56,31.11 79.66,30.32 78.86,29.17 C 78.09,28.02 77.44,26.54 76.98,24.85 C 76.47,22.87 75.92,20.96 75.3,19.12 C 74.12,15.8 72.75,12.8 71.18,10.2 C 67.11,3.56 62,0 56.72,0.16 C 51.45,0.32 46.4,4.18 42.43,11.07 C 41.86,12.07 41.28,13.13 40.79,14.2 C 40.47,14.85 40.12,15.45 39.75,16 L 39.34 16.39 C 39.1,16.74 38.83,17.01 38.53,17.19 L 38.04 17.19 L 37.23 17.59 L 36.7 17.59 C 36.31,17.66 35.94,17.66 35.55,17.59 C 34.66,17.46 33.74,17.46 32.84,17.59 L 31.43 17.59 L 30.69 17.59 L 29.28 18.19 L 28.64 18.19 C 27.97,18.61 27.32,19.1 26.67,19.66 C 25.33,20.83 24.08,22.31 22.92,24.05 C 22.35,24.91 21.81,25.84 21.31,26.85 C 18.6,32.25 16.83,39.22 16.27,46.75 C 16.08,48.64 15.67,50.42 15.09,51.97 C 14.51,53.53 13.77,54.81 12.92,55.73 C 10.22,58.46 7.81,62.19 5.82,66.72 C 3.21,72.78 1.43,80.03 0.62,87.82 C 0.41,89.8 0.28,91.8 0.21,93.81 L 0 100 L 21.31 100 L 21.31 88.88 L 6.08 88.88 L 6.08 88.88" fill="#2c5967" stroke="none" stroke-width="0.5"/>
  </g>
</svg>