<svg xmlns="http://www.w3.org/2000/svg" viewBox="0 0 87.0 108.00000000000004" width="87" height="108">
  <g transform="translate(1.00,1.00) scale(0.8500,0.8200)">
    <path d="M 69.95 99.51 C 65.02,97.07 61.27,93.41 59.16,89.27 C 58.93,89.27 58.69,89.27 58.45,89.27 L 58.69 89.51 L 56.8 89.51 C 52.58,90 49.06,90 48.13,90 L 47.89 90 C 46.95,90 43.19,90 39.2,89.51 L 37.56 89.27 C 28.17,88.05 23.47,85.37 23.47,81.22 L 23.24 68.29 L 23.24 68.05 L 23.24 51.46 L 0 51.46 L 0.22 47.8 C 0.93,39.51 5.62,31.95 12.91,28.05 C 14.55,27.32 15.49,25.61 15.96,23.9 C 17.13,17.8 20.89,12.93 26.29,10.49 C 28.64,9.51 30.98,9.02 33.57,9.02 C 34.04,9.02 34.74,9.02 35.2,9.02 C 35.44,9.02 35.68,9.02 35.68,9.02 C 37.33,9.02 38.73,8.29 39.67,7.32 C 43.89,2.68 49.76,0 55.87,0 C 64.32,0 71.83,4.88 75.58,12.68 C 76.29,14.39 77.94,15.37 79.58,15.85 C 82.16,16.34 84.51,17.56 86.62,18.78 C 96.49,25.37 100,38.78 94.36,49.51 L 93.43 51.22 L 72.77 51.22 L 72.77 51.95 C 74.89,52.19 76.76,52.93 78.4,54.15 C 81.22,56.34 82.87,60 82.87,63.66 L 82.87 66.1 L 86.15 67.56 L 86.15 81.22 C 85.69,88.54 80.98,95.12 73,99.27 L 71.6 100 L 69.95 99.51 L 69.95 99.51" fill="#FFFFFF" stroke="none" stroke-width="0.5"/>
  </g>
  <g transform="translate(-0.00,0.00) scale(0.8700,0.8300)">
    <path d="M 55.51 2.39 C 63.3,2.39 70.18,6.92 73.62,14.08 C 74.55,15.99 76.15,17.42 78.21,17.9 C 80.5,18.38 82.79,19.33 84.87,20.76 C 94.03,26.73 97.25,39.38 92.2,49.4 L 91.74 50.36 L 83.94 50.36 L 74.08 50.36 L 71.1 50.36 L 71.1 53.46 C 73.16,53.46 75.22,54.18 77.07,55.61 C 79.59,57.52 80.96,60.62 80.96,63.96 L 80.96 66.83 L 84.17 68.26 L 84.17 80.91 C 83.71,87.59 79.36,93.8 72.02,97.61 L 70.87 97.85 L 69.95 97.38 C 64.9,94.75 61.47,91.17 59.4,87.11 C 58.26,87.35 57.34,87.35 56.2,87.59 C 52.29,88.07 48.62,88.07 47.71,88.07 L 47.48 88.07 L 47.25 88.07 C 46.33,88.07 42.89,88.07 38.76,87.59 C 32.11,86.87 24.55,85.2 24.55,80.67 L 24.31 68.02 L 24.31 67.78 L 24.31 64.44 L 24.31 54.42 L 24.31 53.7 L 24.31 50.36 L 2.52 50.36 L 2.75 48.21 C 3.21,40.33 7.57,33.41 14.44,29.83 C 16.29,28.88 17.66,26.97 17.89,25.06 C 19.04,19.57 22.47,15.04 27.3,12.65 C 29.36,11.69 31.65,11.22 33.94,11.22 C 34.4,11.22 34.87,11.22 35.54,11.22 C 35.77,11.22 36.01,11.22 36.24,11.22 C 38.07,11.22 39.68,10.5 41.05,9.07 C 44.49,4.77 50,2.39 55.51,2.39 L 55.51 2.39 M 55.51 0 C 49.31,0 43.12,2.63 38.99,7.64 C 38.3,8.59 37.16,9.07 36.01,9.07 C 35.77,9.07 35.77,9.07 35.54,9.07 C 34.87,9.07 34.4,9.07 33.71,9.07 C 31.19,9.07 28.44,9.55 26.15,10.74 C 20.64,12.89 16.75,18.14 15.6,24.34 C 15.37,25.78 14.44,26.97 13.3,27.45 C 5.97,31.5 1.15,39.14 0.46,47.73 L 0.23 50.12 L 0 52.74 L 2.52 52.74 L 22.7 52.74 L 22.7 53.7 L 22.7 54.42 L 22.7 64.44 L 22.7 67.54 L 22.7 67.78 L 22.93 80.43 C 22.93,84.96 27.3,87.83 36.24,89.26 L 39.45 89.5 C 43.57,89.98 47.02,89.98 48.17,89.98 L 48.4 89.98 L 48.62 89.98 C 49.54,89.98 53.21,89.98 57.34,89.5 L 58.95 89.26 C 61.24,93.32 64.9,96.66 69.72,99.05 L 70.64 99.52 L 71.56 100 L 72.47 99.52 L 73.39 99.05 C 81.42,94.75 86.47,88.07 86.7,80.43 L 86.7 67.78 L 86.7 66.11 L 84.87 66.11 L 83.02 65.39 L 83.02 63.72 C 83.02,59.67 81.19,56.09 78.21,53.7 C 77.75,53.46 77.52,53.22 77.07,52.98 L 83.71 52.98 L 91.74 52.98 L 93.11 52.98 L 93.8 51.79 L 94.26 50.6 C 100,39.62 96.56,25.54 86.24,18.85 C 83.94,17.42 81.42,16.23 78.9,15.75 C 77.52,15.51 76.38,14.56 75.69,13.37 C 72.02,5.01 64.23,0 55.51,0 L 55.51 0" fill="#FFFFFF" stroke="none" stroke-width="0.5"/>
  </g>
  <g transform="translate(2.00,2.00) scale(0.8200,0.4000)">
    <path d="M 86.93 38.31 C 84.74,35.32 82.32,33.33 79.9,32.34 C 77.72,31.34 76.02,28.36 75.06,24.38 C 71.42,9.45 64.17,0 55.93,0 C 49.88,0 44.31,4.98 40.19,13.93 C 38.74,16.92 36.81,18.91 34.62,18.41 C 31.71,17.91 28.82,18.91 26.16,21.39 C 21.06,25.87 17.19,35.82 16.22,47.26 C 15.73,51.74 14.53,55.22 12.58,57.21 C 5.57,64.68 0.97,79.1 0.24,95.52 L 0 100 L 20.59 100 L 20.59 91.54 L 4.35 91.54 C 5.33,80.1 8.96,70.15 14.04,64.68 C 17.19,61.19 19.13,55.72 19.86,48.76 C 20.59,40.3 23.48,32.84 27.36,29.35 C 29.29,27.36 31.71,26.87 33.9,27.36 C 37.52,27.86 40.67,24.88 43.09,19.9 C 46.24,12.94 51.08,8.46 55.69,8.46 C 62.22,8.46 68.28,15.92 71.18,27.86 C 72.64,34.33 75.55,38.81 78.93,40.3 C 80.87,41.29 82.81,42.79 84.5,45.27 C 92.01,55.22 94.92,74.63 91.28,91.04 L 75.06 91.04 L 75.06 99.5 L 93.94 99.5 L 94.43 97.02 C 100,77.11 96.61,50.75 86.93,38.31 L 86.93 38.31" fill="#2c5967" stroke="none" stroke-width="0.5"/>
  </g>
  <g transform="translate(21.00,28.00) scale(0.4000,0.4500)">
    <path d="M 50.01 92.07 C 26.01,92.07 10.52,88.11 8.51,85.9 L 8.51 70.93 C 22.02,75.77 46.5,76.21 50.01,76.21 C 51.49,76.21 58,76.21 65.5,75.77 L 65.5 68.28 C 61.01,68.72 56.01,68.72 50.01,68.72 C 26.01,68.72 10.52,64.76 8.51,62.55 L 8.51 46.7 C 22.02,51.98 46.5,51.98 50.01,51.98 C 52.5,51.98 62.01,51.98 72.51,50.66 C 73.01,47.58 74.49,44.93 76,42.29 C 68.99,43.17 60.51,44.05 49.51,44.05 C 25.51,44.05 10.02,40.09 8.01,37.89 L 8.01 22.03 C 21.52,26.87 46,27.31 49.51,27.31 C 53,27.31 77.5,27.31 90.99,22.03 L 90.99 31.72 C 91.49,31.72 91.49,31.72 91.99,31.28 C 94.5,30.84 96.99,30.4 100,30.4 L 100 14.1 L 100 13.66 C 100,0.44 55.01,0 50.01,0 C 44.99,0 0,0.44 0,13.66 L 0 14.1 L 0 36.56 L 0 37.89 L 0 62.55 L 0 63 L 0.5 86.34 C 0.5,99.56 45.49,100 50.52,100 C 52.5,100 60.01,100 68.99,99.12 C 67.99,96.92 67.01,94.27 66.51,91.63 C 61.01,92.07 55.51,92.07 50.01,92.07 L 50.01 92.07 M 49.51 7.49 C 73.51,7.49 87.5,11.01 90.51,13.22 C 86.99,15.42 73.01,18.94 49.51,18.94 C 26.01,18.94 11.5,15.42 8.51,13.22 C 11.5,11.01 25.51,7.49 49.51,7.49 L 49.51 7.49" fill="#2c5967" stroke="none" stroke-width="0.5"/>
  </g>
  <g transform="translate(50.00,44.00) scale(0.2200,0.3700)">
    <path d="M 87.71 24.34 C 87.71,17.46 81.59,10.58 72.82,5.82 C 63.17,1.59 50.88,0 39.47,2.12 C 23.7,4.76 12.29,14.29 12.29,24.34 L 12.29 31.22 L 0 34.39 L 0 61.9 C 1.76,76.72 18.41,90.48 46.47,98.94 L 50 100 L 53.53 98.94 C 81.59,90.48 98.24,77.25 100,61.9 L 100 33.86 L 87.71 31.22 L 87.71 24.34 L 87.71 24.34 M 27.18 24.34 C 27.18,17.99 34.18,12.17 43.88,10.58 C 50.88,9.52 57.88,10.05 64.05,12.7 C 70.18,15.34 73.7,19.58 73.7,23.81 L 73.7 26.98 L 50.88 21.16 L 27.18 26.98 L 27.18 24.95 L 27.18 24.34 L 27.18 24.34 M 84.18 61.9 C 83.35,73.02 70.18,83.07 49.12,89.95 C 28.06,83.07 15.77,73.02 14.01,61.9 L 14.01 40.74 L 49.12 31.75 L 83.35 40.74 L 83.35 61.9 L 84.18 61.9 L 84.18 61.9" fill="#2c5967" stroke="none" stroke-width="0.5"/>
  </g>
  <g transform="translate(58.00,63.00) scale(0.0500,0.0800)">
    <path d="M 0 31.71 C 0,43.9 11.59,53.66 26.83,58.55 L 15.45 100 L 80.69 100 L 72.97 58.55 C 88.41,53.66 100,43.9 100,31.71 C 100,14.63 76.83,0 50,0 C 23.17,0 0,14.63 0,31.71 L 0 31.71" fill="#2c5967" stroke="none" stroke-width="0.5"/>
  </g>
</svg>