<svg xmlns="http://www.w3.org/2000/svg" viewBox="0 0 73.0 109.00000000000027" width="73" height="109">
  <g transform="translate(1.00,1.00) scale(0.7100,0.8200)">
    <path d="M 50 100 C 43.5,100 28.53,99.27 28.53,93.41 L 28.53 65.85 C 28.53,60.98 38.14,59.51 46.89,59.27 L 46.89 57.32 C 45.76,56.83 44.63,55.85 44.07,54.88 L 11.86 54.88 L 11.86 45.37 L 0 45.37 L 0 0 L 29.38 0 L 29.38 45.37 L 18.36 45.37 L 18.36 49.27 L 43.79 49.27 C 44.35,48.29 45.48,47.32 46.61,46.83 L 46.61 45.37 L 35.31 45.37 L 35.31 0 L 64.69 0 L 64.69 45.37 L 53.39 45.37 L 53.39 46.83 C 54.52,47.32 55.65,48.29 56.21,49.27 L 81.64 49.27 L 81.64 45.37 L 70.62 45.37 L 70.62 0 L 100 0 L 100 45.37 L 88.14 45.37 L 88.14 54.88 L 55.93 54.88 C 55.37,55.85 54.24,56.83 53.11,57.32 L 53.11 59.27 C 61.58,59.51 71.19,60.98 71.19,65.85 L 71.19 93.66 C 71.47,99.27 56.5,100 50,100 L 50 100" fill="#FFFFFF" stroke="none" stroke-width="0.5"/>
  </g>
  <g transform="translate(0.00,0.00) scale(0.7300,0.8400)">
    <path d="M 96.99 2.38 L 96.99 41.19 L 96.99 44.29 L 85.48 44.29 L 85.48 53.57 L 54.79 53.57 C 54.25,54.76 53.15,55.95 51.51,56.43 L 51.51 60.24 C 56.71,60.48 69.04,61.19 69.04,65.48 L 69.04 73.81 L 69.04 74.29 L 69.04 83.1 L 69.04 83.33 L 69.04 92.38 C 69.04,97.38 51.51,97.62 49.59,97.62 C 47.67,97.62 30.14,97.38 30.14,92.38 L 30.14 83.33 L 30.14 83.1 L 30.14 74.29 L 30.14 73.81 L 30.14 65.24 C 30.14,60.95 42.74,60.24 47.95,60 L 47.95 56.19 C 46.3,55.71 45.21,54.76 44.66,53.33 L 14.25 53.33 L 14.25 44.05 L 2.74 44.05 L 2.74 40.95 L 2.74 2.38 L 28.49 2.38 L 28.49 41.19 L 28.49 44.29 L 17.81 44.29 L 17.81 50.48 L 44.93 50.48 C 45.48,49.05 46.58,48.1 48.22,47.62 L 48.22 44.29 L 36.99 44.29 L 36.99 41.19 L 36.99 2.38 L 62.74 2.38 L 62.74 41.19 L 62.74 44.29 L 51.78 44.29 L 51.78 47.62 C 53.15,48.1 54.52,49.05 55.07,50.48 L 82.19 50.48 L 82.19 44.29 L 71.23 44.29 L 71.23 41.19 L 71.23 2.38 L 96.99 2.38 L 96.99 2.38 M 99.73 0 L 96.99 0 L 71.23 0 L 68.49 0 L 68.49 2.38 L 68.49 41.19 L 68.49 44.29 L 68.49 46.67 L 71.23 46.67 L 79.18 46.67 L 79.18 48.1 L 56.44 48.1 C 56.16,47.62 55.62,47.14 55.07,46.67 L 62.74 46.67 L 65.48 46.67 L 65.48 44.29 L 65.48 41.19 L 65.48 2.38 L 65.48 0 L 62.74 0 L 36.99 0 L 34.25 0 L 34.25 2.38 L 34.25 41.19 L 34.25 44.29 L 34.25 46.67 L 36.99 46.67 L 44.66 46.67 C 44.11,47.14 43.56,47.62 43.29,48.1 L 20.55 48.1 L 20.55 46.67 L 28.49 46.67 L 31.23 46.67 L 31.23 44.29 L 31.23 41.19 L 31.23 2.38 L 31.23 0 L 28.49 0 L 2.74 0 L 0 0 L 0 2.38 L 0 41.19 L 0 44.29 L 0 46.67 L 2.74 46.67 L 11.51 46.67 L 11.51 53.57 L 11.51 55.95 L 14.25 55.95 L 43.29 55.95 C 43.84,56.67 44.66,57.38 45.48,57.86 C 33.7,58.33 27.67,60.95 27.67,65.24 L 27.67 73.81 L 27.67 74.29 L 27.67 83.1 L 27.67 83.33 L 27.67 92.38 C 27.67,99.05 41.64,100 49.86,100 C 58.08,100 72.05,99.05 72.05,92.38 L 72.05 83.33 L 72.05 83.1 L 72.05 74.29 L 72.05 73.81 L 72.05 65.24 L 72.05 65 C 72.05,60.71 66.03,58.1 54.52,57.62 C 55.34,57.14 56.16,56.43 56.71,55.71 L 85.75 55.71 L 88.49 55.71 L 88.49 53.33 L 88.49 46.43 L 97.26 46.43 L 100 46.43 L 100 44.05 L 100 40.95 L 100 2.38 L 100 0 L 99.73 0 L 99.73 0" fill="#FFFFFF" stroke="none" stroke-width="0.5"/>
  </g>
  <g transform="translate(31.00,7.00) scale(0.0900,0.0200)">
    <path d="M 100 0 L 0 0 L 0 100 L 100 100 L 100 0 L 100 0" fill="#2c5967" stroke="none" stroke-width="0.5"/>
  </g>
  <g transform="translate(35.00,28.00) scale(0.0200,0.0200)">
    <path d="M 50 100 C 77.6,100 100,77.61 100,50 C 100,22.39 77.6,0 50,0 C 22.35,0 0,22.39 0,50 C 0,77.61 22.35,100 50,100 L 50 100" fill="#2c5967" stroke="none" stroke-width="0.5"/>
  </g>
  <g transform="translate(31.00,13.00) scale(0.0900,0.0200)">
    <path d="M 100 0 L 0 0 L 0 100 L 100 100 L 100 0 L 100 0" fill="#2c5967" stroke="none" stroke-width="0.5"/>
  </g>
  <g transform="translate(31.00,18.00) scale(0.0900,0.0200)">
    <path d="M 100 0 L 0 0 L 0 100 L 100 100 L 100 0 L 100 0" fill="#2c5967" stroke="none" stroke-width="0.5"/>
  </g>
  <g transform="translate(2.00,2.00) scale(0.6900,0.8000)">
    <path d="M 72.46 0 L 72.46 40.75 L 72.46 44 L 83.77 44 L 83.77 50.5 L 55.07 50.5 C 54.49,49.25 53.33,48 51.59,47.5 L 51.59 44 L 63.19 44 L 63.19 40.75 L 63.19 0 L 35.94 0 L 35.94 40.75 L 35.94 44 L 47.83 44 L 47.83 47.5 C 46.09,48 44.93,49 44.35,50.5 L 15.94 50.5 L 15.94 44 L 27.25 44 L 27.25 40.75 L 27.25 0 L 0 0 L 0 40.75 L 0 44 L 12.17 44 L 12.17 53.75 L 44.64 53.75 C 45.22,55.25 46.38,56.25 48.12,56.75 L 48.12 60.75 C 42.61,60.75 29.28,61.75 29.28,66.25 L 29.28 75 L 29.28 75.5 L 29.28 84.75 L 29.28 85 L 29.28 94.5 C 29.28,99.75 47.83,100 49.86,100 C 51.88,100 70.44,99.75 70.44,94.5 L 70.44 85 L 70.44 84.75 L 70.44 75.5 L 70.44 75 L 70.44 66 C 70.44,61.5 57.39,60.75 51.88,60.5 L 51.88 56.5 C 53.33,56 54.78,55 55.36,53.5 L 87.83 53.5 L 87.83 43.75 L 100 43.75 L 100 40.5 L 100 0 L 72.46 0 L 72.46 0 M 40 3.25 L 59.71 3.25 L 59.71 40.75 L 40 40.75 L 40 3.25 L 40 3.25 M 3.77 3.25 L 23.48 3.25 L 23.48 40.75 L 3.77 40.75 L 3.77 3.25 L 3.77 3.25 M 47.83 52 C 47.83,51 48.69,50.5 49.56,50.5 C 50.44,50.5 51.3,51.25 51.3,52 C 51.3,52.75 50.44,53.5 49.56,53.5 C 48.69,53.5 47.83,53 47.83,52 L 47.83 52 M 49.86 96.75 C 39.71,96.75 33.91,95.25 33.04,94.25 L 33.04 88.25 C 38.55,90.25 48.41,90.25 49.86,90.25 C 51.3,90.25 61.16,90.25 66.67,88.25 L 66.67 94.25 C 65.51,95.25 59.71,96.75 49.86,96.75 L 49.86 96.75 M 66.67 84.75 C 65.8,85.75 60,87.25 49.86,87.25 C 39.71,87.25 33.91,85.75 33.04,84.75 L 33.04 79 C 38.55,81 48.41,81 49.86,81 C 51.3,81 61.16,81 66.67,79 L 66.67 84.75 L 66.67 84.75 M 66.67 75.5 C 65.8,76.5 60,78 49.86,78 C 39.71,78 33.91,76.5 33.04,75.5 L 33.04 69.5 C 38.26,71.5 47.54,71.5 49.86,71.5 C 52.17,71.5 61.45,71.25 66.67,69.5 L 66.67 75.5 L 66.67 75.5 M 66.38 66 C 64.93,67 59.13,68.25 49.86,68.25 C 40.58,68.25 34.78,67 33.33,66 C 34.78,65 40.58,63.75 49.86,63.75 C 59.13,63.75 64.64,65 66.38,66 L 66.38 66 M 76.23 40.75 L 76.23 3.25 L 95.94 3.25 L 95.94 40.75 L 76.23 40.75 L 76.23 40.75" fill="#2c5967" stroke="none" stroke-width="0.5"/>
  </g>
  <g transform="translate(57.00,7.00) scale(0.0900,0.0200)">
    <path d="M 100 0 L 0 0 L 0 100 L 100 100 L 100 0 L 100 0" fill="#2c5967" stroke="none" stroke-width="0.5"/>
  </g>
  <g transform="translate(60.00,28.00) scale(0.0200,0.0200)">
    <path d="M 50 100 C 77.6,100 100,77.61 100,50 C 100,22.39 77.6,0 50,0 C 22.4,0 0,22.39 0,50 C 0,77.61 22.4,100 50,100 L 50 100" fill="#2c5967" stroke="none" stroke-width="0.5"/>
  </g>
  <g transform="translate(57.00,13.00) scale(0.0900,0.0200)">
    <path d="M 100 0 L 0 0 L 0 100 L 100 100 L 100 0 L 100 0" fill="#2c5967" stroke="none" stroke-width="0.5"/>
  </g>
  <g transform="translate(57.00,18.00) scale(0.0900,0.0200)">
    <path d="M 100 0 L 0 0 L 0 100 L 100 100 L 100 0 L 100 0" fill="#2c5967" stroke="none" stroke-width="0.5"/>
  </g>
  <g transform="translate(6.00,7.00) scale(0.0900,0.0200)">
    <path d="M 100 0 L 0 0 L 0 100 L 100 100 L 100 0 L 100 0" fill="#2c5967" stroke="none" stroke-width="0.5"/>
  </g>
  <g transform="translate(10.00,28.00) scale(0.0200,0.0200)">
    <path d="M 50 100 C 77.6,100 100,77.61 100,50 C 100,22.39 77.6,0 50,0 C 22.4,0 0,22.39 0,50 C 0,77.61 22.4,100 50,100 L 50 100" fill="#2c5967" stroke="none" stroke-width="0.5"/>
  </g>
  <g transform="translate(6.00,13.00) scale(0.0900,0.0200)">
    <path d="M 100 0 L 0 0 L 0 100 L 100 100 L 100 0 L 100 0" fill="#2c5967" stroke="none" stroke-width="0.5"/>
  </g>
  <g transform="translate(6.00,18.00) scale(0.0900,0.0200)">
    <path d="M 100 0 L 0 0 L 0 100 L 100 100 L 100 0 L 100 0" fill="#2c5967" stroke="none" stroke-width="0.5"/>
  </g>
</svg>