<svg xmlns="http://www.w3.org/2000/svg" viewBox="0 0 75.0 142.00000000000014" width="75" height="142">
  <g transform="translate(13.00,1.00) scale(0.7300,0.8200)">
    <path d="M 75.76 100 C 57.85,100 53.17,95.85 52.34,95.12 L 51.52 94.39 L 51.52 83.66 L 19.28 83.66 C 13.22,83.17 8.54,81.22 5.23,78.05 C 0,72.44 1.1,65.37 1.1,65.37 C 2.48,57.8 7.44,54.15 11.29,52.2 C 13.22,51.22 14.88,50.73 17.08,50.24 C 20.39,42.68 27.27,40.73 28.37,40.49 C 30.03,40 31.96,39.76 33.88,39.76 C 36.09,39.76 38.02,40 39.94,40.73 C 39.39,40.24 38.84,39.76 38.29,39.27 C 34.99,35.37 35.26,30.24 36.09,26.83 C 36.36,25.85 36.64,25.12 36.92,24.15 C 37.19,23.9 37.19,23.66 37.19,23.41 L 37.19 23.17 C 36.92,22.93 36.64,22.93 36.64,22.68 C 35.81,21.95 35.26,20.98 34.71,20 C 33.88,18.78 33.06,17.32 32.51,15.85 L 31.96 14.88 C 31.68,14.39 31.68,14.15 31.41,13.66 C 31.41,13.41 31.13,13.17 31.13,12.93 C 30.85,12.44 30.03,11.71 29.48,10.98 C 29.2,10.73 28.93,10.49 28.93,10.24 C 28.65,10 28.65,10 28.37,9.76 C 26.72,8.29 23.97,5.61 25.62,2.68 C 26.17,1.46 27.27,0.73 28.65,0.24 C 29.2,0 30.03,0 30.85,0 C 34.16,0 37.74,1.46 39.67,2.44 C 39.94,2.68 40.5,2.93 40.77,3.17 C 41.05,3.41 41.32,3.41 41.6,3.66 C 45.73,3.66 49.59,4.63 53.44,6.1 C 60.61,9.27 66.94,14.15 71.35,19.76 C 72.18,20.73 72.73,21.71 73,22.68 C 73.28,23.17 73.55,23.66 73.83,24.15 C 75.21,26.83 76.58,28.78 77.69,30.49 C 77.96,30.73 77.96,30.98 78.24,31.46 C 78.51,31.95 79.06,32.68 79.61,33.17 C 80.17,33.66 80.99,33.9 81.82,33.9 C 82.37,34.15 82.92,34.15 83.47,34.39 C 85.12,35.12 86.78,35.61 88.15,36.34 C 91.46,37.8 94.22,39.76 96.69,41.95 C 97.8,42.93 97.52,43.66 97.25,44.15 C 96.69,45.37 95.32,45.37 94.49,45.61 L 93.94 45.61 C 93.11,45.85 92.29,45.85 91.18,45.85 C 90.36,45.85 89.81,46.1 88.98,46.1 L 88.71 46.1 C 89.26,46.34 89.53,46.59 90.08,46.59 L 90.63 46.83 C 91.18,47.07 91.46,47.32 92.01,47.32 C 93.94,48.29 95.87,49.76 97.52,51.22 L 98.9 52.2 C 99.45,52.68 99.72,52.93 99.72,53.17 C 100,53.66 100,54.15 100,54.39 C 100,55.12 99.72,56.1 99.72,56.34 C 99.45,56.83 98.9,58.29 98.9,58.78 L 98.9 94.15 L 97.52 95.12 C 98.07,95.61 91.46,100 75.76,100 L 75.76 100 M 51.24 44.63 C 53.72,44.63 56.2,45.12 58.4,46.1 C 56.47,45.37 54.82,44.15 53.44,43.17 L 52.89 42.68 C 50.96,41.46 49.59,40 48.21,38.29 C 47.93,39.51 47.38,40.73 45.45,41.46 C 44.9,41.71 44.35,41.71 43.8,41.71 L 43.53 41.71 C 45.18,42.44 46.56,43.66 47.93,44.63 C 49.04,44.63 50.14,44.63 51.24,44.63 L 51.24 44.63" fill="#FFFFFF" stroke="none" stroke-width="0.5"/>
  </g>
  <g transform="translate(13.00,0.00) scale(0.7500,0.8400)">
    <path d="M 30.83 2.38 C 33.78,2.38 37.27,3.8 38.87,4.75 C 39.14,4.99 39.41,4.99 39.68,5.23 C 39.95,5.46 40.48,5.7 41.02,5.94 C 44.77,5.94 48.79,6.65 52.28,8.31 C 58.98,11.4 64.88,15.91 69.44,21.38 C 69.97,22.33 70.51,23.04 71.05,23.99 C 71.31,24.47 71.58,24.94 71.85,25.42 C 73.19,27.79 74.53,29.93 75.87,31.83 C 76.14,32.07 76.14,32.3 76.41,32.54 C 76.68,33.25 77.21,33.97 77.75,34.44 C 78.55,34.92 79.36,35.39 80.43,35.63 C 80.97,35.87 81.5,35.87 81.77,36.1 C 83.38,36.82 84.99,37.29 86.33,38 C 89.28,39.43 92.23,41.09 94.37,43.23 C 94.64,43.47 94.91,43.94 94.64,44.18 C 94.37,44.66 93.57,44.66 93.03,44.89 L 92.49 44.89 C 91.69,45.13 90.89,45.13 90.08,45.13 C 89.28,45.13 88.47,45.37 87.67,45.37 L 87.4 45.37 C 86.6,45.61 85.52,45.84 84.72,45.84 C 85.26,46.79 87.13,47.51 88.47,48.22 C 89.01,48.46 89.54,48.69 89.81,48.93 C 91.69,49.88 93.3,51.07 94.91,52.49 L 95.71 52.97 C 95.98,53.21 96.51,53.44 96.51,53.44 C 96.51,53.44 97.05,53.68 97.05,53.92 C 97.05,54.16 97.32,54.39 97.32,54.63 C 97.32,55.11 97.32,55.82 97.05,56.06 C 96.78,56.77 95.98,58.67 95.98,58.67 L 95.98 92.64 L 95.17 93.11 C 94.91,93.35 88.74,97.39 74,97.39 C 57.11,97.39 52.82,93.35 52.28,93.11 L 52.01 92.64 L 52.01 81.47 L 19.04 81.47 C 13.4,81 9.38,79.34 6.43,76.25 C 2.14,71.26 2.95,65.08 2.95,64.61 C 4.29,57.72 8.58,54.39 12.06,52.73 C 13.94,51.78 15.82,51.31 17.96,50.83 C 20.91,43.23 27.35,41.81 28.42,41.57 C 30.03,41.09 31.64,40.86 33.51,40.86 C 38.34,40.86 43.16,42.76 46.38,46.08 C 47.72,45.84 48.79,45.84 49.87,45.84 C 53.35,45.84 56.03,46.79 58.18,48.22 L 58.18 45.13 C 56.3,44.66 54.16,43.23 52.55,42.04 C 50.94,40.86 49.6,39.67 48.53,38.24 C 47.99,37.53 47.45,36.82 47.19,36.1 L 46.92 35.63 L 46.92 35.87 C 46.92,36.1 46.92,36.1 46.92,36.34 C 46.92,36.82 46.65,37.29 46.65,37.77 C 45.85,38.72 45.85,39.91 44.24,40.38 C 43.97,40.38 43.43,40.62 43.16,40.62 C 41.82,40.62 40.48,39.91 39.14,38.24 C 36.19,34.92 36.46,30.17 37.27,27.08 C 37.53,26.37 37.8,25.42 38.07,24.7 C 38.07,24.47 38.34,24.47 38.34,24.23 C 38.61,23.99 38.61,23.52 38.87,23.28 C 38.87,23.04 38.61,22.8 38.34,22.57 C 38.07,22.33 38.07,22.33 37.8,22.09 C 37.27,21.38 36.46,20.67 35.93,19.72 C 35.12,18.53 34.58,17.34 34.05,15.91 L 33.51 14.73 C 33.24,14.49 33.24,14.01 33.24,13.78 C 33.24,13.54 32.98,13.06 32.98,12.83 C 32.44,12.11 31.9,11.4 31.1,10.69 C 30.83,10.45 30.83,10.45 30.56,10.21 C 30.3,9.98 30.03,9.74 29.76,9.5 C 28.42,8.31 26.27,6.18 27.35,4.28 C 27.88,3.33 28.69,2.85 29.49,2.61 C 29.76,2.38 30.3,2.38 30.83,2.38 L 30.83 2.38 M 30.83 0 C 29.76,0 28.95,0.24 28.15,0.24 C 26.54,0.71 25.2,1.9 24.4,3.33 C 22.52,6.89 25.74,9.74 27.08,11.16 L 27.35 11.4 C 27.61,11.64 27.61,11.64 27.61,11.88 C 27.88,12.11 27.88,12.35 28.15,12.35 C 28.69,12.83 29.22,13.3 29.49,14.01 C 29.49,14.25 29.76,14.25 29.76,14.49 C 30.03,14.96 30.03,15.44 30.3,15.91 L 30.83 17.1 C 31.37,18.53 32.17,19.72 32.98,21.14 C 33.51,22.09 34.32,23.04 35.12,23.75 C 34.85,24.7 34.58,25.65 34.32,26.37 C 33.51,29.69 33.24,34.44 35.93,38.24 C 35.12,38.24 34.32,38 33.51,38 C 31.64,38 29.76,38.24 27.88,38.72 C 26.27,38.95 19.57,40.86 16.09,48.22 C 14.48,49.17 12.6,49.88 10.99,50.59 C 6.97,52.49 1.88,56.53 0.54,64.13 L 0.54 64.37 L 0.54 64.61 C 0.27,65.8 0,72.45 4.83,77.67 C 8.04,81.24 12.87,83.37 19.3,83.61 L 49.6 83.61 L 49.6 92.64 L 49.6 93.59 L 50.13 94.3 L 50.67 94.77 C 51.74,95.96 56.84,100 74.26,100 C 89.54,100 96.25,95.96 97.05,95.49 L 97.86 95.01 L 98.93 94.3 L 98.93 93.11 L 98.93 59.14 C 99.2,58.43 99.73,57.24 99.73,56.77 C 99.73,56.53 100,55.34 100,54.63 C 100,54.63 100,53.68 99.46,52.97 C 99.46,52.73 99.2,52.49 98.39,51.78 C 98.39,51.78 97.86,51.31 97.59,51.31 L 96.78 50.83 C 95.44,49.41 93.83,48.22 91.96,47.27 C 92.23,47.27 92.49,47.27 93.03,47.03 L 93.57 47.03 C 94.64,46.79 96.78,46.56 97.32,44.89 C 97.59,44.42 97.86,42.99 96.25,41.57 C 93.83,39.19 90.89,37.29 87.4,35.87 C 86.06,35.15 84.45,34.44 82.57,33.97 C 82.04,33.73 81.5,33.73 80.97,33.49 C 80.43,33.49 79.89,33.25 79.63,33.02 C 79.36,32.54 79.09,32.3 78.82,31.83 C 78.55,31.35 78.55,31.12 78.28,30.88 C 77.21,29.22 75.87,27.08 74.53,24.7 C 74.26,24.23 74,23.75 73.73,23.28 C 73.19,22.33 72.66,21.14 71.85,20.43 C 67.03,14.73 60.86,9.98 53.89,6.65 C 50.13,4.99 46.11,4.28 42.09,4.04 C 42.09,4.04 41.82,4.04 41.82,3.8 C 41.56,3.56 41.02,3.33 40.48,3.09 C 38.34,1.66 34.32,0 30.83,0 L 30.83 0 M 45.85 42.28 C 46.65,42.04 47.19,41.33 47.45,40.86 C 48.26,41.81 49.06,42.52 50.13,43.23 L 49.87 43.23 C 49.06,43.23 48.26,43.23 47.19,43.47 C 46.92,42.99 46.38,42.76 45.85,42.28 L 45.85 42.28" fill="#FFFFFF" stroke="none" stroke-width="0.5"/>
  </g>
  <g transform="translate(14.00,33.00) scale(0.4400,0.3400)">
    <path d="M 30 34.48 L 32.27 34.48 L 33.18 31.61 C 36.82,15.52 45.91,12.64 46.36,12.64 L 46.82 12.64 C 62.27,6.9 70.91,21.84 71.36,22.41 L 72.73 24.71 L 75 24.14 C 84.09,21.26 89.55,24.14 93.18,28.74 C 94.09,28.16 95,28.16 95.46,27.59 C 96.82,27.01 98.64,26.44 100,25.86 C 95.46,18.97 87.73,12.07 75,14.94 C 67.27,4.02 55.46,0 44.55,4.02 C 42.73,4.6 31.82,8.62 26.82,26.44 C 23.18,27.01 20,28.74 16.82,31.03 C 10.91,35.06 3.64,43.68 1.36,59.77 C 1.36,60.35 0,75.86 7.27,87.36 C 11.82,94.83 19.09,98.85 28.64,100 L 79.55 100 L 79.55 91.38 L 29.09 91.38 C 21.82,90.81 16.36,87.36 12.73,82.19 C 7.27,73.56 8.18,62.07 8.18,60.92 C 11.82,36.78 29.09,34.48 30,34.48 L 30 34.48" fill="#2d5967" stroke="none" stroke-width="0.5"/>
  </g>
  <g transform="translate(43.00,9.00) scale(0.0300,0.0200)">
    <path d="M 73.34 14.28 C 66.68,7.14 59.99,0 46.67,0 C 33.32,0 13.35,0 0,0 C 13.35,14.28 20.01,21.43 33.32,42.86 C 46.67,64.29 59.99,78.57 66.68,100 C 86.65,92.86 100,64.29 93.31,42.86 C 86.65,28.57 79.99,21.43 73.34,14.28 L 73.34 14.28" fill="#2d5967" stroke="none" stroke-width="0.5"/>
  </g>
  <g transform="translate(31.00,1.00) scale(0.5300,0.4400)">
    <path d="M 100 100 C 100,100 99.62,99.55 99.62,99.1 C 99.62,98.65 99.25,98.2 98.87,97.75 C 98.5,97.3 98.12,97.3 97.74,96.85 L 96.62 95.95 C 94.74,93.24 92.11,90.99 89.47,89.19 C 88.72,88.74 88.34,88.29 87.59,87.84 C 85.71,86.49 83.08,85.14 82.33,83.33 C 83.46,83.33 84.96,82.88 86.09,82.43 L 86.47 82.43 C 87.59,81.98 88.72,81.98 89.85,81.98 C 90.98,81.98 92.11,81.53 93.23,81.53 L 93.98 81.53 C 95.11,81.53 96.24,81.08 96.24,80.18 C 96.24,79.73 96.24,79.28 95.86,78.38 C 92.48,74.32 88.72,70.72 84.59,68.47 C 82.71,67.12 80.45,66.22 78.2,64.86 C 77.82,64.41 77.07,64.41 76.32,63.96 C 74.81,63.51 73.68,63.06 72.56,61.71 C 71.8,60.81 71.05,59.46 70.68,58.11 C 70.3,57.66 70.3,57.21 69.93,56.76 C 68.04,53.15 66.16,49.55 64.29,44.59 C 63.91,43.69 63.53,42.79 63.16,41.89 C 62.41,40.09 61.65,38.29 60.9,36.94 C 54.89,26.58 46.62,18.02 36.84,12.16 C 31.95,9.46 26.69,7.66 21.05,7.66 C 20.3,7.21 19.93,6.76 19.17,6.31 C 19.17,5.86 18.8,5.41 18.42,5.41 C 15.79,3.6 9.02,0 4.51,1.35 C 3.01,1.8 1.88,3.15 1.5,4.5 C 0,8.56 3.01,12.16 4.89,14.41 C 5.26,14.86 5.64,15.32 6.02,15.77 C 6.39,16.22 6.39,16.67 6.77,16.67 C 7.89,18.02 8.65,19.37 9.4,20.72 C 9.77,21.17 9.77,22.07 9.77,22.52 C 9.77,22.97 10.15,23.87 10.15,24.32 L 10.9 26.58 C 11.65,28.83 12.41,31.53 13.53,33.78 C 14.29,35.14 15.04,36.94 16.16,38.29 C 16.54,38.74 16.54,38.74 16.92,39.19 C 17.29,39.64 17.67,40.09 17.67,40.54 C 17.67,40.99 17.29,41.89 16.92,42.34 C 16.92,42.79 16.54,42.79 16.54,43.24 C 16.16,44.59 15.79,46.4 15.41,47.75 C 14.29,53.6 13.91,62.16 18.04,68.92 C 20.3,72.97 22.93,74.32 25.56,72.97 C 27.82,72.07 28.2,69.82 28.57,67.12 C 28.57,66.22 28.95,65.32 28.95,64.41 C 28.95,63.96 28.95,63.96 28.95,63.51 L 28.95 63.06 L 29.32 63.96 C 30.07,65.32 30.83,66.67 31.2,68.02 C 32.71,70.72 34.59,73.42 36.84,75.68 C 39.1,77.93 41.73,80.63 44.74,81.53 L 45.11 81.53 L 45.11 80.63 L 44.74 80.63 C 44.36,80.18 43.98,80.18 43.61,79.73 L 43.23 79.28 C 42.11,77.93 40.98,76.58 39.85,75.23 C 36.84,71.17 34.59,67.12 32.33,62.61 C 31.2,60.81 30.45,58.56 29.7,56.76 L 29.32 56.31 C 29.32,55.86 28.95,55.86 28.95,55.41 C 28.95,54.96 28.57,54.05 28.2,53.6 C 27.82,54.05 27.44,54.5 27.07,54.96 C 26.32,55.86 25.56,56.76 25.19,58.11 C 24.44,60.81 23.68,63.51 23.68,66.22 C 23.68,67.12 23.68,67.57 23.31,68.47 C 21.43,68.02 21.05,66.22 20.3,64.41 L 19.93 63.96 C 17.67,59.01 17.67,51.35 19.17,45.95 C 19.17,45.5 19.55,45.5 19.55,45.04 C 20.68,42.34 21.43,39.64 20.68,38.74 C 20.3,37.84 19.93,37.39 19.17,36.49 C 18.8,36.04 18.42,36.04 18.04,35.59 C 17.29,34.23 16.54,32.88 15.79,31.08 C 15.04,29.28 14.29,27.48 13.91,25.68 C 13.16,23.42 12.41,21.17 11.65,19.37 C 10.9,18.02 10.15,16.22 9.02,14.86 L 8.27 13.96 C 7.89,13.51 7.52,13.06 7.14,12.61 C 5.64,10.81 3.76,8.56 4.14,6.76 C 4.14,6.31 4.51,5.86 4.89,5.41 C 7.14,4.5 12.03,7.21 14.66,9.01 C 15.04,9.01 15.04,9.46 15.41,9.46 C 16.16,9.91 16.92,10.36 17.67,10.81 C 18.8,11.26 20.3,11.71 21.43,11.71 C 22.18,11.71 22.56,11.71 23.31,11.71 C 25.19,12.16 27.07,12.61 28.95,13.06 C 32.71,14.41 36.47,16.67 40.23,19.37 C 46.99,24.77 52.63,31.98 57.14,40.09 C 57.52,40.99 57.89,41.89 58.27,42.79 C 58.65,43.24 58.65,44.14 59.02,45.04 C 59.77,46.85 60.53,48.65 61.28,50.45 C 62.03,52.25 62.78,53.6 63.53,55.41 L 63.91 56.31 C 65.04,59.46 66.54,62.16 68.42,64.86 C 69.17,65.77 71.43,66.67 73.31,67.12 C 74.06,67.57 74.81,67.57 75.19,67.57 C 78.2,68.92 80.83,70.27 83.84,72.07 C 85.34,72.97 86.47,73.87 87.97,74.77 C 87.97,74.77 88.34,75.23 88.72,75.23 C 89.47,75.68 90.23,76.13 90.98,77.03 C 85.71,77.03 81.58,77.48 78.2,78.83 C 77.82,78.83 77.82,78.83 77.44,78.83 C 76.69,78.83 75.56,79.28 75.56,80.63 C 75.94,81.08 75.94,81.08 75.94,81.53 C 75.94,81.98 76.32,82.43 76.32,82.43 C 77.44,84.23 78.57,85.59 79.7,86.94 C 81.2,87.84 82.33,89.19 83.84,90.09 C 84.96,90.99 86.47,91.44 87.97,92.34 C 89.47,92.79 90.6,93.69 92.11,94.59 C 92.86,95.05 93.98,95.95 94.74,96.4 C 95.49,96.85 95.86,97.3 96.62,97.75 C 96.99,97.75 96.99,98.2 97.37,98.2 C 97.75,98.65 98.12,99.1 98.87,99.1 L 99.25 99.1 L 100 100 L 100 100" fill="#2d5967" stroke="none" stroke-width="0.5"/>
  </g>
  <g transform="translate(51.00,43.00) scale(0.3300,0.3800)">
    <path d="M 83.03 3.67 C 72.12,1.05 61.21,0 49.7,0 C 38.18,0 27.27,1.05 16.37,3.67 C 3.03,7.33 0,12.04 0,15.71 L 0 89.01 L 1.21 90.05 C 2.42,91.1 11.52,100 50.3,100 C 83.63,100 97.58,91.1 98.18,91.1 L 100 90.05 L 100 14.14 C 98.79,10.99 95.15,6.81 83.03,3.67 L 83.03 3.67 M 49.7 6.81 C 78.18,6.81 90.91,13.09 90.91,15.18 C 90.91,17.28 78.18,23.56 49.7,23.56 C 21.21,23.56 8.48,17.28 8.48,15.18 C 8.48,13.09 21.82,6.81 49.7,6.81 L 49.7 6.81 M 90.91 85.34 C 86.06,87.44 73.33,92.15 49.7,92.15 C 21.82,92.15 10.91,87.44 8.48,85.87 L 8.48 71.2 C 15.15,73.82 27.88,76.44 49.7,76.44 C 69.7,76.44 83.03,73.3 90.91,70.16 L 90.91 85.34 L 90.91 85.34 M 90.91 62.83 C 86.06,64.92 73.33,69.63 49.7,69.63 C 21.82,69.63 10.91,64.92 8.48,63.35 L 8.48 47.64 C 15.15,50.26 27.88,52.88 49.7,52.88 C 69.7,52.88 83.03,49.74 90.91,47.12 L 90.91 62.83 L 90.91 62.83 M 90.91 38.75 C 87.88,40.32 75.15,45.55 49.7,45.55 C 21.82,45.55 10.91,40.84 8.48,39.27 L 8.48 24.61 C 10.91,25.65 13.94,26.7 16.37,27.23 C 27.27,29.84 38.18,30.89 49.7,30.89 C 61.21,30.89 72.12,29.84 83.03,27.23 C 86.06,26.7 88.48,25.65 90.91,24.61 L 90.91 38.75 L 90.91 38.75" fill="#2d5967" stroke="none" stroke-width="0.5"/>
  </g>
</svg>