<svg xmlns="http://www.w3.org/2000/svg" viewBox="0 0 84.0 132.00000000000014" width="84" height="132">
  <g transform="translate(11.00,27.00) scale(0.8200,0.4600)">
    <path d="M 98.78 99.76 C 97,99.79 95.28,98.7 93.91,96.71 C 93.19,95.8 93.02,95.54 92.34,95.54 C 91.65,95.54 91.49,95.8 90.81,96.71 C 89.4,98.74 87.64,99.85 85.84,99.85 C 84.03,99.85 82.28,98.74 80.87,96.71 C 80.19,95.8 80,95.54 79.33,95.54 C 78.68,95.54 78.49,95.8 77.8,96.71 C 76.43,98.71 74.71,99.82 72.92,99.85 C 71.14,99.85 69.41,98.74 68.05,96.71 C 67.36,95.8 67.17,95.54 66.49,95.54 C 65.8,95.54 65.63,95.8 64.95,96.71 C 63.55,98.82 61.75,99.98 59.91,99.98 C 58.07,99.98 56.29,98.82 54.88,96.71 C 54.17,95.8 53.99,95.54 53.32,95.54 C 52.64,95.54 52.46,95.8 51.78,96.71 C 50.38,98.74 48.63,99.85 46.81,99.85 C 45,99.85 43.25,98.74 41.86,96.71 C 41.16,95.8 40.97,95.54 40.32,95.54 C 39.65,95.54 39.46,95.8 38.78,96.71 C 37.41,98.71 35.68,99.82 33.9,99.85 C 32.11,99.85 30.4,98.73 29.03,96.71 C 28.35,95.8 28.14,95.54 27.46,95.54 C 26.78,95.54 26.61,95.8 25.93,96.71 C 24.56,98.73 22.83,99.85 21.05,99.85 C 19.15,100 17.3,98.88 15.85,96.71 C 15.15,95.8 14.98,95.54 14.29,95.54 C 13.61,95.54 13.42,95.72 12.69,96.71 C 11.32,98.73 9.59,99.85 7.81,99.85 C 6.02,99.84 4.29,98.73 2.93,96.71 C 2.24,95.8 2.07,95.54 1.39,95.54 L 0 95.54 L 0 74.01 L 1.22 74.01 C 3,74.01 4.74,75.13 6.09,77.15 C 6.3,77.53 6.54,77.83 6.81,78.03 C 7.08,78.24 7.36,78.33 7.65,78.31 C 7.95,78.33 8.23,78.24 8.5,78.04 C 8.76,77.85 9,77.56 9.19,77.19 C 10.55,75.14 12.29,74 14.07,74.01 C 15.86,74 17.59,75.12 18.95,77.15 C 19.65,78.1 19.83,78.31 20.51,78.31 C 21.19,78.31 21.37,78.1 22.05,77.19 C 22.34,76.79 22.64,76.42 22.96,76.07 L 22.96 66.77 L 0 66.77 L 0 45.23 L 3.24 45.23 C 18.29,45.23 23.17,15.34 23.17,5 L 23.17 0 L 28.86 0 L 28.86 5 C 28.95,13.53 30.36,21.85 32.93,29.08 C 34.81,34.12 37.41,38.2 40.47,40.91 C 43.53,43.62 46.95,44.85 50.37,44.5 C 53.76,44.78 57.16,43.44 60.15,40.6 C 63.16,37.77 65.68,33.54 67.44,28.39 C 69.86,21.31 71.22,13.26 71.38,5 L 71.38 0 L 77.09 0 L 77.09 5 C 77.09,15.34 81.97,45.23 96.99,45.23 L 100 45.23 L 100 66.77 L 77.25 66.77 L 77.25 74.39 C 77.9,74.08 78.58,73.92 79.27,73.92 C 81.05,73.92 82.79,75.05 84.15,77.11 C 84.34,77.47 84.58,77.76 84.84,77.95 C 85.11,78.15 85.39,78.24 85.68,78.23 C 85.97,78.25 86.25,78.16 86.52,77.96 C 86.79,77.77 87.02,77.48 87.22,77.11 C 88.6,75.06 90.37,73.94 92.18,73.94 C 93.99,73.94 95.75,75.06 97.14,77.11 C 97.85,78.05 98.02,78.27 98.71,78.27 L 99.92 78.27 L 99.92 99.81 L 98.78 99.76 L 98.78 99.76" fill="#FFFFFF" stroke="none" stroke-width="0.5"/>
  </g>
  <g transform="translate(10.00,26.00) scale(0.8400,0.4800)">
    <path d="M 75.4 4.22 L 75.4 6.95 C 75.4,17.36 80.48,47.63 96.02,47.63 L 97.62 47.63 L 97.62 64.16 L 75.4 64.16 L 75.4 76.57 C 76.36,75.58 77.46,75.1 78.57,75.16 C 80.09,75.14 81.55,76.08 82.69,77.81 C 83.3,78.77 84.09,79.3 84.91,79.3 C 85.74,79.3 86.54,78.77 87.14,77.81 C 88.29,76.08 89.75,75.14 91.26,75.16 C 92.79,75.14 94.25,76.08 95.4,77.81 C 96,78.78 96.8,79.31 97.62,79.3 L 97.62 95.83 C 96.11,95.87 94.64,94.94 93.5,93.23 C 92.9,92.23 92.1,91.68 91.26,91.7 C 90.44,91.68 89.64,92.23 89.05,93.23 C 87.89,94.91 86.43,95.84 84.91,95.84 C 83.4,95.84 81.94,94.91 80.79,93.23 C 80.19,92.23 79.4,91.68 78.57,91.7 C 77.74,91.68 76.94,92.23 76.34,93.23 C 75.18,94.91 73.73,95.83 72.21,95.83 C 70.71,95.83 69.25,94.91 68.1,93.23 C 67.49,92.25 66.7,91.7 65.88,91.7 C 65.04,91.7 64.25,92.25 63.64,93.23 C 62.5,94.94 61.04,95.86 59.52,95.83 C 58.01,95.86 56.54,94.94 55.38,93.23 C 54.79,92.24 53.99,91.69 53.16,91.69 C 52.34,91.69 51.55,92.24 50.95,93.23 C 49.8,94.94 48.33,95.86 46.81,95.83 C 45.3,95.86 43.84,94.94 42.69,93.23 C 42.1,92.23 41.3,91.68 40.48,91.7 C 39.64,91.68 38.84,92.23 38.24,93.23 C 37.09,94.91 35.63,95.83 34.12,95.83 C 32.61,95.83 31.15,94.91 30,93.23 C 29.4,92.25 28.6,91.7 27.78,91.7 C 26.95,91.7 26.15,92.25 25.55,93.23 C 24.4,94.91 22.94,95.83 21.42,95.83 C 19.93,95.83 18.46,94.91 17.31,93.23 C 16.71,92.23 15.9,91.68 15.07,91.7 C 14.25,91.68 13.45,92.23 12.86,93.23 C 11.71,94.93 10.25,95.85 8.74,95.83 C 7.23,95.86 5.75,94.94 4.6,93.23 C 4,92.23 3.21,91.68 2.38,91.7 L 2.38 75.16 C 3.89,75.13 5.36,76.08 6.5,77.81 C 7.11,78.77 7.9,79.3 8.72,79.3 C 9.55,79.3 10.34,78.77 10.95,77.81 C 12.1,76.08 13.56,75.14 15.07,75.16 C 16.59,75.14 18.06,76.08 19.21,77.81 C 19.81,78.79 20.61,79.32 21.42,79.3 C 22.25,79.31 23.04,78.78 23.64,77.81 C 24.06,77.22 24.51,76.7 25,76.28 L 25 64.16 L 2.38 64.16 L 2.38 47.63 L 4.36 47.63 C 19.93,47.63 25,17.36 25,6.95 L 25 4.22 L 28.16 4.22 L 28.16 6.95 C 28.29,15.55 29.75,23.93 32.38,31.21 C 34.33,36.35 37.01,40.5 40.18,43.26 C 43.35,46.02 46.88,47.28 50.4,46.92 C 53.95,47.24 57.49,45.86 60.63,42.95 C 63.75,40.03 66.38,35.69 68.19,30.39 C 70.66,23.27 72.05,15.17 72.21,6.86 L 72.21 4.13 L 75.4 4.13 M 77.79 0 L 69.84 0 L 69.84 6.86 C 69.66,14.41 68.4,21.76 66.16,28.24 C 64.56,32.93 62.24,36.76 59.45,39.31 C 56.67,41.86 53.54,43.04 50.4,42.71 C 47.26,43.08 44.13,41.99 41.3,39.55 C 38.49,37.11 36.1,33.4 34.38,28.82 C 31.98,22.23 30.65,14.62 30.55,6.82 L 30.55 0.08 L 22.63 0.08 L 22.63 6.95 C 22.63,16.33 18.12,43.49 4.36,43.49 L 0 43.49 L 0 68.3 L 22.63 68.3 L 22.63 73.96 L 22.21 74.5 C 21.69,75.16 21.69,75.16 21.42,75.16 C 21.16,75.16 21.16,75.16 20.64,74.5 C 19.09,72.22 17.11,70.99 15.07,71.03 C 13.04,70.99 11.08,72.22 9.53,74.5 C 9,75.16 9,75.16 8.74,75.16 C 8.47,75.16 8.47,75.16 7.93,74.5 C 6.39,72.22 4.41,70.98 2.38,71.03 L 0 71.03 L 0 95.83 L 2.38 95.83 C 2.64,95.83 2.64,95.83 3.17,96.54 C 4.74,98.78 6.71,99.99 8.74,99.97 C 10.76,99.99 12.72,98.78 14.29,96.54 C 14.81,95.83 14.81,95.83 15.07,95.83 C 15.34,95.83 15.34,95.83 15.88,96.54 C 17.45,98.75 19.41,99.96 21.42,99.96 C 23.45,99.96 25.41,98.75 26.98,96.54 C 27.5,95.83 27.5,95.83 27.76,95.83 C 28.02,95.83 28.05,95.83 28.58,96.54 C 30.14,98.75 32.1,99.96 34.12,99.96 C 36.14,99.96 38.1,98.75 39.66,96.54 C 40.21,95.83 40.21,95.83 40.48,95.83 C 40.74,95.83 40.74,95.83 41.26,96.54 C 42.84,98.75 44.8,99.97 46.83,99.97 C 48.85,99.97 50.81,98.75 52.38,96.54 C 52.9,95.83 52.9,95.83 53.16,95.83 C 53.43,95.83 53.43,95.83 53.95,96.54 C 55.53,98.75 57.49,99.97 59.51,99.97 C 61.54,99.97 63.5,98.75 65.07,96.54 C 65.6,95.83 65.6,95.83 65.86,95.83 C 66.13,95.83 66.13,95.83 66.66,96.54 C 68.24,98.75 70.19,99.96 72.21,99.96 C 74.24,99.96 76.2,98.75 77.76,96.54 C 78.31,95.83 78.31,95.83 78.57,95.83 C 78.84,95.83 78.84,95.83 79.36,96.54 C 80.93,98.75 82.89,99.97 84.91,99.97 C 86.94,99.97 88.9,98.75 90.48,96.54 C 91,95.83 91,95.83 91.26,95.83 C 91.53,95.83 91.53,95.83 92.07,96.54 C 93.63,98.78 95.6,100 97.62,99.97 L 100 99.97 L 100 75.16 L 97.62 75.16 C 97.36,75.16 97.36,75.16 96.84,74.5 C 95.26,72.26 93.3,71.03 91.27,71.03 C 89.25,71.03 87.27,72.26 85.71,74.5 C 85.19,75.16 85.19,75.16 84.9,75.16 C 84.63,75.16 84.64,75.16 84.13,74.5 C 82.57,72.22 80.6,70.99 78.57,71.03 L 77.79 71.03 L 77.79 68.22 L 100 68.22 L 100 43.41 L 96.02 43.41 C 82.26,43.41 77.79,16.25 77.79,6.86 L 77.79 0.08 L 77.79 0 L 77.79 0" fill="#FFFFFF" stroke="none" stroke-width="0.5"/>
  </g>
  <g transform="translate(34.00,1.00) scale(0.1600,0.1600)">
    <path d="M 19.34 89.66 L 22.12 79.45 L 12.04 82.69 L 0.38 56.37 L 9.39 51.08 L 0 46.15 L 10.33 19.35 L 20.54 22 L 17.45 11.9 L 43.6 0.24 L 49.02 9.38 L 53.81 0 L 80.66 10.34 L 77.95 20.43 L 88.03 17.31 L 99.75 43.63 L 90.67 48.92 L 100 53.85 L 89.67 80.65 L 79.46 78 L 82.73 88.1 L 56.46 99.76 L 51.04 90.62 L 46.25 100 L 19.34 89.66 L 19.34 89.66" fill="#FFFFFF" stroke="none" stroke-width="0.5"/>
  </g>
  <g transform="translate(33.00,0.00) scale(0.1900,0.1900)">
    <path d="M 56.16 13.05 L 70.79 18.68 L 68.71 26.51 C 70.25,27.67 71.62,29 72.88,30.48 L 80.6 27.98 L 86.96 42.28 L 79.95 46.35 C 80.16,48.25 80.16,50.18 79.95,52.09 L 87.18 55.74 L 81.53 70.36 L 73.81 68.37 C 72.6,69.85 71.29,71.22 69.86,72.44 L 72.22 80.17 L 57.97 86.53 L 53.86 79.54 C 52.71,79.64 51.51,79.64 50.3,79.54 L 48.22 79.54 L 44.49 86.74 L 29.86 81.11 L 31.95 73.28 C 30.47,72.09 29.04,70.76 27.78,69.31 L 20.05 71.82 L 13.37 57.72 L 20.38 53.65 C 20.16,51.75 20.16,49.82 20.38,47.91 L 13.15 44.26 L 18.79 29.64 L 26.63 31.63 C 27.78,30.12 29.04,28.76 30.52,27.56 L 28 19.83 L 42.3 13.47 L 46.36 20.46 C 47.56,20.35 48.82,20.35 50.03,20.46 L 52 20.46 L 56.16 13.05 L 56.16 13.05 M 50.74 0 L 48.77 3.86 L 46.58 0 L 38.03 3.76 L 23.73 10.44 L 15.18 14.3 L 16.49 18.48 L 12.33 17.33 L 8.88 26.1 L 3.34 40.71 L 0 49.37 L 3.89 51.46 L 0.11 53.65 L 3.89 62.11 L 10.25 76.51 L 14.14 84.97 L 18.19 83.51 L 17.15 87.68 L 25.81 91.02 L 40.44 96.66 L 49.21 100 L 51.18 96.14 L 53.37 99.9 L 61.92 96.14 L 76.22 89.77 L 84.77 85.91 L 83.4 81.73 L 87.67 82.88 L 91.01 74.11 L 96.66 59.5 L 100 50.84 L 96.05 48.75 L 99.89 46.56 L 96.05 38.1 L 89.7 23.7 L 85.92 15.24 L 81.75 16.49 L 82.79 12.32 L 74.14 8.98 L 59.51 3.34 L 50.74 0 L 50.74 0" fill="#FFFFFF" stroke="none" stroke-width="0.5"/>
  </g>
  <g transform="translate(38.00,16.00) scale(0.2900,0.2900)">
    <path d="M 33.89 100 L 32.93 91.15 L 25.98 96.76 L 3.23 74 L 8.76 67.05 L 0 66.1 L 0 33.9 L 8.76 32.95 L 3.23 26 L 25.98 3.24 L 32.93 8.78 L 33.89 0 L 66.04 0 L 67.03 8.78 L 73.91 3.24 L 96.67 26 L 91.14 32.95 L 100 33.9 L 100 66.1 L 91.14 67.05 L 96.67 74 L 73.91 96.69 L 67.03 91.15 L 66.04 100 L 33.89 100 L 33.89 100" fill="#FFFFFF" stroke="none" stroke-width="0.5"/>
  </g>
  <g transform="translate(36.00,15.00) scale(0.3100,0.3200)">
    <path d="M 62.25 6.3 L 63.38 16.94 L 63.81 16.94 L 72.24 10.26 L 89.51 27.96 L 82.8 36.27 L 82.8 36.71 L 93.49 37.91 L 93.49 61.96 L 82.8 63.16 L 82.8 63.54 L 89.51 72.04 L 72.24 89.23 L 63.81 82.56 L 63.38 82.56 L 62.25 93.2 L 37.78 93.2 L 36.55 82.56 L 36.12 82.56 L 27.79 89.23 L 10.19 72.04 L 16.9 63.66 L 16.9 63.29 L 6.27 62.09 L 6.27 37.59 L 16.9 36.4 L 16.9 35.96 L 10.19 27.96 L 27.52 10.71 L 35.86 17.38 L 36.32 17.38 L 37.52 6.74 L 61.99 6.74 M 67.63 0.44 L 32.07 0.44 L 31.51 5.79 L 27.26 2.46 L 23.27 6.42 L 5.94 23.61 L 1.96 27.64 L 5.31 31.8 L 0 32.43 L 0 68.01 L 5.31 68.64 L 1.96 72.8 L 5.94 76.83 L 23.27 94.02 L 27.26 97.98 L 31.51 94.65 L 32.07 100 L 67.86 100 L 68.49 94.65 L 72.68 97.98 L 76.66 94.02 L 93.99 76.83 L 97.97 72.8 L 94.62 68.64 L 100 68.01 L 100 31.99 L 94.62 31.36 L 97.97 27.2 L 93.99 23.17 L 76.66 5.98 L 72.68 2.02 L 68.49 5.35 L 67.86 0 L 67.63 0.44 L 67.63 0.44" fill="#FFFFFF" stroke="none" stroke-width="0.5"/>
  </g>
  <g transform="translate(12.00,54.00) scale(0.8000,0.1200)">
    <path d="M 0 21.12 L 23.75 21.12 L 23.75 67.29 C 23.24,68.92 22.76,70.87 22.32,73.12 C 21.69,76.82 20.86,78.86 19.99,78.79 C 19.14,78.89 18.3,76.85 17.67,73.12 C 16.46,66.55 14.92,62.97 13.33,63.03 C 11.74,62.96 10.2,66.55 9,73.12 C 8.35,76.79 7.53,78.81 6.66,78.81 C 5.79,78.81 4.97,76.79 4.32,73.12 C 3.13,66.53 1.59,62.94 0,63.03 L 0 84.15 C 0.43,84.08 0.85,84.55 1.25,85.52 C 1.65,86.5 2.02,87.95 2.32,89.82 C 3.54,96.34 5.07,99.92 6.66,99.92 C 8.25,99.92 9.78,96.34 11,89.82 C 11.31,87.95 11.67,86.5 12.07,85.52 C 12.47,84.55 12.89,84.08 13.33,84.15 C 14.19,84.01 15.03,86.04 15.68,89.82 C 16.88,96.33 18.41,99.9 19.99,99.9 C 21.58,99.9 23.12,96.33 24.33,89.82 C 24.97,86.16 25.8,84.12 26.66,84.12 C 27.53,84.12 28.35,86.16 29,89.82 C 30.21,96.33 31.74,99.9 33.33,99.9 C 34.9,99.9 36.44,96.33 37.65,89.82 C 38.28,86.04 39.13,84.01 40,84.15 C 40.43,84.08 40.85,84.55 41.26,85.52 C 41.65,86.5 42.02,87.95 42.32,89.82 C 43.53,96.38 45.06,99.98 46.65,99.91 C 48.24,99.97 49.79,96.38 50.99,89.82 C 51.64,86.17 52.46,84.14 53.32,84.14 C 54.18,84.14 55.01,86.17 55.64,89.82 C 56.86,96.38 58.4,99.97 60,99.91 C 61.59,99.98 63.12,96.38 64.32,89.82 C 64.96,86.16 65.8,84.12 66.66,84.12 C 67.52,84.12 68.36,86.16 69,89.82 C 70.19,96.33 71.73,99.9 73.32,99.9 C 74.91,99.9 76.44,96.33 77.65,89.82 C 78.28,86.04 79.12,84.01 80,84.15 C 80.42,84.08 80.85,84.55 81.25,85.52 C 81.65,86.5 82.01,87.95 82.32,89.82 C 83.53,96.34 85.06,99.92 86.65,99.92 C 88.25,99.92 89.79,96.34 91,89.82 C 91.3,87.95 91.67,86.5 92.07,85.52 C 92.47,84.55 92.89,84.08 93.32,84.15 C 94.19,84.01 95.04,86.04 95.67,89.82 C 96.86,96.42 98.4,100 100,99.91 L 100 78.79 C 99.13,78.86 98.29,76.82 97.66,73.12 C 96.46,66.55 94.92,62.97 93.32,63.03 C 91.73,62.96 90.2,66.55 88.99,73.12 C 88.36,76.79 87.52,78.81 86.65,78.81 C 85.79,78.81 84.96,76.79 84.32,73.12 C 83.12,66.55 81.59,62.96 80,63.03 C 78.82,62.88 77.68,64.85 76.67,68.7 L 76.67 21.43 L 100 21.43 L 100 0 L 0 0 L 0 21.12 L 0 21.12 M 73.32 78.79 C 72.45,78.86 71.63,76.82 71,73.12 C 69.79,66.6 68.25,63.02 66.66,63.02 C 65.06,63.02 63.53,66.6 62.32,73.12 C 61.69,76.82 60.86,78.86 60,78.79 C 59.13,78.85 58.29,76.82 57.65,73.12 C 56.44,66.62 54.91,63.05 53.32,63.05 C 51.73,63.05 50.21,66.62 49,73.12 C 48.36,76.79 47.53,78.81 46.66,78.81 C 45.8,78.81 44.96,76.79 44.33,73.12 C 43.12,66.55 41.58,62.96 40,63.03 C 38.41,62.97 36.86,66.55 35.65,73.12 C 35.02,76.85 34.18,78.89 33.33,78.79 C 32.46,78.86 31.62,76.82 30.99,73.12 C 29.89,67.26 28.51,63.77 27.07,63.19 L 27.07 21.12 L 73.32 21.12 L 73.32 78.79 L 73.32 78.79" fill="#2c5967" stroke="none" stroke-width="0.5"/>
  </g>
  <g transform="translate(12.00,28.00) scale(0.8000,0.2300)">
    <path d="M 98.32 88.61 C 81.99,88.61 76.67,26.84 76.67,5.57 L 76.67 0 L 73.32 0 L 73.32 5.57 C 73.15,22.53 71.69,39.06 69.09,53.59 C 67.19,64.41 64.43,73.28 61.15,79.23 C 57.86,85.17 54.14,87.98 50.42,87.34 C 46.72,88.07 43.01,85.5 39.68,79.86 C 36.36,74.24 33.54,65.75 31.49,55.27 C 28.74,40.4 27.2,23.29 27.07,5.74 L 27.07 0.17 L 23.75 0.17 L 23.75 5.74 C 23.75,27 18.42,88.77 2.07,88.77 L 0 88.77 L 0 100 L 100 100 L 100 88.61 L 98.32 88.61 L 98.32 88.61 M 23.75 88.61 L 13.94 88.61 C 17.08,81.7 19.73,72.6 21.73,61.94 C 22.46,57.93 23.13,53.78 23.75,49.54 L 23.75 88.61 L 23.75 88.61 M 27.07 88.61 L 27.07 51.64 C 27.57,54.85 28.09,58.14 28.7,61.27 C 30.9,72.75 33.92,82.16 37.5,88.61 L 27.07 88.61 L 27.07 88.61 M 73.32 88.61 L 62.92 88.61 C 66.63,81.76 69.74,71.75 71.94,59.58 C 72.44,56.71 72.92,53.84 73.32,51.14 L 73.32 88.61 L 73.32 88.61 M 76.67 88.61 L 76.67 49.54 C 77.27,53.82 77.94,57.96 78.7,61.94 C 80.68,72.6 83.32,81.7 86.44,88.61 L 76.67 88.61 L 76.67 88.61" fill="#2c5967" stroke="none" stroke-width="0.5"/>
  </g>
  <g transform="translate(12.00,68.00) scale(0.8000,0.0400)">
    <path d="M 93.32 0.2 C 91.73,0.11 90.21,9.63 88.99,27.08 C 88.36,37.19 87.52,42.81 86.65,42.81 C 85.79,42.81 84.96,37.19 84.32,27.08 C 83.11,9.63 81.57,0.11 80,0.2 C 78.41,0.13 76.86,9.66 75.64,27.08 C 75.01,37.25 74.18,42.92 73.32,42.92 C 72.45,42.92 71.63,37.25 71,27.08 C 69.77,9.68 68.24,0.13 66.66,0.13 C 65.08,0.13 63.54,9.68 62.32,27.08 C 61.7,37.39 60.86,43.06 60,42.85 C 59.12,43.08 58.28,37.41 57.65,27.08 C 56.44,9.7 54.91,0.18 53.32,0.18 C 51.74,0.18 50.21,9.7 49,27.08 C 48.36,37.19 47.53,42.81 46.66,42.81 C 45.8,42.81 44.96,37.19 44.33,27.08 C 43.11,9.63 41.58,0.11 40,0.2 C 38.41,0.13 36.87,9.66 35.65,27.08 C 35.34,32.21 34.98,36.27 34.58,38.98 C 34.18,41.69 33.75,43.01 33.33,42.85 C 32.45,43.06 31.62,37.39 30.99,27.08 C 29.79,9.68 28.25,0.13 26.66,0.13 C 25.07,0.13 23.54,9.68 22.32,27.08 C 21.7,37.39 20.86,43.06 19.99,42.85 C 19.57,43.01 19.14,41.69 18.75,38.98 C 18.34,36.27 17.97,32.21 17.67,27.08 C 16.45,9.66 14.92,0.13 13.33,0.2 C 11.74,0.11 10.2,9.63 9,27.08 C 8.37,37.19 7.53,42.81 6.66,42.81 C 5.79,42.81 4.95,37.19 4.32,27.08 C 3.12,9.54 1.58,0 0,0.2 L 0 56.94 C 0.87,56.74 1.7,62.41 2.32,72.74 C 3.54,90.34 5.09,99.91 6.67,99.62 C 8.26,99.84 9.8,90.3 11,72.74 C 11.62,62.41 12.46,56.74 13.33,56.94 C 14.19,56.72 15.05,62.39 15.68,72.74 C 16.88,90.1 18.42,99.62 19.99,99.62 C 21.58,99.62 23.12,90.1 24.33,72.74 C 24.96,62.61 25.8,56.99 26.66,56.99 C 27.53,56.99 28.37,62.61 29,72.74 C 30.21,90.1 31.74,99.62 33.33,99.62 C 34.9,99.62 36.44,90.1 37.65,72.74 C 38.28,62.39 39.12,56.72 40,56.94 C 40.86,56.74 41.7,62.41 42.32,72.74 C 43.53,90.37 45.06,99.91 46.65,99.62 C 48.24,99.91 49.79,90.34 50.99,72.74 C 51.62,62.54 52.45,56.88 53.32,56.88 C 54.18,56.88 55.02,62.54 55.64,72.74 C 56.86,90.34 58.41,99.91 60,99.62 C 61.59,99.91 63.12,90.37 64.32,72.74 C 64.96,62.61 65.79,56.99 66.66,56.99 C 67.53,56.99 68.36,62.61 69,72.74 C 70.21,90.1 71.74,99.62 73.32,99.62 C 74.91,99.62 76.43,90.1 77.65,72.74 C 78.28,62.39 79.12,56.72 80,56.94 C 80.86,56.74 81.69,62.41 82.32,72.74 C 83.53,90.12 85.06,99.66 86.65,99.66 C 88.24,99.66 89.78,90.12 91,72.74 C 91.61,62.41 92.45,56.74 93.32,56.94 C 94.2,56.72 95.04,62.39 95.67,72.74 C 96.86,90.43 98.41,100 100,99.62 L 100 42.85 C 99.12,43.06 98.29,37.39 97.66,27.08 C 96.44,9.66 94.91,0.13 93.32,0.2 L 93.32 0.2" fill="#2c5967" stroke="none" stroke-width="0.5"/>
  </g>
  <g transform="translate(35.00,2.00) scale(0.1400,0.1400)">
    <path d="M 9.95 54.94 L 0.45 60.45 L 9.06 79.8 L 19.52 76.41 C 21.23,78.38 23.16,80.18 25.24,81.78 L 22.35 92.37 L 42.17 100 L 47.29 90.25 L 50.11 90.25 C 51.67,90.39 53.3,90.39 54.94,90.25 L 60.43 99.72 L 79.81 91.1 L 76.54 80.65 C 78.47,78.99 80.33,77.15 81.89,75.14 L 92.35 77.82 L 100 58.05 L 90.27 52.97 C 90.57,50.38 90.57,47.78 90.27,45.2 L 99.7 39.69 L 90.94 20.2 L 80.48 23.59 C 78.84,21.59 76.91,19.79 74.83,18.22 L 77.65 7.63 L 58.43 0 L 53.38 9.75 L 50.63 9.75 C 49,9.6 47.36,9.6 45.73,9.75 L 40.16 0.28 L 20.27 9.18 L 23.53 19.63 C 21.53,21.26 19.82,23.11 18.26,25.14 L 7.65 22.46 L 0 42.23 L 9.8 47.18 C 9.58,49.76 9.58,52.37 9.95,54.94 L 9.95 54.94 M 41.35 30.37 C 44.1,29.14 47.07,28.51 50.11,28.53 C 55.01,28.61 59.69,30.36 63.47,33.49 C 67.26,36.62 69.86,40.94 70.82,45.73 C 71.79,50.53 71.12,55.51 68.82,59.86 C 66.59,64.21 62.88,67.65 58.43,69.63 C 53.23,71.92 47.36,72.06 42.02,70.02 C 36.75,67.98 32.44,63.93 30.14,58.76 C 28.95,56.16 28.36,53.37 28.29,50.53 C 28.21,47.68 28.73,44.86 29.77,42.21 C 30.81,39.57 32.37,37.16 34.37,35.12 C 36.3,33.09 38.68,31.47 41.35,30.37 L 41.35 30.37" fill="#2c5967" stroke="none" stroke-width="0.5"/>
  </g>
  <g transform="translate(46.00,24.00) scale(0.1300,0.1300)">
    <path d="M 0.08 49.39 C 0,59.19 2.9,68.78 8.31,76.95 C 13.8,85.11 21.49,91.48 30.56,95.24 C 39.56,99.01 49.54,100 59.15,98.09 C 68.83,96.19 77.59,91.47 84.53,84.54 C 91.46,77.61 96.19,68.77 98.09,59.16 C 100,49.54 99.01,39.57 95.27,30.52 C 91.46,21.47 85.14,13.74 76.98,8.31 C 68.83,2.88 59.22,0 49.39,0.03 C 36.36,0.07 23.78,5.28 14.56,14.53 C 5.34,23.78 0.08,36.31 0.08,49.39 L 0.08 49.39 M 49.39 19.34 C 55.41,19.31 61.28,21.06 66.23,24.37 C 71.27,27.67 75.15,32.39 77.44,37.91 C 79.73,43.43 80.34,49.52 79.19,55.39 C 78.05,61.26 75.15,66.65 70.88,70.89 C 66.69,75.12 61.28,78 55.41,79.16 C 49.54,80.32 43.45,79.71 37.96,77.4 C 32.39,75.1 27.67,71.21 24.39,66.22 C 21.11,61.23 19.36,55.37 19.36,49.39 C 19.36,41.42 22.48,33.77 28.13,28.14 C 33.77,22.5 41.46,19.34 49.39,19.34 L 49.39 19.34" fill="#2c5967" stroke="none" stroke-width="0.5"/>
  </g>
  <g transform="translate(38.00,17.00) scale(0.2700,0.2700)">
    <path d="M 34.72 12.44 L 34.22 12.44 L 24.67 4.92 L 4.49 25.09 L 12.18 34.63 L 12.18 35.14 L 0 36.51 L 0 64.14 L 12.18 65.51 L 12.18 65.94 L 4.49 75.71 L 24.36 95.44 L 33.92 87.78 L 34.45 87.78 L 35.82 100 L 63.88 100 L 65.17 87.78 L 65.7 87.78 L 75.33 95.44 L 95.43 75.71 L 87.74 66.09 L 87.74 65.65 L 100 64.28 L 100 36.15 L 87.74 34.78 L 87.74 34.27 L 95.43 25.09 L 75.64 4.99 L 65.97 12.22 L 65.47 12.22 L 64.18 0 L 36.12 0 L 34.72 12.44 L 34.72 12.44 M 43.66 19.67 L 44.73 9.91 L 55.23 9.91 L 56.34 19.67 L 59.31 20.61 C 61.02,21.1 62.7,21.78 64.26,22.63 L 67 24.08 L 74.91 17.86 L 82.15 25.45 L 76.06 32.68 L 77.5 35.5 C 78.34,37.05 79.03,38.67 79.56,40.35 L 80.47 43.31 L 90.22 44.4 L 90.22 55.17 L 80.47 56.18 L 79.56 59.22 C 78.99,60.89 78.34,62.51 77.5,64.06 L 76.06 66.81 L 82.15 74.48 L 74.91 82.07 L 67.22 75.92 L 64.45 77.37 C 62.89,78.19 61.25,78.87 59.54,79.39 L 56.57 80.33 L 55.23 90.17 L 44.73 90.17 L 43.66 80.4 L 40.73 79.75 C 39.06,79.23 37.46,78.55 35.9,77.73 L 33.08 76.28 L 25.47 82.43 L 17.85 74.84 L 23.94 67.17 L 22.46 64.42 C 21.7,62.86 21.01,61.24 20.44,59.58 L 19.49 56.54 L 9.78 55.53 L 9.78 44.76 L 19.49 43.67 L 20.44 40.71 C 21.01,39.05 21.7,37.43 22.46,35.86 L 23.94 33.04 L 17.85 25.81 L 25.39 17.86 L 33 24.01 L 35.82 22.56 C 37.34,21.71 38.98,21.03 40.69,20.53 L 43.66 19.67 L 43.66 19.67" fill="#2c5967" stroke="none" stroke-width="0.5"/>
  </g>
</svg>