<svg xmlns="http://www.w3.org/2000/svg" viewBox="0 0 84.0 119.00000000000027" width="84" height="119">
  <g transform="translate(11.00,26.00) scale(0.8200,0.4600)">
    <path d="M 98.78 100 C 97,99.99 95.27,98.88 93.9,96.85 C 93.2,95.9 93.03,95.68 92.34,95.68 C 91.66,95.68 91.49,95.94 90.8,96.85 C 89.41,98.89 87.65,100 85.84,100 C 84.03,100 82.28,98.89 80.88,96.85 C 80.2,95.9 80,95.68 79.34,95.68 C 78.68,95.68 78.49,95.68 77.81,96.81 C 76.41,98.86 74.66,99.98 72.84,99.98 C 71.03,99.98 69.27,98.86 67.88,96.81 C 67.2,95.9 67,95.64 66.32,95.64 C 65.63,95.64 65.46,95.9 64.78,96.81 C 63.39,98.84 61.64,99.95 59.83,99.95 C 58.02,99.95 56.27,98.84 54.88,96.81 C 54.17,95.9 54,95.64 53.32,95.64 C 52.63,95.64 52.46,95.9 51.78,96.76 C 50.42,98.82 48.69,99.96 46.9,99.95 C 45.12,99.95 43.39,98.84 42.02,96.81 C 41.34,95.9 41.15,95.64 40.49,95.64 C 39.83,95.64 39.64,95.9 38.95,96.76 C 37.56,98.81 35.8,99.94 33.99,99.94 C 32.17,99.94 30.42,98.81 29.02,96.76 C 28.34,95.86 28.15,95.6 27.46,95.6 C 26.78,95.6 26.61,95.86 25.93,96.76 C 24.56,98.79 22.83,99.91 21.05,99.91 C 19.26,99.92 17.53,98.8 16.17,96.76 C 15.46,95.86 15.29,95.6 14.61,95.6 C 13.93,95.6 13.76,95.86 13.07,96.72 C 11.72,98.78 9.99,99.91 8.2,99.91 C 6.41,99.9 4.69,98.79 3.32,96.76 C 2.63,95.86 2.46,95.6 1.78,95.6 L 0 95.6 L 0 74.02 L 1.22 74.02 C 3,74.02 4.73,75.14 6.1,77.17 C 6.78,78.07 6.98,78.33 7.66,78.33 C 8.34,78.33 8.51,78.07 9.2,77.17 C 10.59,75.13 12.34,74.02 14.15,74.02 C 15.95,74.02 17.7,75.13 19.1,77.17 C 19.81,78.07 19.98,78.33 20.66,78.33 C 21.34,78.33 21.51,78.07 22.19,77.17 L 23.1 76.05 L 23.1 66.9 L 0 66.9 L 0 45.32 L 3.24 45.32 C 18.29,45.32 23.17,15.36 23.17,5.05 L 23.17 0 L 28.85 0 L 28.85 5.05 C 28.95,13.6 30.36,21.94 32.93,29.18 C 34.82,34.22 37.42,38.3 40.48,41.01 C 43.54,43.71 46.95,44.94 50.37,44.58 C 53.77,44.87 57.15,43.52 60.15,40.69 C 63.16,37.85 65.68,33.64 67.44,28.48 C 69.84,21.38 71.19,13.32 71.37,5.05 L 71.37 0 L 77.07 0 L 77.07 5.05 C 77.07,15.36 81.95,45.32 96.98,45.32 L 100 45.32 L 100 66.9 L 77.24 66.9 L 77.24 74.53 C 78.45,74 79.7,73.96 80.91,74.43 C 82.13,74.9 83.26,75.87 84.22,77.25 C 84.9,78.16 85.1,78.42 85.78,78.42 C 86.46,78.42 86.63,78.16 87.32,77.25 C 88.71,75.22 90.46,74.11 92.27,74.11 C 94.08,74.11 95.83,75.22 97.22,77.25 C 97.93,78.16 98.1,78.42 98.78,78.42 L 100 78.42 L 100 100 L 98.78 100 L 98.78 100" fill="#FFFFFF" stroke="none" stroke-width="0.5"/>
  </g>
  <g transform="translate(10.00,25.00) scale(0.8400,0.4800)">
    <path d="M 75.41 4.21 L 75.41 6.97 C 75.41,17.37 80.48,47.53 96.02,47.53 L 97.62 47.53 L 97.62 64.03 L 75.41 64.03 L 75.41 76.41 C 76.37,75.5 77.47,75.09 78.57,75.21 C 80.08,75.18 81.55,76.11 82.69,77.81 C 83.3,78.79 84.09,79.33 84.92,79.33 C 85.74,79.33 86.54,78.79 87.14,77.81 C 88.29,76.11 89.75,75.18 91.26,75.21 C 92.78,75.18 94.25,76.11 95.41,77.81 C 96,78.81 96.79,79.36 97.62,79.34 L 97.62 95.84 C 96.11,95.86 94.65,94.94 93.5,93.24 C 92.9,92.24 92.1,91.7 91.26,91.71 C 90.44,91.7 89.64,92.25 89.05,93.24 C 87.89,94.92 86.43,95.85 84.92,95.85 C 83.41,95.85 81.94,94.92 80.79,93.24 C 80.19,92.25 79.4,91.7 78.57,91.71 C 77.74,91.7 76.94,92.24 76.33,93.24 C 75.18,94.92 73.72,95.84 72.21,95.84 C 70.71,95.84 69.25,94.92 68.1,93.24 C 67.49,92.27 66.7,91.72 65.87,91.72 C 65.04,91.72 64.25,92.27 63.64,93.24 C 62.49,94.93 61.03,95.85 59.52,95.84 C 58.01,95.85 56.54,94.93 55.38,93.24 C 54.78,92.26 53.99,91.71 53.17,91.71 C 52.34,91.71 51.55,92.26 50.95,93.24 C 49.79,94.93 48.32,95.85 46.81,95.84 C 45.3,95.85 43.84,94.93 42.69,93.24 C 42.1,92.25 41.3,91.7 40.48,91.71 C 39.64,91.7 38.84,92.24 38.24,93.24 C 37.08,94.92 35.63,95.84 34.12,95.84 C 32.61,95.84 31.15,94.92 30,93.24 C 29.4,92.27 28.6,91.72 27.77,91.72 C 26.95,91.72 26.15,92.27 25.55,93.24 C 24.39,94.92 22.94,95.84 21.43,95.84 C 19.92,95.84 18.46,94.92 17.31,93.24 C 16.71,92.24 15.9,91.7 15.07,91.71 C 14.25,91.7 13.45,92.25 12.86,93.24 C 11.7,94.92 10.24,95.85 8.73,95.85 C 7.22,95.85 5.75,94.92 4.6,93.24 C 4,92.25 3.21,91.7 2.38,91.71 L 2.38 75.21 C 3.89,75.18 5.36,76.1 6.5,77.81 C 7.1,78.79 7.9,79.33 8.73,79.33 C 9.55,79.33 10.35,78.79 10.95,77.81 C 12.1,76.11 13.56,75.18 15.07,75.21 C 16.59,75.18 18.06,76.11 19.21,77.81 C 19.51,78.31 19.85,78.7 20.23,78.96 C 20.61,79.23 21.02,79.35 21.43,79.34 C 22.25,79.36 23.05,78.81 23.64,77.81 C 24.08,77.25 24.53,76.74 25,76.29 L 25 64.03 L 2.38 64.03 L 2.38 47.53 L 4.36 47.53 C 19.93,47.53 25,17.37 25,6.97 L 25 4.21 L 28.17 4.21 L 28.17 6.97 C 28.29,15.54 29.74,23.9 32.38,31.15 C 34.32,36.29 37.01,40.45 40.17,43.21 C 43.34,45.97 46.87,47.23 50.4,46.87 C 53.96,47.18 57.49,45.81 60.62,42.9 C 63.76,39.99 66.37,35.66 68.19,30.37 C 70.67,23.26 72.05,15.18 72.21,6.89 L 72.21 4.13 L 75.41 4.13 M 77.79 0 L 69.83 0 L 69.83 6.89 C 69.66,14.41 68.4,21.73 66.17,28.18 C 64.56,32.87 62.24,36.7 59.46,39.26 C 56.68,41.81 53.55,42.99 50.4,42.66 C 47.27,43.04 44.13,41.96 41.31,39.53 C 38.49,37.1 36.1,33.41 34.38,28.84 C 31.98,22.26 30.65,14.67 30.55,6.89 L 30.55 0.08 L 22.62 0.08 L 22.62 6.97 C 22.62,16.3 18.12,43.4 4.36,43.4 L 0 43.4 L 0 68.16 L 22.62 68.16 L 22.62 73.85 L 22.21 74.35 C 21.69,75.21 21.69,75.21 21.43,75.21 C 21.17,75.21 21.17,75.21 20.64,74.51 C 19.07,72.3 17.11,71.09 15.08,71.09 C 13.06,71.09 11.1,72.3 9.52,74.51 C 9,75.21 9,75.21 8.74,75.21 C 8.48,75.21 8.48,75.21 7.93,74.51 C 6.37,72.27 4.41,71.05 2.38,71.09 L 0 71.09 L 0 95.84 L 2.38 95.84 C 2.64,95.84 2.64,95.84 3.17,96.54 C 4.73,98.79 6.71,100 8.74,99.97 C 10.77,99.95 12.74,98.67 14.29,96.38 C 14.81,95.68 14.81,95.68 15.07,95.68 C 15.33,95.68 15.33,95.68 15.88,96.38 C 17.45,98.59 19.41,99.8 21.43,99.8 C 23.45,99.8 25.41,98.59 26.98,96.38 C 27.5,95.68 27.5,95.68 27.76,95.68 C 28.02,95.68 28.05,95.68 28.57,96.38 C 30.14,98.59 32.1,99.8 34.12,99.8 C 36.14,99.8 38.1,98.59 39.67,96.38 C 40.21,95.68 40.21,95.68 40.48,95.68 C 40.74,95.68 40.74,95.68 41.26,96.38 C 42.83,98.59 44.8,99.8 46.82,99.8 C 48.85,99.8 50.81,98.59 52.38,96.38 C 52.91,95.68 52.91,95.68 53.17,95.68 C 53.43,95.68 53.43,95.68 53.95,96.34 C 55.52,98.57 57.48,99.79 59.51,99.79 C 61.54,99.79 63.5,98.57 65.07,96.34 C 65.6,95.64 65.6,95.64 65.86,95.64 C 66.12,95.64 66.12,95.64 66.67,96.34 C 68.23,98.55 70.19,99.76 72.21,99.76 C 74.24,99.76 76.2,98.55 77.76,96.34 C 78.31,95.64 78.31,95.64 78.57,95.64 C 78.83,95.64 78.83,95.64 79.36,96.34 C 80.93,98.55 82.89,99.76 84.92,99.76 C 86.94,99.76 88.91,98.55 90.48,96.34 C 91,95.64 91,95.64 91.26,95.64 C 91.52,95.64 91.52,95.64 92.07,96.34 C 93.61,98.65 95.58,99.94 97.62,99.97 L 100 99.97 L 100 75.21 L 97.62 75.21 C 97.36,75.21 97.36,75.21 96.83,74.51 C 95.26,72.3 93.3,71.09 91.27,71.09 C 89.25,71.09 87.29,72.3 85.71,74.51 C 85.19,75.21 85.19,75.21 84.91,75.21 C 84.62,75.21 84.64,75.21 84.12,74.51 C 82.56,72.27 80.6,71.06 78.57,71.09 L 77.79 71.09 L 77.79 68.28 L 100 68.28 L 100 43.53 L 96.02 43.53 C 82.26,43.53 77.79,16.42 77.79,7.1 L 77.79 0.08 L 77.79 0 L 77.79 0" fill="#FFFFFF" stroke="none" stroke-width="0.5"/>
  </g>
  <g transform="translate(35.00,1.00) scale(0.3200,0.4000)">
    <path d="M 63.23 85.96 C 61.58,86.92 59.66,87.54 57.65,87.75 C 55.63,87.97 53.58,87.78 51.69,87.2 C 49.44,86.53 47.5,85.32 46.12,83.74 C 44.75,82.16 44.02,80.28 44.01,78.35 L 44.01 75.78 L 14.3 75.78 L 14.3 69.2 L 0 69.2 L 0 0 L 85.94 0 L 85.94 11.52 L 94.1 11.52 L 94.1 58.77 L 95.82 60.01 C 97.49,61.2 98.71,62.74 99.35,64.47 C 99.98,66.19 100,68.02 99.4,69.75 C 98.81,71.48 97.62,73.04 95.98,74.26 C 94.34,75.47 92.3,76.29 90.11,76.62 L 97.78 90.66 L 70.59 100 L 63.23 85.96 L 63.23 85.96" fill="#FFFFFF" stroke="none" stroke-width="0.5"/>
  </g>
  <g transform="translate(34.00,0.00) scale(0.3400,0.4300)">
    <path d="M 81.04 4.68 L 81.04 15.58 L 88.74 15.58 L 88.74 59.01 L 91.28 60.88 C 92.51,61.81 93.35,63.02 93.71,64.35 C 94.07,65.67 93.93,67.06 93.31,68.32 C 92.7,69.57 91.64,70.64 90.27,71.39 C 88.89,72.14 87.27,72.54 85.61,72.53 L 83.53 72.53 L 91.28 86.57 L 71.2 93.92 L 63.67 79.55 L 62.23 80.86 C 61.44,81.56 60.49,82.12 59.42,82.49 C 58.35,82.87 57.2,83.07 56.03,83.06 C 54.96,83.06 53.9,82.9 52.91,82.59 C 51.33,82.13 49.98,81.29 49.01,80.19 C 48.05,79.08 47.53,77.77 47.52,76.41 L 47.52 71.74 L 19.28 71.74 L 19.28 65.51 L 5.79 65.51 L 5.79 4.68 L 81.04 4.68 L 81.04 4.68 M 86.83 0 L 0 0 L 0 70.19 L 13.49 70.19 L 13.49 76.41 L 41.5 76.41 C 41.55,78.28 42.16,80.12 43.28,81.75 C 44.39,83.39 45.99,84.78 47.92,85.81 C 49.85,86.84 52.05,87.48 54.35,87.67 C 56.66,87.86 58.98,87.59 61.13,86.9 L 65.93 95.69 L 68.25 100 L 73.51 98.27 L 93.66 91.15 L 98.92 89.24 L 96.61 84.98 L 91.8 76.13 C 93.89,75.33 95.69,74.12 97.06,72.61 C 98.43,71.11 99.33,69.36 99.66,67.51 C 100,65.66 99.77,63.77 99,62.02 C 98.22,60.26 96.92,58.68 95.22,57.42 L 94.53 56.9 L 94.53 10.9 L 86.83 10.9 L 86.83 0 L 86.83 0" fill="#FFFFFF" stroke="none" stroke-width="0.5"/>
  </g>
  <g transform="translate(12.00,54.00) scale(0.8000,0.1200)">
    <path d="M 0 20.35 L 23.75 20.35 L 23.75 66.57 C 23.25,68.26 22.77,70.21 22.32,72.41 C 22.03,74.41 21.67,76.01 21.27,77.12 C 20.87,78.24 20.44,78.83 20,78.87 C 19.57,78.93 19.14,78.44 18.74,77.44 C 18.34,76.44 17.98,74.94 17.67,73.04 C 16.46,66.53 14.92,62.99 13.32,63.1 C 11.74,62.99 10.2,66.52 9,73.04 C 8.37,76.78 7.53,78.86 6.66,78.86 C 5.79,78.86 4.96,76.78 4.32,73.04 C 3.13,66.49 1.59,62.96 0,63.1 L 0 84.08 C 0.87,84.01 1.7,86.1 2.32,89.91 C 3.54,96.43 5.08,99.96 6.67,99.85 C 8.26,99.94 9.8,96.41 11,89.91 C 11.62,86.1 12.46,84.01 13.32,84.08 C 14.2,84 15.04,86.1 15.68,89.91 C 16.89,96.34 18.42,99.86 20,99.86 C 21.58,99.86 23.11,96.34 24.32,89.91 C 24.96,86.18 25.79,84.1 26.66,84.1 C 27.53,84.1 28.37,86.18 29,89.91 C 30.21,96.34 31.74,99.86 33.32,99.86 C 34.91,99.86 36.44,96.34 37.65,89.91 C 38.28,86.1 39.13,84 40,84.08 C 40.87,84.01 41.7,86.1 42.32,89.91 C 43.53,96.43 45.06,99.97 46.65,99.85 C 48.24,99.96 49.79,96.43 51,89.91 C 51.63,86.15 52.46,84.06 53.32,84.06 C 54.19,84.06 55.02,86.15 55.65,89.91 C 56.86,96.43 58.41,99.96 60,99.85 C 61.59,99.97 63.12,96.43 64.32,89.91 C 64.96,86.18 65.79,84.1 66.66,84.1 C 67.53,84.1 68.37,86.18 69,89.91 C 70.21,96.34 71.74,99.86 73.32,99.86 C 74.91,99.86 76.44,96.34 77.65,89.91 C 78.28,86.1 79.13,84 80,84.08 C 80.87,84.01 81.7,86.1 82.33,89.91 C 83.54,96.35 85.08,99.88 86.66,99.88 C 88.25,99.88 89.78,96.35 91,89.91 C 91.62,86.1 92.46,84.01 93.33,84.08 C 94.2,84 95.04,86.1 95.68,89.91 C 96.87,96.46 98.41,100 100,99.85 L 100 78.87 C 99.13,78.95 98.3,76.85 97.68,73.04 C 96.46,66.53 94.92,62.99 93.33,63.1 C 91.74,62.99 90.2,66.52 89,73.04 C 88.37,76.78 87.53,78.86 86.66,78.86 C 85.79,78.86 84.96,76.78 84.32,73.04 C 83.12,66.52 81.59,62.99 80,63.1 C 78.83,62.95 77.67,64.92 76.68,68.78 L 76.68 21.46 L 100 21.46 L 100 0 L 0 0 L 0 20.35 L 0 20.35 M 73.32 78.87 C 72.46,78.95 71.62,76.85 71,73.04 C 69.78,66.61 68.25,63.08 66.66,63.08 C 65.08,63.08 63.54,66.61 62.32,73.04 C 61.7,76.85 60.87,78.95 60,78.87 C 59.13,78.96 58.28,76.86 57.65,73.04 C 56.44,66.62 54.91,63.1 53.32,63.1 C 51.74,63.1 50.21,66.62 49,73.04 C 48.37,76.78 47.53,78.86 46.66,78.86 C 45.79,78.86 44.96,76.78 44.32,73.04 C 43.12,66.52 41.59,62.99 40,63.1 C 38.41,62.99 36.86,66.53 35.65,73.04 C 35.34,74.94 34.98,76.44 34.58,77.44 C 34.18,78.44 33.76,78.93 33.32,78.87 C 32.46,78.95 31.62,76.85 31,73.04 C 29.9,67.1 28.52,63.61 27.07,63.1 L 27.07 20.35 L 73.32 20.35 L 73.32 78.87 L 73.32 78.87" fill="#2c5967" stroke="none" stroke-width="0.5"/>
  </g>
  <g transform="translate(12.00,27.00) scale(0.8000,0.2300)">
    <path d="M 98.75 88.53 L 98.33 88.53 C 82,88.53 76.68,26.9 76.68,5.65 L 76.68 0 L 73.32 0 L 73.32 5.65 C 73.16,22.6 71.7,39.11 69.1,53.63 C 67.19,64.44 64.44,73.3 61.15,79.24 C 57.86,85.18 54.15,87.99 50.43,87.35 C 46.71,88.09 43.01,85.51 39.68,79.87 C 36.36,74.23 33.54,65.73 31.5,55.23 C 28.73,40.41 27.2,23.33 27.07,5.82 L 27.07 0.17 L 23.75 0.17 L 23.75 5.82 C 23.75,27.07 18.42,88.7 2.08,88.7 L 0 88.7 L 0 100 L 100 100 L 100 88.53 L 98.75 88.53 L 98.75 88.53 M 71.95 59.53 C 72.45,56.8 72.91,53.98 73.32,51.1 L 73.32 88.7 L 62.93 88.7 C 66.65,81.86 69.77,71.78 71.95,59.53 L 71.95 59.53 M 28.7 61.21 C 30.9,72.69 33.93,82.09 37.5,88.53 L 27.07 88.53 L 27.07 51.6 C 27.57,54.9 28.11,58.11 28.7,61.21 L 28.7 61.21 M 21.72 61.89 C 22.47,57.89 23.14,53.75 23.75,49.49 L 23.75 88.53 L 13.95 88.53 C 17.08,81.65 19.73,72.56 21.72,61.89 L 21.72 61.89 M 76.73 88.53 L 76.73 49.49 C 77.31,53.78 77.99,57.92 78.75,61.89 C 80.73,72.56 83.37,81.65 86.5,88.53 L 76.73 88.53 L 76.73 88.53" fill="#2c5967" stroke="none" stroke-width="0.5"/>
  </g>
  <g transform="translate(12.00,67.00) scale(0.8000,0.0400)">
    <path d="M 93.33 0.37 C 91.74,0.09 90.2,9.47 89,26.81 C 88.37,36.74 87.53,42.27 86.66,42.27 C 85.79,42.27 84.96,36.74 84.32,26.81 C 83.12,9.47 81.59,0.09 80,0.37 C 78.41,0.09 76.86,9.47 75.65,26.81 C 75.02,36.81 74.19,42.4 73.32,42.4 C 72.46,42.4 71.63,36.81 71,26.81 C 69.78,9.69 68.25,0.33 66.66,0.33 C 65.08,0.33 63.54,9.69 62.32,26.81 C 61.7,36.94 60.87,42.53 60,42.33 C 59.13,42.56 58.28,36.96 57.65,26.81 C 56.44,9.74 54.91,0.37 53.32,0.37 C 51.74,0.37 50.21,9.74 49,26.81 C 48.37,36.74 47.53,42.27 46.66,42.27 C 45.79,42.27 44.96,36.74 44.32,26.81 C 43.12,9.47 41.59,0.09 40,0.37 C 38.41,0.09 36.86,9.47 35.65,26.81 C 35.34,31.87 34.98,35.84 34.58,38.5 C 34.18,41.17 33.76,42.47 33.32,42.33 C 32.46,42.53 31.62,36.94 31,26.81 C 29.78,9.69 28.25,0.33 26.66,0.33 C 25.08,0.33 23.54,9.69 22.32,26.81 C 21.7,36.94 20.87,42.53 20,42.33 C 19.57,42.47 19.14,41.17 18.74,38.5 C 18.34,35.84 17.98,31.87 17.67,26.81 C 16.46,9.47 14.92,0.09 13.32,0.37 C 11.74,0.09 10.2,9.47 9,26.81 C 8.37,36.74 7.53,42.27 6.66,42.27 C 5.79,42.27 4.96,36.74 4.32,26.81 C 3.13,9.41 1.59,0 0,0.37 L 0 57.86 C 0.87,57.67 1.7,63.24 2.32,73.37 C 3.54,90.48 5.08,99.87 6.66,99.87 C 8.25,99.87 9.78,90.48 11,73.37 C 11.62,63.24 12.46,57.67 13.32,57.86 C 14.2,57.64 15.04,63.22 15.68,73.37 C 16.89,90.46 18.42,99.82 20,99.82 C 21.58,99.82 23.11,90.46 24.32,73.37 C 24.96,63.44 25.79,57.91 26.66,57.91 C 27.53,57.91 28.37,63.44 29,73.37 C 30.21,90.46 31.74,99.82 33.32,99.82 C 34.91,99.82 36.44,90.46 37.65,73.37 C 38.28,63.22 39.13,57.64 40,57.86 C 40.87,57.67 41.7,63.24 42.32,73.37 C 43.53,90.51 45.07,99.89 46.65,99.8 C 48.24,99.87 49.78,90.51 51,73.37 C 51.63,63.37 52.46,57.8 53.32,57.8 C 54.19,57.8 55.02,63.37 55.65,73.37 C 56.87,90.51 58.41,99.87 60,99.8 C 61.58,99.89 63.12,90.51 64.32,73.37 C 64.96,63.44 65.79,57.91 66.66,57.91 C 67.53,57.91 68.37,63.44 69,73.37 C 70.21,90.46 71.74,99.82 73.32,99.82 C 74.91,99.82 76.44,90.46 77.65,73.37 C 78.28,63.22 79.13,57.64 80,57.86 C 80.87,57.67 81.7,63.24 82.33,73.37 C 83.54,90.48 85.08,99.87 86.66,99.87 C 88.25,99.87 89.78,90.48 91,73.37 C 91.62,63.24 92.46,57.67 93.33,57.86 C 94.2,57.64 95.04,63.22 95.68,73.37 C 96.88,90.62 98.42,100 100,99.8 L 100 42.33 C 99.13,42.53 98.3,36.94 97.68,26.81 C 96.46,9.47 94.92,0.09 93.33,0.37 L 93.33 0.37" fill="#2c5967" stroke="none" stroke-width="0.5"/>
  </g>
  <g transform="translate(40.00,6.00) scale(0.2400,0.2400)">
    <path d="M 32 88.92 L 11.17 88.92 L 11.17 11.17 L 88.92 11.17 L 88.92 55.67 L 100 66 L 100 0 L 0 0 L 0 100 L 32 100 L 32 88.92 L 32 88.92" fill="#2c5967" stroke="none" stroke-width="0.5"/>
  </g>
  <g transform="translate(50.00,15.00) scale(0.1600,0.2400)">
    <path d="M 77.5 62.91 L 81.82 62.91 C 85.37,62.95 88.87,62.27 91.82,60.96 C 94.78,59.64 97.05,57.76 98.34,55.57 C 99.69,53.36 100,50.93 99.23,48.61 C 98.46,46.28 96.65,44.16 94.02,42.52 L 30.04 3.39 C 27.47,1.8 24.25,0.75 20.78,0.38 C 17.31,0 13.75,0.31 10.56,1.27 C 7.39,2.17 4.69,3.67 2.82,5.59 C 0.95,7.51 0,9.75 0.08,12.03 L 0.08 69.84 C 0.09,72.19 1.2,74.48 3.25,76.41 C 5.3,78.33 8.19,79.8 11.55,80.6 C 14.92,81.5 18.63,81.7 22.19,81.16 C 25.74,80.62 28.95,79.37 31.39,77.58 L 35.22 75.13 L 51.73 100 L 94.52 87.53 L 77.5 62.91 L 77.5 62.91 M 72.2 82.15 L 59.87 85.81 L 39.53 55.57 L 19.44 70.32 C 19.18,70.43 18.87,70.49 18.57,70.49 C 18.27,70.49 17.97,70.43 17.71,70.32 C 16.72,70.32 16.72,69.67 16.72,69.59 L 16.72 12.03 C 16.7,11.86 16.76,11.69 16.89,11.55 C 17.03,11.4 17.22,11.29 17.46,11.22 C 17.66,11.12 17.9,11.07 18.14,11.07 C 18.38,11.07 18.62,11.12 18.82,11.22 L 82.8 50.68 C 82.95,50.81 83.04,50.96 83.04,51.13 C 83.04,51.29 82.95,51.45 82.8,51.57 C 82.79,51.66 82.74,51.74 82.68,51.82 C 82.62,51.89 82.53,51.96 82.43,52.01 C 82.32,52.07 82.21,52.1 82.08,52.13 C 81.95,52.15 81.83,52.16 81.7,52.14 L 51.98 52.14 L 72.2 82.15 L 72.2 82.15" fill="#2c5967" stroke="none" stroke-width="0.5"/>
  </g>
  <g transform="translate(36.00,25.00) scale(0.0200,0.0200)">
    <path d="M 100 0 L 0 0 L 0 100 L 100 100 L 100 0 L 100 0" fill="#2c5967" stroke="none" stroke-width="0.5"/>
  </g>
  <g transform="translate(36.00,20.00) scale(0.0200,0.0200)">
    <path d="M 100 0 L 0 0 L 0 100 L 100 100 L 100 0 L 100 0" fill="#2c5967" stroke="none" stroke-width="0.5"/>
  </g>
  <g transform="translate(36.00,16.00) scale(0.0200,0.0200)">
    <path d="M 100 0 L 0 0 L 0 100 L 100 100 L 100 0 L 100 0" fill="#2c5967" stroke="none" stroke-width="0.5"/>
  </g>
  <g transform="translate(36.00,11.00) scale(0.0200,0.0200)">
    <path d="M 100 0 L 0 0 L 0 100 L 100 100 L 100 0 L 100 0" fill="#2c5967" stroke="none" stroke-width="0.5"/>
  </g>
  <g transform="translate(36.00,6.00) scale(0.0200,0.0200)">
    <path d="M 100 0 L 0 0 L 0 100 L 100 100 L 100 50 L 100 0 L 100 0" fill="#2c5967" stroke="none" stroke-width="0.5"/>
  </g>
  <g transform="translate(40.00,2.00) scale(0.0200,0.0200)">
    <path d="M 100 100 L 100 0 L 0 0 L 0 100 L 49.98 100 L 100 100 L 100 100" fill="#2c5967" stroke="none" stroke-width="0.5"/>
  </g>
  <g transform="translate(36.00,2.00) scale(0.0200,0.0200)">
    <path d="M 100 0 L 0 0 L 0 100 L 100 100 L 100 0 L 100 0" fill="#2c5967" stroke="none" stroke-width="0.5"/>
  </g>
  <g transform="translate(45.00,2.00) scale(0.0200,0.0200)">
    <path d="M 100 0 L 0 0 L 0 100 L 100 100 L 100 0 L 100 0" fill="#2c5967" stroke="none" stroke-width="0.5"/>
  </g>
  <g transform="translate(50.00,2.00) scale(0.0200,0.0200)">
    <path d="M 100 0 L 0 0 L 0 100 L 100 100 L 100 0 L 100 0" fill="#2c5967" stroke="none" stroke-width="0.5"/>
  </g>
  <g transform="translate(55.00,2.00) scale(0.0200,0.0200)">
    <path d="M 100 0 L 0 0 L 0 100 L 100 100 L 100 0 L 100 0" fill="#2c5967" stroke="none" stroke-width="0.5"/>
  </g>
  <g transform="translate(59.00,2.00) scale(0.0200,0.0200)">
    <path d="M 100 0 L 0 0 L 0 100 L 100 100 L 100 0 L 100 0" fill="#2c5967" stroke="none" stroke-width="0.5"/>
  </g>
</svg>