<svg xmlns="http://www.w3.org/2000/svg" viewBox="0 0 79.0 142.00000000000014" width="79" height="142">
  <g transform="translate(14.00,1.00) scale(0.7700,0.8200)">
    <path d="M 19.22 100 C 16.1,100 12.99,99.76 10.39,99.27 C 9.61,99.02 8.83,99.02 8.31,98.78 C 7.53,98.54 7.01,98.54 6.49,98.29 C 5.19,97.81 4.16,97.32 3.38,96.83 C 1.04,95.61 0,93.9 0,91.95 L 0 71.46 C 0,69.51 1.04,67.8 3.38,66.59 C 3.9,66.34 4.42,66.1 4.94,65.85 C 5.45,65.61 5.97,65.37 6.75,65.12 C 8.05,64.63 9.35,64.39 10.91,64.15 C 11.95,63.9 13.25,63.66 14.81,63.66 L 14.81 44.63 L 0 44.63 L 0.26 41.46 C 0.78,34.15 5.19,27.8 12.21,24.39 C 13.51,23.66 14.54,22.44 14.81,20.98 C 15.84,15.85 19.48,11.46 24.68,9.27 C 26.75,8.29 29.35,7.8 31.69,7.8 C 32.21,7.8 32.73,7.8 33.25,7.8 C 33.51,7.8 33.51,7.8 33.77,7.8 C 35.06,7.8 36.36,7.32 37.4,6.34 C 41.3,2.44 47.01,0 52.73,0 C 60,0 66.75,3.41 70.65,9.51 L 72.99 11.46 C 73.25,11.46 73.77,11.46 73.77,11.46 C 74.54,11.46 75.32,11.46 76.1,11.71 L 76.62 11.71 C 77.4,11.71 77.92,11.95 78.44,11.95 L 78.96 12.2 C 79.74,12.44 80.26,12.68 81.04,12.93 C 81.82,13.17 82.6,13.66 83.38,13.9 C 84.16,14.39 84.68,14.63 85.19,15.12 L 85.45 15.37 C 85.97,15.85 86.49,16.1 87.01,16.59 L 87.27 16.83 C 87.79,17.32 88.31,17.8 88.83,18.29 C 89.35,18.78 89.61,19.27 90.13,20 L 90.39 20.24 L 90.91 20.98 C 91.43,21.95 91.95,23.17 92.47,24.39 L 100 31.46 L 95.58 35.37 L 92.99 32.93 C 92.99,33.17 92.73,34.15 92.73,34.15 C 92.73,34.39 92.47,34.88 92.47,35.12 L 91.95 35.61 C 91.69,35.85 91.69,36.34 91.43,36.59 L 91.17 37.07 C 90.91,37.32 90.91,37.8 90.65,38.05 L 90.39 38.54 C 90.13,38.78 89.87,39.27 89.61,39.51 L 89.35 40 C 89.09,40.24 88.83,40.73 88.57,40.98 L 88.31 41.22 C 87.79,41.71 87.53,41.95 87.27,42.2 L 87.01 42.44 C 86.49,42.68 86.23,43.17 85.97,43.41 L 85.71 43.66 C 85.19,43.9 84.93,44.15 84.68,44.39 L 84.41 44.63 C 83.9,44.88 83.64,45.12 83.12,45.37 L 82.6 45.61 C 82.08,45.85 81.82,46.1 81.56,46.1 C 81.3,46.1 81.3,46.1 81.04,46.34 L 80.26 45.37 L 80.78 46.59 C 80.52,46.59 80.26,46.83 80,46.83 C 79.74,46.83 79.74,46.83 79.48,47.07 L 78.7 47.32 L 78.7 81.95 L 81.04 81.95 L 85.97 84.15 L 85.97 87.8 L 39.22 87.8 L 39.22 92.44 C 39.22,94.39 38.18,96.1 35.84,97.32 C 34.8,98.05 33.25,98.54 31.69,99.02 C 31.43,99.02 30.91,99.27 30.65,99.27 C 29.87,99.51 29.35,99.51 28.57,99.76 C 25.45,99.76 22.6,100 19.22,100 L 19.22 100" fill="#FFFFFF" stroke="none" stroke-width="0.5"/>
  </g>
  <g transform="translate(13.00,0.00) scale(0.7900,0.8400)">
    <path d="M 53.03 2.38 C 59.85,2.38 65.91,5.71 69.44,11.19 L 72.22 13.57 C 72.73,13.57 72.98,13.57 73.48,13.57 C 74.24,13.57 74.75,13.57 75.51,13.81 C 75.76,13.81 75.76,13.81 76.01,13.81 C 76.51,13.81 77.02,14.05 77.52,14.05 C 77.78,14.05 77.78,14.05 78.03,14.05 C 79.04,14.29 79.55,14.29 80.05,14.52 C 80.81,14.76 81.31,15 82.07,15.48 C 82.58,15.71 83.08,16.19 83.59,16.43 L 83.84 16.67 C 84.34,16.9 84.85,17.38 85.1,17.86 L 85.35 18.1 C 85.86,18.57 86.36,19.05 86.87,19.52 C 87.37,20 87.63,20.48 87.88,20.95 C 87.88,20.95 87.88,20.95 88.13,21.19 C 88.89,22.38 89.65,23.81 90.15,25.24 L 96.72 31.43 L 94.19 33.81 L 90.91 30.95 L 90.91 31.19 C 90.91,31.43 90.91,31.9 90.91,32.14 C 90.91,32.38 90.91,32.62 90.91,32.86 C 90.91,33.1 90.66,33.57 90.66,33.81 C 90.66,34.05 90.66,34.29 90.4,34.52 C 90.4,34.76 90.15,35.24 90.15,35.48 C 90.15,35.71 89.9,35.71 89.9,35.95 C 89.65,36.19 89.65,36.67 89.39,36.9 C 89.39,37.14 89.14,37.14 89.14,37.38 C 88.89,37.62 88.89,38.1 88.64,38.33 C 88.64,38.57 88.38,38.57 88.38,38.81 C 88.13,39.05 87.88,39.52 87.63,39.76 L 87.37 40 C 87.12,40.24 86.87,40.48 86.62,40.95 L 86.36 41.19 C 86.11,41.43 85.86,41.67 85.61,41.9 L 85.35 42.14 C 85.1,42.38 84.85,42.62 84.34,42.86 L 84.09 43.1 C 83.84,43.33 83.59,43.57 83.08,43.81 C 82.83,43.81 82.83,44.05 82.58,44.05 C 82.32,44.29 81.82,44.52 81.57,44.52 C 81.31,44.52 81.31,44.76 81.06,44.76 C 80.81,45 80.3,45 80.05,45.24 C 79.8,45.24 79.55,45.48 79.55,45.48 C 79.29,45.48 79.04,45.71 78.53,45.71 C 78.28,45.71 78.03,45.95 77.78,45.95 C 77.52,45.95 77.27,46.19 77.02,46.19 C 76.77,46.19 76.51,46.19 76.51,46.19 L 76.51 82.14 L 79.8 82.14 L 83.59 83.81 L 83.59 85.48 L 79.8 85.48 L 38.13 85.48 L 38.13 91.19 C 38.13,92.62 37.12,93.81 35.35,95 C 34.34,95.71 33.08,96.19 31.57,96.43 C 31.31,96.43 31.06,96.67 30.56,96.67 C 30.05,96.91 29.29,96.91 28.54,97.14 C 26.01,97.38 23.23,97.62 20.2,97.62 C 17.17,97.62 14.39,97.38 11.87,96.91 C 11.11,96.67 10.61,96.67 9.85,96.43 C 9.09,96.19 8.59,96.19 8.08,95.95 C 7.07,95.48 6.06,95.24 5.3,94.76 C 3.54,93.81 2.53,92.38 2.53,90.95 L 2.53 70.95 C 2.53,69.52 3.54,68.33 5.3,67.14 C 5.81,66.91 6.06,66.67 6.57,66.43 C 7.07,66.19 7.58,65.95 8.08,65.71 C 9.09,65.24 10.35,65 11.87,64.76 C 13.38,64.52 14.9,64.29 16.67,64.29 L 16.67 43.33 L 3.03 43.33 L 3.28 41.43 C 3.79,34.76 7.83,28.81 14.14,25.71 C 15.91,24.76 17.17,23.33 17.42,21.67 C 18.43,16.9 21.72,13.1 26.26,11.19 C 28.28,10.48 30.3,10 32.58,10 C 33.08,10 33.59,10 34.09,10 C 34.34,10 34.6,10 34.6,10 C 36.36,10 37.88,9.29 39.14,8.1 C 42.68,4.52 47.73,2.38 53.03,2.38 L 53.03 2.38 M 53.03 0 C 46.97,0 41.16,2.38 37.12,6.43 C 36.36,7.14 35.61,7.38 34.6,7.38 C 34.6,7.38 34.34,7.38 34.09,7.38 C 33.59,7.38 33.08,7.38 32.32,7.38 C 29.8,7.38 27.27,7.86 25,8.81 C 19.95,11.19 16.16,15.71 14.9,21.19 C 14.65,22.14 13.89,23.1 12.88,23.57 C 5.81,27.14 1.26,33.81 0.51,41.19 L 0.25 43.1 L 0 45.71 L 2.78 45.71 L 13.89 45.71 L 13.89 62.14 C 12.88,62.14 12.12,62.38 11.11,62.62 C 9.6,62.86 8.33,63.33 7.07,63.57 C 6.31,63.81 5.81,64.05 5.3,64.29 C 4.8,64.52 4.29,64.76 3.79,65 C 0.76,66.91 0,69.29 0,70.71 L 0 90.71 C 0,92.38 0.76,94.52 4.04,96.43 C 5.05,96.91 6.06,97.62 7.32,97.86 C 7.83,98.1 8.59,98.33 9.34,98.33 C 10.1,98.57 10.86,98.57 11.62,98.81 C 14.14,99.76 17.17,100 20.2,100 C 23.48,100 26.26,99.76 29.04,99.29 C 29.8,99.05 30.56,99.05 31.31,98.81 C 31.57,98.81 32.07,98.57 32.32,98.57 C 34.09,98.1 35.35,97.38 36.62,96.67 C 39.9,94.76 40.4,92.38 40.4,90.95 L 40.4 87.62 L 79.55 87.62 L 83.33 87.62 L 85.86 87.62 L 85.86 85.24 L 85.86 83.57 L 85.86 82.14 L 84.34 81.43 L 80.81 79.52 L 80.3 79.29 L 79.8 79.29 L 79.04 79.29 L 79.04 47.62 C 79.29,47.62 79.29,47.62 79.55,47.62 C 79.8,47.62 80.05,47.38 80.56,47.38 L 80.81 47.38 L 81.06 47.38 C 81.31,47.38 81.31,47.38 81.57,47.14 C 81.82,46.9 82.32,46.9 82.58,46.67 L 82.83 46.67 C 83.08,46.67 83.08,46.43 83.33,46.43 C 83.59,46.19 84.09,45.95 84.34,45.71 L 84.6 45.71 L 84.85 45.48 C 85.1,45.24 85.61,45 85.86,44.76 L 86.11 44.52 C 86.36,44.29 86.87,44.05 87.12,43.81 C 87.37,43.57 87.37,43.57 87.37,43.57 C 87.63,43.33 88.13,43.1 88.38,42.62 L 88.64 42.38 C 88.89,42.14 89.14,41.67 89.39,41.43 L 89.65 40.95 C 89.9,40.71 90.15,40.24 90.4,40 C 90.4,39.76 90.66,39.76 90.66,39.52 C 90.91,39.29 91.16,38.81 91.16,38.57 C 91.16,38.33 91.41,38.33 91.41,38.1 C 91.67,37.86 91.67,37.38 91.92,37.14 C 91.92,36.9 92.17,36.67 92.17,36.43 L 92.17 36.19 L 93.94 37.86 L 95.71 36.19 L 98.23 33.81 L 100 32.14 L 98.23 30.48 L 91.92 24.52 C 91.67,23.57 91.16,22.86 90.91,22.14 L 89.9 20.48 L 89.65 20.24 C 89.39,19.76 88.89,19.29 88.38,18.57 C 87.88,18.1 87.37,17.38 86.87,16.9 L 86.62 16.67 C 86.11,16.19 85.61,15.71 85.1,15.48 L 84.85 15.24 C 84.09,14.76 83.59,14.52 83.08,14.05 C 82.32,13.57 81.57,13.33 80.81,13.1 C 80.3,12.86 79.55,12.62 78.79,12.38 C 78.53,12.38 78.53,12.38 78.28,12.14 C 77.52,11.9 77.02,11.9 76.51,11.9 L 76.26 11.9 C 76.01,11.9 76.01,11.9 75.76,11.9 C 75,11.9 74.24,11.67 73.48,11.67 L 73.23 11.67 L 72.98 11.67 L 71.46 9.52 C 67.42,3.57 60.61,0 53.03,0 L 53.03 0" fill="#FFFFFF" stroke="none" stroke-width="0.5"/>
  </g>
  <g transform="translate(15.00,2.00) scale(0.5200,0.3400)">
    <path d="M 96.17 23.84 C 96.55,23.26 96.55,23.26 96.93,23.26 L 97.32 23.26 C 97.7,23.26 98.08,22.67 98.08,22.67 L 98.47 22.67 C 98.85,22.67 98.85,22.67 99.23,22.09 L 99.62 22.09 L 100 22.09 C 95.79,8.14 86.21,0 75.86,0 C 67.82,0 60.15,5.23 54.41,13.95 C 52.49,16.86 49.81,18.6 46.74,18.02 C 42.91,17.44 38.7,18.6 35.25,20.93 C 28.35,26.16 23.37,35.46 21.84,47.09 C 21.45,51.16 19.54,55.23 16.86,56.98 C 7.28,64.54 1.15,79.07 0.38,95.35 L 0 100 L 16.47 100 L 16.47 91.28 L 6.13 91.28 C 7.66,79.65 12.26,69.77 19.16,64.54 C 23.37,61.05 26.05,55.23 27.2,48.26 C 28.35,40.12 32.18,32.56 37.55,29.07 C 40.23,27.33 43.29,26.74 46.36,26.74 C 50.96,27.33 55.56,25 58.62,19.77 C 63.22,12.79 69.35,8.14 75.86,8.14 C 83.91,8.14 90.8,13.95 95.02,23.84 C 95.4,23.84 95.4,23.84 96.17,23.84 C 95.79,23.84 95.79,23.84 96.17,23.84 L 96.17 23.84" fill="#2d5967" stroke="none" stroke-width="0.5"/>
  </g>
  <g transform="translate(23.00,21.00) scale(0.2800,0.3000)">
    <path d="M 20.98 100 L 20.98 28.1 C 43.35,16.99 66.43,11.76 89.51,11.11 L 95.8 5.23 L 100 1.31 C 69.23,0 38.46,7.19 9.09,22.88 L 11.89 26.8 L 9.09 22.88 L 0 27.45 L 2.8 31.37 L 10.49 30.72 L 10.49 99.35 C 13.98,100 16.78,100 20.98,100 C 20.28,100 20.98,100 20.98,100 L 20.98 100" fill="#2d5967" stroke="none" stroke-width="0.5"/>
  </g>
  <g transform="translate(32.00,41.00) scale(0.4700,0.3100)">
    <path d="M 87.34 0 C 86.92,0 86.5,0 86.08,0 L 85.65 0 C 85.23,0 85.23,0 84.81,0 C 84.39,0 83.97,0 83.54,0 C 83.54,0 83.54,0 83.12,0 C 82.7,0 82.28,0 81.86,0 L 81.86 89.68 L 75.53 89.68 L 75.53 13.55 L 41.35 13.55 L 41.35 90.32 L 35.02 90.32 L 35.02 13.55 L 0 13.55 L 0 35.48 C 2.11,35.48 4.22,36.13 6.33,36.77 L 6.33 23.23 L 28.27 23.23 L 28.27 40 L 15.61 40 C 17.72,41.29 19.41,42.58 21.1,43.87 C 23.21,45.81 24.47,47.74 25.74,49.68 L 28.69 49.68 L 28.69 65.16 L 28.69 74.84 L 28.69 90.32 L 28.69 100 L 93.67 100 L 100 100 L 100 95.48 L 93.67 90.97 L 88.18 90.97 L 87.34 0 L 87.34 0 M 68.77 64.52 L 46.84 64.52 L 46.84 49.03 L 68.77 49.03 L 68.77 64.52 L 68.77 64.52 M 68.77 23.23 L 68.77 40 L 46.84 40 L 46.84 23.23 L 68.77 23.23 L 68.77 23.23 M 46.84 74.19 L 68.77 74.19 L 68.77 89.68 L 46.84 89.68 L 46.84 74.19 L 46.84 74.19" fill="#2d5967" stroke="none" stroke-width="0.5"/>
  </g>
  <g transform="translate(32.00,31.00) scale(0.1600,0.1100)">
    <path d="M 100 0 L 0 0 L 0 100 L 100 100 L 100 0 L 100 0 M 81.48 73.21 L 17.28 73.21 L 17.28 26.79 L 81.48 26.79 L 81.48 73.21 L 81.48 73.21" fill="#2d5967" stroke="none" stroke-width="0.5"/>
  </g>
  <g transform="translate(51.00,31.00) scale(0.1600,0.1100)">
    <path d="M 0 100 L 100 100 L 100 85.45 C 91.36,81.82 83.95,78.18 76.54,72.73 L 17.29 72.73 L 17.29 25.45 L 40.74 25.45 L 39.51 23.64 C 39.51,23.64 39.51,21.82 38.27,21.82 L 34.57 7.27 C 33.33,5.45 33.33,1.82 32.1,0 L 0 0 L 0 100 L 0 100" fill="#2d5967" stroke="none" stroke-width="0.5"/>
  </g>
  <g transform="translate(66.00,17.00) scale(0.1100,0.1400)">
    <path d="M 63.16 0 L 36.84 0 L 0 100 L 26.31 100 L 31.57 78.87 L 64.91 78.87 L 70.18 100 L 100 100 L 63.16 0 L 63.16 0 M 50.87 23.94 L 61.4 61.97 L 40.35 61.97 L 50.87 23.94 L 50.87 23.94" fill="#2d5967" stroke="none" stroke-width="0.5"/>
  </g>
  <g transform="translate(59.00,20.00) scale(0.3000,0.1800)">
    <path d="M 84.67 30.43 L 93.33 44.57 L 100 33.7 L 79.33 0 L 58.66 33.7 L 65.33 44.57 L 74 30.43 C 72,59.78 56.67,83.7 38.67,83.7 C 25.33,83.7 13.33,71.74 7.33,53.26 L 0 65.22 C 8,86.96 22.67,100 38.67,100 C 63.33,98.91 83.33,68.48 84.67,30.43 L 84.67 30.43" fill="#2d5967" stroke="none" stroke-width="0.5"/>
  </g>
  <g transform="translate(53.00,11.00) scale(0.3000,0.1800)">
    <path d="M 0 65.93 L 20.67 100 L 41.33 65.93 L 34.67 54.95 L 25.33 69.23 C 27.33,39.56 42.67,15.38 60.67,15.38 C 74,15.38 86,27.47 92,46.15 L 100 35.16 C 92,13.19 77.33,0 61.33,0 C 37.33,0 17.33,30.77 16,70.33 L 6.67 54.95 L 0 65.93 L 0 65.93" fill="#2d5967" stroke="none" stroke-width="0.5"/>
  </g>
  <g transform="translate(15.00,54.00) scale(0.2800,0.2800)">
    <path d="M 100 19.86 L 100 19.15 C 100,18.44 100,18.44 100,17.73 C 100,17.02 99.29,15.6 98.57,14.89 C 98.57,14.18 97.86,14.18 97.86,13.48 C 96.43,11.35 94.29,9.93 92.14,8.51 C 90.72,7.8 90,7.09 88.57,6.38 C 87.86,6.38 87.15,5.67 86.43,5.67 C 83.57,4.26 80,3.54 76.43,2.84 C 75.72,2.84 74.29,2.13 73.57,2.13 C 66.43,0.71 58.57,0 50,0 C 41.43,0 33.57,0.71 26.43,2.13 C 22.14,2.84 18.57,3.54 15.72,4.96 C 14.29,5.67 12.86,6.38 11.43,6.38 C 10,7.09 8.57,7.8 7.86,8.51 C 2.86,11.35 0,15.6 0,19.86 L 0 79.43 C 0,83.69 2.86,87.24 7.86,90.78 C 10,92.2 12.86,93.62 15.72,94.33 C 17.14,95.04 19.29,95.04 20.71,95.74 C 22.14,96.46 24.29,96.46 26.43,97.16 C 32.86,99.29 40.72,100 49.29,100 C 57.86,100 65.71,99.29 72.86,97.87 C 75,97.16 76.43,97.16 78.57,96.46 C 79.29,96.46 80,95.74 81.43,95.74 C 85.72,94.33 89.29,92.91 92.14,91.49 C 97.14,88.65 100,84.4 100,80.14 L 100 19.86 L 100 19.86 M 10 19.86 C 10,19.15 11.43,18.44 12.86,17.02 C 15,16.31 17.14,14.89 20.71,14.18 C 24.29,12.77 28.57,12.06 33.57,11.35 C 38.57,10.64 44.29,9.93 50.71,9.93 C 57.15,9.93 62.86,10.64 67.86,11.35 C 72.86,12.06 76.43,12.77 80.71,14.18 C 83.57,14.89 86.43,16.31 88.57,17.73 C 90,18.44 91.43,19.86 91.43,20.57 C 91.43,21.28 90.72,21.99 88.57,23.41 C 86.43,24.82 84.29,25.53 80.71,26.95 C 77.14,28.37 72.86,29.08 67.86,29.79 C 62.14,30.49 56.43,31.21 50.71,31.21 C 44.29,31.21 38.57,30.49 33.57,29.79 C 28.57,29.08 25,28.37 20.71,26.95 C 17.86,26.24 15,24.82 12.86,23.41 C 10.72,21.99 10,20.57 10,19.86 L 10 19.86 M 8.57 32.62 C 13.57,34.75 19.29,36.88 27.15,38.3 C 34.29,39.72 41.43,40.43 49.29,40.43 L 54.29 40.43 L 58.57 40.43 L 65 39.72 C 67.14,39.72 68.57,39.01 70.72,39.01 L 77.14 37.59 L 79.29 36.88 C 80,36.88 81.43,36.17 82.14,36.17 L 85.72 34.75 L 88.57 33.33 L 89.29 33.33 L 90.72 32.62 L 90.72 50.36 C 90.72,51.06 90,51.77 87.86,53.19 C 85.72,54.61 83.57,55.32 80,56.74 C 76.43,58.16 72.15,58.86 67.14,59.57 C 61.43,60.28 55.72,60.99 50,60.99 C 43.57,60.99 37.86,60.28 32.86,59.57 C 27.86,58.86 24.29,58.16 20,56.74 C 17.14,56.03 14.29,54.61 12.15,53.19 C 10.72,52.48 9.29,51.06 9.29,50.36 L 8.57 32.62 L 8.57 32.62 M 79.29 85.82 C 75.72,87.24 71.43,87.94 66.43,88.65 C 60.72,89.36 55,90.07 49.29,90.07 C 42.86,90.07 37.14,89.36 32.14,88.65 C 27.15,87.94 23.57,87.24 19.29,85.82 C 16.43,85.11 13.57,83.69 11.43,82.27 C 10,81.56 8.57,80.14 8.57,79.43 L 8.57 62.41 C 13.57,64.54 19.29,66.67 27.15,68.09 C 34.29,69.51 41.43,70.21 49.29,70.21 L 54.29 70.21 C 61.43,70.21 67.86,69.51 74.29,68.79 C 80.71,67.38 85.72,65.96 90,63.83 L 90 80.14 C 90,80.85 89.29,81.56 87.15,82.98 C 85,83.69 82.14,84.4 79.29,85.82 L 79.29 85.82" fill="#2d5967" stroke="none" stroke-width="0.5"/>
  </g>
</svg>