<svg xmlns="http://www.w3.org/2000/svg" viewBox="0 0 78.0 109.0000000000001" width="78" height="109">
  <g transform="translate(50.00,30.00) scale(0.0100,0.0200)">
    <path d="M 66.67 100 C 50.04,100 16.71,90.91 0,90.91 L 33.33 0 C 50.04,0 66.67,9.09 100,9.09 L 66.67 100 L 66.67 100" fill="#FFFFFF" stroke="none" stroke-width="0.5"/>
  </g>
  <g transform="translate(50.00,30.00) scale(0.0100,0.0400)">
    <path d="M 25 42.86 C 37.47,42.86 62.47,47.62 75,47.62 C 62.47,47.62 37.47,47.62 25,42.86 L 25 42.86 M 50 0 L 0 95.24 C 25,95.24 37.47,100 62.47,100 L 100 4.76 C 87.53,0 62.47,0 50,0 L 50 0" fill="#FFFFFF" stroke="none" stroke-width="0.5"/>
  </g>
  <g transform="translate(1.00,1.00) scale(0.7500,0.8200)">
    <path d="M 20.27 100 L 20.27 38.78 L 0 38.78 L 0.27 35.37 C 0.8,29.02 4.8,23.41 10.93,20.49 C 12,20 12.8,19.02 13.07,18.05 C 14.13,13.41 17.33,9.51 22.13,7.8 C 24,7.07 26.4,6.59 28.53,6.59 C 29.07,6.59 29.6,6.59 29.87,6.59 L 30.13 6.59 C 31.2,6.59 32,6.1 32.8,5.61 C 36.27,2.2 41.33,0 46.67,0 C 47.47,0 48,0 48.8,0.24 L 48.8 0 L 50.13 0.49 C 52.53,0.98 54.67,1.71 56.8,2.68 L 58.93 3.9 C 62.67,1.46 66.93,0.24 71.2,0.24 C 75.47,0.24 79.47,1.46 83.2,3.66 C 83.47,3.9 84,4.15 84.27,4.39 L 84.53 4.63 C 88,7.07 90.67,10.49 91.73,14.39 L 100 21.71 L 95.2 26.1 L 92.27 23.41 C 90.93,29.76 85.87,35.12 79.2,37.56 L 78.93 37.56 C 78.13,37.8 77.33,38.05 76.8,38.29 L 76.53 38.29 C 76.27,38.29 76,38.54 76,38.54 C 75.73,38.54 75.2,38.78 74.67,38.78 C 73.6,39.02 72.53,39.02 71.47,39.02 C 69.33,39.02 67.2,38.78 65.07,38.05 L 65.07 99.76 L 20.27 99.76 L 20.27 100 L 20.27 100" fill="#FFFFFF" stroke="none" stroke-width="0.5"/>
  </g>
  <g transform="translate(0.00,0.00) scale(0.7800,0.8400)">
    <path d="M 46.53 2.84 C 47.56,2.84 48.33,2.84 49.36,3.08 L 49.62 3.08 C 51.67,3.32 53.73,4.03 55.53,5.21 L 58.35 6.87 C 61.7,4.5 65.81,3.08 70.18,3.08 C 74.04,3.08 77.89,4.27 80.98,6.16 C 81.23,6.4 81.75,6.64 82.01,6.87 C 82.01,6.87 82.26,6.87 82.26,7.11 C 85.35,9.48 87.92,12.56 88.95,16.35 L 92.55 19.67 L 96.14 22.99 L 93.32 25.59 L 92.29 24.64 L 89.72 22.27 C 89.2,29.15 84.32,34.83 77.64,37.44 C 77.38,37.44 77.38,37.44 77.12,37.68 C 76.61,37.91 75.84,38.15 75.32,38.15 C 74.81,37.91 74.55,37.91 74.29,37.91 C 74.04,37.91 74.04,37.91 73.78,37.91 C 74.04,37.91 74.04,37.91 74.29,37.91 C 73.01,38.15 71.47,38.39 70.18,38.39 C 67.61,38.39 65.04,37.91 62.72,36.97 L 62.72 97.63 L 22.11 97.63 L 22.11 38.15 L 2.83 38.15 L 3.08 36.02 C 3.6,30.33 7.2,25.12 12.85,22.51 C 14.14,21.8 15.17,20.62 15.42,19.43 C 16.2,15.17 19.02,11.85 23.14,10.19 C 24.94,9.48 26.74,9 28.79,9 C 29.31,9 29.56,9 30.08,9 C 30.33,9 30.33,9 30.59,9 C 31.88,9 33.16,8.53 34.19,7.58 C 37.28,4.5 41.9,2.84 46.53,2.84 L 46.53 2.84 M 73.78 38.15 C 73.52,38.15 73.26,38.15 73.26,38.15 C 73.26,38.15 73.52,38.15 73.78,38.15 L 73.78 38.15 M 48.07 0 L 47.82 0.47 C 47.3,0.47 47.04,0.47 46.53,0.47 C 41.13,0.47 35.99,2.61 32.13,6.16 C 31.62,6.64 31.11,6.87 30.59,6.87 L 30.33 6.87 C 29.82,6.87 29.31,6.87 28.79,6.87 C 26.48,6.87 24.16,7.35 22.11,8.06 C 17.22,9.95 13.62,13.98 12.6,18.96 C 12.6,19.67 12.08,20.14 11.31,20.38 C 5.14,23.46 1.03,29.38 0.26,36.02 L 0 38.15 L 0 40.52 L 2.83 40.52 L 19.79 40.52 L 19.79 97.63 L 19.79 100 L 22.37 100 L 62.98 100 L 65.55 100 L 65.55 97.63 L 65.55 40.28 C 67.09,40.52 68.64,40.76 70.44,40.76 C 71.47,40.76 72.75,40.76 73.78,40.52 C 74.04,40.52 74.29,40.52 74.55,40.52 C 74.81,40.52 74.81,40.52 75.06,40.52 C 75.32,40.52 75.58,40.28 75.84,40.28 C 75.84,40.28 75.84,40.28 76.09,40.28 C 76.86,40.05 77.38,39.81 78.15,39.81 L 78.41 39.81 C 78.66,39.81 78.66,39.81 78.92,39.57 C 85.09,37.44 89.72,32.7 91.52,27.01 L 91.77 27.25 L 93.57 28.91 L 95.37 27.25 L 98.2 24.64 L 100 22.99 L 97.69 21.09 L 94.09 17.77 L 91 14.93 C 89.72,11.14 87.15,7.58 83.55,5.21 L 83.29 4.74 C 82.78,4.5 82.52,4.27 82.01,4.03 C 78.41,1.9 74.29,0.71 69.92,0.71 C 65.55,0.71 61.44,1.9 58.1,4.03 L 56.81 3.32 C 54.76,2.13 52.44,1.42 50.13,0.95 L 48.07 0 L 48.07 0" fill="#FFFFFF" stroke="none" stroke-width="0.5"/>
  </g>
  <g transform="translate(17.00,18.00) scale(0.3100,0.6400)">
    <path d="M 89.87 94.98 L 10.76 94.98 L 10.76 5.02 L 62.66 5.02 L 52.53 0 L 0 0 L 0 100 L 100 100 L 100 24.14 C 96.2,23.51 93.04,22.88 89.87,21.94 L 89.87 94.98 L 89.87 94.98" fill="#2c5967" stroke="none" stroke-width="0.5"/>
  </g>
  <g transform="translate(23.00,23.00) scale(0.1700,0.0300)">
    <path d="M 0 100 L 100 100 C 95.35,68.75 93.02,37.5 89.53,0 L 0 0 L 0 100 L 0 100" fill="#2c5967" stroke="none" stroke-width="0.5"/>
  </g>
  <g transform="translate(23.00,29.00) scale(0.2000,0.0800)">
    <path d="M 11.88 100 L 88.12 100 L 88.12 68.18 L 100 68.18 L 100 31.82 L 88.12 31.82 L 88.12 0 L 11.88 0 L 11.88 31.82 L 0 31.82 L 0 68.18 L 11.88 68.18 L 11.88 100 L 11.88 100 M 27.72 34.09 L 71.29 34.09 L 71.29 61.36 L 27.72 61.36 L 27.72 34.09 L 27.72 34.09" fill="#2c5967" stroke="none" stroke-width="0.5"/>
  </g>
  <g transform="translate(2.00,2.00) scale(0.4100,0.2900)">
    <path d="M 100 6.71 C 95.14,2.68 89.32,0 83.01,0 C 74.27,0 65.53,5.37 59.71,14.09 C 57.77,16.78 54.85,18.12 51.94,18.12 C 47.57,17.45 43.2,18.12 38.83,20.81 C 31.07,25.5 25.73,34.9 23.79,46.98 C 23.3,51.01 21.36,54.36 18.93,55.7 C 8.25,63.09 1.46,77.85 0.48,93.96 L 0 100 L 31.07 100 L 31.07 89.26 L 9.22 89.26 C 11.16,79.19 16.02,70.47 22.82,65.1 C 27.67,61.74 30.58,55.7 31.55,48.32 C 32.52,40.27 36.41,33.56 42.23,30.2 C 45.14,28.19 48.06,27.52 51.46,28.19 C 56.8,28.86 62.13,26.17 65.53,20.81 C 69.9,14.09 76.7,10.07 83.49,10.07 C 87.38,10.07 91.26,11.41 94.66,14.09 C 96.11,11.41 97.57,8.72 100,6.71 L 100 6.71" fill="#2c5967" stroke="none" stroke-width="0.5"/>
  </g>
  <g transform="translate(24.00,55.00) scale(0.1700,0.1800)">
    <path d="M 97.7 0 L 72.41 0 L 50.57 35.11 L 28.74 0 L 2.3 0 L 33.33 48.93 L 0 100 L 25.29 100 L 49.43 62.77 L 73.56 100 L 100 100 L 66.67 48.93 L 97.7 0 L 97.7 0" fill="#2c5967" stroke="none" stroke-width="0.5"/>
  </g>
  <g transform="translate(23.00,40.00) scale(0.0300,0.0300)">
    <path d="M 100 0 L 0 0 L 0 100 L 100 100 L 100 0 L 100 0" fill="#2c5967" stroke="none" stroke-width="0.5"/>
  </g>
  <g transform="translate(28.00,40.00) scale(0.0300,0.0300)">
    <path d="M 100 0 L 0 0 L 0 100 L 100 100 L 100 0 L 100 0" fill="#2c5967" stroke="none" stroke-width="0.5"/>
  </g>
  <g transform="translate(34.00,40.00) scale(0.0300,0.0300)">
    <path d="M 100 0 L 0 0 L 0 100 L 100 100 L 100 0 L 100 0" fill="#2c5967" stroke="none" stroke-width="0.5"/>
  </g>
  <g transform="translate(40.00,40.00) scale(0.0300,0.0300)">
    <path d="M 100 0 L 0 0 L 0 100 L 100 100 L 100 0 L 100 0" fill="#2c5967" stroke="none" stroke-width="0.5"/>
  </g>
  <g transform="translate(23.00,46.00) scale(0.0300,0.0300)">
    <path d="M 100 0 L 0 0 L 0 100 L 100 100 L 100 0 L 100 0" fill="#2c5967" stroke="none" stroke-width="0.5"/>
  </g>
  <g transform="translate(28.00,46.00) scale(0.0300,0.0300)">
    <path d="M 100 0 L 0 0 L 0 100 L 100 100 L 100 0 L 100 0" fill="#2c5967" stroke="none" stroke-width="0.5"/>
  </g>
  <g transform="translate(34.00,46.00) scale(0.0300,0.0300)">
    <path d="M 100 0 L 0 0 L 0 100 L 100 100 L 100 0 L 100 0" fill="#2c5967" stroke="none" stroke-width="0.5"/>
  </g>
  <g transform="translate(40.00,46.00) scale(0.0300,0.0300)">
    <path d="M 100 0 L 0 0 L 0 100 L 100 100 L 100 0 L 100 0" fill="#2c5967" stroke="none" stroke-width="0.5"/>
  </g>
  <g transform="translate(34.00,2.00) scale(0.3200,0.2000)">
    <path d="M 6.71 55.45 L 0 66.34 L 20.73 100 L 41.46 66.34 L 34.76 55.45 L 26.22 69.31 C 28.05,39.6 43.29,16.83 61.59,16.83 C 71.34,16.83 81.1,23.76 87.2,34.65 C 89.63,38.61 91.46,42.57 92.68,47.52 L 100 35.64 C 98.17,30.69 95.73,25.74 92.68,20.79 C 84.15,7.92 73.17,0 60.98,0 C 37.19,0 17.07,30.69 15.25,69.31 L 6.71 55.45 L 6.71 55.45" fill="#2c5967" stroke="none" stroke-width="0.5"/>
  </g>
  <g transform="translate(41.00,12.00) scale(0.3300,0.2000)">
    <path d="M 100 34 L 91.52 20 L 82.42 5 L 79.4 0 L 58.79 34 L 65.46 45 L 73.94 31 C 72.12,61 56.97,84 38.79,84 C 25.46,84 13.33,72 7.27,53 L 0 65 C 7.88,86 22.43,100 38.18,100 C 41.82,100 44.85,99 47.88,98 C 47.27,98 46.06,99 45.46,99 C 46.06,99 47.27,98 47.88,98 C 67.27,91 81.82,64 83.03,30 L 89.7 41 L 92.12 45 L 100 34 L 100 34" fill="#2c5967" stroke="none" stroke-width="0.5"/>
  </g>
  <g transform="translate(48.00,8.00) scale(0.1200,0.1500)">
    <path d="M 62.3 0 L 36.06 0 L 0 100 L 27.87 100 L 34.43 79.49 L 65.57 79.49 L 72.13 100 L 100 100 L 62.3 0 L 62.3 0 M 60.65 61.54 L 39.34 61.54 L 50.82 24.36 L 60.65 61.54 L 60.65 61.54" fill="#2c5967" stroke="none" stroke-width="0.5"/>
  </g>
</svg>