<svg xmlns="http://www.w3.org/2000/svg" viewBox="0 0 78.0 109.0000000000001" width="78" height="109">
  <g transform="translate(-0.00,0.00) scale(0.7800,0.8400)">
    <path d="M 98.06 29.15 L 91.96 23.52 C 91.69,22.75 91.37,21.99 90.99,21.25 L 89.83 19.5 C 88.39,17.35 86.48,15.5 84.23,14.07 C 81.98,12.64 79.43,11.65 76.75,11.17 L 76.56 11.17 L 75.62 11.02 L 75.51 11.02 L 74.51 11.02 L 74.24 11.02 L 73.03 11.02 L 71.95 11.02 L 71.33 10.08 C 69.45,7.02 66.73,4.48 63.45,2.71 C 60.17,0.94 56.44,0.01 52.64,0 C 49.65,0 46.68,0.58 43.94,1.69 C 41.19,2.8 38.72,4.42 36.68,6.45 C 36.37,6.75 36,6.99 35.6,7.14 C 35.19,7.3 34.75,7.38 34.3,7.38 L 33.95 7.38 C 33.4,7.38 32.83,7.38 32.25,7.38 C 28.08,7.37 24.03,8.71 20.8,11.17 C 17.57,13.62 15.36,17.03 14.54,20.83 C 14.42,21.3 14.2,21.75 13.88,22.14 C 13.57,22.52 13.16,22.84 12.7,23.08 C 9.2,24.76 6.22,27.26 4.07,30.33 C 1.91,33.39 0.64,36.92 0.38,40.58 L 0.22 42.4 L 0 45 L 0.32 45.4 L 0.32 100 L 34.52 100 L 34.52 85.85 L 81.8 85.85 L 81.8 77.28 L 78.56 77.28 L 78.56 46.9 C 81.57,46.1 84.33,44.64 86.61,42.65 C 88.89,40.67 90.64,38.21 91.69,35.47 L 93.42 37.05 L 95.36 35.22 L 98.06 32.73 L 100 30.9 L 98.06 29.15 L 98.06 29.15" fill="#FFFFFF" stroke="none" stroke-width="0.5"/>
  </g>
  <g transform="translate(2.00,2.00) scale(0.5100,0.3300)">
    <path d="M 95.43 22.9 L 96.38 22.39 L 96.75 22.39 L 97.65 21.95 L 98.11 21.95 L 98.85 21.63 L 99.42 21.63 L 99.67 21.63 L 100 21.63 C 97.45,15.05 93.83,9.6 89.5,5.81 C 85.17,2.02 80.27,0.02 75.29,0 C 71.29,0 67.34,1.27 63.68,3.71 C 60.01,6.16 56.72,9.74 54,14.23 C 53,15.63 51.82,16.68 50.53,17.29 C 49.24,17.9 47.87,18.07 46.54,17.77 C 40.79,16.96 35.06,19.43 30.42,24.72 C 25.79,30.01 22.6,37.74 21.46,46.43 C 21.17,48.58 20.57,50.61 19.71,52.38 C 18.85,54.14 17.74,55.58 16.47,56.61 C 11.81,60.37 7.85,65.9 4.96,72.68 C 2.08,79.45 0.37,87.25 0,95.32 L 0 100 L 16.47 100 L 16.47 91.33 L 5.93 91.33 C 6.67,85.6 8.24,80.18 10.52,75.5 C 12.8,70.81 15.73,66.97 19.11,64.26 C 21.13,62.65 22.9,60.36 24.27,57.55 C 25.63,54.75 26.58,51.51 27.02,48.07 C 27.56,43.78 28.78,39.75 30.55,36.34 C 32.33,32.92 34.63,30.22 37.23,28.46 C 39.98,26.57 43,25.81 46,26.25 C 48.28,26.62 50.58,26.17 52.72,24.94 C 54.87,23.71 56.8,21.73 58.36,19.17 C 60.74,15.21 63.68,12.12 66.94,10.15 C 70.21,8.17 73.72,7.35 77.22,7.75 C 80.72,8.16 84.12,9.77 87.16,12.46 C 90.19,15.16 92.8,18.88 94.77,23.34 L 95.1 23.34 L 95.43 22.9 L 95.43 22.9" fill="#2c5a67" stroke="none" stroke-width="0.5"/>
  </g>
  <g transform="translate(10.00,20.00) scale(0.2700,0.1700)">
    <path d="M 20.43 47.68 C 41.73,29.42 65.41,19.32 89.6,18.19 L 95.98 8.16 L 100 1.76 C 68.06,0 36.48,12.92 9.04,38.98 L 11.62 46.23 L 9.04 38.98 L 0 47.43 L 2.58 54.56 L 10.17 53.72 L 10.17 100 L 20.43 100 L 20.43 47.68 L 20.43 47.68" fill="#2c5a67" stroke="none" stroke-width="0.5"/>
  </g>
  <g transform="translate(27.00,40.00) scale(0.3400,0.3000)">
    <path d="M 92.54 0 C 92,0.03 91.45,0.03 90.9,0 L 84.41 0 L 84.41 90.43 L 76.05 90.43 L 76.05 13.56 L 30.26 13.56 L 30.26 90.43 L 21.89 90.43 L 21.89 13.56 L 0 13.56 L 0 23.2 L 13.58 23.2 L 13.58 40.04 L 0 40.04 L 0 49.62 L 13.58 49.62 L 13.58 65.2 L 0 65.2 L 0 74.84 L 13.58 74.84 L 13.58 90.43 L 0 90.43 L 0 100 L 100 100 L 100 90.43 L 92.72 90.43 L 92.72 0 L 92.54 0 L 92.54 0 M 67.86 65.2 L 38.57 65.2 L 38.57 49.62 L 67.86 49.62 L 67.86 65.2 L 67.86 65.2 M 67.86 23.27 L 67.86 40.11 L 38.57 40.11 L 38.57 23.2 L 67.86 23.27 L 67.86 23.27 M 38.69 74.91 L 67.86 74.91 L 67.86 90.5 L 38.57 90.5 L 38.69 74.91 L 38.69 74.91" fill="#2c5a67" stroke="none" stroke-width="0.5"/>
  </g>
  <g transform="translate(18.00,30.00) scale(0.1600,0.1000)">
    <path d="M 100 0 L 0 0 L 0 73.06 L 18.12 73.06 L 18.12 26.74 L 81.75 26.74 L 81.75 73.26 L 52.12 73.26 L 52.12 93.02 L 52.12 100 L 100 100 L 100 0 L 100 0" fill="#2c5a67" stroke="none" stroke-width="0.5"/>
  </g>
  <g transform="translate(37.00,30.00) scale(0.1500,0.1000)">
    <path d="M 0 100 L 100 100 L 100 85.74 C 92.03,82.97 84.32,78.71 77.09,73.05 L 18.15 73.05 L 18.15 26.17 L 42.38 26.17 L 41.19 23.63 L 40.4 22.07 L 34.57 8.2 L 32.19 0 L 0 0 L 0 100 L 0 100" fill="#2c5a67" stroke="none" stroke-width="0.5"/>
  </g>
  <g transform="translate(56.00,20.00) scale(0.0200,0.0500)">
    <path d="M 50 0 L 0 100 L 100 100 L 50 0 L 50 0" fill="#FFFFFF" stroke="none" stroke-width="0.5"/>
  </g>
  <g transform="translate(51.00,16.00) scale(0.1000,0.1400)">
    <path d="M 63.06 0 L 36.94 0 L 0 100 L 27.47 100 L 33.66 79 L 65.38 79 L 71.57 100 L 100 100 L 63.06 0 L 63.06 0 M 48.74 24.92 L 59.77 62.39 L 38.49 62.39 L 48.74 24.92 L 48.74 24.92" fill="#2c5a67" stroke="none" stroke-width="0.5"/>
  </g>
  <g transform="translate(39.00,10.00) scale(0.2900,0.1800)">
    <path d="M 0 66.81 L 20.72 100 L 41.43 66.81 L 34.27 55.32 L 25.81 69.1 C 26.62,56.96 29.83,45.55 34.97,36.53 C 40.1,27.51 46.9,21.35 54.38,18.94 C 61.85,16.53 69.61,18 76.52,23.14 C 83.44,28.28 89.15,36.82 92.83,47.51 L 100 36.03 C 94.92,22.92 87.37,12.73 78.45,6.92 C 69.52,1.12 59.68,0 50.33,3.73 C 40.99,7.46 32.62,15.84 26.43,27.67 C 20.25,39.5 16.56,54.17 15.91,69.56 L 7.03 55.32 L 0 66.81 L 0 66.81" fill="#2c5a67" stroke="none" stroke-width="0.5"/>
  </g>
  <g transform="translate(45.00,20.00) scale(0.2900,0.1800)">
    <path d="M 92.85 44.69 L 100 33.11 L 79.11 0 L 58.44 33.46 L 65.59 45.03 L 73.82 30.8 C 72.9,42.89 69.64,54.21 64.51,63.14 C 59.38,72.06 52.64,78.14 45.25,80.5 C 37.86,82.86 30.2,81.39 23.36,76.29 C 16.52,71.19 10.84,62.72 7.15,52.1 L 0 63.67 C 5.06,76.88 12.59,87.15 21.49,93.01 C 30.39,98.86 40.2,100 49.53,96.26 C 58.85,92.51 67.2,84.08 73.38,72.17 C 79.56,60.27 83.24,45.5 83.91,29.98 L 92.85 44.69 L 92.85 44.69" fill="#2c5a67" stroke="none" stroke-width="0.5"/>
  </g>
  <g transform="translate(5.00,43.00) scale(0.1600,0.3500)">
    <path d="M 0 0 L 0 100 L 100 100 L 100 0 L 0 0 L 0 0 M 12.69 7.06 L 87.06 7.06 L 87.06 15.12 L 12.94 15.12 L 12.69 7.06 L 12.69 7.06 M 12.69 22.18 L 87.06 22.18 L 87.06 30.29 L 12.94 30.29 L 12.69 22.18 L 12.69 22.18 M 12.69 37.35 L 87.06 37.35 L 87.06 45.41 L 12.94 45.41 L 12.69 37.35 L 12.69 37.35 M 86.04 91.06 L 66.88 91.06 L 49.49 77.35 L 32.74 91.06 L 14.34 91.06 L 38.32 72.29 L 15.48 54.65 L 34.64 54.65 L 50.76 67.12 L 66.37 54.65 L 84.9 54.65 L 61.93 72.29 L 86.04 91.06 L 86.04 91.06" fill="#FFFFFF" stroke="none" stroke-width="0.5"/>
  </g>
  <g transform="translate(2.00,40.00) scale(0.2200,0.4100)">
    <path d="M 0 0 L 0 100 L 100 100 L 100 0 L 0 0 L 0 0 M 87.1 92.92 L 12.9 92.92 L 12.9 6.98 L 87.1 6.98 L 87.1 92.92 L 87.1 92.92" fill="#2c5a67" stroke="none" stroke-width="0.5"/>
  </g>
  <g transform="translate(7.00,46.00) scale(0.1200,0.0200)">
    <path d="M 100 0 L 0 0 L 0 100 L 100 100 L 100 0 L 100 0" fill="#2c5a67" stroke="none" stroke-width="0.5"/>
  </g>
  <g transform="translate(7.00,51.00) scale(0.1200,0.0200)">
    <path d="M 100 0 L 0 0 L 0 100 L 100 100 L 100 0 L 100 0" fill="#2c5a67" stroke="none" stroke-width="0.5"/>
  </g>
  <g transform="translate(7.00,57.00) scale(0.1200,0.0200)">
    <path d="M 100 0 L 0 0 L 0 100 L 100 100 L 100 0 L 100 0" fill="#2c5a67" stroke="none" stroke-width="0.5"/>
  </g>
  <g transform="translate(7.00,63.00) scale(0.1100,0.1300)">
    <path d="M 98.41 0 L 72.57 0 L 50.8 34.47 L 28.32 0 L 1.59 0 L 33.45 48.13 L 0 100 L 25.66 100 L 49.03 62.11 L 73.27 100 L 100 100 L 66.37 48.46 L 98.41 0 L 98.41 0" fill="#2c5a67" stroke="none" stroke-width="0.5"/>
  </g>
</svg>