<svg xmlns="http://www.w3.org/2000/svg" viewBox="0 0 84.0 88.0000000000002" width="84" height="88">
  <g transform="translate(9.00,1.00) scale(0.8200,0.6200)">
    <path d="M 99.02 99.68 C 96.33,99.68 95.11,98.39 94.13,97.43 C 93.4,96.78 93.15,96.46 92.67,96.46 C 92.18,96.46 91.69,96.78 91.2,97.43 C 90.22,98.39 88.75,99.68 86.31,99.68 C 83.62,99.68 82.4,98.39 81.42,97.43 C 80.68,96.78 80.44,96.46 79.95,96.46 C 79.46,96.46 78.97,96.78 78.48,97.43 C 77.51,98.39 76.04,99.68 73.59,99.68 C 70.9,99.68 69.68,98.39 68.7,97.43 C 67.97,96.78 67.73,96.46 67.24,96.46 C 66.5,96.46 66.26,96.78 65.77,97.43 C 64.79,98.39 63.32,99.68 60.88,99.68 C 58.19,99.68 56.97,98.39 55.99,97.43 C 55.26,96.78 55.01,96.46 54.52,96.46 C 53.79,96.46 53.54,96.78 53.06,97.43 C 52.08,98.39 50.61,99.68 48.17,99.68 C 45.48,99.68 44.25,98.39 43.28,97.43 C 42.54,96.78 42.3,96.46 41.81,96.46 C 41.08,96.46 40.83,96.78 40.34,97.43 C 39.36,98.39 37.9,99.68 35.45,99.68 C 32.76,99.68 31.54,98.39 30.56,97.43 C 29.83,96.78 29.58,96.46 29.1,96.46 C 28.61,96.46 28.12,96.78 27.63,97.43 C 26.65,98.39 25.18,99.68 22.74,99.68 C 20.05,99.68 18.83,98.39 17.85,97.43 C 17.11,96.78 16.87,96.46 16.38,96.46 C 15.89,96.46 13.45,96.46 12.71,97.43 C 11.74,98.39 10.27,99.68 7.82,99.68 C 5.13,99.68 3.91,98.39 2.93,97.43 C 2.2,96.78 1.96,96.46 1.47,96.46 L 0 96.46 L 0 80.39 L 1.22 80.39 C 3.91,80.39 5.13,81.67 6.11,82.64 C 6.85,83.28 7.09,83.6 7.58,83.6 C 8.31,83.6 8.56,83.28 9.05,82.64 C 10.03,81.67 11.49,80.39 13.94,80.39 C 16.63,80.39 17.85,81.67 18.83,82.64 C 19.56,83.28 19.8,83.6 20.29,83.6 C 20.78,83.6 21.27,83.28 21.76,82.64 C 22.01,82.32 22.25,81.99 22.74,81.67 L 22.74 74.92 L 0 74.92 L 0 58.84 L 3.18 58.84 C 18.83,58.84 22.74,36.01 23.23,29.58 L 23.23 25.08 L 24.45 25.08 L 28.85 25.08 L 28.85 28.94 C 28.85,33.44 29.83,40.84 33.01,46.95 C 36.92,54.66 42.79,58.52 50.37,58.52 C 57.95,58.52 63.81,54.34 67.48,46.62 C 68.22,45.02 68.95,43.41 69.44,41.48 L 31.05 41.48 L 31.3 37.62 C 31.78,30.55 34.72,24.44 39.12,21.54 C 39.85,20.9 40.34,19.94 40.34,18.97 C 41.08,14.15 43.52,9.97 46.94,8.04 C 48.41,7.07 50.12,6.75 51.59,6.75 C 51.83,6.75 52.32,6.75 52.57,6.75 L 52.81 6.75 C 53.54,6.75 54.03,6.43 54.52,5.79 C 57.21,1.93 60.88,0 64.79,0 C 70.17,0 74.82,3.86 77.26,10.29 C 77.51,11.25 78.24,11.9 78.97,11.9 C 80.68,12.22 82.15,13.18 83.37,14.47 C 89.73,19.61 91.93,30.55 88.26,39.23 L 87.53 41.48 L 79.46 41.48 C 81.66,48.23 86.55,59.16 97.07,59.16 L 100 59.16 L 100 75.24 L 77.26 75.24 L 77.26 81.03 C 77.99,80.71 78.48,80.71 79.22,80.71 C 81.91,80.71 83.13,81.99 84.11,82.96 C 84.84,83.6 85.09,83.92 85.57,83.92 C 86.31,83.92 86.55,83.6 87.04,82.96 C 88.02,81.99 89.49,80.71 91.93,80.71 C 94.62,80.71 95.84,81.99 96.82,82.96 C 97.55,83.6 97.8,83.92 98.29,83.92 L 99.51 83.92 L 99.51 100 L 99.02 100 L 99.02 99.68 L 99.02 99.68" fill="#FFFFFF" stroke="none" stroke-width="0.5"/>
  </g>
  <g transform="translate(8.00,0.00) scale(0.8400,0.6400)">
    <path d="M 64.52 3.13 C 69.29,3.13 73.57,6.56 75.71,12.19 C 76.19,13.44 77.14,14.37 78.1,14.69 C 79.52,15 80.95,15.94 82.14,16.87 C 87.86,21.56 89.76,31.25 86.67,39.06 L 86.19 40.31 L 77.38 40.31 C 77.62,40.94 77.86,41.56 78.1,42.5 C 80.95,51.25 86.67,60.63 96.43,60.63 L 97.62 60.63 L 97.62 64.69 L 97.62 73.12 L 75.48 73.12 L 75.48 82.5 C 76.19,81.88 77.14,81.25 78.57,81.25 C 80.71,81.25 81.91,82.5 82.62,83.13 C 83.33,83.75 83.81,84.37 84.76,84.37 C 85.71,84.37 86.19,84.06 86.91,83.13 C 87.86,82.19 88.81,81.25 90.95,81.25 C 93.1,81.25 94.29,82.5 95,83.13 C 95.71,83.75 96.19,84.37 97.14,84.37 L 97.14 87.5 L 97.14 88.75 L 97.14 96.87 C 95,96.87 93.81,95.62 93.1,95 C 92.86,94.06 92.38,93.75 91.19,93.75 C 90.24,93.75 89.76,94.06 89.05,95 C 88.1,95.62 86.91,96.87 85,96.87 C 82.86,96.87 81.67,95.62 80.95,95 C 80,94.06 79.52,93.75 78.57,93.75 C 77.62,93.75 77.14,94.06 76.43,95 C 75.48,95.94 74.52,96.87 72.38,96.87 C 70.24,96.87 69.05,95.62 68.33,95 C 67.62,94.38 67.14,93.75 66.19,93.75 C 65.24,93.75 64.76,94.06 64.05,95 C 62.86,95.62 61.67,96.87 59.52,96.87 C 57.38,96.87 56.19,95.62 55.48,95 C 54.76,94.06 54.29,93.75 53.1,93.75 C 52.14,93.75 51.67,94.06 50.95,95 C 50,95.62 48.81,96.87 46.91,96.87 C 44.76,96.87 43.57,95.62 42.86,95 C 41.91,94.06 41.43,93.75 40.48,93.75 C 39.52,93.75 39.05,94.06 38.33,95 C 37.38,95.94 36.43,96.87 34.29,96.87 C 32.14,96.87 30.95,95.62 30.24,95 C 29.52,94.38 29.05,93.75 28.1,93.75 C 27.14,93.75 26.67,94.06 25.95,95 C 24.76,95.62 23.57,96.87 21.43,96.87 C 19.29,96.87 18.1,95.62 17.38,95 C 16.67,94.06 16.19,93.75 15,93.75 C 13.81,93.75 13.57,94.06 12.86,95 C 11.91,95.62 10.95,96.87 8.81,96.87 C 6.67,96.87 5.48,95.62 4.76,95 C 3.81,94.06 3.33,93.75 2.38,93.75 L 2.38 85.31 L 2.38 83.75 L 2.38 81.25 C 4.52,81.25 5.71,82.5 6.43,83.13 C 7.14,84.06 7.62,84.37 8.81,84.37 C 9.76,84.37 10.24,84.06 10.95,83.13 C 11.91,82.5 12.86,81.25 15,81.25 C 17.14,81.25 18.33,82.5 19.05,83.13 C 20,84.06 20.48,84.37 21.43,84.37 C 22.38,84.37 22.86,84.06 23.57,83.13 C 24.05,82.81 24.29,82.19 25,81.88 L 25 72.81 L 2.38 72.81 L 2.38 64.37 L 2.38 60 L 4.29 60 C 19.29,60 24.52,38.75 25,30.31 L 25 27.5 L 28.1 27.5 L 28.1 29.69 C 28.1,34.37 29.29,41.87 32.38,48.12 C 36.43,55.94 42.38,60 50.48,60 C 58.33,60 64.29,55.94 68.33,47.5 C 69.05,45.94 69.76,44.06 70.24,42.5 C 70.48,41.87 70.71,41.25 70.71,40.31 L 68.33 40.31 L 61.19 40.31 L 54.76 40.31 L 39.52 40.31 L 32.62 40.31 L 32.62 38.44 C 32.86,32.5 35.48,26.87 39.76,24.06 C 40.71,23.44 41.43,22.19 41.67,20.94 C 42.38,16.25 44.52,12.5 47.62,10.94 C 48.81,10.31 50.24,9.69 51.67,9.69 C 51.91,9.69 52.38,9.69 52.62,9.69 L 52.86 9.69 C 53.81,9.69 54.76,9.06 55.24,8.44 C 57.62,5 60.95,3.13 64.52,3.13 L 64.52 3.13 M 64.52 0 C 60.48,0 56.43,2.19 53.57,6.25 C 53.33,6.56 53.1,6.56 52.86,6.56 L 52.62 6.56 C 52.14,6.56 51.91,6.56 51.43,6.56 C 49.76,6.56 48.1,7.19 46.43,7.81 C 42.62,10 40,14.37 39.29,19.69 C 39.29,20 39.05,20.63 38.57,20.63 C 34.76,23.12 31.91,28.12 30.71,33.75 C 30.48,32.19 30.48,30.62 30.48,29.37 L 30.48 27.5 L 30.48 24.37 L 28.1 24.37 L 25 24.37 L 22.62 24.37 L 22.62 27.5 L 22.62 30.31 C 22.38,35.62 18.33,57.19 4.29,57.19 L 2.38 57.19 L 0 57.19 L 0 60.31 L 0 64.69 L 0 73.12 L 0 76.25 L 2.38 76.25 L 22.62 76.25 L 22.62 80.63 C 22.38,80.63 22.38,80.94 22.14,80.94 C 21.67,81.25 21.67,81.25 21.43,81.25 C 21.19,81.25 21.19,81.25 20.71,80.63 C 19.52,79.69 18.1,78.12 15,78.12 C 12.14,78.12 10.48,79.69 9.52,80.63 C 9.05,81.25 9.05,81.25 8.81,81.25 C 8.57,81.25 8.57,81.25 8.1,80.63 C 6.91,79.69 5.24,78.12 2.38,78.12 L 0 78.12 L 0 81.25 L 0 84.06 L 0 85.62 L 0 93.75 L 0 96.87 L 2.38 96.87 C 2.62,96.87 2.62,96.87 3.1,97.5 C 4.05,98.44 5.71,100 8.81,100 C 11.67,100 13.33,98.44 14.29,97.5 C 14.76,96.87 14.76,96.87 15,96.87 C 15.24,96.87 15.24,96.87 15.71,97.5 C 16.91,98.44 18.57,100 21.43,100 C 24.29,100 25.95,98.44 26.91,97.5 C 27.38,96.87 27.38,96.87 27.62,96.87 C 27.86,96.87 27.86,96.87 28.33,97.5 C 29.29,98.44 30.95,100 33.81,100 C 36.67,100 38.33,98.44 39.29,97.5 C 40.24,96.87 40.24,96.87 40.48,96.87 C 40.71,96.87 40.71,96.87 41.19,97.5 C 42.14,98.44 43.81,100 46.67,100 C 49.52,100 51.19,98.44 52.14,97.5 C 52.62,96.87 52.62,96.87 52.86,96.87 C 53.1,96.87 53.1,96.87 53.57,97.5 C 54.52,98.44 56.19,100 59.05,100 C 61.91,100 63.57,98.44 64.52,97.5 C 65,96.87 65,96.87 65.24,96.87 C 65.48,96.87 65.48,96.87 65.95,97.5 C 66.91,98.44 68.57,100 71.43,100 C 74.29,100 75.95,98.44 76.91,97.5 C 78.33,96.87 78.33,96.87 78.57,96.87 C 78.81,96.87 78.81,96.87 79.29,97.5 C 80.24,98.44 81.91,100 84.76,100 C 87.62,100 89.29,98.44 90.24,97.5 C 90.71,96.87 90.71,96.87 90.95,96.87 C 91.19,96.87 91.19,96.87 91.67,97.5 C 92.62,98.44 94.29,100 97.14,100 L 99.52 100 L 99.52 96.87 L 99.52 88.44 L 99.52 87.5 L 99.52 84.37 L 99.52 81.25 L 97.14 81.25 C 96.91,81.25 96.91,81.25 96.43,80.63 C 95.48,79.69 93.81,78.12 90.95,78.12 C 88.1,78.12 86.43,79.69 85.48,80.63 C 85.24,81.25 85.24,81.25 85,81.25 C 84.76,81.25 84.76,81.25 84.29,80.63 C 83.1,79.69 81.43,78.12 78.57,78.12 C 78.33,78.12 78.1,78.12 77.86,78.12 L 77.86 75.94 L 97.62 75.94 L 100 75.94 L 100 72.81 L 100 64.37 L 100 60.31 L 100 57.19 L 97.62 57.19 L 95.95 57.19 C 87.38,57.19 82.86,49.37 80.48,43.12 L 85.71 43.12 L 87.14 43.12 L 87.86 41.25 L 88.33 40 C 92.14,30.94 89.76,19.38 83.1,14.06 C 81.67,12.81 80,11.88 78.33,11.56 C 77.86,11.56 77.62,11.25 77.38,10.63 C 75.24,4.06 70,0 64.52,0 L 64.52 0 M 33.1 43.12 L 39.52 43.12 L 54.76 43.12 L 61.19 43.12 L 67.14 43.12 C 66.91,44.06 66.43,44.69 66.19,45.62 C 62.62,53.12 57.62,56.56 50.48,56.56 C 43.33,56.56 37.86,53.12 34.52,46.25 C 33.81,45.31 33.57,44.37 33.1,43.12 L 33.1 43.12" fill="#FFFFFF" stroke="none" stroke-width="0.5"/>
  </g>
  <g transform="translate(52.00,18.00) scale(0.1300,0.0700)">
    <path d="M 100 62.86 L 51.47 62.86 C 33.82,62.86 19.12,34.29 19.12,0 L 0 0 C 0,54.29 23.53,100 51.47,100 L 95.59 100 C 95.59,97.14 97.07,85.71 100,62.86 L 100 62.86" fill="#2c5967" stroke="none" stroke-width="0.5"/>
  </g>
  <g transform="translate(35.00,2.00) scale(0.4700,0.2300)">
    <path d="M 34.03 88.98 L 5.88 88.98 C 7.14,78.81 10.08,70.34 14.7,65.25 C 18.07,61.86 20.17,55.93 21.01,48.3 C 21.85,40.68 24.37,33.9 28.15,31.36 C 30.25,29.66 31.93,28.81 34.03,29.66 C 37.82,30.51 41.18,27.97 43.7,22.03 C 47.06,15.25 51.26,11.02 55.88,11.02 C 62.18,11.02 67.65,17.8 70.59,29.66 C 72.27,36.44 75.21,40.68 78.57,42.37 C 80.25,43.22 82.35,44.92 84.03,46.61 C 91.18,55.93 93.7,73.73 90.76,88.98 L 80.67 88.98 C 81.51,94.92 82.35,99.15 82.77,100 L 93.7 100 L 94.54 96.61 C 100,75.42 96.64,49.15 86.56,36.44 C 84.45,33.9 81.93,31.36 79.41,30.51 C 77.31,29.66 76.05,27.12 75.21,23.73 C 71.43,9.32 64.29,0 55.88,0 C 50,0 44.12,5.08 39.92,14.41 C 38.65,16.95 36.98,18.64 34.87,17.8 C 31.93,16.95 28.99,17.8 26.05,20.34 C 20.59,25.42 16.81,34.75 15.97,46.61 C 15.54,50.85 14.29,53.39 12.6,55.08 C 5.46,62.71 0.84,77.97 0,94.07 L 0 99.15 L 38.65 99.15 C 36.98,97.46 35.29,93.22 34.03,88.98 L 34.03 88.98" fill="#2c5967" stroke="none" stroke-width="0.5"/>
  </g>
  <g transform="translate(10.00,44.00) scale(0.8000,0.1200)">
    <path d="M 0 20.63 L 23.75 20.63 L 23.75 66.66 C 23.25,68.26 22.75,71.43 22.25,73.01 C 21.5,77.78 21,79.37 20,79.37 C 19,79.37 18.5,77.78 17.75,73.01 C 16.75,69.84 15.5,63.49 13.25,63.49 C 11,63.49 10,69.84 9,73.01 C 8.25,77.78 7.75,79.37 6.75,79.37 C 5.75,79.37 5.25,77.78 4.5,73.01 C 3.5,69.84 2.25,63.49 0,63.49 L 0 84.12 C 1,84.12 1.5,85.72 2.25,90.48 C 3.25,95.24 4.25,100 6.5,100 C 8.75,100 10,95.24 11,90.48 C 11.75,87.3 12.25,84.12 13.25,84.12 C 14.25,84.12 14.75,85.72 15.5,90.48 C 16.5,95.24 17.75,100 20,100 C 22.25,100 23.5,93.65 24.25,90.48 C 25,87.3 25.5,84.12 26.5,84.12 C 27.5,84.12 28,85.72 28.75,90.48 C 29.75,95.24 30.75,100 33,100 C 35.25,100 36.5,93.65 37.25,90.48 C 38,87.3 38.5,84.12 39.5,84.12 C 40.5,84.12 41,85.72 41.75,90.48 C 42.75,95.24 43.75,100 46,100 C 48.25,100 49.5,93.65 50.25,90.48 C 51,87.3 51.5,84.12 52.5,84.12 C 53.5,84.12 54,85.72 54.75,90.48 C 55.75,95.24 56.75,100 59,100 C 61.25,100 62.5,93.65 63.25,90.48 C 64,87.3 64.5,84.12 65.5,84.12 C 66.5,84.12 67,85.72 67.75,90.48 C 68.75,95.24 69.75,100 72,100 C 74.25,100 75.5,93.65 76.25,90.48 C 77,87.3 77.5,84.12 78.5,84.12 C 79.5,84.12 80,85.72 80.75,90.48 C 81.75,95.24 82.75,100 85,100 C 87.25,100 88.5,93.65 89.25,90.48 C 90,87.3 90.5,84.12 91.5,84.12 C 92.5,84.12 93,85.72 93.75,90.48 C 94.75,95.24 95.75,100 98,100 L 98 79.37 C 97,79.37 96.5,77.78 95.75,73.01 C 94.75,68.26 93.75,63.49 91.5,63.49 C 89.25,63.49 88,69.84 87.25,73.01 C 86.5,76.19 86,79.37 85,79.37 C 84,79.37 83.5,77.78 82.75,73.01 C 83.5,69.84 82.25,63.49 80,63.49 C 78.5,63.49 77.5,66.66 76.75,69.84 L 76.75 22.22 L 100 22.22 L 100 0 L 0 0 L 0 20.63 L 0 20.63 M 73.25 79.37 C 72.25,79.37 71.75,77.78 71,73.01 C 70,69.84 68.75,63.49 66.75,63.49 C 64.75,63.49 63.25,69.84 62.5,73.01 C 61.5,77.78 61,79.37 60,79.37 C 59,79.37 58.5,77.78 57.75,73.01 C 56.75,68.26 55.75,63.49 53.5,63.49 C 51.25,63.49 50,69.84 49.25,73.01 C 48.5,76.19 48,79.37 47,79.37 C 46,79.37 45.5,77.78 44.75,73.01 C 43.5,69.84 42.25,63.49 40,63.49 C 37.75,63.49 36.5,69.84 35.75,73.01 C 35,77.78 34.5,79.37 33.25,79.37 C 32.25,79.37 31.75,77.78 31,73.01 C 30.25,69.84 29,63.49 27,63.49 L 27 20.63 L 73.25 20.63 L 73.25 79.37 L 73.25 79.37" fill="#2c5967" stroke="none" stroke-width="0.5"/>
  </g>
  <g transform="translate(10.00,17.00) scale(0.8000,0.2300)">
    <path d="M 98.25 88.99 C 87.75,88.99 82,63.56 79,39.83 C 77.25,26.27 76.75,13.56 76.75,5.93 L 76.75 0 L 73.5 0 L 73.5 7.63 C 73.5,15.25 72.75,27.12 71.25,38.98 C 70.75,43.22 70,48.31 69.25,52.54 C 65.25,74.58 59,86.44 50.5,86.44 C 42,86.44 35.75,75.42 31.5,54.24 C 28.25,37.29 27,16.95 27,4.24 L 27 0 L 23.75 0 L 23.75 7.63 C 23.25,31.36 17.75,88.14 2,88.14 L 0 88.14 L 0 100 L 100 100 L 100 88.14 L 98.25 88.14 L 98.25 88.99 L 98.25 88.99 M 86.75 88.99 L 76.75 88.99 L 76.75 49.15 C 77.25,53.39 78,57.63 78.75,61.87 C 80.5,71.19 83,81.36 86.75,88.99 L 86.75 88.99 M 72 59.32 C 72.5,56.78 73,53.39 73.25,50.85 L 73.25 88.99 L 62.75 88.99 C 67.25,81.36 70,70.34 72,59.32 L 72 59.32 M 28.75 61.02 C 30.5,70.34 33.5,81.36 37.75,88.99 L 27 88.99 L 27 51.7 C 27.5,55.09 28,58.48 28.75,61.02 L 28.75 61.02 M 21.75 61.87 C 22.5,57.63 23.25,53.39 23.75,49.15 L 23.75 88.99 L 13.75 88.99 C 17.5,81.36 20,71.19 21.75,61.87 L 21.75 61.87" fill="#2c5967" stroke="none" stroke-width="0.5"/>
  </g>
  <g transform="translate(10.00,57.00) scale(0.7900,0.0400)">
    <path d="M 95.15 0 C 92.86,0 91.58,17.39 90.82,26.1 C 90.05,34.78 89.54,43.49 88.52,43.49 C 87.5,43.49 86.99,39.12 86.23,26.1 C 85.2,13.05 84.18,0 81.89,0 C 79.59,0 78.32,17.39 77.55,26.1 C 76.79,34.78 76.28,43.49 75.26,43.49 C 74.23,43.49 73.72,39.12 72.96,26.1 C 71.94,13.05 70.92,0 68.62,0 C 66.33,0 65.05,17.39 64.29,26.1 C 63.52,34.78 63.01,43.49 61.99,43.49 C 60.97,43.49 60.46,39.12 59.69,26.1 C 58.67,13.05 57.65,0 55.36,0 C 53.06,0 51.79,17.39 51.02,26.1 C 50.26,34.78 49.75,43.49 48.72,43.49 C 47.7,43.49 47.19,39.12 46.43,26.1 C 45.41,13.05 44.39,0 42.09,0 C 39.8,0 38.52,17.39 37.75,26.1 C 36.99,34.78 36.48,43.49 35.46,43.49 C 34.44,43.49 33.93,39.12 33.16,26.1 C 32.14,13.05 31.12,0 28.83,0 C 26.53,0 25.26,17.39 24.49,26.1 C 23.72,34.78 23.21,43.49 22.19,43.49 C 21.17,43.49 20.66,39.12 19.9,26.1 C 18.88,13.05 17.86,0 15.56,0 C 13.27,0 10.2,13.05 9.18,26.1 C 8.42,34.78 7.91,43.49 6.89,43.49 C 5.87,43.49 5.36,39.12 4.59,26.1 C 3.57,13.05 2.3,0 0,0 L 0 56.54 C 1.02,56.54 1.53,60.88 2.3,73.93 C 3.32,82.61 4.59,100 6.89,100 C 9.18,100 10.46,82.61 11.22,73.93 C 11.99,60.88 12.5,56.54 13.52,56.54 C 14.54,56.54 15.05,60.88 15.82,73.93 C 16.84,82.61 18.11,100 20.41,100 C 22.7,100 23.98,82.61 24.74,73.93 C 25.51,65.22 26.02,56.54 27.04,56.54 C 28.06,56.54 28.57,60.88 29.34,73.93 C 30.36,86.97 31.38,100 33.67,100 C 35.97,100 37.24,82.61 38.01,73.93 C 38.78,65.22 39.29,56.54 40.31,56.54 C 41.33,56.54 41.84,60.88 42.6,73.93 C 43.62,86.97 44.64,100 46.94,100 C 49.24,100 50.51,82.61 51.28,73.93 C 52.04,65.22 52.55,56.54 53.57,56.54 C 54.59,56.54 55.1,60.88 55.87,73.93 C 56.89,86.97 57.91,100 60.2,100 C 62.5,100 63.78,82.61 64.54,73.93 C 65.31,65.22 65.82,56.54 66.84,56.54 C 67.86,56.54 68.37,60.88 69.13,73.93 C 70.15,86.97 71.17,100 73.47,100 C 75.77,100 77.04,82.61 77.81,73.93 C 78.57,65.22 79.08,56.54 80.1,56.54 C 81.12,56.54 81.63,60.88 82.4,73.93 C 83.42,86.97 84.44,100 86.74,100 C 89.03,100 90.31,82.61 91.07,73.93 C 91.84,65.22 92.35,56.54 93.37,56.54 C 94.39,56.54 94.9,60.88 95.66,73.93 C 96.68,86.97 97.7,100 100,100 L 100 43.49 C 98.98,43.49 98.47,39.12 97.7,26.1 C 98.72,13.05 97.45,0 95.15,0 L 95.15 0" fill="#2c5967" stroke="none" stroke-width="0.5"/>
  </g>
</svg>