<svg xmlns="http://www.w3.org/2000/svg" viewBox="0 0 76.0 129.00000000000026" width="76" height="129">
  <g transform="translate(5.00,1.00) scale(0.7400,0.8200)">
    <path d="M 50 100 C 44.81,100 0.01,99.63 0.01,86.76 L 0.01 14.59 C 0,14.43 0,14.28 0.01,14.12 C 0,13.94 0,13.75 0.01,13.56 C 0.01,3.66 26.95,0 50,0 C 73.05,0 99.99,3.66 99.99,13.56 C 100,13.75 100,13.94 99.99,14.12 C 100,14.28 100,14.43 99.99,14.59 L 99.99 86.76 C 99.99,99.63 55.1,100 50,100 L 50 100" fill="#FFFFFF" stroke="none" stroke-width="0.5"/>
  </g>
  <g transform="translate(4.00,0.00) scale(0.7600,0.8400)">
    <path d="M 50.01 2.38 C 72.8,2.38 97.36,6.14 97.36,14.43 C 97.37,14.63 97.37,14.83 97.36,15.02 C 97.37,15.16 97.37,15.29 97.36,15.43 L 97.36 85.88 C 97.36,95.24 66.37,97.62 50.01,97.62 C 33.64,97.62 2.66,95.24 2.66,85.88 L 2.66 15.43 C 2.64,15.29 2.64,15.16 2.66,15.02 C 2.65,14.83 2.65,14.63 2.66,14.43 C 2.66,6.14 27.19,2.38 50.01,2.38 L 50.01 2.38 M 50.01 0 C 41.65,0 0.01,0.69 0.01,14.43 C 0,14.61 0,14.79 0.01,14.98 C 0,15.13 0,15.28 0.01,15.43 L 0.01 85.88 C 0.01,99.31 41.65,100 50.01,100 C 58.36,100 100,99.31 100,85.88 L 100 15.43 C 100,15.26 100,15.12 100,14.98 C 100,14.83 100,14.6 100,14.43 C 100,0.69 58.36,0 50.01,0 L 50.01 0" fill="#FFFFFF" stroke="none" stroke-width="0.5"/>
  </g>
  <g transform="translate(32.00,58.00) scale(0.1900,0.0300)">
    <path d="M 100 0 C 84.02,5.93 67.21,9.17 50,9.17 C 32.79,9.17 15.98,5.93 0,0 L 0 90.26 C 18.14,97.3 35.55,100 50,100 C 64.45,100 81.76,97.3 100,90.26 L 100 0 L 100 0" fill="#2d5967" stroke="none" stroke-width="0.5"/>
  </g>
  <g transform="translate(32.00,39.00) scale(0.1900,0.0300)">
    <path d="M 0 90.27 C 18.14,97.3 35.55,100 50,100 C 64.45,100 81.76,97.3 100,90.27 L 100 0 C 84.02,5.95 67.21,9.19 50,9.19 C 32.79,9.19 15.98,5.95 0,0 L 0 90.27 L 0 90.27" fill="#2d5967" stroke="none" stroke-width="0.5"/>
  </g>
  <g transform="translate(6.00,2.00) scale(0.7200,0.8000)">
    <path d="M 99.99 12.65 C 99.99,3.95 74.06,0 50,0 C 25.94,0 0.01,3.95 0.01,12.65 C 0,12.86 0,13.07 0.01,13.27 C 0,13.42 0,13.56 0.01,13.7 L 0.01 87.67 C 0.01,97.5 32.7,100 50,100 C 67.3,100 99.99,97.5 99.99,87.67 L 99.99 13.7 C 100,13.56 100,13.42 99.99,13.27 C 100,13.07 100,12.86 99.99,12.65 L 99.99 12.65 M 83.24 92.85 C 72.35,94.93 61.24,95.91 50.11,95.78 C 38.91,95.93 27.72,94.95 16.76,92.85 C 6.85,90.72 4.62,88.35 4.62,87.67 L 4.62 68.65 C 10.05,71.09 15.9,72.68 21.92,73.35 L 21.92 69.1 C 20.11,68.8 18.38,68.5 16.76,68.15 C 6.85,66.02 4.62,63.63 4.62,62.97 L 4.62 44.3 C 10.05,46.74 15.9,48.33 21.92,49 L 21.92 44.75 C 20.11,44.45 18.38,44.15 16.76,43.8 C 6.85,41.67 4.62,39.27 4.62,38.62 L 4.62 18.42 C 13.16,23.1 32.03,25.27 49.89,25.27 C 67.75,25.27 86.62,23.1 95.16,18.42 L 95.16 38.62 C 95.16,39.27 92.92,41.67 83.02,43.8 C 81.4,44.15 79.67,44.45 77.85,44.75 L 77.85 49 C 83.88,48.32 89.73,46.73 95.16,44.3 L 95.16 62.97 C 95.16,63.63 92.92,66.02 83.02,68.15 C 81.4,68.5 79.67,68.8 77.85,69.1 L 77.85 73.35 C 83.88,72.67 89.73,71.08 95.16,68.65 L 95.16 87.67 C 95.27,88.35 93.04,90.72 83.13,92.85 L 83.24 92.85 L 83.24 92.85 M 50 4.22 C 61.13,4.09 72.23,5.11 83.1,7.25 C 93.09,9.45 95.27,11.87 95.27,12.65 C 95.27,13.43 93.09,15.85 83.1,18.05 C 72.23,20.19 61.13,21.21 50,21.07 C 38.83,21.22 27.67,20.2 16.76,18.05 C 6.91,15.85 4.73,13.4 4.73,12.65 C 4.73,11.9 6.91,9.45 16.76,7.25 C 27.67,5.1 38.83,4.08 50,4.22 L 50 4.22" fill="#2d5967" stroke="none" stroke-width="0.5"/>
  </g>
  <g transform="translate(20.00,28.00) scale(0.1400,0.4200)">
    <path d="M 75.74 100 C 83.89,100 92.01,99.73 100,99.19 L 100 89.25 C 95.35,89.62 90.59,89.79 85.81,89.77 C 82.71,89.88 79.58,89.78 76.6,89.47 C 73.63,89.17 70.87,88.66 68.51,87.98 C 64.79,86.17 63.08,83.99 63.69,81.81 L 63.69 57.97 L 32.34 50.05 L 63.69 42.09 L 63.69 18.2 C 63.08,16.02 64.79,13.84 68.51,12.03 C 70.87,11.35 73.63,10.84 76.6,10.53 C 79.58,10.23 82.71,10.12 85.81,10.24 C 90.58,10.24 95.34,10.41 100,10.76 L 100 0.86 C 92.03,0.28 83.9,0 75.74,0.01 C 43.41,0.01 27.23,5.62 27.23,16.83 L 27.23 38.84 L 0 46.47 L 0 53.77 L 27.23 61.22 L 27.23 83.22 C 27.23,94.4 43.41,100 75.74,100 L 75.74 100" fill="#2d5967" stroke="none" stroke-width="0.5"/>
  </g>
  <g transform="translate(49.00,28.00) scale(0.1400,0.4200)">
    <path d="M 24.65 0.01 C 16.5,0 8.38,0.28 0.42,0.86 L 0.42 10.76 C 5.08,10.42 9.83,10.25 14.59,10.24 C 17.66,10.13 20.77,10.23 23.72,10.54 C 26.67,10.85 29.4,11.36 31.73,12.03 C 35.26,13.85 36.81,16.01 36.12,18.16 L 36.12 42.01 L 67.57 49.98 L 36.12 57.9 L 36.12 81.8 C 36.72,83.98 35.01,86.17 31.3,87.97 C 28.97,88.65 26.25,89.16 23.3,89.47 C 20.35,89.78 17.24,89.88 14.17,89.77 C 9.4,89.78 4.64,89.61 0,89.25 L 0 99.19 C 7.98,99.73 16.09,100 24.22,100 C 56.52,100 72.66,94.39 72.66,83.17 L 72.66 61.15 L 100 53.7 L 100 46.45 L 72.66 38.9 L 72.66 16.84 C 72.95,5.62 56.94,0.01 24.65,0.01 L 24.65 0.01" fill="#2d5967" stroke="none" stroke-width="0.5"/>
  </g>
</svg>