<svg xmlns="http://www.w3.org/2000/svg" viewBox="0 0 84.0 144.00000000000026" width="84" height="144">
  <g transform="translate(9.00,26.00) scale(0.8200,0.4600)">
    <path d="M 98.78 100 C 97,99.99 95.27,98.88 93.9,96.85 C 93.22,95.94 93.03,95.68 92.34,95.68 C 91.66,95.68 91.49,95.94 90.8,96.85 C 89.41,98.88 87.65,100 85.84,100 C 84.03,100 82.28,98.88 80.88,96.85 C 80.2,95.94 80,95.68 79.34,95.68 C 78.68,95.68 78.49,95.94 77.81,96.85 C 76.43,98.86 74.71,99.97 72.93,100 C 71.14,99.99 69.42,98.88 68.05,96.85 C 67.37,95.94 67.17,95.68 66.49,95.68 C 65.81,95.68 65.63,95.94 64.95,96.85 C 63.56,98.88 61.81,100 60,100 C 58.19,100 56.44,98.88 55.05,96.85 C 54.34,95.94 54.17,95.68 53.49,95.68 C 52.8,95.68 52.63,95.94 51.95,96.85 C 50.55,98.88 48.8,100 46.99,100 C 45.18,100 43.42,98.88 42.02,96.85 C 41.34,95.94 41.15,95.68 40.49,95.68 C 39.83,95.68 39.64,95.94 38.95,96.85 C 37.58,98.86 35.86,99.97 34.07,100 C 32.29,99.99 30.56,98.88 29.2,96.85 C 28.51,95.94 28.32,95.68 27.63,95.68 C 26.95,95.68 26.78,95.94 26.1,96.85 C 24.7,98.88 22.95,100 21.15,100 C 19.34,100 17.59,98.88 16.2,96.85 C 15.49,95.94 15.32,95.68 14.63,95.68 C 13.95,95.68 13.78,95.94 13.1,96.85 C 11.73,98.88 10,99.99 8.22,100 C 6.44,99.99 4.71,98.87 3.34,96.85 C 2.66,95.94 2.49,95.68 1.81,95.68 L 0 95.68 L 0 74.09 L 1.22 74.09 C 3,74.07 4.72,75.16 6.1,77.16 C 6.29,77.54 6.54,77.84 6.81,78.04 C 7.08,78.24 7.37,78.34 7.66,78.32 C 8.32,78.32 8.51,78.06 9.2,77.2 C 10.55,75.14 12.28,74 14.07,74 C 15.86,74 17.59,75.12 18.95,77.16 C 19.66,78.06 19.83,78.32 20.51,78.32 C 21.2,78.32 21.37,78.06 22.05,77.2 C 22.33,76.78 22.63,76.41 22.95,76.08 L 22.95 66.93 L 0 66.93 L 0 45.34 L 3.24 45.34 C 18.29,45.34 23.17,15.33 23.17,5.01 L 23.17 0 L 28.85 0 L 28.85 5.01 C 28.95,13.56 30.36,21.9 32.93,29.14 C 34.81,34.2 37.42,38.29 40.48,41.01 C 43.54,43.72 46.95,44.96 50.37,44.6 C 53.77,44.87 57.15,43.52 60.15,40.68 C 63.16,37.84 65.68,33.61 67.44,28.45 C 69.85,21.35 71.2,13.29 71.37,5.01 L 71.37 0 L 77.07 0 L 77.07 5.01 C 77.07,15.33 81.95,45.34 96.98,45.34 L 100 45.34 L 100 66.93 L 77.24 66.93 L 77.24 74.57 C 78.43,74 79.67,73.95 80.87,74.4 C 82.07,74.85 83.19,75.79 84.15,77.16 C 84.83,78.06 85.02,78.32 85.68,78.32 C 85.99,78.34 86.29,78.25 86.57,78.05 C 86.85,77.85 87.11,77.54 87.32,77.16 C 88.68,75.09 90.41,73.96 92.2,73.96 C 93.98,73.96 95.71,75.08 97.07,77.11 C 97.78,78.02 97.95,78.28 98.63,78.28 L 99.85 78.28 L 99.85 99.87 L 98.78 100 L 98.78 100" fill="#FFFFFF" stroke="none" stroke-width="0.5"/>
  </g>
  <g transform="translate(8.00,25.00) scale(0.8400,0.4800)">
    <path d="M 75.4 4.13 L 75.4 6.86 C 75.4,17.27 80.48,47.5 96.02,47.5 L 97.62 47.5 L 97.62 64.03 L 75.4 64.03 L 75.4 76.42 C 76.36,75.44 77.46,74.95 78.57,75.02 C 80.08,75.01 81.54,75.93 82.69,77.62 C 83.29,78.6 84.09,79.14 84.92,79.14 C 85.74,79.14 86.54,78.6 87.14,77.62 C 88.3,75.93 89.75,75.01 91.26,75.02 C 92.78,75.01 94.24,75.93 95.4,77.62 C 96,78.62 96.79,79.17 97.62,79.15 L 97.62 95.67 C 96.11,95.71 94.64,94.78 93.5,93.07 C 92.9,92.07 92.1,91.52 91.26,91.54 C 90.44,91.52 89.64,92.07 89.05,93.07 C 87.89,94.75 86.43,95.68 84.92,95.68 C 83.41,95.68 81.94,94.75 80.79,93.07 C 80.19,92.07 79.4,91.52 78.57,91.54 C 77.74,91.52 76.94,92.07 76.33,93.07 C 75.18,94.75 73.72,95.67 72.21,95.67 C 70.71,95.67 69.25,94.75 68.1,93.07 C 67.49,92.09 66.7,91.54 65.87,91.54 C 65.04,91.54 64.25,92.09 63.64,93.07 C 62.5,94.78 61.03,95.7 59.52,95.67 C 58.01,95.7 56.54,94.77 55.38,93.07 C 54.78,92.08 53.99,91.53 53.17,91.53 C 52.34,91.53 51.55,92.08 50.95,93.07 C 49.8,94.75 48.33,95.68 46.82,95.68 C 45.31,95.68 43.85,94.75 42.69,93.07 C 42.1,92.07 41.3,91.52 40.48,91.54 C 39.64,91.52 38.84,92.07 38.24,93.07 C 37.08,94.75 35.63,95.67 34.12,95.67 C 32.61,95.67 31.15,94.75 30,93.07 C 29.4,92.09 28.6,91.54 27.77,91.54 C 26.95,91.54 26.15,92.09 25.55,93.07 C 24.39,94.75 22.94,95.67 21.43,95.67 C 19.92,95.67 18.46,94.75 17.31,93.07 C 16.71,92.07 15.9,91.52 15.07,91.54 C 14.25,91.52 13.45,92.07 12.86,93.07 C 11.71,94.77 10.25,95.69 8.74,95.67 C 7.22,95.7 5.75,94.77 4.6,93.07 C 4,92.07 3.21,91.52 2.38,91.54 L 2.38 75.02 C 3.89,75 5.35,75.92 6.5,77.62 C 7.1,78.6 7.9,79.14 8.73,79.14 C 9.55,79.14 10.35,78.6 10.95,77.62 C 12.1,75.93 13.56,75.01 15.07,75.02 C 16.59,75.01 18.05,75.93 19.21,77.62 C 19.51,78.12 19.85,78.51 20.23,78.77 C 20.61,79.03 21.02,79.16 21.43,79.15 C 22.25,79.17 23.05,78.62 23.64,77.62 C 24.07,77.06 24.52,76.56 25,76.13 L 25 64.03 L 2.38 64.03 L 2.38 47.5 L 4.36 47.5 C 19.93,47.5 25,17.27 25,6.86 L 25 4.13 L 28.17 4.13 L 28.17 6.86 C 28.29,15.45 29.75,23.83 32.38,31.11 C 34.32,36.27 37,40.45 40.16,43.24 C 43.33,46.02 46.86,47.31 50.4,46.97 C 53.96,47.28 57.49,45.91 60.62,42.99 C 63.76,40.08 66.37,35.74 68.19,30.44 C 70.67,23.33 72.05,15.24 72.21,6.94 L 72.21 4.21 L 75.4 4.21 M 77.79 0.08 L 69.83 0.08 L 69.83 6.94 C 69.65,14.48 68.39,21.82 66.17,28.3 C 64.56,33 62.24,36.84 59.46,39.41 C 56.68,41.97 53.55,43.16 50.4,42.84 C 47.27,43.21 44.13,42.13 41.31,39.7 C 38.49,37.27 36.1,33.57 34.38,29 C 31.98,22.41 30.65,14.82 30.55,7.02 L 30.55 0 L 22.62 0 L 22.62 6.86 C 22.62,16.23 18.12,43.37 4.36,43.37 L 0 43.37 L 0 68.16 L 22.62 68.16 L 22.62 73.82 L 22.21 74.31 C 21.69,75.02 21.69,75.02 21.43,75.02 C 21.17,75.02 21.17,75.02 20.64,74.36 C 19.08,72.12 17.11,70.9 15.08,70.9 C 13.06,70.9 11.09,72.12 9.52,74.36 C 9,75.06 9,75.06 8.74,75.06 C 8.48,75.06 8.48,75.06 7.93,74.4 C 6.38,72.1 4.41,70.85 2.38,70.89 L 0 70.89 L 0 95.67 L 2.38 95.67 C 2.64,95.67 2.64,95.67 3.17,96.37 C 4.73,98.62 6.71,99.83 8.74,99.8 C 10.75,99.87 12.71,98.72 14.29,96.54 C 14.81,95.84 14.81,95.84 15.07,95.84 C 15.33,95.84 15.33,95.84 15.86,96.54 C 17.44,98.72 19.41,99.87 21.43,99.8 C 23.44,99.88 25.41,98.72 26.98,96.54 C 27.5,95.84 27.5,95.84 27.76,95.84 C 28.02,95.84 28.05,95.84 28.57,96.54 C 30.14,98.75 32.1,99.96 34.12,99.96 C 36.14,99.96 38.1,98.75 39.67,96.54 C 40.21,95.84 40.21,95.84 40.48,95.84 C 40.74,95.84 40.74,95.84 41.26,96.54 C 42.83,98.76 44.8,99.97 46.82,99.97 C 48.85,99.97 50.81,98.76 52.38,96.54 C 52.9,95.84 52.9,95.84 53.17,95.84 C 53.43,95.84 53.43,95.84 53.95,96.54 C 55.52,98.76 57.49,99.97 59.51,99.97 C 61.54,99.97 63.5,98.76 65.07,96.54 C 65.6,95.84 65.6,95.84 65.86,95.84 C 66.12,95.84 66.12,95.84 66.67,96.54 C 68.23,98.75 70.19,99.96 72.21,99.96 C 74.24,99.96 76.19,98.75 77.76,96.54 C 78.31,95.84 78.31,95.84 78.57,95.84 C 78.83,95.84 78.83,95.84 79.36,96.54 C 80.93,98.76 82.89,99.97 84.92,99.97 C 86.94,99.97 88.91,98.76 90.48,96.54 C 91,95.84 91,95.84 91.26,95.84 C 91.52,95.84 91.52,95.84 92.07,96.54 C 93.63,98.79 95.59,100 97.62,99.97 L 100 99.97 L 100 75.18 L 97.62 75.18 C 97.36,75.18 97.36,75.18 96.83,74.52 C 95.27,72.29 93.3,71.07 91.27,71.07 C 89.25,71.07 87.28,72.29 85.71,74.52 C 85.19,75.22 85.19,75.22 84.91,75.22 C 84.62,75.22 84.64,75.22 84.12,74.56 C 82.59,72.21 80.62,70.91 78.57,70.89 L 77.79 70.89 L 77.79 68.12 L 100 68.12 L 100 43.33 L 96.02 43.33 C 82.26,43.33 77.79,16.19 77.79,6.82 L 77.79 0 L 77.79 0.08 L 77.79 0.08" fill="#FFFFFF" stroke="none" stroke-width="0.5"/>
  </g>
  <g transform="translate(34.00,1.00) scale(0.3100,0.3100)">
    <path d="M 50.23 100 L 47.01 100 C 33.92,99.13 21.71,93.05 13.05,83.1 C 4.4,73.14 0,60.13 0.83,46.9 C 1.59,34.22 7.11,22.3 16.26,13.58 C 25.42,4.87 37.53,0.01 50.11,0 L 53.33 0 C 59.82,0.41 66.17,2.12 72.02,5.02 C 77.86,7.91 83.08,11.95 87.37,16.89 C 91.67,21.82 94.96,27.57 97.05,33.79 C 99.14,40.02 100,46.6 99.57,53.16 C 98.77,65.83 93.22,77.73 84.06,86.43 C 74.9,95.12 62.81,99.98 50.23,100 L 50.23 100" fill="#FFFFFF" stroke="none" stroke-width="0.5"/>
  </g>
  <g transform="translate(33.00,0.00) scale(0.3400,0.3300)">
    <path d="M 49.76 5.99 C 50.7,5.93 51.64,5.93 52.58,5.99 C 63.85,6.58 74.43,11.65 82.08,20.11 C 89.72,28.57 93.8,39.75 93.44,51.25 C 93.09,62.74 88.33,73.64 80.18,81.6 C 72.04,89.55 61.16,93.93 49.88,93.79 L 47.12 93.79 C 38.61,93.25 30.46,90.14 23.68,84.86 C 16.91,79.59 11.82,72.38 9.06,64.15 C 6.31,55.93 6.01,47.05 8.2,38.65 C 10.39,30.25 14.98,22.7 21.38,16.96 C 29.21,9.89 39.31,5.98 49.76,5.99 L 49.76 5.99 M 49.76 0 C 40.35,0.01 31.13,2.79 23.22,8 C 15.32,13.22 9.05,20.65 5.18,29.4 C 1.31,38.16 0,47.87 1.4,57.36 C 2.81,66.86 6.87,75.74 13.1,82.95 C 17.33,87.88 22.47,91.92 28.24,94.81 C 34.02,97.7 40.29,99.39 46.71,99.79 L 49.88 99.79 C 62.73,100 75.15,95.05 84.45,86 C 93.76,76.95 99.19,64.53 99.6,51.43 C 100,38.32 95.33,25.59 86.6,15.96 C 77.87,6.34 65.78,0.61 52.94,0 L 49.76 0 L 49.76 0" fill="#FFFFFF" stroke="none" stroke-width="0.5"/>
  </g>
  <g transform="translate(10.00,54.00) scale(0.8000,0.1200)">
    <path d="M 0 20.98 L 23.75 20.98 L 23.75 67.36 C 23.25,69 22.77,70.9 22.32,73.04 C 21.7,76.85 20.87,78.95 20,78.88 C 19.57,78.93 19.14,78.44 18.74,77.44 C 18.34,76.44 17.98,74.95 17.67,73.04 C 16.46,66.6 14.92,63.08 13.32,63.1 C 11.74,63.08 10.21,66.6 9,73.04 C 8.37,76.78 7.53,78.86 6.66,78.86 C 5.79,78.86 4.96,76.78 4.32,73.04 C 3.12,66.56 1.58,63.04 0,63.1 L 0 84.09 C 0.87,84.02 1.7,86.11 2.32,89.92 C 3.54,96.44 5.08,99.97 6.67,99.86 C 8.26,99.94 9.8,96.41 11,89.92 C 11.62,86.11 12.46,84.02 13.32,84.09 C 14.2,84.01 15.04,86.1 15.68,89.92 C 16.89,96.34 18.42,99.86 20,99.86 C 21.58,99.86 23.11,96.34 24.32,89.92 C 24.96,86.19 25.79,84.11 26.66,84.11 C 27.53,84.11 28.37,86.19 29,89.92 C 30.21,96.34 31.74,99.86 33.32,99.86 C 34.91,99.86 36.44,96.34 37.65,89.92 C 38.28,86.1 39.13,84.01 40,84.09 C 40.87,84.02 41.7,86.11 42.32,89.92 C 43.53,96.44 45.06,99.98 46.65,99.86 C 48.24,99.97 49.79,96.44 51,89.92 C 51.63,86.16 52.46,84.06 53.32,84.06 C 54.19,84.06 55.02,86.16 55.65,89.92 C 56.86,96.44 58.41,99.97 60,99.86 C 61.59,99.98 63.12,96.44 64.32,89.92 C 64.96,86.19 65.79,84.11 66.66,84.11 C 67.53,84.11 68.37,86.19 69,89.92 C 70.21,96.34 71.74,99.86 73.32,99.86 C 74.91,99.86 76.44,96.34 77.65,89.92 C 78.28,86.1 79.13,84.01 80,84.09 C 80.87,84.02 81.7,86.11 82.33,89.92 C 83.54,96.36 85.08,99.88 86.66,99.88 C 88.25,99.88 89.78,96.36 91,89.92 C 91.62,86.11 92.46,84.02 93.33,84.09 C 94.2,84.01 95.04,86.1 95.68,89.92 C 96.87,96.46 98.41,100 100,99.86 L 100 78.88 C 99.13,78.95 98.3,76.85 97.68,73.04 C 96.46,66.6 94.92,63.08 93.33,63.1 C 91.74,63.08 90.21,66.6 89,73.04 C 88.37,76.78 87.53,78.86 86.66,78.86 C 85.79,78.86 84.96,76.78 84.32,73.04 C 83.12,66.6 81.58,63.08 80,63.1 C 78.83,62.95 77.67,64.92 76.68,68.78 L 76.68 21.46 L 100 21.46 L 100 0 L 0 0 L 0 20.98 L 0 20.98 M 73.32 78.88 C 72.46,78.95 71.62,76.85 71,73.04 C 69.78,66.61 68.25,63.09 66.66,63.09 C 65.08,63.09 63.54,66.61 62.32,73.04 C 61.7,76.85 60.87,78.95 60,78.88 C 59.13,78.96 58.28,76.86 57.65,73.04 C 56.44,66.62 54.91,63.1 53.32,63.1 C 51.74,63.1 50.21,66.62 49,73.04 C 48.37,76.78 47.53,78.86 46.66,78.86 C 45.79,78.86 44.96,76.78 44.32,73.04 C 43.12,66.6 41.58,63.08 40,63.1 C 38.41,63.08 36.87,66.6 35.65,73.04 C 35.34,74.95 34.98,76.44 34.58,77.44 C 34.18,78.44 33.76,78.93 33.32,78.88 C 32.46,78.95 31.62,76.85 31,73.04 C 29.89,67.23 28.51,63.8 27.07,63.26 L 27.07 20.98 L 73.32 20.98 L 73.32 78.88 L 73.32 78.88" fill="#2c5967" stroke="none" stroke-width="0.5"/>
  </g>
  <g transform="translate(10.00,27.00) scale(0.8000,0.2300)">
    <path d="M 100 88.39 L 98.33 88.39 C 82,88.39 76.68,26.85 76.68,5.64 L 76.68 0 L 73.32 0 L 73.32 5.64 C 73.16,22.62 71.71,39.17 69.1,53.7 C 67.19,64.5 64.44,73.34 61.15,79.28 C 57.86,85.21 54.15,88.01 50.43,87.37 C 46.71,88.1 43.01,85.53 39.69,79.92 C 36.37,74.3 33.54,65.84 31.5,55.39 C 28.73,40.55 27.2,23.49 27.07,5.98 L 27.07 0.34 L 23.75 0.34 L 23.75 5.98 C 23.75,27.19 18.42,88.72 2.08,88.72 L 0 88.72 L 0 100 L 100 100 L 100 88.39 L 100 88.39 M 71.95 59.43 C 72.46,56.71 72.92,53.9 73.32,51.01 L 73.32 88.55 L 62.93 88.55 C 66.65,81.72 69.77,71.66 71.95,59.43 L 71.95 59.43 M 28.7 61.2 C 30.89,72.64 33.92,82.01 37.5,88.39 L 27.07 88.39 L 27.07 51.52 C 27.5,54.8 28.1,58 28.7,61.2 L 28.7 61.2 M 21.72 62.12 C 22.47,58.14 23.15,54.01 23.75,49.75 L 23.75 88.72 L 13.95 88.72 C 17.09,81.88 19.74,72.8 21.72,62.12 L 21.72 62.12 M 76.73 88.72 L 76.73 49.41 C 77.29,53.81 77.95,58.06 78.7,62.12 C 80.67,72.79 83.32,81.87 86.45,88.72 L 76.73 88.72 L 76.73 88.72" fill="#2c5967" stroke="none" stroke-width="0.5"/>
  </g>
  <g transform="translate(10.00,67.00) scale(0.8000,0.0400)">
    <path d="M 93.33 0.38 C 91.74,0.09 90.2,9.62 89,27.21 C 88.37,37.3 87.53,42.91 86.66,42.91 C 85.79,42.91 84.96,37.3 84.32,27.21 C 83.12,9.62 81.59,0.09 80,0.38 C 78.41,0.09 76.86,9.62 75.65,27.21 C 75.02,37.37 74.19,43.05 73.32,43.05 C 72.46,43.05 71.63,37.37 71,27.21 C 69.78,9.86 68.25,0.34 66.66,0.34 C 65.08,0.34 63.54,9.86 62.32,27.21 C 61.7,37.5 60.87,43.18 60,42.98 C 59.13,43.2 58.28,37.52 57.65,27.21 C 56.44,9.88 54.91,0.38 53.32,0.38 C 51.74,0.38 50.21,9.88 49,27.21 C 48.37,37.3 47.53,42.91 46.66,42.91 C 45.79,42.91 44.96,37.3 44.32,27.21 C 43.12,9.62 41.59,0.09 40,0.38 C 38.41,0.09 36.86,9.62 35.65,27.21 C 35.34,32.36 34.98,36.38 34.58,39.09 C 34.18,41.79 33.76,43.11 33.32,42.98 C 32.46,43.18 31.62,37.5 31,27.21 C 29.78,9.86 28.25,0.34 26.66,0.34 C 25.08,0.34 23.54,9.86 22.32,27.21 C 21.7,37.5 20.87,43.18 20,42.98 C 19.57,43.11 19.14,41.79 18.74,39.09 C 18.34,36.38 17.98,32.36 17.67,27.21 C 16.46,9.62 14.92,0.09 13.32,0.38 C 11.74,0.09 10.2,9.62 9,27.21 C 8.37,37.3 7.53,42.91 6.66,42.91 C 5.79,42.91 4.96,37.3 4.32,27.21 C 3.13,9.55 1.59,0 0,0.38 L 0 57.04 C 0.87,56.84 1.7,62.5 2.32,72.79 C 3.54,90.38 5.08,99.91 6.67,99.62 C 8.26,99.84 9.8,90.32 11,72.79 C 11.62,62.5 12.46,56.84 13.32,57.04 C 14.2,56.82 15.04,62.48 15.68,72.79 C 16.89,90.14 18.42,99.64 20,99.64 C 21.58,99.64 23.11,90.14 24.32,72.79 C 24.96,62.7 25.79,57.09 26.66,57.09 C 27.53,57.09 28.37,62.7 29,72.79 C 30.21,90.14 31.74,99.64 33.32,99.64 C 34.91,99.64 36.44,90.14 37.65,72.79 C 38.28,62.48 39.13,56.82 40,57.04 C 40.87,56.84 41.7,62.5 42.32,72.79 C 43.53,90.38 45.06,99.93 46.65,99.62 C 48.24,99.91 49.79,90.38 51,72.79 C 51.63,62.63 52.46,56.98 53.32,56.98 C 54.19,56.98 55.02,62.63 55.65,72.79 C 56.86,90.38 58.41,99.91 60,99.62 C 61.59,99.93 63.12,90.38 64.32,72.79 C 64.96,62.7 65.79,57.09 66.66,57.09 C 67.53,57.09 68.37,62.7 69,72.79 C 70.21,90.14 71.74,99.64 73.32,99.64 C 74.91,99.64 76.44,90.14 77.65,72.79 C 78.28,62.48 79.13,56.82 80,57.04 C 80.87,56.84 81.7,62.5 82.33,72.79 C 83.54,90.16 85.08,99.69 86.66,99.69 C 88.25,99.69 89.78,90.16 91,72.79 C 91.62,62.5 92.46,56.84 93.33,57.04 C 94.2,56.82 95.04,62.48 95.68,72.79 C 96.87,90.45 98.41,100 100,99.62 L 100 42.98 C 99.13,43.18 98.3,37.5 97.68,27.21 C 96.46,9.62 94.92,0.09 93.33,0.38 L 93.33 0.38" fill="#2c5967" stroke="none" stroke-width="0.5"/>
  </g>
  <g transform="translate(35.00,1.00) scale(0.2900,0.2900)">
    <path d="M 47.36 100 L 50.58 100 C 63.42,99.69 75.66,94.51 84.77,85.53 C 93.89,76.54 99.19,64.43 99.59,51.69 C 100,38.94 95.47,26.53 86.94,16.99 C 78.41,7.46 66.53,1.52 53.73,0.42 C 47.15,0 40.55,0.88 34.3,2.99 C 28.06,5.11 22.3,8.43 17.35,12.75 C 12.4,17.08 8.36,22.33 5.45,28.21 C 2.55,34.09 0.83,40.48 0.42,47.01 C 0,53.55 0.88,60.1 3.01,66.29 C 5.15,72.49 8.49,78.21 12.85,83.12 C 17.21,88.04 22.5,92.05 28.42,94.93 C 34.34,97.82 40.78,99.52 47.36,99.93 L 47.36 100 L 47.36 100 M 77.9 32.02 C 75.75,29.53 72.83,27.82 69.61,27.14 C 66.37,26.47 63.01,26.87 60.03,28.29 L 50.99 32.77 L 53.59 37.94 L 45.78 41.81 L 48.73 47.59 L 56.81 43.78 L 59.41 48.95 L 51.67 52.82 L 54.21 57.99 L 62.01 54.12 L 64.96 59.89 L 74 55.41 C 76.65,53.96 78.81,51.77 80.22,49.11 C 81.61,46.45 82.19,43.44 81.87,40.45 L 89.55 36.51 C 91.73,42.65 92.4,49.23 91.51,55.68 C 90.61,62.13 88.17,68.28 84.39,73.61 C 80.6,78.93 75.59,83.28 69.77,86.29 C 63.95,89.29 57.48,90.87 50.92,90.89 L 47.91 90.89 C 41.43,90.51 35.14,88.61 29.55,85.35 C 23.95,82.09 19.21,77.56 15.72,72.13 L 25.11 67.64 C 26.74,69.44 28.78,70.81 31.06,71.65 C 34.82,72.84 38.89,72.55 42.43,70.84 L 52.77 65.67 L 49.96 59.89 L 41.54 64.04 L 38.94 58.94 L 47.43 54.8 L 44.82 49.7 L 36.26 53.78 L 33.46 48 L 41.88 43.78 L 39.28 38.69 L 28.87 43.85 C 26.11,45.34 23.89,47.65 22.51,50.45 C 21.14,53.25 20.68,56.41 21.2,59.49 L 11.89 63.97 C 10.01,58.86 9.22,53.43 9.56,48 C 10.22,37.63 14.84,27.91 22.48,20.81 C 30.11,13.72 40.19,9.77 50.65,9.8 L 53.38 9.8 C 59.83,10.22 66.09,12.14 71.64,15.41 C 77.2,18.69 81.9,23.21 85.37,28.62 L 77.9 32.02 L 77.9 32.02" fill="#2c5967" stroke="none" stroke-width="0.5"/>
  </g>
</svg>