<svg xmlns="http://www.w3.org/2000/svg" viewBox="0 0 84.0 119.00000000000027" width="84" height="119">
  <g transform="translate(7.00,26.00) scale(0.8200,0.4600)">
    <path d="M 98.78 100 C 96.99,99.99 95.26,98.88 93.91,96.85 C 93.19,95.9 93.02,95.68 92.34,95.68 C 91.65,95.68 91.49,95.94 90.81,96.85 C 89.4,98.89 87.64,100 85.84,100 C 84.03,100 82.28,98.89 80.87,96.85 C 80.19,95.9 80,95.68 79.33,95.68 C 78.68,95.68 78.49,95.68 77.8,96.81 C 76.41,98.86 74.65,99.98 72.84,99.98 C 71.02,99.98 69.27,98.86 67.87,96.81 C 67.2,95.9 67,95.64 66.31,95.64 C 65.63,95.64 65.47,95.9 64.78,96.81 C 63.38,98.84 61.64,99.95 59.83,99.95 C 58.02,99.95 56.27,98.84 54.88,96.81 C 54.17,95.9 53.99,95.64 53.32,95.64 C 52.64,95.64 52.46,95.64 51.78,96.76 C 50.42,98.82 48.69,99.96 46.9,99.95 C 45.12,99.95 43.39,98.84 42.02,96.81 C 41.34,95.9 41.15,95.64 40.49,95.64 C 39.83,95.64 39.63,95.64 38.95,96.76 C 37.55,98.81 35.8,99.94 33.99,99.94 C 32.18,99.94 30.42,98.81 29.03,96.76 C 28.35,95.86 28.14,95.6 27.46,95.6 C 26.79,95.6 26.61,95.86 25.93,96.72 C 24.57,98.78 22.84,99.91 21.05,99.91 C 19.27,99.91 17.54,98.8 16.17,96.76 C 15.47,95.86 15.3,95.6 14.61,95.6 C 13.93,95.6 13.76,95.86 13.07,96.72 C 11.72,98.78 9.99,99.91 8.19,99.91 C 6.41,99.9 4.69,98.79 3.32,96.76 C 2.64,95.81 2.47,95.6 1.78,95.6 L 0 95.6 L 0 74.02 L 1.22 74.02 C 3.01,74.02 4.74,75.14 6.09,77.17 C 6.79,78.07 6.98,78.33 7.66,78.33 C 8.35,78.33 8.51,78.07 9.19,77.17 C 10.59,75.13 12.34,74.02 14.15,74.02 C 15.95,74.02 17.71,75.13 19.1,77.17 C 19.81,78.07 19.97,78.33 20.67,78.33 C 21.34,78.33 21.51,78.07 22.2,77.17 L 23.1 76.05 L 23.1 66.9 L 0 66.9 L 0 45.32 L 3.25 45.32 C 18.3,45.32 23.18,15.36 23.18,5.05 L 23.18 0 L 28.86 0 L 28.86 5.05 C 28.95,13.6 30.36,21.94 32.93,29.18 C 34.81,34.22 37.43,38.3 40.49,41.01 C 43.55,43.71 46.95,44.94 50.37,44.58 C 53.76,44.87 57.14,43.52 60.15,40.69 C 63.16,37.85 65.67,33.64 67.44,28.48 C 69.85,21.38 71.19,13.32 71.37,5.05 L 71.37 0 L 77.07 0 L 77.07 5.05 C 77.07,15.36 81.95,45.32 96.98,45.32 L 100 45.32 L 100 66.9 L 77.25 66.9 L 77.25 74.53 C 78.44,74 79.71,73.96 80.91,74.43 C 82.13,74.9 83.25,75.87 84.21,77.25 C 84.9,78.16 85.1,78.42 85.77,78.42 C 86.47,78.42 86.63,78.16 87.31,77.25 C 88.71,75.22 90.46,74.11 92.27,74.11 C 94.07,74.11 95.83,75.22 97.22,77.25 C 97.93,78.16 98.09,78.42 98.78,78.42 L 100 78.42 L 100 100 L 98.78 100 L 98.78 100" fill="#FFFFFF" stroke="none" stroke-width="0.5"/>
  </g>
  <g transform="translate(6.00,25.00) scale(0.8400,0.4800)">
    <path d="M 75.4 4.21 L 75.4 6.97 C 75.4,17.37 80.48,47.52 96.02,47.52 L 97.62 47.52 L 97.62 64.02 L 75.4 64.02 L 75.4 76.4 C 76.37,75.49 77.47,75.08 78.57,75.2 C 80.07,75.18 81.55,76.1 82.69,77.8 C 83.3,78.78 84.09,79.33 84.91,79.33 C 85.74,79.33 86.54,78.78 87.14,77.8 C 88.29,76.1 89.75,75.18 91.26,75.2 C 92.78,75.18 94.25,76.1 95.4,77.8 C 96,78.8 96.79,79.35 97.62,79.33 L 97.62 95.83 C 96.11,95.85 94.65,94.93 93.5,93.23 C 92.9,92.23 92.1,91.69 91.26,91.71 C 90.44,91.69 89.64,92.24 89.05,93.23 C 87.89,94.91 86.43,95.84 84.91,95.84 C 83.4,95.84 81.94,94.91 80.79,93.23 C 80.19,92.24 79.4,91.69 78.57,91.71 C 77.74,91.69 76.94,92.23 76.34,93.23 C 75.18,94.91 73.72,95.83 72.21,95.83 C 70.71,95.83 69.25,94.91 68.1,93.23 C 67.49,92.26 66.7,91.71 65.88,91.71 C 65.04,91.71 64.25,92.26 63.64,93.23 C 62.49,94.92 61.02,95.84 59.52,95.83 C 58.01,95.84 56.54,94.92 55.38,93.23 C 54.79,92.25 53.99,91.7 53.16,91.7 C 52.34,91.7 51.55,92.25 50.95,93.23 C 49.79,94.92 48.33,95.84 46.81,95.83 C 45.3,95.84 43.84,94.92 42.69,93.23 C 42.1,92.24 41.3,91.69 40.48,91.71 C 39.64,91.69 38.84,92.23 38.24,93.23 C 37.09,94.91 35.63,95.83 34.12,95.83 C 32.61,95.83 31.15,94.91 30,93.23 C 29.4,92.26 28.6,91.71 27.77,91.71 C 26.95,91.71 26.15,92.26 25.55,93.23 C 24.4,94.91 22.94,95.83 21.43,95.83 C 19.93,95.83 18.46,94.91 17.31,93.23 C 16.71,92.23 15.9,91.69 15.07,91.71 C 14.25,91.69 13.45,92.24 12.86,93.23 C 11.7,94.91 10.24,95.84 8.72,95.84 C 7.21,95.84 5.75,94.91 4.6,93.23 C 4,92.24 3.21,91.69 2.37,91.71 L 2.37 75.2 C 3.89,75.17 5.36,76.09 6.5,77.8 C 7.1,78.78 7.9,79.33 8.72,79.33 C 9.55,79.33 10.35,78.78 10.95,77.8 C 12.1,76.1 13.56,75.18 15.07,75.2 C 16.59,75.18 18.06,76.1 19.21,77.8 C 19.5,78.3 19.85,78.69 20.24,78.95 C 20.61,79.22 21.02,79.34 21.43,79.33 C 22.25,79.35 23.05,78.8 23.64,77.8 C 24.07,77.24 24.52,76.73 25,76.28 L 25 64.02 L 2.37 64.02 L 2.37 47.52 L 4.36 47.52 C 19.93,47.52 25,17.37 25,6.97 L 25 4.21 L 28.16 4.21 L 28.16 6.97 C 28.29,15.54 29.74,23.89 32.38,31.15 C 34.32,36.28 37.01,40.44 40.18,43.2 C 43.34,45.96 46.86,47.23 50.4,46.86 C 53.95,47.18 57.49,45.8 60.62,42.9 C 63.75,39.99 66.37,35.65 68.19,30.36 C 70.66,23.26 72.05,15.18 72.21,6.89 L 72.21 4.13 L 75.4 4.13 M 77.79 0 L 69.84 0 L 69.84 6.89 C 69.66,14.4 68.4,21.72 66.16,28.18 C 64.56,32.87 62.24,36.7 59.46,39.25 C 56.67,41.81 53.55,42.99 50.4,42.66 C 47.26,43.03 44.13,41.95 41.31,39.52 C 38.49,37.09 36.1,33.4 34.37,28.84 C 31.97,22.26 30.65,14.67 30.55,6.89 L 30.55 0.08 L 22.62 0.08 L 22.62 6.97 C 22.62,16.3 18.12,43.4 4.36,43.4 L 0 43.4 L 0 68.15 L 22.62 68.15 L 22.62 73.84 L 22.21 74.34 C 21.69,75.2 21.69,75.2 21.43,75.2 C 21.16,75.2 21.16,75.2 20.64,74.5 C 19.07,72.29 17.11,71.08 15.09,71.08 C 13.06,71.08 11.1,72.29 9.52,74.5 C 9,75.2 9,75.2 8.74,75.2 C 8.47,75.2 8.47,75.2 7.92,74.5 C 6.37,72.26 4.4,71.05 2.37,71.08 L 0 71.08 L 0 95.83 L 2.37 95.83 C 2.64,95.83 2.64,95.83 3.16,96.49 C 4.72,98.77 6.7,100 8.74,99.96 C 10.77,99.94 12.74,98.66 14.29,96.37 C 14.81,95.67 14.81,95.67 15.07,95.67 C 15.34,95.67 15.34,95.67 15.86,96.33 C 17.42,98.56 19.39,99.77 21.41,99.77 C 23.45,99.77 25.41,98.56 26.97,96.33 C 27.5,95.63 27.5,95.63 27.76,95.63 C 28.03,95.63 28.05,95.63 28.57,96.33 C 30.14,98.54 32.1,99.74 34.12,99.74 C 36.14,99.74 38.1,98.54 39.66,96.33 C 40.21,95.63 40.21,95.63 40.48,95.63 C 40.74,95.63 40.74,95.63 41.26,96.33 C 42.84,98.54 44.8,99.75 46.83,99.75 C 48.85,99.75 50.81,98.54 52.38,96.33 C 52.9,95.63 52.9,95.63 53.16,95.63 C 53.43,95.63 53.43,95.63 53.95,96.29 C 55.53,98.51 57.49,99.73 59.51,99.73 C 61.54,99.73 63.5,98.51 65.07,96.29 C 65.6,95.58 65.6,95.58 65.86,95.58 C 66.13,95.58 66.13,95.58 66.66,96.29 C 68.24,98.5 70.19,99.7 72.21,99.7 C 74.24,99.7 76.2,98.5 77.76,96.29 C 78.31,95.58 78.31,95.58 78.57,95.58 C 78.84,95.58 78.84,95.58 79.36,96.29 C 80.93,98.5 82.89,99.71 84.91,99.71 C 86.94,99.71 88.9,98.5 90.48,96.29 C 91,95.58 91,95.58 91.26,95.58 C 91.52,95.58 91.52,95.58 92.07,96.29 C 93.61,98.62 95.58,99.92 97.62,99.96 L 100 99.96 L 100 75.2 L 97.62 75.2 C 97.36,75.2 97.36,75.2 96.84,74.5 C 95.26,72.29 93.3,71.08 91.27,71.08 C 89.25,71.08 87.29,72.29 85.71,74.5 C 85.19,75.2 85.19,75.2 84.9,75.2 C 84.63,75.2 84.64,75.2 84.12,74.5 C 82.56,72.26 80.6,71.05 78.57,71.08 L 77.79 71.08 L 77.79 68.27 L 100 68.27 L 100 43.52 L 96.02 43.52 C 82.26,43.52 77.79,16.42 77.79,7.1 L 77.79 0.08 L 77.79 0 L 77.79 0" fill="#FFFFFF" stroke="none" stroke-width="0.5"/>
  </g>
  <g transform="translate(30.00,1.00) scale(0.3500,0.3100)">
    <path d="M 20.97 100 L 20.97 90.46 L 30.72 84.91 L 32.79 84.91 L 33.12 82.79 L 0 82.79 L 0 0 L 100 0 L 100 82.79 L 67.87 82.79 L 68.23 84.91 L 70.24 84.91 L 80.05 90.46 L 80.05 100 L 20.97 100 L 20.97 100" fill="#FFFFFF" stroke="none" stroke-width="0.5"/>
  </g>
  <g transform="translate(29.00,0.00) scale(0.3700,0.3300)">
    <path d="M 94.61 6.06 L 94.61 77.77 L 63.73 77.77 L 64.98 85.83 L 68.5 85.83 L 75.74 89.88 L 75.74 93.94 L 25.26 93.94 L 25.26 89.88 L 32.43 85.83 L 36.07 85.83 L 37.32 77.77 L 5.42 77.77 L 5.42 6.06 L 94.61 6.06 L 94.61 6.06 M 100 0 L 0 0 L 0 83.83 L 23.95 83.83 L 22.81 84.49 L 19.84 86.13 L 19.84 100 L 81.13 100 L 81.13 86.13 L 78.12 84.8 L 76.99 84.13 L 100 84.13 L 100 0 L 100 0" fill="#FFFFFF" stroke="none" stroke-width="0.5"/>
  </g>
  <g transform="translate(8.00,54.00) scale(0.8000,0.1200)">
    <path d="M 0 20.35 L 23.75 20.35 L 23.75 66.57 C 23.25,68.26 22.78,70.21 22.32,72.41 C 22.03,74.41 21.67,76.01 21.27,77.12 C 20.87,78.24 20.45,78.83 20,78.87 C 19.58,78.93 19.15,78.44 18.75,77.44 C 18.35,76.44 17.98,74.94 17.68,73.04 C 16.47,66.53 14.92,62.99 13.33,63.1 C 11.75,62.99 10.21,66.52 9,73.04 C 8.37,76.78 7.53,78.86 6.67,78.86 C 5.8,78.86 4.96,76.78 4.33,73.04 C 3.14,66.49 1.59,62.96 0,63.1 L 0 84.08 C 0.88,84.01 1.71,86.1 2.34,89.91 C 3.54,96.43 5.09,99.96 6.68,99.85 C 8.27,99.94 9.8,96.41 11.01,89.91 C 11.63,86.1 12.47,84.01 13.33,84.08 C 14.2,84 15.05,86.1 15.68,89.91 C 16.89,96.34 18.43,99.86 20,99.86 C 21.59,99.86 23.12,96.34 24.33,89.91 C 24.96,86.18 25.8,84.1 26.67,84.1 C 27.53,84.1 28.37,86.18 29,89.91 C 30.21,96.34 31.75,99.86 33.33,99.86 C 34.91,99.86 36.44,96.34 37.65,89.91 C 38.28,86.1 39.12,84 40,84.08 C 40.87,84.01 41.71,86.1 42.32,89.91 C 43.53,96.43 45.07,99.97 46.65,99.85 C 48.24,99.96 49.79,96.43 51,89.91 C 51.63,86.15 52.45,84.06 53.32,84.06 C 54.19,84.06 55.03,86.15 55.64,89.91 C 56.86,96.43 58.41,99.96 60,99.85 C 61.59,99.97 63.12,96.43 64.32,89.91 C 64.96,86.18 65.79,84.1 66.67,84.1 C 67.53,84.1 68.36,86.18 69,89.91 C 70.21,96.34 71.75,99.86 73.32,99.86 C 74.91,99.86 76.43,96.34 77.65,89.91 C 78.28,86.1 79.12,84 80,84.08 C 80.87,84.01 81.69,86.1 82.32,89.91 C 83.53,96.35 85.07,99.88 86.65,99.88 C 88.24,99.88 89.78,96.35 91,89.91 C 91.61,86.1 92.45,84.01 93.32,84.08 C 94.2,84 95.04,86.1 95.67,89.91 C 96.86,96.46 98.41,100 100,99.85 L 100 78.87 C 99.12,78.95 98.29,76.85 97.66,73.04 C 96.46,66.53 94.91,62.99 93.32,63.1 C 91.73,62.99 90.2,66.52 88.99,73.04 C 88.36,76.78 87.52,78.86 86.65,78.86 C 85.79,78.86 84.96,76.78 84.32,73.04 C 83.12,66.52 81.57,62.99 80,63.1 C 78.82,62.95 77.68,64.92 76.67,68.78 L 76.67 21.46 L 100 21.46 L 100 0 L 0 0 L 0 20.35 L 0 20.35 M 73.32 78.87 C 72.45,78.95 71.61,76.85 71,73.04 C 69.78,66.61 68.24,63.08 66.67,63.08 C 65.08,63.08 63.54,66.61 62.32,73.04 C 61.71,76.85 60.87,78.95 60,78.87 C 59.12,78.96 58.28,76.86 57.65,73.04 C 56.44,66.62 54.91,63.1 53.32,63.1 C 51.75,63.1 50.21,66.62 49,73.04 C 48.36,76.78 47.53,78.86 46.67,78.86 C 45.8,78.86 44.96,76.78 44.33,73.04 C 43.12,66.52 41.59,62.99 40,63.1 C 38.41,62.99 36.86,66.53 35.66,73.04 C 35.34,74.94 34.99,76.44 34.58,77.44 C 34.19,78.44 33.75,78.93 33.33,78.87 C 32.45,78.95 31.63,76.85 31,73.04 C 29.91,67.1 28.52,63.61 27.07,63.1 L 27.07 20.35 L 73.32 20.35 L 73.32 78.87 L 73.32 78.87" fill="#2c5967" stroke="none" stroke-width="0.5"/>
  </g>
  <g transform="translate(8.00,27.00) scale(0.8000,0.2300)">
    <path d="M 98.32 88.53 C 81.99,88.53 76.67,26.9 76.67,5.65 L 76.67 0 L 73.32 0 L 73.32 5.65 C 73.15,22.6 71.69,39.11 69.09,53.63 C 67.19,64.44 64.44,73.3 61.15,79.24 C 57.86,85.18 54.15,87.99 50.42,87.35 C 46.71,88.09 43.01,85.51 39.69,79.87 C 36.36,74.23 33.54,65.73 31.5,55.23 C 28.73,40.41 27.2,23.33 27.07,5.82 L 27.07 0.17 L 23.75 0.17 L 23.75 5.82 C 23.75,27.07 18.43,88.7 2.09,88.7 L 0 88.7 L 0 100 L 100 100 L 100 88.53 L 98.32 88.53 L 98.32 88.53 M 71.94 59.53 C 72.45,56.8 72.9,53.98 73.32,51.1 L 73.32 88.7 L 62.93 88.7 C 66.64,81.86 69.76,71.78 71.94,59.53 L 71.94 59.53 M 28.7 61.21 C 30.91,72.69 33.92,82.09 37.51,88.53 L 27.07 88.53 L 27.07 51.6 C 27.57,54.9 28.11,58.11 28.7,61.21 L 28.7 61.21 M 21.73 61.89 C 22.47,57.89 23.15,53.75 23.75,49.49 L 23.75 88.53 L 13.95 88.53 C 17.09,81.65 19.74,72.56 21.73,61.89 L 21.73 61.89 M 76.72 88.53 L 76.72 49.49 C 77.31,53.78 77.98,57.92 78.74,61.89 C 80.72,72.56 83.37,81.65 86.5,88.53 L 76.72 88.53 L 76.72 88.53" fill="#2c5967" stroke="none" stroke-width="0.5"/>
  </g>
  <g transform="translate(8.00,67.00) scale(0.8000,0.0400)">
    <path d="M 93.32 0.37 C 91.73,0.09 90.2,9.47 88.99,26.81 C 88.36,36.74 87.52,42.27 86.65,42.27 C 85.79,42.27 84.96,36.74 84.32,26.81 C 83.12,9.47 81.57,0.09 80,0.37 C 78.4,0.09 76.86,9.47 75.64,26.81 C 75.01,36.81 74.19,42.4 73.32,42.4 C 72.45,42.4 71.63,36.81 71,26.81 C 69.78,9.69 68.24,0.33 66.67,0.33 C 65.08,0.33 63.54,9.69 62.32,26.81 C 61.71,36.94 60.87,42.53 60,42.33 C 59.12,42.56 58.28,36.96 57.65,26.81 C 56.44,9.74 54.91,0.37 53.32,0.37 C 51.75,0.37 50.21,9.74 49,26.81 C 48.36,36.74 47.53,42.27 46.67,42.27 C 45.8,42.27 44.96,36.74 44.33,26.81 C 43.12,9.47 41.59,0.09 40,0.37 C 38.41,0.09 36.86,9.47 35.66,26.81 C 35.34,31.87 34.99,35.84 34.58,38.5 C 34.19,41.17 33.75,42.47 33.33,42.33 C 32.45,42.53 31.63,36.94 31,26.81 C 29.79,9.69 28.25,0.33 26.67,0.33 C 25.08,0.33 23.54,9.69 22.32,26.81 C 21.71,36.94 20.87,42.53 20,42.33 C 19.58,42.47 19.15,41.17 18.75,38.5 C 18.35,35.84 17.98,31.87 17.68,26.81 C 16.47,9.47 14.92,0.09 13.33,0.37 C 11.75,0.09 10.21,9.47 9,26.81 C 8.37,36.74 7.53,42.27 6.67,42.27 C 5.8,42.27 4.96,36.74 4.33,26.81 C 3.14,9.41 1.59,0 0,0.37 L 0 57.86 C 0.88,57.67 1.71,63.24 2.34,73.37 C 3.54,90.48 5.08,99.87 6.67,99.87 C 8.25,99.87 9.79,90.48 11.01,73.37 C 11.63,63.24 12.47,57.67 13.33,57.86 C 14.2,57.64 15.05,63.22 15.68,73.37 C 16.89,90.46 18.43,99.82 20,99.82 C 21.59,99.82 23.12,90.46 24.33,73.37 C 24.96,63.44 25.8,57.91 26.67,57.91 C 27.53,57.91 28.37,63.44 29,73.37 C 30.21,90.46 31.75,99.82 33.33,99.82 C 34.91,99.82 36.44,90.46 37.65,73.37 C 38.28,63.22 39.12,57.64 40,57.86 C 40.87,57.67 41.71,63.24 42.32,73.37 C 43.53,90.51 45.07,99.89 46.65,99.8 C 48.24,99.87 49.78,90.51 51,73.37 C 51.63,63.37 52.45,57.8 53.32,57.8 C 54.19,57.8 55.03,63.37 55.64,73.37 C 56.86,90.51 58.41,99.87 60,99.8 C 61.59,99.89 63.11,90.51 64.32,73.37 C 64.96,63.44 65.79,57.91 66.67,57.91 C 67.53,57.91 68.36,63.44 69,73.37 C 70.21,90.46 71.75,99.82 73.32,99.82 C 74.91,99.82 76.43,90.46 77.65,73.37 C 78.28,63.22 79.12,57.64 80,57.86 C 80.87,57.67 81.69,63.24 82.32,73.37 C 83.53,90.48 85.07,99.87 86.65,99.87 C 88.24,99.87 89.78,90.48 91,73.37 C 91.61,63.24 92.45,57.67 93.32,57.86 C 94.2,57.64 95.04,63.22 95.67,73.37 C 96.88,90.62 98.41,100 100,99.8 L 100 42.33 C 99.12,42.53 98.29,36.94 97.66,26.81 C 96.46,9.47 94.91,0.09 93.32,0.37 L 93.32 0.37" fill="#2c5967" stroke="none" stroke-width="0.5"/>
  </g>
  <g transform="translate(31.00,2.00) scale(0.3300,0.2900)">
    <path d="M 34.36 90.76 L 30.29 90.76 L 22.24 95.38 L 22.24 100 L 78.84 100 L 78.84 95.38 L 70.73 90.76 L 66.78 90.76 L 65.38 81.6 L 100 81.6 L 100 0 L 0 0 L 0 81.6 L 35.76 81.6 L 34.36 90.76 L 34.36 90.76 M 58.61 90.76 L 42.54 90.76 L 43.94 81.6 L 57.14 81.6 L 58.61 90.76 L 58.61 90.76 M 13.14 72.43 L 30.61 52.58 L 40.66 63.96 L 64.43 36.94 L 74.36 48.24 L 91.92 28.53 L 91.92 72.43 L 13.14 72.43 L 13.14 72.43 M 91.92 9.17 L 91.92 15.58 L 74.36 35.56 L 64.17 23.98 L 40.41 51 L 30.35 39.56 L 8.11 64.92 L 8.11 9.17 L 91.92 9.17 L 91.92 9.17" fill="#2c5967" stroke="none" stroke-width="0.5"/>
  </g>
</svg>