<svg xmlns="http://www.w3.org/2000/svg" viewBox="0 0 84.0 118.0000000000002" width="84" height="118">
  <g transform="translate(7.00,1.00) scale(0.8200,0.7200)">
    <path d="M 98.78 99.99 C 97,99.99 95.27,99.27 93.9,97.96 C 93.2,97.38 93.03,97.21 92.34,97.21 C 91.66,97.21 91.49,97.38 90.8,97.96 C 89.41,99.28 87.65,100 85.84,100 C 84.03,100 82.28,99.28 80.88,97.96 C 80.2,97.38 80,97.21 79.34,97.21 C 78.68,97.21 78.49,97.38 77.81,97.96 C 76.43,99.26 74.71,99.98 72.93,99.99 C 71.14,99.99 69.42,99.27 68.05,97.96 C 67.37,97.38 67.17,97.21 66.49,97.21 C 65.81,97.21 65.63,97.38 64.95,97.96 C 63.56,99.27 61.81,99.99 60,99.99 C 58.19,99.99 56.44,99.27 55.05,97.96 C 54.34,97.38 54.17,97.21 53.49,97.21 C 52.8,97.21 52.63,97.38 51.95,97.96 C 50.55,99.28 48.8,100 46.99,100 C 45.18,100 43.42,99.28 42.02,97.96 C 41.34,97.38 41.15,97.21 40.49,97.21 C 39.83,97.21 39.64,97.38 38.95,97.96 C 37.58,99.26 35.86,99.98 34.07,99.99 C 32.29,99.99 30.56,99.27 29.2,97.96 C 28.51,97.38 28.32,97.21 27.63,97.21 C 26.95,97.21 26.78,97.38 26.1,97.96 C 24.73,99.27 23,99.99 21.22,99.99 C 19.43,100 17.7,99.28 16.34,97.96 C 15.63,97.38 15.46,97.21 14.78,97.21 C 14.1,97.21 13.93,97.38 13.24,97.96 C 11.88,99.27 10.15,99.99 8.37,99.99 C 6.58,99.99 4.86,99.27 3.49,97.96 C 2.81,97.38 2.63,97.21 1.95,97.21 L 0 97.21 L 0 83.31 L 1.22 83.31 C 3,83.31 4.73,84.03 6.1,85.34 C 6.78,85.92 6.98,86.09 7.66,86.09 C 7.95,86.1 8.23,86.04 8.49,85.92 C 8.76,85.79 9,85.6 9.2,85.37 C 10.55,84.04 12.28,83.31 14.07,83.31 C 15.86,83.31 17.59,84.03 18.95,85.34 C 19.66,85.92 19.83,86.09 20.51,86.09 C 21.2,86.09 21.37,85.92 22.05,85.34 C 22.34,85.09 22.64,84.86 22.95,84.64 L 22.95 78.67 L 0 78.67 L 0 64.76 L 3.24 64.76 C 18.29,64.76 23.17,45.46 23.17,38.82 L 23.17 35.57 L 28.85 35.57 L 28.85 38.82 C 28.95,44.33 30.36,49.7 32.93,54.36 C 34.53,57.18 36.68,59.53 39.23,61.22 C 41.77,62.91 44.62,63.89 47.56,64.09 L 47.56 39.88 C 47.56,39.51 47.43,39.15 47.2,38.89 C 46.97,38.63 46.66,38.48 46.34,38.48 L 35.78 38.48 C 33.94,38.48 32.18,37.65 30.88,36.17 C 29.58,34.69 28.85,32.68 28.85,30.59 L 28.85 19.46 C 28.86,17.38 29.59,15.37 30.89,13.9 C 32.19,12.42 33.95,11.6 35.78,11.6 L 41.32 11.6 L 43.15 7.42 L 44.78 7.42 L 46.39 3.7 L 56.56 3.7 L 58.2 0 L 61.78 0 L 61.78 29.67 L 58.2 29.67 L 56.56 25.97 L 46.42 25.97 L 44.78 22.27 L 43.15 22.27 L 41.32 18.07 L 35.78 18.07 C 35.46,18.07 35.15,18.22 34.92,18.48 C 34.69,18.74 34.56,19.1 34.56,19.46 L 34.56 30.59 C 34.56,30.96 34.69,31.31 34.92,31.57 C 35.15,31.83 35.46,31.98 35.78,31.98 L 46.34 31.98 C 48.17,31.99 49.93,32.82 51.22,34.3 C 52.52,35.78 53.24,37.79 53.24,39.88 L 53.24 64.09 C 56.18,63.83 59.01,62.77 61.51,61 C 64.01,59.23 66.1,56.8 67.61,53.92 C 70.01,49.34 71.37,44.15 71.54,38.82 L 71.54 35.57 L 77.24 35.57 L 77.24 38.82 C 77.24,45.46 82.12,64.76 97.15,64.76 L 100 64.76 L 100 78.67 L 77.24 78.67 L 77.24 83.62 C 78.44,83.25 79.7,83.21 80.92,83.51 C 82.13,83.81 83.26,84.44 84.22,85.34 C 84.42,85.59 84.66,85.78 84.93,85.91 C 85.2,86.04 85.49,86.1 85.78,86.09 C 86.44,86.09 86.63,85.92 87.32,85.34 C 88.71,84.03 90.46,83.31 92.27,83.31 C 94.08,83.31 95.83,84.03 97.22,85.34 C 97.93,85.92 98.1,86.09 98.78,86.09 L 100 86.09 L 100 99.99 L 98.78 99.99 L 98.78 99.99" fill="#FFFFFF" stroke="none" stroke-width="0.5"/>
  </g>
  <g transform="translate(6.00,0.00) scale(0.8400,0.7400)">
    <path d="M 60.31 2.7 L 60.31 6.32 L 60.31 25.24 L 60.31 28.83 L 58.74 28.83 L 57.14 25.24 L 47.21 25.24 L 45.64 21.62 L 44.05 21.62 L 42.45 18 L 42.45 17.56 L 36.12 17.56 C 35.49,17.56 34.88,17.85 34.43,18.36 C 33.99,18.86 33.74,19.55 33.74,20.27 L 33.74 31.07 C 33.74,31.79 33.99,32.48 34.43,32.98 C 34.88,33.49 35.49,33.78 36.12,33.78 L 46.43 33.78 C 47.16,33.78 47.88,33.94 48.56,34.26 C 49.23,34.58 49.84,35.04 50.36,35.63 C 50.88,36.22 51.28,36.91 51.56,37.68 C 51.84,38.45 51.98,39.27 51.98,40.1 L 51.98 65.09 C 55.25,65.03 58.46,64.02 61.3,62.16 C 64.14,60.29 66.51,57.64 68.19,54.45 C 70.67,49.8 72.05,44.5 72.21,39.07 L 72.21 37.26 L 75.4 37.26 L 75.4 39.07 C 75.4,45.88 80.48,65.63 96.02,65.63 L 97.62 65.63 L 97.62 76.44 L 75.4 76.44 L 75.4 84.55 C 76.37,83.95 77.47,83.68 78.57,83.77 C 80.08,83.76 81.54,84.36 82.69,85.47 C 83.3,86.11 84.09,86.46 84.92,86.46 C 85.74,86.46 86.54,86.11 87.14,85.47 C 88.29,84.36 89.76,83.76 91.26,83.77 C 92.78,83.76 94.24,84.36 95.41,85.47 C 96,86.12 96.79,86.48 97.62,86.47 L 97.62 97.28 C 96.11,97.29 94.65,96.68 93.5,95.57 C 92.9,94.92 92.1,94.56 91.26,94.57 C 90.44,94.56 89.64,94.92 89.05,95.57 C 87.89,96.67 86.43,97.28 84.92,97.28 C 83.41,97.28 81.94,96.67 80.79,95.57 C 80.19,94.92 79.4,94.56 78.57,94.57 C 77.74,94.56 76.93,94.92 76.33,95.57 C 75.18,96.67 73.72,97.28 72.21,97.28 C 70.71,97.28 69.25,96.67 68.09,95.57 C 67.49,94.93 66.69,94.58 65.87,94.58 C 65.04,94.58 64.25,94.93 63.64,95.57 C 62.49,96.68 61.03,97.28 59.52,97.28 C 58.01,97.28 56.54,96.68 55.38,95.57 C 54.78,94.93 53.99,94.57 53.17,94.57 C 52.34,94.57 51.55,94.93 50.95,95.57 C 49.79,96.68 48.32,97.28 46.81,97.28 C 45.3,97.28 43.84,96.68 42.69,95.57 C 42.1,94.92 41.3,94.56 40.48,94.57 C 39.64,94.56 38.84,94.92 38.24,95.57 C 37.08,96.67 35.63,97.28 34.12,97.28 C 32.61,97.28 31.15,96.67 30,95.57 C 29.4,94.93 28.6,94.58 27.77,94.58 C 26.95,94.58 26.15,94.93 25.55,95.57 C 24.39,96.67 22.94,97.28 21.43,97.28 C 19.92,97.28 18.46,96.67 17.31,95.57 C 16.71,94.92 15.9,94.56 15.07,94.57 C 14.25,94.56 13.45,94.92 12.86,95.57 C 11.7,96.67 10.24,97.28 8.73,97.28 C 7.21,97.28 5.75,96.67 4.59,95.57 C 4,94.92 3.21,94.56 2.38,94.57 L 2.38 83.77 C 3.89,83.75 5.35,84.36 6.5,85.47 C 7.1,86.11 7.9,86.46 8.73,86.46 C 9.55,86.46 10.35,86.11 10.95,85.47 C 12.1,84.36 13.56,83.76 15.07,83.77 C 16.59,83.76 18.05,84.36 19.21,85.47 C 19.51,85.79 19.85,86.05 20.23,86.22 C 20.61,86.39 21.02,86.48 21.43,86.47 C 22.25,86.48 23.05,86.12 23.64,85.47 C 24.07,85.1 24.52,84.78 25,84.49 L 25 76.44 L 2.38 76.44 L 2.38 65.63 L 4.36 65.63 C 19.93,65.63 25,45.88 25,39.07 L 25 37.26 L 28.17 37.26 L 28.17 39.07 C 28.29,44.69 29.75,50.17 32.38,54.93 C 34.16,58.04 36.6,60.59 39.47,62.37 C 42.33,64.14 45.54,65.08 48.81,65.09 L 48.81 40.1 C 48.81,39.38 48.56,38.7 48.11,38.19 C 47.67,37.68 47.06,37.4 46.43,37.4 L 36.12 37.4 C 35.39,37.4 34.66,37.23 33.99,36.92 C 33.31,36.6 32.7,36.13 32.18,35.55 C 31.66,34.96 31.25,34.26 30.97,33.49 C 30.69,32.73 30.55,31.9 30.55,31.07 L 30.55 20.27 C 30.55,18.59 31.14,16.99 32.19,15.81 C 33.23,14.63 34.64,13.97 36.12,13.97 L 42.45 13.97 L 42.45 13.51 L 44.05 9.92 L 45.64 9.92 L 47.21 6.3 L 57.14 6.3 L 58.74 2.7 L 60.31 2.7 L 60.31 2.7 M 62.69 0 L 57.26 0 L 56.6 1.49 L 55.67 3.62 L 45.76 3.62 L 45.1 5.13 L 44.17 7.24 L 42.57 7.24 L 41.93 8.73 L 40.79 11.29 L 36.02 11.29 C 33.94,11.32 31.95,12.28 30.48,13.96 C 29.01,15.63 28.18,17.9 28.17,20.27 L 28.17 31.07 C 28.17,32.27 28.38,33.45 28.79,34.56 L 22.62 34.56 L 22.62 39.07 C 22.62,45.21 18.12,62.93 4.36,62.93 L 0 62.93 L 0 79.15 L 22.62 79.15 L 22.62 82.87 L 22.21 83.2 C 21.69,83.77 21.69,83.77 21.43,83.77 C 21.17,83.77 21.17,83.77 20.64,83.31 C 19.07,81.86 17.11,81.06 15.08,81.06 C 13.06,81.06 11.1,81.86 9.52,83.31 C 9,83.77 9,83.77 8.74,83.77 C 8.48,83.77 8.48,83.77 7.93,83.31 C 6.37,81.84 4.41,81.04 2.38,81.06 L 0 81.06 L 0 97.28 L 2.38 97.28 C 2.64,97.28 2.64,97.28 3.17,97.73 C 4.73,99.2 6.71,100 8.74,99.98 C 10.77,99.96 12.74,99.13 14.29,97.63 C 14.81,97.17 14.81,97.17 15.07,97.17 C 15.33,97.17 15.33,97.17 15.86,97.63 C 17.41,99.13 19.38,99.96 21.43,99.98 C 23.45,100 25.42,99.2 26.98,97.73 C 27.5,97.28 27.5,97.28 27.76,97.28 C 28.02,97.28 28.05,97.28 28.57,97.73 C 30.14,99.18 32.1,99.97 34.12,99.97 C 36.14,99.97 38.1,99.18 39.67,97.73 C 40.21,97.28 40.21,97.28 40.48,97.28 C 40.74,97.28 40.74,97.28 41.26,97.73 C 42.83,99.19 44.8,99.98 46.82,99.98 C 48.85,99.98 50.81,99.19 52.38,97.73 C 52.9,97.28 52.9,97.28 53.17,97.28 C 53.43,97.28 53.43,97.28 53.95,97.73 C 55.52,99.19 57.49,99.98 59.51,99.98 C 61.54,99.98 63.5,99.19 65.07,97.73 C 65.59,97.28 65.59,97.28 65.86,97.28 C 66.12,97.28 66.12,97.28 66.67,97.73 C 68.23,99.18 70.19,99.97 72.21,99.97 C 74.24,99.97 76.2,99.18 77.76,97.73 C 78.31,97.28 78.31,97.28 78.57,97.28 C 78.83,97.28 78.83,97.28 79.36,97.73 C 80.93,99.19 82.89,99.98 84.92,99.98 C 86.94,99.98 88.9,99.19 90.48,97.73 C 91,97.28 91,97.28 91.26,97.28 C 91.52,97.28 91.52,97.28 92.07,97.73 C 93.63,99.2 95.59,100 97.62,99.98 L 100 99.98 L 100 83.77 L 97.62 83.77 C 97.36,83.77 97.36,83.77 96.83,83.31 C 95.26,81.86 93.3,81.06 91.27,81.06 C 89.25,81.06 87.28,81.86 85.71,83.31 C 85.19,83.77 85.19,83.77 84.9,83.77 C 84.62,83.77 84.64,83.77 84.12,83.31 C 82.56,81.84 80.6,81.05 78.57,81.06 L 77.79 81.06 L 77.79 79.23 L 100 79.23 L 100 63.01 L 96.02 63.01 C 82.26,63.01 77.79,45.29 77.79,39.15 L 77.79 34.56 L 69.83 34.56 L 69.83 39.07 C 69.65,44 68.39,48.8 66.17,53.04 C 64.91,55.47 63.19,57.55 61.13,59.12 C 59.07,60.68 56.72,61.7 54.26,62.09 L 54.26 40.1 C 54.26,37.73 53.44,35.45 51.98,33.76 C 50.51,32.08 48.52,31.11 46.43,31.07 L 36.12 31.07 L 36.12 20.27 L 40.88 20.27 L 42.02 22.83 L 42.67 24.35 L 44.26 24.35 L 45.19 26.45 L 45.86 27.94 L 55.76 27.94 L 56.69 30.05 L 57.36 31.53 L 62.79 31.53 L 62.79 0 L 62.69 0 L 62.69 0 M 46.43 62.15 C 43.98,61.8 41.63,60.85 39.54,59.35 C 37.46,57.85 35.7,55.84 34.38,53.47 C 31.98,49.17 30.65,44.2 30.55,39.1 L 30.55 37.53 C 32.02,39.23 34.02,40.2 36.12,40.23 L 46.43 40.23 L 46.43 62.15 L 46.43 62.15" fill="#FFFFFF" stroke="none" stroke-width="0.5"/>
  </g>
  <g transform="translate(58.00,6.00) scale(0.0800,0.0400)">
    <path d="M 100 0 L 0 0 L 0 100 L 100 100 L 100 0 L 100 0" fill="#FFFFFF" stroke="none" stroke-width="0.5"/>
  </g>
  <g transform="translate(57.00,5.00) scale(0.1000,0.0600)">
    <path d="M 80.01 30.03 L 80.01 69.97 L 19.99 69.97 L 19.99 30.03 L 80.01 30.03 L 80.01 30.03 M 100 0 L 0 0 L 0 100 L 100 100 L 100 0 L 100 0" fill="#FFFFFF" stroke="none" stroke-width="0.5"/>
  </g>
  <g transform="translate(58.00,12.00) scale(0.0800,0.0400)">
    <path d="M 100 0 L 0 0 L 0 100 L 100 100 L 100 0 L 100 0" fill="#FFFFFF" stroke="none" stroke-width="0.5"/>
  </g>
  <g transform="translate(57.00,11.00) scale(0.1000,0.0600)">
    <path d="M 80.01 30.03 L 80.01 69.97 L 19.99 69.97 L 19.99 30.03 L 80.01 30.03 L 80.01 30.03 M 100 0 L 0 0 L 0 100 L 100 100 L 100 0 L 100 0" fill="#FFFFFF" stroke="none" stroke-width="0.5"/>
  </g>
  <g transform="translate(8.00,54.00) scale(0.8000,0.1200)">
    <path d="M 0 20.35 L 23.75 20.35 L 23.75 66.73 C 23.25,68.36 22.77,70.27 22.32,72.41 C 22.03,74.41 21.67,76.01 21.27,77.12 C 20.87,78.23 20.44,78.83 20,78.88 C 19.57,78.93 19.14,78.44 18.74,77.44 C 18.34,76.44 17.98,74.94 17.67,73.04 C 16.46,66.6 14.92,63.08 13.32,63.1 C 11.74,63.07 10.21,66.6 9,73.04 C 8.37,76.78 7.53,78.86 6.66,78.86 C 5.79,78.86 4.96,76.78 4.32,73.04 C 3.12,66.56 1.58,63.03 0,63.1 L 0 84.08 C 0.87,84.01 1.7,86.11 2.32,89.92 C 3.54,96.44 5.08,99.97 6.67,99.86 C 8.26,99.94 9.8,96.41 11,89.92 C 11.62,86.11 12.46,84.01 13.32,84.08 C 14.2,84 15.04,86.1 15.68,89.92 C 16.89,96.34 18.42,99.86 20,99.86 C 21.58,99.86 23.11,96.34 24.32,89.92 C 24.96,86.19 25.79,84.11 26.66,84.11 C 27.53,84.11 28.37,86.19 29,89.92 C 30.21,96.34 31.74,99.86 33.32,99.86 C 34.91,99.86 36.44,96.34 37.65,89.92 C 38.28,86.1 39.13,84 40,84.08 C 40.87,84.01 41.7,86.11 42.32,89.92 C 43.53,96.44 45.06,99.97 46.65,99.86 C 48.24,99.97 49.79,96.44 51,89.92 C 51.63,86.16 52.46,84.06 53.32,84.06 C 54.19,84.06 55.02,86.16 55.65,89.92 C 56.86,96.44 58.41,99.97 60,99.86 C 61.59,99.97 63.12,96.44 64.32,89.92 C 64.96,86.19 65.79,84.11 66.66,84.11 C 67.53,84.11 68.37,86.19 69,89.92 C 70.21,96.34 71.74,99.86 73.32,99.86 C 74.91,99.86 76.44,96.34 77.65,89.92 C 78.28,86.1 79.13,84 80,84.08 C 80.87,84.01 81.7,86.11 82.33,89.92 C 83.54,96.36 85.08,99.88 86.66,99.88 C 88.25,99.88 89.78,96.36 91,89.92 C 91.62,86.11 92.46,84.01 93.33,84.08 C 94.2,84 95.04,86.1 95.68,89.92 C 96.87,96.46 98.41,100 100,99.86 L 100 78.88 C 99.13,78.95 98.3,76.85 97.68,73.04 C 96.46,66.6 94.92,63.08 93.33,63.1 C 91.74,63.07 90.21,66.6 89,73.04 C 88.37,76.78 87.53,78.86 86.66,78.86 C 85.79,78.86 84.96,76.78 84.32,73.04 C 83.12,66.6 81.58,63.07 80,63.1 C 78.83,62.95 77.67,64.92 76.68,68.78 L 76.68 21.45 L 100 21.45 L 100 0 L 0 0 L 0 20.35 L 0 20.35 M 73.32 78.88 C 72.46,78.95 71.62,76.85 71,73.04 C 69.78,66.61 68.25,63.08 66.66,63.08 C 65.08,63.08 63.54,66.61 62.32,73.04 C 61.7,76.85 60.87,78.95 60,78.88 C 59.13,78.95 58.28,76.86 57.65,73.04 C 56.44,66.62 54.91,63.1 53.32,63.1 C 51.74,63.1 50.21,66.62 49,73.04 C 48.37,76.78 47.53,78.86 46.66,78.86 C 45.79,78.86 44.96,76.78 44.32,73.04 C 43.12,66.6 41.58,63.07 40,63.1 C 38.41,63.08 36.87,66.6 35.65,73.04 C 35.34,74.94 34.98,76.44 34.58,77.44 C 34.18,78.44 33.76,78.93 33.32,78.88 C 32.46,78.95 31.62,76.85 31,73.04 C 29.9,67.1 28.52,63.61 27.07,63.1 L 27.07 20.35 L 73.32 20.35 L 73.32 78.88 L 73.32 78.88" fill="#2c5967" stroke="none" stroke-width="0.5"/>
  </g>
  <g transform="translate(8.00,27.00) scale(0.8000,0.2300)">
    <path d="M 98.33 88.53 C 82,88.53 76.68,26.9 76.68,5.65 L 76.68 0 L 73.32 0 L 73.32 5.65 C 73.16,22.6 71.7,39.11 69.1,53.63 C 67.19,64.44 64.44,73.3 61.15,79.24 C 57.86,85.19 54.15,87.99 50.43,87.35 C 46.71,88.08 43.01,85.51 39.69,79.88 C 36.37,74.26 33.54,65.79 31.5,55.31 C 28.73,40.45 27.2,23.36 27.07,5.82 L 27.07 0.17 L 23.75 0.17 L 23.75 5.82 C 23.75,27.07 18.42,88.7 2.08,88.7 L 0 88.7 L 0 100 L 100 100 L 100 88.53 L 98.33 88.53 L 98.33 88.53 M 71.95 59.53 C 72.46,56.81 72.92,53.99 73.32,51.1 L 73.32 88.7 L 62.93 88.7 C 66.65,81.86 69.77,71.79 71.95,59.53 L 71.95 59.53 M 28.7 61.3 C 30.89,72.77 33.92,82.15 37.5,88.53 L 27.07 88.53 L 27.07 51.6 C 27.5,54.89 28.1,58.1 28.7,61.3 L 28.7 61.3 M 21.72 61.89 C 22.47,57.9 23.15,53.76 23.75,49.49 L 23.75 88.53 L 13.95 88.53 C 17.09,81.68 19.74,72.58 21.72,61.89 L 21.72 61.89 M 76.73 88.53 L 76.73 49.49 C 77.31,53.79 77.98,57.94 78.75,61.89 C 80.72,72.58 83.37,81.67 86.5,88.53 L 76.73 88.53 L 76.73 88.53" fill="#2c5967" stroke="none" stroke-width="0.5"/>
  </g>
  <g transform="translate(8.00,67.00) scale(0.8000,0.0400)">
    <path d="M 93.33 0.4 C 91.74,0.09 90.2,9.49 89,26.83 C 88.37,36.76 87.53,42.29 86.66,42.29 C 85.79,42.29 84.96,36.76 84.32,26.83 C 83.12,9.49 81.59,0.09 80,0.4 C 78.41,0.11 76.86,9.49 75.65,26.83 C 75.02,36.83 74.19,42.4 73.32,42.4 C 72.46,42.4 71.63,36.83 71,26.83 C 69.78,9.71 68.25,0.33 66.66,0.33 C 65.08,0.33 63.54,9.71 62.32,26.83 C 61.7,36.96 60.87,42.53 60,42.33 C 59.13,42.56 58.28,36.98 57.65,26.83 C 56.44,9.74 54.91,0.37 53.32,0.37 C 51.74,0.37 50.21,9.74 49,26.83 C 48.37,36.76 47.53,42.29 46.66,42.29 C 45.79,42.29 44.96,36.76 44.32,26.83 C 43.12,9.49 41.59,0.09 40,0.4 C 38.41,0.11 36.86,9.49 35.65,26.83 C 35.34,31.87 34.98,35.86 34.58,38.52 C 34.18,41.19 33.76,42.49 33.32,42.33 C 32.46,42.53 31.62,36.96 31,26.83 C 29.78,9.71 28.25,0.33 26.66,0.33 C 25.08,0.33 23.54,9.71 22.32,26.83 C 21.7,36.96 20.87,42.53 20,42.33 C 19.57,42.49 19.14,41.19 18.74,38.52 C 18.34,35.86 17.98,31.87 17.67,26.83 C 16.46,9.49 14.92,0.11 13.32,0.4 C 11.74,0.09 10.2,9.49 9,26.83 C 8.37,36.76 7.53,42.29 6.66,42.29 C 5.79,42.29 4.96,36.76 4.32,26.83 C 3.13,9.41 1.59,0 0,0.4 L 0 57.86 C 0.87,57.67 1.7,63.26 2.32,73.39 C 3.54,90.51 5.08,99.87 6.66,99.87 C 8.25,99.87 9.78,90.51 11,73.39 C 11.62,63.26 12.46,57.67 13.32,57.86 C 14.2,57.64 15.04,63.24 15.68,73.39 C 16.89,90.46 18.42,99.82 20,99.82 C 21.58,99.82 23.11,90.46 24.32,73.39 C 24.96,63.46 25.79,57.93 26.66,57.93 C 27.53,57.93 28.37,63.46 29,73.39 C 30.21,90.46 31.74,99.82 33.32,99.82 C 34.91,99.82 36.44,90.46 37.65,73.39 C 38.28,63.24 39.13,57.64 40,57.86 C 40.87,57.67 41.7,63.26 42.32,73.39 C 43.53,90.53 45.07,99.89 46.65,99.82 C 48.24,99.89 49.78,90.53 51,73.39 C 51.63,63.39 52.46,57.8 53.32,57.8 C 54.19,57.8 55.02,63.39 55.65,73.39 C 56.87,90.53 58.41,99.89 60,99.82 C 61.58,99.89 63.12,90.53 64.32,73.39 C 64.96,63.46 65.79,57.93 66.66,57.93 C 67.53,57.93 68.37,63.46 69,73.39 C 70.21,90.46 71.74,99.82 73.32,99.82 C 74.91,99.82 76.44,90.46 77.65,73.39 C 78.28,63.24 79.13,57.64 80,57.86 C 80.87,57.67 81.7,63.26 82.33,73.39 C 83.54,90.51 85.08,99.87 86.66,99.87 C 88.25,99.87 89.78,90.51 91,73.39 C 91.62,63.26 92.46,57.67 93.33,57.86 C 94.2,57.64 95.04,63.24 95.68,73.39 C 96.88,90.62 98.42,100 100,99.82 L 100 42.33 C 99.13,42.53 98.3,36.96 97.68,26.83 C 96.46,9.49 94.92,0.11 93.33,0.4 L 93.33 0.4" fill="#2c5967" stroke="none" stroke-width="0.5"/>
  </g>
  <g transform="translate(59.00,7.00) scale(0.0600,0.0200)">
    <path d="M 100 0 L 0 0 L 0 100 L 100 100 L 100 0 L 100 0" fill="#2c5967" stroke="none" stroke-width="0.5"/>
  </g>
  <g transform="translate(59.00,13.00) scale(0.0600,0.0200)">
    <path d="M 100 0 L 0 0 L 0 100 L 100 100 L 100 0 L 100 0" fill="#2c5967" stroke="none" stroke-width="0.5"/>
  </g>
  <g transform="translate(31.00,2.00) scale(0.2500,0.4400)">
    <path d="M 18.72 57.92 L 53.36 57.92 C 55.48,57.92 57.52,58.39 59.02,59.24 C 60.52,60.08 61.36,61.23 61.36,62.43 L 61.36 100 L 72 100 L 72 62.43 C 72.01,61.04 71.54,59.67 70.6,58.39 C 69.67,57.11 68.3,55.95 66.57,54.97 C 64.84,53.98 62.78,53.21 60.51,52.68 C 58.24,52.14 55.82,51.87 53.36,51.87 L 18.72 51.87 C 16.6,51.87 14.57,51.4 13.07,50.55 C 11.57,49.7 10.72,48.56 10.72,47.36 L 10.72 29.32 C 10.72,28.12 11.57,26.98 13.07,26.13 C 14.57,25.28 16.6,24.81 18.72,24.81 L 40 24.81 L 40 25.57 L 45.36 31.57 L 50.72 31.57 L 56 37.62 L 89.36 37.62 L 94.72 43.62 L 100 43.62 L 100 37.62 L 100 6.04 L 100 0 L 94.72 0 L 89.36 6.04 L 56 6.04 L 50.72 12.09 L 45.36 12.09 L 40 18.04 L 40 18.81 L 18.72 18.81 C 13.77,18.81 9.02,19.91 5.51,21.88 C 2,23.85 0.03,26.53 0,29.32 L 0 47.36 C 0,48.75 0.49,50.12 1.43,51.4 C 2.37,52.68 3.75,53.84 5.49,54.82 C 7.22,55.8 9.29,56.58 11.56,57.11 C 13.83,57.64 16.26,57.92 18.72,57.92 L 18.72 57.92 M 61.36 12.04 L 89.36 12.04 L 89.36 31.57 L 61.36 31.57 L 61.36 12.04 L 61.36 12.04" fill="#2c5967" stroke="none" stroke-width="0.5"/>
  </g>
  <g transform="translate(8.00,54.00) scale(0.8000,0.1200)">
    <path d="M 0 20.35 L 23.75 20.35 L 23.75 66.73 C 23.25,68.36 22.77,70.27 22.32,72.41 C 22.03,74.41 21.67,76.01 21.27,77.12 C 20.87,78.23 20.44,78.83 20,78.88 C 19.57,78.93 19.14,78.44 18.74,77.44 C 18.34,76.44 17.98,74.94 17.67,73.04 C 16.46,66.6 14.92,63.08 13.32,63.1 C 11.74,63.07 10.21,66.6 9,73.04 C 8.37,76.78 7.53,78.86 6.66,78.86 C 5.79,78.86 4.96,76.78 4.32,73.04 C 3.12,66.56 1.58,63.03 0,63.1 L 0 84.08 C 0.87,84.01 1.7,86.11 2.32,89.92 C 3.54,96.44 5.08,99.97 6.67,99.86 C 8.26,99.94 9.8,96.41 11,89.92 C 11.62,86.11 12.46,84.01 13.32,84.08 C 14.2,84 15.04,86.1 15.68,89.92 C 16.89,96.34 18.42,99.86 20,99.86 C 21.58,99.86 23.11,96.34 24.32,89.92 C 24.96,86.19 25.79,84.11 26.66,84.11 C 27.53,84.11 28.37,86.19 29,89.92 C 30.21,96.34 31.74,99.86 33.32,99.86 C 34.91,99.86 36.44,96.34 37.65,89.92 C 38.28,86.1 39.13,84 40,84.08 C 40.87,84.01 41.7,86.11 42.32,89.92 C 43.53,96.44 45.06,99.97 46.65,99.86 C 48.24,99.97 49.79,96.44 51,89.92 C 51.63,86.16 52.46,84.06 53.32,84.06 C 54.19,84.06 55.02,86.16 55.65,89.92 C 56.86,96.44 58.41,99.97 60,99.86 C 61.59,99.97 63.12,96.44 64.32,89.92 C 64.96,86.19 65.79,84.11 66.66,84.11 C 67.53,84.11 68.37,86.19 69,89.92 C 70.21,96.34 71.74,99.86 73.32,99.86 C 74.91,99.86 76.44,96.34 77.65,89.92 C 78.28,86.1 79.13,84 80,84.08 C 80.87,84.01 81.7,86.11 82.33,89.92 C 83.54,96.36 85.08,99.88 86.66,99.88 C 88.25,99.88 89.78,96.36 91,89.92 C 91.62,86.11 92.46,84.01 93.33,84.08 C 94.2,84 95.04,86.1 95.68,89.92 C 96.87,96.46 98.41,100 100,99.86 L 100 78.88 C 99.13,78.95 98.3,76.85 97.68,73.04 C 96.46,66.6 94.92,63.08 93.33,63.1 C 91.74,63.07 90.21,66.6 89,73.04 C 88.37,76.78 87.53,78.86 86.66,78.86 C 85.79,78.86 84.96,76.78 84.32,73.04 C 83.12,66.6 81.58,63.07 80,63.1 C 78.83,62.95 77.67,64.92 76.68,68.78 L 76.68 21.45 L 100 21.45 L 100 0 L 0 0 L 0 20.35 L 0 20.35 M 73.32 78.88 C 72.46,78.95 71.62,76.85 71,73.04 C 69.78,66.61 68.25,63.08 66.66,63.08 C 65.08,63.08 63.54,66.61 62.32,73.04 C 61.7,76.85 60.87,78.95 60,78.88 C 59.13,78.95 58.28,76.86 57.65,73.04 C 56.44,66.62 54.91,63.1 53.32,63.1 C 51.74,63.1 50.21,66.62 49,73.04 C 48.37,76.78 47.53,78.86 46.66,78.86 C 45.79,78.86 44.96,76.78 44.32,73.04 C 43.12,66.6 41.58,63.07 40,63.1 C 38.41,63.08 36.87,66.6 35.65,73.04 C 35.34,74.94 34.98,76.44 34.58,77.44 C 34.18,78.44 33.76,78.93 33.32,78.88 C 32.46,78.95 31.62,76.85 31,73.04 C 29.9,67.1 28.52,63.61 27.07,63.1 L 27.07 20.35 L 73.32 20.35 L 73.32 78.88 L 73.32 78.88" fill="#2c5967" stroke="none" stroke-width="0.5"/>
  </g>
  <g transform="translate(8.00,27.00) scale(0.8000,0.2300)">
    <path d="M 98.33 88.53 C 82,88.53 76.68,26.9 76.68,5.65 L 76.68 0 L 73.32 0 L 73.32 5.65 C 73.16,22.6 71.7,39.11 69.1,53.63 C 67.19,64.44 64.44,73.3 61.15,79.24 C 57.86,85.19 54.15,87.99 50.43,87.35 C 46.71,88.08 43.01,85.51 39.69,79.88 C 36.37,74.26 33.54,65.79 31.5,55.31 C 28.73,40.45 27.2,23.36 27.07,5.82 L 27.07 0.17 L 23.75 0.17 L 23.75 5.82 C 23.75,27.07 18.42,88.7 2.08,88.7 L 0 88.7 L 0 100 L 100 100 L 100 88.53 L 98.33 88.53 L 98.33 88.53 M 71.95 59.53 C 72.46,56.81 72.92,53.99 73.32,51.1 L 73.32 88.7 L 62.93 88.7 C 66.65,81.86 69.77,71.79 71.95,59.53 L 71.95 59.53 M 28.7 61.3 C 30.89,72.77 33.92,82.15 37.5,88.53 L 27.07 88.53 L 27.07 51.6 C 27.5,54.89 28.1,58.1 28.7,61.3 L 28.7 61.3 M 21.72 61.89 C 22.47,57.9 23.15,53.76 23.75,49.49 L 23.75 88.53 L 13.95 88.53 C 17.09,81.68 19.74,72.58 21.72,61.89 L 21.72 61.89 M 76.73 88.53 L 76.73 49.49 C 77.31,53.79 77.98,57.94 78.75,61.89 C 80.72,72.58 83.37,81.67 86.5,88.53 L 76.73 88.53 L 76.73 88.53" fill="#2c5967" stroke="none" stroke-width="0.5"/>
  </g>
  <g transform="translate(8.00,67.00) scale(0.8000,0.0400)">
    <path d="M 93.33 0.4 C 91.74,0.09 90.2,9.49 89,26.83 C 88.37,36.76 87.53,42.29 86.66,42.29 C 85.79,42.29 84.96,36.76 84.32,26.83 C 83.12,9.49 81.59,0.09 80,0.4 C 78.41,0.11 76.86,9.49 75.65,26.83 C 75.02,36.83 74.19,42.4 73.32,42.4 C 72.46,42.4 71.63,36.83 71,26.83 C 69.78,9.71 68.25,0.33 66.66,0.33 C 65.08,0.33 63.54,9.71 62.32,26.83 C 61.7,36.96 60.87,42.53 60,42.33 C 59.13,42.56 58.28,36.98 57.65,26.83 C 56.44,9.74 54.91,0.37 53.32,0.37 C 51.74,0.37 50.21,9.74 49,26.83 C 48.37,36.76 47.53,42.29 46.66,42.29 C 45.79,42.29 44.96,36.76 44.32,26.83 C 43.12,9.49 41.59,0.09 40,0.4 C 38.41,0.11 36.86,9.49 35.65,26.83 C 35.34,31.87 34.98,35.86 34.58,38.52 C 34.18,41.19 33.76,42.49 33.32,42.33 C 32.46,42.53 31.62,36.96 31,26.83 C 29.78,9.71 28.25,0.33 26.66,0.33 C 25.08,0.33 23.54,9.71 22.32,26.83 C 21.7,36.96 20.87,42.53 20,42.33 C 19.57,42.49 19.14,41.19 18.74,38.52 C 18.34,35.86 17.98,31.87 17.67,26.83 C 16.46,9.49 14.92,0.11 13.32,0.4 C 11.74,0.09 10.2,9.49 9,26.83 C 8.37,36.76 7.53,42.29 6.66,42.29 C 5.79,42.29 4.96,36.76 4.32,26.83 C 3.13,9.41 1.59,0 0,0.4 L 0 57.86 C 0.87,57.67 1.7,63.26 2.32,73.39 C 3.54,90.51 5.08,99.87 6.66,99.87 C 8.25,99.87 9.78,90.51 11,73.39 C 11.62,63.26 12.46,57.67 13.32,57.86 C 14.2,57.64 15.04,63.24 15.68,73.39 C 16.89,90.46 18.42,99.82 20,99.82 C 21.58,99.82 23.11,90.46 24.32,73.39 C 24.96,63.46 25.79,57.93 26.66,57.93 C 27.53,57.93 28.37,63.46 29,73.39 C 30.21,90.46 31.74,99.82 33.32,99.82 C 34.91,99.82 36.44,90.46 37.65,73.39 C 38.28,63.24 39.13,57.64 40,57.86 C 40.87,57.67 41.7,63.26 42.32,73.39 C 43.53,90.53 45.07,99.89 46.65,99.82 C 48.24,99.89 49.78,90.53 51,73.39 C 51.63,63.39 52.46,57.8 53.32,57.8 C 54.19,57.8 55.02,63.39 55.65,73.39 C 56.87,90.53 58.41,99.89 60,99.82 C 61.58,99.89 63.12,90.53 64.32,73.39 C 64.96,63.46 65.79,57.93 66.66,57.93 C 67.53,57.93 68.37,63.46 69,73.39 C 70.21,90.46 71.74,99.82 73.32,99.82 C 74.91,99.82 76.44,90.46 77.65,73.39 C 78.28,63.24 79.13,57.64 80,57.86 C 80.87,57.67 81.7,63.26 82.33,73.39 C 83.54,90.51 85.08,99.87 86.66,99.87 C 88.25,99.87 89.78,90.51 91,73.39 C 91.62,63.26 92.46,57.67 93.33,57.86 C 94.2,57.64 95.04,63.24 95.68,73.39 C 96.88,90.62 98.42,100 100,99.82 L 100 42.33 C 99.13,42.53 98.3,36.96 97.68,26.83 C 96.46,9.49 94.92,0.11 93.33,0.4 L 93.33 0.4" fill="#2c5967" stroke="none" stroke-width="0.5"/>
  </g>
  <g transform="translate(59.00,7.00) scale(0.0600,0.0200)">
    <path d="M 100 0 L 0 0 L 0 100 L 100 100 L 100 0 L 100 0" fill="#2c5967" stroke="none" stroke-width="0.5"/>
  </g>
  <g transform="translate(59.00,13.00) scale(0.0600,0.0200)">
    <path d="M 100 0 L 0 0 L 0 100 L 100 100 L 100 0 L 100 0" fill="#2c5967" stroke="none" stroke-width="0.5"/>
  </g>
  <g transform="translate(31.00,2.00) scale(0.2500,0.4400)">
    <path d="M 18.72 57.92 L 53.36 57.92 C 55.48,57.92 57.52,58.39 59.02,59.24 C 60.52,60.08 61.36,61.23 61.36,62.43 L 61.36 100 L 72 100 L 72 62.43 C 72.01,61.04 71.54,59.67 70.6,58.39 C 69.67,57.11 68.3,55.95 66.57,54.97 C 64.84,53.98 62.78,53.21 60.51,52.68 C 58.24,52.14 55.82,51.87 53.36,51.87 L 18.72 51.87 C 16.6,51.87 14.57,51.4 13.07,50.55 C 11.57,49.7 10.72,48.56 10.72,47.36 L 10.72 29.32 C 10.72,28.12 11.57,26.98 13.07,26.13 C 14.57,25.28 16.6,24.81 18.72,24.81 L 40 24.81 L 40 25.57 L 45.36 31.57 L 50.72 31.57 L 56 37.62 L 89.36 37.62 L 94.72 43.62 L 100 43.62 L 100 37.62 L 100 6.04 L 100 0 L 94.72 0 L 89.36 6.04 L 56 6.04 L 50.72 12.09 L 45.36 12.09 L 40 18.04 L 40 18.81 L 18.72 18.81 C 13.77,18.81 9.02,19.91 5.51,21.88 C 2,23.85 0.03,26.53 0,29.32 L 0 47.36 C 0,48.75 0.49,50.12 1.43,51.4 C 2.37,52.68 3.75,53.84 5.49,54.82 C 7.22,55.8 9.29,56.58 11.56,57.11 C 13.83,57.64 16.26,57.92 18.72,57.92 L 18.72 57.92 M 61.36 12.04 L 89.36 12.04 L 89.36 31.57 L 61.36 31.57 L 61.36 12.04 L 61.36 12.04" fill="#2c5967" stroke="none" stroke-width="0.5"/>
  </g>
</svg>