<svg xmlns="http://www.w3.org/2000/svg" viewBox="0 0 84.0 119.00000000000027" width="84" height="119">
  <g transform="translate(30.00,1.00) scale(0.3300,0.3600)">
    <path d="M 14.52 100 C 12.41,99.99 10.39,99.2 8.91,97.82 C 7.42,96.43 6.59,94.56 6.59,92.61 L 6.59 49.37 L 0.62 33.92 C 0,32.12 0.16,30.17 1.06,28.48 C 1.96,26.78 3.53,25.47 5.45,24.82 L 78.51 0.44 C 79.38,0.16 80.28,0.01 81.2,0 C 82.84,0.01 84.43,0.47 85.78,1.34 C 87.12,2.21 88.15,3.43 88.72,4.85 L 96.54 25.26 L 42.82 42.97 L 100 42.97 L 100 92.61 C 100,94.57 99.16,96.45 97.66,97.84 C 96.16,99.22 94.12,100 92,100 L 14.52 100 L 14.52 100" fill="#FFFFFF" stroke="none" stroke-width="0.5"/>
  </g>
  <g transform="translate(29.00,0.00) scale(0.3500,0.3800)">
    <path d="M 79.03 5.23 C 79.98,5.23 80.92,5.51 81.7,6.02 C 82.48,6.53 83.08,7.26 83.4,8.1 L 89.9 24.93 L 26.93 45.84 L 94.22 45.84 L 94.22 90.28 C 94.21,91.44 93.71,92.55 92.83,93.37 C 91.95,94.19 90.76,94.65 89.51,94.67 L 16.61 94.67 C 15.37,94.65 14.19,94.19 13.32,93.36 C 12.45,92.54 11.96,91.43 11.96,90.28 L 11.96 48.93 L 6.35 33.93 C 6.14,33.38 6.04,32.81 6.07,32.23 C 6.1,31.66 6.25,31.09 6.52,30.57 C 6.79,30.05 7.16,29.58 7.63,29.2 C 8.08,28.81 8.63,28.52 9.21,28.33 L 77.45 5.49 C 77.96,5.33 78.49,5.24 79.03,5.23 L 79.03 5.23 M 79.03 0 C 77.86,0.01 76.7,0.21 75.61,0.58 L 6.91 23.42 C 4.42,24.31 2.41,26.08 1.3,28.33 C 0.14,30.63 0,33.26 0.91,35.65 L 6.52 49.82 L 6.52 90.38 C 6.52,92.92 7.6,95.36 9.52,97.16 C 11.44,98.97 14.05,99.99 16.78,100 L 89.68 100 C 92.41,99.99 95.03,98.97 96.96,97.17 C 98.89,95.37 99.99,92.93 100,90.38 L 100 40.72 L 59.29 40.72 L 91.76 29.9 L 97.03 28.12 L 95.18 23.21 L 88.73 6.38 C 88.01,4.51 86.7,2.9 84.96,1.76 C 83.22,0.62 81.15,0 79.03,0 L 79.03 0 L 79.03 0" fill="#FFFFFF" stroke="none" stroke-width="0.5"/>
  </g>
  <g transform="translate(7.00,26.00) scale(0.8200,0.4600)">
    <path d="M 98.78 100 C 97,99.99 95.27,98.88 93.9,96.85 C 93.71,96.47 93.46,96.16 93.19,95.96 C 92.93,95.76 92.63,95.67 92.34,95.68 C 92.06,95.67 91.77,95.76 91.51,95.96 C 91.24,96.15 91,96.44 90.8,96.81 C 89.45,98.87 87.72,100 85.93,100 C 84.14,99.99 82.42,98.88 81.05,96.85 C 80.37,95.9 80.17,95.68 79.51,95.68 C 78.85,95.68 78.66,95.68 77.98,96.81 C 76.61,98.85 74.89,99.98 73.1,100 C 71.31,100 69.58,98.87 68.22,96.81 C 67.81,96.09 67.25,95.69 66.67,95.69 C 66.09,95.69 65.54,96.09 65.12,96.81 C 63.76,98.87 62.03,100 60.24,100 C 58.46,100 56.73,98.89 55.37,96.85 C 54.66,95.9 54.49,95.68 53.8,95.68 C 53.12,95.68 52.95,95.68 52.27,96.81 C 50.91,98.87 49.18,100 47.39,100 C 45.61,99.99 43.88,98.88 42.51,96.85 C 41.83,95.9 41.63,95.68 40.98,95.68 C 40.32,95.68 40.12,95.68 39.44,96.81 C 38.05,98.86 36.29,99.98 34.48,99.98 C 32.66,99.98 30.91,98.86 29.51,96.81 C 29.32,96.42 29.07,96.12 28.8,95.92 C 28.53,95.72 28.24,95.62 27.95,95.64 C 27.67,95.63 27.38,95.72 27.12,95.91 C 26.85,96.11 26.61,96.4 26.42,96.76 C 25.06,98.82 23.33,99.96 21.54,99.95 C 19.75,99.96 18.02,98.84 16.66,96.81 C 15.95,95.86 15.78,95.64 15.1,95.64 C 14.81,95.63 14.53,95.72 14.26,95.91 C 14,96.11 13.76,96.4 13.56,96.76 C 12.2,98.82 10.47,99.96 8.68,99.95 C 6.89,99.96 5.16,98.82 3.81,96.76 C 3.12,95.86 2.95,95.64 2.27,95.64 L 0 95.64 L 0 74.06 L 1.22 74.06 C 3,74.07 4.73,75.18 6.1,77.21 C 6.78,78.12 6.98,78.38 7.66,78.38 C 8.34,78.38 8.51,78.12 9.2,77.21 C 10.59,75.18 12.34,74.06 14.15,74.06 C 15.95,74.06 17.7,75.18 19.1,77.21 C 19.81,78.12 19.98,78.38 20.66,78.38 C 21.34,78.38 21.51,78.12 22.19,77.21 L 23.1 76.09 L 23.1 66.9 L 0 66.9 L 0 45.32 L 3.24 45.32 C 18.29,45.32 23.17,15.36 23.17,5.05 L 23.17 0 L 28.85 0 L 28.85 5.05 C 28.94,13.63 30.35,22 32.93,29.26 C 34.82,34.31 37.42,38.39 40.48,41.1 C 43.54,43.8 46.95,45.03 50.37,44.67 C 53.77,44.94 57.15,43.59 60.15,40.76 C 63.15,37.93 65.67,33.72 67.44,28.57 C 69.84,21.47 71.19,13.41 71.37,5.14 L 71.37 0 L 77.07 0 L 77.07 5.05 C 77.07,15.36 81.95,45.32 96.98,45.32 L 100 45.32 L 100 66.9 L 77.24 66.9 L 77.24 74.53 C 78.45,74 79.7,73.96 80.91,74.43 C 82.13,74.9 83.26,75.87 84.22,77.25 C 84.9,78.16 85.1,78.42 85.76,78.42 C 86.42,78.42 86.63,78.16 87.32,77.25 C 88.71,75.22 90.46,74.11 92.27,74.11 C 94.08,74.11 95.83,75.22 97.22,77.25 C 97.93,78.16 98.1,78.42 98.78,78.42 L 100 78.42 L 100 100 L 98.78 100 L 98.78 100" fill="#FFFFFF" stroke="none" stroke-width="0.5"/>
  </g>
  <g transform="translate(6.00,25.00) scale(0.8400,0.4800)">
    <path d="M 75.41 4.25 L 75.41 7.02 C 75.41,17.43 80.48,47.62 96.02,47.62 L 97.62 47.62 L 97.62 64.15 L 75.41 64.15 L 75.41 76.54 C 76.36,75.57 77.46,75.1 78.57,75.18 C 80.08,75.14 81.55,76.07 82.69,77.78 C 83.3,78.76 84.09,79.3 84.92,79.3 C 85.74,79.3 86.54,78.76 87.14,77.78 C 88.29,76.07 89.75,75.14 91.26,75.18 C 92.78,75.15 94.25,76.07 95.41,77.78 C 96,78.77 96.79,79.32 97.62,79.3 L 97.62 95.83 C 96.1,95.85 94.64,94.91 93.5,93.18 C 92.9,92.19 92.09,91.66 91.26,91.7 C 90.85,91.68 90.45,91.8 90.07,92.06 C 89.69,92.31 89.34,92.69 89.05,93.18 C 87.9,94.89 86.43,95.83 84.92,95.83 C 83.4,95.83 81.94,94.89 80.79,93.18 C 80.49,92.69 80.14,92.31 79.76,92.06 C 79.38,91.8 78.98,91.68 78.57,91.7 C 77.74,91.66 76.94,92.19 76.33,93.18 C 75.19,94.89 73.72,95.82 72.21,95.82 C 70.7,95.82 69.24,94.89 68.09,93.18 C 67.49,92.22 66.69,91.69 65.87,91.69 C 65.05,91.69 64.25,92.22 63.64,93.18 C 62.5,94.9 61.04,95.85 59.52,95.83 C 58,95.84 56.53,94.9 55.38,93.18 C 54.78,92.23 53.99,91.69 53.17,91.69 C 52.35,91.69 51.56,92.23 50.95,93.18 C 49.8,94.89 48.34,95.83 46.82,95.83 C 45.31,95.83 43.84,94.89 42.69,93.18 C 42.4,92.69 42.05,92.31 41.67,92.06 C 41.29,91.8 40.88,91.68 40.48,91.7 C 39.65,91.66 38.84,92.19 38.24,93.18 C 37.09,94.89 35.63,95.82 34.12,95.82 C 32.61,95.82 31.15,94.89 30,93.18 C 29.39,92.22 28.6,91.69 27.77,91.69 C 26.95,91.69 26.16,92.22 25.55,93.18 C 24.4,94.89 22.94,95.82 21.43,95.82 C 19.92,95.82 18.46,94.89 17.31,93.18 C 16.71,92.19 15.9,91.66 15.07,91.7 C 14.66,91.68 14.26,91.8 13.88,92.06 C 13.5,92.31 13.15,92.69 12.86,93.18 C 11.71,94.89 10.24,95.83 8.73,95.83 C 7.21,95.83 5.75,94.89 4.59,93.18 C 4.3,92.69 3.95,92.31 3.57,92.06 C 3.19,91.8 2.79,91.68 2.38,91.7 L 2.38 75.18 C 3.89,75.14 5.36,76.06 6.5,77.78 C 7.1,78.76 7.9,79.3 8.73,79.3 C 9.55,79.3 10.35,78.76 10.95,77.78 C 12.1,76.07 13.56,75.14 15.07,75.18 C 16.59,75.15 18.06,76.07 19.21,77.78 C 19.51,78.27 19.85,78.67 20.23,78.93 C 20.61,79.19 21.02,79.32 21.43,79.3 C 22.25,79.32 23.05,78.77 23.64,77.78 C 24.07,77.2 24.52,76.69 25,76.25 L 25 64.15 L 2.38 64.15 L 2.38 47.62 L 4.36 47.62 C 19.93,47.62 25,17.43 25,7.02 L 25 4.25 L 28.17 4.25 L 28.17 7.02 C 28.29,15.6 29.74,23.97 32.38,31.23 C 34.33,36.36 37.02,40.51 40.18,43.26 C 43.35,46.02 46.87,47.28 50.4,46.92 C 53.95,47.23 57.49,45.86 60.62,42.95 C 63.76,40.04 66.37,35.7 68.19,30.4 C 70.66,23.29 72.05,15.2 72.21,6.9 L 72.21 4.13 L 75.41 4.13 M 77.79 0 L 69.83 0 L 69.83 6.9 C 69.66,14.42 68.4,21.75 66.17,28.21 C 64.56,32.9 62.24,36.74 59.46,39.29 C 56.68,41.84 53.55,43.01 50.4,42.67 C 43.12,42.67 37.88,38.17 34.38,28.83 C 31.97,22.26 30.65,14.68 30.55,6.9 L 30.55 0.12 L 22.62 0.12 L 22.62 7.02 C 22.62,16.36 18.12,43.49 4.36,43.49 L 0 43.49 L 0 68.28 L 22.62 68.28 L 22.62 73.98 L 22.21 74.47 C 21.69,75.18 21.69,75.18 21.43,75.18 C 21.17,75.18 21.17,75.18 20.64,74.47 C 19.07,72.25 17.11,71.04 15.08,71.04 C 13.06,71.04 11.1,72.25 9.52,74.47 C 9,75.18 9,75.18 8.74,75.18 C 8.48,75.18 8.48,75.18 7.93,74.47 C 6.37,72.23 4.41,71.01 2.38,71.04 L 0 71.04 L 0 95.83 L 2.38 95.83 C 2.64,95.83 2.64,95.83 3.17,96.49 C 4.72,98.77 6.7,100 8.74,99.96 C 10.77,99.99 12.74,98.76 14.29,96.49 C 14.81,95.83 14.81,95.83 15.07,95.83 C 15.33,95.83 15.33,95.83 15.86,96.49 C 17.42,98.76 19.39,99.99 21.43,99.96 C 23.46,100 25.43,98.77 26.98,96.49 C 27.5,95.83 27.5,95.83 27.76,95.83 C 28.02,95.83 28.05,95.83 28.57,96.49 C 30.13,98.73 32.09,99.96 34.12,99.96 C 36.14,99.96 38.11,98.73 39.67,96.49 C 40.21,95.83 40.21,95.83 40.48,95.83 C 40.74,95.83 40.74,95.83 41.26,96.49 C 42.83,98.73 44.79,99.95 46.82,99.95 C 48.85,99.95 50.82,98.73 52.38,96.49 C 52.91,95.83 52.91,95.83 53.17,95.83 C 53.43,95.83 53.43,95.83 53.95,96.49 C 55.52,98.73 57.48,99.95 59.51,99.95 C 61.54,99.95 63.51,98.73 65.07,96.49 C 65.6,95.83 65.6,95.83 65.86,95.83 C 66.12,95.83 66.12,95.83 66.67,96.49 C 68.23,98.73 70.19,99.96 72.21,99.96 C 74.24,99.96 76.2,98.73 77.76,96.49 C 78.31,95.83 78.31,95.83 78.57,95.83 C 78.83,95.83 78.83,95.83 79.36,96.49 C 80.92,98.73 82.89,99.95 84.92,99.95 C 86.95,99.95 88.91,98.73 90.48,96.49 C 91,95.83 91,95.83 91.26,95.83 C 91.52,95.83 91.52,95.83 92.07,96.49 C 93.62,98.77 95.59,100 97.62,99.96 L 100 99.96 L 100 75.18 L 97.62 75.18 C 97.36,75.18 97.36,75.18 96.83,74.47 C 95.26,72.25 93.3,71.04 91.27,71.04 C 89.25,71.04 87.28,72.25 85.71,74.47 C 85.19,75.18 85.19,75.18 84.9,75.18 C 84.62,75.18 84.64,75.18 84.12,74.47 C 82.56,72.23 80.6,71.02 78.57,71.04 L 77.79 71.04 L 77.79 68.24 L 100 68.24 L 100 43.45 L 96.02 43.45 C 82.26,43.45 77.79,16.32 77.79,6.98 L 77.79 0.12 L 77.79 0 L 77.79 0" fill="#FFFFFF" stroke="none" stroke-width="0.5"/>
  </g>
  <g transform="translate(31.00,2.00) scale(0.3100,0.3400)">
    <path d="M 6.88 48.82 L 6.88 95.1 C 6.88,96.39 7.44,97.63 8.42,98.54 C 9.41,99.46 10.75,99.98 12.15,100 L 94.67 100 C 96.07,99.98 97.42,99.46 98.42,98.55 C 99.41,97.63 99.98,96.39 100,95.1 L 100 45.49 L 23.83 45.49 L 95.11 22.15 L 88 3.24 C 87.77,2.64 87.42,2.08 86.96,1.61 C 86.49,1.14 85.93,0.75 85.3,0.48 C 84.68,0.21 84,0.05 83.31,0.03 C 82.62,0 81.92,0.1 81.28,0.32 L 3.58 25.82 C 2.92,26.03 2.31,26.36 1.79,26.79 C 1.26,27.22 0.84,27.74 0.54,28.32 C 0.24,28.9 0.06,29.53 0.03,30.18 C 0,30.82 0.11,31.46 0.35,32.07 L 6.88 48.82 L 6.88 48.82 M 91.49 92.18 L 15.33 92.18 L 15.33 70.06 L 91.49 70.06 L 91.49 92.18 L 91.49 92.18 M 91.49 53.31 L 91.49 62.24 L 81.72 53.31 L 91.49 53.31 L 91.49 53.31 M 69.79 53.31 L 79.81 62.53 L 73.47 62.53 L 63.5 53.31 L 69.79 53.31 L 69.79 53.31 M 51.57 53.31 L 61.6 62.53 L 55.25 62.53 L 45.22 53.31 L 51.57 53.31 L 51.57 53.31 M 33.35 53.31 L 43.38 62.53 L 37.03 62.53 L 27.13 53.31 L 33.35 53.31 L 33.35 53.31 M 25.16 62.53 L 15.33 62.53 L 15.33 53.49 L 25.16 62.53 L 25.16 62.53 M 81.21 8.84 L 84.51 17.54 L 75.24 20.57 L 81.21 8.84 L 81.21 8.84 M 64.2 14.15 L 70.1 12.23 L 63.75 23.9 L 57.85 25.82 L 64.2 14.15 L 64.2 14.15 M 47.06 19.99 L 52.96 18.06 L 46.62 29.74 L 41.09 31.66 L 47.06 19.99 L 47.06 19.99 M 29.92 25.82 L 35.76 23.37 L 29.42 35.05 L 23.58 36.97 L 29.92 25.82 L 29.92 25.82 M 18.63 29.21 L 12.72 40.88 L 9.36 32.19 L 18.63 29.21 L 18.63 29.21" fill="#2c5967" stroke="none" stroke-width="0.5"/>
  </g>
  <g transform="translate(8.00,54.00) scale(0.8000,0.1200)">
    <path d="M 0 20.99 L 23.75 20.99 L 23.75 67.25 C 23.25,68.94 22.77,70.89 22.32,73.09 C 21.7,76.9 20.87,79.01 20,78.93 C 19.57,78.98 19.14,78.49 18.74,77.49 C 18.34,76.49 17.98,75 17.67,73.09 C 16.46,66.57 14.92,63.04 13.32,63.14 C 11.74,63.04 10.2,66.57 9,73.09 C 8.37,76.83 7.53,78.91 6.66,78.91 C 5.79,78.91 4.96,76.83 4.32,73.09 C 3.13,66.54 1.59,63 0,63.14 L 0 84.14 C 0.87,84.07 1.7,86.17 2.32,89.98 C 3.54,96.42 5.08,99.95 6.66,99.95 C 8.25,99.95 9.78,96.42 11,89.98 C 11.62,86.17 12.46,84.07 13.32,84.14 C 14.2,84.06 15.04,86.16 15.68,89.98 C 16.89,96.4 18.42,99.93 20,99.93 C 21.58,99.93 23.11,96.4 24.32,89.98 C 24.96,86.24 25.79,84.16 26.66,84.16 C 27.53,84.16 28.37,86.24 29,89.98 C 30.21,96.4 31.74,99.93 33.32,99.93 C 34.91,99.93 36.44,96.4 37.65,89.98 C 38.28,86.16 39.13,84.06 40,84.14 C 40.87,84.07 41.7,86.17 42.32,89.98 C 43.53,96.43 45.07,99.96 46.65,99.93 C 48.24,99.95 49.78,96.43 51,89.98 C 51.63,86.22 52.46,84.12 53.32,84.12 C 54.19,84.12 55.02,86.22 55.65,89.98 C 56.87,96.43 58.41,99.95 60,99.93 C 61.58,99.96 63.12,96.43 64.32,89.98 C 64.96,86.24 65.79,84.16 66.66,84.16 C 67.53,84.16 68.37,86.24 69,89.98 C 70.21,96.4 71.74,99.93 73.32,99.93 C 74.91,99.93 76.44,96.4 77.65,89.98 C 78.28,86.16 79.13,84.06 80,84.14 C 80.87,84.07 81.7,86.17 82.33,89.98 C 83.54,96.42 85.08,99.95 86.66,99.95 C 88.25,99.95 89.78,96.42 91,89.98 C 91.62,86.17 92.46,84.07 93.33,84.14 C 94.2,84.06 95.04,86.16 95.68,89.98 C 96.88,96.47 98.42,100 100,99.93 L 100 78.93 C 99.13,79.01 98.3,76.9 97.68,73.09 C 96.46,66.57 94.92,63.04 93.33,63.14 C 91.74,63.04 90.2,66.57 89,73.09 C 88.37,76.83 87.53,78.91 86.66,78.91 C 85.79,78.91 84.96,76.83 84.32,73.09 C 83.12,66.57 81.59,63.04 80,63.14 C 78.83,62.95 77.68,64.87 76.68,68.67 L 76.68 21.32 L 100 21.32 L 100 0 L 0 0 L 0 20.99 L 0 20.99 M 27.07 20.99 L 73.32 20.99 L 73.32 78.93 C 72.46,79.01 71.62,76.9 71,73.09 C 69.78,66.65 68.25,63.13 66.66,63.13 C 65.08,63.13 63.54,66.65 62.32,73.09 C 61.7,76.9 60.87,79.01 60,78.93 C 59.13,79.02 58.28,76.91 57.65,73.09 C 56.44,66.67 54.91,63.14 53.32,63.14 C 51.74,63.14 50.21,66.67 49,73.09 C 48.37,76.83 47.53,78.91 46.66,78.91 C 45.79,78.91 44.96,76.83 44.32,73.09 C 43.12,66.57 41.59,63.04 40,63.14 C 38.41,63.04 36.86,66.57 35.65,73.09 C 35.34,75 34.98,76.49 34.58,77.49 C 34.18,78.49 33.76,78.98 33.32,78.93 C 32.46,79.01 31.62,76.9 31,73.09 C 29.9,67.21 28.52,63.77 27.07,63.3 L 27.07 20.99 L 27.07 20.99" fill="#2c5967" stroke="none" stroke-width="0.5"/>
  </g>
  <g transform="translate(8.00,27.00) scale(0.8000,0.2300)">
    <path d="M 98.33 88.54 C 82,88.54 76.68,26.9 76.68,5.65 L 76.68 0 L 73.32 0 L 73.32 5.65 C 73.15,22.59 71.7,39.11 69.1,53.63 C 67.19,64.45 64.44,73.3 61.15,79.24 C 57.86,85.18 54.15,87.99 50.43,87.35 C 46.71,88.08 43.01,85.51 39.69,79.89 C 36.37,74.26 33.54,65.79 31.5,55.31 C 28.73,40.49 27.2,23.42 27.07,5.9 L 27.07 0.25 L 23.75 0.25 L 23.75 5.9 C 23.75,27.15 18.42,88.79 2.08,88.79 L 0 88.79 L 0 100 L 100 100 L 100 88.54 L 98.33 88.54 L 98.33 88.54 M 23.75 88.54 L 13.95 88.54 C 17.08,81.65 19.73,72.56 21.72,61.89 C 22.47,57.89 23.14,53.75 23.75,49.49 L 23.75 88.54 L 23.75 88.54 M 27.07 88.54 L 27.07 51.6 C 27.57,54.95 28.11,58.22 28.7,61.38 C 30.91,72.8 33.93,82.14 37.5,88.54 L 27.07 88.54 L 27.07 88.54 M 73.32 88.54 L 62.93 88.54 C 66.64,81.71 69.75,71.7 71.95,59.53 C 72.45,56.66 72.93,53.79 73.32,51.1 L 73.32 88.54 L 73.32 88.54 M 76.68 88.54 L 76.68 49.49 C 77.26,53.78 77.94,57.92 78.7,61.89 C 80.68,72.56 83.32,81.65 86.45,88.54 L 76.68 88.54 L 76.68 88.54" fill="#2c5967" stroke="none" stroke-width="0.5"/>
  </g>
  <g transform="translate(8.00,67.00) scale(0.8000,0.0400)">
    <path d="M 93.33 0.27 C 91.74,0.09 90.2,9.75 89,27.47 C 88.36,37.36 87.53,42.85 86.66,42.85 C 85.8,42.85 84.97,37.36 84.32,27.47 C 83.13,9.75 81.59,0.09 80,0.27 C 78.4,0.11 76.86,9.77 75.65,27.47 C 75.02,37.34 74.19,42.8 73.32,42.8 C 72.46,42.8 71.64,37.34 71,27.47 C 69.79,9.91 68.25,0.25 66.66,0.25 C 65.07,0.25 63.53,9.91 62.32,27.47 C 62.02,32.52 61.65,36.44 61.25,39.08 C 60.85,41.69 60.43,42.96 60,42.78 C 59.13,43.16 58.28,37.65 57.65,27.47 C 56.45,9.93 54.91,0.29 53.32,0.29 C 51.74,0.29 50.2,9.93 49,27.47 C 48.36,37.36 47.53,42.85 46.66,42.85 C 45.8,42.85 44.97,37.36 44.32,27.47 C 43.13,9.75 41.59,0.09 40,0.27 C 38.4,0.11 36.86,9.77 35.65,27.47 C 35.34,32.54 34.98,36.51 34.58,39.14 C 34.18,41.78 33.75,43 33.32,42.78 C 32.9,42.96 32.47,41.69 32.07,39.08 C 31.67,36.44 31.31,32.52 31,27.47 C 29.79,9.91 28.25,0.25 26.66,0.25 C 25.07,0.25 23.53,9.91 22.32,27.47 C 22.02,32.52 21.65,36.44 21.25,39.08 C 20.85,41.69 20.43,42.96 20,42.78 C 19.57,43 19.15,41.78 18.75,39.14 C 18.35,36.51 17.98,32.54 17.67,27.47 C 16.47,9.77 14.92,0.11 13.32,0.27 C 11.74,0.09 10.2,9.75 9,27.47 C 8.37,37.56 7.54,43.05 6.67,42.78 C 5.8,43.16 4.96,37.65 4.32,27.47 C 3.13,9.69 1.59,0 0,0.27 L 0 57.24 C 0.43,57.06 0.85,58.31 1.25,60.95 C 1.65,63.58 2.02,67.51 2.32,72.53 C 3.53,90.11 5.07,99.75 6.66,99.75 C 8.25,99.75 9.79,90.11 11,72.53 C 11.31,67.51 11.67,63.58 12.07,60.95 C 12.47,58.31 12.9,57.06 13.32,57.24 C 14.2,56.86 15.04,62.35 15.68,72.53 C 16.88,90.07 18.41,99.71 20,99.71 C 21.59,99.71 23.12,90.07 24.32,72.53 C 24.96,62.64 25.8,57.17 26.66,57.17 C 27.53,57.17 28.36,62.64 29,72.53 C 30.2,90.07 31.74,99.71 33.32,99.71 C 34.91,99.71 36.44,90.07 37.65,72.53 C 38.28,62.35 39.13,56.86 40,57.24 C 40.43,57.06 40.85,58.31 41.25,60.95 C 41.65,63.58 42.02,67.51 42.32,72.53 C 43.52,90.25 45.06,99.93 46.65,99.73 C 48.25,99.91 49.79,90.25 51,72.53 C 51.64,62.69 52.46,57.22 53.32,57.22 C 54.19,57.22 55.02,62.69 55.65,72.53 C 56.86,90.25 58.4,99.91 60,99.73 C 61.59,99.93 63.13,90.25 64.32,72.53 C 64.97,62.64 65.8,57.17 66.66,57.17 C 67.53,57.17 68.36,62.64 69,72.53 C 70.2,90.07 71.74,99.71 73.32,99.71 C 74.91,99.71 76.45,90.07 77.65,72.53 C 78.28,62.35 79.13,56.86 80,57.24 C 80.43,57.06 80.85,58.31 81.25,60.95 C 81.65,63.58 82.02,67.51 82.33,72.53 C 83.53,90.11 85.07,99.75 86.66,99.75 C 88.25,99.75 89.79,90.11 91,72.53 C 91.31,67.51 91.67,63.58 92.07,60.95 C 92.47,58.31 92.9,57.06 93.33,57.24 C 94.2,56.86 95.04,62.35 95.68,72.53 C 96.87,90.31 98.41,100 100,99.73 L 100 42.78 C 99.57,42.96 99.15,41.69 98.75,39.08 C 98.35,36.44 97.98,32.52 97.68,27.47 C 96.47,9.77 94.92,0.11 93.33,0.27 L 93.33 0.27" fill="#2c5967" stroke="none" stroke-width="0.5"/>
  </g>
</svg>