<svg xmlns="http://www.w3.org/2000/svg" viewBox="0 0 84.0 93.0000000000002" width="84" height="93">
  <g transform="translate(13.00,1.00) scale(0.8200,0.4600)">
    <path d="M 98.78 100 C 97,99.99 95.27,98.88 93.9,96.85 C 93.71,96.47 93.46,96.16 93.19,95.96 C 92.93,95.76 92.63,95.67 92.34,95.68 C 91.66,95.68 91.49,95.68 90.8,96.81 C 89.45,98.87 87.72,100 85.93,100 C 84.14,99.99 82.42,98.87 81.05,96.85 C 80.37,95.9 80.2,95.68 79.51,95.68 C 79.22,95.67 78.93,95.76 78.66,95.95 C 78.4,96.14 78.15,96.43 77.95,96.81 C 76.59,98.87 74.86,100 73.07,100 C 71.29,99.99 69.56,98.88 68.2,96.85 C 68,96.47 67.76,96.16 67.49,95.96 C 67.22,95.76 66.93,95.67 66.63,95.68 C 65.95,95.68 65.78,95.68 65.1,96.81 C 63.74,98.87 62.01,100 60.22,100 C 58.44,100 56.71,98.88 55.34,96.85 C 54.63,95.9 54.46,95.68 53.78,95.68 C 53.1,95.68 52.93,95.68 52.24,96.81 C 50.89,98.87 49.16,100 47.37,100 C 45.58,99.99 43.86,98.88 42.49,96.85 C 41.81,95.9 41.63,95.68 40.95,95.68 C 40.66,95.66 40.38,95.75 40.11,95.95 C 39.85,96.14 39.61,96.43 39.41,96.81 C 38.02,98.86 36.26,99.98 34.45,99.98 C 32.64,99.98 30.88,98.86 29.49,96.81 C 29.29,96.42 29.05,96.12 28.78,95.92 C 28.51,95.72 28.22,95.62 27.93,95.64 C 27.64,95.63 27.36,95.72 27.09,95.91 C 26.83,96.11 26.59,96.4 26.39,96.76 C 25.03,98.82 23.3,99.96 21.51,99.95 C 19.72,99.98 17.98,98.85 16.63,96.76 C 16.43,96.39 16.19,96.1 15.92,95.91 C 15.65,95.71 15.36,95.62 15.07,95.64 C 14.39,95.64 14.22,95.64 13.54,96.76 C 12.18,98.82 10.45,99.96 8.66,99.95 C 6.87,99.95 5.15,98.83 3.78,96.81 C 3.1,95.86 2.93,95.64 2.24,95.64 L 0 95.64 L 0 74.06 L 1.22 74.06 C 3,74.07 4.73,75.18 6.1,77.21 C 6.78,78.12 6.98,78.37 7.66,78.37 C 8.34,78.37 8.51,78.12 9.2,77.21 C 10.56,75.16 12.29,74.05 14.07,74.06 C 15.86,74.06 17.59,75.17 18.95,77.21 C 19.66,78.12 19.83,78.37 20.51,78.37 C 21.2,78.37 21.37,78.12 22.05,77.21 L 22.95 76.09 L 22.95 66.9 L 0 66.9 L 0 45.32 L 3.24 45.32 C 18.29,45.32 23.17,15.36 23.17,5.05 L 23.17 0 L 28.85 0 L 28.85 5.05 C 28.95,13.6 30.36,21.94 32.93,29.18 C 34.82,34.22 37.42,38.3 40.48,41.01 C 43.54,43.71 46.95,44.95 50.37,44.58 C 53.77,44.87 57.15,43.52 60.15,40.69 C 63.16,37.85 65.68,33.64 67.44,28.48 C 69.84,21.38 71.19,13.32 71.37,5.05 L 71.37 0 L 77.07 0 L 77.07 5.05 C 77.07,15.36 81.95,45.32 96.98,45.32 L 100 45.32 L 100 66.9 L 77.24 66.9 L 77.24 74.53 C 77.91,74.24 78.59,74.09 79.27,74.1 C 81.06,74.09 82.79,75.21 84.15,77.25 C 84.83,78.16 85.02,78.42 85.71,78.42 C 86.39,78.42 86.56,78.16 87.24,77.25 C 88.64,75.22 90.39,74.11 92.2,74.11 C 94,74.11 95.75,75.22 97.15,77.25 C 97.85,78.16 98.03,78.42 98.71,78.42 L 99.93 78.42 L 99.93 100 L 98.78 100 L 98.78 100" fill="#FFFFFF" stroke="none" stroke-width="0.5"/>
  </g>
  <g transform="translate(12.00,0.00) scale(0.8400,0.4800)">
    <path d="M 75.41 4.14 L 75.41 6.91 C 75.41,17.33 80.48,47.56 96.02,47.56 L 97.62 47.56 L 97.62 64.1 L 75.41 64.1 L 75.41 76.51 C 76.37,75.54 77.46,75.07 78.57,75.14 C 80.08,75.11 81.55,76.04 82.69,77.75 C 83.3,78.73 84.09,79.27 84.92,79.27 C 85.74,79.27 86.54,78.73 87.14,77.75 C 88.29,76.04 89.75,75.11 91.26,75.14 C 92.78,75.11 94.25,76.04 95.41,77.75 C 96,78.75 96.79,79.3 97.62,79.28 L 97.62 95.82 C 96.1,95.85 94.64,94.9 93.5,93.17 C 92.9,92.18 92.09,91.65 91.26,91.68 C 90.85,91.67 90.45,91.79 90.07,92.04 C 89.69,92.3 89.34,92.69 89.05,93.17 C 87.9,94.88 86.43,95.82 84.92,95.82 C 83.4,95.82 81.94,94.88 80.79,93.17 C 80.49,92.69 80.14,92.3 79.76,92.04 C 79.38,91.79 78.98,91.67 78.57,91.68 C 77.74,91.65 76.94,92.18 76.33,93.17 C 75.19,94.88 73.72,95.82 72.21,95.82 C 70.7,95.82 69.24,94.88 68.1,93.17 C 67.49,92.21 66.69,91.68 65.87,91.68 C 65.05,91.68 64.25,92.21 63.64,93.17 C 62.5,94.9 61.04,95.84 59.52,95.82 C 58,95.84 56.53,94.9 55.38,93.17 C 54.78,92.21 53.99,91.68 53.17,91.68 C 52.35,91.68 51.56,92.21 50.95,93.17 C 49.8,94.9 48.33,95.84 46.81,95.82 C 45.3,95.84 43.83,94.9 42.69,93.17 C 42.4,92.69 42.05,92.3 41.67,92.04 C 41.29,91.79 40.88,91.67 40.48,91.68 C 39.65,91.65 38.84,92.18 38.24,93.17 C 37.09,94.88 35.63,95.82 34.12,95.82 C 32.61,95.82 31.15,94.88 30,93.17 C 29.39,92.21 28.6,91.68 27.77,91.68 C 26.95,91.68 26.16,92.21 25.55,93.17 C 24.4,94.88 22.94,95.82 21.43,95.82 C 19.92,95.82 18.46,94.88 17.31,93.17 C 16.71,92.18 15.9,91.65 15.07,91.68 C 14.66,91.67 14.26,91.79 13.88,92.04 C 13.5,92.3 13.15,92.69 12.86,93.17 C 11.71,94.88 10.24,95.82 8.73,95.82 C 7.21,95.82 5.75,94.88 4.59,93.17 C 4.3,92.69 3.95,92.3 3.57,92.04 C 3.19,91.79 2.79,91.67 2.38,91.68 L 2.38 75.14 C 3.89,75.11 5.36,76.03 6.5,77.75 C 7.1,78.73 7.9,79.27 8.73,79.27 C 9.55,79.27 10.35,78.73 10.95,77.75 C 12.1,76.04 13.56,75.11 15.07,75.14 C 16.59,75.11 18.06,76.04 19.21,77.75 C 19.51,78.25 19.85,78.64 20.23,78.9 C 20.61,79.16 21.02,79.29 21.43,79.28 C 22.25,79.3 23.05,78.75 23.64,77.75 C 24.07,77.17 24.52,76.66 25,76.22 L 25 64.1 L 2.38 64.1 L 2.38 47.56 L 4.36 47.56 C 19.93,47.56 25,17.33 25,6.91 L 25 4.14 L 28.17 4.14 L 28.17 6.91 C 28.29,15.5 29.74,23.87 32.38,31.14 C 34.33,36.28 37.02,40.43 40.18,43.19 C 43.35,45.95 46.87,47.21 50.41,46.85 C 53.96,47.17 57.49,45.79 60.62,42.88 C 63.76,39.96 66.37,35.62 68.19,30.31 C 70.66,23.19 72.05,15.09 72.21,6.78 L 72.21 4.14 L 75.41 4.14 L 75.41 4.14 M 77.79 0 L 69.83 0 L 69.83 6.91 C 69.66,14.44 68.4,21.78 66.17,28.25 C 64.56,32.94 62.24,36.78 59.46,39.33 C 56.68,41.89 53.55,43.06 50.41,42.72 C 43.12,42.72 37.88,38.21 34.38,28.87 C 31.98,22.29 30.65,14.7 30.55,6.91 L 30.55 0 L 22.62 0 L 22.62 6.91 C 22.62,16.25 18.12,43.42 4.36,43.42 L 0 43.42 L 0 68.24 L 22.62 68.24 L 22.62 73.94 L 22.21 74.44 C 21.69,75.14 21.69,75.14 21.43,75.14 C 21.17,75.14 21.17,75.14 20.64,74.44 C 19.08,72.19 17.1,70.97 15.07,71.01 C 13.05,70.97 11.08,72.19 9.52,74.44 C 9,75.14 9,75.14 8.74,75.14 C 8.48,75.14 8.48,75.14 7.93,74.44 C 6.37,72.19 4.41,70.97 2.38,71.01 L 0 71.01 L 0 95.82 L 2.38 95.82 C 2.64,95.82 2.64,95.82 3.17,96.48 C 4.72,98.76 6.7,100 8.74,99.96 C 10.77,99.99 12.74,98.76 14.29,96.48 C 14.81,95.82 14.81,95.82 15.07,95.82 C 15.33,95.82 15.33,95.82 15.86,96.48 C 17.42,98.76 19.39,99.99 21.43,99.96 C 23.46,100 25.43,98.76 26.98,96.48 C 27.5,95.82 27.5,95.82 27.76,95.82 C 28.02,95.82 28.05,95.82 28.57,96.48 C 30.13,98.73 32.09,99.96 34.12,99.96 C 36.14,99.96 38.11,98.73 39.67,96.48 C 40.21,95.82 40.21,95.82 40.48,95.82 C 40.74,95.82 40.74,95.82 41.26,96.48 C 42.83,98.72 44.79,99.95 46.82,99.95 C 48.85,99.95 50.82,98.72 52.38,96.48 C 52.91,95.82 52.91,95.82 53.17,95.82 C 53.43,95.82 53.43,95.82 53.95,96.48 C 55.52,98.72 57.48,99.95 59.51,99.95 C 61.54,99.95 63.51,98.72 65.07,96.48 C 65.6,95.82 65.6,95.82 65.86,95.82 C 66.12,95.82 66.12,95.82 66.67,96.48 C 68.23,98.73 70.19,99.96 72.21,99.96 C 74.24,99.96 76.2,98.73 77.76,96.48 C 78.31,95.82 78.31,95.82 78.57,95.82 C 78.83,95.82 78.83,95.82 79.36,96.48 C 80.92,98.72 82.89,99.95 84.92,99.95 C 86.95,99.95 88.91,98.72 90.48,96.48 C 91,95.82 91,95.82 91.26,95.82 C 91.52,95.82 91.52,95.82 92.07,96.48 C 93.62,98.76 95.59,100 97.62,99.96 L 100 99.96 L 100 75.14 L 97.62 75.14 C 97.36,75.14 97.36,75.14 96.83,74.44 C 95.26,72.22 93.3,71.01 91.27,71.01 C 89.25,71.01 87.29,72.22 85.71,74.44 C 85.19,75.14 85.19,75.14 84.93,75.14 C 84.67,75.14 84.64,75.14 84.12,74.44 C 82.56,72.19 80.6,70.97 78.57,71.01 L 77.79 71.01 L 77.79 68.24 L 100 68.24 L 100 43.42 L 96.02 43.42 C 82.26,43.42 77.79,16.25 77.79,6.91 L 77.79 0 L 77.79 0" fill="#FFFFFF" stroke="none" stroke-width="0.5"/>
  </g>
  <g transform="translate(14.00,28.00) scale(0.8000,0.1200)">
    <path d="M 0 20.99 L 23.75 20.99 L 23.75 67.25 C 23.25,68.94 22.77,70.9 22.32,73.1 C 21.7,76.91 20.87,79.01 20,78.94 C 19.57,78.99 19.14,78.5 18.74,77.5 C 18.34,76.49 17.98,74.99 17.67,73.1 C 16.46,66.57 14.92,63.04 13.32,63.15 C 11.74,63.03 10.2,66.57 9,73.1 C 8.37,76.83 7.53,78.91 6.66,78.91 C 5.79,78.91 4.96,76.83 4.32,73.1 C 3.13,66.55 1.59,63.01 0,63.15 L 0 84.14 C 0.87,84.07 1.7,86.17 2.32,89.99 C 3.54,96.43 5.08,99.95 6.66,99.95 C 8.25,99.95 9.78,96.43 11,89.99 C 11.62,86.17 12.46,84.07 13.32,84.14 C 14.2,84.07 15.04,86.17 15.68,89.99 C 16.89,96.41 18.42,99.93 20,99.93 C 21.58,99.93 23.11,96.41 24.32,89.99 C 24.96,86.25 25.79,84.17 26.66,84.17 C 27.53,84.17 28.37,86.25 29,89.99 C 30.21,96.41 31.74,99.93 33.32,99.93 C 34.91,99.93 36.44,96.41 37.65,89.99 C 38.28,86.17 39.13,84.07 40,84.14 C 40.87,84.07 41.7,86.17 42.32,89.99 C 43.53,96.44 45.07,99.96 46.65,99.93 C 48.24,99.96 49.78,96.44 51,89.99 C 51.63,86.22 52.46,84.13 53.32,84.13 C 54.19,84.13 55.02,86.22 55.65,89.99 C 56.87,96.44 58.41,99.96 60,99.93 C 61.58,99.96 63.12,96.44 64.32,89.99 C 64.96,86.25 65.79,84.17 66.66,84.17 C 67.53,84.17 68.37,86.25 69,89.99 C 70.21,96.41 71.74,99.93 73.32,99.93 C 74.91,99.93 76.44,96.41 77.65,89.99 C 78.28,86.17 79.13,84.07 80,84.14 C 80.87,84.07 81.7,86.17 82.33,89.99 C 83.54,96.43 85.08,99.95 86.66,99.95 C 88.25,99.95 89.78,96.43 91,89.99 C 91.62,86.17 92.46,84.07 93.33,84.14 C 94.2,84.07 95.04,86.17 95.68,89.99 C 96.88,96.47 98.42,100 100,99.93 L 100 78.94 C 99.13,79.01 98.3,76.91 97.68,73.1 C 96.46,66.57 94.92,63.04 93.33,63.15 C 91.74,63.03 90.2,66.57 89,73.1 C 88.37,76.83 87.53,78.91 86.66,78.91 C 85.79,78.91 84.96,76.83 84.32,73.1 C 83.12,66.57 81.59,63.03 80,63.15 C 78.83,62.96 77.68,64.87 76.68,68.68 L 76.68 21.31 L 100 21.31 L 100 0 L 0 0 L 0 20.99 L 0 20.99 M 73.32 78.94 C 72.46,79.01 71.62,76.91 71,73.1 C 69.78,66.66 68.25,63.13 66.66,63.13 C 65.08,63.13 63.54,66.66 62.32,73.1 C 61.7,76.91 60.87,79.01 60,78.94 C 59.13,79.01 58.28,76.92 57.65,73.1 C 56.44,66.67 54.91,63.15 53.32,63.15 C 51.74,63.15 50.21,66.67 49,73.1 C 48.37,76.83 47.53,78.91 46.66,78.91 C 45.79,78.91 44.96,76.83 44.32,73.1 C 43.12,66.57 41.59,63.03 40,63.15 C 38.41,63.04 36.86,66.57 35.65,73.1 C 35.34,74.99 34.98,76.49 34.58,77.5 C 34.18,78.5 33.76,78.99 33.32,78.94 C 32.46,79.01 31.62,76.91 31,73.1 C 29.9,67.21 28.52,63.77 27.07,63.31 L 27.07 20.99 L 73.32 20.99 L 73.32 78.94 L 73.32 78.94" fill="#2c5967" stroke="none" stroke-width="0.5"/>
  </g>
  <g transform="translate(14.00,2.00) scale(0.8000,0.2300)">
    <path d="M 98.33 88.75 C 82,88.75 76.68,26.96 76.68,5.66 L 76.68 0 L 73.32 0 L 73.32 5.66 C 73.15,22.65 71.7,39.21 69.1,53.76 C 67.19,64.6 64.44,73.48 61.15,79.44 C 57.86,85.4 54.15,88.21 50.43,87.57 C 46.71,88.31 43.01,85.72 39.69,80.08 C 36.37,74.45 33.54,65.95 31.5,55.45 C 28.73,40.59 27.2,23.48 27.07,5.92 L 27.07 0 L 23.75 0 L 23.75 5.66 C 23.75,26.96 18.42,88.75 2.08,88.75 L 0 88.75 L 0 100 L 100 100 L 100 88.75 L 98.33 88.75 L 98.33 88.75 M 23.75 88.75 L 13.95 88.75 C 17.08,81.86 19.73,72.74 21.72,62.04 C 22.47,58.03 23.14,53.88 23.75,49.62 L 23.75 88.75 L 23.75 88.75 M 27.07 88.75 L 27.07 51.73 C 27.57,55.04 28.11,58.25 28.7,61.37 C 30.9,72.88 33.93,82.3 37.5,88.75 L 27.07 88.75 L 27.07 88.75 M 73.32 88.75 L 62.93 88.75 C 66.64,81.91 69.75,71.88 71.95,59.68 C 72.45,56.8 72.93,53.93 73.32,51.22 L 73.32 88.75 L 73.32 88.75 M 76.68 88.75 L 76.68 49.62 C 77.26,53.92 77.94,58.07 78.7,62.04 C 80.68,72.74 83.32,81.86 86.45,88.75 L 76.68 88.75 L 76.68 88.75" fill="#2c5967" stroke="none" stroke-width="0.5"/>
  </g>
  <g transform="translate(14.00,41.00) scale(0.8000,0.0400)">
    <path d="M 93.33 0.27 C 91.74,0.09 90.2,9.75 89,27.47 C 88.36,37.36 87.53,42.85 86.66,42.85 C 85.8,42.85 84.97,37.36 84.32,27.47 C 83.13,9.75 81.59,0.09 80,0.27 C 78.4,0.09 76.86,9.75 75.65,27.47 C 75.02,37.34 74.19,42.8 73.32,42.8 C 72.46,42.8 71.64,37.34 71,27.47 C 69.79,9.91 68.25,0.25 66.66,0.25 C 65.07,0.25 63.53,9.91 62.32,27.47 C 62.02,32.49 61.65,36.44 61.25,39.05 C 60.85,41.69 60.43,42.96 60,42.78 C 59.13,43.16 58.28,37.65 57.65,27.47 C 56.45,9.93 54.91,0.29 53.32,0.29 C 51.74,0.29 50.2,9.93 49,27.47 C 48.36,37.36 47.53,42.85 46.66,42.85 C 45.8,42.85 44.97,37.36 44.32,27.47 C 43.13,9.75 41.59,0.09 40,0.27 C 38.4,0.09 36.86,9.75 35.65,27.47 C 35.34,32.54 34.98,36.51 34.58,39.12 C 34.18,41.75 33.75,43 33.32,42.78 C 32.9,42.96 32.47,41.69 32.07,39.05 C 31.67,36.44 31.31,32.49 31,27.47 C 29.79,9.91 28.25,0.25 26.66,0.25 C 25.07,0.25 23.53,9.91 22.32,27.47 C 22.02,32.49 21.65,36.44 21.25,39.05 C 20.85,41.69 20.43,42.96 20,42.78 C 19.57,43 19.15,41.75 18.75,39.12 C 18.35,36.51 17.98,32.54 17.67,27.47 C 16.47,9.75 14.92,0.09 13.32,0.27 C 11.74,0.09 10.2,9.75 9,27.47 C 8.37,37.54 7.54,43.05 6.67,42.78 C 5.8,43.16 4.96,37.65 4.32,27.47 C 3.13,9.69 1.59,0 0,0.27 L 0 57.22 C 0.43,57.04 0.85,58.31 1.25,60.95 C 1.65,63.56 2.02,67.51 2.32,72.53 C 3.53,90.09 5.07,99.75 6.66,99.75 C 8.25,99.75 9.79,90.09 11,72.53 C 11.31,67.51 11.67,63.56 12.07,60.95 C 12.47,58.31 12.9,57.04 13.32,57.22 C 14.2,56.84 15.04,62.35 15.68,72.53 C 16.88,90.07 18.41,99.71 20,99.71 C 21.59,99.71 23.12,90.07 24.32,72.53 C 24.96,62.64 25.8,57.17 26.66,57.17 C 27.53,57.17 28.36,62.64 29,72.53 C 30.2,90.07 31.74,99.71 33.32,99.71 C 34.91,99.71 36.44,90.07 37.65,72.53 C 38.28,62.35 39.13,56.84 40,57.22 C 40.43,57.04 40.85,58.31 41.25,60.95 C 41.65,63.56 42.02,67.51 42.32,72.53 C 43.52,90.25 45.06,99.91 46.65,99.73 C 48.25,99.91 49.79,90.25 51,72.53 C 51.64,62.66 52.46,57.2 53.32,57.2 C 54.19,57.2 55.02,62.66 55.65,72.53 C 56.86,90.25 58.4,99.91 60,99.73 C 61.59,99.91 63.13,90.25 64.32,72.53 C 64.97,62.64 65.8,57.17 66.66,57.17 C 67.53,57.17 68.36,62.64 69,72.53 C 70.2,90.07 71.74,99.71 73.32,99.71 C 74.91,99.71 76.45,90.07 77.65,72.53 C 78.28,62.35 79.13,56.84 80,57.22 C 80.43,57.04 80.85,58.31 81.25,60.95 C 81.65,63.56 82.02,67.51 82.33,72.53 C 83.53,90.09 85.07,99.75 86.66,99.75 C 88.25,99.75 89.79,90.09 91,72.53 C 91.31,67.51 91.67,63.56 92.07,60.95 C 92.47,58.31 92.9,57.04 93.33,57.22 C 94.2,56.84 95.04,62.35 95.68,72.53 C 96.87,90.31 98.41,100 100,99.73 L 100 42.78 C 99.57,42.96 99.15,41.69 98.75,39.05 C 98.35,36.44 97.98,32.49 97.68,27.47 C 96.47,9.75 94.92,0.09 93.33,0.27 L 93.33 0.27" fill="#2c5967" stroke="none" stroke-width="0.5"/>
  </g>
</svg>