<svg xmlns="http://www.w3.org/2000/svg" viewBox="0 0 84.0 119.00000000000027" width="84" height="119">
  <g transform="translate(9.00,26.00) scale(0.8200,0.4600)">
    <path d="M 98.78 100 C 96.99,99.99 95.26,98.88 93.91,96.85 C 93.21,95.94 93.02,95.68 92.34,95.68 C 91.65,95.68 91.49,95.94 90.81,96.85 C 89.4,98.89 87.64,100 85.84,100 C 84.03,100 82.28,98.89 80.87,96.85 C 80.19,95.94 80.03,95.68 79.33,95.68 C 78.66,95.68 78.46,95.94 77.78,96.85 C 76.39,98.88 74.64,100 72.83,100 C 71.02,100 69.27,98.88 67.87,96.85 C 67.2,95.94 67,95.68 66.31,95.68 C 65.63,95.68 65.47,95.94 64.78,96.85 C 63.38,98.88 61.64,100 59.83,100 C 58.02,100 56.27,98.88 54.88,96.85 C 54.17,95.94 53.99,95.68 53.32,95.68 C 52.64,95.68 52.46,95.94 51.78,96.85 C 50.38,98.89 48.63,100 46.81,100 C 45.01,100 43.25,98.89 41.86,96.85 C 41.17,95.94 41,95.68 40.32,95.68 C 39.63,95.68 39.44,95.94 38.76,96.85 C 37.36,98.88 35.61,100 33.8,100 C 32,100 30.24,98.88 28.86,96.85 C 28.17,95.94 27.98,95.68 27.3,95.68 C 26.61,95.68 26.44,95.94 25.76,96.85 C 24.37,98.88 22.61,100 20.81,100 C 19,100 17.25,98.88 15.85,96.85 C 15.17,95.94 14.98,95.68 14.29,95.68 C 13.61,95.68 13.44,95.94 12.75,96.85 C 11.4,98.88 9.67,99.99 7.87,100 C 6.09,99.99 4.37,98.87 3.01,96.85 C 2.32,95.94 2.15,95.68 1.47,95.68 L 0 95.68 L 0 74.1 L 1.22 74.1 C 3.01,74.1 4.74,75.22 6.09,77.25 C 6.79,78.16 6.98,78.42 7.66,78.42 C 8.35,78.42 8.51,78.16 9.19,77.25 C 10.59,75.22 12.34,74.11 14.15,74.11 C 15.95,74.11 17.71,75.22 19.1,77.25 C 19.81,78.16 19.97,78.42 20.67,78.42 C 21.34,78.42 21.51,78.16 22.2,77.25 L 23.1 76.13 L 23.1 66.89 L 0 66.89 L 0 45.32 L 3.25 45.32 C 18.3,45.32 23.18,15.36 23.18,5.05 L 23.18 0 L 28.86 0 L 28.86 5.05 C 28.95,13.6 30.36,21.94 32.93,29.18 C 34.81,34.23 37.41,38.32 40.47,41.03 C 43.53,43.74 46.95,44.98 50.37,44.63 C 53.76,44.9 57.14,43.54 60.15,40.7 C 63.16,37.86 65.67,33.64 67.44,28.48 C 69.85,21.38 71.19,13.32 71.37,5.05 L 71.37 0 L 77.07 0 L 77.07 5.05 C 77.07,15.36 81.95,45.32 96.98,45.32 L 100 45.32 L 100 66.89 L 77.25 66.89 L 77.25 74.53 C 77.9,74.24 78.58,74.09 79.27,74.1 C 81.05,74.11 82.78,75.22 84.15,77.25 C 84.83,78.16 85.02,78.42 85.69,78.42 C 86.34,78.42 86.56,78.16 87.25,77.25 C 88.63,75.22 90.38,74.11 92.19,74.11 C 93.99,74.11 95.75,75.22 97.14,77.25 C 97.85,78.16 98.02,78.42 98.71,78.42 L 99.92 78.42 L 99.92 100 L 98.78 100 L 98.78 100" fill="#FFFFFF" stroke="none" stroke-width="0.5"/>
  </g>
  <g transform="translate(8.00,25.00) scale(0.8400,0.4800)">
    <path d="M 75.4 4.21 L 75.4 6.97 C 75.4,17.37 80.48,47.52 96.03,47.52 L 97.62 47.52 L 97.62 64.03 L 75.4 64.03 L 75.4 76.4 C 76.38,75.49 77.48,75.08 78.57,75.21 C 80.08,75.18 81.55,76.1 82.69,77.8 C 83.3,78.78 84.09,79.33 84.91,79.33 C 85.74,79.33 86.54,78.78 87.14,77.8 C 88.29,76.1 89.75,75.18 91.26,75.21 C 92.78,75.18 94.25,76.1 95.4,77.8 C 96,78.8 96.79,79.35 97.62,79.33 L 97.62 95.83 C 96.11,95.85 94.65,94.93 93.5,93.23 C 92.9,92.24 92.1,91.69 91.26,91.71 C 90.44,91.69 89.64,92.24 89.05,93.23 C 87.89,94.91 86.43,95.84 84.91,95.84 C 83.4,95.84 81.94,94.91 80.79,93.23 C 80.19,92.24 79.4,91.69 78.57,91.71 C 77.74,91.69 76.94,92.24 76.34,93.23 C 75.18,94.91 73.73,95.83 72.21,95.83 C 70.71,95.83 69.25,94.91 68.1,93.23 C 67.49,92.26 66.7,91.71 65.88,91.71 C 65.04,91.71 64.25,92.26 63.64,93.23 C 62.49,94.92 61.02,95.84 59.52,95.83 C 58.01,95.84 56.54,94.92 55.38,93.23 C 54.79,92.25 53.99,91.7 53.16,91.7 C 52.34,91.7 51.55,92.25 50.95,93.23 C 49.79,94.92 48.33,95.84 46.81,95.83 C 45.3,95.84 43.84,94.92 42.69,93.23 C 42.1,92.24 41.3,91.69 40.48,91.71 C 39.64,91.69 38.84,92.24 38.24,93.23 C 37.09,94.91 35.63,95.83 34.13,95.83 C 32.61,95.83 31.15,94.91 30,93.23 C 29.4,92.26 28.6,91.71 27.78,91.71 C 26.95,91.71 26.15,92.26 25.55,93.23 C 24.4,94.91 22.94,95.83 21.43,95.83 C 19.93,95.83 18.46,94.91 17.31,93.23 C 16.71,92.24 15.9,91.69 15.07,91.71 C 14.25,91.69 13.45,92.24 12.86,93.23 C 11.7,94.91 10.24,95.84 8.73,95.84 C 7.21,95.84 5.75,94.91 4.6,93.23 C 4,92.24 3.21,91.69 2.38,91.71 L 2.38 75.21 C 3.89,75.17 5.36,76.09 6.5,77.8 C 7.1,78.78 7.9,79.33 8.73,79.33 C 9.55,79.33 10.35,78.78 10.95,77.8 C 12.1,76.1 13.56,75.18 15.07,75.21 C 16.59,75.18 18.06,76.1 19.21,77.8 C 19.5,78.3 19.85,78.69 20.24,78.95 C 20.61,79.22 21.03,79.34 21.43,79.33 C 22.25,79.35 23.05,78.8 23.64,77.8 C 24.08,77.24 24.52,76.73 25,76.28 L 25 64.03 L 2.38 64.03 L 2.38 47.52 L 4.36 47.52 C 19.93,47.52 25,17.37 25,6.97 L 25 4.21 L 28.16 4.21 L 28.16 6.97 C 28.29,15.54 29.74,23.89 32.38,31.15 C 34.33,36.28 37.01,40.44 40.18,43.2 C 43.34,45.96 46.86,47.23 50.4,46.86 C 53.95,47.18 57.49,45.8 60.63,42.9 C 63.75,39.99 66.38,35.66 68.19,30.36 C 70.66,23.26 72.05,15.18 72.21,6.89 L 72.21 4.13 L 75.4 4.13 M 77.79 0 L 69.84 0 L 69.84 6.89 C 69.66,14.4 68.4,21.72 66.16,28.18 C 64.56,32.87 62.24,36.7 59.46,39.26 C 56.68,41.81 53.55,42.99 50.4,42.66 C 47.26,43.03 44.13,41.95 41.31,39.52 C 38.49,37.09 36.1,33.4 34.38,28.84 C 31.97,22.26 30.65,14.67 30.55,6.89 L 30.55 0.08 L 22.62 0.08 L 22.62 6.97 C 22.62,16.3 18.13,43.4 4.36,43.4 L 0 43.4 L 0 68.15 L 22.62 68.15 L 22.62 73.84 L 22.21 74.34 C 21.69,75.21 21.69,75.21 21.43,75.21 C 21.16,75.21 21.16,75.21 20.64,74.5 C 19.08,72.29 17.11,71.08 15.09,71.08 C 13.06,71.08 11.1,72.29 9.52,74.5 C 9,75.21 9,75.21 8.74,75.21 C 8.47,75.21 8.47,75.21 7.93,74.5 C 6.37,72.26 4.4,71.05 2.38,71.08 L 0 71.08 L 0 95.83 L 2.38 95.83 C 2.64,95.83 2.64,95.83 3.16,96.49 C 4.72,98.77 6.7,100 8.74,99.96 C 10.78,99.94 12.74,98.67 14.29,96.37 C 14.81,95.67 14.81,95.67 15.07,95.67 C 15.34,95.67 15.34,95.67 15.86,96.33 C 17.43,98.56 19.39,99.77 21.41,99.77 C 23.45,99.77 25.41,98.56 26.98,96.33 C 27.5,95.63 27.5,95.63 27.76,95.63 C 28.03,95.63 28.05,95.63 28.58,96.33 C 30.14,98.54 32.1,99.75 34.13,99.75 C 36.14,99.75 38.1,98.54 39.66,96.33 C 40.21,95.63 40.21,95.63 40.48,95.63 C 40.74,95.63 40.74,95.63 41.26,96.33 C 42.84,98.54 44.8,99.75 46.83,99.75 C 48.85,99.75 50.81,98.54 52.38,96.33 C 52.9,95.63 52.9,95.63 53.16,95.63 C 53.43,95.63 53.43,95.63 53.95,96.33 C 55.53,98.54 57.49,99.75 59.51,99.75 C 61.54,99.75 63.5,98.54 65.08,96.33 C 65.6,95.63 65.6,95.63 65.86,95.63 C 66.13,95.63 66.13,95.63 66.66,96.33 C 68.24,98.54 70.19,99.75 72.21,99.75 C 74.24,99.75 76.2,98.54 77.76,96.33 C 78.31,95.63 78.31,95.63 78.57,95.63 C 78.84,95.63 78.84,95.63 79.36,96.33 C 80.93,98.54 82.89,99.75 84.91,99.75 C 86.94,99.75 88.9,98.54 90.48,96.33 C 91,95.63 91,95.63 91.26,95.63 C 91.53,95.63 91.53,95.63 92.08,96.33 C 93.61,98.65 95.58,99.93 97.62,99.96 L 100 99.96 L 100 75.21 L 97.62 75.21 C 97.36,75.21 97.36,75.21 96.84,74.5 C 95.26,72.29 93.3,71.08 91.28,71.08 C 89.25,71.08 87.29,72.29 85.71,74.5 C 85.19,75.21 85.19,75.21 84.9,75.21 C 84.63,75.21 84.64,75.21 84.13,74.5 C 82.56,72.27 80.6,71.05 78.57,71.08 L 77.79 71.08 L 77.79 68.28 L 100 68.28 L 100 43.52 L 96.03 43.52 C 82.26,43.52 77.79,16.42 77.79,7.1 L 77.79 0.08 L 77.79 0 L 77.79 0" fill="#FFFFFF" stroke="none" stroke-width="0.5"/>
  </g>
  <g transform="translate(32.00,1.00) scale(0.3400,0.3300)">
    <path d="M 82.19 100 C 77.47,100 72.96,98.02 69.62,94.49 C 66.29,90.96 64.42,86.17 64.42,81.18 C 64.42,74.1 72.5,52.96 75.95,44.53 L 77.68 40.07 L 62.63 40.07 C 61.39,42.48 59.57,44.5 57.36,45.9 C 55.12,47.3 52.57,48.05 50,48.05 C 47.43,48.05 44.88,47.3 42.64,45.9 C 40.43,44.5 38.61,42.48 37.37,40.07 L 22.26 40.07 L 23.99 44.53 C 27.5,53.27 35.52,74.4 35.52,81.18 C 35.52,86.17 33.65,90.96 30.31,94.49 C 26.98,98.02 22.47,100 17.75,100 C 13.05,100 8.51,98.02 5.18,94.49 C 1.85,90.96 0,86.17 0,81.18 C 0,74.1 8.06,52.96 11.54,44.53 L 13.36 39.71 L 9.63 39.71 C 8.69,39.8 7.75,39.68 6.84,39.37 C 5.97,39.05 5.15,38.54 4.45,37.87 C 3.76,37.2 3.21,36.39 2.82,35.48 C 2.45,34.57 2.24,33.58 2.24,32.59 C 2.24,31.6 2.45,30.61 2.82,29.7 C 3.21,28.79 3.76,27.98 4.45,27.31 C 5.15,26.64 5.97,26.13 6.84,25.81 C 7.75,25.5 8.69,25.38 9.63,25.47 L 37.19 25.47 C 38.46,22.74 40.46,20.46 42.97,18.94 L 42.97 0 L 56.45 0 L 56.45 19 C 58.96,20.52 60.96,22.8 62.24,25.53 L 90.37 25.53 C 91.34,25.4 92.31,25.49 93.22,25.78 C 94.12,26.08 95,26.58 95.7,27.25 C 96.43,27.92 97,28.74 97.4,29.67 C 97.82,30.6 98,31.6 98,32.62 C 98,33.64 97.82,34.64 97.4,35.57 C 97,36.5 96.43,37.32 95.7,37.99 C 95,38.66 94.12,39.16 93.22,39.46 C 92.31,39.76 91.34,39.84 90.37,39.71 L 86.64 39.71 L 88.43 44.17 C 91.88,52.9 99.97,74.04 99.97,80.82 C 100,83.32 99.58,85.81 98.7,88.13 C 97.82,90.46 96.52,92.57 94.88,94.36 C 93.22,96.15 91.25,97.56 89.07,98.53 C 86.89,99.5 84.55,100 82.19,100 L 82.19 100" fill="#FFFFFF" stroke="none" stroke-width="0.5"/>
  </g>
  <g transform="translate(31.00,0.00) scale(0.3600,0.3400)">
    <path d="M 53.28 5.77 L 53.28 22.74 C 54.82,23.32 56.23,24.27 57.37,25.51 C 58.52,26.75 59.4,28.24 59.92,29.89 L 87.78 29.89 C 88.29,29.82 88.81,29.87 89.32,30.04 C 89.81,30.2 90.27,30.47 90.64,30.83 C 91.04,31.19 91.35,31.64 91.55,32.14 C 91.78,32.64 91.87,33.18 91.87,33.73 C 91.87,34.28 91.78,34.82 91.55,35.32 C 91.35,35.81 91.04,36.26 90.64,36.62 C 90.27,36.99 89.81,37.26 89.32,37.42 C 88.81,37.58 88.29,37.63 87.78,37.56 L 80.16 37.56 L 83.42 45.76 C 85.23,50.26 94.33,73.05 94.33,79.57 C 94.33,83.52 92.84,87.31 90.21,90.1 C 87.58,92.89 84,94.46 80.25,94.46 C 76.52,94.46 72.95,92.89 70.31,90.1 C 67.68,87.31 66.19,83.52 66.19,79.57 C 66.19,73.05 75.12,50.26 77.1,45.76 L 80.36 37.56 L 60.21 37.56 C 59.4,39.75 58,41.64 56.2,42.97 C 54.37,44.3 52.22,45.01 49.99,45.01 C 47.78,45.01 45.63,44.3 43.8,42.97 C 41.97,41.64 40.6,39.75 39.79,37.56 L 19.61 37.56 L 22.36 45.76 C 24.13,50.26 33.27,73.05 33.27,79.57 C 33.27,83.52 31.78,87.31 29.14,90.1 C 26.48,92.89 22.9,94.46 19.18,94.46 C 15.46,94.46 11.88,92.89 9.25,90.1 C 6.58,87.31 5.12,83.52 5.12,79.57 C 5.12,73.05 14,50.26 16.03,45.76 L 19.3 37.56 L 11.45 37.56 C 10.94,37.63 10.42,37.58 9.91,37.42 C 9.42,37.26 8.96,36.99 8.59,36.62 C 8.19,36.26 7.87,35.81 7.67,35.32 C 7.44,34.82 7.33,34.28 7.33,33.73 C 7.33,33.18 7.44,32.64 7.67,32.14 C 7.87,31.64 8.19,31.19 8.59,30.83 C 8.96,30.47 9.42,30.2 9.91,30.04 C 10.42,29.87 10.94,29.82 11.45,29.89 L 39.31 29.89 C 39.82,28.24 40.71,26.75 41.86,25.51 C 43,24.27 44.4,23.32 45.95,22.74 L 45.95 5.77 L 53.28 5.77 L 53.28 5.77 M 58.72 0 L 40.51 0 L 40.51 19.22 C 38.71,20.52 37.13,22.19 35.93,24.12 L 11.45 24.12 C 9.13,24.22 6.96,25.24 5.35,26.97 C 3.72,28.71 2.78,31.02 2.72,33.46 C 2.63,35.89 3.46,38.27 4.98,40.1 C 6.5,41.93 8.62,43.09 10.91,43.34 C 6.76,53.78 0,72.19 0,79.34 C 0,84.82 2.03,90.08 5.7,93.95 C 9.36,97.82 14.34,100 19.52,100 C 24.68,100 29.66,97.82 33.32,93.95 C 36.99,90.08 39.02,84.82 39.02,79.34 C 39.02,72.36 32.06,53.78 27.86,43.34 L 36.53 43.34 C 38.02,45.64 40.05,47.53 42.4,48.84 C 44.75,50.14 47.35,50.82 49.99,50.82 C 52.65,50.82 55.25,50.14 57.6,48.84 C 59.95,47.53 61.95,45.64 63.47,43.34 L 72.14 43.34 C 67.94,53.78 60.95,72.19 60.95,79.34 C 60.95,84.82 63.01,90.08 66.68,93.95 C 70.34,97.82 75.29,100 80.48,100 C 85.66,100 90.61,97.82 94.27,93.95 C 97.94,90.08 100,84.82 100,79.34 C 100,72.36 93.01,53.78 89.09,43.34 C 91.44,43.08 93.62,41.87 95.16,39.95 C 96.68,38.03 97.42,35.56 97.25,33.05 C 97.08,30.55 96.02,28.22 94.25,26.55 C 92.47,24.88 90.15,24.01 87.78,24.12 L 63.3 24.12 C 62.1,22.19 60.52,20.52 58.72,19.22 L 58.72 0 L 58.72 0" fill="#FFFFFF" stroke="none" stroke-width="0.5"/>
  </g>
  <g transform="translate(10.00,54.00) scale(0.8000,0.1200)">
    <path d="M 0 20.35 L 23.75 20.35 L 23.75 66.57 C 23.25,68.26 22.78,70.21 22.32,72.41 C 22.03,74.41 21.67,76.01 21.27,77.12 C 20.87,78.23 20.45,78.83 20,78.88 C 19.58,78.93 19.15,78.44 18.75,77.44 C 18.35,76.44 17.98,74.95 17.68,73.04 C 16.47,66.52 14.92,62.99 13.33,63.1 C 11.75,62.99 10.21,66.52 9,73.04 C 8.37,76.78 7.53,78.86 6.67,78.86 C 5.8,78.86 4.96,76.78 4.33,73.04 C 3.14,66.5 1.59,62.96 0,63.1 L 0 84.08 C 0.88,84.01 1.71,86.11 2.34,89.92 C 3.54,96.44 5.09,99.97 6.68,99.86 C 8.27,99.94 9.8,96.41 11.01,89.92 C 11.63,86.11 12.47,84.01 13.33,84.08 C 14.2,84.01 15.05,86.1 15.68,89.92 C 16.89,96.34 18.43,99.86 20,99.86 C 21.59,99.86 23.12,96.34 24.33,89.92 C 24.96,86.19 25.8,84.11 26.67,84.11 C 27.53,84.11 28.37,86.19 29,89.92 C 30.21,96.34 31.75,99.86 33.33,99.86 C 34.91,99.86 36.44,96.34 37.65,89.92 C 38.28,86.1 39.12,84.01 40,84.08 C 40.87,84.01 41.71,86.11 42.32,89.92 C 43.53,96.44 45.07,99.98 46.65,99.86 C 48.24,99.97 49.79,96.44 51,89.92 C 51.63,86.16 52.45,84.06 53.32,84.06 C 54.19,84.06 55.03,86.16 55.64,89.92 C 56.86,96.44 58.41,99.97 60,99.86 C 61.59,99.98 63.12,96.44 64.32,89.92 C 64.96,86.19 65.79,84.11 66.67,84.11 C 67.53,84.11 68.36,86.19 69,89.92 C 70.21,96.34 71.75,99.86 73.32,99.86 C 74.91,99.86 76.43,96.34 77.65,89.92 C 78.28,86.1 79.12,84.01 80,84.08 C 80.87,84.01 81.69,86.11 82.32,89.92 C 83.53,96.36 85.07,99.88 86.65,99.88 C 88.24,99.88 89.78,96.36 91,89.92 C 91.61,86.11 92.45,84.01 93.32,84.08 C 94.2,84.01 95.04,86.1 95.67,89.92 C 96.86,96.46 98.41,100 100,99.86 L 100 78.88 C 99.12,78.95 98.29,76.85 97.66,73.04 C 96.46,66.52 94.91,62.99 93.32,63.1 C 91.73,62.99 90.2,66.52 88.99,73.04 C 88.36,76.78 87.52,78.86 86.65,78.86 C 85.79,78.86 84.96,76.78 84.32,73.04 C 83.12,66.52 81.57,62.99 80,63.1 C 78.82,62.95 77.68,64.92 76.67,68.78 L 76.67 21.45 L 100 21.45 L 100 0 L 0 0 L 0 20.35 L 0 20.35 M 27.07 20.35 L 73.32 20.35 L 73.32 78.88 C 72.45,78.95 71.61,76.85 71,73.04 C 69.78,66.61 68.24,63.09 66.67,63.09 C 65.08,63.09 63.54,66.61 62.32,73.04 C 61.71,76.85 60.87,78.95 60,78.88 C 59.12,78.95 58.28,76.86 57.65,73.04 C 56.44,66.62 54.91,63.1 53.32,63.1 C 51.75,63.1 50.21,66.62 49,73.04 C 48.36,76.78 47.53,78.86 46.67,78.86 C 45.8,78.86 44.96,76.78 44.33,73.04 C 43.12,66.52 41.59,62.99 40,63.1 C 38.41,62.99 36.86,66.52 35.66,73.04 C 35.34,74.95 34.99,76.44 34.58,77.44 C 34.19,78.44 33.75,78.93 33.33,78.88 C 32.45,78.95 31.63,76.85 31,73.04 C 29.91,67.1 28.52,63.61 27.07,63.1 L 27.07 20.35 L 27.07 20.35" fill="#2c5967" stroke="none" stroke-width="0.5"/>
  </g>
  <g transform="translate(10.00,27.00) scale(0.8000,0.2300)">
    <path d="M 98.32 88.53 C 81.99,88.53 76.67,26.9 76.67,5.65 L 76.67 0 L 73.32 0 L 73.32 5.65 C 73.15,22.6 71.69,39.11 69.09,53.62 C 67.19,64.44 64.44,73.3 61.15,79.24 C 57.86,85.18 54.15,87.99 50.42,87.35 C 46.71,88.09 43.01,85.51 39.69,79.87 C 36.36,74.23 33.54,65.73 31.5,55.23 C 28.73,40.4 27.2,23.33 27.07,5.82 L 27.07 0.17 L 23.75 0.17 L 23.75 5.82 C 23.75,27.06 18.43,88.7 2.09,88.7 L 0 88.7 L 0 100 L 100 100 L 100 88.53 L 98.32 88.53 L 98.32 88.53 M 23.75 88.53 L 13.95 88.53 C 17.09,81.65 19.74,72.56 21.73,61.89 C 22.47,57.89 23.15,53.75 23.75,49.49 L 23.75 88.53 L 23.75 88.53 M 27.07 88.53 L 27.07 51.6 C 27.57,54.9 28.11,58.1 28.7,61.21 C 30.91,72.69 33.92,82.09 37.51,88.53 L 27.07 88.53 L 27.07 88.53 M 73.32 88.53 L 62.93 88.53 C 66.64,81.73 69.75,71.72 71.94,59.53 C 72.45,56.8 72.9,53.98 73.32,51.09 L 73.32 88.53 L 73.32 88.53 M 76.67 88.53 L 76.67 49.49 C 77.26,53.78 77.94,57.92 78.7,61.89 C 80.68,72.56 83.32,81.65 86.44,88.53 L 76.67 88.53 L 76.67 88.53" fill="#2c5967" stroke="none" stroke-width="0.5"/>
  </g>
  <g transform="translate(10.00,67.00) scale(0.8000,0.0400)">
    <path d="M 93.32 0.37 C 91.73,0.07 90.2,9.47 88.99,26.81 C 88.36,36.75 87.52,42.28 86.65,42.28 C 85.79,42.28 84.96,36.75 84.32,26.81 C 83.12,9.47 81.57,0.07 80,0.37 C 78.4,0.09 76.86,9.47 75.64,26.81 C 75.01,36.81 74.19,42.39 73.32,42.39 C 72.45,42.39 71.63,36.81 71,26.81 C 69.78,9.69 68.24,0.31 66.67,0.31 C 65.08,0.31 63.54,9.69 62.32,26.81 C 61.71,36.95 60.87,42.52 60,42.34 C 59.12,42.54 58.28,36.97 57.65,26.81 C 56.44,9.74 54.91,0.37 53.32,0.37 C 51.75,0.37 50.21,9.74 49,26.81 C 48.36,36.75 47.53,42.28 46.67,42.28 C 45.8,42.28 44.96,36.75 44.33,26.81 C 43.12,9.47 41.59,0.07 40,0.37 C 38.41,0.09 36.86,9.47 35.66,26.81 C 35.34,31.86 34.99,35.84 34.58,38.51 C 34.19,41.18 33.75,42.48 33.33,42.34 C 32.45,42.52 31.63,36.95 31,26.81 C 29.79,9.69 28.25,0.31 26.67,0.31 C 25.08,0.31 23.54,9.69 22.32,26.81 C 21.71,36.95 20.87,42.52 20,42.34 C 19.58,42.48 19.15,41.18 18.75,38.51 C 18.35,35.84 17.98,31.86 17.68,26.81 C 16.47,9.47 14.92,0.09 13.33,0.37 C 11.75,0.07 10.21,9.47 9,26.81 C 8.37,36.75 7.53,42.28 6.67,42.28 C 5.8,42.28 4.96,36.75 4.33,26.81 C 3.14,9.41 1.59,0 0,0.37 L 0 57.85 C 0.88,57.66 1.71,63.25 2.34,73.39 C 3.54,90.5 5.08,99.87 6.67,99.87 C 8.25,99.87 9.79,90.5 11.01,73.39 C 11.63,63.25 12.47,57.66 13.33,57.85 C 14.2,57.66 15.05,63.23 15.68,73.39 C 16.89,90.46 18.43,99.82 20,99.82 C 21.59,99.82 23.12,90.46 24.33,73.39 C 24.96,63.45 25.8,57.92 26.67,57.92 C 27.53,57.92 28.37,63.45 29,73.39 C 30.21,90.46 31.75,99.82 33.33,99.82 C 34.91,99.82 36.44,90.46 37.65,73.39 C 38.28,63.23 39.12,57.66 40,57.85 C 40.87,57.66 41.71,63.25 42.32,73.39 C 43.53,90.53 45.07,99.89 46.65,99.82 C 48.24,99.89 49.78,90.53 51,73.39 C 51.63,63.38 52.45,57.81 53.32,57.81 C 54.19,57.81 55.03,63.38 55.64,73.39 C 56.86,90.53 58.41,99.89 60,99.82 C 61.59,99.89 63.11,90.53 64.32,73.39 C 64.96,63.45 65.79,57.92 66.67,57.92 C 67.53,57.92 68.36,63.45 69,73.39 C 70.21,90.46 71.75,99.82 73.32,99.82 C 74.91,99.82 76.43,90.46 77.65,73.39 C 78.28,63.23 79.12,57.66 80,57.85 C 80.87,57.66 81.69,63.25 82.32,73.39 C 83.53,90.5 85.07,99.87 86.65,99.87 C 88.24,99.87 89.78,90.5 91,73.39 C 91.61,63.25 92.45,57.66 93.32,57.85 C 94.2,57.66 95.04,63.23 95.67,73.39 C 96.88,90.61 98.41,100 100,99.82 L 100 42.34 C 99.12,42.52 98.29,36.95 97.66,26.81 C 96.46,9.47 94.91,0.09 93.32,0.37 L 93.32 0.37" fill="#2c5967" stroke="none" stroke-width="0.5"/>
  </g>
  <g transform="translate(33.00,2.00) scale(0.3200,0.3000)">
    <path d="M 0 83.21 C 0,87.67 1.67,91.94 4.63,95.08 C 7.59,98.23 11.62,100 15.8,100 C 20.01,100 24.03,98.23 26.99,95.08 C 29.95,91.94 31.63,87.67 31.63,83.21 C 31.63,75.86 21.56,50.16 19.37,45.09 L 15.67 35.85 L 38.35 35.85 C 39.25,38.32 40.8,40.44 42.86,41.94 C 44.92,43.44 47.33,44.25 49.81,44.25 C 52.32,44.25 54.73,43.44 56.79,41.94 C 58.82,40.44 60.39,38.32 61.29,35.85 L 83.94 35.85 L 80.63 45.09 C 78.64,50.16 68.37,75.86 68.37,83.21 C 68.37,87.67 70.05,91.94 73.01,95.08 C 76,98.23 80.02,100 84.2,100 C 88.38,100 92.41,98.23 95.37,95.08 C 98.36,91.94 100,87.67 100,83.21 C 100,75.86 90.03,50.16 87.74,45.09 L 84.07 35.85 L 92.89 35.85 C 93.47,35.92 94.08,35.87 94.63,35.69 C 95.17,35.5 95.69,35.2 96.11,34.79 C 96.56,34.38 96.91,33.88 97.14,33.31 C 97.39,32.75 97.52,32.14 97.52,31.52 C 97.52,30.91 97.39,30.29 97.14,29.73 C 96.91,29.17 96.56,28.67 96.11,28.26 C 95.69,27.85 95.17,27.54 94.63,27.36 C 94.08,27.18 93.47,27.12 92.89,27.2 L 61.58 27.2 C 61,25.34 60.01,23.65 58.72,22.25 C 57.43,20.86 55.86,19.79 54.12,19.13 L 54.12 0 L 45.88 0 L 45.88 19.13 C 44.14,19.79 42.57,20.86 41.28,22.25 C 39.99,23.65 39,25.34 38.42,27.2 L 7.11 27.2 C 6.53,27.12 5.95,27.18 5.37,27.36 C 4.83,27.54 4.31,27.85 3.89,28.26 C 3.44,28.67 3.09,29.17 2.86,29.73 C 2.61,30.29 2.51,30.91 2.51,31.52 C 2.51,32.14 2.61,32.75 2.86,33.31 C 3.09,33.88 3.44,34.38 3.89,34.79 C 4.31,35.2 4.83,35.5 5.37,35.69 C 5.95,35.87 6.53,35.92 7.11,35.85 L 15.67 35.85 L 12 45.09 C 9.97,50.16 0,75.86 0,83.21 L 0 83.21 M 91.92 83.21 L 76.61 83.21 C 78.35,74.75 80.89,66.49 84.2,58.56 C 87.52,66.49 90.06,74.75 91.86,83.21 L 91.92 83.21 L 91.92 83.21 M 50 27 C 50.8,27 51.61,27.26 52.28,27.74 C 52.96,28.21 53.47,28.9 53.8,29.69 C 54.12,30.49 54.18,31.36 54.02,32.21 C 53.86,33.06 53.47,33.83 52.9,34.44 C 52.32,35.05 51.61,35.47 50.8,35.64 C 50,35.8 49.2,35.72 48.42,35.39 C 47.68,35.06 47.04,34.5 46.59,33.78 C 46.14,33.06 45.88,32.22 45.88,31.36 C 45.88,30.2 46.33,29.09 47.1,28.28 C 47.88,27.46 48.91,27 50,27 L 50 27 M 15.8 58.56 C 19.11,66.57 21.65,74.92 23.39,83.47 L 8.14 83.47 C 9.91,74.92 12.48,66.57 15.8,58.56 L 15.8 58.56" fill="#2c5967" stroke="none" stroke-width="0.5"/>
  </g>
</svg>