<svg xmlns="http://www.w3.org/2000/svg" viewBox="0 0 64.0 129.0000000000001" width="64" height="129">
  <g transform="translate(9.00,1.00) scale(0.6200,0.8200)">
    <path d="M 18.68 100 L 18.68 96.05 L 24.19 94.08 L 24.19 38.9 L 0 38.9 L 0.32 35.37 C 0.61,32.25 1.94,29.24 4.23,26.62 C 6.5,24 9.62,21.86 13.29,20.4 C 13.92,20.15 14.46,19.8 14.89,19.38 C 15.32,18.96 15.61,18.48 15.76,17.96 C 16.37,15.7 17.7,13.59 19.65,11.81 C 21.58,10.02 24.07,8.62 26.88,7.72 C 29.29,6.93 31.88,6.53 34.5,6.52 C 35.1,6.5 35.7,6.5 36.3,6.52 L 36.76 6.52 C 37.35,6.53 37.97,6.44 38.51,6.26 C 39.08,6.08 39.59,5.81 40,5.48 C 42.16,3.75 44.79,2.37 47.69,1.43 C 50.61,0.49 53.73,0.01 56.9,0.01 C 61.2,0 65.41,0.89 69.06,2.59 C 72.71,4.29 75.66,6.72 77.55,9.62 C 77.88,10.1 78.34,10.51 78.9,10.84 C 79.46,11.17 80.11,11.4 80.79,11.52 C 83.46,12 85.98,12.82 88.27,13.96 C 93.31,16.36 96.96,20.1 98.48,24.44 C 100,28.78 99.28,33.39 96.47,37.34 L 95.28 39.02 L 79.77 39.02 L 79.77 94.08 L 85.11 96.05 L 85.11 100 L 18.68 100 L 18.68 100" fill="#FFFFFF" stroke="none" stroke-width="0.5"/>
  </g>
  <g transform="translate(8.00,0.00) scale(0.6400,0.8400)">
    <path d="M 56.67 2.38 C 60.52,2.37 64.29,3.18 67.57,4.72 C 70.85,6.26 73.5,8.47 75.2,11.1 C 75.65,11.71 76.26,12.23 76.98,12.65 C 77.71,13.06 78.55,13.34 79.44,13.48 C 82.65,14.02 85.63,15.11 88.19,16.67 C 90.74,18.24 92.78,20.23 94.15,22.5 C 95.52,24.76 96.18,27.24 96.06,29.73 C 95.96,32.22 95.11,34.66 93.54,36.85 L 92.82 37.88 L 77.15 37.88 L 77.15 93.85 L 82.32 95.78 L 82.32 97.67 L 21.3 97.67 L 21.3 95.76 L 26.51 93.83 L 26.51 38.11 L 3.38 38.11 L 3.56 36.04 C 3.81,33.16 5.01,30.38 7.09,27.96 C 9.14,25.54 12.01,23.57 15.39,22.25 C 16.18,21.93 16.89,21.47 17.45,20.92 C 17.99,20.37 18.39,19.73 18.59,19.06 C 19.33,16.16 21.37,13.55 24.39,11.67 C 27.39,9.79 31.14,8.77 35.03,8.77 C 35.56,8.74 36.09,8.74 36.6,8.77 L 37.19 8.77 C 38,8.77 38.8,8.65 39.55,8.41 C 40.27,8.17 40.95,7.81 41.49,7.36 C 43.43,5.79 45.79,4.53 48.39,3.68 C 51,2.82 53.81,2.38 56.67,2.38 L 56.67 2.38 M 56.67 0 C 53.39,0 50.14,0.52 47.14,1.52 C 44.14,2.51 41.44,3.97 39.2,5.79 C 38.94,5.99 38.62,6.16 38.28,6.27 C 37.95,6.38 37.57,6.43 37.19,6.43 L 36.91 6.43 L 35.03 6.43 C 30.43,6.42 25.97,7.63 22.39,9.85 C 18.83,12.06 16.38,15.15 15.47,18.58 C 15.41,18.91 15.22,19.23 14.94,19.49 C 14.68,19.76 14.34,19.98 13.94,20.13 C 10.13,21.64 6.89,23.86 4.51,26.6 C 2.16,29.33 0.74,32.47 0.43,35.73 L 0.25 37.8 L 0 40.5 L 23.38 40.5 L 23.38 92.35 L 19.92 93.64 L 18.17 94.28 L 18.17 99.55 L 20.51 100 L 20.89 100 L 85.48 100 L 85.48 94.28 L 83.74 93.64 L 80.33 92.35 L 80.33 40.5 L 94.71 40.5 L 95.58 39.23 L 96.31 38.23 C 99.24,34.08 100,29.23 98.4,24.67 C 96.82,20.11 93.01,16.18 87.74,13.67 C 85.38,12.54 82.76,11.74 80.03,11.29 C 79.58,11.22 79.16,11.08 78.79,10.86 C 78.43,10.65 78.13,10.37 77.94,10.05 C 75.98,7.04 72.94,4.5 69.19,2.72 C 65.41,0.94 61.08,0 56.67,0 L 56.67 0 L 56.67 0" fill="#FFFFFF" stroke="none" stroke-width="0.5"/>
  </g>
  <g transform="translate(22.00,19.00) scale(0.3700,0.6200)">
    <path d="M 0 100 L 8.94 97.42 L 8.94 0 L 91.11 0 L 91.11 97.42 L 100 100 L 0 100 L 0 100" fill="#FFFFFF" stroke="none" stroke-width="0.5"/>
  </g>
  <g transform="translate(21.00,18.00) scale(0.3900,0.6400)">
    <path d="M 86.4 3.13 L 86.4 96.87 L 13.66 96.87 L 13.66 3.13 L 86.4 3.13 L 86.4 3.13 M 91.52 0 L 8.53 0 L 8.53 94.99 L 0 97.53 L 0 100 L 100 100 L 100 97.5 L 91.52 94.96 L 91.52 0 L 91.52 0" fill="#FFFFFF" stroke="none" stroke-width="0.5"/>
  </g>
  <g transform="translate(21.00,18.00) scale(0.3900,0.6400)">
    <path d="M 91.52 94.99 L 91.52 0 L 8.53 0 L 8.53 94.99 L 0 97.53 L 0 100 L 100 100 L 100 97.5 L 91.52 94.99 L 91.52 94.99 M 17.03 5.07 L 83.16 5.07 L 83.16 94.99 L 17.03 94.99 L 17.03 5.07 L 17.03 5.07 M 23.4 8.86 L 76.6 8.86 L 76.6 13.94 L 23.4 13.94 L 23.4 8.86 L 23.4 8.86 M 70.23 17.73 L 29.77 17.73 L 29.77 22.17 L 23.4 22.17 L 23.4 27.25 L 29.77 27.25 L 29.77 31.66 L 70.23 31.66 L 70.23 27.25 L 76.6 27.25 L 76.6 22.17 L 70.23 22.17 L 70.23 17.73 L 70.23 17.73 M 61.7 26.59 L 38.3 26.59 L 38.3 22.8 L 61.7 22.8 L 61.7 26.59 L 61.7 26.59 M 56.11 72.25 L 68.18 86.75 L 57.49 86.75 L 49.8 76.57 L 42.4 86.75 L 31.82 86.75 L 43.99 72.06 L 32.44 58.22 L 43.08 58.22 L 50.26 67.62 L 57.19 58.22 L 67.45 58.22 L 56.11 72.25 L 56.11 72.25 M 31.82 40.49 L 23.4 40.49 L 23.4 35.45 L 31.82 35.45 L 31.82 40.49 L 31.82 40.49 M 46.72 40.49 L 38.3 40.49 L 38.3 35.45 L 46.83 35.45 L 46.72 40.49 L 46.72 40.49 M 61.59 40.49 L 53.17 40.49 L 53.17 35.45 L 61.7 35.45 L 61.59 40.49 L 61.59 40.49 M 68.02 35.42 L 76.49 35.42 L 76.49 40.49 L 68.12 40.49 L 68.02 35.42 L 68.02 35.42 M 32.09 49.36 L 23.4 49.36 L 23.4 44.32 L 31.82 44.32 L 32.09 49.36 L 32.09 49.36 M 38.46 44.28 L 46.96 44.28 L 46.96 49.36 L 38.3 49.36 L 38.46 44.28 L 38.46 44.28 M 53.33 44.28 L 61.86 44.28 L 61.86 49.36 L 53.17 49.36 L 53.33 44.28 L 53.33 44.28 M 68.29 44.28 L 76.76 44.28 L 76.76 49.36 L 68.12 49.36 L 68.29 44.28 L 68.29 44.28" fill="#2d5967" stroke="none" stroke-width="0.5"/>
  </g>
  <g transform="translate(10.00,1.00) scale(0.5900,0.3000)">
    <path d="M 97.16 96.82 L 96.4 99.67 L 82.88 99.67 L 82.88 88.95 L 93.02 88.95 C 94.62,81.49 94.82,73.16 93.59,65.44 C 92.35,57.72 89.75,51.11 86.26,46.79 C 84.59,44.67 82.74,43.17 80.79,42.35 C 79.01,41.6 77.36,40.07 75.92,37.88 C 74.5,35.69 73.35,32.9 72.55,29.71 C 71.32,24.92 69.53,20.78 67.33,17.65 C 65.11,14.51 62.54,12.48 59.84,11.72 C 57.14,10.96 54.39,11.49 51.81,13.28 C 49.24,15.06 46.91,18.04 45.06,21.97 C 43.82,24.57 42.31,26.58 40.61,27.83 C 38.92,29.09 37.09,29.55 35.3,29.18 C 33.17,28.77 31.02,29.46 29.05,31.17 C 27.18,32.78 25.53,35.25 24.27,38.37 C 22.99,41.49 22.12,45.18 21.72,49.1 C 21.36,52.56 20.63,55.82 19.55,58.64 C 18.47,61.45 17.06,63.76 15.48,65.38 C 13.14,67.76 11.1,71.1 9.48,75.17 C 7.87,79.23 6.73,83.93 6.13,88.95 L 21.45 88.95 L 21.45 100 L 0 100 L 0.21 94.24 C 0.46,86.24 1.76,78.5 4,71.79 C 6.23,65.07 9.3,59.6 12.94,55.92 C 13.81,55.02 14.56,53.76 15.16,52.23 C 15.75,50.7 16.18,48.93 16.39,47.05 C 16.92,41.44 18.15,36.17 19.96,31.7 C 21.75,27.22 24.09,23.68 26.76,21.37 C 29.56,18.92 32.65,17.94 35.71,18.52 C 36.67,18.75 37.66,18.51 38.57,17.85 C 39.49,17.18 40.31,16.1 40.98,14.69 C 43.43,9.46 46.5,5.48 49.91,3.1 C 53.32,0.72 56.98,0 60.56,1.01 C 64.15,2.02 67.56,4.73 70.51,8.9 C 73.44,13.07 75.8,18.57 77.41,24.94 C 77.88,26.63 78.53,28.09 79.31,29.24 C 80.11,30.38 81.02,31.17 81.98,31.56 C 85.42,33.05 88.65,36.08 91.41,40.43 C 94.16,44.78 96.34,50.31 97.82,56.61 C 99.29,62.9 100,69.78 99.89,76.7 C 99.77,83.62 98.85,90.4 97.16,96.49" fill="#2d5967" stroke="none" stroke-width="0.5"/>
  </g>
</svg>