<svg xmlns="http://www.w3.org/2000/svg" viewBox="0 0 84.0 134.0000000000001" width="84" height="134">
  <g transform="translate(33.00,0.00) scale(0.8200,0.7500)">
    <path d="M 49.79 100 L 49.79 98.78 L 49.65 100 L 48.13 100 C 37.99,99.63 28.33,95.35 20.85,87.93 C 13.38,80.52 8.61,70.46 7.38,59.56 L 4.08 63.18 L 0 58.76 L 7.38 50.89 C 7.56,48.52 7.9,46.17 8.41,43.86 C 5.82,42.37 3.76,39.98 2.56,37.07 C 1.36,34.16 1.08,30.91 1.78,27.82 C 2.48,24.72 4.12,21.97 6.42,20 C 8.73,18.02 11.57,16.94 14.52,16.91 C 17.28,16.92 19.96,17.87 22.2,19.63 C 29.14,13.29 37.8,9.55 46.87,8.94 C 47.77,8.87 48.58,8.87 49.37,8.87 L 51.74 8.87 C 53.64,5.75 56.35,3.31 59.52,1.85 C 62.7,0.4 66.2,0 69.58,0.7 C 72.97,1.4 76.08,3.18 78.54,5.8 C 81,8.42 82.68,11.77 83.38,15.43 L 85.78 12.83 L 89.88 17.28 L 89.69 17.47 L 89.08 18.25 L 82.55 25.32 C 87.66,31.89 90.93,39.93 91.95,48.46 L 95.92 44.15 L 100 48.58 L 92.24 56.99 C 92.1,59.6 91.75,62.21 91.21,64.76 C 92.73,65.71 94.08,66.98 95.15,68.5 C 96.21,70.02 96.98,71.76 97.42,73.61 C 97.86,75.46 97.95,77.39 97.68,79.28 C 97.42,81.17 96.81,82.98 95.88,84.6 C 94.97,86.23 93.75,87.64 92.31,88.75 C 90.87,89.86 89.25,90.65 87.53,91.06 C 85.8,91.48 84.02,91.52 82.29,91.17 C 80.56,90.83 78.91,90.11 77.43,89.06 C 73.41,92.74 68.8,95.59 63.83,97.45 L 63.41 97.59 C 62.6,97.91 61.77,98.15 60.94,98.4 L 60.61 98.4 L 60.04 98.57 L 58.97 98.86 L 57.6 99.15 L 56.48 99.39 C 56.09,99.39 55.72,99.39 55.3,99.54 L 53.78 99.73 C 52.35,99.88 51.07,99.95 49.89,99.95 L 49.79 100 L 49.79 100" fill="#FFFFFF" stroke="none" stroke-width="0.5"/>
  </g>
  <g transform="translate(32.00,0.00) scale(0.8400,0.7700)">
    <path d="M 65.75 2.38 C 69.75,2.39 73.6,4.05 76.52,7.05 C 79.45,10.04 81.22,14.13 81.51,18.5 L 84.61 15.1 L 87.02 17.74 L 79.99 25.45 C 85.71,32.53 89.14,41.47 89.74,50.9 L 94.44 45.79 L 96.85 48.43 L 89.81 56.14 C 89.69,59.08 89.29,61.99 88.64,64.83 C 90.11,65.61 91.43,66.71 92.5,68.08 C 93.56,69.45 94.35,71.05 94.81,72.77 C 95.27,74.49 95.4,76.31 95.19,78.09 C 94.98,79.87 94.41,81.58 93.55,83.11 C 92.7,84.64 91.55,85.96 90.2,86.97 C 88.84,87.98 87.31,88.67 85.7,89 C 84.07,89.32 82.43,89.26 80.83,88.84 C 79.24,88.41 77.74,87.62 76.45,86.52 C 72.52,90.36 67.96,93.32 63.01,95.24 L 62.65 95.38 C 61.86,95.67 61.09,95.9 60.3,96.14 L 59.45 96.4 C 58.35,96.69 57.27,96.95 56.06,97.14 L 54.45 97.36 L 53.52 97.36 C 52.3,97.5 51.07,97.57 49.85,97.57 L 49.15 97.57 C 39.05,97.48 29.35,93.19 22,85.57 C 14.66,77.96 10.24,67.58 9.6,56.52 L 5.5 61.05 L 3.06 58.4 L 9.59 51.26 C 9.76,48.52 10.19,45.81 10.86,43.17 C 8.41,41.98 6.4,39.9 5.17,37.28 C 3.95,34.66 3.59,31.66 4.14,28.78 C 4.69,25.9 6.14,23.31 8.22,21.46 C 10.31,19.61 12.91,18.59 15.6,18.6 C 18.34,18.61 20.97,19.68 23.05,21.62 C 29.71,15.23 38.12,11.42 46.96,10.79 C 47.76,10.79 48.56,10.64 49.37,10.62 L 49.7 10.62 C 50.68,10.62 51.62,10.62 52.56,10.79 L 52.35 10.55 C 53.76,8.05 55.74,6 58.09,4.57 C 60.44,3.14 63.08,2.39 65.75,2.38 L 65.75 2.38 M 65.75 0 C 62.9,0.02 60.1,0.77 57.56,2.2 C 55.02,3.62 52.82,5.69 51.15,8.21 L 49.35 8.21 C 48.55,8.21 47.76,8.21 47,8.36 L 46.8 8.36 C 38.06,8.95 29.71,12.51 22.9,18.55 C 20.71,17 18.15,16.17 15.54,16.17 C 12.5,16.16 9.55,17.25 7.14,19.26 C 4.71,21.27 2.96,24.09 2.15,27.29 C 1.33,30.49 1.5,33.9 2.61,36.99 C 3.73,40.08 5.75,42.69 8.35,44.4 C 7.95,46.3 7.69,48.23 7.54,50.17 L 1.54 56.74 L 0 58.4 L 1.54 60.1 L 3.95 62.74 L 5.5 64.43 L 7.01 62.74 L 7.95 61.71 C 9.59,71.96 14.33,81.31 21.39,88.26 C 28.46,95.2 37.46,99.34 46.94,100 L 49.11 100 L 49.85 100 C 51.02,100 52.29,100 53.71,99.79 L 54.39 99.79 L 54.71 99.79 L 55.19 99.79 L 56.39 99.62 L 58.56 99.24 L 60 98.86 L 60.59 98.69 L 60.86 98.69 L 63.3 97.62 L 63.57 97.62 L 63.71 97.62 C 68.4,95.85 72.77,93.18 76.62,89.74 C 78.7,91.09 81.09,91.79 83.51,91.79 C 87.19,91.78 90.71,90.17 93.33,87.32 C 95.93,84.47 97.39,80.6 97.39,76.57 C 97.4,74.05 96.83,71.57 95.72,69.35 C 94.63,67.13 93.04,65.25 91.11,63.88 C 91.52,61.66 91.8,59.41 91.94,57.14 L 98.46 50 L 100 48.31 L 98.46 46.62 L 96.05 43.98 L 94.5 42.29 L 92.96 43.98 L 91.41 45.69 C 90.18,38.34 87.27,31.45 83.01,25.62 L 88.64 19.45 L 90.18 17.76 L 89.96 17.5 L 88.64 15.93 L 86.16 13.4 L 84.61 11.71 L 83.1 13.4 L 82.85 13.64 C 81.67,9.69 79.39,6.24 76.32,3.79 C 73.25,1.34 69.55,0.01 65.75,0 L 65.75 0 L 65.75 0" fill="#FFFFFF" stroke="none" stroke-width="0.5"/>
  </g>
  <g transform="translate(34.00,1.00) scale(0.7900,0.7300)">
    <path d="M 55.94 95.57 L 56.51 99.43 C 54.32,99.8 52.1,99.99 49.89,100 L 49.14 100 L 49.14 96.09 C 51.39,96.11 53.64,95.94 55.86,95.57 L 55.94 95.57 L 55.94 95.57 M 19.46 86.2 C 21.18,88.09 23.04,89.83 25.03,91.38 L 27.17 88.19 C 25.35,86.79 23.64,85.21 22.08,83.46 L 19.46 86.2 L 19.46 86.2 M 28.11 93.55 C 30.21,94.91 32.44,96.07 34.73,97.01 L 36.12 93.35 C 34.02,92.49 32,91.43 30.08,90.19 L 28.11 93.55 L 28.11 93.55 M 39.22 94.49 L 38.24 98.26 C 39.41,98.6 40.54,98.93 41.82,99.18 C 43.1,99.43 44.26,99.63 45.46,99.75 L 45.85 95.86 C 44.74,95.74 43.54,95.54 42.49,95.32 C 41.45,95.09 40.32,94.82 39.22,94.49 L 39.22 94.49 M 59.23 94.84 L 60.11 98.63 C 62.48,98.02 64.81,97.19 67.05,96.14 L 65.6 92.53 C 63.55,93.57 61.41,94.4 59.23,95.02 L 59.23 94.84 L 59.23 94.84 M 16.06 74.77 L 12.95 76.69 C 14.14,79 15.52,81.19 17.07,83.24 L 19.9 80.75 C 18.48,78.87 17.22,76.87 16.12,74.77 L 16.06 74.77 L 16.06 74.77 M 13.09 67.62 C 13.09,67.22 12.83,66.82 12.74,66.45 C 12.65,66.07 12.61,65.9 12.54,65.63 C 11.74,62.57 11.29,59.43 11.17,56.26 L 16.4 61.86 L 18.98 58.98 L 9.5 48.79 L 0 58.98 L 2.6 61.74 L 7.53 56.44 C 7.66,59.55 8.09,62.63 8.81,65.65 C 8.81,65.95 8.97,66.22 9.03,66.52 C 9.1,66.82 9.18,67.11 9.27,67.4 C 9.27,67.82 9.5,68.24 9.63,68.64 C 9.78,69.04 9.75,69.09 9.82,69.31 C 10.25,70.58 10.73,71.8 11.23,73.12 L 14.55 71.5 C 13.99,70.11 13.51,68.86 13.09,67.62 L 13.09 67.62 M 0.88 30.78 C 0.88,28.12 1.61,25.51 2.98,23.3 C 4.36,21.08 6.3,19.35 8.59,18.33 C 10.89,17.31 13.39,17.04 15.83,17.56 C 18.26,18.08 20.48,19.36 22.24,21.24 C 23.99,23.13 25.19,25.53 25.67,28.14 C 26.15,30.75 25.89,33.45 24.95,35.91 C 24,38.37 22.39,40.47 20.32,41.95 C 18.27,43.42 15.84,44.21 13.37,44.21 C 10.06,44.2 6.89,42.78 4.54,40.27 C 2.2,37.75 0.89,34.34 0.88,30.78 L 0.88 30.78 M 4.52 30.78 C 4.52,32.67 5.04,34.52 6.01,36.09 C 6.98,37.66 8.37,38.89 9.98,39.61 C 11.61,40.34 13.39,40.53 15.11,40.16 C 16.84,39.8 18.43,38.89 19.67,37.55 C 20.91,36.21 21.75,34.51 22.1,32.66 C 22.44,30.81 22.26,28.89 21.59,27.14 C 20.91,25.4 19.78,23.91 18.31,22.86 C 16.84,21.82 15.13,21.26 13.37,21.26 C 11.02,21.27 8.78,22.28 7.11,24.06 C 5.46,25.84 4.53,28.26 4.52,30.78 L 4.52 30.78 M 26.11 21.81 C 32.36,16.5 40,13.41 47.97,12.97 C 48.31,11.6 48.78,10.26 49.38,8.98 C 40.06,9.14 31.05,12.59 23.75,18.8 C 24.63,19.7 25.41,20.71 26.07,21.81 L 26.11 21.81 L 26.11 21.81 M 84.29 27.92 C 83.71,29.18 83.01,30.37 82.18,31.48 C 85.82,37.33 88,44.09 88.54,51.1 L 83.62 45.77 L 81.05 48.54 L 90.52 58.73 L 100 48.54 L 97.43 45.77 L 92.24 51.35 C 91.71,42.9 88.96,34.78 84.34,27.92 L 84.29 27.92 L 84.29 27.92 M 98.24 77.73 C 98.24,80.39 97.51,82.99 96.13,85.21 C 94.75,87.42 92.8,89.14 90.51,90.16 C 88.22,91.18 85.71,91.44 83.27,90.92 C 80.85,90.4 78.62,89.12 76.88,87.23 C 75.13,85.35 73.93,82.95 73.45,80.34 C 72.97,77.73 73.22,75.02 74.17,72.57 C 75.13,70.11 76.73,68.01 78.79,66.54 C 80.86,65.06 83.27,64.28 85.75,64.28 C 89.07,64.29 92.24,65.71 94.59,68.23 C 96.92,70.75 98.24,74.17 98.24,77.73 L 98.24 77.73 M 94.6 77.73 C 94.6,75.84 94.1,74 93.12,72.42 C 92.15,70.85 90.76,69.62 89.14,68.9 C 87.51,68.17 85.73,67.98 84.01,68.35 C 82.27,68.72 80.7,69.62 79.45,70.96 C 78.21,72.3 77.37,74 77.02,75.85 C 76.68,77.7 76.86,79.62 77.53,81.37 C 78.21,83.11 79.35,84.6 80.81,85.65 C 82.27,86.7 83.99,87.25 85.75,87.25 C 88.1,87.24 90.35,86.24 92,84.45 C 93.66,82.67 94.6,80.25 94.6,77.73 L 94.6 77.73 M 19.07 29.31 L 16.5 26.55 L 12.29 31.05 L 10.26 28.89 L 7.69 31.68 L 12.33 36.66 L 19.07 29.31 L 19.07 29.31 M 69.14 67.62 C 69.14,72.85 56.83,74.24 50.33,74.24 C 43.81,74.24 31.79,72.85 31.79,67.62 L 31.79 36.83 C 31.79,30.85 47.25,30.56 50.33,30.56 L 50.83 30.56 C 51.8,32.07 52.96,33.42 54.28,34.59 C 53.06,34.59 51.74,34.59 50.33,34.59 C 42.14,34.59 37.09,36.06 35.68,37.08 C 37.21,38.05 42.26,39.57 50.33,39.57 C 53.75,39.61 57.18,39.3 60.55,38.65 C 62.57,39.39 64.71,39.77 66.84,39.77 C 67.63,39.77 68.4,39.72 69.16,39.62 L 69.14 67.62 L 69.14 67.62 M 65.41 56.98 C 65.37,57.12 65.37,57.27 65.41,57.41 L 65.57 57.41 L 65.57 50.91 C 60.67,52.52 55.55,53.29 50.42,53.17 C 45.38,53.26 40.37,52.53 35.54,51.01 L 35.54 57.28 C 36.73,58.25 41.86,59.77 50.42,59.77 C 59.58,59.77 64.83,57.93 65.51,57.01 L 65.41 56.98 L 65.41 56.98 M 35.45 41.09 L 35.45 46.7 C 36.64,47.64 41.78,49.19 50.33,49.19 C 59.48,49.19 64.73,47.37 65.41,46.45 C 65.37,46.58 65.37,46.72 65.41,46.85 L 65.57 46.85 L 65.57 40.97 C 60.67,42.58 55.55,43.35 50.42,43.23 C 45.38,43.33 40.37,42.61 35.54,41.09 L 35.45 41.09 L 35.45 41.09 M 65.67 67.42 L 65.67 61.49 C 60.76,63.11 55.64,63.87 50.51,63.76 C 45.47,63.85 40.46,63.12 35.64,61.59 L 35.64 67.44 C 36.52,68.42 41.61,70.43 50.51,70.43 C 58.87,70.43 64.64,68.54 65.67,67.42 L 65.67 67.42 M 88.32 72.6 L 86.01 75.09 L 83.69 72.6 L 81.11 75.39 L 83.43 77.88 L 81.11 80.37 L 83.69 83.14 L 86.01 80.65 L 88.32 83.14 L 90.9 80.37 L 88.58 77.88 L 90.9 75.39 L 88.32 72.6 L 88.32 72.6 M 73.49 87.32 C 71.93,88.62 70.28,89.81 68.56,90.86 L 70.32 94.27 C 72.29,93.1 74.16,91.76 75.93,90.26 C 75,89.41 74.17,88.45 73.45,87.4 L 73.49 87.32 L 73.49 87.32 M 52.78 9.31 L 54.98 11.65 L 55.16 11.85 C 56.48,9.14 58.59,6.96 61.15,5.63 C 63.72,4.31 66.61,3.91 69.4,4.5 C 72.2,5.09 74.73,6.64 76.64,8.91 C 78.55,11.18 79.71,14.06 79.98,17.1 L 76.78 13.67 L 74.21 16.43 L 81.89 24.68 L 89.52 16.43 L 86.95 13.67 L 83.65 17.23 C 83.39,13.41 82.03,9.78 79.74,6.85 C 77.45,3.92 74.36,1.85 70.9,0.92 C 67.45,0 63.81,0.28 60.52,1.71 C 57.23,3.14 54.43,5.67 52.55,8.91 L 52.84 9.21 L 52.78 9.31 L 52.78 9.31 M 73.7 26.84 L 73.7 26.99 L 69.84 26.99 L 69 23.03 L 64.64 23.03 L 63.79 26.99 L 60.03 26.99 L 60.03 26.84 L 65.08 8.09 L 68.68 8.09 L 73.7 26.84 L 73.7 26.84 M 65.33 19.77 L 68.31 19.77 L 66.83 12.82 L 65.33 19.77 L 65.33 19.77 M 44.23 20.59 L 46.81 23.36 L 50.02 19.87 C 50.29,23.68 51.67,27.29 53.96,30.2 C 56.26,33.11 59.35,35.17 62.8,36.08 C 66.25,36.98 69.88,36.69 73.16,35.25 C 76.45,33.81 79.22,31.28 81.1,28.04 L 78.5 25.27 C 77.16,27.95 75.06,30.09 72.5,31.39 C 69.94,32.69 67.07,33.07 64.29,32.47 C 61.53,31.88 59,30.35 57.11,28.11 C 55.2,25.86 54.02,23.02 53.74,19.99 L 56.98 23.43 L 59.58 20.67 L 51.83 12.27 L 44.17 20.52 L 44.23 20.59 L 44.23 20.59" fill="#2d5967" stroke="none" stroke-width="0.5"/>
  </g>
</svg>