<svg xmlns="http://www.w3.org/2000/svg" viewBox="0 0 84.0 132.00000000000014" width="84" height="132">
  <g transform="translate(39.00,1.00) scale(0.3400,0.3600)">
    <path d="M 60.18 100 L 55.44 100 C 51.01,99.85 46.61,99.37 42.23,98.55 C 37,97.77 31.99,96.06 27.43,93.49 C 25.75,92.55 24.25,91.35 23,89.93 L 0 89.93 L 0 16.81 C 0,15.79 0.15,14.78 0.46,13.8 C 0.46,13.3 0.89,12.86 1.1,12.36 C 2.48,10.03 4.5,8.1 6.94,6.8 C 11.5,4.14 16.57,2.33 21.83,1.46 C 26.21,0.64 30.61,0.16 35.08,0.01 L 39.79 0.01 C 45.66,0 51.5,0.5 57.25,1.51 C 62.39,2.33 67.34,3.94 71.93,6.3 C 73.76,7.31 75.38,8.63 76.73,10.19 L 100 10.19 L 100 83.09 C 99.91,85.25 99.2,87.35 97.95,89.16 C 96.73,90.97 94.98,92.43 92.97,93.38 C 88.41,95.93 83.39,97.65 78.17,98.44 C 75.44,98.94 72.35,99.33 69.48,99.61 C 66.64,99.89 63.43,100 60.18,100 L 60.18 100" fill="#FFFFFF" stroke="none" stroke-width="0.5"/>
  </g>
  <g transform="translate(38.00,0.00) scale(0.3600,0.3800)">
    <path d="M 40.38 5.29 C 45.91,5.26 51.46,5.72 56.9,6.66 C 61.44,7.37 65.81,8.8 69.86,10.87 C 71.71,11.82 73.27,13.22 74.37,14.92 L 94.88 14.92 L 94.88 81.37 C 94.74,82.99 94.16,84.53 93.2,85.86 C 92.22,87.18 90.89,88.23 89.35,88.9 C 85.33,91.12 80.94,92.62 76.37,93.32 C 73.73,93.8 71.07,94.16 68.41,94.37 C 65.66,94.63 62.92,94.74 59.82,94.74 L 55.08 94.74 C 51.03,94.58 46.98,94.14 42.96,93.42 C 38.39,92.71 33.96,91.22 29.91,89 C 28.23,88.07 26.79,86.77 25.72,85.22 L 5.5 85.22 L 5.5 18.66 C 5.5,17.94 5.61,17.23 5.84,16.55 C 5.96,16.3 6.1,16.05 6.28,15.82 C 7.35,13.84 9,12.21 11.02,11.13 C 15.04,8.92 19.47,7.42 24.07,6.71 C 28,5.97 32.02,5.49 36.01,5.29 L 40.38 5.29 L 40.38 5.29 M 40.38 0.03 L 35.81 0.03 C 31.44,0.19 27.13,0.67 22.85,1.45 C 17.59,2.33 12.53,4.11 7.93,6.71 C 5.12,8.26 2.81,10.54 1.3,13.29 C 1.04,13.85 0.78,14.43 0.61,15.03 C 0.2,16.22 0,17.46 0,18.71 L 0 90.37 L 23.29 90.37 C 24.47,91.52 25.77,92.53 27.22,93.37 C 31.82,95.98 36.88,97.76 42.15,98.63 C 46.43,99.4 50.74,99.86 55.08,100 L 59.68 100 C 62.8,100 65.84,100 68.76,99.63 C 71.56,99.39 74.37,99 77.12,98.47 C 82.41,97.6 87.45,95.82 92.07,93.21 C 94.39,92.07 96.36,90.36 97.74,88.25 C 99.13,86.14 99.91,83.71 100,81.22 L 100 9.66 L 76.8 9.66 C 75.5,8.37 74.02,7.25 72.4,6.35 C 67.8,3.94 62.83,2.3 57.68,1.51 C 51.98,0.49 46.17,0 40.38,0.03 L 40.38 0.03" fill="#FFFFFF" stroke="none" stroke-width="0.5"/>
  </g>
  <g transform="translate(15.00,26.00) scale(0.8200,0.4600)">
    <path d="M 98.78 100 C 96.99,99.99 95.26,98.88 93.91,96.85 C 93.19,95.9 93.02,95.68 92.34,95.68 C 91.65,95.68 91.49,95.94 90.81,96.85 C 89.4,98.89 87.64,100 85.84,100 C 84.03,100 82.28,98.89 80.87,96.85 C 80.19,95.9 80,95.68 79.33,95.68 C 78.68,95.68 78.49,95.68 77.8,96.81 C 76.41,98.86 74.65,99.98 72.84,99.98 C 71.02,99.98 69.27,98.86 67.87,96.81 C 67.2,95.9 67,95.64 66.31,95.64 C 65.63,95.64 65.47,95.9 64.78,96.81 C 63.38,98.84 61.64,99.95 59.83,99.95 C 58.02,99.95 56.27,98.84 54.88,96.81 C 54.17,95.9 53.99,95.64 53.32,95.64 C 52.64,95.64 52.46,95.9 51.78,96.76 C 50.42,98.82 48.69,99.96 46.9,99.95 C 45.12,99.95 43.39,98.84 42.02,96.81 C 41.34,95.9 41.15,95.64 40.49,95.64 C 39.83,95.64 39.63,95.9 38.95,96.76 C 37.55,98.81 35.8,99.94 33.99,99.94 C 32.18,99.94 30.42,98.81 29.03,96.76 C 28.35,95.86 28.14,95.6 27.46,95.6 C 26.79,95.6 26.61,95.86 25.93,96.76 C 24.56,98.79 22.83,99.91 21.05,99.91 C 19.27,99.92 17.53,98.8 16.17,96.76 C 15.47,95.86 15.3,95.6 14.61,95.6 C 13.93,95.6 13.76,95.86 13.07,96.72 C 11.72,98.78 9.99,99.91 8.19,99.91 C 6.41,99.9 4.69,98.79 3.32,96.76 C 2.64,95.86 2.47,95.6 1.78,95.6 L 0 95.6 L 0 74.02 L 1.22 74.02 C 3.01,74.02 4.74,75.14 6.09,77.17 C 6.79,78.07 6.98,78.33 7.66,78.33 C 8.35,78.33 8.51,78.07 9.19,77.17 C 10.59,75.13 12.34,74.02 14.15,74.02 C 15.95,74.02 17.71,75.13 19.1,77.17 C 19.81,78.07 19.97,78.33 20.67,78.33 C 21.34,78.33 21.51,78.07 22.2,77.17 L 23.1 76.05 L 23.1 66.9 L 0 66.9 L 0 45.32 L 3.25 45.32 C 18.3,45.32 23.18,15.36 23.18,5.05 L 23.18 0 L 28.86 0 L 28.86 5.05 C 28.95,13.6 30.36,21.94 32.93,29.18 C 34.81,34.22 37.43,38.3 40.49,41.01 C 43.55,43.71 46.95,44.94 50.37,44.58 C 53.76,44.87 57.14,43.52 60.15,40.69 C 63.16,37.85 65.67,33.64 67.44,28.48 C 69.85,21.38 71.19,13.32 71.37,5.05 L 71.37 0 L 77.07 0 L 77.07 5.05 C 77.07,15.36 81.95,45.32 96.98,45.32 L 100 45.32 L 100 66.9 L 77.25 66.9 L 77.25 74.53 C 78.44,74 79.71,73.96 80.91,74.43 C 82.13,74.9 83.25,75.87 84.21,77.25 C 84.9,78.16 85.1,78.42 85.77,78.42 C 86.47,78.42 86.63,78.16 87.31,77.25 C 88.71,75.22 90.46,74.11 92.27,74.11 C 94.07,74.11 95.83,75.22 97.22,77.25 C 97.93,78.16 98.09,78.42 98.78,78.42 L 100 78.42 L 100 100 L 98.78 100 L 98.78 100" fill="#FFFFFF" stroke="none" stroke-width="0.5"/>
  </g>
  <g transform="translate(14.00,25.00) scale(0.8400,0.4800)">
    <path d="M 75.4 4.21 L 75.4 6.97 C 75.4,17.37 80.48,47.53 96.02,47.53 L 97.62 47.53 L 97.62 64.03 L 75.4 64.03 L 75.4 76.41 C 76.37,75.5 77.47,75.09 78.57,75.21 C 80.07,75.18 81.55,76.11 82.69,77.81 C 83.3,78.79 84.09,79.33 84.91,79.33 C 85.74,79.33 86.54,78.79 87.14,77.81 C 88.29,76.11 89.75,75.18 91.26,75.21 C 92.78,75.18 94.25,76.11 95.4,77.81 C 96,78.81 96.79,79.36 97.62,79.34 L 97.62 95.84 C 96.11,95.86 94.65,94.94 93.5,93.24 C 92.9,92.24 92.1,91.7 91.26,91.71 C 90.44,91.7 89.64,92.25 89.05,93.24 C 87.89,94.92 86.43,95.85 84.91,95.85 C 83.4,95.85 81.94,94.92 80.79,93.24 C 80.19,92.25 79.4,91.7 78.57,91.71 C 77.74,91.7 76.94,92.24 76.34,93.24 C 75.18,94.92 73.72,95.84 72.21,95.84 C 70.71,95.84 69.25,94.92 68.1,93.24 C 67.49,92.27 66.7,91.72 65.88,91.72 C 65.04,91.72 64.25,92.27 63.64,93.24 C 62.49,94.93 61.02,95.85 59.52,95.84 C 58.01,95.85 56.54,94.93 55.38,93.24 C 54.79,92.26 53.99,91.71 53.16,91.71 C 52.34,91.71 51.55,92.26 50.95,93.24 C 49.79,94.93 48.33,95.85 46.81,95.84 C 45.3,95.85 43.84,94.93 42.69,93.24 C 42.1,92.25 41.3,91.7 40.48,91.71 C 39.64,91.7 38.84,92.24 38.24,93.24 C 37.09,94.92 35.63,95.84 34.12,95.84 C 32.61,95.84 31.15,94.92 30,93.24 C 29.4,92.27 28.6,91.72 27.77,91.72 C 26.95,91.72 26.15,92.27 25.55,93.24 C 24.4,94.92 22.94,95.84 21.43,95.84 C 19.93,95.84 18.46,94.92 17.31,93.24 C 16.71,92.24 15.9,91.7 15.07,91.71 C 14.25,91.7 13.45,92.25 12.86,93.24 C 11.7,94.92 10.24,95.85 8.72,95.85 C 7.21,95.85 5.75,94.92 4.6,93.24 C 4,92.25 3.21,91.7 2.37,91.71 L 2.37 75.21 C 3.89,75.18 5.36,76.1 6.5,77.81 C 7.1,78.79 7.9,79.33 8.72,79.33 C 9.55,79.33 10.35,78.79 10.95,77.81 C 12.1,76.11 13.56,75.18 15.07,75.21 C 16.59,75.18 18.06,76.11 19.21,77.81 C 19.5,78.31 19.85,78.7 20.24,78.96 C 20.61,79.23 21.02,79.35 21.43,79.34 C 22.25,79.36 23.05,78.81 23.64,77.81 C 24.07,77.25 24.52,76.74 25,76.29 L 25 64.03 L 2.37 64.03 L 2.37 47.53 L 4.36 47.53 C 19.93,47.53 25,17.37 25,6.97 L 25 4.21 L 28.16 4.21 L 28.16 6.97 C 28.29,15.54 29.74,23.9 32.38,31.15 C 34.32,36.29 37.01,40.45 40.18,43.21 C 43.34,45.97 46.86,47.23 50.4,46.87 C 53.95,47.18 57.49,45.81 60.62,42.9 C 63.75,39.99 66.37,35.66 68.19,30.37 C 70.66,23.26 72.05,15.18 72.21,6.89 L 72.21 4.13 L 75.4 4.13 M 77.79 0 L 69.84 0 L 69.84 6.89 C 69.66,14.41 68.4,21.73 66.16,28.18 C 64.56,32.87 62.24,36.7 59.46,39.26 C 56.67,41.81 53.55,42.99 50.4,42.66 C 47.26,43.04 44.13,41.96 41.31,39.53 C 38.49,37.1 36.1,33.41 34.37,28.84 C 31.97,22.26 30.65,14.67 30.55,6.89 L 30.55 0.08 L 22.62 0.08 L 22.62 6.97 C 22.62,16.3 18.12,43.4 4.36,43.4 L 0 43.4 L 0 68.16 L 22.62 68.16 L 22.62 73.85 L 22.21 74.35 C 21.69,75.21 21.69,75.21 21.43,75.21 C 21.16,75.21 21.16,75.21 20.64,74.51 C 19.07,72.3 17.11,71.09 15.09,71.09 C 13.06,71.09 11.1,72.3 9.52,74.51 C 9,75.21 9,75.21 8.74,75.21 C 8.47,75.21 8.47,75.21 7.92,74.51 C 6.37,72.27 4.4,71.05 2.37,71.09 L 0 71.09 L 0 95.84 L 2.37 95.84 C 2.64,95.84 2.64,95.84 3.16,96.54 C 4.74,98.79 6.7,100 8.74,99.97 C 10.77,99.95 12.74,98.67 14.29,96.38 C 14.81,95.68 14.81,95.68 15.07,95.68 C 15.34,95.68 15.34,95.68 15.88,96.38 C 17.45,98.59 19.41,99.8 21.43,99.8 C 23.45,99.8 25.41,98.59 26.97,96.38 C 27.5,95.68 27.5,95.68 27.76,95.68 C 28.03,95.68 28.05,95.68 28.57,96.38 C 30.14,98.59 32.1,99.8 34.12,99.8 C 36.14,99.8 38.1,98.59 39.66,96.38 C 40.21,95.68 40.21,95.68 40.48,95.68 C 40.74,95.68 40.74,95.68 41.26,96.38 C 42.84,98.59 44.8,99.8 46.83,99.8 C 48.85,99.8 50.81,98.59 52.38,96.38 C 52.9,95.68 52.9,95.68 53.16,95.68 C 53.43,95.68 53.43,95.68 53.95,96.34 C 55.53,98.57 57.49,99.79 59.51,99.79 C 61.54,99.79 63.5,98.57 65.07,96.34 C 65.6,95.64 65.6,95.64 65.86,95.64 C 66.13,95.64 66.13,95.64 66.66,96.34 C 68.24,98.55 70.19,99.76 72.21,99.76 C 74.24,99.76 76.2,98.55 77.76,96.34 C 78.31,95.64 78.31,95.64 78.57,95.64 C 78.84,95.64 78.84,95.64 79.36,96.34 C 80.93,98.55 82.89,99.76 84.91,99.76 C 86.94,99.76 88.9,98.55 90.48,96.34 C 91,95.64 91,95.64 91.26,95.64 C 91.52,95.64 91.52,95.64 92.07,96.34 C 93.61,98.65 95.58,99.94 97.62,99.97 L 100 99.97 L 100 75.21 L 97.62 75.21 C 97.36,75.21 97.36,75.21 96.84,74.51 C 95.26,72.3 93.3,71.09 91.27,71.09 C 89.25,71.09 87.29,72.3 85.71,74.51 C 85.19,75.21 85.19,75.21 84.9,75.21 C 84.63,75.21 84.64,75.21 84.12,74.51 C 82.56,72.27 80.6,71.06 78.57,71.09 L 77.79 71.09 L 77.79 68.28 L 100 68.28 L 100 43.53 L 96.02 43.53 C 82.26,43.53 77.79,16.42 77.79,7.1 L 77.79 0.08 L 77.79 0 L 77.79 0" fill="#FFFFFF" stroke="none" stroke-width="0.5"/>
  </g>
  <g transform="translate(40.00,26.00) scale(0.0500,0.0600)">
    <path d="M 95.77 57.47 L 51.11 57.47 L 51.11 25 C 39.24,20.79 27.77,15.91 16.9,10.39 C 10.87,6.82 5.03,3.57 0,0 L 0 100 L 100 100 C 97.38,92.54 95.98,84.77 95.77,76.95 L 95.77 57.47 L 95.77 57.47" fill="#2c5967" stroke="none" stroke-width="0.5"/>
  </g>
  <g transform="translate(67.00,5.00) scale(0.0500,0.0600)">
    <path d="M 4.23 18.39 L 4.23 43.23 L 48.69 43.23 L 48.69 75.48 C 59.56,79 69.82,83.32 79.68,88.39 C 86.92,91.76 93.76,95.65 100,100 L 100 0 L 0 0 C 2.01,5.15 3.22,10.44 3.82,15.81 L 4.23 18.39 L 4.23 18.39" fill="#2c5967" stroke="none" stroke-width="0.5"/>
  </g>
  <g transform="translate(40.00,2.00) scale(0.2500,0.2400)">
    <path d="M 0 20.86 L 0 83.04 C 0.21,85.55 1.04,87.96 2.41,90.02 C 3.82,92.08 5.69,93.72 7.94,94.76 C 11.72,97.07 15.79,98.83 20.03,100 L 20.03 88.94 L 19.66 88.94 C 16.87,88.14 14.21,86.98 11.72,85.5 C 9.98,84.44 9.19,83.53 9.19,82.71 L 9.19 64.53 C 12.55,66.34 16.08,67.74 19.7,68.71 L 19.7 58.3 L 19.33 58.3 C 16.54,57.47 13.88,56.29 11.39,54.78 C 9.68,53.71 8.89,52.81 8.89,52.08 L 8.89 33.81 C 14.63,36.7 20.78,38.69 27.1,39.71 L 27.89 39.71 C 28.8,38.97 29.8,38.28 30.8,37.66 C 35.7,34.57 41.06,32.33 46.63,31.02 C 42.06,30.9 37.53,30.52 33,29.87 C 28.76,29.25 24.56,28.29 20.45,27.01 C 17.66,26.12 15.05,24.94 12.51,23.48 C 10.85,22.42 9.98,21.52 9.98,20.78 C 9.98,19.96 11.1,19.06 12.93,18 C 15.42,16.55 18.08,15.42 20.82,14.64 C 24.9,13.32 29.09,12.36 33.33,11.77 C 38.94,11.03 44.6,10.67 50.29,10.7 C 56.07,10.68 61.89,11.09 67.62,11.93 C 71.9,12.51 76.1,13.47 80.22,14.8 C 82.96,15.61 85.62,16.76 88.11,18.24 C 89.78,19.31 90.65,20.29 90.65,21.03 C 90.65,21.76 89.78,22.67 88.11,23.73 C 85.62,25.2 82.96,26.39 80.22,27.25 L 79.09 27.25 C 86.08,27.3 93.1,27.9 100,29.06 L 100 20.86 L 100 19.96 C 99.71,17.55 98.79,15.26 97.42,13.3 C 96.05,11.34 94.22,9.77 92.06,8.74 C 86.28,5.51 79.97,3.29 73.48,2.19 C 65.63,0.71 57.69,0 49.71,0.06 L 43.47 0.06 C 37.61,0.3 31.8,0.98 26.06,2.1 C 19.66,3.33 13.51,5.72 7.94,9.15 C 5.15,10.76 2.87,13.14 1.37,16.03 C 1.12,16.53 0.91,17.05 0.71,17.59 C 0.33,18.63 0.08,19.74 0,20.86 L 0 20.86" fill="#2c5967" stroke="none" stroke-width="0.5"/>
  </g>
  <g transform="translate(47.00,10.00) scale(0.2500,0.2500)">
    <path d="M 73.46 2.1 C 65.69,0.69 57.79,0 49.86,0.05 L 43.65 0.05 C 37.83,0.27 32.04,0.96 26.29,2.1 C 19.76,3.14 13.44,5.36 7.65,8.65 C 4.92,10.25 2.69,12.53 1.12,15.28 C 1.12,15.83 0.66,16.3 0.5,16.78 C 0.17,17.8 0,18.86 0,19.93 L 0 79.81 C 0.17,82.22 0.99,84.55 2.4,86.54 C 3.76,88.52 5.66,90.09 7.9,91.09 C 13.64,94.41 19.97,96.65 26.54,97.71 C 32.2,98.89 37.95,99.66 43.7,100 L 49.94 100 C 54.2,100 58.29,100 62.22,99.45 C 66.02,99.13 69.82,98.6 73.54,97.87 C 80.12,96.82 86.4,94.58 92.15,91.24 C 94.34,90.25 96.24,88.67 97.6,86.69 C 99.01,84.7 99.83,82.38 100,79.96 L 100 20.09 L 100 19.22 C 99.71,16.91 98.84,14.72 97.44,12.84 C 96.07,10.97 94.25,9.47 92.15,8.49 C 86.32,5.3 80.03,3.14 73.46,2.1 L 73.46 2.1 M 10.5 19.85 C 10.5,19.14 11.58,18.28 13.39,17.25 C 15.87,15.82 18.52,14.73 21.29,14.02 C 25.34,12.71 29.47,11.79 33.73,11.25 C 39.31,10.47 44.94,10.1 50.56,10.15 C 56.35,10.12 62.09,10.52 67.8,11.33 C 72.05,11.89 76.23,12.81 80.32,14.09 C 83.09,14.86 85.74,16 88.22,17.49 C 89.87,18.51 90.74,19.38 90.74,20.09 C 90.74,20.8 89.87,21.67 88.22,22.69 C 85.74,24.18 83.09,25.32 80.32,26.08 C 76.31,27.41 72.18,28.39 67.96,29 C 62.26,29.82 56.51,30.21 50.72,30.19 C 44.94,30.21 39.19,29.82 33.48,29 C 29.23,28.44 25.05,27.52 20.96,26.24 C 18.19,25.46 15.54,24.32 13.06,22.85 C 11.41,21.83 10.58,20.96 10.58,20.25 L 10.5 19.85 L 10.5 19.85 M 89.21 79.57 C 89.21,80.28 88.42,81.15 86.69,82.17 C 84.25,83.63 81.6,84.77 78.83,85.56 C 74.7,86.84 70.48,87.76 66.23,88.33 C 54.73,89.9 43.08,89.9 31.58,88.33 C 27.33,87.76 23.11,86.84 18.97,85.56 C 16.25,84.77 13.6,83.63 11.12,82.17 C 9.38,81.15 8.6,80.28 8.6,79.57 L 8.6 62.21 C 14.3,65.01 20.42,66.9 26.71,67.82 C 33.94,69.05 41.26,69.65 48.62,69.63 L 53.62 69.63 C 60.19,69.67 66.76,69.14 73.25,68.05 C 78.59,67.2 83.75,65.55 88.59,63.16 L 89.21 79.57 L 89.21 79.57 M 89.21 50.07 C 89.21,50.78 88.42,51.64 86.69,52.75 C 84.21,54.17 81.6,55.29 78.83,56.06 C 74.7,57.33 70.48,58.26 66.23,58.82 C 60.52,59.7 54.69,60.13 48.9,60.08 C 43.12,60.13 37.33,59.7 31.58,58.82 C 27.33,58.26 23.11,57.33 18.97,56.06 C 16.62,55.18 14.34,54.04 12.24,52.67 C 10.5,51.56 9.71,50.7 9.71,49.99 L 9.71 32.63 C 15.42,35.35 21.54,37.24 27.82,38.23 C 35.01,39.5 42.37,40.11 49.69,40.05 L 54.4 40.05 L 58.45 40.05 L 64.99 39.57 L 70.4 38.71 L 76.73 37.52 L 78.5 36.97 L 81.69 36.18 L 85.04 35.08 L 88.14 33.74 L 88.67 33.74 L 89.71 33.18 L 89.71 50.62 L 89.21 50.07 L 89.21 50.07" fill="#2c5967" stroke="none" stroke-width="0.5"/>
  </g>
  <g transform="translate(16.00,54.00) scale(0.8000,0.1200)">
    <path d="M 0 20.35 L 23.75 20.35 L 23.75 66.57 C 23.25,68.26 22.78,70.22 22.32,72.41 C 22.03,74.42 21.67,76.01 21.27,77.12 C 20.87,78.23 20.45,78.83 20,78.88 C 19.58,78.93 19.15,78.44 18.75,77.44 C 18.35,76.44 17.98,74.95 17.68,73.04 C 16.47,66.52 14.92,62.99 13.33,63.1 C 11.75,62.99 10.21,66.52 9,73.04 C 8.37,76.78 7.53,78.86 6.67,78.86 C 5.8,78.86 4.96,76.78 4.33,73.04 C 3.14,66.5 1.59,62.96 0,63.1 L 0 84.09 C 0.88,84.02 1.71,86.11 2.34,89.92 C 3.54,96.44 5.09,99.97 6.68,99.86 C 8.27,99.94 9.8,96.41 11.01,89.92 C 11.63,86.11 12.47,84.02 13.33,84.09 C 14.2,84.01 15.05,86.1 15.68,89.92 C 16.89,96.35 18.43,99.87 20,99.87 C 21.59,99.87 23.12,96.35 24.33,89.92 C 24.96,86.19 25.8,84.11 26.67,84.11 C 27.53,84.11 28.37,86.19 29,89.92 C 30.21,96.35 31.75,99.87 33.33,99.87 C 34.91,99.87 36.44,96.35 37.65,89.92 C 38.28,86.1 39.12,84.01 40,84.09 C 40.87,84.02 41.71,86.11 42.32,89.92 C 43.53,96.44 45.07,99.98 46.65,99.86 C 48.24,99.97 49.79,96.44 51,89.92 C 51.63,86.16 52.45,84.06 53.32,84.06 C 54.19,84.06 55.03,86.16 55.64,89.92 C 56.86,96.44 58.41,99.97 60,99.86 C 61.59,99.98 63.12,96.44 64.32,89.92 C 64.96,86.19 65.79,84.11 66.67,84.11 C 67.53,84.11 68.36,86.19 69,89.92 C 70.21,96.35 71.75,99.87 73.32,99.87 C 74.91,99.87 76.43,96.35 77.65,89.92 C 78.28,86.1 79.12,84.01 80,84.09 C 80.87,84.02 81.69,86.11 82.32,89.92 C 83.53,96.36 85.07,99.88 86.65,99.88 C 88.24,99.88 89.78,96.36 91,89.92 C 91.61,86.11 92.45,84.02 93.32,84.09 C 94.2,84.01 95.04,86.1 95.67,89.92 C 96.86,96.46 98.41,100 100,99.86 L 100 78.88 C 99.12,78.95 98.29,76.85 97.66,73.04 C 96.46,66.52 94.91,62.99 93.32,63.1 C 91.73,62.99 90.2,66.52 88.99,73.04 C 88.36,76.78 87.52,78.86 86.65,78.86 C 85.79,78.86 84.96,76.78 84.32,73.04 C 83.12,66.52 81.57,62.99 80,63.1 C 78.82,62.95 77.68,64.92 76.67,68.78 L 76.67 21.46 L 100 21.46 L 100 0 L 0 0 L 0 20.35 L 0 20.35 M 73.32 78.88 C 72.45,78.95 71.61,76.85 71,73.04 C 69.78,66.61 68.24,63.09 66.67,63.09 C 65.08,63.09 63.54,66.61 62.32,73.04 C 61.71,76.85 60.87,78.95 60,78.88 C 59.12,78.96 58.28,76.86 57.65,73.04 C 56.44,66.62 54.91,63.1 53.32,63.1 C 51.75,63.1 50.21,66.62 49,73.04 C 48.36,76.78 47.53,78.86 46.67,78.86 C 45.8,78.86 44.96,76.78 44.33,73.04 C 43.12,66.52 41.59,62.99 40,63.1 C 38.41,62.99 36.86,66.52 35.66,73.04 C 35.34,74.95 34.99,76.44 34.58,77.44 C 34.19,78.44 33.75,78.93 33.33,78.88 C 32.45,78.95 31.63,76.85 31,73.04 C 29.91,67.1 28.52,63.61 27.07,63.1 L 27.07 20.35 L 73.32 20.35 L 73.32 78.88 L 73.32 78.88" fill="#2c5967" stroke="none" stroke-width="0.5"/>
  </g>
  <g transform="translate(16.00,27.00) scale(0.8000,0.2300)">
    <path d="M 98.74 88.53 L 98.32 88.53 C 81.99,88.53 76.67,26.9 76.67,5.65 L 76.67 0 L 73.32 0 L 73.32 5.65 C 73.15,22.6 71.69,39.11 69.09,53.63 C 67.19,64.44 64.44,73.3 61.15,79.24 C 57.86,85.18 54.15,87.99 50.42,87.35 C 46.71,88.09 43.01,85.51 39.69,79.87 C 36.36,74.23 33.54,65.73 31.5,55.23 C 28.73,40.4 27.2,23.33 27.07,5.82 L 27.07 0.17 L 23.75 0.17 L 23.75 5.82 C 23.75,27.07 18.43,88.7 2.09,88.7 L 0 88.7 L 0 100 L 100 100 L 100 88.53 L 98.74 88.53 L 98.74 88.53 M 71.94 59.53 C 72.45,56.8 72.9,53.98 73.32,51.1 L 73.32 88.7 L 62.93 88.7 C 66.64,81.86 69.76,71.78 71.94,59.53 L 71.94 59.53 M 28.7 61.21 C 30.91,72.69 33.92,82.09 37.51,88.53 L 27.07 88.53 L 27.07 51.6 C 27.57,54.9 28.11,58.11 28.7,61.21 L 28.7 61.21 M 21.73 61.89 C 22.47,57.89 23.15,53.75 23.75,49.49 L 23.75 88.53 L 13.95 88.53 C 17.09,81.65 19.74,72.56 21.73,61.89 L 21.73 61.89 M 76.72 88.53 L 76.72 49.49 C 77.31,53.78 77.98,57.92 78.74,61.89 C 80.72,72.56 83.37,81.65 86.5,88.53 L 76.72 88.53 L 76.72 88.53" fill="#2c5967" stroke="none" stroke-width="0.5"/>
  </g>
  <g transform="translate(16.00,67.00) scale(0.8000,0.0400)">
    <path d="M 93.32 0.37 C 91.73,0.09 90.2,9.47 88.99,26.81 C 88.36,36.74 87.52,42.27 86.65,42.27 C 85.79,42.27 84.96,36.74 84.32,26.81 C 83.12,9.47 81.57,0.09 80,0.37 C 78.4,0.09 76.86,9.47 75.64,26.81 C 75.01,36.81 74.19,42.4 73.32,42.4 C 72.45,42.4 71.63,36.81 71,26.81 C 69.78,9.69 68.24,0.33 66.67,0.33 C 65.08,0.33 63.54,9.69 62.32,26.81 C 61.71,36.94 60.87,42.53 60,42.33 C 59.12,42.56 58.28,36.96 57.65,26.81 C 56.44,9.74 54.91,0.37 53.32,0.37 C 51.75,0.37 50.21,9.74 49,26.81 C 48.36,36.74 47.53,42.27 46.67,42.27 C 45.8,42.27 44.96,36.74 44.33,26.81 C 43.12,9.47 41.59,0.09 40,0.37 C 38.41,0.09 36.86,9.47 35.66,26.81 C 35.34,31.87 34.99,35.84 34.58,38.5 C 34.19,41.17 33.75,42.47 33.33,42.33 C 32.45,42.53 31.63,36.94 31,26.81 C 29.79,9.69 28.25,0.33 26.67,0.33 C 25.08,0.33 23.54,9.69 22.32,26.81 C 21.71,36.94 20.87,42.53 20,42.33 C 19.58,42.47 19.15,41.17 18.75,38.5 C 18.35,35.84 17.98,31.87 17.68,26.81 C 16.47,9.47 14.92,0.09 13.33,0.37 C 11.75,0.09 10.21,9.47 9,26.81 C 8.37,36.74 7.53,42.27 6.67,42.27 C 5.8,42.27 4.96,36.74 4.33,26.81 C 3.14,9.41 1.59,0 0,0.37 L 0 57.86 C 0.88,57.67 1.71,63.24 2.34,73.37 C 3.54,90.48 5.08,99.87 6.67,99.87 C 8.25,99.87 9.79,90.48 11.01,73.37 C 11.63,63.24 12.47,57.67 13.33,57.86 C 14.2,57.64 15.05,63.22 15.68,73.37 C 16.89,90.46 18.43,99.82 20,99.82 C 21.59,99.82 23.12,90.46 24.33,73.37 C 24.96,63.44 25.8,57.91 26.67,57.91 C 27.53,57.91 28.37,63.44 29,73.37 C 30.21,90.46 31.75,99.82 33.33,99.82 C 34.91,99.82 36.44,90.46 37.65,73.37 C 38.28,63.22 39.12,57.64 40,57.86 C 40.87,57.67 41.71,63.24 42.32,73.37 C 43.53,90.51 45.07,99.89 46.65,99.8 C 48.24,99.87 49.78,90.51 51,73.37 C 51.63,63.37 52.45,57.8 53.32,57.8 C 54.19,57.8 55.03,63.37 55.64,73.37 C 56.86,90.51 58.41,99.87 60,99.8 C 61.59,99.89 63.11,90.51 64.32,73.37 C 64.96,63.44 65.79,57.91 66.67,57.91 C 67.53,57.91 68.36,63.44 69,73.37 C 70.21,90.46 71.75,99.82 73.32,99.82 C 74.91,99.82 76.43,90.46 77.65,73.37 C 78.28,63.22 79.12,57.64 80,57.86 C 80.87,57.67 81.69,63.24 82.32,73.37 C 83.53,90.48 85.07,99.87 86.65,99.87 C 88.24,99.87 89.78,90.48 91,73.37 C 91.61,63.24 92.45,57.67 93.32,57.86 C 94.2,57.64 95.04,63.22 95.67,73.37 C 96.88,90.62 98.41,100 100,99.8 L 100 42.33 C 99.12,42.53 98.29,36.94 97.66,26.81 C 96.46,9.47 94.91,0.09 93.32,0.37 L 93.32 0.37" fill="#2c5967" stroke="none" stroke-width="0.5"/>
  </g>
</svg>