<svg xmlns="http://www.w3.org/2000/svg" viewBox="0 0 84.0 105" width="84" height="105">
  <g transform="translate(0.00,0.00) scale(0.8400,0.7700)">
    <path d="M 98.2 50.72 L 100 48.74 L 98.2 46.76 L 95.81 44.26 L 94.01 42.3 L 92.23 44.26 L 91.02 45.58 C 89.86,39.11 87.44,33 83.94,27.65 L 83.11 26.39 L 88.48 20.26 L 90.28 18.3 L 88.48 16.32 L 86.19 13.82 L 84.3 11.69 L 82.73 13.42 C 81.59,10.03 79.65,7.04 77.09,4.77 C 74.54,2.5 71.48,1.03 68.21,0.51 C 64.96,0 61.65,0.46 58.61,1.85 C 55.59,3.24 52.95,5.51 50.99,8.41 L 49.38 8.41 C 40.15,8.55 31.25,12.08 24.06,18.43 L 23.56 18.85 C 21.89,17.63 20,16.82 18.03,16.47 C 16.05,16.11 14.03,16.22 12.09,16.79 C 10.15,17.36 8.35,18.38 6.8,19.78 C 5.25,21.17 3.99,22.91 3.1,24.89 C 2.2,26.86 1.7,29.02 1.63,31.22 C 1.56,33.43 1.91,35.62 2.66,37.66 C 3.43,39.7 4.56,41.54 6.03,43.06 C 7.48,44.57 9.2,45.73 11.1,46.46 L 10.6 47.01 L 1.8 56.68 L 0 58.66 L 1.8 60.61 L 4.19 63.24 L 5.98 65.22 L 7.78 63.24 L 8.64 62.32 C 8.64,62.52 8.64,62.74 8.64,62.94 L 9.25 65.65 C 9.25,65.87 9.25,66.08 9.41,66.28 L 9.41 66.55 L 9.41 66.8 C 9.45,67.02 9.5,67.24 9.58,67.45 L 9.91 68.61 L 9.91 68.81 C 9.91,68.96 9.91,69.11 9.91,69.26 L 10.75 71.89 C 10.91,72.31 11.08,72.74 11.25,73.14 L 11.69 74.24 L 12.02 74.92 L 12.32 75.62 L 12.85 76.7 C 14.05,79.02 15.43,81.23 16.95,83.31 L 17.66 84.24 L 18.16 84.81 L 18.59 85.41 L 19.36 86.29 C 21.06,88.21 22.9,89.97 24.88,91.53 L 25.78 92.25 L 26.39 92.68 L 26.95 93.13 L 27.91 93.76 C 30,95.13 32.2,96.31 34.48,97.26 L 35.5 97.69 L 36.16 97.89 L 36.84 98.17 L 37.91 98.49 C 39.05,98.84 40.19,99.17 41.43,99.42 C 42.65,99.67 43.84,99.87 45.05,99.99 L 46.14 99.99 L 46.85 99.99 L 47.58 99.99 L 49.4 99.99 C 51.59,100 53.78,99.81 55.94,99.44 L 57.02 99.24 L 57.71 99.04 L 58.43 98.92 L 59.49 98.64 C 61.83,98.03 64.11,97.19 66.33,96.14 L 67.33 95.64 L 67.94 95.26 L 68.6 94.93 L 69.59 94.36 C 71.53,93.17 73.38,91.81 75.12,90.3 L 75.74 89.75 C 77.83,91.04 80.18,91.72 82.57,91.73 C 85.86,91.7 89.05,90.4 91.58,88.06 C 94.09,85.72 95.79,82.49 96.36,78.92 C 96.94,75.35 96.36,71.68 94.74,68.52 C 93.11,65.37 90.53,62.95 87.45,61.67 L 88.79 60.21 L 98.2 50.72 L 98.2 50.72" fill="#FFFFFF" stroke="none" stroke-width="0.5"/>
  </g>
  <g transform="translate(41.00,13.00) scale(0.2600,0.1600)">
    <path d="M 53.1 100 C 39.08,100 25.57,90.97 15.63,74.88 C 5.66,58.8 0.04,36.96 0,14.17 L 0 0 L 18.7 0 L 18.7 14.17 C 18.74,26.63 21.33,38.72 26.04,48.52 C 30.79,58.32 37.43,65.28 44.85,68.3 C 52.32,71.33 60.17,70.24 67.2,65.21 C 74.23,60.18 80.05,51.5 83.7,40.53 L 86.17 32.87 L 100 55.28 L 98.27 59.7 C 93.44,72.04 86.8,82.2 78.87,89.25 C 70.97,96.29 62.14,99.99 53.1,100 L 53.1 100" fill="#2c5967" stroke="none" stroke-width="0.5"/>
  </g>
  <g transform="translate(45.00,24.00) scale(0.0700,0.0400)">
    <path d="M 53.54 0 L 0 0 C 12.28,25.56 26.84,47.15 43.26,63.79 L 63.68 63.79 L 63.68 81.9 C 75.43,90.14 87.58,96.2 100,100 L 100 34.92 C 83.44,28.59 67.69,16.75 53.54,0 L 53.54 0" fill="#2c5967" stroke="none" stroke-width="0.5"/>
  </g>
  <g transform="translate(40.00,12.00) scale(0.2900,0.1900)">
    <path d="M 95.92 46.36 L 88.74 35.43 L 82.18 24.7 L 77.2 38.16 C 74.17,46.47 69.48,53.02 63.82,56.8 C 58.15,60.58 51.84,61.38 45.85,59.07 C 39.86,56.77 34.52,51.48 30.7,44.05 C 26.84,36.61 24.71,27.42 24.57,17.92 L 24.57 0 L 0 0 L 0 17.92 C 0,33.97 3.1,49.65 8.95,62.97 C 11.4,68.46 14.25,73.49 17.5,77.95 C 22.66,85.19 28.75,90.73 35.35,94.25 C 38.56,95.89 41.85,97.08 45.17,97.79 C 55.23,100 65.48,97.65 74.68,91.04 C 83.87,84.42 91.63,73.82 96.97,60.54 L 100 52.94 L 95.92 46.36 L 95.92 46.36 M 52.45 86.86 C 50.04,86.86 47.58,86.56 45.17,85.95 C 41.81,85.05 38.53,83.63 35.35,81.69 C 33.48,80.48 31.6,79.06 29.83,77.44 C 25.4,73.53 21.46,68.46 18.15,62.46 C 11.22,50.06 7.36,34.27 7.29,17.92 L 7.29 11.24 L 17.1 11.24 L 17.1 17.92 C 17.1,26.8 18.51,35.55 21.21,43.4 C 23.92,51.25 27.85,57.96 32.61,62.97 C 36.44,66.9 40.69,69.68 45.17,71.17 C 47.58,71.9 50,72.27 52.45,72.28 C 58.84,72.26 65.12,69.59 70.6,64.55 C 76.08,59.51 80.59,52.28 83.62,43.63 L 90.73 54.56 C 86.65,64.54 81.02,72.77 74.35,78.47 C 67.64,84.17 60.1,87.16 52.45,87.16 L 52.45 86.86 L 52.45 86.86" fill="#FFFFFF" stroke="none" stroke-width="0.5"/>
  </g>
  <g transform="translate(42.00,13.00) scale(0.2400,0.1500)">
    <path d="M 91.48 44.05 C 87.03,57.24 79.94,67.69 71.29,73.76 C 62.69,79.82 53.05,81.15 43.88,77.53 C 34.76,73.92 26.63,65.56 20.8,53.78 C 14.96,42.01 11.8,27.49 11.76,12.51 L 11.76 0 L 0 0 L 0 12.51 C 0.04,31.16 3.89,49.29 10.98,64.16 C 18.07,79.03 28.02,89.82 39.3,94.91 C 50.63,100 62.65,99.11 73.58,92.37 C 84.57,85.63 93.82,73.41 100,57.56 L 91.48 44.05 L 91.48 44.05" fill="#2f2925" stroke="none" stroke-width="0.5"/>
  </g>
  <g transform="translate(36.00,29.00) scale(0.1200,0.0200)">
    <path d="M 100 0 L 0 0 L 0 100 L 100 100 L 100 0 L 100 0" fill="#2c5967" stroke="none" stroke-width="0.5"/>
  </g>
  <g transform="translate(36.00,34.00) scale(0.1200,0.0200)">
    <path d="M 100 0 L 0 0 L 0 100 L 100 100 L 100 0 L 100 0" fill="#2c5967" stroke="none" stroke-width="0.5"/>
  </g>
  <g transform="translate(36.00,40.00) scale(0.1200,0.0200)">
    <path d="M 100 0 L 0 0 L 0 100 L 100 100 L 100 0 L 100 0" fill="#2c5967" stroke="none" stroke-width="0.5"/>
  </g>
  <g transform="translate(36.00,46.00) scale(0.1100,0.1200)">
    <path d="M 98.38 0 L 72.69 0 L 50.85 34.49 L 28.48 0 L 1.62 0 L 33.51 48.19 L 0 100 L 25.7 100 L 49.06 62.2 L 73.32 100 L 100 100 L 66.49 48.49 L 98.38 0 L 98.38 0" fill="#2c5967" stroke="none" stroke-width="0.5"/>
  </g>
  <g transform="translate(41.00,71.00) scale(0.0500,0.0300)">
    <path d="M 0 11.89 L 0 100 L 9.87 100 C 40.04,100 70.2,95.82 100,87.49 L 91.96 0 C 61.61,8.85 30.71,12.83 0,11.89 L 0 11.89" fill="#2c5967" stroke="none" stroke-width="0.5"/>
  </g>
  <g transform="translate(25.00,67.00) scale(0.0600,0.0400)">
    <path d="M 0 49.22 C 26.7,69 54.59,85.99 83.67,100 L 100 46.12 C 73.47,33.43 47.96,18.01 23.47,0 L 0 49.22 L 0 49.22" fill="#2c5967" stroke="none" stroke-width="0.5"/>
  </g>
  <g transform="translate(33.00,71.00) scale(0.0500,0.0300)">
    <path d="M 12.92 0 L 0 71.5 C 15.4,78 32.21,83.98 47.08,89 C 61.95,93.99 79.29,97.5 94.87,100 L 100 26 C 85.49,26 70.62,20.52 56.11,16.02 C 41.59,11.52 27.43,6.5 12.92,0 L 12.92 0" fill="#2c5967" stroke="none" stroke-width="0.5"/>
  </g>
  <g transform="translate(18.00,63.00) scale(0.0600,0.0500)">
    <path d="M 0 33.32 C 22.03,57.77 46.33,80.08 72.2,100 L 100 60 C 76.22,42.1 54.02,22.02 33.74,0 L 0 33.32 L 0 33.32" fill="#2c5967" stroke="none" stroke-width="0.5"/>
  </g>
  <g transform="translate(49.00,69.00) scale(0.0600,0.0400)">
    <path d="M 0 38.98 L 11.3 100 C 41.61,89.05 71.23,74.9 100,57.62 L 80.99 0 C 54.79,16.13 27.74,29.17 0,38.98 L 0 38.98" fill="#2c5967" stroke="none" stroke-width="0.5"/>
  </g>
  <g transform="translate(13.00,56.00) scale(0.0500,0.0600)">
    <path d="M 45.54 0 L 0 21.5 C 17.05,49.19 37.02,75.47 59.3,100 L 100 70.72 C 79.65,48.49 61.43,24.83 45.54,0 L 45.54 0" fill="#2c5967" stroke="none" stroke-width="0.5"/>
  </g>
  <g transform="translate(3.00,37.00) scale(0.1400,0.1700)">
    <path d="M 68.99 76.65 C 68.35,75.03 67.64,73.4 67.14,71.79 L 66 68.54 C 61.89,55.98 59.47,43.07 58.91,30.05 L 86.44 53.19 L 100 41.84 L 50.11 0 L 0 41.84 L 13.63 53.19 L 39.46 31.57 C 40.1,44.34 42.3,57.01 46.06,69.41 L 47.2 73.08 C 47.2,74.27 47.98,75.46 48.55,76.65 C 49.04,78.38 49.68,80.07 50.46,81.73 C 50.75,82.65 51.1,83.55 51.53,84.43 C 53.66,89.69 56.14,94.88 58.91,100 L 76.37 93.4 C 73.74,87.78 71.19,82.27 68.99,76.65 L 68.99 76.65" fill="#2c5967" stroke="none" stroke-width="0.5"/>
  </g>
  <g transform="translate(3.00,14.00) scale(0.1900,0.1900)">
    <path d="M 49.52 100 C 59.28,100 68.89,97.1 77,91.65 C 85.17,86.21 91.52,78.48 95.25,69.43 C 98.99,60.38 100,50.42 98.08,40.82 C 96.16,31.21 91.46,22.39 84.53,15.46 C 77.59,8.54 68.78,3.82 59.18,1.91 C 49.57,0 39.59,0.98 30.58,4.73 C 21.5,8.48 13.77,14.82 8.32,22.97 C 2.93,31.11 0,40.69 0,50.48 C 0,63.61 5.23,76.21 14.51,85.5 C 23.8,94.78 36.39,100 49.52,100 L 49.52 100 M 49.52 15.07 C 56.46,15.07 63.23,17.13 69,20.99 C 74.81,24.84 79.3,30.33 81.96,36.75 C 84.63,43.16 85.33,50.23 83.94,57.04 C 82.6,63.85 79.24,70.11 74.33,75.02 C 69.42,79.93 63.18,83.28 56.35,84.63 C 49.57,85.99 42.48,85.29 36.07,82.64 C 29.67,79.98 24.17,75.48 20.33,69.7 C 16.44,63.92 14.41,57.13 14.41,50.19 C 14.41,40.87 18.09,31.94 24.71,25.35 C 31.27,18.77 40.18,15.07 49.52,15.07 L 49.52 15.07" fill="#2c5967" stroke="none" stroke-width="0.5"/>
  </g>
  <g transform="translate(21.00,8.00) scale(0.2000,0.0900)">
    <path d="M 9.2 100 C 33.58,58.58 63.37,34.49 94.43,31.07 C 95.74,20.33 97.64,9.92 100,0 C 63.64,1.1 28.48,28.01 0,76.54 C 3.47,83.53 6.57,91.41 9.2,100 L 9.2 100" fill="#2c5967" stroke="none" stroke-width="0.5"/>
  </g>
  <g transform="translate(66.00,22.00) scale(0.1400,0.2200)">
    <path d="M 16.42 0 C 13.29,4.11 9.59,8.01 5.26,11.62 C 24.45,30.58 35.96,52.43 38.81,75.13 L 12.94 58.03 L 0 67.01 L 49.96 100 L 100 67.01 L 86.35 58.03 L 59.06 76.15 C 55.93,48.63 41.15,22.24 16.42,0 L 16.42 0" fill="#2c5967" stroke="none" stroke-width="0.5"/>
  </g>
  <g transform="translate(60.00,49.00) scale(0.1900,0.1900)">
    <path d="M 50.48 0 C 40.66,0 31.11,2.9 22.95,8.35 C 14.83,13.79 8.48,21.52 4.75,30.57 C 0.96,39.62 0,49.58 1.92,59.18 C 3.84,68.79 8.54,77.61 15.47,84.54 C 22.41,91.47 31.22,96.18 40.82,98.09 C 50.43,100 60.35,99.02 69.42,95.27 C 78.44,91.52 86.18,85.18 91.62,77.03 C 97.07,68.89 100,59.32 100,49.52 C 100,36.39 94.77,23.79 85.49,14.51 C 76.2,5.22 63.61,0 50.48,0 L 50.48 0 M 50.48 84.64 C 43.54,84.64 36.71,82.58 30.95,78.72 C 25.19,74.86 20.7,69.38 18.04,62.96 C 15.37,56.55 14.67,49.48 16.01,42.67 C 17.4,35.86 20.7,29.6 25.67,24.69 C 30.58,19.77 36.82,16.43 43.6,15.07 C 50.43,13.72 57.47,14.42 63.93,17.07 C 70.33,19.73 75.83,24.23 79.67,30.01 C 83.51,35.78 85.59,42.58 85.59,49.52 C 85.49,58.77 81.75,67.6 75.19,74.11 C 68.57,80.61 59.71,84.25 50.48,84.25 L 50.48 84.64 L 50.48 84.64" fill="#2c5967" stroke="none" stroke-width="0.5"/>
  </g>
  <g transform="translate(9.00,21.00) scale(0.0800,0.0700)">
    <path d="M 100 27.89 L 77.34 0 L 40.21 45 L 22.42 23.68 L 0 51.32 L 40.21 100 L 100 27.89 L 100 27.89" fill="#2c5967" stroke="none" stroke-width="0.5"/>
  </g>
  <g transform="translate(66.00,55.00) scale(0.0700,0.0700)">
    <path d="M 73.73 0 L 50.07 23.88 L 26.13 0 L 0 26.12 L 23.94 50.01 L 0 73.88 L 26.13 100 L 50.07 76.12 L 73.73 100 L 100 73.88 L 76.33 50.01 L 100 26.12 L 73.73 0 L 73.73 0" fill="#2c5967" stroke="none" stroke-width="0.5"/>
  </g>
  <g transform="translate(56.00,65.00) scale(0.0500,0.0500)">
    <path d="M 66.3 0 C 45.36,18.71 23.13,35.62 0,50.57 L 23.86 100 C 50.64,83.04 75.96,63.58 100,41.76 C 87.25,29.55 75.96,15.51 66.3,0 L 66.3 0" fill="#2c5967" stroke="none" stroke-width="0.5"/>
  </g>
  <g transform="translate(44.00,2.00) scale(0.2900,0.1700)">
    <path d="M 0.47 37.79 L 6.43 47.39 L 6.98 48.14 C 10.58,37.21 16.25,28.46 23.16,23.16 C 30.06,17.87 37.8,16.31 45.29,18.73 C 52.78,21.14 59.58,27.39 64.7,36.57 C 69.87,45.75 73.03,57.36 73.83,69.71 L 65.29 55.58 L 58.63 66.36 L 79.32 100 L 100 66.36 L 93.38 55.58 L 83.82 70.14 C 83.13,54.6 79.43,39.81 73.25,27.89 C 67.1,15.97 58.78,7.53 49.47,3.76 C 40.17,0 30.39,1.11 21.52,6.93 C 12.65,12.75 5.09,22.98 0,36.18 L 0.8 37.47 L 0.47 37.79 L 0.47 37.79" fill="#2c5967" stroke="none" stroke-width="0.5"/>
  </g>
  <g transform="translate(50.00,7.00) scale(0.1000,0.1300)">
    <path d="M 63.49 0 L 37.39 0 L 0 99.17 L 0 100 L 27.58 100 L 33.66 79.28 L 65.46 79.28 L 71.74 100 L 100 100 L 100 99.17 L 63.49 0 L 63.49 0 M 50.05 24.86 L 60.65 61.05 L 39.16 61.05 L 50.05 24.86 L 50.05 24.86" fill="#2c5967" stroke="none" stroke-width="0.5"/>
  </g>
  <g transform="translate(37.00,11.00) scale(0.2800,0.1700)">
    <path d="M 0.22 34.25 L 7.2 45.13 L 17 29.14 C 17.51,44.71 21.09,59.61 27.16,71.66 C 33.22,83.71 41.48,92.29 50.73,96.14 C 59.98,100 69.77,98.94 78.62,93.1 C 87.5,87.27 94.99,76.98 100,63.72 L 94.01 54.04 C 90.28,65.52 84.36,74.69 77.12,80.19 C 69.92,85.69 61.81,87.21 54.02,84.52 C 46.24,81.83 39.18,75.08 33.95,65.29 C 28.73,55.5 25.58,43.19 25,30.23 L 34.65 45.89 L 41.3 35.01 L 20.87 0 L 0 33.93 L 0.22 34.25 L 0.22 34.25" fill="#2c5967" stroke="none" stroke-width="0.5"/>
  </g>
  <g transform="translate(31.00,24.00) scale(0.2200,0.4100)">
    <path d="M 87.04 93.01 L 13.2 93.01 L 13.2 6.94 L 63.44 6.94 C 59.15,4.88 55.39,2.55 52.14,0 L 0 0 L 0 100 L 100 100 L 100 16.13 C 95.61,15.8 91.28,15.25 87.04,14.49 L 87.04 93.01 L 87.04 93.01" fill="#2c5967" stroke="none" stroke-width="0.5"/>
  </g>
</svg>