<svg xmlns="http://www.w3.org/2000/svg" viewBox="0 0 950.0 490" width="950" height="490">
  <g transform="translate(288.50,281.50) scale(0.4100,0.4100)">
    <path d="M 5.36 100 C 2.55,100 0,97.7 0,94.64 L 0 5.36 C 0,2.55 2.3,0 5.36,0 L 94.64 0 C 97.7,0 100,2.3 100,5.36 L 100 94.64 C 100,97.7 97.7,100 94.64,100 L 5.36 100 L 5.36 100" fill="#FFFFFF" stroke="none" stroke-width="0.5"/>
  </g>
  <g transform="translate(288.00,281.00) scale(0.4200,0.4200)">
    <path d="M 93.53 2.49 C 95.77,2.49 97.51,4.23 97.51,6.47 L 97.51 93.53 C 97.51,95.77 95.77,97.51 93.53,97.51 L 6.47 97.51 C 4.23,97.51 2.49,95.77 2.49,93.53 L 2.49 6.47 C 2.49,4.23 4.23,2.49 6.47,2.49 L 93.53 2.49 L 93.53 2.49 M 93.53 0 L 6.47 0 C 2.98,0 0,2.99 0,6.47 L 0 93.53 C 0,97.02 2.98,100 6.47,100 L 93.53 100 C 97.01,100 100,97.02 100,93.53 L 100 6.47 C 100,2.99 97.26,0 93.53,0 L 93.53 0" fill="#FFFFFF" stroke="none" stroke-width="0.5"/>
  </g>
  <g transform="translate(289.00,282.00) scale(0.4000,0.4000)">
    <path d="M 95.81 0 L 4.19 0 C 1.83,0 0,1.83 0,4.19 L 0 95.81 C 0,98.17 1.83,100 4.19,100 L 95.81 100 C 98.17,100 100,98.17 100,95.81 L 100 4.19 C 100,1.83 98.17,0 95.81,0 L 95.81 0 M 96.34 95.81 C 96.34,96.07 96.07,96.34 95.81,96.34 L 4.19 96.34 C 3.93,96.34 3.66,96.07 3.66,95.81 L 3.66 4.19 C 3.66,3.93 3.93,3.66 4.19,3.66 L 95.81 3.66 C 96.07,3.66 96.34,3.93 96.34,4.19 L 96.34 95.81 L 96.34 95.81" fill="#2d5967" stroke="none" stroke-width="0.5"/>
  </g>
  <g transform="translate(293.00,308.50) scale(0.3100,0.0850)">
    <path d="M 0 100 L 100 100 L 100 0 L 0 0 L 0 100 L 0 100 M 5.03 16.47 L 95.3 16.47 L 95.3 83.53 L 5.03 83.53 L 5.03 16.47 L 5.03 16.47" fill="#2d5967" stroke="none" stroke-width="0.5"/>
  </g>
  <g transform="translate(318.50,312.00) scale(0.0200,0.0200)">
    <path d="M 50.01 100 C 77.62,100 100,77.62 100,50.01 C 100,22.4 77.62,0 50.01,0 C 22.4,0 0,22.4 0,50.01 C 0,77.62 22.4,100 50.01,100 L 50.01 100" fill="#2d5967" stroke="none" stroke-width="0.5"/>
  </g>
  <g transform="translate(293.00,286.00) scale(0.1450,0.0850)">
    <path d="M 100 0 L 0 0 L 0 100 L 100 100 L 100 0 L 100 0 M 46.38 17.65 L 54.35 17.65 L 54.35 84.71 L 46.38 84.71 C 46.38,83.53 46.38,17.65 46.38,17.65 L 46.38 17.65 M 36.23 83.53 L 28.26 83.53 L 28.26 17.65 L 36.23 17.65 L 36.23 83.53 L 36.23 83.53 M 64.49 17.65 L 72.46 17.65 L 72.46 84.71 L 64.49 84.71 L 64.49 17.65 L 64.49 17.65 M 10.87 17.65 L 18.84 17.65 L 18.84 84.71 L 10.87 84.71 L 10.87 17.65 L 10.87 17.65 M 89.86 83.53 L 81.88 83.53 L 81.88 17.65 L 89.86 17.65 L 89.86 83.53 L 89.86 83.53" fill="#2d5967" stroke="none" stroke-width="0.5"/>
  </g>
  <g transform="translate(310.00,286.00) scale(0.1450,0.0850)">
    <path d="M 0 100 L 100 100 L 100 0 L 0 0 L 0 100 L 0 100 M 53.62 83.53 L 45.65 83.53 L 45.65 17.65 L 53.62 17.65 L 53.62 83.53 L 53.62 83.53 M 63.77 17.65 L 71.74 17.65 L 71.74 84.71 L 63.77 84.71 L 63.77 17.65 L 63.77 17.65 M 35.51 83.53 L 27.54 83.53 L 27.54 17.65 L 35.51 17.65 L 35.51 83.53 L 35.51 83.53 M 89.86 83.53 L 81.88 83.53 L 81.88 17.65 L 89.86 17.65 L 89.86 83.53 L 89.86 83.53 M 10.14 17.65 L 18.12 17.65 L 18.12 84.71 L 10.14 84.71 L 10.14 17.65 L 10.14 17.65" fill="#2d5967" stroke="none" stroke-width="0.5"/>
  </g>
  <g transform="translate(293.00,297.50) scale(0.1450,0.0850)">
    <path d="M 100 0 L 0 0 L 0 100 L 100 100 L 100 0 L 100 0 M 46.38 16.47 L 54.35 16.47 L 54.35 83.53 L 46.38 83.53 C 46.38,82.35 46.38,16.47 46.38,16.47 L 46.38 16.47 M 36.23 83.53 L 28.26 83.53 L 28.26 16.47 L 36.23 16.47 L 36.23 83.53 L 36.23 83.53 M 64.49 16.47 L 72.46 16.47 L 72.46 83.53 L 64.49 83.53 L 64.49 16.47 L 64.49 16.47 M 10.87 16.47 L 18.84 16.47 L 18.84 83.53 L 10.87 83.53 L 10.87 16.47 L 10.87 16.47 M 89.86 83.53 L 81.88 83.53 L 81.88 16.47 L 89.86 16.47 L 89.86 83.53 L 89.86 83.53" fill="#2d5967" stroke="none" stroke-width="0.5"/>
  </g>
  <g transform="translate(310.00,297.50) scale(0.1450,0.0850)">
    <path d="M 0 100 L 100 100 L 100 0 L 0 0 L 0 100 L 0 100 M 53.62 83.53 L 45.65 83.53 L 45.65 16.47 L 53.62 16.47 L 53.62 83.53 L 53.62 83.53 M 63.77 16.47 L 71.74 16.47 L 71.74 83.53 L 63.77 83.53 L 63.77 16.47 L 63.77 16.47 M 35.51 83.53 L 27.54 83.53 L 27.54 16.47 L 35.51 16.47 L 35.51 83.53 L 35.51 83.53 M 89.86 83.53 L 81.88 83.53 L 81.88 16.47 L 89.86 16.47 L 89.86 83.53 L 89.86 83.53 M 10.14 16.47 L 18.12 16.47 L 18.12 83.53 L 10.14 83.53 L 10.14 16.47 L 10.14 16.47" fill="#2d5967" stroke="none" stroke-width="0.5"/>
  </g>
  <g transform="translate(271.00,321.00) scale(0.7900,0.2000)">
    <path d="M 0 100 L 100 100 L 100 0 L 0 0 L 0 100" fill="none" stroke="#000000" stroke-width="0.5"/>
  </g>
  <g transform="translate(190.24,212.50) scale(0.4100,0.4100)">
    <path d="M 5.36 100 C 2.55,100 0,97.7 0,94.64 L 0 5.36 C 0,2.55 2.3,0 5.36,0 L 94.64 0 C 97.7,0 100,2.3 100,5.36 L 100 94.64 C 100,97.7 97.7,100 94.64,100 L 5.36 100 L 5.36 100" fill="#FFFFFF" stroke="none" stroke-width="0.5"/>
  </g>
  <g transform="translate(189.74,212.00) scale(0.4200,0.4200)">
    <path d="M 93.53 2.49 C 95.77,2.49 97.51,4.23 97.51,6.47 L 97.51 93.53 C 97.51,95.77 95.77,97.51 93.53,97.51 L 6.47 97.51 C 4.23,97.51 2.49,95.77 2.49,93.53 L 2.49 6.47 C 2.49,4.23 4.23,2.49 6.47,2.49 L 93.53 2.49 L 93.53 2.49 M 93.53 0 L 6.47 0 C 2.98,0 0,2.99 0,6.47 L 0 93.53 C 0,97.02 2.98,100 6.47,100 L 93.53 100 C 97.01,100 100,97.02 100,93.53 L 100 6.47 C 100,2.99 97.26,0 93.53,0 L 93.53 0" fill="#FFFFFF" stroke="none" stroke-width="0.5"/>
  </g>
  <g transform="translate(190.74,213.00) scale(0.4000,0.4000)">
    <path d="M 95.81 0 L 4.19 0 C 1.83,0 0,1.83 0,4.19 L 0 95.81 C 0,98.17 1.83,100 4.19,100 L 95.81 100 C 98.17,100 100,98.17 100,95.81 L 100 4.19 C 100,1.83 98.17,0 95.81,0 L 95.81 0 M 96.34 95.81 C 96.34,96.07 96.07,96.34 95.81,96.34 L 4.19 96.34 C 3.93,96.34 3.66,96.07 3.66,95.81 L 3.66 4.19 C 3.66,3.93 3.93,3.66 4.19,3.66 L 95.81 3.66 C 96.07,3.66 96.34,3.93 96.34,4.19 L 96.34 95.81 L 96.34 95.81" fill="#2d5967" stroke="none" stroke-width="0.5"/>
  </g>
  <g transform="translate(194.74,239.50) scale(0.3100,0.0850)">
    <path d="M 0 100 L 100 100 L 100 0 L 0 0 L 0 100 L 0 100 M 5.03 16.47 L 95.3 16.47 L 95.3 83.53 L 5.03 83.53 L 5.03 16.47 L 5.03 16.47" fill="#2d5967" stroke="none" stroke-width="0.5"/>
  </g>
  <g transform="translate(220.24,243.00) scale(0.0200,0.0200)">
    <path d="M 50.01 100 C 77.62,100 100,77.62 100,50.01 C 100,22.4 77.62,0 50.01,0 C 22.4,0 0,22.4 0,50.01 C 0,77.62 22.4,100 50.01,100 L 50.01 100" fill="#2d5967" stroke="none" stroke-width="0.5"/>
  </g>
  <g transform="translate(194.74,217.00) scale(0.1450,0.0850)">
    <path d="M 100 0 L 0 0 L 0 100 L 100 100 L 100 0 L 100 0 M 46.38 17.65 L 54.35 17.65 L 54.35 84.71 L 46.38 84.71 C 46.38,83.53 46.38,17.65 46.38,17.65 L 46.38 17.65 M 36.23 83.53 L 28.26 83.53 L 28.26 17.65 L 36.23 17.65 L 36.23 83.53 L 36.23 83.53 M 64.49 17.65 L 72.46 17.65 L 72.46 84.71 L 64.49 84.71 L 64.49 17.65 L 64.49 17.65 M 10.87 17.65 L 18.84 17.65 L 18.84 84.71 L 10.87 84.71 L 10.87 17.65 L 10.87 17.65 M 89.86 83.53 L 81.88 83.53 L 81.88 17.65 L 89.86 17.65 L 89.86 83.53 L 89.86 83.53" fill="#2d5967" stroke="none" stroke-width="0.5"/>
  </g>
  <g transform="translate(211.74,217.00) scale(0.1450,0.0850)">
    <path d="M 0 100 L 100 100 L 100 0 L 0 0 L 0 100 L 0 100 M 53.62 83.53 L 45.65 83.53 L 45.65 17.65 L 53.62 17.65 L 53.62 83.53 L 53.62 83.53 M 63.77 17.65 L 71.74 17.65 L 71.74 84.71 L 63.77 84.71 L 63.77 17.65 L 63.77 17.65 M 35.51 83.53 L 27.54 83.53 L 27.54 17.65 L 35.51 17.65 L 35.51 83.53 L 35.51 83.53 M 89.86 83.53 L 81.88 83.53 L 81.88 17.65 L 89.86 17.65 L 89.86 83.53 L 89.86 83.53 M 10.14 17.65 L 18.12 17.65 L 18.12 84.71 L 10.14 84.71 L 10.14 17.65 L 10.14 17.65" fill="#2d5967" stroke="none" stroke-width="0.5"/>
  </g>
  <g transform="translate(194.74,228.50) scale(0.1450,0.0850)">
    <path d="M 100 0 L 0 0 L 0 100 L 100 100 L 100 0 L 100 0 M 46.38 16.47 L 54.35 16.47 L 54.35 83.53 L 46.38 83.53 C 46.38,82.35 46.38,16.47 46.38,16.47 L 46.38 16.47 M 36.23 83.53 L 28.26 83.53 L 28.26 16.47 L 36.23 16.47 L 36.23 83.53 L 36.23 83.53 M 64.49 16.47 L 72.46 16.47 L 72.46 83.53 L 64.49 83.53 L 64.49 16.47 L 64.49 16.47 M 10.87 16.47 L 18.84 16.47 L 18.84 83.53 L 10.87 83.53 L 10.87 16.47 L 10.87 16.47 M 89.86 83.53 L 81.88 83.53 L 81.88 16.47 L 89.86 16.47 L 89.86 83.53 L 89.86 83.53" fill="#2d5967" stroke="none" stroke-width="0.5"/>
  </g>
  <g transform="translate(211.74,228.50) scale(0.1450,0.0850)">
    <path d="M 0 100 L 100 100 L 100 0 L 0 0 L 0 100 L 0 100 M 53.62 83.53 L 45.65 83.53 L 45.65 16.47 L 53.62 16.47 L 53.62 83.53 L 53.62 83.53 M 63.77 16.47 L 71.74 16.47 L 71.74 83.53 L 63.77 83.53 L 63.77 16.47 L 63.77 16.47 M 35.51 83.53 L 27.54 83.53 L 27.54 16.47 L 35.51 16.47 L 35.51 83.53 L 35.51 83.53 M 89.86 83.53 L 81.88 83.53 L 81.88 16.47 L 89.86 16.47 L 89.86 83.53 L 89.86 83.53 M 10.14 16.47 L 18.12 16.47 L 18.12 83.53 L 10.14 83.53 L 10.14 16.47 L 10.14 16.47" fill="#2d5967" stroke="none" stroke-width="0.5"/>
  </g>
  <g transform="translate(171.74,252.00) scale(0.7700,0.2000)">
    <path d="M 0 100 L 100 100 L 100 0 L 0 0 L 0 100" fill="none" stroke="#000000" stroke-width="0.5"/>
  </g>
  <g transform="translate(288.50,212.50) scale(0.4100,0.4100)">
    <path d="M 5.36 100 C 2.55,100 0,97.7 0,94.64 L 0 5.36 C 0,2.55 2.3,0 5.36,0 L 94.64 0 C 97.7,0 100,2.3 100,5.36 L 100 94.64 C 100,97.7 97.7,100 94.64,100 L 5.36 100 L 5.36 100" fill="#FFFFFF" stroke="none" stroke-width="0.5"/>
  </g>
  <g transform="translate(288.00,212.00) scale(0.4200,0.4200)">
    <path d="M 93.53 2.49 C 95.77,2.49 97.51,4.23 97.51,6.47 L 97.51 93.53 C 97.51,95.77 95.77,97.51 93.53,97.51 L 6.47 97.51 C 4.23,97.51 2.49,95.77 2.49,93.53 L 2.49 6.47 C 2.49,4.23 4.23,2.49 6.47,2.49 L 93.53 2.49 L 93.53 2.49 M 93.53 0 L 6.47 0 C 2.98,0 0,2.99 0,6.47 L 0 93.53 C 0,97.02 2.98,100 6.47,100 L 93.53 100 C 97.01,100 100,97.02 100,93.53 L 100 6.47 C 100,2.99 97.26,0 93.53,0 L 93.53 0" fill="#FFFFFF" stroke="none" stroke-width="0.5"/>
  </g>
  <g transform="translate(289.00,213.00) scale(0.4000,0.4000)">
    <path d="M 95.81 0 L 4.19 0 C 1.83,0 0,1.83 0,4.19 L 0 95.81 C 0,98.17 1.83,100 4.19,100 L 95.81 100 C 98.17,100 100,98.17 100,95.81 L 100 4.19 C 100,1.83 98.17,0 95.81,0 L 95.81 0 M 96.34 95.81 C 96.34,96.07 96.07,96.34 95.81,96.34 L 4.19 96.34 C 3.93,96.34 3.66,96.07 3.66,95.81 L 3.66 4.19 C 3.66,3.93 3.93,3.66 4.19,3.66 L 95.81 3.66 C 96.07,3.66 96.34,3.93 96.34,4.19 L 96.34 95.81 L 96.34 95.81" fill="#2d5967" stroke="none" stroke-width="0.5"/>
  </g>
  <g transform="translate(293.00,239.50) scale(0.3100,0.0850)">
    <path d="M 0 100 L 100 100 L 100 0 L 0 0 L 0 100 L 0 100 M 5.03 16.47 L 95.3 16.47 L 95.3 83.53 L 5.03 83.53 L 5.03 16.47 L 5.03 16.47" fill="#2d5967" stroke="none" stroke-width="0.5"/>
  </g>
  <g transform="translate(318.50,243.00) scale(0.0200,0.0200)">
    <path d="M 50.01 100 C 77.62,100 100,77.62 100,50.01 C 100,22.4 77.62,0 50.01,0 C 22.4,0 0,22.4 0,50.01 C 0,77.62 22.4,100 50.01,100 L 50.01 100" fill="#2d5967" stroke="none" stroke-width="0.5"/>
  </g>
  <g transform="translate(293.00,217.00) scale(0.1450,0.0850)">
    <path d="M 100 0 L 0 0 L 0 100 L 100 100 L 100 0 L 100 0 M 46.38 17.65 L 54.35 17.65 L 54.35 84.71 L 46.38 84.71 C 46.38,83.53 46.38,17.65 46.38,17.65 L 46.38 17.65 M 36.23 83.53 L 28.26 83.53 L 28.26 17.65 L 36.23 17.65 L 36.23 83.53 L 36.23 83.53 M 64.49 17.65 L 72.46 17.65 L 72.46 84.71 L 64.49 84.71 L 64.49 17.65 L 64.49 17.65 M 10.87 17.65 L 18.84 17.65 L 18.84 84.71 L 10.87 84.71 L 10.87 17.65 L 10.87 17.65 M 89.86 83.53 L 81.88 83.53 L 81.88 17.65 L 89.86 17.65 L 89.86 83.53 L 89.86 83.53" fill="#2d5967" stroke="none" stroke-width="0.5"/>
  </g>
  <g transform="translate(310.00,217.00) scale(0.1450,0.0850)">
    <path d="M 0 100 L 100 100 L 100 0 L 0 0 L 0 100 L 0 100 M 53.62 83.53 L 45.65 83.53 L 45.65 17.65 L 53.62 17.65 L 53.62 83.53 L 53.62 83.53 M 63.77 17.65 L 71.74 17.65 L 71.74 84.71 L 63.77 84.71 L 63.77 17.65 L 63.77 17.65 M 35.51 83.53 L 27.54 83.53 L 27.54 17.65 L 35.51 17.65 L 35.51 83.53 L 35.51 83.53 M 89.86 83.53 L 81.88 83.53 L 81.88 17.65 L 89.86 17.65 L 89.86 83.53 L 89.86 83.53 M 10.14 17.65 L 18.12 17.65 L 18.12 84.71 L 10.14 84.71 L 10.14 17.65 L 10.14 17.65" fill="#2d5967" stroke="none" stroke-width="0.5"/>
  </g>
  <g transform="translate(293.00,228.50) scale(0.1450,0.0850)">
    <path d="M 100 0 L 0 0 L 0 100 L 100 100 L 100 0 L 100 0 M 46.38 16.47 L 54.35 16.47 L 54.35 83.53 L 46.38 83.53 C 46.38,82.35 46.38,16.47 46.38,16.47 L 46.38 16.47 M 36.23 83.53 L 28.26 83.53 L 28.26 16.47 L 36.23 16.47 L 36.23 83.53 L 36.23 83.53 M 64.49 16.47 L 72.46 16.47 L 72.46 83.53 L 64.49 83.53 L 64.49 16.47 L 64.49 16.47 M 10.87 16.47 L 18.84 16.47 L 18.84 83.53 L 10.87 83.53 L 10.87 16.47 L 10.87 16.47 M 89.86 83.53 L 81.88 83.53 L 81.88 16.47 L 89.86 16.47 L 89.86 83.53 L 89.86 83.53" fill="#2d5967" stroke="none" stroke-width="0.5"/>
  </g>
  <g transform="translate(310.00,228.50) scale(0.1450,0.0850)">
    <path d="M 0 100 L 100 100 L 100 0 L 0 0 L 0 100 L 0 100 M 53.62 83.53 L 45.65 83.53 L 45.65 16.47 L 53.62 16.47 L 53.62 83.53 L 53.62 83.53 M 63.77 16.47 L 71.74 16.47 L 71.74 83.53 L 63.77 83.53 L 63.77 16.47 L 63.77 16.47 M 35.51 83.53 L 27.54 83.53 L 27.54 16.47 L 35.51 16.47 L 35.51 83.53 L 35.51 83.53 M 89.86 83.53 L 81.88 83.53 L 81.88 16.47 L 89.86 16.47 L 89.86 83.53 L 89.86 83.53 M 10.14 16.47 L 18.12 16.47 L 18.12 83.53 L 10.14 83.53 L 10.14 16.47 L 10.14 16.47" fill="#2d5967" stroke="none" stroke-width="0.5"/>
  </g>
  <g transform="translate(271.00,252.00) scale(0.7700,0.2000)">
    <path d="M 0 100 L 100 100 L 100 0 L 0 0 L 0 100" fill="none" stroke="#000000" stroke-width="0.5"/>
  </g>
  <g transform="translate(190.24,281.50) scale(0.4100,0.4100)">
    <path d="M 5.36 100 C 2.55,100 0,97.7 0,94.64 L 0 5.36 C 0,2.55 2.3,0 5.36,0 L 94.64 0 C 97.7,0 100,2.3 100,5.36 L 100 94.64 C 100,97.7 97.7,100 94.64,100 L 5.36 100 L 5.36 100" fill="#FFFFFF" stroke="none" stroke-width="0.5"/>
  </g>
  <g transform="translate(189.74,281.00) scale(0.4200,0.4200)">
    <path d="M 93.53 2.49 C 95.77,2.49 97.51,4.23 97.51,6.47 L 97.51 93.53 C 97.51,95.77 95.77,97.51 93.53,97.51 L 6.47 97.51 C 4.23,97.51 2.49,95.77 2.49,93.53 L 2.49 6.47 C 2.49,4.23 4.23,2.49 6.47,2.49 L 93.53 2.49 L 93.53 2.49 M 93.53 0 L 6.47 0 C 2.98,0 0,2.99 0,6.47 L 0 93.53 C 0,97.02 2.98,100 6.47,100 L 93.53 100 C 97.01,100 100,97.02 100,93.53 L 100 6.47 C 100,2.99 97.26,0 93.53,0 L 93.53 0" fill="#FFFFFF" stroke="none" stroke-width="0.5"/>
  </g>
  <g transform="translate(190.74,282.00) scale(0.4000,0.4000)">
    <path d="M 95.81 0 L 4.19 0 C 1.83,0 0,1.83 0,4.19 L 0 95.81 C 0,98.17 1.83,100 4.19,100 L 95.81 100 C 98.17,100 100,98.17 100,95.81 L 100 4.19 C 100,1.83 98.17,0 95.81,0 L 95.81 0 M 96.34 95.81 C 96.34,96.07 96.07,96.34 95.81,96.34 L 4.19 96.34 C 3.93,96.34 3.66,96.07 3.66,95.81 L 3.66 4.19 C 3.66,3.93 3.93,3.66 4.19,3.66 L 95.81 3.66 C 96.07,3.66 96.34,3.93 96.34,4.19 L 96.34 95.81 L 96.34 95.81" fill="#2d5967" stroke="none" stroke-width="0.5"/>
  </g>
  <g transform="translate(194.74,308.50) scale(0.3100,0.0850)">
    <path d="M 0 100 L 100 100 L 100 0 L 0 0 L 0 100 L 0 100 M 5.03 16.47 L 95.3 16.47 L 95.3 83.53 L 5.03 83.53 L 5.03 16.47 L 5.03 16.47" fill="#2d5967" stroke="none" stroke-width="0.5"/>
  </g>
  <g transform="translate(220.24,312.00) scale(0.0200,0.0200)">
    <path d="M 50.01 100 C 77.62,100 100,77.62 100,50.01 C 100,22.4 77.62,0 50.01,0 C 22.4,0 0,22.4 0,50.01 C 0,77.62 22.4,100 50.01,100 L 50.01 100" fill="#2d5967" stroke="none" stroke-width="0.5"/>
  </g>
  <g transform="translate(194.74,286.00) scale(0.1450,0.0850)">
    <path d="M 100 0 L 0 0 L 0 100 L 100 100 L 100 0 L 100 0 M 46.38 17.65 L 54.35 17.65 L 54.35 84.71 L 46.38 84.71 C 46.38,83.53 46.38,17.65 46.38,17.65 L 46.38 17.65 M 36.23 83.53 L 28.26 83.53 L 28.26 17.65 L 36.23 17.65 L 36.23 83.53 L 36.23 83.53 M 64.49 17.65 L 72.46 17.65 L 72.46 84.71 L 64.49 84.71 L 64.49 17.65 L 64.49 17.65 M 10.87 17.65 L 18.84 17.65 L 18.84 84.71 L 10.87 84.71 L 10.87 17.65 L 10.87 17.65 M 89.86 83.53 L 81.88 83.53 L 81.88 17.65 L 89.86 17.65 L 89.86 83.53 L 89.86 83.53" fill="#2d5967" stroke="none" stroke-width="0.5"/>
  </g>
  <g transform="translate(211.74,286.00) scale(0.1450,0.0850)">
    <path d="M 0 100 L 100 100 L 100 0 L 0 0 L 0 100 L 0 100 M 53.62 83.53 L 45.65 83.53 L 45.65 17.65 L 53.62 17.65 L 53.62 83.53 L 53.62 83.53 M 63.77 17.65 L 71.74 17.65 L 71.74 84.71 L 63.77 84.71 L 63.77 17.65 L 63.77 17.65 M 35.51 83.53 L 27.54 83.53 L 27.54 17.65 L 35.51 17.65 L 35.51 83.53 L 35.51 83.53 M 89.86 83.53 L 81.88 83.53 L 81.88 17.65 L 89.86 17.65 L 89.86 83.53 L 89.86 83.53 M 10.14 17.65 L 18.12 17.65 L 18.12 84.71 L 10.14 84.71 L 10.14 17.65 L 10.14 17.65" fill="#2d5967" stroke="none" stroke-width="0.5"/>
  </g>
  <g transform="translate(194.74,297.50) scale(0.1450,0.0850)">
    <path d="M 100 0 L 0 0 L 0 100 L 100 100 L 100 0 L 100 0 M 46.38 16.47 L 54.35 16.47 L 54.35 83.53 L 46.38 83.53 C 46.38,82.35 46.38,16.47 46.38,16.47 L 46.38 16.47 M 36.23 83.53 L 28.26 83.53 L 28.26 16.47 L 36.23 16.47 L 36.23 83.53 L 36.23 83.53 M 64.49 16.47 L 72.46 16.47 L 72.46 83.53 L 64.49 83.53 L 64.49 16.47 L 64.49 16.47 M 10.87 16.47 L 18.84 16.47 L 18.84 83.53 L 10.87 83.53 L 10.87 16.47 L 10.87 16.47 M 89.86 83.53 L 81.88 83.53 L 81.88 16.47 L 89.86 16.47 L 89.86 83.53 L 89.86 83.53" fill="#2d5967" stroke="none" stroke-width="0.5"/>
  </g>
  <g transform="translate(211.74,297.50) scale(0.1450,0.0850)">
    <path d="M 0 100 L 100 100 L 100 0 L 0 0 L 0 100 L 0 100 M 53.62 83.53 L 45.65 83.53 L 45.65 16.47 L 53.62 16.47 L 53.62 83.53 L 53.62 83.53 M 63.77 16.47 L 71.74 16.47 L 71.74 83.53 L 63.77 83.53 L 63.77 16.47 L 63.77 16.47 M 35.51 83.53 L 27.54 83.53 L 27.54 16.47 L 35.51 16.47 L 35.51 83.53 L 35.51 83.53 M 89.86 83.53 L 81.88 83.53 L 81.88 16.47 L 89.86 16.47 L 89.86 83.53 L 89.86 83.53 M 10.14 16.47 L 18.12 16.47 L 18.12 83.53 L 10.14 83.53 L 10.14 16.47 L 10.14 16.47" fill="#2d5967" stroke="none" stroke-width="0.5"/>
  </g>
  <g transform="translate(172.74,321.00) scale(0.7700,0.2000)">
    <path d="M 0 100 L 100 100 L 100 0 L 0 0 L 0 100" fill="none" stroke="#000000" stroke-width="0.5"/>
  </g>
  <g transform="translate(502.50,281.50) scale(0.4100,0.4100)">
    <path d="M 5.36 100 C 2.55,100 0,97.7 0,94.64 L 0 5.36 C 0,2.55 2.3,0 5.36,0 L 94.64 0 C 97.7,0 100,2.3 100,5.36 L 100 94.64 C 100,97.7 97.7,100 94.64,100 L 5.36 100 L 5.36 100" fill="#FFFFFF" stroke="none" stroke-width="0.5"/>
  </g>
  <g transform="translate(502.00,281.00) scale(0.4200,0.4200)">
    <path d="M 93.53 2.49 C 95.77,2.49 97.51,4.23 97.51,6.47 L 97.51 93.53 C 97.51,95.77 95.77,97.51 93.53,97.51 L 6.47 97.51 C 4.23,97.51 2.49,95.77 2.49,93.53 L 2.49 6.47 C 2.49,4.23 4.23,2.49 6.47,2.49 L 93.53 2.49 L 93.53 2.49 M 93.53 0 L 6.47 0 C 2.98,0 0,2.99 0,6.47 L 0 93.53 C 0,97.02 2.98,100 6.47,100 L 93.53 100 C 97.01,100 100,97.02 100,93.53 L 100 6.47 C 100,2.99 97.26,0 93.53,0 L 93.53 0" fill="#FFFFFF" stroke="none" stroke-width="0.5"/>
  </g>
  <g transform="translate(503.00,282.00) scale(0.4000,0.4000)">
    <path d="M 95.81 0 L 4.19 0 C 1.83,0 0,1.83 0,4.19 L 0 95.81 C 0,98.17 1.83,100 4.19,100 L 95.81 100 C 98.17,100 100,98.17 100,95.81 L 100 4.19 C 100,1.83 98.17,0 95.81,0 L 95.81 0 M 96.34 95.81 C 96.34,96.07 96.07,96.34 95.81,96.34 L 4.19 96.34 C 3.93,96.34 3.66,96.07 3.66,95.81 L 3.66 4.19 C 3.66,3.93 3.93,3.66 4.19,3.66 L 95.81 3.66 C 96.07,3.66 96.34,3.93 96.34,4.19 L 96.34 95.81 L 96.34 95.81" fill="#2d5967" stroke="none" stroke-width="0.5"/>
  </g>
  <g transform="translate(507.00,308.50) scale(0.3100,0.0850)">
    <path d="M 0 100 L 100 100 L 100 0 L 0 0 L 0 100 L 0 100 M 5.03 16.47 L 95.3 16.47 L 95.3 83.53 L 5.03 83.53 L 5.03 16.47 L 5.03 16.47" fill="#2d5967" stroke="none" stroke-width="0.5"/>
  </g>
  <g transform="translate(532.50,312.00) scale(0.0200,0.0200)">
    <path d="M 50.01 100 C 77.62,100 100,77.62 100,50.01 C 100,22.4 77.62,0 50.01,0 C 22.4,0 0,22.4 0,50.01 C 0,77.62 22.4,100 50.01,100 L 50.01 100" fill="#2d5967" stroke="none" stroke-width="0.5"/>
  </g>
  <g transform="translate(507.00,286.00) scale(0.1450,0.0850)">
    <path d="M 100 0 L 0 0 L 0 100 L 100 100 L 100 0 L 100 0 M 46.38 17.65 L 54.35 17.65 L 54.35 84.71 L 46.38 84.71 C 46.38,83.53 46.38,17.65 46.38,17.65 L 46.38 17.65 M 36.23 83.53 L 28.26 83.53 L 28.26 17.65 L 36.23 17.65 L 36.23 83.53 L 36.23 83.53 M 64.49 17.65 L 72.46 17.65 L 72.46 84.71 L 64.49 84.71 L 64.49 17.65 L 64.49 17.65 M 10.87 17.65 L 18.84 17.65 L 18.84 84.71 L 10.87 84.71 L 10.87 17.65 L 10.87 17.65 M 89.86 83.53 L 81.88 83.53 L 81.88 17.65 L 89.86 17.65 L 89.86 83.53 L 89.86 83.53" fill="#2d5967" stroke="none" stroke-width="0.5"/>
  </g>
  <g transform="translate(524.00,286.00) scale(0.1450,0.0850)">
    <path d="M 0 100 L 100 100 L 100 0 L 0 0 L 0 100 L 0 100 M 53.62 83.53 L 45.65 83.53 L 45.65 17.65 L 53.62 17.65 L 53.62 83.53 L 53.62 83.53 M 63.77 17.65 L 71.74 17.65 L 71.74 84.71 L 63.77 84.71 L 63.77 17.65 L 63.77 17.65 M 35.51 83.53 L 27.54 83.53 L 27.54 17.65 L 35.51 17.65 L 35.51 83.53 L 35.51 83.53 M 89.86 83.53 L 81.88 83.53 L 81.88 17.65 L 89.86 17.65 L 89.86 83.53 L 89.86 83.53 M 10.14 17.65 L 18.12 17.65 L 18.12 84.71 L 10.14 84.71 L 10.14 17.65 L 10.14 17.65" fill="#2d5967" stroke="none" stroke-width="0.5"/>
  </g>
  <g transform="translate(507.00,297.50) scale(0.1450,0.0850)">
    <path d="M 100 0 L 0 0 L 0 100 L 100 100 L 100 0 L 100 0 M 46.38 16.47 L 54.35 16.47 L 54.35 83.53 L 46.38 83.53 C 46.38,82.35 46.38,16.47 46.38,16.47 L 46.38 16.47 M 36.23 83.53 L 28.26 83.53 L 28.26 16.47 L 36.23 16.47 L 36.23 83.53 L 36.23 83.53 M 64.49 16.47 L 72.46 16.47 L 72.46 83.53 L 64.49 83.53 L 64.49 16.47 L 64.49 16.47 M 10.87 16.47 L 18.84 16.47 L 18.84 83.53 L 10.87 83.53 L 10.87 16.47 L 10.87 16.47 M 89.86 83.53 L 81.88 83.53 L 81.88 16.47 L 89.86 16.47 L 89.86 83.53 L 89.86 83.53" fill="#2d5967" stroke="none" stroke-width="0.5"/>
  </g>
  <g transform="translate(524.00,297.50) scale(0.1450,0.0850)">
    <path d="M 0 100 L 100 100 L 100 0 L 0 0 L 0 100 L 0 100 M 53.62 83.53 L 45.65 83.53 L 45.65 16.47 L 53.62 16.47 L 53.62 83.53 L 53.62 83.53 M 63.77 16.47 L 71.74 16.47 L 71.74 83.53 L 63.77 83.53 L 63.77 16.47 L 63.77 16.47 M 35.51 83.53 L 27.54 83.53 L 27.54 16.47 L 35.51 16.47 L 35.51 83.53 L 35.51 83.53 M 89.86 83.53 L 81.88 83.53 L 81.88 16.47 L 89.86 16.47 L 89.86 83.53 L 89.86 83.53 M 10.14 16.47 L 18.12 16.47 L 18.12 83.53 L 10.14 83.53 L 10.14 16.47 L 10.14 16.47" fill="#2d5967" stroke="none" stroke-width="0.5"/>
  </g>
  <g transform="translate(485.00,321.00) scale(0.7900,0.2000)">
    <path d="M 0 100 L 100 100 L 100 0 L 0 0 L 0 100" fill="none" stroke="#000000" stroke-width="0.5"/>
  </g>
  <g transform="translate(404.24,212.50) scale(0.4100,0.4100)">
    <path d="M 5.36 100 C 2.55,100 0,97.7 0,94.64 L 0 5.36 C 0,2.55 2.3,0 5.36,0 L 94.64 0 C 97.7,0 100,2.3 100,5.36 L 100 94.64 C 100,97.7 97.7,100 94.64,100 L 5.36 100 L 5.36 100" fill="#FFFFFF" stroke="none" stroke-width="0.5"/>
  </g>
  <g transform="translate(403.74,212.00) scale(0.4200,0.4200)">
    <path d="M 93.53 2.49 C 95.77,2.49 97.51,4.23 97.51,6.47 L 97.51 93.53 C 97.51,95.77 95.77,97.51 93.53,97.51 L 6.47 97.51 C 4.23,97.51 2.49,95.77 2.49,93.53 L 2.49 6.47 C 2.49,4.23 4.23,2.49 6.47,2.49 L 93.53 2.49 L 93.53 2.49 M 93.53 0 L 6.47 0 C 2.98,0 0,2.99 0,6.47 L 0 93.53 C 0,97.02 2.98,100 6.47,100 L 93.53 100 C 97.01,100 100,97.02 100,93.53 L 100 6.47 C 100,2.99 97.26,0 93.53,0 L 93.53 0" fill="#FFFFFF" stroke="none" stroke-width="0.5"/>
  </g>
  <g transform="translate(404.74,213.00) scale(0.4000,0.4000)">
    <path d="M 95.81 0 L 4.19 0 C 1.83,0 0,1.83 0,4.19 L 0 95.81 C 0,98.17 1.83,100 4.19,100 L 95.81 100 C 98.17,100 100,98.17 100,95.81 L 100 4.19 C 100,1.83 98.17,0 95.81,0 L 95.81 0 M 96.34 95.81 C 96.34,96.07 96.07,96.34 95.81,96.34 L 4.19 96.34 C 3.93,96.34 3.66,96.07 3.66,95.81 L 3.66 4.19 C 3.66,3.93 3.93,3.66 4.19,3.66 L 95.81 3.66 C 96.07,3.66 96.34,3.93 96.34,4.19 L 96.34 95.81 L 96.34 95.81" fill="#2d5967" stroke="none" stroke-width="0.5"/>
  </g>
  <g transform="translate(408.74,239.50) scale(0.3100,0.0850)">
    <path d="M 0 100 L 100 100 L 100 0 L 0 0 L 0 100 L 0 100 M 5.03 16.47 L 95.3 16.47 L 95.3 83.53 L 5.03 83.53 L 5.03 16.47 L 5.03 16.47" fill="#2d5967" stroke="none" stroke-width="0.5"/>
  </g>
  <g transform="translate(434.24,243.00) scale(0.0200,0.0200)">
    <path d="M 50.01 100 C 77.62,100 100,77.62 100,50.01 C 100,22.4 77.62,0 50.01,0 C 22.4,0 0,22.4 0,50.01 C 0,77.62 22.4,100 50.01,100 L 50.01 100" fill="#2d5967" stroke="none" stroke-width="0.5"/>
  </g>
  <g transform="translate(408.74,217.00) scale(0.1450,0.0850)">
    <path d="M 100 0 L 0 0 L 0 100 L 100 100 L 100 0 L 100 0 M 46.38 17.65 L 54.35 17.65 L 54.35 84.71 L 46.38 84.71 C 46.38,83.53 46.38,17.65 46.38,17.65 L 46.38 17.65 M 36.23 83.53 L 28.26 83.53 L 28.26 17.65 L 36.23 17.65 L 36.23 83.53 L 36.23 83.53 M 64.49 17.65 L 72.46 17.65 L 72.46 84.71 L 64.49 84.71 L 64.49 17.65 L 64.49 17.65 M 10.87 17.65 L 18.84 17.65 L 18.84 84.71 L 10.87 84.71 L 10.87 17.65 L 10.87 17.65 M 89.86 83.53 L 81.88 83.53 L 81.88 17.65 L 89.86 17.65 L 89.86 83.53 L 89.86 83.53" fill="#2d5967" stroke="none" stroke-width="0.5"/>
  </g>
  <g transform="translate(425.74,217.00) scale(0.1450,0.0850)">
    <path d="M 0 100 L 100 100 L 100 0 L 0 0 L 0 100 L 0 100 M 53.62 83.53 L 45.65 83.53 L 45.65 17.65 L 53.62 17.65 L 53.62 83.53 L 53.62 83.53 M 63.77 17.65 L 71.74 17.65 L 71.74 84.71 L 63.77 84.71 L 63.77 17.65 L 63.77 17.65 M 35.51 83.53 L 27.54 83.53 L 27.54 17.65 L 35.51 17.65 L 35.51 83.53 L 35.51 83.53 M 89.86 83.53 L 81.88 83.53 L 81.88 17.65 L 89.86 17.65 L 89.86 83.53 L 89.86 83.53 M 10.14 17.65 L 18.12 17.65 L 18.12 84.71 L 10.14 84.71 L 10.14 17.65 L 10.14 17.65" fill="#2d5967" stroke="none" stroke-width="0.5"/>
  </g>
  <g transform="translate(408.74,228.50) scale(0.1450,0.0850)">
    <path d="M 100 0 L 0 0 L 0 100 L 100 100 L 100 0 L 100 0 M 46.38 16.47 L 54.35 16.47 L 54.35 83.53 L 46.38 83.53 C 46.38,82.35 46.38,16.47 46.38,16.47 L 46.38 16.47 M 36.23 83.53 L 28.26 83.53 L 28.26 16.47 L 36.23 16.47 L 36.23 83.53 L 36.23 83.53 M 64.49 16.47 L 72.46 16.47 L 72.46 83.53 L 64.49 83.53 L 64.49 16.47 L 64.49 16.47 M 10.87 16.47 L 18.84 16.47 L 18.84 83.53 L 10.87 83.53 L 10.87 16.47 L 10.87 16.47 M 89.86 83.53 L 81.88 83.53 L 81.88 16.47 L 89.86 16.47 L 89.86 83.53 L 89.86 83.53" fill="#2d5967" stroke="none" stroke-width="0.5"/>
  </g>
  <g transform="translate(425.74,228.50) scale(0.1450,0.0850)">
    <path d="M 0 100 L 100 100 L 100 0 L 0 0 L 0 100 L 0 100 M 53.62 83.53 L 45.65 83.53 L 45.65 16.47 L 53.62 16.47 L 53.62 83.53 L 53.62 83.53 M 63.77 16.47 L 71.74 16.47 L 71.74 83.53 L 63.77 83.53 L 63.77 16.47 L 63.77 16.47 M 35.51 83.53 L 27.54 83.53 L 27.54 16.47 L 35.51 16.47 L 35.51 83.53 L 35.51 83.53 M 89.86 83.53 L 81.88 83.53 L 81.88 16.47 L 89.86 16.47 L 89.86 83.53 L 89.86 83.53 M 10.14 16.47 L 18.12 16.47 L 18.12 83.53 L 10.14 83.53 L 10.14 16.47 L 10.14 16.47" fill="#2d5967" stroke="none" stroke-width="0.5"/>
  </g>
  <g transform="translate(385.74,252.00) scale(0.7700,0.2000)">
    <path d="M 0 100 L 100 100 L 100 0 L 0 0 L 0 100" fill="none" stroke="#000000" stroke-width="0.5"/>
  </g>
  <g transform="translate(502.50,212.50) scale(0.4100,0.4100)">
    <path d="M 5.36 100 C 2.55,100 0,97.7 0,94.64 L 0 5.36 C 0,2.55 2.3,0 5.36,0 L 94.64 0 C 97.7,0 100,2.3 100,5.36 L 100 94.64 C 100,97.7 97.7,100 94.64,100 L 5.36 100 L 5.36 100" fill="#FFFFFF" stroke="none" stroke-width="0.5"/>
  </g>
  <g transform="translate(502.00,212.00) scale(0.4200,0.4200)">
    <path d="M 93.53 2.49 C 95.77,2.49 97.51,4.23 97.51,6.47 L 97.51 93.53 C 97.51,95.77 95.77,97.51 93.53,97.51 L 6.47 97.51 C 4.23,97.51 2.49,95.77 2.49,93.53 L 2.49 6.47 C 2.49,4.23 4.23,2.49 6.47,2.49 L 93.53 2.49 L 93.53 2.49 M 93.53 0 L 6.47 0 C 2.98,0 0,2.99 0,6.47 L 0 93.53 C 0,97.02 2.98,100 6.47,100 L 93.53 100 C 97.01,100 100,97.02 100,93.53 L 100 6.47 C 100,2.99 97.26,0 93.53,0 L 93.53 0" fill="#FFFFFF" stroke="none" stroke-width="0.5"/>
  </g>
  <g transform="translate(503.00,213.00) scale(0.4000,0.4000)">
    <path d="M 95.81 0 L 4.19 0 C 1.83,0 0,1.83 0,4.19 L 0 95.81 C 0,98.17 1.83,100 4.19,100 L 95.81 100 C 98.17,100 100,98.17 100,95.81 L 100 4.19 C 100,1.83 98.17,0 95.81,0 L 95.81 0 M 96.34 95.81 C 96.34,96.07 96.07,96.34 95.81,96.34 L 4.19 96.34 C 3.93,96.34 3.66,96.07 3.66,95.81 L 3.66 4.19 C 3.66,3.93 3.93,3.66 4.19,3.66 L 95.81 3.66 C 96.07,3.66 96.34,3.93 96.34,4.19 L 96.34 95.81 L 96.34 95.81" fill="#2d5967" stroke="none" stroke-width="0.5"/>
  </g>
  <g transform="translate(507.00,239.50) scale(0.3100,0.0850)">
    <path d="M 0 100 L 100 100 L 100 0 L 0 0 L 0 100 L 0 100 M 5.03 16.47 L 95.3 16.47 L 95.3 83.53 L 5.03 83.53 L 5.03 16.47 L 5.03 16.47" fill="#2d5967" stroke="none" stroke-width="0.5"/>
  </g>
  <g transform="translate(532.50,243.00) scale(0.0200,0.0200)">
    <path d="M 50.01 100 C 77.62,100 100,77.62 100,50.01 C 100,22.4 77.62,0 50.01,0 C 22.4,0 0,22.4 0,50.01 C 0,77.62 22.4,100 50.01,100 L 50.01 100" fill="#2d5967" stroke="none" stroke-width="0.5"/>
  </g>
  <g transform="translate(507.00,217.00) scale(0.1450,0.0850)">
    <path d="M 100 0 L 0 0 L 0 100 L 100 100 L 100 0 L 100 0 M 46.38 17.65 L 54.35 17.65 L 54.35 84.71 L 46.38 84.71 C 46.38,83.53 46.38,17.65 46.38,17.65 L 46.38 17.65 M 36.23 83.53 L 28.26 83.53 L 28.26 17.65 L 36.23 17.65 L 36.23 83.53 L 36.23 83.53 M 64.49 17.65 L 72.46 17.65 L 72.46 84.71 L 64.49 84.71 L 64.49 17.65 L 64.49 17.65 M 10.87 17.65 L 18.84 17.65 L 18.84 84.71 L 10.87 84.71 L 10.87 17.65 L 10.87 17.65 M 89.86 83.53 L 81.88 83.53 L 81.88 17.65 L 89.86 17.65 L 89.86 83.53 L 89.86 83.53" fill="#2d5967" stroke="none" stroke-width="0.5"/>
  </g>
  <g transform="translate(524.00,217.00) scale(0.1450,0.0850)">
    <path d="M 0 100 L 100 100 L 100 0 L 0 0 L 0 100 L 0 100 M 53.62 83.53 L 45.65 83.53 L 45.65 17.65 L 53.62 17.65 L 53.62 83.53 L 53.62 83.53 M 63.77 17.65 L 71.74 17.65 L 71.74 84.71 L 63.77 84.71 L 63.77 17.65 L 63.77 17.65 M 35.51 83.53 L 27.54 83.53 L 27.54 17.65 L 35.51 17.65 L 35.51 83.53 L 35.51 83.53 M 89.86 83.53 L 81.88 83.53 L 81.88 17.65 L 89.86 17.65 L 89.86 83.53 L 89.86 83.53 M 10.14 17.65 L 18.12 17.65 L 18.12 84.71 L 10.14 84.71 L 10.14 17.65 L 10.14 17.65" fill="#2d5967" stroke="none" stroke-width="0.5"/>
  </g>
  <g transform="translate(507.00,228.50) scale(0.1450,0.0850)">
    <path d="M 100 0 L 0 0 L 0 100 L 100 100 L 100 0 L 100 0 M 46.38 16.47 L 54.35 16.47 L 54.35 83.53 L 46.38 83.53 C 46.38,82.35 46.38,16.47 46.38,16.47 L 46.38 16.47 M 36.23 83.53 L 28.26 83.53 L 28.26 16.47 L 36.23 16.47 L 36.23 83.53 L 36.23 83.53 M 64.49 16.47 L 72.46 16.47 L 72.46 83.53 L 64.49 83.53 L 64.49 16.47 L 64.49 16.47 M 10.87 16.47 L 18.84 16.47 L 18.84 83.53 L 10.87 83.53 L 10.87 16.47 L 10.87 16.47 M 89.86 83.53 L 81.88 83.53 L 81.88 16.47 L 89.86 16.47 L 89.86 83.53 L 89.86 83.53" fill="#2d5967" stroke="none" stroke-width="0.5"/>
  </g>
  <g transform="translate(524.00,228.50) scale(0.1450,0.0850)">
    <path d="M 0 100 L 100 100 L 100 0 L 0 0 L 0 100 L 0 100 M 53.62 83.53 L 45.65 83.53 L 45.65 16.47 L 53.62 16.47 L 53.62 83.53 L 53.62 83.53 M 63.77 16.47 L 71.74 16.47 L 71.74 83.53 L 63.77 83.53 L 63.77 16.47 L 63.77 16.47 M 35.51 83.53 L 27.54 83.53 L 27.54 16.47 L 35.51 16.47 L 35.51 83.53 L 35.51 83.53 M 89.86 83.53 L 81.88 83.53 L 81.88 16.47 L 89.86 16.47 L 89.86 83.53 L 89.86 83.53 M 10.14 16.47 L 18.12 16.47 L 18.12 83.53 L 10.14 83.53 L 10.14 16.47 L 10.14 16.47" fill="#2d5967" stroke="none" stroke-width="0.5"/>
  </g>
  <g transform="translate(485.00,252.00) scale(0.7700,0.2000)">
    <path d="M 0 100 L 100 100 L 100 0 L 0 0 L 0 100" fill="none" stroke="#000000" stroke-width="0.5"/>
  </g>
  <g transform="translate(404.24,281.50) scale(0.4100,0.4100)">
    <path d="M 5.36 100 C 2.55,100 0,97.7 0,94.64 L 0 5.36 C 0,2.55 2.3,0 5.36,0 L 94.64 0 C 97.7,0 100,2.3 100,5.36 L 100 94.64 C 100,97.7 97.7,100 94.64,100 L 5.36 100 L 5.36 100" fill="#FFFFFF" stroke="none" stroke-width="0.5"/>
  </g>
  <g transform="translate(403.74,281.00) scale(0.4200,0.4200)">
    <path d="M 93.53 2.49 C 95.77,2.49 97.51,4.23 97.51,6.47 L 97.51 93.53 C 97.51,95.77 95.77,97.51 93.53,97.51 L 6.47 97.51 C 4.23,97.51 2.49,95.77 2.49,93.53 L 2.49 6.47 C 2.49,4.23 4.23,2.49 6.47,2.49 L 93.53 2.49 L 93.53 2.49 M 93.53 0 L 6.47 0 C 2.98,0 0,2.99 0,6.47 L 0 93.53 C 0,97.02 2.98,100 6.47,100 L 93.53 100 C 97.01,100 100,97.02 100,93.53 L 100 6.47 C 100,2.99 97.26,0 93.53,0 L 93.53 0" fill="#FFFFFF" stroke="none" stroke-width="0.5"/>
  </g>
  <g transform="translate(404.74,282.00) scale(0.4000,0.4000)">
    <path d="M 95.81 0 L 4.19 0 C 1.83,0 0,1.83 0,4.19 L 0 95.81 C 0,98.17 1.83,100 4.19,100 L 95.81 100 C 98.17,100 100,98.17 100,95.81 L 100 4.19 C 100,1.83 98.17,0 95.81,0 L 95.81 0 M 96.34 95.81 C 96.34,96.07 96.07,96.34 95.81,96.34 L 4.19 96.34 C 3.93,96.34 3.66,96.07 3.66,95.81 L 3.66 4.19 C 3.66,3.93 3.93,3.66 4.19,3.66 L 95.81 3.66 C 96.07,3.66 96.34,3.93 96.34,4.19 L 96.34 95.81 L 96.34 95.81" fill="#2d5967" stroke="none" stroke-width="0.5"/>
  </g>
  <g transform="translate(408.74,308.50) scale(0.3100,0.0850)">
    <path d="M 0 100 L 100 100 L 100 0 L 0 0 L 0 100 L 0 100 M 5.03 16.47 L 95.3 16.47 L 95.3 83.53 L 5.03 83.53 L 5.03 16.47 L 5.03 16.47" fill="#2d5967" stroke="none" stroke-width="0.5"/>
  </g>
  <g transform="translate(434.24,312.00) scale(0.0200,0.0200)">
    <path d="M 50.01 100 C 77.62,100 100,77.62 100,50.01 C 100,22.4 77.62,0 50.01,0 C 22.4,0 0,22.4 0,50.01 C 0,77.62 22.4,100 50.01,100 L 50.01 100" fill="#2d5967" stroke="none" stroke-width="0.5"/>
  </g>
  <g transform="translate(408.74,286.00) scale(0.1450,0.0850)">
    <path d="M 100 0 L 0 0 L 0 100 L 100 100 L 100 0 L 100 0 M 46.38 17.65 L 54.35 17.65 L 54.35 84.71 L 46.38 84.71 C 46.38,83.53 46.38,17.65 46.38,17.65 L 46.38 17.65 M 36.23 83.53 L 28.26 83.53 L 28.26 17.65 L 36.23 17.65 L 36.23 83.53 L 36.23 83.53 M 64.49 17.65 L 72.46 17.65 L 72.46 84.71 L 64.49 84.71 L 64.49 17.65 L 64.49 17.65 M 10.87 17.65 L 18.84 17.65 L 18.84 84.71 L 10.87 84.71 L 10.87 17.65 L 10.87 17.65 M 89.86 83.53 L 81.88 83.53 L 81.88 17.65 L 89.86 17.65 L 89.86 83.53 L 89.86 83.53" fill="#2d5967" stroke="none" stroke-width="0.5"/>
  </g>
  <g transform="translate(425.74,286.00) scale(0.1450,0.0850)">
    <path d="M 0 100 L 100 100 L 100 0 L 0 0 L 0 100 L 0 100 M 53.62 83.53 L 45.65 83.53 L 45.65 17.65 L 53.62 17.65 L 53.62 83.53 L 53.62 83.53 M 63.77 17.65 L 71.74 17.65 L 71.74 84.71 L 63.77 84.71 L 63.77 17.65 L 63.77 17.65 M 35.51 83.53 L 27.54 83.53 L 27.54 17.65 L 35.51 17.65 L 35.51 83.53 L 35.51 83.53 M 89.86 83.53 L 81.88 83.53 L 81.88 17.65 L 89.86 17.65 L 89.86 83.53 L 89.86 83.53 M 10.14 17.65 L 18.12 17.65 L 18.12 84.71 L 10.14 84.71 L 10.14 17.65 L 10.14 17.65" fill="#2d5967" stroke="none" stroke-width="0.5"/>
  </g>
  <g transform="translate(408.74,297.50) scale(0.1450,0.0850)">
    <path d="M 100 0 L 0 0 L 0 100 L 100 100 L 100 0 L 100 0 M 46.38 16.47 L 54.35 16.47 L 54.35 83.53 L 46.38 83.53 C 46.38,82.35 46.38,16.47 46.38,16.47 L 46.38 16.47 M 36.23 83.53 L 28.26 83.53 L 28.26 16.47 L 36.23 16.47 L 36.23 83.53 L 36.23 83.53 M 64.49 16.47 L 72.46 16.47 L 72.46 83.53 L 64.49 83.53 L 64.49 16.47 L 64.49 16.47 M 10.87 16.47 L 18.84 16.47 L 18.84 83.53 L 10.87 83.53 L 10.87 16.47 L 10.87 16.47 M 89.86 83.53 L 81.88 83.53 L 81.88 16.47 L 89.86 16.47 L 89.86 83.53 L 89.86 83.53" fill="#2d5967" stroke="none" stroke-width="0.5"/>
  </g>
  <g transform="translate(425.74,297.50) scale(0.1450,0.0850)">
    <path d="M 0 100 L 100 100 L 100 0 L 0 0 L 0 100 L 0 100 M 53.62 83.53 L 45.65 83.53 L 45.65 16.47 L 53.62 16.47 L 53.62 83.53 L 53.62 83.53 M 63.77 16.47 L 71.74 16.47 L 71.74 83.53 L 63.77 83.53 L 63.77 16.47 L 63.77 16.47 M 35.51 83.53 L 27.54 83.53 L 27.54 16.47 L 35.51 16.47 L 35.51 83.53 L 35.51 83.53 M 89.86 83.53 L 81.88 83.53 L 81.88 16.47 L 89.86 16.47 L 89.86 83.53 L 89.86 83.53 M 10.14 16.47 L 18.12 16.47 L 18.12 83.53 L 10.14 83.53 L 10.14 16.47 L 10.14 16.47" fill="#2d5967" stroke="none" stroke-width="0.5"/>
  </g>
  <g transform="translate(386.74,321.00) scale(0.7700,0.2000)">
    <path d="M 0 100 L 100 100 L 100 0 L 0 0 L 0 100" fill="none" stroke="#000000" stroke-width="0.5"/>
  </g>
  <g transform="translate(716.50,281.50) scale(0.4100,0.4100)">
    <path d="M 5.36 100 C 2.55,100 0,97.7 0,94.64 L 0 5.36 C 0,2.55 2.3,0 5.36,0 L 94.64 0 C 97.7,0 100,2.3 100,5.36 L 100 94.64 C 100,97.7 97.7,100 94.64,100 L 5.36 100 L 5.36 100" fill="#FFFFFF" stroke="none" stroke-width="0.5"/>
  </g>
  <g transform="translate(716.00,281.00) scale(0.4200,0.4200)">
    <path d="M 93.53 2.49 C 95.77,2.49 97.51,4.23 97.51,6.47 L 97.51 93.53 C 97.51,95.77 95.77,97.51 93.53,97.51 L 6.47 97.51 C 4.23,97.51 2.49,95.77 2.49,93.53 L 2.49 6.47 C 2.49,4.23 4.23,2.49 6.47,2.49 L 93.53 2.49 L 93.53 2.49 M 93.53 0 L 6.47 0 C 2.98,0 0,2.99 0,6.47 L 0 93.53 C 0,97.02 2.98,100 6.47,100 L 93.53 100 C 97.01,100 100,97.02 100,93.53 L 100 6.47 C 100,2.99 97.26,0 93.53,0 L 93.53 0" fill="#FFFFFF" stroke="none" stroke-width="0.5"/>
  </g>
  <g transform="translate(717.00,282.00) scale(0.4000,0.4000)">
    <path d="M 95.81 0 L 4.19 0 C 1.83,0 0,1.83 0,4.19 L 0 95.81 C 0,98.17 1.83,100 4.19,100 L 95.81 100 C 98.17,100 100,98.17 100,95.81 L 100 4.19 C 100,1.83 98.17,0 95.81,0 L 95.81 0 M 96.34 95.81 C 96.34,96.07 96.07,96.34 95.81,96.34 L 4.19 96.34 C 3.93,96.34 3.66,96.07 3.66,95.81 L 3.66 4.19 C 3.66,3.93 3.93,3.66 4.19,3.66 L 95.81 3.66 C 96.07,3.66 96.34,3.93 96.34,4.19 L 96.34 95.81 L 96.34 95.81" fill="#2d5967" stroke="none" stroke-width="0.5"/>
  </g>
  <g transform="translate(721.00,308.50) scale(0.3100,0.0850)">
    <path d="M 0 100 L 100 100 L 100 0 L 0 0 L 0 100 L 0 100 M 5.03 16.47 L 95.3 16.47 L 95.3 83.53 L 5.03 83.53 L 5.03 16.47 L 5.03 16.47" fill="#2d5967" stroke="none" stroke-width="0.5"/>
  </g>
  <g transform="translate(746.50,312.00) scale(0.0200,0.0200)">
    <path d="M 50.01 100 C 77.62,100 100,77.62 100,50.01 C 100,22.4 77.62,0 50.01,0 C 22.4,0 0,22.4 0,50.01 C 0,77.62 22.4,100 50.01,100 L 50.01 100" fill="#2d5967" stroke="none" stroke-width="0.5"/>
  </g>
  <g transform="translate(721.00,286.00) scale(0.1450,0.0850)">
    <path d="M 100 0 L 0 0 L 0 100 L 100 100 L 100 0 L 100 0 M 46.38 17.65 L 54.35 17.65 L 54.35 84.71 L 46.38 84.71 C 46.38,83.53 46.38,17.65 46.38,17.65 L 46.38 17.65 M 36.23 83.53 L 28.26 83.53 L 28.26 17.65 L 36.23 17.65 L 36.23 83.53 L 36.23 83.53 M 64.49 17.65 L 72.46 17.65 L 72.46 84.71 L 64.49 84.71 L 64.49 17.65 L 64.49 17.65 M 10.87 17.65 L 18.84 17.65 L 18.84 84.71 L 10.87 84.71 L 10.87 17.65 L 10.87 17.65 M 89.86 83.53 L 81.88 83.53 L 81.88 17.65 L 89.86 17.65 L 89.86 83.53 L 89.86 83.53" fill="#2d5967" stroke="none" stroke-width="0.5"/>
  </g>
  <g transform="translate(738.00,286.00) scale(0.1450,0.0850)">
    <path d="M 0 100 L 100 100 L 100 0 L 0 0 L 0 100 L 0 100 M 53.62 83.53 L 45.65 83.53 L 45.65 17.65 L 53.62 17.65 L 53.62 83.53 L 53.62 83.53 M 63.77 17.65 L 71.74 17.65 L 71.74 84.71 L 63.77 84.71 L 63.77 17.65 L 63.77 17.65 M 35.51 83.53 L 27.54 83.53 L 27.54 17.65 L 35.51 17.65 L 35.51 83.53 L 35.51 83.53 M 89.86 83.53 L 81.88 83.53 L 81.88 17.65 L 89.86 17.65 L 89.86 83.53 L 89.86 83.53 M 10.14 17.65 L 18.12 17.65 L 18.12 84.71 L 10.14 84.71 L 10.14 17.65 L 10.14 17.65" fill="#2d5967" stroke="none" stroke-width="0.5"/>
  </g>
  <g transform="translate(721.00,297.50) scale(0.1450,0.0850)">
    <path d="M 100 0 L 0 0 L 0 100 L 100 100 L 100 0 L 100 0 M 46.38 16.47 L 54.35 16.47 L 54.35 83.53 L 46.38 83.53 C 46.38,82.35 46.38,16.47 46.38,16.47 L 46.38 16.47 M 36.23 83.53 L 28.26 83.53 L 28.26 16.47 L 36.23 16.47 L 36.23 83.53 L 36.23 83.53 M 64.49 16.47 L 72.46 16.47 L 72.46 83.53 L 64.49 83.53 L 64.49 16.47 L 64.49 16.47 M 10.87 16.47 L 18.84 16.47 L 18.84 83.53 L 10.87 83.53 L 10.87 16.47 L 10.87 16.47 M 89.86 83.53 L 81.88 83.53 L 81.88 16.47 L 89.86 16.47 L 89.86 83.53 L 89.86 83.53" fill="#2d5967" stroke="none" stroke-width="0.5"/>
  </g>
  <g transform="translate(738.00,297.50) scale(0.1450,0.0850)">
    <path d="M 0 100 L 100 100 L 100 0 L 0 0 L 0 100 L 0 100 M 53.62 83.53 L 45.65 83.53 L 45.65 16.47 L 53.62 16.47 L 53.62 83.53 L 53.62 83.53 M 63.77 16.47 L 71.74 16.47 L 71.74 83.53 L 63.77 83.53 L 63.77 16.47 L 63.77 16.47 M 35.51 83.53 L 27.54 83.53 L 27.54 16.47 L 35.51 16.47 L 35.51 83.53 L 35.51 83.53 M 89.86 83.53 L 81.88 83.53 L 81.88 16.47 L 89.86 16.47 L 89.86 83.53 L 89.86 83.53 M 10.14 16.47 L 18.12 16.47 L 18.12 83.53 L 10.14 83.53 L 10.14 16.47 L 10.14 16.47" fill="#2d5967" stroke="none" stroke-width="0.5"/>
  </g>
  <g transform="translate(699.00,321.00) scale(0.7900,0.2000)">
    <path d="M 0 100 L 100 100 L 100 0 L 0 0 L 0 100" fill="none" stroke="#000000" stroke-width="0.5"/>
  </g>
  <g transform="translate(618.24,212.50) scale(0.4100,0.4100)">
    <path d="M 5.36 100 C 2.55,100 0,97.7 0,94.64 L 0 5.36 C 0,2.55 2.3,0 5.36,0 L 94.64 0 C 97.7,0 100,2.3 100,5.36 L 100 94.64 C 100,97.7 97.7,100 94.64,100 L 5.36 100 L 5.36 100" fill="#FFFFFF" stroke="none" stroke-width="0.5"/>
  </g>
  <g transform="translate(617.74,212.00) scale(0.4200,0.4200)">
    <path d="M 93.53 2.49 C 95.77,2.49 97.51,4.23 97.51,6.47 L 97.51 93.53 C 97.51,95.77 95.77,97.51 93.53,97.51 L 6.47 97.51 C 4.23,97.51 2.49,95.77 2.49,93.53 L 2.49 6.47 C 2.49,4.23 4.23,2.49 6.47,2.49 L 93.53 2.49 L 93.53 2.49 M 93.53 0 L 6.47 0 C 2.98,0 0,2.99 0,6.47 L 0 93.53 C 0,97.02 2.98,100 6.47,100 L 93.53 100 C 97.01,100 100,97.02 100,93.53 L 100 6.47 C 100,2.99 97.26,0 93.53,0 L 93.53 0" fill="#FFFFFF" stroke="none" stroke-width="0.5"/>
  </g>
  <g transform="translate(618.74,213.00) scale(0.4000,0.4000)">
    <path d="M 95.81 0 L 4.19 0 C 1.83,0 0,1.83 0,4.19 L 0 95.81 C 0,98.17 1.83,100 4.19,100 L 95.81 100 C 98.17,100 100,98.17 100,95.81 L 100 4.19 C 100,1.83 98.17,0 95.81,0 L 95.81 0 M 96.34 95.81 C 96.34,96.07 96.07,96.34 95.81,96.34 L 4.19 96.34 C 3.93,96.34 3.66,96.07 3.66,95.81 L 3.66 4.19 C 3.66,3.93 3.93,3.66 4.19,3.66 L 95.81 3.66 C 96.07,3.66 96.34,3.93 96.34,4.19 L 96.34 95.81 L 96.34 95.81" fill="#2d5967" stroke="none" stroke-width="0.5"/>
  </g>
  <g transform="translate(622.74,239.50) scale(0.3100,0.0850)">
    <path d="M 0 100 L 100 100 L 100 0 L 0 0 L 0 100 L 0 100 M 5.03 16.47 L 95.3 16.47 L 95.3 83.53 L 5.03 83.53 L 5.03 16.47 L 5.03 16.47" fill="#2d5967" stroke="none" stroke-width="0.5"/>
  </g>
  <g transform="translate(648.24,243.00) scale(0.0200,0.0200)">
    <path d="M 50.01 100 C 77.62,100 100,77.62 100,50.01 C 100,22.4 77.62,0 50.01,0 C 22.4,0 0,22.4 0,50.01 C 0,77.62 22.4,100 50.01,100 L 50.01 100" fill="#2d5967" stroke="none" stroke-width="0.5"/>
  </g>
  <g transform="translate(622.74,217.00) scale(0.1450,0.0850)">
    <path d="M 100 0 L 0 0 L 0 100 L 100 100 L 100 0 L 100 0 M 46.38 17.65 L 54.35 17.65 L 54.35 84.71 L 46.38 84.71 C 46.38,83.53 46.38,17.65 46.38,17.65 L 46.38 17.65 M 36.23 83.53 L 28.26 83.53 L 28.26 17.65 L 36.23 17.65 L 36.23 83.53 L 36.23 83.53 M 64.49 17.65 L 72.46 17.65 L 72.46 84.71 L 64.49 84.71 L 64.49 17.65 L 64.49 17.65 M 10.87 17.65 L 18.84 17.65 L 18.84 84.71 L 10.87 84.71 L 10.87 17.65 L 10.87 17.65 M 89.86 83.53 L 81.88 83.53 L 81.88 17.65 L 89.86 17.65 L 89.86 83.53 L 89.86 83.53" fill="#2d5967" stroke="none" stroke-width="0.5"/>
  </g>
  <g transform="translate(639.74,217.00) scale(0.1450,0.0850)">
    <path d="M 0 100 L 100 100 L 100 0 L 0 0 L 0 100 L 0 100 M 53.62 83.53 L 45.65 83.53 L 45.65 17.65 L 53.62 17.65 L 53.62 83.53 L 53.62 83.53 M 63.77 17.65 L 71.74 17.65 L 71.74 84.71 L 63.77 84.71 L 63.77 17.65 L 63.77 17.65 M 35.51 83.53 L 27.54 83.53 L 27.54 17.65 L 35.51 17.65 L 35.51 83.53 L 35.51 83.53 M 89.86 83.53 L 81.88 83.53 L 81.88 17.65 L 89.86 17.65 L 89.86 83.53 L 89.86 83.53 M 10.14 17.65 L 18.12 17.65 L 18.12 84.71 L 10.14 84.71 L 10.14 17.65 L 10.14 17.65" fill="#2d5967" stroke="none" stroke-width="0.5"/>
  </g>
  <g transform="translate(622.74,228.50) scale(0.1450,0.0850)">
    <path d="M 100 0 L 0 0 L 0 100 L 100 100 L 100 0 L 100 0 M 46.38 16.47 L 54.35 16.47 L 54.35 83.53 L 46.38 83.53 C 46.38,82.35 46.38,16.47 46.38,16.47 L 46.38 16.47 M 36.23 83.53 L 28.26 83.53 L 28.26 16.47 L 36.23 16.47 L 36.23 83.53 L 36.23 83.53 M 64.49 16.47 L 72.46 16.47 L 72.46 83.53 L 64.49 83.53 L 64.49 16.47 L 64.49 16.47 M 10.87 16.47 L 18.84 16.47 L 18.84 83.53 L 10.87 83.53 L 10.87 16.47 L 10.87 16.47 M 89.86 83.53 L 81.88 83.53 L 81.88 16.47 L 89.86 16.47 L 89.86 83.53 L 89.86 83.53" fill="#2d5967" stroke="none" stroke-width="0.5"/>
  </g>
  <g transform="translate(639.74,228.50) scale(0.1450,0.0850)">
    <path d="M 0 100 L 100 100 L 100 0 L 0 0 L 0 100 L 0 100 M 53.62 83.53 L 45.65 83.53 L 45.65 16.47 L 53.62 16.47 L 53.62 83.53 L 53.62 83.53 M 63.77 16.47 L 71.74 16.47 L 71.74 83.53 L 63.77 83.53 L 63.77 16.47 L 63.77 16.47 M 35.51 83.53 L 27.54 83.53 L 27.54 16.47 L 35.51 16.47 L 35.51 83.53 L 35.51 83.53 M 89.86 83.53 L 81.88 83.53 L 81.88 16.47 L 89.86 16.47 L 89.86 83.53 L 89.86 83.53 M 10.14 16.47 L 18.12 16.47 L 18.12 83.53 L 10.14 83.53 L 10.14 16.47 L 10.14 16.47" fill="#2d5967" stroke="none" stroke-width="0.5"/>
  </g>
  <g transform="translate(599.74,252.00) scale(0.7700,0.2000)">
    <path d="M 0 100 L 100 100 L 100 0 L 0 0 L 0 100" fill="none" stroke="#000000" stroke-width="0.5"/>
  </g>
  <g transform="translate(716.50,212.50) scale(0.4100,0.4100)">
    <path d="M 5.36 100 C 2.55,100 0,97.7 0,94.64 L 0 5.36 C 0,2.55 2.3,0 5.36,0 L 94.64 0 C 97.7,0 100,2.3 100,5.36 L 100 94.64 C 100,97.7 97.7,100 94.64,100 L 5.36 100 L 5.36 100" fill="#FFFFFF" stroke="none" stroke-width="0.5"/>
  </g>
  <g transform="translate(716.00,212.00) scale(0.4200,0.4200)">
    <path d="M 93.53 2.49 C 95.77,2.49 97.51,4.23 97.51,6.47 L 97.51 93.53 C 97.51,95.77 95.77,97.51 93.53,97.51 L 6.47 97.51 C 4.23,97.51 2.49,95.77 2.49,93.53 L 2.49 6.47 C 2.49,4.23 4.23,2.49 6.47,2.49 L 93.53 2.49 L 93.53 2.49 M 93.53 0 L 6.47 0 C 2.98,0 0,2.99 0,6.47 L 0 93.53 C 0,97.02 2.98,100 6.47,100 L 93.53 100 C 97.01,100 100,97.02 100,93.53 L 100 6.47 C 100,2.99 97.26,0 93.53,0 L 93.53 0" fill="#FFFFFF" stroke="none" stroke-width="0.5"/>
  </g>
  <g transform="translate(717.00,213.00) scale(0.4000,0.4000)">
    <path d="M 95.81 0 L 4.19 0 C 1.83,0 0,1.83 0,4.19 L 0 95.81 C 0,98.17 1.83,100 4.19,100 L 95.81 100 C 98.17,100 100,98.17 100,95.81 L 100 4.19 C 100,1.83 98.17,0 95.81,0 L 95.81 0 M 96.34 95.81 C 96.34,96.07 96.07,96.34 95.81,96.34 L 4.19 96.34 C 3.93,96.34 3.66,96.07 3.66,95.81 L 3.66 4.19 C 3.66,3.93 3.93,3.66 4.19,3.66 L 95.81 3.66 C 96.07,3.66 96.34,3.93 96.34,4.19 L 96.34 95.81 L 96.34 95.81" fill="#2d5967" stroke="none" stroke-width="0.5"/>
  </g>
  <g transform="translate(721.00,239.50) scale(0.3100,0.0850)">
    <path d="M 0 100 L 100 100 L 100 0 L 0 0 L 0 100 L 0 100 M 5.03 16.47 L 95.3 16.47 L 95.3 83.53 L 5.03 83.53 L 5.03 16.47 L 5.03 16.47" fill="#2d5967" stroke="none" stroke-width="0.5"/>
  </g>
  <g transform="translate(746.50,243.00) scale(0.0200,0.0200)">
    <path d="M 50.01 100 C 77.62,100 100,77.62 100,50.01 C 100,22.4 77.62,0 50.01,0 C 22.4,0 0,22.4 0,50.01 C 0,77.62 22.4,100 50.01,100 L 50.01 100" fill="#2d5967" stroke="none" stroke-width="0.5"/>
  </g>
  <g transform="translate(721.00,217.00) scale(0.1450,0.0850)">
    <path d="M 100 0 L 0 0 L 0 100 L 100 100 L 100 0 L 100 0 M 46.38 17.65 L 54.35 17.65 L 54.35 84.71 L 46.38 84.71 C 46.38,83.53 46.38,17.65 46.38,17.65 L 46.38 17.65 M 36.23 83.53 L 28.26 83.53 L 28.26 17.65 L 36.23 17.65 L 36.23 83.53 L 36.23 83.53 M 64.49 17.65 L 72.46 17.65 L 72.46 84.71 L 64.49 84.71 L 64.49 17.65 L 64.49 17.65 M 10.87 17.65 L 18.84 17.65 L 18.84 84.71 L 10.87 84.71 L 10.87 17.65 L 10.87 17.65 M 89.86 83.53 L 81.88 83.53 L 81.88 17.65 L 89.86 17.65 L 89.86 83.53 L 89.86 83.53" fill="#2d5967" stroke="none" stroke-width="0.5"/>
  </g>
  <g transform="translate(738.00,217.00) scale(0.1450,0.0850)">
    <path d="M 0 100 L 100 100 L 100 0 L 0 0 L 0 100 L 0 100 M 53.62 83.53 L 45.65 83.53 L 45.65 17.65 L 53.62 17.65 L 53.62 83.53 L 53.62 83.53 M 63.77 17.65 L 71.74 17.65 L 71.74 84.71 L 63.77 84.71 L 63.77 17.65 L 63.77 17.65 M 35.51 83.53 L 27.54 83.53 L 27.54 17.65 L 35.51 17.65 L 35.51 83.53 L 35.51 83.53 M 89.86 83.53 L 81.88 83.53 L 81.88 17.65 L 89.86 17.65 L 89.86 83.53 L 89.86 83.53 M 10.14 17.65 L 18.12 17.65 L 18.12 84.71 L 10.14 84.71 L 10.14 17.65 L 10.14 17.65" fill="#2d5967" stroke="none" stroke-width="0.5"/>
  </g>
  <g transform="translate(721.00,228.50) scale(0.1450,0.0850)">
    <path d="M 100 0 L 0 0 L 0 100 L 100 100 L 100 0 L 100 0 M 46.38 16.47 L 54.35 16.47 L 54.35 83.53 L 46.38 83.53 C 46.38,82.35 46.38,16.47 46.38,16.47 L 46.38 16.47 M 36.23 83.53 L 28.26 83.53 L 28.26 16.47 L 36.23 16.47 L 36.23 83.53 L 36.23 83.53 M 64.49 16.47 L 72.46 16.47 L 72.46 83.53 L 64.49 83.53 L 64.49 16.47 L 64.49 16.47 M 10.87 16.47 L 18.84 16.47 L 18.84 83.53 L 10.87 83.53 L 10.87 16.47 L 10.87 16.47 M 89.86 83.53 L 81.88 83.53 L 81.88 16.47 L 89.86 16.47 L 89.86 83.53 L 89.86 83.53" fill="#2d5967" stroke="none" stroke-width="0.5"/>
  </g>
  <g transform="translate(738.00,228.50) scale(0.1450,0.0850)">
    <path d="M 0 100 L 100 100 L 100 0 L 0 0 L 0 100 L 0 100 M 53.62 83.53 L 45.65 83.53 L 45.65 16.47 L 53.62 16.47 L 53.62 83.53 L 53.62 83.53 M 63.77 16.47 L 71.74 16.47 L 71.74 83.53 L 63.77 83.53 L 63.77 16.47 L 63.77 16.47 M 35.51 83.53 L 27.54 83.53 L 27.54 16.47 L 35.51 16.47 L 35.51 83.53 L 35.51 83.53 M 89.86 83.53 L 81.88 83.53 L 81.88 16.47 L 89.86 16.47 L 89.86 83.53 L 89.86 83.53 M 10.14 16.47 L 18.12 16.47 L 18.12 83.53 L 10.14 83.53 L 10.14 16.47 L 10.14 16.47" fill="#2d5967" stroke="none" stroke-width="0.5"/>
  </g>
  <g transform="translate(699.00,252.00) scale(0.7700,0.2000)">
    <path d="M 0 100 L 100 100 L 100 0 L 0 0 L 0 100" fill="none" stroke="#000000" stroke-width="0.5"/>
  </g>
  <g transform="translate(618.24,281.50) scale(0.4100,0.4100)">
    <path d="M 5.36 100 C 2.55,100 0,97.7 0,94.64 L 0 5.36 C 0,2.55 2.3,0 5.36,0 L 94.64 0 C 97.7,0 100,2.3 100,5.36 L 100 94.64 C 100,97.7 97.7,100 94.64,100 L 5.36 100 L 5.36 100" fill="#FFFFFF" stroke="none" stroke-width="0.5"/>
  </g>
  <g transform="translate(617.74,281.00) scale(0.4200,0.4200)">
    <path d="M 93.53 2.49 C 95.77,2.49 97.51,4.23 97.51,6.47 L 97.51 93.53 C 97.51,95.77 95.77,97.51 93.53,97.51 L 6.47 97.51 C 4.23,97.51 2.49,95.77 2.49,93.53 L 2.49 6.47 C 2.49,4.23 4.23,2.49 6.47,2.49 L 93.53 2.49 L 93.53 2.49 M 93.53 0 L 6.47 0 C 2.98,0 0,2.99 0,6.47 L 0 93.53 C 0,97.02 2.98,100 6.47,100 L 93.53 100 C 97.01,100 100,97.02 100,93.53 L 100 6.47 C 100,2.99 97.26,0 93.53,0 L 93.53 0" fill="#FFFFFF" stroke="none" stroke-width="0.5"/>
  </g>
  <g transform="translate(618.74,282.00) scale(0.4000,0.4000)">
    <path d="M 95.81 0 L 4.19 0 C 1.83,0 0,1.83 0,4.19 L 0 95.81 C 0,98.17 1.83,100 4.19,100 L 95.81 100 C 98.17,100 100,98.17 100,95.81 L 100 4.19 C 100,1.83 98.17,0 95.81,0 L 95.81 0 M 96.34 95.81 C 96.34,96.07 96.07,96.34 95.81,96.34 L 4.19 96.34 C 3.93,96.34 3.66,96.07 3.66,95.81 L 3.66 4.19 C 3.66,3.93 3.93,3.66 4.19,3.66 L 95.81 3.66 C 96.07,3.66 96.34,3.93 96.34,4.19 L 96.34 95.81 L 96.34 95.81" fill="#2d5967" stroke="none" stroke-width="0.5"/>
  </g>
  <g transform="translate(622.74,308.50) scale(0.3100,0.0850)">
    <path d="M 0 100 L 100 100 L 100 0 L 0 0 L 0 100 L 0 100 M 5.03 16.47 L 95.3 16.47 L 95.3 83.53 L 5.03 83.53 L 5.03 16.47 L 5.03 16.47" fill="#2d5967" stroke="none" stroke-width="0.5"/>
  </g>
  <g transform="translate(648.24,312.00) scale(0.0200,0.0200)">
    <path d="M 50.01 100 C 77.62,100 100,77.62 100,50.01 C 100,22.4 77.62,0 50.01,0 C 22.4,0 0,22.4 0,50.01 C 0,77.62 22.4,100 50.01,100 L 50.01 100" fill="#2d5967" stroke="none" stroke-width="0.5"/>
  </g>
  <g transform="translate(622.74,286.00) scale(0.1450,0.0850)">
    <path d="M 100 0 L 0 0 L 0 100 L 100 100 L 100 0 L 100 0 M 46.38 17.65 L 54.35 17.65 L 54.35 84.71 L 46.38 84.71 C 46.38,83.53 46.38,17.65 46.38,17.65 L 46.38 17.65 M 36.23 83.53 L 28.26 83.53 L 28.26 17.65 L 36.23 17.65 L 36.23 83.53 L 36.23 83.53 M 64.49 17.65 L 72.46 17.65 L 72.46 84.71 L 64.49 84.71 L 64.49 17.65 L 64.49 17.65 M 10.87 17.65 L 18.84 17.65 L 18.84 84.71 L 10.87 84.71 L 10.87 17.65 L 10.87 17.65 M 89.86 83.53 L 81.88 83.53 L 81.88 17.65 L 89.86 17.65 L 89.86 83.53 L 89.86 83.53" fill="#2d5967" stroke="none" stroke-width="0.5"/>
  </g>
  <g transform="translate(639.74,286.00) scale(0.1450,0.0850)">
    <path d="M 0 100 L 100 100 L 100 0 L 0 0 L 0 100 L 0 100 M 53.62 83.53 L 45.65 83.53 L 45.65 17.65 L 53.62 17.65 L 53.62 83.53 L 53.62 83.53 M 63.77 17.65 L 71.74 17.65 L 71.74 84.71 L 63.77 84.71 L 63.77 17.65 L 63.77 17.65 M 35.51 83.53 L 27.54 83.53 L 27.54 17.65 L 35.51 17.65 L 35.51 83.53 L 35.51 83.53 M 89.86 83.53 L 81.88 83.53 L 81.88 17.65 L 89.86 17.65 L 89.86 83.53 L 89.86 83.53 M 10.14 17.65 L 18.12 17.65 L 18.12 84.71 L 10.14 84.71 L 10.14 17.65 L 10.14 17.65" fill="#2d5967" stroke="none" stroke-width="0.5"/>
  </g>
  <g transform="translate(622.74,297.50) scale(0.1450,0.0850)">
    <path d="M 100 0 L 0 0 L 0 100 L 100 100 L 100 0 L 100 0 M 46.38 16.47 L 54.35 16.47 L 54.35 83.53 L 46.38 83.53 C 46.38,82.35 46.38,16.47 46.38,16.47 L 46.38 16.47 M 36.23 83.53 L 28.26 83.53 L 28.26 16.47 L 36.23 16.47 L 36.23 83.53 L 36.23 83.53 M 64.49 16.47 L 72.46 16.47 L 72.46 83.53 L 64.49 83.53 L 64.49 16.47 L 64.49 16.47 M 10.87 16.47 L 18.84 16.47 L 18.84 83.53 L 10.87 83.53 L 10.87 16.47 L 10.87 16.47 M 89.86 83.53 L 81.88 83.53 L 81.88 16.47 L 89.86 16.47 L 89.86 83.53 L 89.86 83.53" fill="#2d5967" stroke="none" stroke-width="0.5"/>
  </g>
  <g transform="translate(639.74,297.50) scale(0.1450,0.0850)">
    <path d="M 0 100 L 100 100 L 100 0 L 0 0 L 0 100 L 0 100 M 53.62 83.53 L 45.65 83.53 L 45.65 16.47 L 53.62 16.47 L 53.62 83.53 L 53.62 83.53 M 63.77 16.47 L 71.74 16.47 L 71.74 83.53 L 63.77 83.53 L 63.77 16.47 L 63.77 16.47 M 35.51 83.53 L 27.54 83.53 L 27.54 16.47 L 35.51 16.47 L 35.51 83.53 L 35.51 83.53 M 89.86 83.53 L 81.88 83.53 L 81.88 16.47 L 89.86 16.47 L 89.86 83.53 L 89.86 83.53 M 10.14 16.47 L 18.12 16.47 L 18.12 83.53 L 10.14 83.53 L 10.14 16.47 L 10.14 16.47" fill="#2d5967" stroke="none" stroke-width="0.5"/>
  </g>
  <g transform="translate(600.74,321.00) scale(0.7700,0.2000)">
    <path d="M 0 100 L 100 100 L 100 0 L 0 0 L 0 100" fill="none" stroke="#000000" stroke-width="0.5"/>
  </g>
  <g transform="translate(453.00,86.50) scale(0.4100,0.4100)">
    <path d="M 81.8 100 L 81.8 93.9 L 89.08 93.9 L 55.1 59.76 C 54.13,71.46 51.46,81.71 47.33,89.51 C 42.23,98.29 37.14,100 33.74,100 C 33.25,100 32.52,100 31.8,99.76 C 22.09,98.05 16.02,83.17 13.83,70 C 12.86,65.12 12.38,59.27 12.14,53.17 L 0 53.17 L 0 47.07 L 12.14 47.07 C 12.38,40.73 12.86,34.63 13.83,29.51 C 16.99,11.46 24.51,0.24 33.74,0.24 C 39.08,0.24 48.54,4.15 53.64,30 C 54.13,33.41 54.61,36.83 54.85,40.24 L 88.83 6.1 L 81.55 6.1 L 81.55 0 L 99.27 0 L 99.27 17.8 L 93.45 17.8 L 93.45 10 L 56.8 47.07 L 88.11 47.07 L 83.25 42.44 L 87.38 38.05 L 100 50 L 87.62 62.44 L 83.25 58.05 L 88.35 52.93 L 57.04 52.93 L 93.45 89.76 L 93.45 82.19 L 99.51 82.19 L 99.51 100 L 81.8 100 L 81.8 100" fill="#FFFFFF" stroke="none" stroke-width="0.5"/>
  </g>
  <g transform="translate(452.50,86.00) scale(0.4200,0.4200)">
    <path d="M 96.93 2.38 L 96.93 17.38 L 93.38 17.38 L 93.38 8.1 L 53.9 48.1 L 53.9 48.33 L 89.84 48.33 L 83.92 42.62 L 86.29 40 L 96.93 50 L 86.53 60.48 L 84.16 58.1 L 90.31 51.9 L 53.9 51.9 L 93.38 91.67 L 93.38 82.62 L 96.93 82.62 L 96.93 97.62 L 82.03 97.62 L 82.03 94.05 L 90.78 94.05 L 53.66 56.67 C 53.19,67.62 50.83,78.81 46.1,87.86 C 41.61,95.48 37.12,97.38 33.81,97.38 C 33.33,97.38 32.62,97.38 32.15,97.14 C 23.17,95.48 17.73,80.95 15.6,69.05 C 14.89,64.05 14.19,57.86 14.19,51.67 L 2.36 51.67 L 2.36 48.1 L 14.19 48.1 C 14.19,41.67 14.89,35.48 15.84,30 C 18.91,13.33 25.77,2.62 34.04,2.62 C 38.77,2.62 47.28,6.43 52.01,30.71 C 52.72,34.52 53.19,38.57 53.43,43.1 L 90.78 5.95 L 82.03 5.95 L 82.03 2.38 L 96.93 2.38 L 96.93 2.38 M 99.29 0 L 96.93 0 L 82.03 0 L 79.67 0 L 79.67 2.38 L 79.67 5.95 L 79.67 8.33 L 82.03 8.33 L 85.11 8.33 L 55.56 37.86 C 55.32,35.24 54.85,32.86 54.61,30.48 C 49.65,5.48 40.9,0.24 34.28,0.24 C 24.59,0.24 17.02,11.43 13.71,29.76 C 12.77,34.52 12.29,40 12.06,45.95 L 2.36 45.95 L 0 45.95 L 0 48.33 L 0 51.9 L 0 54.29 L 2.36 54.29 L 11.82 54.29 C 12.06,59.76 12.53,65.24 13.48,69.76 C 15.84,83.1 21.75,97.86 31.91,99.76 C 32.62,99.76 33.33,100 34.04,100 C 37.59,100 43.03,98.1 48.23,89.29 C 52.01,81.91 54.61,72.86 55.56,62.38 L 85.11 91.67 L 82.03 91.67 L 79.67 91.67 L 79.67 94.05 L 79.67 97.62 L 79.67 100 L 82.03 100 L 96.93 100 L 99.29 100 L 99.29 97.62 L 99.29 82.62 L 99.29 80.24 L 96.93 80.24 L 93.38 80.24 L 91.02 80.24 L 91.02 82.62 L 91.02 85.95 L 59.58 54.05 L 84.4 54.05 L 82.27 56.19 L 80.62 57.86 L 82.27 59.52 L 84.63 61.9 L 86.29 63.57 L 87.94 61.9 L 98.34 51.43 L 100 49.76 L 98.34 48.1 L 87.94 38.1 L 86.29 36.43 L 84.63 38.1 L 82.27 40.71 L 80.62 42.38 L 82.27 44.05 L 83.92 45.71 L 59.34 45.71 L 91.02 13.81 L 91.02 17.38 L 91.02 19.76 L 93.38 19.76 L 96.93 19.76 L 99.29 19.76 L 99.29 17.38 L 99.29 2.38 L 99.29 0 L 99.29 0" fill="#FFFFFF" stroke="none" stroke-width="0.5"/>
  </g>
  <g transform="translate(453.50,87.00) scale(0.4000,0.4000)">
    <path d="M 100 15.75 L 100 0 L 84.25 0 L 84.25 3.75 L 93.5 3.75 L 54.25 42.75 C 54,38 53.5,33.75 52.75,29.75 C 47.75,4 38.75,0.25 33.75,0.25 C 25,0.25 17.75,11.5 14.5,29.25 C 13.25,35 12.75,41.5 12.5,48.25 L 0 48.25 L 0 52 L 12.5 52 C 12.5,58.5 13.25,64.75 14.25,70.25 C 16.5,82.75 22.25,98 31.75,99.75 C 32.25,99.75 32.75,100 33.5,100 C 37,100 41.75,98 46.5,90 C 51.5,80.5 53.75,68.75 54.5,57.25 L 93.75 96.5 L 84.5 96.5 L 84.5 100 L 100 100 L 100 84.25 L 96.25 84.25 L 96.25 93.75 L 54.5 52 L 92.75 52 L 86.25 58.5 L 88.75 61 L 100 50 L 89 39.5 L 86.5 42.25 L 92.75 48.25 L 54.5 48.25 L 54.5 48 L 96.25 6 L 96.25 15.75 L 100 15.75 L 100 15.75 M 42.25 87.5 C 40,91 37,95.25 33.25,95.25 C 33,95.25 32.75,95.25 32.5,95.25 C 27,94.25 21,83.5 18.75,69.5 C 17.75,64.25 17.25,58.25 17,52 L 39.25 52 L 32.75 58.5 L 35.5 61 L 46.5 50 L 35 39 L 32.5 41.75 L 39.25 48.25 L 17.25 48.25 C 17.25,42 18,35.5 19,30.25 C 22,12.75 28.75,5 33.5,5 C 38,5 44.25,11.75 48,30.75 C 51.25,47.75 50.5,72 42.25,87.5 L 42.25 87.5" fill="#2d5967" stroke="none" stroke-width="0.5"/>
  </g>
  <g transform="translate(415.50,128.00) scale(1.1600,0.1700)">
    <path d="M 0 100 L 100 100 L 100 0 L 0 0 L 0 100" fill="none" stroke="#000000" stroke-width="0.5"/>
  </g>
  <g transform="translate(457.12,398.50) scale(0.3650,0.4100)">
    <path d="M 49.99 100 C 44.88,100 0,99.63 0,86.59 L 0 13.8 C 0,0.39 44.88,0 49.99,0 C 55.09,0 100,0.39 100,13.8 L 100 86.59 C 100,99.63 55.12,100 49.99,100 L 49.99 100" fill="#FFFFFF" stroke="none" stroke-width="0.5"/>
  </g>
  <g transform="translate(456.62,398.00) scale(0.3750,0.4200)">
    <path d="M 49.99 2.38 C 66.47,2.38 97.34,4.95 97.34,14.67 L 97.34 85.71 C 97.34,95.24 66.36,97.62 49.99,97.62 C 33.61,97.62 2.66,95.24 2.66,85.71 L 2.66 14.67 C 2.66,4.95 33.64,2.38 49.99,2.38 L 49.99 2.38 M 49.99 0 C 41.64,0 0,0.71 0,14.67 L 0 85.71 C 0,99.36 41.64,100 49.99,100 C 58.34,100 100,99.31 100,85.71 L 100 14.67 C 100,0.71 58.49,0 49.99,0 L 49.99 0" fill="#FFFFFF" stroke="none" stroke-width="0.5"/>
  </g>
  <g transform="translate(457.62,399.00) scale(0.3550,0.4000)">
    <path d="M 100 12.9 C 100,2.7 67.4,0 49.99,0 C 32.58,0 0,2.7 0,12.9 L 0 87.5 C 0,97.5 32.72,100 49.99,100 C 67.26,100 100,97.5 100,87.5 L 100 12.9 L 100 12.9 M 94.38 62.9 C 94.38,63.35 92.28,65.6 82.65,67.67 C 71.91,69.71 60.96,70.67 49.99,70.53 C 38.98,70.66 27.98,69.69 17.21,67.62 C 7.58,65.55 5.62,63.3 5.62,62.85 L 5.62 44.5 C 15.67,49.37 37.21,50.85 50.13,50.85 C 63.04,50.85 84.61,49.37 94.66,44.5 L 94.38 62.9 L 94.38 62.9 M 94.38 38.35 C 94.38,38.8 92.28,41.07 82.65,43.12 C 71.91,45.16 60.96,46.12 49.99,45.97 C 38.98,46.11 27.98,45.13 17.21,43.07 C 7.58,41.02 5.62,38.75 5.62,38.3 L 5.62 19.25 C 15.67,24.25 37.21,25.77 50.13,25.77 C 63.04,25.77 84.61,24.27 94.66,19.25 L 94.38 38.35 L 94.38 38.35 M 17.24 7.87 C 28,5.79 38.98,4.83 49.99,5 C 61,4.87 72,5.88 82.76,8 C 92.67,10 94.52,12.5 94.52,12.9 C 94.52,13.3 92.53,15.75 82.76,17.9 C 72,20.02 61,21.03 49.99,20.9 C 38.98,21.04 27.99,20.04 17.24,17.92 C 7.47,15.75 5.62,13.4 5.62,12.9 C 5.62,12.4 7.61,10.02 17.38,7.9 L 17.24 7.87 L 17.24 7.87 M 82.79 92.22 C 72.01,94.29 61.01,95.26 49.99,95.13 C 38.98,95.26 27.98,94.29 17.21,92.22 C 7.58,90.17 5.62,87.9 5.62,87.5 L 5.62 69.05 C 15.67,73.92 37.21,75.4 50.13,75.4 C 63.04,75.4 84.61,73.92 94.66,69.05 L 94.66 87.5 C 94.66,87.95 92.56,90.22 82.93,92.27" fill="#2d5967" stroke="none" stroke-width="0.5"/>
  </g>
  <g transform="translate(425.37,438.00) scale(1.0000,0.1800)">
    <path d="M 0 100 L 100 100 L 100 0 L 0 0 L 0 100" fill="none" stroke="#000000" stroke-width="0.5"/>
  </g>
  <g transform="translate(24.24,106.50) scale(0.2050,0.2050)">
    <path d="M 50 100 C 22.6,100 0,77.4 0,50 C 0,22.6 22.6,0 50,0 C 77.41,0 100,22.6 100,50 C 100,77.4 77.41,100 50,100 L 50 100" fill="#FFFFFF" stroke="none" stroke-width="0.5"/>
  </g>
  <g transform="translate(23.74,106.00) scale(0.2150,0.2150)">
    <path d="M 50 4.59 C 75.23,4.59 95.41,24.77 95.41,50 C 95.41,75.23 75.23,95.41 50,95.41 C 24.77,95.41 4.59,75.23 4.59,50 C 4.59,24.77 24.77,4.59 50,4.59 L 50 4.59 M 50 0 C 22.48,0 0,22.48 0,50 C 0,77.52 22.48,100 50,100 C 77.52,100 100,77.52 100,50 C 100,22.48 77.52,0 50,0 L 50 0" fill="#FFFFFF" stroke="none" stroke-width="0.5"/>
  </g>
  <g transform="translate(18.74,127.50) scale(0.3200,0.2000)">
    <path d="M 0 100 L 0 36.5 C 0,16.5 10.31,0 22.81,0 L 29.69 0 L 30.94 2.5 C 35.62,12 42.5,17.5 50,17.5 C 50.94,17.5 52.19,17.5 53.12,17 C 59.38,16 65.31,10 69.38,1.5 L 70.31 0 L 77.19 0 C 89.69,0 100,16.5 100,36.5 L 100 100 L 0 100 L 0 100" fill="#FFFFFF" stroke="none" stroke-width="0.5"/>
  </g>
  <g transform="translate(18.24,127.00) scale(0.3300,0.2100)">
    <path d="M 76.36 4.76 C 87.88,4.76 96.97,19.05 96.97,37.14 L 96.97 95.24 L 92.42 95.24 L 91.82 95.24 L 3.03 95.24 L 3.03 37.14 C 3.03,19.52 12.12,4.76 23.64,4.76 L 29.39 4.76 L 30 6.19 C 34.85,15.71 41.82,21.43 49.7,21.43 C 50.91,21.43 51.82,21.43 53.03,20.95 C 59.7,19.52 65.76,13.81 70,5.24 L 70.3 4.76 L 76.36 4.76 L 76.36 4.76 M 76.36 0 L 70.61 0 L 69.09 0 L 68.18 1.9 L 67.88 2.38 C 63.94,10 58.79,15.24 53.03,16.67 C 52.12,16.67 51.21,17.14 50,17.14 C 43.03,17.14 36.67,12.38 32.73,3.81 L 32.12 2.38 L 30.91 0 L 29.39 0 L 23.64 0 C 10.61,0 0,16.67 0,37.14 L 0 95.24 L 0 100 L 3.03 100 L 91.82 100 L 92.42 100 L 96.97 100 L 100 100 L 100 95.24 L 100 37.14 C 100,16.67 89.39,0 76.36,0 L 76.36 0" fill="#FFFFFF" stroke="none" stroke-width="0.5"/>
  </g>
  <g transform="translate(24.74,107.00) scale(0.1950,0.1950)">
    <path d="M 50 100 C 77.78,100 100,77.78 100,50 C 100,22.22 77.78,0 50,0 C 22.22,0 0,22.22 0,50 C 0,77.78 22.22,100 50,100 L 50 100 M 50 8.59 C 72.73,8.59 91.41,27.27 91.41,50 C 91.41,72.73 72.73,91.41 50,91.41 C 27.27,91.41 8.59,72.73 8.59,50 C 8.59,27.27 26.77,8.59 50,8.59 L 50 8.59" fill="#2d5967" stroke="none" stroke-width="0.5"/>
  </g>
  <g transform="translate(19.24,128.00) scale(0.3100,0.1900)">
    <path d="M 78.06 0 L 71.94 0 L 70.97 2.11 C 65.81,12.63 58.06,18.95 50,18.95 C 41.94,18.95 34.19,12.63 29.03,2.11 L 28.06 0 L 21.94 0 C 10,0 0,15.79 0,35.79 L 0 100 L 5.48 100 L 5.48 35.79 C 5.48,21.05 12.9,8.95 21.94,8.95 L 25.48 8.95 C 31.61,21.05 40.32,27.37 50,27.37 C 59.68,27.37 68.39,20.53 74.52,8.95 L 78.06 8.95 C 87.1,8.95 94.52,21.05 94.52,35.79 L 94.52 100 L 100 100 L 100 35.79 C 100,16.32 90,0 78.06,0 L 78.06 0" fill="#2d5967" stroke="none" stroke-width="0.5"/>
  </g>
  <g transform="translate(14.74,148.00) scale(0.4000,0.2000)">
    <path d="M 0 100 L 100 100 L 100 0 L 0 0 L 0 100" fill="none" stroke="#000000" stroke-width="0.5"/>
  </g>
  <g transform="translate(891.00,246.50) scale(0.4100,0.4100)">
    <path d="M 5.35 99.76 C 2.43,99.76 0,97.32 0,94.4 L 0 5.35 C 0,2.43 2.43,0 5.35,0 L 94.65 0 C 97.57,0 100,2.43 100,5.35 L 100 94.65 C 100,97.57 97.57,100 94.65,100 L 5.35 99.76 L 5.35 99.76" fill="#FFFFFF" stroke="none" stroke-width="0.5"/>
  </g>
  <g transform="translate(890.50,246.00) scale(0.4200,0.4200)">
    <path d="M 93.35 2.38 C 95.49,2.38 97.39,4.29 97.39,6.43 L 97.39 93.81 C 97.39,95.95 95.49,97.86 93.35,97.86 L 6.41 97.86 C 4.28,97.62 2.38,95.71 2.38,93.57 L 2.38 6.43 C 2.38,4.29 4.28,2.38 6.41,2.38 L 93.35 2.38 L 93.35 2.38 M 93.35 0 L 6.41 0 C 2.85,0 0,2.86 0,6.43 L 0 93.81 C 0,97.14 2.85,100 6.41,100 L 93.59 100 C 97.15,100 100,97.14 100,93.57 L 100 6.43 C 99.76,2.86 96.91,0 93.35,0 L 93.35 0" fill="#FFFFFF" stroke="none" stroke-width="0.5"/>
  </g>
  <g transform="translate(891.50,247.00) scale(0.4000,0.4000)">
    <path d="M 95.75 100 L 4.25 100 C 2,100 0,98 0,95.75 L 0 4.25 C 0,2 2,0 4.25,0 L 96 0 C 98,0 100,2 100,4.25 L 100 96 C 100,98 98,100 95.75,100 L 95.75 100 M 4.25 3.75 C 4,3.75 3.75,4 3.75,4.25 L 3.75 96 C 3.75,96.25 4,96.5 4.25,96.5 L 96 96.5 C 96.25,96.5 96.5,96.25 96.5,96 L 96.5 4.25 C 96.5,4 96.25,3.75 96,3.75 L 4.25 3.75 L 4.25 3.75" fill="#2d5967" stroke="none" stroke-width="0.5"/>
  </g>
  <g transform="translate(901.50,257.50) scale(0.0850,0.0850)">
    <path d="M 100 100 L 0 100 L 0 0 L 100 0 L 100 100 L 100 100 M 15.73 84.27 L 82.03 84.27 L 82.03 16.85 L 15.73 16.85 L 15.73 84.27 L 15.73 84.27" fill="#2d5967" stroke="none" stroke-width="0.5"/>
  </g>
  <g transform="translate(912.00,257.50) scale(0.0850,0.0850)">
    <path d="M 100 100 L 0 100 L 0 0 L 100 0 C 98.87,1.12 98.87,100 100,100 L 100 100 M 15.73 84.27 L 82.02 84.27 L 82.02 16.85 L 15.73 16.85 L 15.73 84.27 L 15.73 84.27" fill="#2d5967" stroke="none" stroke-width="0.5"/>
  </g>
  <g transform="translate(906.50,267.50) scale(0.0850,0.0850)">
    <path d="M 100 100 L 0 100 L 0 0 L 100 0 L 100 100 L 100 100 M 16.85 84.27 L 84.27 84.27 L 84.27 16.85 L 16.85 16.85 L 16.85 84.27 L 16.85 84.27" fill="#2d5967" stroke="none" stroke-width="0.5"/>
  </g>
  <g transform="translate(917.00,267.50) scale(0.0850,0.0850)">
    <path d="M 100 100 L 0 100 L 0 0 L 100 0 L 100 100 L 100 100 M 16.85 84.27 L 84.27 84.27 L 84.27 16.85 L 16.85 16.85 L 16.85 84.27 L 16.85 84.27" fill="#2d5967" stroke="none" stroke-width="0.5"/>
  </g>
  <g transform="translate(897.00,267.50) scale(0.0850,0.0850)">
    <path d="M 98.87 100 L 0 100 L 0 0 L 100 0 L 98.87 100 L 98.87 100 M 15.73 84.27 L 83.15 84.27 L 83.15 16.85 L 15.73 16.85 L 15.73 84.27 L 15.73 84.27" fill="#2d5967" stroke="none" stroke-width="0.5"/>
  </g>
  <g transform="translate(874.00,286.00) scale(0.7500,0.3600)">
    <path d="M 0 100 L 100 100 L 100 0 L 0 0 L 0 100" fill="none" stroke="#000000" stroke-width="0.5"/>
  </g>
</svg>