<svg xmlns="http://www.w3.org/2000/svg" viewBox="0 0 594.0 661" width="594" height="661">
  <g transform="translate(137.25,455.50) scale(0.3650,0.4100)">
    <path d="M 49.99 100 C 44.88,100 0,99.63 0,86.59 L 0 13.8 C 0,0.39 44.88,0 49.99,0 C 55.09,0 100,0.39 100,13.8 L 100 86.59 C 100,99.63 55.12,100 49.99,100 L 49.99 100" fill="#FFFFFF" stroke="none" stroke-width="0.5"/>
  </g>
  <g transform="translate(136.75,455.00) scale(0.3750,0.4200)">
    <path d="M 49.99 2.38 C 66.47,2.38 97.34,4.95 97.34,14.67 L 97.34 85.71 C 97.34,95.24 66.36,97.62 49.99,97.62 C 33.61,97.62 2.66,95.24 2.66,85.71 L 2.66 14.67 C 2.66,4.95 33.64,2.38 49.99,2.38 L 49.99 2.38 M 49.99 0 C 41.64,0 0,0.71 0,14.67 L 0 85.71 C 0,99.36 41.64,100 49.99,100 C 58.34,100 100,99.31 100,85.71 L 100 14.67 C 100,0.71 58.49,0 49.99,0 L 49.99 0" fill="#FFFFFF" stroke="none" stroke-width="0.5"/>
  </g>
  <g transform="translate(137.75,456.00) scale(0.3550,0.4000)">
    <path d="M 100 12.9 C 100,2.7 67.4,0 49.99,0 C 32.58,0 0,2.7 0,12.9 L 0 87.5 C 0,97.5 32.72,100 49.99,100 C 67.26,100 100,97.5 100,87.5 L 100 12.9 L 100 12.9 M 94.38 62.9 C 94.38,63.35 92.28,65.6 82.65,67.67 C 71.91,69.71 60.96,70.67 49.99,70.53 C 38.98,70.66 27.98,69.69 17.21,67.62 C 7.58,65.55 5.62,63.3 5.62,62.85 L 5.62 44.5 C 15.67,49.37 37.21,50.85 50.13,50.85 C 63.04,50.85 84.61,49.37 94.66,44.5 L 94.38 62.9 L 94.38 62.9 M 94.38 38.35 C 94.38,38.8 92.28,41.07 82.65,43.12 C 71.91,45.16 60.96,46.12 49.99,45.97 C 38.98,46.11 27.98,45.13 17.21,43.07 C 7.58,41.02 5.62,38.75 5.62,38.3 L 5.62 19.25 C 15.67,24.25 37.21,25.77 50.13,25.77 C 63.04,25.77 84.61,24.27 94.66,19.25 L 94.38 38.35 L 94.38 38.35 M 17.24 7.87 C 28,5.79 38.98,4.83 49.99,5 C 61,4.87 72,5.88 82.76,8 C 92.67,10 94.52,12.5 94.52,12.9 C 94.52,13.3 92.53,15.75 82.76,17.9 C 72,20.02 61,21.03 49.99,20.9 C 38.98,21.04 27.99,20.04 17.24,17.92 C 7.47,15.75 5.62,13.4 5.62,12.9 C 5.62,12.4 7.61,10.02 17.38,7.9 L 17.24 7.87 L 17.24 7.87 M 82.79 92.22 C 72.01,94.29 61.01,95.26 49.99,95.13 C 38.98,95.26 27.98,94.29 17.21,92.22 C 7.58,90.17 5.62,87.9 5.62,87.5 L 5.62 69.05 C 15.67,73.92 37.21,75.4 50.13,75.4 C 63.04,75.4 84.61,73.92 94.66,69.05 L 94.66 87.5 C 94.66,87.95 92.56,90.22 82.93,92.27" fill="#2d5967" stroke="none" stroke-width="0.5"/>
  </g>
  <g transform="translate(114.00,497.00) scale(0.8300,0.4000)">
    <path d="M 0 100 L 100 100 L 100 0 L 0 0 L 0 100" fill="none" stroke="#000000" stroke-width="0.5"/>
  </g>
  <g transform="translate(431.25,455.50) scale(0.3650,0.4100)">
    <path d="M 49.99 100 C 44.88,100 0,99.63 0,86.59 L 0 13.8 C 0,0.39 44.88,0 49.99,0 C 55.09,0 100,0.39 100,13.8 L 100 86.59 C 100,99.63 55.12,100 49.99,100 L 49.99 100" fill="#FFFFFF" stroke="none" stroke-width="0.5"/>
  </g>
  <g transform="translate(430.75,455.00) scale(0.3750,0.4200)">
    <path d="M 49.99 2.38 C 66.47,2.38 97.34,4.95 97.34,14.67 L 97.34 85.71 C 97.34,95.24 66.36,97.62 49.99,97.62 C 33.61,97.62 2.66,95.24 2.66,85.71 L 2.66 14.67 C 2.66,4.95 33.64,2.38 49.99,2.38 L 49.99 2.38 M 49.99 0 C 41.64,0 0,0.71 0,14.67 L 0 85.71 C 0,99.36 41.64,100 49.99,100 C 58.34,100 100,99.31 100,85.71 L 100 14.67 C 100,0.71 58.49,0 49.99,0 L 49.99 0" fill="#FFFFFF" stroke="none" stroke-width="0.5"/>
  </g>
  <g transform="translate(431.75,456.00) scale(0.3550,0.4000)">
    <path d="M 100 12.9 C 100,2.7 67.4,0 49.99,0 C 32.58,0 0,2.7 0,12.9 L 0 87.5 C 0,97.5 32.72,100 49.99,100 C 67.26,100 100,97.5 100,87.5 L 100 12.9 L 100 12.9 M 94.38 62.9 C 94.38,63.35 92.28,65.6 82.65,67.67 C 71.91,69.71 60.96,70.67 49.99,70.53 C 38.98,70.66 27.98,69.69 17.21,67.62 C 7.58,65.55 5.62,63.3 5.62,62.85 L 5.62 44.5 C 15.67,49.37 37.21,50.85 50.13,50.85 C 63.04,50.85 84.61,49.37 94.66,44.5 L 94.38 62.9 L 94.38 62.9 M 94.38 38.35 C 94.38,38.8 92.28,41.07 82.65,43.12 C 71.91,45.16 60.96,46.12 49.99,45.97 C 38.98,46.11 27.98,45.13 17.21,43.07 C 7.58,41.02 5.62,38.75 5.62,38.3 L 5.62 19.25 C 15.67,24.25 37.21,25.77 50.13,25.77 C 63.04,25.77 84.61,24.27 94.66,19.25 L 94.38 38.35 L 94.38 38.35 M 17.24 7.87 C 28,5.79 38.98,4.83 49.99,5 C 61,4.87 72,5.88 82.76,8 C 92.67,10 94.52,12.5 94.52,12.9 C 94.52,13.3 92.53,15.75 82.76,17.9 C 72,20.02 61,21.03 49.99,20.9 C 38.98,21.04 27.99,20.04 17.24,17.92 C 7.47,15.75 5.62,13.4 5.62,12.9 C 5.62,12.4 7.61,10.02 17.38,7.9 L 17.24 7.87 L 17.24 7.87 M 82.79 92.22 C 72.01,94.29 61.01,95.26 49.99,95.13 C 38.98,95.26 27.98,94.29 17.21,92.22 C 7.58,90.17 5.62,87.9 5.62,87.5 L 5.62 69.05 C 15.67,73.92 37.21,75.4 50.13,75.4 C 63.04,75.4 84.61,73.92 94.66,69.05 L 94.66 87.5 C 94.66,87.95 92.56,90.22 82.93,92.27" fill="#2d5967" stroke="none" stroke-width="0.5"/>
  </g>
  <g transform="translate(408.00,497.00) scale(0.8300,0.4000)">
    <path d="M 0 100 L 100 100 L 100 0 L 0 0 L 0 100" fill="none" stroke="#000000" stroke-width="0.5"/>
  </g>
</svg>