<svg xmlns="http://www.w3.org/2000/svg" viewBox="0 0 84.0 125.00000000000017" width="84" height="125">
  <g transform="translate(1.00,0.00) scale(0.8200,0.8200)">
    <path d="M 5.06 100 C 3.72,100 2.43,99.47 1.48,98.52 C 0.53,97.57 0,96.28 0,94.94 L 0 39.49 C 0.01,38.15 0.54,36.87 1.49,35.93 C 2.44,34.99 3.72,34.46 5.06,34.46 L 17.66 34.46 L 17.66 34.31 L 18.68 32.46 C 20.95,28.77 23.82,25.48 27.17,22.74 L 27.71 22.3 C 28.48,21.67 29.29,21.06 30.14,20.5 C 30.36,20.33 31.06,19.89 31.06,19.89 C 31.68,19.47 32.31,19.08 32.96,18.73 L 34.39 17.95 L 35.39 17.46 C 36.63,16.88 37.82,16.42 38.82,16 L 39.33 15.83 C 43.49,14.32 47.87,13.52 52.3,13.47 C 53.27,13.47 54.29,13.47 55.36,13.47 C 55.44,13.35 55.48,13.21 55.51,13.06 C 55.96,10.68 57.23,8.54 59.1,7 C 60.97,5.45 63.32,4.62 65.75,4.62 C 66.08,4.6 66.41,4.6 66.75,4.62 C 66.97,4.64 67.2,4.61 67.41,4.53 C 67.62,4.45 67.81,4.32 67.96,4.16 C 69.34,2.68 71.05,1.55 72.96,0.88 C 74.86,0.2 76.91,0 78.91,0.29 C 80.91,0.57 82.81,1.34 84.45,2.52 C 86.09,3.71 87.42,5.27 88.32,7.08 C 88.44,7.31 88.6,7.51 88.8,7.67 C 89,7.82 89.24,7.93 89.49,7.98 C 90.98,8.34 92.39,8.96 93.65,9.83 C 96.38,11.56 98.36,14.26 99.18,17.39 C 100,20.52 99.61,23.85 98.08,26.7 L 97.25 28.26 L 82.99 28.26 C 86.32,32.39 88.76,37.15 90.18,42.26 C 91.6,47.37 91.97,52.71 91.26,57.96 C 90.55,63.22 88.78,68.27 86.05,72.82 C 83.33,77.37 79.7,81.31 75.41,84.42 L 75.41 87.26 C 75.41,88.6 74.87,89.89 73.92,90.84 C 72.98,91.79 71.69,92.32 70.35,92.32 L 55.34 92.32 L 55.34 94.94 C 55.34,96.28 54.81,97.56 53.86,98.51 C 52.92,99.46 51.64,99.99 50.3,100 L 5.06 100 L 5.06 100" fill="#FFFFFF" stroke="none" stroke-width="0.5"/>
  </g>
  <g transform="translate(0.00,0.00) scale(0.8400,0.8400)">
    <path d="M 76.65 2.38 C 78.71,2.38 80.72,2.95 82.46,4.04 C 84.21,5.12 85.61,6.68 86.52,8.52 C 86.71,8.9 86.99,9.23 87.33,9.49 C 87.66,9.75 88.05,9.93 88.47,10.02 C 90.18,10.41 91.77,11.18 93.13,12.28 C 94.49,13.39 95.57,14.79 96.3,16.38 C 97.02,17.98 97.37,19.72 97.31,21.47 C 97.25,23.22 96.79,24.94 95.96,26.48 L 95.48 27.36 L 79.72 27.36 C 83.3,31.25 86.02,35.86 87.67,40.89 C 89.33,45.92 89.89,51.25 89.32,56.51 C 88.75,61.78 87.06,66.86 84.37,71.41 C 81.68,75.97 78.04,79.9 73.7,82.93 L 73.7 86.33 C 73.7,87.33 73.31,88.29 72.6,88.99 C 71.9,89.7 70.95,90.1 69.95,90.1 L 54.09 90.1 L 54.09 93.86 C 54.09,94.35 54,94.84 53.82,95.3 C 53.63,95.75 53.35,96.17 53.01,96.52 C 52.66,96.87 52.25,97.14 51.79,97.33 C 51.34,97.52 50.85,97.62 50.36,97.62 L 6.14 97.62 C 5.15,97.62 4.19,97.22 3.49,96.52 C 2.78,95.81 2.39,94.86 2.39,93.86 L 2.39 39.55 C 2.37,39.05 2.46,38.55 2.64,38.08 C 2.83,37.62 3.1,37.19 3.45,36.83 C 3.8,36.48 4.22,36.19 4.68,36 C 5.15,35.81 5.64,35.71 6.14,35.71 L 19.17 35.71 C 19.6,34.86 20.07,34.02 20.57,33.19 L 20.45 33.19 C 22.62,29.69 25.35,26.56 28.54,23.95 L 29.03 23.55 C 29.77,22.96 30.56,22.39 31.41,21.83 L 32.29 21.26 C 32.89,20.88 33.48,20.5 34.08,20.17 L 35.45 19.43 L 36.55 18.88 C 37.57,18.4 38.59,17.98 39.66,17.57 L 40.14 17.4 C 44.05,16.02 48.16,15.29 52.31,15.26 C 53.5,15.26 54.69,15.26 55.85,15.43 C 56.24,15.05 56.51,14.56 56.61,14.02 C 57.01,11.97 58.11,10.12 59.73,8.78 C 61.34,7.45 63.36,6.72 65.45,6.71 L 66.57 6.71 C 66.94,6.72 67.3,6.64 67.63,6.5 C 67.97,6.36 68.27,6.14 68.52,5.88 C 69.56,4.76 70.82,3.88 72.22,3.27 C 73.62,2.67 75.13,2.37 76.65,2.38 L 76.65 2.38 M 76.65 0 C 74.8,0 72.98,0.39 71.28,1.13 C 69.59,1.87 68.07,2.95 66.81,4.31 C 66.78,4.32 66.75,4.33 66.72,4.33 C 66.68,4.33 66.65,4.32 66.62,4.31 C 66.25,4.29 65.88,4.29 65.5,4.31 C 63.92,4.32 62.36,4.64 60.91,5.26 C 59.33,5.97 57.93,7.02 56.82,8.34 C 55.7,9.67 54.9,11.23 54.47,12.9 L 52.36 12.9 C 47.87,12.94 43.43,13.75 39.21,15.29 L 38.88 15.29 L 38.71 15.29 C 37.59,15.71 36.48,16.19 35.41,16.69 L 35.22 16.69 L 34.24 17.17 L 32.79 17.95 C 32.15,18.31 31.51,18.71 30.89,19.12 L 30.65 19.26 L 29.94 19.74 C 29.15,20.26 28.37,20.86 27.56,21.55 L 27.01 21.98 C 23.64,24.79 20.76,28.15 18.48,31.9 L 17.6 33.33 L 6.14 33.33 C 5.33,33.33 4.53,33.49 3.78,33.81 C 3.03,34.12 2.35,34.58 1.78,35.16 C 1.21,35.74 0.76,36.42 0.46,37.17 C 0.15,37.93 0,38.74 0.01,39.55 L 0.01 93.86 C 0.01,95.49 0.66,97.04 1.81,98.19 C 2.96,99.35 4.52,99.99 6.14,100 L 50.36 100 C 51.98,99.99 53.54,99.34 54.68,98.19 C 55.83,97.04 56.47,95.48 56.47,93.86 L 56.47 92.48 L 69.95 92.48 C 71.58,92.48 73.14,91.83 74.28,90.68 C 75.44,89.53 76.08,87.96 76.08,86.33 L 76.08 84.14 C 84.31,77.99 89.82,68.85 91.42,58.69 C 93.03,48.53 90.61,38.14 84.69,29.74 L 96.91 29.74 L 97.48 28.57 L 97.95 27.69 C 99.58,24.63 100,21.06 99.12,17.71 C 98.24,14.35 96.12,11.46 93.2,9.6 C 91.86,8.75 90.39,8.14 88.85,7.79 C 88.78,7.77 88.72,7.74 88.67,7.7 C 88.61,7.66 88.57,7.61 88.54,7.55 C 87.44,5.32 85.75,3.45 83.65,2.13 C 81.55,0.81 79.13,0.11 76.65,0.1 L 76.65 0 L 76.65 0" fill="#FFFFFF" stroke="none" stroke-width="0.5"/>
  </g>
  <g transform="translate(17.00,12.00) scale(0.2600,0.1500)">
    <path d="M 12.8 100 C 21.62,77.81 33.07,59.16 46.39,45.31 C 59.71,31.46 74.58,22.73 90.01,19.71 C 92.69,12.22 96.06,5.56 100,0 C 79.82,0.61 60.05,10.11 42.56,27.6 C 25.07,45.09 10.43,70 0,100 L 12.8 100 L 12.8 100" fill="#2d5967" stroke="none" stroke-width="0.5"/>
  </g>
  <g transform="translate(64.00,25.00) scale(0.1100,0.4300)">
    <path d="M 7.83 0 C 49.41,12.54 71.77,28.96 70.32,45.88 C 68.86,62.81 43.68,78.93 0,90.91 L 0 100 C 52.25,87.94 85.47,70.83 92.74,52.23 C 100,33.64 80.75,15 39.01,0.19 L 7.83 0 L 7.83 0" fill="#2d5967" stroke="none" stroke-width="0.5"/>
  </g>
  <g transform="translate(48.00,36.00) scale(0.1400,0.3900)">
    <path d="M 100 8.04 C 100,5.91 97.69,3.86 93.56,2.36 C 89.44,0.85 83.85,0 78.02,0 L 0 0 L 0 7.18 L 78.02 7.18 C 78.66,7.18 79.28,7.26 79.74,7.43 C 80.21,7.59 80.49,7.81 80.53,8.04 L 80.53 91.96 C 80.53,92.2 80.26,92.44 79.8,92.61 C 79.32,92.78 78.69,92.87 78.02,92.87 L 0 92.87 L 0 100 L 78.02 100 C 83.85,100 89.44,99.15 93.56,97.65 C 97.69,96.14 100,94.09 100,91.96 L 100 8.04 L 100 8.04" fill="#2d5967" stroke="none" stroke-width="0.5"/>
  </g>
  <g transform="translate(48.00,41.00) scale(0.0900,0.0800)">
    <path d="M 0 33.25 L 70.4 33.25 L 70.4 66.75 L 0 66.75 L 0 100 L 100 100 L 100 0 L 0 0 L 0 33.25 L 0 33.25" fill="#2d5967" stroke="none" stroke-width="0.5"/>
  </g>
  <g transform="translate(48.00,52.00) scale(0.0900,0.0800)">
    <path d="M 0 66.75 L 0 100 L 100 100 L 100 0 L 0 0 L 0 33.49 L 70.4 33.49 L 70.4 66.75 L 0 66.75 L 0 66.75" fill="#2d5967" stroke="none" stroke-width="0.5"/>
  </g>
  <g transform="translate(48.00,62.00) scale(0.0900,0.0800)">
    <path d="M 100 0 L 0 0 L 0 33.26 L 70.4 33.26 L 70.4 66.52 L 0 66.52 L 0 100 L 100 100 L 100 0 L 100 0" fill="#2d5967" stroke="none" stroke-width="0.5"/>
  </g>
  <g transform="translate(2.00,30.00) scale(0.4300,0.5200)">
    <path d="M 99.98 6.2 C 100,5.39 99.83,4.59 99.48,3.84 C 99.13,3.09 98.6,2.41 97.93,1.83 C 97.26,1.25 96.45,0.79 95.57,0.48 C 94.68,0.17 93.72,0.01 92.76,0.01 L 7.29 0.01 C 6.32,0 5.36,0.16 4.47,0.47 C 3.58,0.78 2.76,1.24 2.09,1.81 C 1.41,2.39 0.88,3.08 0.52,3.83 C 0.17,4.58 0,5.39 0.02,6.2 L 0.02 93.92 C 0.02,95.54 0.79,97.08 2.15,98.22 C 3.51,99.36 5.36,100 7.29,100 L 92.76 100 C 93.71,100 94.65,99.84 95.53,99.54 C 96.41,99.23 97.21,98.78 97.88,98.22 C 98.55,97.65 99.08,96.98 99.44,96.25 C 99.8,95.51 99.98,94.72 99.98,93.92 L 99.98 6.2 L 99.98 6.2 M 92.76 94.65 L 7.29 94.65 C 7.18,94.65 7.07,94.64 6.97,94.6 C 6.87,94.57 6.78,94.52 6.7,94.45 C 6.63,94.39 6.56,94.31 6.52,94.23 C 6.48,94.14 6.46,94.05 6.46,93.96 L 6.46 6.2 C 6.47,6.02 6.56,5.85 6.72,5.73 C 6.87,5.61 7.07,5.54 7.29,5.54 L 92.76 5.54 C 92.96,5.55 93.16,5.62 93.3,5.75 C 93.44,5.87 93.53,6.03 93.54,6.2 L 93.54 93.92 C 93.54,94.1 93.46,94.27 93.32,94.4 C 93.17,94.53 92.97,94.6 92.76,94.62 L 92.76 94.65 L 92.76 94.65" fill="#2d5967" stroke="none" stroke-width="0.5"/>
  </g>
  <g transform="translate(6.00,35.00) scale(0.3300,0.1200)">
    <path d="M 100 100 L 100 0 L 0 0 L 0 100 L 100 100 L 100 100 M 8.31 22.15 L 91.45 22.15 L 91.45 77.69 L 8.31 77.69 L 8.31 22.15 L 8.31 22.15" fill="#2d5967" stroke="none" stroke-width="0.5"/>
  </g>
  <g transform="translate(33.00,40.00) scale(0.0200,0.0200)">
    <path d="M 49.98 100 C 77.62,100 100,77.62 100,50 C 100,22.39 77.62,0 49.98,0 C 22.38,0 0,22.39 0,50 C 0,77.62 22.38,100 49.98,100 L 49.98 100" fill="#2d5967" stroke="none" stroke-width="0.5"/>
  </g>
  <g transform="translate(6.00,50.00) scale(0.3300,0.1200)">
    <path d="M 48.93 100 L 100 100 L 100 0 L 0 0 L 0 100 L 48.93 100 L 48.93 100 M 8.31 22.15 L 91.45 22.15 L 91.45 77.69 L 8.31 77.69 L 8.31 22.15 L 8.31 22.15" fill="#2d5967" stroke="none" stroke-width="0.5"/>
  </g>
  <g transform="translate(33.00,55.00) scale(0.0200,0.0200)">
    <path d="M 49.98 100 C 77.62,100 100,77.61 100,50 C 100,22.39 77.62,0 49.98,0 C 22.38,0 0,22.39 0,50 C 0,77.61 22.38,100 49.98,100 L 49.98 100" fill="#2d5967" stroke="none" stroke-width="0.5"/>
  </g>
  <g transform="translate(6.00,64.00) scale(0.3300,0.1200)">
    <path d="M 100 100 L 100 0 L 0 0 L 0 100 L 100 100 L 100 100 M 8.31 22.19 L 91.45 22.19 L 91.45 77.81 L 8.31 77.81 L 8.31 22.19 L 8.31 22.19" fill="#2d5967" stroke="none" stroke-width="0.5"/>
  </g>
  <g transform="translate(33.00,69.00) scale(0.0200,0.0200)">
    <path d="M 49.98 100 C 77.62,100 100,77.62 100,50.02 C 100,22.38 77.62,0 49.98,0 C 22.38,0 0,22.38 0,50.02 C 0,77.62 22.38,100 49.98,100 L 49.98 100" fill="#2d5967" stroke="none" stroke-width="0.5"/>
  </g>
  <g transform="translate(41.00,1.00) scale(0.4100,0.2100)">
    <path d="M 88.53 36.92 C 86.29,34.17 83.82,32.18 81.23,31.03 C 80.38,30.67 79.58,29.94 78.89,28.91 C 78.2,27.87 77.64,26.56 77.24,25.05 C 75.62,18.66 73.23,13.13 70.27,8.94 C 67.31,4.76 63.88,2.04 60.26,1.02 C 56.65,0 52.96,0.71 49.51,3.1 C 46.07,5.48 42.97,9.46 40.49,14.7 C 39.92,15.88 39.21,16.79 38.42,17.35 C 37.64,17.91 36.8,18.11 35.97,17.93 C 31.4,17.12 26.85,19.65 23.18,25.02 C 19.51,30.39 16.99,38.21 16.11,46.99 C 15.94,48.62 15.58,50.16 15.07,51.49 C 14.55,52.82 13.9,53.91 13.14,54.69 C 9.54,58.41 6.48,63.85 4.23,70.49 C 1.99,77.13 0.63,84.76 0.29,92.69 L 0 99.91 L 38.11 99.91 C 35.86,96.2 34.03,91.64 32.71,86.51 L 7.79 86.51 C 8.45,82.18 9.54,78.15 11.02,74.65 C 12.49,71.16 14.3,68.28 16.35,66.18 C 18.01,64.47 19.44,62.07 20.56,59.15 C 21.68,56.22 22.46,52.85 22.83,49.27 C 23.19,45.67 23.99,42.29 25.16,39.42 C 26.33,36.54 27.83,34.25 29.54,32.74 C 31.35,31.2 33.32,30.58 35.29,30.94 C 37.17,31.33 39.08,30.85 40.85,29.55 C 42.63,28.25 44.22,26.15 45.51,23.43 C 46.99,20.38 48.78,17.96 50.76,16.32 C 52.75,14.69 54.89,13.87 57.04,13.94 C 59.98,13.94 62.85,15.54 65.35,18.56 C 67.84,21.58 69.85,25.9 71.16,31.03 C 71.99,34.32 73.2,37.2 74.68,39.45 C 76.16,41.7 77.88,43.27 79.72,44.05 C 81.62,44.72 83.43,46.07 85.08,48.04 C 88.27,52.02 90.67,58.03 91.86,65.05 C 93.05,72.08 92.96,79.7 91.6,86.61 L 51.35 86.61 C 49.11,86.56 46.97,84.78 45.41,81.66 C 43.84,78.55 42.96,74.35 42.98,69.98 L 36.12 69.98 C 36.1,77.9 37.7,85.51 40.55,91.14 C 43.41,96.76 47.29,99.95 51.35,100 L 95.59 100 L 96.56 96.49 C 99.3,86.4 100,74.68 98.51,63.64 C 97.02,52.6 93.46,43.07 88.53,36.92 L 88.53 36.92" fill="#2d5967" stroke="none" stroke-width="0.5"/>
  </g>
</svg>