<svg xmlns="http://www.w3.org/2000/svg" viewBox="0 0 84.0 122.00000000000014" width="84" height="122">
  <g transform="translate(13.00,0.00) scale(0.8200,0.7900)">
    <path d="M 90.12 100 L 90.12 99.02 L 54.82 99.02 L 54.82 100 L 45.41 100 L 45.41 99.02 L 9.88 99.02 L 9.88 100 L 0 100 L 0 89.76 L 0.94 89.76 L 0.94 80.73 L 0 80.73 L 0 70.98 L 0.94 70.98 L 0.94 60.98 L 0 60.98 L 0 39.02 L 0.94 39.02 L 0.94 30 L 0 30 L 0 20.24 L 0.94 20.24 L 0.94 10.24 L 0 10.24 L 0 0 L 9.88 0 L 9.88 0.98 L 45.41 0.98 L 45.41 0 L 54.82 0 L 54.82 0.98 L 90.12 0.98 L 90.12 0 L 100 0 L 100 10.24 L 99.06 10.24 L 99.06 20.24 L 100 20.24 L 100 30 L 99.06 30 L 99.06 39.02 L 100 39.02 L 100 60.98 L 99.06 60.98 L 99.06 70.98 L 100 70.98 L 100 80.73 L 99.06 80.73 L 99.06 89.76 L 100 89.76 L 100 100 L 90.12 100 L 90.12 100" fill="#FFFFFF" stroke="none" stroke-width="0.5"/>
  </g>
  <g transform="translate(13.00,0.00) scale(0.8400,0.8100)">
    <path d="M 97.7 2.38 L 97.7 10 L 96.78 10 L 96.78 22.14 L 97.7 22.14 L 97.7 29.29 L 96.78 29.29 L 96.78 40.48 L 97.7 40.48 L 97.7 59.52 L 96.78 59.52 L 96.78 71.43 L 97.7 71.43 L 97.7 78.57 L 96.78 78.57 L 96.78 89.76 L 97.7 89.76 L 97.7 97.62 L 90.35 97.62 L 90.35 96.67 L 53.56 96.67 L 53.56 97.62 L 46.67 97.62 L 46.67 96.67 L 9.88 96.67 L 9.88 97.62 L 2.3 97.62 L 2.3 90 L 3.22 90 L 3.22 78.81 L 2.3 78.81 L 2.3 71.67 L 3.22 71.67 L 3.22 59.52 L 2.3 59.52 L 2.3 40.48 L 3.22 40.48 L 3.22 29.29 L 2.3 29.29 L 2.3 22.14 L 3.22 22.14 L 3.22 10 L 2.3 10 L 2.3 2.38 L 9.65 2.38 L 9.65 3.33 L 46.44 3.33 L 46.44 2.38 L 53.33 2.38 L 53.33 3.33 L 90.12 3.33 L 90.12 2.38 L 97.7 2.38 L 97.7 2.38 M 100 0 L 97.7 0 L 90.35 0 L 88.05 0 L 88.05 0.95 L 55.86 0.95 L 55.86 0 L 53.56 0 L 46.67 0 L 44.37 0 L 44.37 0.95 L 12.18 0.95 L 12.18 0 L 9.88 0 L 2.3 0 L 0 0 L 0 2.38 L 0 10 L 0 12.38 L 0.92 12.38 L 0.92 19.76 L 0 19.76 L 0 22.14 L 0 29.29 L 0 31.67 L 0.92 31.67 L 0.92 38.1 L 0 38.1 L 0 40.48 L 0 59.52 L 0 61.9 L 0.92 61.9 L 0.92 69.05 L 0 69.05 L 0 71.43 L 0 78.57 L 0 80.95 L 0.92 80.95 L 0.92 87.38 L 0 87.38 L 0 89.76 L 0 97.62 L 0 100 L 2.3 100 L 9.65 100 L 11.95 100 L 11.95 99.05 L 44.14 99.05 L 44.14 100 L 46.44 100 L 53.33 100 L 55.63 100 L 55.63 99.05 L 87.82 99.05 L 87.82 100 L 90.12 100 L 97.47 100 L 99.77 100 L 99.77 97.62 L 99.77 90 L 99.77 87.62 L 98.85 87.62 L 98.85 81.19 L 99.77 81.19 L 99.77 78.81 L 99.77 71.67 L 99.77 69.29 L 98.85 69.29 L 98.85 61.9 L 99.77 61.9 L 99.77 59.52 L 99.77 40.48 L 99.77 38.1 L 98.85 38.1 L 98.85 31.67 L 99.77 31.67 L 99.77 29.29 L 99.77 22.14 L 99.77 19.76 L 98.85 19.76 L 98.85 12.38 L 99.77 12.38 L 99.77 10 L 99.77 2.38 L 99.77 0 L 100 0 L 100 0" fill="#FFFFFF" stroke="none" stroke-width="0.5"/>
  </g>
  <g transform="translate(23.00,51.00) scale(0.6100,0.1700)">
    <path d="M 0 100 L 100 100 L 100 0 L 0 0 L 0 100 L 0 100 M 4.73 17.58 L 95.27 17.58 L 95.27 83.52 L 4.73 83.52 L 4.73 17.58 L 4.73 17.58" fill="#2d5967" stroke="none" stroke-width="0.5"/>
  </g>
  <g transform="translate(73.00,58.00) scale(0.0400,0.0400)">
    <path d="M 50 100 C 77.61,100 100,77.61 100,49.99 C 100,22.39 77.61,0 50,0 C 22.39,0 0,22.39 0,49.99 C 0,77.61 22.39,100 50,100 L 50 100" fill="#2d5967" stroke="none" stroke-width="0.5"/>
  </g>
  <g transform="translate(14.00,41.00) scale(0.8000,0.3700)">
    <path d="M 92.51 2.07 L 53.87 2.07 L 53.87 0 L 46.62 0 L 46.62 2.07 L 7.97 2.07 L 7.97 0 L 0 0 L 0 17.1 L 0.97 17.1 L 0.97 43.01 L 0 43.01 L 0 58.55 L 0.97 58.55 L 0.97 82.9 L 0 82.9 L 0 100 L 7.73 100 L 7.73 97.93 L 46.38 97.93 L 46.38 100 L 53.62 100 L 53.62 97.93 L 92.27 97.93 L 92.27 100 L 100 100 L 100 83.42 L 99.03 83.42 L 99.03 59.07 L 100 59.07 L 100 43.52 L 99.03 43.52 L 99.03 17.1 L 100 17.1 L 100 0.52 L 92.27 0.52 L 92.27 2.07 L 92.51 2.07 L 92.51 2.07 M 95.65 43.52 L 94.69 43.52 L 94.69 59.07 L 95.65 59.07 L 95.65 83.42 L 94.69 83.42 L 94.69 88.08 L 92.51 88.08 L 92.51 90.15 L 53.87 90.15 L 53.87 88.08 L 46.62 88.08 L 46.62 90.15 L 7.97 90.15 L 7.97 88.08 L 5.56 88.08 L 5.56 83.42 L 4.59 83.42 L 4.59 59.07 L 5.56 59.07 L 5.56 43.52 L 4.59 43.52 L 4.59 17.1 L 5.56 17.1 L 5.56 11.92 L 7.73 11.92 L 7.73 9.84 L 46.38 9.84 L 46.38 11.92 L 53.62 11.92 L 53.62 9.84 L 92.27 9.84 L 92.27 11.92 L 94.44 11.92 L 94.44 17.1 L 95.41 17.1 L 95.41 43.52 L 95.65 43.52 L 95.65 43.52" fill="#2d5967" stroke="none" stroke-width="0.5"/>
  </g>
  <g transform="translate(23.00,10.00) scale(0.6100,0.1700)">
    <path d="M 0 100 L 100 100 L 100 0 L 0 0 L 0 100 L 0 100 M 4.73 16.67 L 95.27 16.67 L 95.27 83.33 L 4.73 83.33 L 4.73 16.67 L 4.73 16.67" fill="#2d5967" stroke="none" stroke-width="0.5"/>
  </g>
  <g transform="translate(73.00,17.00) scale(0.0400,0.0400)">
    <path d="M 50 100 C 77.61,100 100,77.61 100,50 C 100,22.39 77.61,0 50,0 C 22.39,0 0,22.39 0,50 C 0,77.61 22.39,100 50,100 L 50 100" fill="#2d5967" stroke="none" stroke-width="0.5"/>
  </g>
  <g transform="translate(14.00,1.00) scale(0.8000,0.3700)">
    <path d="M 100 16.67 L 100 0 L 92.29 0 L 92.29 2.08 L 53.74 2.08 L 53.74 0 L 46.51 0 L 46.51 2.08 L 7.95 2.08 L 7.95 0 L 0 0 L 0 16.67 L 0.96 16.67 L 0.96 43.23 L 0 43.23 L 0 58.85 L 0.96 58.85 L 0.96 83.33 L 0 83.33 L 0 100 L 7.71 100 L 7.71 97.92 L 46.26 97.92 L 46.26 100 L 53.49 100 L 53.49 97.92 L 92.05 97.92 L 92.05 100 L 99.76 100 L 99.76 83.33 L 98.79 83.33 L 98.79 58.85 L 99.76 58.85 L 99.76 43.23 L 98.79 43.23 L 98.79 16.67 L 100 16.67 L 100 16.67 M 95.42 43.23 L 94.46 43.23 L 94.46 58.85 L 95.42 58.85 L 95.42 83.33 L 94.46 83.33 L 94.46 88.54 L 92.29 88.54 L 92.29 90.62 L 53.74 90.62 L 53.74 88.54 L 46.51 88.54 L 46.51 90.62 L 7.95 90.62 L 7.95 88.54 L 5.54 88.54 L 5.54 83.33 L 4.58 83.33 L 4.58 58.85 L 5.54 58.85 L 5.54 43.23 L 4.58 43.23 L 4.58 16.67 L 5.54 16.67 L 5.54 11.46 L 7.71 11.46 L 7.71 9.9 L 46.26 9.9 L 46.26 11.98 L 53.49 11.98 L 53.49 9.9 L 92.05 9.9 L 92.05 11.98 L 94.22 11.98 L 94.22 16.67 L 95.18 16.67 L 95.18 43.23 L 95.42 43.23 L 95.42 43.23" fill="#2d5967" stroke="none" stroke-width="0.5"/>
  </g>
</svg>