<svg xmlns="http://www.w3.org/2000/svg" viewBox="0 0 84.0 109" width="84" height="109">
  <g transform="translate(1.00,1.00) scale(0.8200,0.8200)">
    <path d="M 94.71 0 L 5.29 0 C 2.37,0 0,2.37 0,5.29 L 0 94.71 C 0,97.63 2.37,100 5.29,100 L 94.71 100 C 97.63,100 100,97.63 100,94.71 L 100 5.29 C 100,2.37 97.63,0 94.71,0 L 94.71 0" fill="#FFFFFF" stroke="none" stroke-width="0.5"/>
  </g>
  <g transform="translate(0.00,0.00) scale(0.8400,0.8400)">
    <path d="M 93.64 2.38 C 94.7,2.38 95.71,2.8 96.46,3.55 C 97.2,4.29 97.62,5.3 97.62,6.36 L 97.62 93.64 C 97.62,94.7 97.2,95.71 96.46,96.46 C 95.71,97.2 94.7,97.62 93.64,97.62 L 6.36 97.62 C 5.3,97.62 4.29,97.2 3.55,96.46 C 2.8,95.71 2.38,94.7 2.38,93.64 L 2.38 6.36 C 2.38,5.3 2.8,4.29 3.55,3.55 C 4.29,2.8 5.3,2.38 6.36,2.38 L 93.64 2.38 L 93.64 2.38 M 93.64 0 L 6.36 0 C 4.67,0.01 3.06,0.68 1.87,1.87 C 0.68,3.06 0.01,4.67 0,6.36 L 0 93.64 C 0.01,95.33 0.68,96.94 1.87,98.13 C 3.06,99.32 4.67,99.99 6.36,100 L 93.64 100 C 95.33,99.99 96.94,99.32 98.13,98.13 C 99.32,96.94 99.99,95.33 100,93.64 L 100 6.36 C 99.99,4.67 99.32,3.06 98.13,1.87 C 96.94,0.68 95.33,0.01 93.64,0 L 93.64 0 L 93.64 0" fill="#FFFFFF" stroke="none" stroke-width="0.5"/>
  </g>
  <g transform="translate(2.00,2.00) scale(0.8000,0.8000)">
    <path d="M 95.82 0 L 4.18 0 C 3.07,0 2.01,0.44 1.22,1.22 C 0.44,2.01 0,3.07 0,4.17 L 0 95.82 C 0,96.93 0.44,97.99 1.22,98.78 C 2.01,99.56 3.07,100 4.18,100 L 14.6 100 C 13.78,98.93 13.3,97.64 13.23,96.3 L 4.18 96.3 C 4.05,96.29 3.93,96.24 3.85,96.15 C 3.76,96.07 3.71,95.95 3.7,95.82 L 3.7 4.17 C 3.71,4.05 3.76,3.93 3.85,3.85 C 3.93,3.76 4.05,3.71 4.18,3.7 L 95.82 3.7 C 95.95,3.71 96.07,3.76 96.15,3.85 C 96.24,3.93 96.29,4.05 96.3,4.17 L 96.3 95.82 C 96.29,95.95 96.24,96.07 96.15,96.15 C 96.07,96.24 95.95,96.29 95.82,96.3 L 86.78 96.3 C 86.7,97.64 86.22,98.93 85.4,100 L 95.82 100 C 96.93,100 97.99,99.56 98.78,98.78 C 99.56,97.99 100,96.93 100,95.82 L 100 4.17 C 100,3.07 99.56,2.01 98.78,1.22 C 97.99,0.44 96.93,0 95.82,0 L 95.82 0" fill="#2d5967" stroke="none" stroke-width="0.5"/>
  </g>
  <g transform="translate(13.00,13.00) scale(0.1700,0.1500)">
    <path d="M 0 0 L 0 100 C 3.31,91.92 9.05,85.53 16.14,82.03 L 16.14 18.75 L 83.41 18.75 L 83.41 79.04 L 100 79.04 L 100 0 L 0 0 L 0 0" fill="#2d5967" stroke="none" stroke-width="0.5"/>
  </g>
  <g transform="translate(33.00,13.00) scale(0.1700,0.1200)">
    <path d="M 0 0 L 0 100 L 16.67 100 L 16.67 24.22 L 83.33 24.22 L 83.33 100 L 100 100 L 100 0 L 0 0 L 0 0" fill="#2d5967" stroke="none" stroke-width="0.5"/>
  </g>
  <g transform="translate(53.00,13.00) scale(0.1700,0.1500)">
    <path d="M 0 0 L 0 79.97 L 16.14 79.97 L 16.14 18.85 L 83.41 18.85 L 83.41 81.94 C 90.67,85.34 96.58,91.78 100,100 L 100 0 L 0 0 L 0 0" fill="#2d5967" stroke="none" stroke-width="0.5"/>
  </g>
  <g transform="translate(14.00,27.00) scale(0.5400,0.5400)">
    <path d="M 100 93.86 L 100 6.1 C 99.99,4.48 99.34,2.93 98.19,1.78 C 97.04,0.64 95.49,0 93.86,0 L 6.13 0 C 4.51,0 2.96,0.64 1.81,1.78 C 0.66,2.93 0.01,4.48 0,6.1 L 0 93.86 C 0,95.49 0.65,97.05 1.8,98.2 C 2.95,99.35 4.51,100 6.13,100 L 14.29 100 C 13.12,98.42 12.42,96.53 12.27,94.56 L 6.13 94.56 C 5.95,94.56 5.78,94.48 5.65,94.35 C 5.52,94.22 5.44,94.05 5.44,93.86 L 5.44 6.1 C 5.44,5.92 5.52,5.75 5.65,5.63 C 5.78,5.51 5.96,5.44 6.13,5.44 L 93.86 5.44 C 94.04,5.44 94.22,5.51 94.35,5.63 C 94.48,5.75 94.55,5.92 94.56,6.1 L 94.56 93.86 C 94.55,94.05 94.48,94.22 94.35,94.35 C 94.22,94.48 94.05,94.56 93.86,94.56 L 87.73 94.56 C 87.58,96.53 86.88,98.42 85.71,100 L 93.86 100 C 94.67,100 95.47,99.84 96.21,99.53 C 96.96,99.22 97.63,98.77 98.2,98.2 C 98.77,97.63 99.22,96.96 99.53,96.21 C 99.84,95.47 100,94.67 100,93.86 L 100 93.86" fill="#2d5967" stroke="none" stroke-width="0.5"/>
  </g>
  <g transform="translate(23.00,36.00) scale(0.1000,0.0700)">
    <path d="M 0 0 L 0 100 C 8.7,91.76 19.04,86.85 29.84,85.82 L 29.84 38.14 L 70.16 38.14 L 70.16 85.82 L 100 85.82 L 100 0 L 0 0 L 0 0" fill="#2d5967" stroke="none" stroke-width="0.5"/>
  </g>
  <g transform="translate(37.00,36.00) scale(0.1000,0.0600)">
    <path d="M 0 0 L 0 100 L 30.04 100 L 30.04 44.44 L 69.96 44.44 L 69.96 100 L 100 100 L 100 0 L 0 0 L 0 0" fill="#2d5967" stroke="none" stroke-width="0.5"/>
  </g>
  <g transform="translate(50.00,36.00) scale(0.1000,0.0700)">
    <path d="M 0 0 L 0 85.82 L 29.84 85.82 L 29.84 38.14 L 70.16 38.14 L 70.16 85.82 C 80.96,86.85 91.31,91.76 100,100 L 100 0 L 0 0 L 0 0" fill="#2d5967" stroke="none" stroke-width="0.5"/>
  </g>
  <g transform="translate(23.00,45.00) scale(0.3600,0.3600)">
    <path d="M 100 90.89 L 100 9.06 C 100,7.87 99.77,6.69 99.3,5.58 C 98.85,4.48 98.18,3.48 97.33,2.64 C 96.48,1.8 95.48,1.13 94.37,0.68 C 93.27,0.23 92.09,0 90.89,0.01 L 9.11 0.01 C 7.91,0 6.73,0.23 5.63,0.68 C 4.52,1.13 3.52,1.8 2.67,2.64 C 1.82,3.48 1.15,4.48 0.69,5.58 C 0.23,6.69 0,7.87 0,9.06 L 0 90.89 C 0,93.3 0.96,95.62 2.67,97.33 C 4.37,99.04 6.69,100 9.11,100 L 90.89 100 C 93.31,100 95.63,99.04 97.33,97.33 C 99.04,95.62 100,93.3 100,90.89 L 100 90.89 M 8.07 90.89 L 8.07 9.06 C 8.08,8.8 8.2,8.55 8.39,8.36 C 8.59,8.18 8.84,8.08 9.11,8.08 L 90.89 8.08 C 91.16,8.08 91.41,8.18 91.61,8.36 C 91.8,8.55 91.92,8.8 91.93,9.06 L 91.93 90.89 C 91.92,91.16 91.8,91.42 91.61,91.61 C 91.42,91.8 91.17,91.91 90.89,91.93 L 9.11 91.93 C 8.83,91.91 8.58,91.8 8.39,91.61 C 8.2,91.42 8.08,91.16 8.07,90.89 L 8.07 90.89" fill="#2d5967" stroke="none" stroke-width="0.5"/>
  </g>
  <g transform="translate(30.00,69.00) scale(0.2400,0.0600)">
    <path d="M 100 0 L 0 0 L 0 100 L 100 100 L 100 0 L 100 0" fill="#2d5967" stroke="none" stroke-width="0.5"/>
  </g>
  <g transform="translate(30.00,52.00) scale(0.0600,0.0600)">
    <path d="M 100 0 L 0 0 L 0 100 L 100 100 L 100 0 L 100 0" fill="#2d5967" stroke="none" stroke-width="0.5"/>
  </g>
  <g transform="translate(39.00,52.00) scale(0.0600,0.0600)">
    <path d="M 100 0 L 0 0 L 0 100 L 100 100 L 100 0 L 100 0" fill="#2d5967" stroke="none" stroke-width="0.5"/>
  </g>
  <g transform="translate(30.00,60.00) scale(0.0600,0.0600)">
    <path d="M 100 0 L 0 0 L 0 100 L 100 100 L 100 0 L 100 0" fill="#2d5967" stroke="none" stroke-width="0.5"/>
  </g>
  <g transform="translate(39.00,60.00) scale(0.0600,0.0600)">
    <path d="M 100 0 L 0 0 L 0 100 L 100 100 L 100 0 L 100 0" fill="#2d5967" stroke="none" stroke-width="0.5"/>
  </g>
  <g transform="translate(47.00,52.00) scale(0.0600,0.0600)">
    <path d="M 100 0 L 0 0 L 0 100 L 100 100 L 100 0 L 100 0" fill="#2d5967" stroke="none" stroke-width="0.5"/>
  </g>
  <g transform="translate(47.00,60.00) scale(0.0600,0.0600)">
    <path d="M 100 0 L 0 0 L 0 100 L 100 100 L 100 0 L 100 0" fill="#2d5967" stroke="none" stroke-width="0.5"/>
  </g>
  <g transform="translate(7.00,89.00) scale(0.6900,0.2000)">
    <path d="M 0 100 L 100 100 L 100 0 L 0 0 L 0 100" fill="none" stroke="#000000" stroke-width="0.5"/>
  </g>
</svg>