<svg xmlns="http://www.w3.org/2000/svg" viewBox="0 0 97.0 109" width="97" height="109">
  <g transform="translate(7.00,1.00) scale(0.8200,0.8200)">
    <path d="M 5.35 99.76 C 2.43,99.76 0,97.32 0,94.4 L 0 5.35 C 0,2.43 2.43,0 5.35,0 L 94.65 0 C 97.57,0 100,2.43 100,5.35 L 100 94.65 C 100,97.57 97.57,100 94.65,100 L 5.35 99.76 L 5.35 99.76" fill="#FFFFFF" stroke="none" stroke-width="0.5"/>
  </g>
  <g transform="translate(6.00,0.00) scale(0.8400,0.8400)">
    <path d="M 93.35 2.38 C 95.49,2.38 97.39,4.29 97.39,6.43 L 97.39 93.81 C 97.39,95.95 95.49,97.86 93.35,97.86 L 6.41 97.86 C 4.28,97.62 2.38,95.71 2.38,93.57 L 2.38 6.43 C 2.38,4.29 4.28,2.38 6.41,2.38 L 93.35 2.38 L 93.35 2.38 M 93.35 0 L 6.41 0 C 2.85,0 0,2.86 0,6.43 L 0 93.81 C 0,97.14 2.85,100 6.41,100 L 93.59 100 C 97.15,100 100,97.14 100,93.57 L 100 6.43 C 99.76,2.86 96.91,0 93.35,0 L 93.35 0" fill="#FFFFFF" stroke="none" stroke-width="0.5"/>
  </g>
  <g transform="translate(8.00,2.00) scale(0.8000,0.8000)">
    <path d="M 95.51 0 L 4.24 0 C 2,0 0,2 0,4.25 L 0 96 C 0,98 2,100 4.24,100 L 95.76 100 C 98,100 100,98 100,95.75 L 100 4.25 C 99.75,2 97.75,0 95.51,0 L 95.51 0 M 96.01 95.75 C 96.01,96 95.76,96.25 95.51,96.25 L 4.24 96.25 C 3.99,96.25 3.74,96 3.74,95.75 L 3.74 4.25 C 3.74,4 3.99,3.75 4.24,3.75 L 95.76 3.75 C 96.01,3.75 96.26,4 96.26,4.25 L 96.01 95.75 L 96.01 95.75" fill="#2d5967" stroke="none" stroke-width="0.5"/>
  </g>
  <g transform="translate(14.00,30.00) scale(0.4600,0.4600)">
    <path d="M 0 100 L 100 100 L 100 0 L 0 0 L 0 100 L 0 100 M 6.04 6.49 L 93.1 6.49 L 93.1 93.94 L 6.04 93.94 L 6.04 6.49 L 6.04 6.49" fill="#2d5967" stroke="none" stroke-width="0.5"/>
  </g>
  <g transform="translate(19.00,8.00) scale(0.0300,0.0300)">
    <path d="M 100 0 L 0 0 L 0 100 L 100 100 L 100 0 L 100 0" fill="#2d5967" stroke="none" stroke-width="0.5"/>
  </g>
  <g transform="translate(14.00,8.00) scale(0.0300,0.0300)">
    <path d="M 100 0 L 0 0 L 0 100 L 100 100 L 100 0 L 100 0" fill="#2d5967" stroke="none" stroke-width="0.5"/>
  </g>
  <g transform="translate(25.00,8.00) scale(0.0300,0.0300)">
    <path d="M 100 0 L 0 0 L 0 100 L 100 100 L 100 0 L 100 0" fill="#2d5967" stroke="none" stroke-width="0.5"/>
  </g>
  <g transform="translate(31.00,8.00) scale(0.0300,0.0300)">
    <path d="M 100 0 L 0 0 L 0 100 L 100 100 L 100 0 L 100 0" fill="#2d5967" stroke="none" stroke-width="0.5"/>
  </g>
  <g transform="translate(37.00,8.00) scale(0.0300,0.0300)">
    <path d="M 100 0 L 0 0 L 0 100 L 100 100 L 100 0 L 100 0" fill="#2d5967" stroke="none" stroke-width="0.5"/>
  </g>
  <g transform="translate(43.00,8.00) scale(0.0300,0.0300)">
    <path d="M 100 0 L 0 0 L 0 100 L 100 100 L 100 0 L 100 0" fill="#2d5967" stroke="none" stroke-width="0.5"/>
  </g>
  <g transform="translate(49.00,8.00) scale(0.0300,0.0300)">
    <path d="M 100 0 L 0 0 L 0 100 L 100 100 L 100 0 L 100 0" fill="#2d5967" stroke="none" stroke-width="0.5"/>
  </g>
  <g transform="translate(55.00,8.00) scale(0.0300,0.0300)">
    <path d="M 100 0 L 0 0 L 0 100 L 100 100 L 100 0 L 100 0" fill="#2d5967" stroke="none" stroke-width="0.5"/>
  </g>
  <g transform="translate(61.00,8.00) scale(0.0300,0.0300)">
    <path d="M 100 0 L 0 0 L 0 100 L 100 100 L 100 0 L 100 0" fill="#2d5967" stroke="none" stroke-width="0.5"/>
  </g>
  <g transform="translate(67.00,8.00) scale(0.0300,0.0300)">
    <path d="M 100 0 L 0 0 L 0 100 L 100 100 L 100 0 L 100 0" fill="#2d5967" stroke="none" stroke-width="0.5"/>
  </g>
  <g transform="translate(73.00,8.00) scale(0.0300,0.0300)">
    <path d="M 100 0 L 0 0 L 0 100 L 100 100 L 100 0 L 100 0" fill="#2d5967" stroke="none" stroke-width="0.5"/>
  </g>
  <g transform="translate(79.00,8.00) scale(0.0300,0.0300)">
    <path d="M 100 0 L 0 0 L 0 100 L 100 100 L 100 0 L 100 0" fill="#2d5967" stroke="none" stroke-width="0.5"/>
  </g>
  <g transform="translate(79.00,13.00) scale(0.0300,0.0300)">
    <path d="M 100 0 L 0 0 L 0 100 L 100 100 L 100 0 L 100 0" fill="#2d5967" stroke="none" stroke-width="0.5"/>
  </g>
  <g transform="translate(79.00,19.00) scale(0.0300,0.0300)">
    <path d="M 100 0 L 0 0 L 0 100 L 100 100 L 100 0 L 100 0" fill="#2d5967" stroke="none" stroke-width="0.5"/>
  </g>
  <g transform="translate(79.00,25.00) scale(0.0300,0.0300)">
    <path d="M 100 0 L 0 0 L 0 100 L 100 100 L 100 0 L 100 0" fill="#2d5967" stroke="none" stroke-width="0.5"/>
  </g>
  <g transform="translate(79.00,31.00) scale(0.0300,0.0300)">
    <path d="M 100 0 L 0 0 L 0 100 L 100 100 L 100 0 L 100 0" fill="#2d5967" stroke="none" stroke-width="0.5"/>
  </g>
  <g transform="translate(79.00,37.00) scale(0.0300,0.0300)">
    <path d="M 100 0 L 0 0 L 0 100 L 100 100 L 100 0 L 100 0" fill="#2d5967" stroke="none" stroke-width="0.5"/>
  </g>
  <g transform="translate(79.00,43.00) scale(0.0300,0.0300)">
    <path d="M 100 0 L 0 0 L 0 100 L 100 100 L 100 0 L 100 0" fill="#2d5967" stroke="none" stroke-width="0.5"/>
  </g>
  <g transform="translate(79.00,49.00) scale(0.0300,0.0300)">
    <path d="M 100 0 L 0 0 L 0 100 L 100 100 L 100 0 L 100 0" fill="#2d5967" stroke="none" stroke-width="0.5"/>
  </g>
  <g transform="translate(79.00,55.00) scale(0.0300,0.0300)">
    <path d="M 100 0 L 0 0 L 0 100 L 100 100 L 100 0 L 100 0" fill="#2d5967" stroke="none" stroke-width="0.5"/>
  </g>
  <g transform="translate(79.00,61.00) scale(0.0300,0.0300)">
    <path d="M 100 0 L 0 0 L 0 100 L 100 100 L 100 0 L 100 0" fill="#2d5967" stroke="none" stroke-width="0.5"/>
  </g>
  <g transform="translate(79.00,67.00) scale(0.0300,0.0300)">
    <path d="M 100 0 L 0 0 L 0 100 L 100 100 L 100 0 L 100 0" fill="#2d5967" stroke="none" stroke-width="0.5"/>
  </g>
  <g transform="translate(79.00,73.00) scale(0.0300,0.0300)">
    <path d="M 100 0 L 0 0 L 0 100 L 100 100 L 100 0 L 100 0" fill="#2d5967" stroke="none" stroke-width="0.5"/>
  </g>
  <g transform="translate(62.00,13.00) scale(0.1400,0.1400)">
    <path d="M 45.08 21.13 L 63.38 21.13 L 21.13 63.38 L 21.13 45.07 L 0 45.07 L 0 100 L 54.93 100 L 54.93 78.87 L 36.62 78.87 L 78.87 36.62 L 78.87 54.93 L 100 54.93 L 100 0 L 45.08 0 L 45.08 21.13 L 45.08 21.13" fill="#2d5967" stroke="none" stroke-width="0.5"/>
  </g>
  <g transform="translate(19.00,60.00) scale(0.3600,0.1100)">
    <path d="M 0 100 L 100 100 L 100 0 L 0 0 L 0 100 L 0 100 M 7.78 27.28 L 91.11 27.28 L 91.11 74.54 L 7.78 74.54 L 7.78 27.28 L 7.78 27.28" fill="#2d5967" stroke="none" stroke-width="0.5"/>
  </g>
  <g transform="translate(19.00,47.00) scale(0.1000,0.1000)">
    <path d="M 98.08 0 L 0 0 L 0 100 L 100 100 L 98.08 0 L 98.08 0 M 71.15 71.16 L 26.92 71.16 L 26.92 28.85 L 69.23 28.85 L 69.23 71.16 L 71.15 71.16 L 71.15 71.16" fill="#2d5967" stroke="none" stroke-width="0.5"/>
  </g>
  <g transform="translate(31.00,47.00) scale(0.1000,0.1000)">
    <path d="M 100 0 L 0 0 L 0 100 L 100 100 L 100 0 L 100 0 M 71.16 71.16 L 28.84 71.16 L 28.84 28.85 L 71.16 28.85 L 71.16 71.16 L 71.16 71.16" fill="#2d5967" stroke="none" stroke-width="0.5"/>
  </g>
  <g transform="translate(44.00,47.00) scale(0.1000,0.1000)">
    <path d="M 0 100 L 100 100 L 100 0 L 0 0 L 0 100 L 0 100 M 28.84 28.85 L 71.16 28.85 L 71.16 71.16 L 28.84 71.16 L 28.84 28.85 L 28.84 28.85" fill="#2d5967" stroke="none" stroke-width="0.5"/>
  </g>
  <g transform="translate(19.00,35.00) scale(0.1000,0.1000)">
    <path d="M 98.08 0 L 0 0 L 0 100 L 100 100 L 98.08 0 L 98.08 0 M 71.15 71.15 L 26.92 71.15 L 26.92 28.85 L 69.23 28.85 L 69.23 71.15 L 71.15 71.15 L 71.15 71.15" fill="#2d5967" stroke="none" stroke-width="0.5"/>
  </g>
  <g transform="translate(31.00,35.00) scale(0.1000,0.1000)">
    <path d="M 100 0 L 0 0 L 0 100 L 100 100 L 100 0 L 100 0 M 71.16 71.15 L 28.84 71.15 L 28.84 28.85 L 71.16 28.85 L 71.16 71.15 L 71.16 71.15" fill="#2d5967" stroke="none" stroke-width="0.5"/>
  </g>
  <g transform="translate(44.00,35.00) scale(0.1000,0.1000)">
    <path d="M 0 100 L 100 100 L 100 0 L 0 0 L 0 100 L 0 100 M 28.84 28.85 L 71.16 28.85 L 71.16 71.15 L 28.84 71.15 L 28.84 28.85 L 28.84 28.85" fill="#2d5967" stroke="none" stroke-width="0.5"/>
  </g>
  <g transform="translate(0.00,89.00) scale(0.9700,0.2000)">
    <path d="M 0 100 L 100 100 L 100 0 L 0 0 L 0 100" fill="none" stroke="#000000" stroke-width="0.5"/>
  </g>
</svg>