<svg xmlns="http://www.w3.org/2000/svg" viewBox="0 0 108.0 109" width="108" height="109">
  <g transform="translate(14.00,2.00) scale(0.7900,0.7900)">
    <path d="M 43.73 81.72 C 43.55,81.19 43.2,80.73 42.74,80.4 C 42.28,80.08 41.74,79.91 41.17,79.91 C 40.54,79.91 39.92,80.15 39.45,80.58 L 24.99 93.07 L 28.61 74.33 C 28.69,73.94 28.67,73.55 28.58,73.17 C 28.48,72.79 28.3,72.43 28.06,72.13 C 27.81,71.83 27.5,71.58 27.14,71.41 C 26.79,71.25 26.4,71.16 26.01,71.15 L 25.48 71.15 L 6.69 74.81 L 19.23 60.38 C 19.52,60.06 19.73,59.66 19.83,59.24 C 19.93,58.81 19.91,58.37 19.79,57.95 C 19.68,57.52 19.47,57.14 19.17,56.82 C 18.88,56.5 18.5,56.26 18.09,56.12 L 0 49.86 L 18.09 43.63 C 18.51,43.49 18.88,43.25 19.18,42.93 C 19.48,42.61 19.69,42.22 19.81,41.8 C 19.92,41.38 19.93,40.93 19.83,40.51 C 19.73,40.08 19.52,39.69 19.23,39.36 L 6.71 24.93 L 25.5 28.54 C 25.68,28.57 25.86,28.57 26.03,28.54 C 26.43,28.54 26.81,28.45 27.17,28.28 C 27.52,28.1 27.83,27.86 28.08,27.55 C 28.33,27.25 28.51,26.89 28.61,26.51 C 28.71,26.13 28.72,25.73 28.63,25.35 L 25.01 6.67 L 39.48 19.18 C 39.95,19.61 40.56,19.85 41.2,19.86 C 41.76,19.86 42.31,19.68 42.76,19.36 C 43.22,19.04 43.57,18.58 43.75,18.05 L 50 0 L 56.26 18.05 C 56.45,18.58 56.78,19.04 57.24,19.36 C 57.7,19.69 58.24,19.86 58.79,19.86 C 59.45,19.86 60.06,19.62 60.55,19.18 L 75.01 6.7 L 71.39 25.44 C 71.28,25.84 71.27,26.26 71.38,26.67 C 71.47,27.07 71.67,27.45 71.94,27.76 C 72.19,28.06 72.5,28.31 72.85,28.47 C 73.21,28.64 73.6,28.73 73.99,28.73 L 74.5 28.73 L 93.31 25.12 L 80.76 39.53 C 80.48,39.86 80.27,40.25 80.17,40.68 C 80.07,41.1 80.08,41.55 80.19,41.97 C 80.29,42.4 80.52,42.79 80.82,43.11 C 81.11,43.43 81.48,43.67 81.9,43.81 L 100 50.05 L 81.9 56.3 C 81.48,56.44 81.11,56.67 80.8,56.99 C 80.51,57.31 80.29,57.71 80.19,58.13 C 80.07,58.55 80.07,58.99 80.16,59.42 C 80.25,59.84 80.45,60.24 80.75,60.56 L 93.28 75 L 74.5 71.38 L 73.96 71.38 C 73.57,71.39 73.18,71.48 72.82,71.65 C 72.48,71.83 72.17,72.07 71.91,72.38 C 71.66,72.68 71.47,73.03 71.38,73.4 C 71.28,73.78 71.27,74.18 71.36,74.56 L 74.98 93.33 L 60.52 80.82 C 60.05,80.38 59.44,80.15 58.79,80.14 C 58.23,80.14 57.68,80.31 57.23,80.63 C 56.77,80.96 56.42,81.42 56.25,81.95 L 49.97 100 L 43.73 81.72 L 43.73 81.72" fill="#FFFFFF" stroke="none" stroke-width="0.5"/>
  </g>
  <g transform="translate(12.00,0.00) scale(0.8400,0.8400)">
    <path d="M 50 6.78 L 52.64 14.43 L 54.81 20.68 C 55.05,21.39 55.51,22.01 56.13,22.45 C 56.74,22.88 57.46,23.11 58.21,23.11 C 59.08,23.11 59.91,22.8 60.56,22.22 L 65.56 17.89 L 71.68 12.58 L 70.16 20.53 L 68.89 27.03 C 68.79,27.55 68.8,28.09 68.94,28.6 C 69.06,29.11 69.31,29.59 69.64,30 C 69.98,30.4 70.4,30.73 70.88,30.95 C 71.35,31.18 71.88,31.3 72.4,31.3 L 73.09 31.3 L 79.6 30.04 L 87.53 28.5 L 82.24 34.61 L 77.9 39.64 C 77.51,40.08 77.24,40.6 77.11,41.18 C 76.98,41.75 76.99,42.34 77.14,42.91 C 77.29,43.47 77.58,43.99 77.99,44.42 C 78.39,44.85 78.89,45.17 79.44,45.35 L 85.71 47.52 L 93.36 50.16 L 85.71 52.8 L 79.44 54.97 C 78.89,55.16 78.39,55.49 77.99,55.92 C 77.59,56.35 77.3,56.87 77.15,57.43 C 77,58 76.99,58.59 77.13,59.17 C 77.25,59.74 77.53,60.27 77.9,60.71 L 82.24 65.71 L 87.55 71.82 L 79.6 70.31 L 73.09 69.03 C 72.86,69 72.63,69 72.4,69.03 C 71.86,69.03 71.34,69.15 70.85,69.38 C 70.38,69.61 69.95,69.95 69.61,70.36 C 69.28,70.78 69.04,71.26 68.93,71.78 C 68.8,72.3 68.79,72.84 68.9,73.36 L 70.16 79.86 L 71.68 87.78 L 65.59 82.5 L 60.56 78.17 C 59.91,77.6 59.09,77.28 58.24,77.28 C 57.49,77.28 56.75,77.51 56.14,77.94 C 55.54,78.38 55.08,79 54.84,79.71 L 52.66 85.97 L 50.03 93.61 L 47.4 85.97 L 45.23 79.71 C 44.99,78.99 44.54,78.37 43.92,77.94 C 43.31,77.5 42.58,77.27 41.83,77.28 C 40.97,77.28 40.14,77.6 39.5,78.17 L 34.5 82.5 L 28.36 87.81 L 29.9 79.86 L 31.16 73.36 C 31.27,72.84 31.27,72.3 31.15,71.78 C 31.03,71.25 30.79,70.77 30.46,70.35 C 30.12,69.94 29.7,69.6 29.21,69.37 C 28.73,69.14 28.2,69.02 27.67,69.03 L 26.97 69.03 L 20.47 70.28 L 12.53 71.82 L 17.82 65.71 L 22.16 60.69 C 22.54,60.25 22.81,59.72 22.95,59.15 C 23.08,58.58 23.07,57.98 22.92,57.42 C 22.77,56.85 22.48,56.33 22.08,55.9 C 21.68,55.48 21.18,55.16 20.62,54.97 L 14.35 52.8 L 6.63 50.08 L 14.29 47.46 L 20.55 45.29 C 21.11,45.1 21.61,44.78 22.02,44.36 C 22.42,43.93 22.71,43.41 22.86,42.84 C 23.01,42.28 23.02,41.68 22.89,41.11 C 22.76,40.54 22.48,40.01 22.09,39.57 L 17.76 34.57 L 12.45 28.44 L 20.4 29.95 L 26.91 31.21 C 27.14,31.24 27.39,31.24 27.62,31.21 C 28.15,31.2 28.68,31.08 29.15,30.84 C 29.63,30.61 30.05,30.28 30.38,29.86 C 30.72,29.45 30.96,28.97 31.08,28.45 C 31.21,27.94 31.22,27.4 31.11,26.88 L 29.86 20.38 L 28.32 12.45 L 34.43 17.74 L 39.46 22.07 C 40.1,22.63 40.93,22.94 41.78,22.94 C 42.53,22.95 43.26,22.72 43.87,22.29 C 44.48,21.85 44.94,21.24 45.19,20.53 L 47.35 14.27 L 50 6.63 L 50 6.78 L 50 6.78 M 50 0 L 47.94 5.91 L 45.32 13.71 L 43.15 19.97 C 43.05,20.25 42.86,20.49 42.62,20.67 C 42.37,20.84 42.08,20.93 41.78,20.92 C 41.44,20.93 41.12,20.8 40.87,20.58 L 35.86 16.24 L 29.75 10.98 L 25 6.84 L 26.19 13 L 27.73 20.92 L 28.99 27.42 C 29.03,27.62 29.02,27.83 28.97,28.03 C 28.92,28.23 28.82,28.42 28.7,28.58 C 28.57,28.74 28.4,28.87 28.22,28.96 C 28.03,29.05 27.83,29.1 27.62,29.11 L 27.32 29.11 L 20.81 27.85 L 12.88 26.32 L 6.72 25.12 L 10.84 29.85 L 16.13 35.95 L 20.47 40.98 C 20.62,41.15 20.72,41.36 20.77,41.58 C 20.82,41.81 20.81,42.04 20.75,42.26 C 20.7,42.48 20.59,42.69 20.43,42.86 C 20.28,43.03 20.08,43.16 19.86,43.23 L 13.57 45.4 L 5.92 48.04 L 0 50.08 L 5.92 52.13 L 13.57 54.78 L 19.84 56.94 C 20.06,57.01 20.26,57.14 20.42,57.31 C 20.58,57.48 20.69,57.69 20.75,57.92 C 20.81,58.14 20.82,58.38 20.77,58.61 C 20.71,58.83 20.6,59.04 20.45,59.22 L 16.11 64.22 L 10.84 70.33 L 6.7 75.05 L 12.86 73.79 L 20.79 72.26 L 27.3 71 L 27.58 71 C 27.79,71 27.99,71.05 28.18,71.14 C 28.37,71.23 28.53,71.36 28.66,71.52 C 28.8,71.68 28.9,71.87 28.95,72.07 C 28.99,72.27 28.99,72.48 28.95,72.69 L 27.69 79.19 L 26.15 87.14 L 24.98 93.29 L 29.73 89.17 L 35.84 83.89 L 40.87 79.55 C 41.12,79.34 41.43,79.21 41.76,79.21 C 42.06,79.2 42.35,79.29 42.6,79.46 C 42.84,79.64 43.03,79.88 43.13,80.16 L 45.29 86.44 L 47.94 94.09 L 49.98 100 L 52.04 94.13 L 54.68 86.48 L 56.85 80.2 C 56.95,79.93 57.14,79.69 57.39,79.52 C 57.63,79.35 57.91,79.25 58.21,79.25 C 58.55,79.26 58.88,79.39 59.13,79.62 L 64.14 83.95 L 70.25 89.26 L 74.98 93.29 L 73.71 87.2 L 72.18 79.27 L 70.93 72.77 C 70.89,72.57 70.89,72.36 70.94,72.16 C 70.99,71.96 71.09,71.78 71.21,71.62 C 71.35,71.46 71.51,71.32 71.69,71.23 C 71.88,71.14 72.08,71.09 72.29,71.09 L 72.58 71.09 L 79.08 72.34 L 87.04 73.88 L 93.19 75.05 L 89.08 70.33 L 83.78 64.22 L 79.44 59.19 C 79.31,59.02 79.23,58.82 79.19,58.6 C 79.15,58.39 79.16,58.17 79.21,57.96 C 79.28,57.76 79.39,57.56 79.53,57.4 C 79.68,57.24 79.85,57.11 80.05,57.03 L 86.34 54.86 L 94.08 52.13 L 100 50.1 L 94.08 48.04 L 86.43 45.42 L 80.14 43.25 C 79.91,43.18 79.73,43.05 79.56,42.88 C 79.41,42.71 79.3,42.5 79.25,42.28 C 79.19,42.05 79.18,41.82 79.23,41.59 C 79.29,41.36 79.39,41.15 79.55,40.98 L 83.89 35.98 L 89.2 29.87 L 93.24 25.15 L 87.08 26.32 L 79.14 27.85 L 72.64 29.11 L 72.35 29.11 C 72.15,29.11 71.94,29.06 71.75,28.97 C 71.56,28.88 71.4,28.75 71.26,28.59 C 71.14,28.43 71.04,28.24 70.99,28.04 C 70.94,27.84 70.94,27.62 70.99,27.42 L 72.25 20.92 L 73.79 12.97 L 74.95 6.82 L 70.28 10.98 L 64.15 16.24 L 59.13 20.58 C 58.95,20.71 58.75,20.8 58.54,20.84 C 58.33,20.88 58.1,20.87 57.89,20.81 C 57.68,20.75 57.49,20.65 57.33,20.5 C 57.16,20.35 57.04,20.17 56.96,19.97 L 54.79 13.69 L 52.04 6.06 L 50.03 0.15 L 50 0 L 50 0" fill="#FFFFFF" stroke="none" stroke-width="0.5"/>
  </g>
  <g transform="translate(17.00,5.00) scale(0.7300,0.7300)">
    <path d="M 82.17 62.08 C 81.74,61.57 81.42,60.96 81.28,60.3 C 81.12,59.64 81.13,58.96 81.31,58.31 C 81.48,57.65 81.81,57.05 82.27,56.56 C 82.73,56.07 83.31,55.69 83.94,55.47 L 91.18 52.97 L 100 49.93 L 91.18 46.88 L 83.94 44.38 C 83.31,44.17 82.73,43.8 82.27,43.31 C 81.8,42.82 81.47,42.22 81.29,41.56 C 81.12,40.91 81.11,40.23 81.26,39.57 C 81.41,38.91 81.72,38.3 82.17,37.79 L 87.17 32 L 93.27 24.96 L 84.13 26.74 L 76.62 28.18 L 75.83 28.18 C 75.22,28.18 74.62,28.04 74.07,27.79 C 73.52,27.53 73.03,27.15 72.64,26.69 C 72.27,26.21 71.98,25.66 71.84,25.07 C 71.68,24.48 71.66,23.86 71.78,23.27 L 73.25 15.78 L 74.99 6.62 L 67.95 12.81 L 62.18 17.8 C 61.43,18.46 60.47,18.82 59.47,18.82 C 58.61,18.83 57.77,18.56 57.07,18.06 C 56.36,17.55 55.83,16.84 55.55,16.03 L 53.04 8.81 L 50 0 L 46.95 8.81 L 44.45 16.03 C 44.17,16.84 43.64,17.55 42.94,18.05 C 42.23,18.54 41.39,18.81 40.53,18.8 C 39.54,18.8 38.59,18.45 37.85,17.8 L 32.05 12.81 L 25 6.69 L 26.78 15.83 L 28.23 23.32 C 28.35,23.91 28.33,24.53 28.19,25.13 C 28.04,25.72 27.77,26.28 27.39,26.75 C 27,27.23 26.52,27.62 25.97,27.88 C 25.42,28.15 24.81,28.3 24.2,28.31 C 23.93,28.34 23.65,28.34 23.38,28.31 L 15.88 26.86 L 6.7 25.11 L 12.8 32.15 L 17.8 37.92 C 18.25,38.43 18.56,39.03 18.72,39.69 C 18.87,40.35 18.86,41.04 18.68,41.69 C 18.51,42.34 18.17,42.94 17.71,43.43 C 17.25,43.92 16.67,44.29 16.03,44.51 L 8.8 47 L 0 49.9 L 8.82 52.97 L 16.05 55.47 C 16.69,55.68 17.27,56.05 17.73,56.54 C 18.19,57.04 18.53,57.64 18.7,58.29 C 18.87,58.94 18.89,59.62 18.73,60.28 C 18.58,60.94 18.27,61.55 17.83,62.06 L 12.83 67.85 L 6.7 74.89 L 15.85 73.12 L 23.35 71.67 L 24.15 71.67 C 24.77,71.66 25.38,71.8 25.93,72.06 C 26.49,72.33 26.98,72.71 27.37,73.19 C 27.76,73.67 28.03,74.24 28.17,74.84 C 28.31,75.44 28.31,76.06 28.18,76.66 L 26.73 84.15 L 24.95 93.31 L 32.02 87.19 L 37.8 82.2 C 38.54,81.54 39.49,81.18 40.47,81.18 C 41.34,81.17 42.19,81.43 42.9,81.93 C 43.6,82.44 44.13,83.15 44.4,83.97 L 46.9 91.19 L 49.93 100 L 52.97 91.19 L 55.48 83.97 C 55.75,83.16 56.29,82.45 56.99,81.95 C 57.68,81.44 58.54,81.18 59.4,81.18 C 60.39,81.18 61.35,81.54 62.08,82.2 L 67.87 87.19 L 74.89 93.29 L 73.15 84.15 L 71.69 76.66 C 71.56,76.06 71.58,75.44 71.72,74.84 C 71.85,74.24 72.13,73.68 72.52,73.2 C 72.9,72.72 73.39,72.34 73.94,72.07 C 74.5,71.81 75.11,71.67 75.73,71.67 C 75.99,71.64 76.26,71.64 76.52,71.67 L 84.03 73.14 L 93.2 74.89 L 87.07 67.85 L 82.17 62.08 L 82.17 62.08 M 77.17 68.52 C 76.71,68.42 76.23,68.37 75.74,68.37 C 74.66,68.4 73.61,68.67 72.63,69.15 C 71.66,69.63 70.81,70.32 70.14,71.16 C 69.46,72 68.97,72.98 68.7,74.03 C 68.44,75.08 68.41,76.17 68.6,77.23 L 70.05 84.72 L 64.27 79.73 C 63.36,78.94 62.28,78.39 61.1,78.12 C 59.93,77.85 58.71,77.87 57.54,78.19 C 56.37,78.5 55.31,79.09 54.43,79.92 C 53.55,80.74 52.89,81.76 52.5,82.9 L 50 90.11 L 47.5 82.88 C 47.01,81.42 46.07,80.15 44.82,79.26 C 43.57,78.36 42.06,77.88 40.53,77.88 C 38.77,77.88 37.07,78.52 35.75,79.68 L 29.85 84.72 L 31.3 77.23 C 31.51,76.17 31.48,75.08 31.21,74.03 C 30.94,72.98 30.45,72.01 29.76,71.17 C 29.07,70.34 28.21,69.67 27.23,69.2 C 26.25,68.74 25.18,68.5 24.1,68.5 C 23.63,68.49 23.16,68.53 22.7,68.62 L 15.2 70.07 L 20.2 64.3 C 21.02,63.4 21.6,62.31 21.89,61.13 C 22.18,59.94 22.17,58.71 21.87,57.53 C 21.56,56.35 20.96,55.26 20.13,54.37 C 19.3,53.48 18.26,52.81 17.1,52.42 L 9.85 49.93 L 17.07 47.43 C 18.21,47.04 19.23,46.38 20.05,45.5 C 20.87,44.62 21.47,43.56 21.78,42.4 C 22.09,41.25 22.12,40.03 21.85,38.86 C 21.58,37.69 21.04,36.6 20.25,35.7 L 15.25 29.81 L 22.75 31.25 C 23.22,31.35 23.7,31.4 24.18,31.4 C 25.25,31.38 26.3,31.12 27.27,30.65 C 28.24,30.18 29.09,29.5 29.77,28.68 C 30.46,27.85 30.95,26.88 31.23,25.84 C 31.5,24.81 31.55,23.72 31.37,22.67 L 29.92 15.18 L 35.7 20.17 C 37.02,21.34 38.73,21.99 40.5,21.99 C 42.04,21.99 43.54,21.51 44.79,20.62 C 46.05,19.72 46.98,18.46 47.48,17 L 49.97 9.79 L 52.48 17 C 52.99,18.44 53.92,19.7 55.18,20.59 C 56.43,21.48 57.92,21.97 59.44,21.99 C 61.22,21.99 62.92,21.36 64.26,20.19 L 70.05 15.2 L 68.6 22.69 C 68.39,23.75 68.42,24.85 68.7,25.89 C 68.96,26.94 69.45,27.92 70.14,28.75 C 70.83,29.59 71.69,30.26 72.67,30.72 C 73.65,31.18 74.72,31.43 75.8,31.43 C 76.26,31.42 76.74,31.38 77.2,31.3 L 84.85 29.81 L 79.85 35.57 C 79.09,36.49 78.57,37.58 78.32,38.74 C 78.06,39.9 78.09,41.11 78.4,42.26 C 78.71,43.41 79.29,44.47 80.08,45.35 C 80.89,46.23 81.88,46.91 82.99,47.33 L 90.26 49.83 L 82.99 52.32 C 81.87,52.74 80.86,53.42 80.04,54.31 C 79.23,55.2 78.64,56.27 78.34,57.43 C 78.02,58.6 78.01,59.82 78.27,60.99 C 78.53,62.17 79.07,63.26 79.85,64.18 L 84.85 69.97 L 77.17 68.52 L 77.17 68.52" fill="#2d5967" stroke="none" stroke-width="0.5"/>
  </g>
  <g transform="translate(39.00,27.00) scale(0.2900,0.2900)">
    <path d="M 91.17 0 L 9.17 0 C 6.74,0.02 4.42,0.98 2.7,2.69 C 0.99,4.4 0.02,6.72 0,9.14 L 0 90.87 C 0.02,93.28 0.99,95.6 2.7,97.31 C 4.42,99.02 6.74,99.99 9.17,100 L 91.17 100 C 93.52,99.92 95.77,98.92 97.43,97.21 C 99.1,95.51 100,93.24 100,90.87 L 100 9.14 C 100,6.77 99.1,4.49 97.43,2.78 C 95.77,1.08 93.52,0.08 91.17,0 L 91.17 0 M 92.15 90.87 C 92.15,91.13 92.04,91.38 91.86,91.57 C 91.68,91.76 91.42,91.86 91.17,91.86 L 9.17 91.86 C 8.9,91.86 8.63,91.76 8.43,91.58 C 8.24,91.39 8.12,91.14 8.1,90.87 L 8.1 9.14 C 8.11,8.86 8.23,8.6 8.43,8.4 C 8.63,8.2 8.89,8.09 9.17,8.07 L 91.17 8.07 C 91.42,8.09 91.68,8.21 91.86,8.41 C 92.04,8.6 92.15,8.86 92.15,9.14 L 92.15 90.87 L 92.15 90.87" fill="#2d5967" stroke="none" stroke-width="0.5"/>
  </g>
  <g transform="translate(44.00,46.00) scale(0.1900,0.0500)">
    <path d="M 100 0 L 0 0 L 0 100 L 100 100 L 100 0 L 100 0" fill="#2d5967" stroke="none" stroke-width="0.5"/>
  </g>
  <g transform="translate(44.00,32.00) scale(0.0500,0.0500)">
    <path d="M 100 0 L 0 0 L 0 100 L 100 100 L 100 0 L 100 0" fill="#2d5967" stroke="none" stroke-width="0.5"/>
  </g>
  <g transform="translate(51.00,32.00) scale(0.0500,0.0500)">
    <path d="M 100 0 L 0 0 L 0 100 L 100 100 L 100 0 L 100 0" fill="#2d5967" stroke="none" stroke-width="0.5"/>
  </g>
  <g transform="translate(44.00,39.00) scale(0.0500,0.0500)">
    <path d="M 100 0 L 0 0 L 0 100 L 100 100 L 100 0 L 100 0" fill="#2d5967" stroke="none" stroke-width="0.5"/>
  </g>
  <g transform="translate(51.00,39.00) scale(0.0500,0.0500)">
    <path d="M 100 0 L 0 0 L 0 100 L 100 100 L 100 0 L 100 0" fill="#2d5967" stroke="none" stroke-width="0.5"/>
  </g>
  <g transform="translate(58.00,32.00) scale(0.0500,0.0500)">
    <path d="M 100 0 L 0 0 L 0 100 L 100 100 L 100 0 L 100 0" fill="#2d5967" stroke="none" stroke-width="0.5"/>
  </g>
  <g transform="translate(58.00,39.00) scale(0.0500,0.0500)">
    <path d="M 100 0 L 0 0 L 0 100 L 100 100 L 100 0 L 100 0" fill="#2d5967" stroke="none" stroke-width="0.5"/>
  </g>
  <g transform="translate(0.00,89.00) scale(1.0800,0.2000)">
    <path d="M 0 100 L 100 100 L 100 0 L 0 0 L 0 100" fill="none" stroke="#000000" stroke-width="0.5"/>
  </g>
</svg>