<svg xmlns="http://www.w3.org/2000/svg" viewBox="0 0 84.0 109" width="84" height="109">
  <g transform="translate(1.00,1.00) scale(0.8200,0.8200)">
    <path d="M 5.35 99.76 C 2.43,99.76 0,97.32 0,94.4 L 0 5.35 C 0,2.43 2.43,0 5.35,0 L 94.65 0 C 97.57,0 100,2.43 100,5.35 L 100 94.65 C 100,97.57 97.57,100 94.65,100 L 5.35 99.76 L 5.35 99.76" fill="#FFFFFF" stroke="none" stroke-width="0.5"/>
  </g>
  <g transform="translate(0.00,0.00) scale(0.8400,0.8400)">
    <path d="M 93.35 2.38 C 95.49,2.38 97.39,4.29 97.39,6.43 L 97.39 93.81 C 97.39,95.95 95.49,97.86 93.35,97.86 L 6.41 97.86 C 4.27,97.62 2.37,95.71 2.37,93.57 L 2.37 6.43 C 2.37,4.29 4.27,2.38 6.41,2.38 L 93.35 2.38 L 93.35 2.38 M 93.35 0 L 6.41 0 C 2.85,0 0,2.86 0,6.43 L 0 93.81 C 0,97.14 2.85,100 6.41,100 L 93.59 100 C 97.15,100 100,97.14 100,93.57 L 100 6.43 C 99.76,2.86 96.91,0 93.35,0 L 93.35 0" fill="#FFFFFF" stroke="none" stroke-width="0.5"/>
  </g>
  <g transform="translate(2.00,2.00) scale(0.8000,0.8000)">
    <path d="M 95.51 0 L 4.24 0 C 1.99,0 0,2 0,4.25 L 0 96 C 0,98 1.99,100 4.24,100 L 95.76 100 C 98.01,100 100,98 100,95.75 L 100 4.25 C 99.75,2 97.76,0 95.51,0 L 95.51 0 M 96.01 95.75 C 96.01,96 95.76,96.25 95.51,96.25 L 4.24 96.25 C 3.99,96.25 3.74,96 3.74,95.75 L 3.74 4.25 C 3.74,4 3.99,3.75 4.24,3.75 L 95.76 3.75 C 96.01,3.75 96.26,4 96.26,4.25 L 96.01 95.75 L 96.01 95.75" fill="#2d5967" stroke="none" stroke-width="0.5"/>
  </g>
  <g transform="translate(10.00,55.00) scale(0.2200,0.1700)">
    <path d="M 0 100 L 100 100 L 100 0 L 0 0 L 0 100 L 0 100 M 13.27 16.85 L 86.73 16.85 L 86.73 83.15 L 13.27 83.15 L 13.27 16.85 L 13.27 16.85" fill="#2d5967" stroke="none" stroke-width="0.5"/>
  </g>
  <g transform="translate(10.00,10.00) scale(0.6200,0.1700)">
    <path d="M 0 100 L 100 100 L 100 0 L 0 0 L 0 100 L 0 100 M 4.82 16.85 L 95.18 16.85 L 95.18 83.15 L 4.82 83.15 L 4.82 16.85 L 4.82 16.85" fill="#2d5967" stroke="none" stroke-width="0.5"/>
  </g>
  <g transform="translate(10.00,33.00) scale(0.4200,0.1700)">
    <path d="M 100 0 L 0 0 L 0 100 L 99.52 100 L 99.52 0 L 100 0 L 100 0 M 92.86 83.15 L 7.14 83.15 L 7.14 15.73 L 92.86 15.73 L 92.86 83.15 L 92.86 83.15" fill="#2d5967" stroke="none" stroke-width="0.5"/>
  </g>
  <g transform="translate(56.00,34.00) scale(0.1500,0.1400)">
    <path d="M 100 0 L 0 0 L 0 100 L 100 100 L 100 0 L 100 0" fill="#2d5967" stroke="none" stroke-width="0.5"/>
  </g>
  <g transform="translate(56.00,56.00) scale(0.1500,0.1400)">
    <path d="M 100 0 L 0 0 L 0 100 L 100 100 L 100 0 L 100 0" fill="#2d5967" stroke="none" stroke-width="0.5"/>
  </g>
  <g transform="translate(37.00,56.00) scale(0.1500,0.1400)">
    <path d="M 100 0 L 0 0 L 0 100 L 100 100 L 100 0 L 100 0" fill="#2d5967" stroke="none" stroke-width="0.5"/>
  </g>
  <g transform="translate(4.00,89.00) scale(0.7500,0.2000)">
    <path d="M 0 100 L 100 100 L 100 0 L 0 0 L 0 100" fill="none" stroke="#000000" stroke-width="0.5"/>
  </g>
</svg>