<svg xmlns="http://www.w3.org/2000/svg" viewBox="0 0 84.0 109" width="84" height="109">
  <g transform="translate(1.00,1.00) scale(0.8200,0.8200)">
    <path d="M 5.35 99.76 C 2.43,99.76 0,97.32 0,94.4 L 0 5.35 C 0,2.43 2.43,0 5.35,0 L 94.65 0 C 97.57,0 100,2.43 100,5.35 L 100 94.65 C 100,97.57 97.57,100 94.65,100 L 5.35 99.76 L 5.35 99.76" fill="#FFFFFF" stroke="none" stroke-width="0.5"/>
  </g>
  <g transform="translate(0.00,0.00) scale(0.8400,0.8400)">
    <path d="M 93.35 2.38 C 95.49,2.38 97.39,4.29 97.39,6.43 L 97.39 11.9 L 97.39 23.57 L 97.39 93.81 C 97.39,95.95 95.49,97.86 93.35,97.86 L 6.41 97.86 C 4.28,97.62 2.38,95.71 2.38,93.57 L 2.38 23.57 L 2.38 11.9 L 2.38 6.43 C 2.38,4.29 4.28,2.38 6.41,2.38 L 93.35 2.38 L 93.35 2.38 M 93.35 0 L 6.41 0 C 2.85,0 0,2.86 0,6.43 L 0 11.9 L 0 23.57 L 0 93.81 C 0,97.14 2.85,100 6.41,100 L 93.59 100 C 97.15,100 100,97.14 100,93.57 L 100 23.57 L 100 11.9 L 100 6.43 C 99.76,2.86 96.91,0 93.35,0 L 93.35 0" fill="#FFFFFF" stroke="none" stroke-width="0.5"/>
  </g>
  <g transform="translate(43.00,43.00) scale(0.1500,0.1200)">
    <path d="M 74.66 100 L 100 50 L 74.66 0 L 25.33 0 L 0 50 L 25.33 100 L 74.66 100 L 74.66 100 M 37.33 21.88 L 64 21.88 L 77.33 48.44 L 64 76.56 L 37.33 76.56 L 24 50 L 37.33 21.88 L 37.33 21.88" fill="#2d5967" stroke="none" stroke-width="0.5"/>
  </g>
  <g transform="translate(35.00,58.00) scale(0.1200,0.1200)">
    <path d="M 0 50 C 0,78.12 21.87,100 50,100 C 64.06,100 76.56,95.31 85.94,84.37 C 95.32,75 100,62.5 100,50 C 100,21.88 78.13,0 50,0 C 23.44,0 0,21.88 0,50 L 0 50 M 50 23.44 C 64.06,23.44 76.56,35.94 76.56,50 C 76.56,56.25 73.44,64.06 68.75,68.75 C 64.06,73.44 56.25,76.56 50,76.56 C 35.94,76.56 23.44,64.06 23.44,50 C 23.44,34.38 35.94,23.44 50,23.44 L 50 23.44" fill="#2d5967" stroke="none" stroke-width="0.5"/>
  </g>
  <g transform="translate(26.00,41.00) scale(0.1400,0.1300)">
    <path d="M 50 0 L 0 100 L 100 100 L 50 0 L 50 0 M 50 45.59 L 66.22 77.94 L 33.78 77.94 L 50 45.59 L 50 45.59" fill="#2d5967" stroke="none" stroke-width="0.5"/>
  </g>
  <g transform="translate(16.00,18.00) scale(0.5100,0.5700)">
    <path d="M 0 27.97 L 12.84 100 L 87.94 100 L 100 27.97 L 87.55 27.97 L 87.55 17.83 C 87.55,13.64 85.99,10.14 83.27,8.04 C 78.99,4.55 73.15,4.55 71.98,4.89 C 71.59,4.89 70.82,4.89 69.65,4.89 L 69.65 3.15 C 69.65,1.4 68.09,0 66.15,0 L 35.02 0 C 33.07,0 31.52,1.4 31.52,3.15 L 31.52 4.89 C 29.57,4.89 28.02,4.89 26.46,4.89 C 21.79,4.89 18.29,6.29 15.95,8.74 C 12.45,12.24 12.84,17.13 12.84,18.18 L 12.84 27.97 L 0 27.97 L 0 27.97 M 83.27 94.75 L 17.9 94.75 L 7 33.22 L 93.77 33.22 L 83.27 94.75 L 83.27 94.75 M 18.68 17.48 C 18.68,17.48 18.29,13.99 20.23,11.89 C 21.4,10.49 23.74,9.79 26.46,9.79 C 28.02,9.79 29.57,9.79 31.52,9.79 L 31.52 11.89 C 31.52,13.64 33.07,15.03 35.02,15.03 L 66.15 15.03 C 68.09,15.03 69.65,13.64 69.65,11.89 L 69.65 9.79 C 71.21,9.79 71.98,9.79 71.98,9.79 L 72.37 9.79 C 72.37,9.79 76.65,9.44 79.77,11.89 C 81.32,13.29 82.1,15.03 82.1,17.83 L 82.1 27.97 L 18.68 27.97 L 18.68 17.48 L 18.68 17.48" fill="#2d5967" stroke="none" stroke-width="0.5"/>
  </g>
  <g transform="translate(2.00,10.00) scale(0.8000,0.7200)">
    <path d="M 0 95.28 C 0,97.78 2,100 4.24,100 L 95.76 100 C 98,100 100,97.78 100,95.28 L 100 0 L 0 0 L 0 95.28 L 0 95.28 M 3.74 4.17 L 96.01 4.17 L 96.01 95.56 C 96.01,95.83 95.76,96.11 95.51,96.11 L 4.24 96.11 C 3.99,96.11 3.74,95.83 3.74,95.56 L 3.74 4.17 L 3.74 4.17" fill="#2d5967" stroke="none" stroke-width="0.5"/>
  </g>
  <g transform="translate(2.00,2.00) scale(0.8000,0.0500)">
    <path d="M 95.75 0 L 4.25 0 C 2,0 0,27.59 0,58.62 L 0 100 L 100 100 L 100 58.62 C 100,27.59 98,0 95.75,0 L 95.75 0" fill="#2d5967" stroke="none" stroke-width="0.5"/>
  </g>
  <g transform="translate(11.00,89.00) scale(0.6300,0.2000)">
    <path d="M 0 100 L 100 100 L 100 0 L 0 0 L 0 100" fill="none" stroke="#000000" stroke-width="0.5"/>
  </g>
</svg>