<svg xmlns="http://www.w3.org/2000/svg" viewBox="0 0 70.0 125.00000000000001" width="70" height="125">
  <g transform="translate(9.00,0.00) scale(0.5100,0.8200)">
    <path d="M 8.96 100 C 6.58,100 4.3,99.42 2.63,98.38 C 0.95,97.34 0,95.93 0,94.47 L 0 32.27 C 0,30.8 0.95,29.4 2.63,28.36 C 4.3,27.32 6.58,26.74 8.96,26.74 L 30.35 26.74 L 28.18 24.79 C 24.29,21.38 22.73,17.15 23.87,13.04 C 25.01,8.93 28.73,5.26 34.24,2.85 C 38.68,0.98 43.94,0 49.32,0.04 C 53.41,0.04 57.45,0.66 61.05,1.85 C 64.67,3.03 67.77,4.75 70.07,6.84 C 72.98,9.49 74.56,12.61 74.56,15.82 C 74.56,19.02 72.98,22.15 70.07,24.79 L 67.89 26.74 L 91.04 26.74 C 93.42,26.74 95.7,27.32 97.37,28.36 C 99.05,29.4 100,30.8 100,32.27 L 100 94.47 C 100,95.93 99.05,97.34 97.37,98.38 C 95.7,99.42 93.42,100 91.04,100 L 8.96 100 L 8.96 100" fill="#FFFFFF" stroke="none" stroke-width="0.5"/>
  </g>
  <g transform="translate(8.00,0.00) scale(0.5300,0.8400)">
    <path d="M 49.36 2.38 C 52.97,2.4 56.49,2.97 59.68,4.04 C 62.84,5.1 65.55,6.63 67.58,8.5 C 70.19,10.88 71.59,13.7 71.59,16.6 C 71.59,19.49 70.19,22.31 67.58,24.69 L 63.6 28.57 L 89.49 28.57 C 91.28,28.57 92.97,29.02 94.25,29.81 C 95.5,30.6 96.22,31.67 96.22,32.79 L 96.22 93.41 C 96.22,93.96 96.04,94.51 95.7,95.02 C 95.36,95.53 94.86,95.99 94.25,96.39 C 93.61,96.78 92.87,97.09 92.05,97.3 C 91.24,97.51 90.36,97.62 89.49,97.62 L 10.51 97.62 C 9.64,97.62 8.76,97.51 7.95,97.3 C 7.13,97.09 6.39,96.78 5.77,96.39 C 5.14,95.99 4.64,95.53 4.3,95.02 C 3.96,94.51 3.8,93.96 3.8,93.41 L 3.8 32.67 C 3.84,31.57 4.58,30.53 5.83,29.76 C 7.09,29 8.76,28.57 10.51,28.57 L 34.71 28.57 L 30.57 24.69 C 27.14,21.61 25.79,17.81 26.8,14.12 C 27.82,10.42 31.1,7.12 35.96,4.93 C 39.9,3.24 44.58,2.35 49.36,2.38 L 49.36 2.38 M 49.36 0 C 43.93,0.01 38.63,1.05 34.17,2.98 C 28.49,5.53 24.63,9.38 23.46,13.7 C 22.26,18.01 23.84,22.45 27.84,26.05 L 10.51 26.05 C 9.14,26.05 7.77,26.22 6.49,26.55 C 5.2,26.88 4.04,27.37 3.07,27.99 C 2.09,28.6 1.31,29.33 0.8,30.14 C 0.26,30.94 0,31.8 0,32.67 L 0 93.41 C 0,95.15 1.12,96.83 3.09,98.07 C 5.06,99.31 7.73,100 10.51,100 L 89.49 100 C 92.27,100 94.96,99.31 96.93,98.07 C 98.9,96.83 100,95.15 100,93.41 L 100 32.67 C 99.96,30.94 98.83,29.29 96.85,28.08 C 94.88,26.87 92.25,26.19 89.49,26.19 L 70.81 26.19 C 73.86,23.41 75.49,20.12 75.49,16.75 C 75.49,13.38 73.86,10.09 70.81,7.31 C 68.46,5.08 65.27,3.26 61.53,1.98 C 57.79,0.71 53.6,0.03 49.36,0 L 49.36 0 L 49.36 0" fill="#FFFFFF" stroke="none" stroke-width="0.5"/>
  </g>
  <g transform="translate(10.00,24.00) scale(0.4900,0.5800)">
    <path d="M 92.74 0 L 70.58 0 L 66.14 5.24 L 92.74 5.24 C 92.95,5.24 93.17,5.31 93.32,5.44 C 93.47,5.57 93.56,5.75 93.56,5.93 L 93.56 93.9 C 93.56,94.08 93.47,94.26 93.32,94.38 C 93.17,94.51 92.95,94.59 92.74,94.59 L 7.26 94.59 C 7.05,94.59 6.83,94.51 6.68,94.38 C 6.53,94.26 6.44,94.08 6.44,93.9 L 6.44 5.93 C 6.44,5.75 6.53,5.57 6.68,5.44 C 6.83,5.31 7.05,5.24 7.26,5.24 L 31.92 5.24 L 27.56 0 L 7.26 0 C 5.37,0 3.56,0.62 2.2,1.73 C 0.84,2.83 0.04,4.34 0,5.93 L 0 93.9 C 0,94.7 0.17,95.49 0.54,96.23 C 0.91,96.97 1.44,97.65 2.11,98.21 C 2.8,98.78 3.6,99.23 4.48,99.54 C 5.37,99.84 6.31,100 7.26,100 L 92.74 100 C 93.69,100 94.63,99.84 95.52,99.54 C 96.4,99.23 97.2,98.78 97.89,98.21 C 98.56,97.65 99.09,96.97 99.46,96.23 C 99.83,95.49 100,94.7 100,93.9 L 100 5.93 C 99.96,4.34 99.16,2.83 97.8,1.73 C 96.44,0.62 94.63,0 92.74,0 L 92.74 0" fill="#2d5967" stroke="none" stroke-width="0.5"/>
  </g>
  <g transform="translate(15.00,29.00) scale(0.3800,0.1400)">
    <path d="M 0 100 L 100 100 L 100 0 L 66.62 0 L 60.89 22.21 L 91.68 22.21 L 91.68 77.79 L 8.32 77.79 L 8.32 22.21 L 36.75 22.21 L 31.07 0 L 0 0 L 0 100 L 0 100" fill="#2d5967" stroke="none" stroke-width="0.5"/>
  </g>
  <g transform="translate(44.00,35.00) scale(0.0300,0.0300)">
    <path d="M 49.83 100 C 77.41,100 100,77.61 100,50 C 100,22.39 77.41,0 49.83,0 C 22.26,0 0,22.39 0,50 C 0,77.61 22.26,100 49.83,100 L 49.83 100" fill="#2d5967" stroke="none" stroke-width="0.5"/>
  </g>
  <g transform="translate(15.00,46.00) scale(0.3800,0.1400)">
    <path d="M 0 100 L 100 100 L 100 0 L 0 0 L 0 100 L 0 100 M 8.32 22.1 L 91.56 22.1 L 91.56 77.76 L 8.32 77.76 L 8.32 22.1 L 8.32 22.1" fill="#2d5967" stroke="none" stroke-width="0.5"/>
  </g>
  <g transform="translate(44.00,51.00) scale(0.0300,0.0300)">
    <path d="M 49.83 100 C 77.41,100 100,77.6 100,49.99 C 100,22.39 77.41,0 49.83,0 C 22.26,0 0,22.39 0,49.99 C 0,77.6 22.26,100 49.83,100 L 49.83 100" fill="#2d5967" stroke="none" stroke-width="0.5"/>
  </g>
  <g transform="translate(15.00,62.00) scale(0.3800,0.1400)">
    <path d="M 0 100 L 100 100 L 100 0 L 0 0 L 0 100 L 0 100 M 8.32 22.24 L 91.56 22.24 L 91.56 77.76 L 8.32 77.76 L 8.32 22.24 L 8.32 22.24" fill="#2d5967" stroke="none" stroke-width="0.5"/>
  </g>
  <g transform="translate(44.00,68.00) scale(0.0300,0.0300)">
    <path d="M 49.83 100 C 77.41,100 100,77.63 100,50.02 C 100,22.4 77.41,0 49.83,0 C 22.26,0 0,22.4 0,50.02 C 0,77.63 22.26,100 49.83,100 L 49.83 100" fill="#2d5967" stroke="none" stroke-width="0.5"/>
  </g>
  <g transform="translate(21.00,1.00) scale(0.2400,0.3300)">
    <path d="M 51.08 100 L 91.29 56.83 C 96.94,50.77 100,43.59 100,36.24 C 100,28.89 96.94,21.71 91.29,15.65 C 86.84,10.83 80.85,6.88 73.81,4.17 C 66.82,1.46 58.97,0.05 51.08,0.09 C 40.72,0 30.59,2.26 22.04,6.57 C 11.52,12.14 4.4,20.53 2.2,29.94 C 0,39.34 2.93,49 10.35,56.83 L 51.08 100 L 51.08 100 M 80.37 21.28 C 84.51,25.74 86.71,31.02 86.71,36.42 C 86.71,41.82 84.51,47.1 80.37,51.56 L 51.08 83.17 L 21.05 51.44 C 15.49,45.73 13.2,38.62 14.75,31.69 C 16.31,24.75 21.53,18.55 29.25,14.44 C 35.72,11.23 43.31,9.55 51.08,9.6 C 56.77,9.65 62.38,10.73 67.43,12.73 C 72.48,14.74 76.75,17.61 79.94,21.1 L 80.37 21.28 L 80.37 21.28" fill="#2d5967" stroke="none" stroke-width="0.5"/>
  </g>
  <g transform="translate(29.00,9.00) scale(0.1000,0.1000)">
    <path d="M 49.74 99.97 C 59.53,99.94 69,97 77.14,91.54 C 85.27,86.07 91.56,78.33 95.26,69.28 C 98.97,60.23 100,50.28 98.04,40.69 C 96.09,31.1 91.35,22.29 84.45,15.39 C 77.55,8.48 68.69,3.79 59.11,1.89 C 49.54,0 39.55,0.99 30.59,4.74 C 21.52,8.5 13.8,14.84 8.34,22.98 C 2.99,31.12 0,40.68 0,50.47 C 0,56.98 1.34,63.44 3.81,69.46 C 6.28,75.48 9.99,80.94 14.62,85.54 C 19.26,90.14 24.72,93.79 30.69,96.26 C 36.77,98.74 43.25,100 49.74,99.97 L 49.74 99.97 M 49.74 31.8 C 53.55,31.8 57.36,32.95 60.66,35.11 C 63.85,37.27 66.32,40.34 67.87,43.93 C 69.31,47.52 69.72,51.47 69,55.28 C 68.18,59.09 66.32,62.59 63.65,65.34 C 60.87,68.09 57.36,69.96 53.55,70.72 C 49.74,71.47 45.83,71.09 42.22,69.6 C 38.62,68.11 35.53,65.59 33.37,62.36 C 31.2,59.13 30.07,55.33 30.07,51.45 C 30.07,46.24 32.13,41.24 35.84,37.56 C 39.55,33.87 44.49,31.8 49.74,31.8 L 49.74 31.8" fill="#2d5967" stroke="none" stroke-width="0.5"/>
  </g>
  <g transform="translate(0.00,89.00) scale(0.7000,0.3600)">
    <path d="M 0 100 L 100 100 L 100 0 L 0 0 L 0 100" fill="none" stroke="#000000" stroke-width="0.5"/>
  </g>
</svg>