<svg xmlns="http://www.w3.org/2000/svg" viewBox="0 0 90.0 90" width="90" height="90">
  <g transform="translate(4.00,1.00) scale(0.8200,0.4700)">
    <path d="M 49.99 100 C 31.44,100 0,94.66 0,74.78 L 0 27.83 C 0,27.66 0.01,27.49 0.03,27.32 C 0.01,26.99 0.01,26.65 0.03,26.31 C 0,5.51 31.44,0 49.99,0 C 68.56,0 99.99,5.51 99.99,26.1 C 100,26.44 100,26.78 99.99,27.11 C 100,27.35 100,27.59 99.99,27.83 L 99.99 74.74 C 99.99,94.58 68.56,100 49.99,100 L 49.99 100" fill="#FFFFFF" stroke="none" stroke-width="0.5"/>
  </g>
  <g transform="translate(3.00,0.00) scale(0.8400,0.4900)">
    <path d="M 50 4.03 C 72.93,4.03 97.61,11.25 97.61,27.07 C 97.62,27.46 97.62,27.85 97.61,28.24 C 97.62,28.45 97.62,28.67 97.61,28.88 L 97.61 73.74 C 97.61,89.03 72.93,95.96 50,95.96 C 27.08,95.96 2.39,89.03 2.39,73.74 L 2.39 28.72 C 2.39,28.56 2.39,28.4 2.39,28.24 C 2.38,27.9 2.38,27.56 2.39,27.23 C 2.39,11.25 27.08,4.03 50,4.03 L 50 4.03 M 50 0 C 44.89,0 0.01,0.77 0.01,27.07 C 0,27.38 0,27.69 0.01,28 C 0,28.24 0,28.48 0.01,28.72 L 0.01 73.74 C 0.01,98.75 41.65,100 50,100 C 58.36,100 99.99,98.75 99.99,73.74 L 99.99 28.72 C 100,28.48 100,28.24 99.99,28 C 100,27.69 100,27.38 99.99,27.07 C 99.99,0.77 55.13,0 50,0 L 50 0" fill="#FFFFFF" stroke="none" stroke-width="0.5"/>
  </g>
  <g transform="translate(5.00,2.00) scale(0.8000,0.4500)">
    <path d="M 99.99 25.05 C 99.99,7.85 74.07,0 50,0 C 25.93,0 0.03,7.85 0.03,25.05 C 0,25.48 0,25.9 0.03,26.33 C 0,26.56 0,26.8 0.03,27.03 L 0.03 75.82 C 0.03,92.45 25.93,100 50,100 C 74.07,100 99.99,92.45 99.99,75.82 L 99.99 26.85 C 100,26.68 100,26.5 99.99,26.33 C 100,25.9 100,25.48 99.99,25.05 L 99.99 25.05 M 83.15 86 C 72.26,90.07 61.14,92 50,91.75 C 38.87,92 27.76,90.07 16.86,86 C 6.86,81.62 4.72,77.23 4.72,75.82 L 4.72 36.33 C 13.27,45.59 32.2,49.89 50,49.89 C 67.8,49.89 86.75,45.5 95.29,36.33 L 95.29 75.82 C 95.29,77.14 93.04,81.79 83.15,86 L 83.15 86 M 50 8.25 C 61.14,7.99 72.26,10.01 83.12,14.26 C 93.12,18.65 95.29,23.52 95.29,25.05 C 95.29,26.59 93.1,31.42 83.12,35.8 C 72.26,40.06 61.14,42.08 50,41.82 C 38.87,42.08 27.76,40.06 16.89,35.8 C 6.89,31.42 4.72,26.55 4.72,25.05 C 4.72,23.56 6.92,18.65 16.89,14.26 C 27.76,10.01 38.87,7.99 50,8.25 L 50 8.25" fill="#2d5967" stroke="none" stroke-width="0.5"/>
  </g>
  <g transform="translate(0.00,54.00) scale(0.9000,0.3600)">
    <path d="M 0 100 L 100 100 L 100 0 L 0 0 L 0 100" fill="none" stroke="#000000" stroke-width="0.5"/>
  </g>
</svg>