<svg xmlns="http://www.w3.org/2000/svg" viewBox="0 0 89.0 125.00000000000001" width="89" height="125">
  <g transform="translate(3.00,1.00) scale(0.8200,0.8200)">
    <path d="M 5.35 99.76 C 2.43,99.76 0,97.32 0,94.4 L 0 5.35 C 0,2.43 2.43,0 5.35,0 L 94.65 0 C 97.57,0 100,2.43 100,5.35 L 100 94.65 C 100,97.57 97.57,100 94.65,100 L 5.35 99.76 L 5.35 99.76" fill="#FFFFFF" stroke="none" stroke-width="0.5"/>
  </g>
  <g transform="translate(2.00,0.00) scale(0.8400,0.8400)">
    <path d="M 93.35 2.38 C 95.49,2.38 97.39,4.29 97.39,6.43 L 97.39 93.81 C 97.39,95.95 95.49,97.86 93.35,97.86 L 6.41 97.86 C 4.28,97.62 2.38,95.71 2.38,93.57 L 2.38 6.43 C 2.38,4.29 4.28,2.38 6.41,2.38 L 93.35 2.38 L 93.35 2.38 M 93.35 0 L 6.41 0 C 2.85,0 0,2.86 0,6.43 L 0 93.81 C 0,97.14 2.85,100 6.41,100 L 93.59 100 C 97.15,100 100,97.14 100,93.57 L 100 6.43 C 99.76,2.86 96.91,0 93.35,0 L 93.35 0" fill="#FFFFFF" stroke="none" stroke-width="0.5"/>
  </g>
  <g transform="translate(25.00,28.00) scale(0.3700,0.3600)">
    <path d="M 0 50 C 0,77.47 22.28,100 50,100 C 77.72,100 100,77.47 100,50 C 100,22.53 77.72,0 50,0 C 22.28,0 0,22.53 0,50 L 0 50 M 91.85 46.15 L 83.7 46.15 L 83.7 54.4 L 91.85 54.4 C 89.67,74.17 73.92,90.11 53.8,91.76 L 53.8 83.52 L 45.65 83.52 L 45.65 91.76 C 25.54,90.11 9.78,74.17 7.61,54.4 L 15.22 54.4 L 15.22 46.15 L 7.61 46.15 C 9.78,26.37 25.54,10.44 45.65,8.79 L 45.65 15.93 L 53.8 15.93 L 53.8 8.24 C 73.92,10.44 90.22,26.37 91.85,46.15 L 91.85 46.15" fill="#2d5967" stroke="none" stroke-width="0.5"/>
  </g>
  <g transform="translate(16.00,16.00) scale(0.6300,0.3400)">
    <path d="M 45.05 8.82 C 68.37,8.82 87.22,41.76 88.5,82.94 L 85.31 77.06 L 82.11 83.53 L 91.05 100 L 100 83.53 L 96.81 77.06 L 93.29 83.53 C 92.01,37.06 70.93,0 45.05,0 C 25.24,0 7.35,21.76 0,54.71 L 4.47 58.24 C 11.18,28.24 27.16,8.82 45.05,8.82 L 45.05 8.82" fill="#2d5967" stroke="none" stroke-width="0.5"/>
  </g>
  <g transform="translate(43.00,36.00) scale(0.0700,0.1600)">
    <path d="M 38.89 62.2 L 38.89 8.54 C 38.89,3.66 30.55,0 19.45,0 C 8.34,0 0,3.66 0,8.54 L 0 65.85 C 0,68.29 2.79,70.73 5.56,71.95 L 63.89 97.56 C 66.68,98.78 72.23,100 77.79,100 C 83.33,100 88.89,98.78 91.67,97.56 C 100,93.9 100,87.8 91.67,85.37 L 38.89 62.2 L 38.89 62.2" fill="#2d5967" stroke="none" stroke-width="0.5"/>
  </g>
  <g transform="translate(10.00,42.00) scale(0.6200,0.3400)">
    <path d="M 6.41 16.18 C 7.05,62.43 28.53,100 54.81,100 C 75,100 92.63,78.61 100,45.66 L 95.51 42.77 C 88.78,72.83 72.76,91.91 54.81,91.91 C 31.09,91.91 11.86,58.38 11.22,16.76 L 14.74 22.54 L 17.95 16.18 L 8.97 0 L 0 16.18 L 3.21 22.54 L 6.41 16.18 L 6.41 16.18" fill="#2d5967" stroke="none" stroke-width="0.5"/>
  </g>
  <g transform="translate(4.00,10.00) scale(0.8000,0.7200)">
    <path d="M 0 95.28 C 0,97.78 2,100 4.24,100 L 95.76 100 C 98,100 100,97.78 100,95.28 L 100 0 L 0 0 L 0 95.28 L 0 95.28 M 3.74 4.17 L 96.01 4.17 L 96.01 95.56 C 96.01,95.83 95.76,96.11 95.51,96.11 L 4.24 96.11 C 3.99,96.11 3.74,95.83 3.74,95.56 L 3.74 4.17 L 3.74 4.17" fill="#2d5967" stroke="none" stroke-width="0.5"/>
  </g>
  <g transform="translate(4.00,2.00) scale(0.8000,0.0500)">
    <path d="M 95.75 0 L 4.25 0 C 2,0 0,27.59 0,58.62 L 0 100 L 100 100 L 100 58.62 C 100,27.59 98,0 95.75,0 L 95.75 0" fill="#2d5967" stroke="none" stroke-width="0.5"/>
  </g>
  <g transform="translate(0.00,89.00) scale(0.8900,0.3600)">
    <path d="M 0 100 L 100 100 L 100 0 L 0 0 L 0 100" fill="none" stroke="#000000" stroke-width="0.5"/>
  </g>
</svg>