<svg xmlns="http://www.w3.org/2000/svg" viewBox="0 0 118.0 125.00000000000001" width="118" height="125">
  <g transform="translate(18.00,1.00) scale(0.0500,0.7900)">
    <path d="M 100 0 L 0 0 L 0 100 L 100 100 L 100 0 L 100 0" fill="#FFFFFF" stroke="none" stroke-width="0.5"/>
  </g>
  <g transform="translate(18.00,1.00) scale(0.0700,0.8100)">
    <path d="M 72.26 2.43 L 72.26 97.57 L 27.74 97.57 L 27.74 2.43 L 72.26 2.43 L 72.26 2.43 M 100 0 L 72.26 0 L 27.74 0 L 0 0 L 0 2.43 L 0 97.57 L 0 100 L 27.74 100 L 72.26 100 L 100 100 L 100 97.57 L 100 2.43 L 100 0 L 100 0" fill="#FFFFFF" stroke="none" stroke-width="0.5"/>
  </g>
  <g transform="translate(29.00,1.00) scale(0.0500,0.7900)">
    <path d="M 100 0 L 0 0 L 0 100 L 100 100 L 100 0 L 100 0" fill="#FFFFFF" stroke="none" stroke-width="0.5"/>
  </g>
  <g transform="translate(29.00,1.00) scale(0.0700,0.8100)">
    <path d="M 72.15 2.43 L 72.15 97.57 L 27.7 97.57 L 27.7 2.43 L 72.15 2.43 L 72.15 2.43 M 100 0 L 72.15 0 L 27.7 0 L 0 0 L 0 2.43 L 0 97.57 L 0 100 L 27.7 100 L 72.15 100 L 100 100 L 100 97.57 L 100 2.43 L 100 0 L 100 0" fill="#FFFFFF" stroke="none" stroke-width="0.5"/>
  </g>
  <g transform="translate(34.00,1.00) scale(0.1200,0.8000)">
    <path d="M 25.82 76.96 C 0,58.82 0,39.71 27.45,21.81 L 59.64 0 L 100 1.47 L 67.73 23.28 C 41.91,40.44 41.91,58.58 66.09,75.74 L 98.36 98.53 L 56.45 100 L 25.82 76.96 L 25.82 76.96" fill="#FFFFFF" stroke="none" stroke-width="0.5"/>
  </g>
  <g transform="translate(34.00,0.00) scale(0.1400,0.8300)">
    <path d="M 60.85 2.86 L 82.41 3.82 L 56.74 23.87 C 36.48,40.57 36.48,58.47 56.74,75.42 L 82.41 96.42 L 60.85 97.14 L 35.18 76.13 C 14.92,58.71 14.92,40.33 36.48,22.91 L 60.85 2.86 L 60.85 2.86 M 51.33 0 L 48.67 2.39 L 23 22.43 C 1.37,40.1 0,58.95 23,76.61 L 48.67 97.61 L 51.33 100 L 64.89 99.52 L 86.52 98.81 L 100 98.33 L 97.26 95.94 L 71.59 74.94 C 50.04,58.23 50.04,40.81 71.59,24.34 L 97.26 4.3 L 100 1.91 L 86.52 1.43 L 64.89 0.48 L 51.33 0 L 51.33 0" fill="#FFFFFF" stroke="none" stroke-width="0.5"/>
  </g>
  <g transform="translate(39.00,1.00) scale(0.1900,0.8100)">
    <path d="M 40.63 82.04 C 0,61.41 1.06,37.62 41.63,16.99 L 74.99 0 L 100 2.67 L 65.59 19.66 C 28.13,38.59 28.13,60.19 64.59,79.37 L 100 97.33 L 74.99 100 L 40.63 82.04 L 40.63 82.04" fill="#FFFFFF" stroke="none" stroke-width="0.5"/>
  </g>
  <g transform="translate(39.00,0.00) scale(0.2100,0.8400)">
    <path d="M 73.82 3.29 L 87.83 4.94 L 59.8 20.47 C 25.24,39.06 25.24,60.47 58.9,79.29 L 87.83 95.53 L 73.82 97.18 L 44.89 80.94 C 9.38,61.18 9.38,38.59 45.79,19.06 L 73.82 3.29 L 73.82 3.29 M 69.18 0 L 65.44 2.12 L 37.41 17.65 C 0,37.88 0,61.18 36.46,81.65 L 65.44 97.88 L 69.18 100 L 77.56 99.06 L 91.57 97.41 L 100 96.47 L 96.26 94.35 L 67.28 78.12 C 34.56,60 35.51,39.29 68.23,21.41 L 96.26 5.88 L 100 3.76 L 91.57 2.82 L 77.56 1.18 L 69.18 0 L 69.18 0" fill="#FFFFFF" stroke="none" stroke-width="0.5"/>
  </g>
  <g transform="translate(45.00,1.00) scale(0.2300,0.3600)">
    <path d="M 13.23 76.63 C 17.34,69.57 22.32,63.04 28.1,56.52 L 81.83 0 L 100 7.61 L 53.73 57.07 L 52.89 57.61 C 40.49,63.04 28.94,70.65 20.64,78.8 L 0 100 L 13.23 76.63 L 13.23 76.63" fill="#FFFFFF" stroke="none" stroke-width="0.5"/>
  </g>
  <g transform="translate(42.00,0.00) scale(0.2900,0.4600)">
    <path d="M 81.2 6.01 L 90.62 9.87 L 55.05 46.78 C 44.31,51.5 34.92,57.51 28.19,64.38 C 31.55,59.23 34.92,54.08 39.61,48.93 L 81.2 6.01 L 81.2 6.01 M 78.55 0 L 75.18 3.86 L 33.56 46.35 C 28.87,51.5 24.18,56.65 21.49,62.66 L 0 100 L 33.56 66.52 C 40.29,60.09 48.32,54.51 58.38,50.21 L 59.74 49.79 L 60.42 48.93 L 96.63 12.02 L 100 8.15 L 93.95 6.01 L 84.56 2.15 L 78.55 0 L 78.55 0" fill="#FFFFFF" stroke="none" stroke-width="0.5"/>
  </g>
  <g transform="translate(54.00,64.00) scale(0.1500,0.1800)">
    <path d="M 0 0 L 38.76 0 L 100 84.95 L 72.45 100 L 0 0 L 0 0" fill="#FFFFFF" stroke="none" stroke-width="0.5"/>
  </g>
  <g transform="translate(53.00,64.00) scale(0.1900,0.2000)">
    <path d="M 37.09 9.61 L 83.49 78.85 L 69.07 87.5 L 17.5 9.61 L 37.09 9.61 L 37.09 9.61 M 43.31 0 L 38.14 0 L 18.55 0 L 0 0 L 10.29 14.42 L 61.86 92.31 L 66.98 100 L 76.28 95.2 L 90.7 86.54 L 100 81.73 L 92.79 74.04 L 46.4 4.8 L 43.31 0 L 43.31 0" fill="#FFFFFF" stroke="none" stroke-width="0.5"/>
  </g>
  <g transform="translate(47.00,17.00) scale(0.5100,0.4600)">
    <path d="M 20.01 100 L 18.47 98.72 C 6.94,88.03 0,72.65 0,55.56 C 0,25.21 22.31,0 50,0 C 77.69,0 100,24.79 100,55.56 C 100,72.22 93.06,88.03 81.53,98.72 L 79.99 100 L 20.01 100 L 20.01 100" fill="#FFFFFF" stroke="none" stroke-width="0.5"/>
  </g>
  <g transform="translate(47.00,17.00) scale(0.5300,0.4800)">
    <path d="M 50 4.1 C 75.56,4.1 96.3,27.05 96.3,55.33 C 96.3,70.9 90.02,85.25 79.26,95.08 L 78.53 95.9 L 21.49 95.9 L 20.74 95.08 C 10,85.25 3.7,70.9 3.7,55.33 C 3.7,27.05 24.44,4.1 50,4.1 L 50 4.1 M 50 0 C 22.6,0 0,24.59 0,55.33 C 0,72.13 6.66,87.7 18.53,98.36 L 19.26 99.18 L 20.36 100 L 21.85 100 L 78.53 100 L 79.64 100 L 80.74 99.18 L 81.49 98.36 C 93.34,87.7 100,72.13 100,55.33 C 100,25 77.42,0 50,0 L 50 0" fill="#FFFFFF" stroke="none" stroke-width="0.5"/>
  </g>
  <g transform="translate(19.00,2.00) scale(0.0300,0.7700)">
    <path d="M 100 0 L 0 0 L 0 100 L 100 100 L 100 0 L 100 0" fill="#2d5967" stroke="none" stroke-width="0.5"/>
  </g>
  <g transform="translate(30.00,2.00) scale(0.0300,0.7700)">
    <path d="M 100 0 L 0 0 L 0 100 L 100 100 L 100 0 L 100 0" fill="#2d5967" stroke="none" stroke-width="0.5"/>
  </g>
  <g transform="translate(35.00,2.00) scale(0.0900,0.7800)">
    <path d="M 63.93 22.28 L 100 1.01 L 67.98 0 L 32.02 21.27 C 0,39.75 0,59.24 29.99,77.72 L 67.98 100 L 100 99.24 L 62.01 76.96 C 32.02,58.99 32.02,40 63.93,22.28 L 63.93 22.28" fill="#2d5967" stroke="none" stroke-width="0.5"/>
  </g>
  <g transform="translate(40.00,2.00) scale(0.1600,0.7800)">
    <path d="M 64.29 18.34 L 100 1.76 L 82.15 0 L 46.44 16.58 C 0,37.69 0,61.81 45.24,82.66 L 82.15 100 L 100 98.24 L 64.29 81.16 C 20.2,61.06 21.41,38.19 64.29,18.34 L 64.29 18.34" fill="#2d5967" stroke="none" stroke-width="0.5"/>
  </g>
  <g transform="translate(50.00,2.00) scale(0.1800,0.2600)">
    <path d="M 41.94 70.37 L 100 6.67 L 84.97 0 L 18.3 73.33 C 10.79,81.48 4.3,90.37 0,100 C 9.7,88.89 24.73,78.52 41.94,70.37 L 41.94 70.37" fill="#2d5967" stroke="none" stroke-width="0.5"/>
  </g>
  <g transform="translate(55.00,65.00) scale(0.1200,0.1600)">
    <path d="M 100 88.88 L 29.23 0 L 0 0 L 78.49 100 L 100 88.88 L 100 88.88" fill="#2d5967" stroke="none" stroke-width="0.5"/>
  </g>
  <g transform="translate(48.00,18.00) scale(0.4900,0.4400)">
    <path d="M 50 0 C 22.42,0 0,25 0,55.8 C 0,72.77 6.81,88.39 18.4,99.11 L 19.21 100 L 80.4 100 L 81.21 99.11 C 92.81,88.39 99.59,72.77 99.59,55.8 C 100,25 77.6,0 50,0 L 50 0 M 29.61 83.93 L 25.21 79.02 L 17.21 87.5 C 14.82,84.37 13.22,81.25 11.21,78.12 L 21.2 73.66 L 20 70.09 L 18.81 66.52 L 8.82 71.43 C 7.6,67.86 6.81,63.84 6.81,60.27 L 18 60.27 L 18 53.12 L 6.81 53.12 C 7.22,49.11 7.6,45.09 8.82,41.52 L 19.21 46.43 L 20.41 42.86 L 21.61 39.29 L 11.21 34.37 C 12.81,30.8 14.82,27.68 16.8,24.55 L 24.81 33.48 L 29.21 28.57 L 21.2 19.64 C 24.02,16.96 26.81,14.73 30.02,12.95 L 34.42 25 L 40.41 22.32 L 36.02 10.27 C 39.2,8.93 42.4,8.48 46.01,8.04 L 46.01 20.98 L 49.21 20.98 L 52.41 20.98 L 52.41 7.59 C 56.4,8.04 60.01,8.48 63.22,9.82 L 58.8 21.87 L 64.82 24.55 L 69.21 12.5 C 72.4,14.29 75.21,16.52 78.01,19.2 L 69.6 28.57 L 74.4 33.48 L 82.81 24.11 C 85.2,27.23 87.21,30.36 88.81,33.93 L 78.01 38.84 L 80.4 45.54 L 91.2 40.62 C 92.4,44.2 92.81,48.21 93.21,52.23 L 81.6 52.23 L 81.6 55.8 L 81.6 59.37 L 93.21 59.37 C 92.81,63.39 92.4,67.41 91.2,70.98 L 80.81 66.07 L 78.42 72.77 L 88.81 77.68 C 87.21,81.25 85.2,84.37 82.81,87.05 L 74.81 78.12 L 72.4 81.7 L 70 84.37 L 77.6 92.86 L 22.01 92.86 L 29.61 83.93 L 29.61 83.93" fill="#2d5967" stroke="none" stroke-width="0.5"/>
  </g>
  <g transform="translate(67.00,33.00) scale(0.1500,0.1500)">
    <path d="M 15.33 92.21 C 21.77,97.4 28.2,100 35.87,100 C 37.17,100 37.17,100 38.47,100 C 47.43,100 55.1,94.81 60.23,88.31 C 65.37,81.82 67.97,74.03 67.97,64.93 C 67.97,61.04 66.67,55.84 64.07,51.95 L 100 15.58 L 85.9 0 L 48.73 37.66 C 43.6,35.06 38.47,35.06 33.33,35.06 C 24.37,35.06 16.63,40.26 11.5,46.75 C 0,59.74 1.23,80.52 15.33,92.21 L 15.33 92.21 M 42.3 58.44 C 44.83,59.74 46.13,63.64 46.13,66.23 C 46.13,68.83 46.13,72.73 43.6,74.03 C 42.3,76.62 38.47,77.92 35.87,77.92 C 33.33,77.92 29.43,77.92 28.2,75.32 C 25.6,74.03 24.37,70.13 24.37,67.53 C 24.37,64.93 24.37,61.04 26.9,59.74 C 28.2,57.14 32.03,55.84 34.57,55.84 C 34.57,55.84 34.57,55.84 35.87,55.84 C 38.47,55.84 41,57.14 42.3,58.44 L 42.3 58.44" fill="#2d5967" stroke="none" stroke-width="0.5"/>
  </g>
  <g transform="translate(0.00,89.00) scale(1.1800,0.3600)">
    <path d="M 0 100 L 100 100 L 100 0 L 0 0 L 0 100" fill="none" stroke="#000000" stroke-width="0.5"/>
  </g>
</svg>