<svg xmlns="http://www.w3.org/2000/svg" viewBox="0 0 113.0 109" width="113" height="109">
  <g transform="translate(15.00,1.00) scale(0.8200,0.8200)">
    <path d="M 5.35 99.76 C 2.43,99.76 0,97.32 0,94.4 L 0 5.35 C 0,2.43 2.43,0 5.35,0 L 94.65 0 C 97.57,0 100,2.43 100,5.35 L 100 94.65 C 100,97.57 97.57,100 94.65,100 L 5.35 99.76 L 5.35 99.76" fill="#FFFFFF" stroke="none" stroke-width="0.5"/>
  </g>
  <g transform="translate(14.00,0.00) scale(0.8400,0.8400)">
    <path d="M 93.35 2.38 C 95.49,2.38 97.39,4.29 97.39,6.43 L 97.39 8.81 L 97.39 9.29 L 97.39 93.81 C 97.39,95.95 95.49,97.86 93.35,97.86 L 6.41 97.86 C 4.28,97.62 2.38,95.71 2.38,93.57 L 2.38 9.29 L 2.38 8.57 L 2.38 6.19 C 2.38,4.29 4.28,2.38 6.41,2.38 L 93.35 2.38 L 93.35 2.38 M 93.35 0 L 6.41 0 C 2.85,0 0,2.86 0,6.43 L 0 8.81 L 0 9.29 L 0 93.81 C 0,97.14 2.85,100 6.41,100 L 93.59 100 C 97.15,100 100,97.14 100,93.57 L 100 9.29 L 100 8.57 L 100 6.19 C 99.76,2.86 96.91,0 93.35,0 L 93.35 0" fill="#FFFFFF" stroke="none" stroke-width="0.5"/>
  </g>
  <g transform="translate(28.00,19.00) scale(0.2500,0.2400)">
    <path d="M 100 0 L 0 0 L 0 100 L 100 100 L 100 0 L 100 0 M 88 87.71 L 12 87.71 L 12 11.48 L 88 11.48 L 88 87.71 L 88 87.71" fill="#2d5967" stroke="none" stroke-width="0.5"/>
  </g>
  <g transform="translate(58.00,19.00) scale(0.2500,0.2400)">
    <path d="M 100 0 L 0 0 L 0 100 L 100 100 L 100 0 L 100 0 M 88 87.71 L 12 87.71 L 12 11.48 L 88 11.48 L 88 87.71 L 88 87.71" fill="#2d5967" stroke="none" stroke-width="0.5"/>
  </g>
  <g transform="translate(28.00,48.00) scale(0.2500,0.2400)">
    <path d="M 100 0 L 0 0 L 0 100 L 100 100 L 100 0 L 100 0 M 88 88.53 L 12 88.53 L 12 12.3 L 88 12.3 L 88 88.53 L 88 88.53" fill="#2d5967" stroke="none" stroke-width="0.5"/>
  </g>
  <g transform="translate(58.00,48.00) scale(0.2500,0.2400)">
    <path d="M 100 0 L 0 0 L 0 100 L 100 100 L 100 0 L 100 0 M 88 88.53 L 12 88.53 L 12 12.3 L 88 12.3 L 88 88.53 L 88 88.53" fill="#2d5967" stroke="none" stroke-width="0.5"/>
  </g>
  <g transform="translate(16.00,10.00) scale(0.8000,0.7200)">
    <path d="M 0 95.28 C 0,97.78 2,100 4.24,100 L 95.76 100 C 98,100 100,97.78 100,95.28 L 100 0 L 0 0 L 0 95.28 L 0 95.28 M 3.74 4.17 L 96.01 4.17 L 96.01 95.56 C 96.01,95.83 95.76,96.11 95.51,96.11 L 4.24 96.11 C 3.99,96.11 3.74,95.83 3.74,95.56 L 3.74 4.17 L 3.74 4.17" fill="#2d5967" stroke="none" stroke-width="0.5"/>
  </g>
  <g transform="translate(16.00,2.00) scale(0.8000,0.0500)">
    <path d="M 95.75 0 L 4.25 0 C 2,0 0,27.59 0,58.62 L 0 100 L 100 100 L 100 58.62 C 100,27.59 98,0 95.75,0 L 95.75 0" fill="#2d5967" stroke="none" stroke-width="0.5"/>
  </g>
  <g transform="translate(0.00,89.00) scale(1.1300,0.2000)">
    <path d="M 0 100 L 100 100 L 100 0 L 0 0 L 0 100" fill="none" stroke="#000000" stroke-width="0.5"/>
  </g>
</svg>