<svg xmlns="http://www.w3.org/2000/svg" viewBox="0 0 92.0 109" width="92" height="109">
  <g transform="translate(5.00,1.00) scale(0.8200,0.8200)">
    <path d="M 5.35 99.76 C 2.43,99.76 0,97.32 0,94.4 L 0 5.35 C 0,2.43 2.43,0 5.35,0 L 94.65 0 C 97.57,0 100,2.43 100,5.35 L 100 94.65 C 100,97.57 97.57,100 94.65,100 L 5.35 99.76 L 5.35 99.76" fill="#FFFFFF" stroke="none" stroke-width="0.5"/>
  </g>
  <g transform="translate(4.00,0.00) scale(0.8400,0.8400)">
    <path d="M 93.35 2.38 C 95.49,2.38 97.39,4.29 97.39,6.43 L 97.39 93.81 C 97.39,95.95 95.49,97.86 93.35,97.86 L 6.41 97.86 C 4.27,97.62 2.37,95.71 2.37,93.57 L 2.37 6.43 C 2.37,4.29 4.27,2.38 6.41,2.38 L 93.35 2.38 L 93.35 2.38 M 93.35 0 L 6.41 0 C 2.85,0 0,2.86 0,6.43 L 0 93.81 C 0,97.14 2.85,100 6.41,100 L 93.59 100 C 97.15,100 100,97.14 100,93.57 L 100 6.43 C 99.76,2.86 96.91,0 93.35,0 L 93.35 0" fill="#FFFFFF" stroke="none" stroke-width="0.5"/>
  </g>
  <g transform="translate(6.00,10.00) scale(0.8000,0.7200)">
    <path d="M 0 95.28 C 0,97.78 1.99,100 4.24,100 L 95.76 100 C 98.01,100 100,97.78 100,95.28 L 100 0 L 0 0 L 0 95.28 L 0 95.28 M 3.74 4.17 L 96.01 4.17 L 96.01 95.56 C 96.01,95.83 95.76,96.11 95.51,96.11 L 4.24 96.11 C 3.99,96.11 3.74,95.83 3.74,95.56 L 3.74 4.17 L 3.74 4.17" fill="#2d5967" stroke="none" stroke-width="0.5"/>
  </g>
  <g transform="translate(6.00,2.00) scale(0.8000,0.0500)">
    <path d="M 95.75 0 L 4.25 0 C 2,0 0,27.59 0,58.62 L 0 100 L 100 100 L 100 58.62 C 100,27.59 98,0 95.75,0 L 95.75 0" fill="#2d5967" stroke="none" stroke-width="0.5"/>
  </g>
  <g transform="translate(16.00,23.00) scale(0.6000,0.4500)">
    <path d="M 100 18.42 C 100,14.91 97.67,11.84 95.02,11.84 L 40.2 11.84 L 34.88 2.63 C 33.89,0.88 32.56,0 30.9,0 L 4.98 0 C 2.33,0 0,3.07 0,6.58 L 0 100 L 100 100 L 100 18.42 L 100 18.42 M 4.98 6.58 L 30.9 6.58 L 35.88 14.91 L 30.9 23.25 L 4.65 23.25 L 4.98 6.58 C 4.65,6.58 4.65,6.58 4.98,6.58 L 4.98 6.58 M 95.02 93.42 L 4.65 93.42 L 4.65 29.82 L 30.56 29.82 C 32.23,29.82 33.55,28.95 34.55,27.19 L 39.87 17.98 L 94.68 17.98 L 94.68 93.42 L 95.02 93.42 L 95.02 93.42" fill="#2d5967" stroke="none" stroke-width="0.5"/>
  </g>
  <g transform="translate(21.00,28.00) scale(0.1100,0.0300)">
    <path d="M 100 0 L 0 0 L 0 100 L 100 100 L 100 0 L 100 0" fill="#2d5967" stroke="none" stroke-width="0.5"/>
  </g>
  <g transform="translate(0.00,89.00) scale(0.9200,0.2000)">
    <path d="M 0 100 L 100 100 L 100 0 L 0 0 L 0 100" fill="none" stroke="#000000" stroke-width="0.5"/>
  </g>
</svg>