<svg xmlns="http://www.w3.org/2000/svg" viewBox="0 0 90.0 114" width="90" height="114">
  <g transform="translate(10.00,43.00) scale(0.6700,0.2800)">
    <path d="M 5.96 100 C 2.32,100 0,95.03 0,88.82 L 0 0 L 100 0 L 100 88.2 C 100,95.03 97.41,99.38 94.04,99.38 L 5.96 99.38 L 5.96 100 L 5.96 100" fill="#FFFFFF" stroke="none" stroke-width="0.5"/>
  </g>
  <g transform="translate(9.00,43.00) scale(0.6900,0.3000)">
    <path d="M 97.23 5.85 L 97.23 85.96 C 97.23,90.64 95.47,93.57 92.69,93.57 L 7.31 93.57 C 4.53,93.57 2.77,90.64 2.77,85.96 L 2.77 5.85 L 97.23 5.85 L 97.23 5.85 M 99.74 0 L 97.23 0 L 2.52 0 L 0 0 L 0 5.85 L 0 85.96 C 0,94.15 3.02,100 7.31,100 L 92.95 100 C 97.23,100 100,94.15 100,86.55 L 100 5.85 L 99.74 0 L 99.74 0" fill="#FFFFFF" stroke="none" stroke-width="0.5"/>
  </g>
  <g transform="translate(2.00,1.00) scale(0.8500,0.4200)">
    <path d="M 0 99.58 L 0.21 92.92 C 0.83,76.67 5.36,62.08 12.78,54.58 C 14.43,52.92 15.46,50 15.88,46.25 C 17.11,34.58 20.82,25 26.19,20.42 C 28.45,18.33 30.93,17.5 33.4,17.5 C 34.02,17.5 34.43,17.5 35.05,17.5 C 35.26,17.5 35.46,17.5 35.67,17.5 C 37.32,17.5 38.76,16.25 39.79,14.17 C 43.92,5 49.69,0 55.87,0 C 64.12,0 71.75,9.17 75.46,24.58 C 76.29,27.92 77.73,30 79.58,30.83 C 82.06,32.08 84.53,33.75 86.59,36.67 C 96.49,49.17 100,75.42 94.43,96.67 L 93.6 100 L 0 99.58 L 0 99.58" fill="#FFFFFF" stroke="none" stroke-width="0.5"/>
  </g>
  <g transform="translate(2.00,0.00) scale(0.8700,0.4300)">
    <path d="M 55.45 4 C 63.31,4 70.17,12.8 73.79,26.4 C 74.8,30 76.41,32.8 78.43,33.6 C 80.85,34.8 83.06,36.4 85.09,39.2 C 94.36,50.8 97.59,74.8 92.34,94 L 91.74 96 L 2.22 96 L 2.41 91.6 C 3.02,76.4 7.26,63.2 14.11,56.4 C 15.93,54.4 17.34,51.2 17.54,47.2 C 18.55,36.8 22.18,28 27.02,23.6 C 29.03,21.6 31.45,20.8 33.67,20.8 C 34.07,20.8 34.68,20.8 35.28,20.8 C 35.49,20.8 35.68,20.8 35.89,20.8 C 37.7,20.8 39.52,19.2 40.73,16.8 C 44.36,8.8 49.81,4 55.45,4 L 55.45 4 M 55.45 0 C 49.2,0 43.35,5.2 39.12,14.4 C 38.3,16 37.1,17.2 35.89,17.2 C 35.68,17.2 35.49,17.2 35.49,17.2 C 34.88,17.2 34.28,17.2 33.67,17.2 C 31.05,17.2 28.63,18.4 26.21,20.4 C 20.77,25.2 16.73,35.2 15.53,46.8 C 15.32,49.6 14.32,52 13.1,53.2 C 5.64,60.8 1.01,75.2 0.4,91.6 L 0.21 96 L 0 100 L 2.22 100 L 91.94 100 L 93.14 100 L 93.75 98 L 94.36 96 C 100,75.2 96.58,48.8 86.29,36 C 84.08,33.2 81.65,31.2 79.03,30 C 77.63,29.2 76.41,27.6 75.81,24.8 C 71.78,9.6 64.11,0 55.45,0 L 55.45 0" fill="#FFFFFF" stroke="none" stroke-width="0.5"/>
  </g>
  <g transform="translate(10.00,44.00) scale(0.6600,0.2600)">
    <path d="M 0 91.39 C 0,96.69 2.12,100 5.04,100 L 95.23 100 C 98.15,100 100,96.69 100,91.39 L 100 0 L 0 0 L 0 91.39 L 0 91.39 M 5.3 13.25 L 94.7 13.25 L 94.7 86.75 L 5.3 86.75 L 5.3 13.25 L 5.3 13.25" fill="#2d5967" stroke="none" stroke-width="0.5"/>
  </g>
  <g transform="translate(61.00,54.00) scale(0.0500,0.0500)">
    <path d="M 50.09 100 C 77.7,100 100,77.61 100,50 C 100,22.39 77.7,0 50.09,0 C 22.48,0 0,22.39 0,50 C 0,77.61 22.48,100 50.09,100 L 50.09 100" fill="#2d5967" stroke="none" stroke-width="0.5"/>
  </g>
  <g transform="translate(3.00,1.00) scale(0.8300,0.4000)">
    <path d="M 86.9 38.26 C 84.77,35.65 82.46,33.48 79.91,32.17 C 77.8,31.3 75.9,28.26 75.05,24.35 C 71.46,9.57 64.06,0 55.81,0 C 49.9,0 44.19,5.22 40.17,13.91 C 38.69,16.96 36.58,18.7 34.45,18.26 C 31.5,17.83 28.54,18.7 26.01,21.3 C 20.93,26.09 17.12,35.65 16.07,46.96 C 15.65,51.3 14.38,54.78 12.47,56.96 C 5.5,64.78 0.84,79.13 0.2,95.22 L 0 100 L 13.74 100 L 40.38 100 C 38.69,97.83 37.42,94.78 36.15,91.3 L 13.1 91.3 L 4.64 91.3 C 5.71,80 9.3,70 14.38,64.78 C 17.33,61.3 19.66,55.65 20.29,48.7 C 21.15,40 23.89,33.04 27.9,29.13 C 30.03,27.39 32.14,26.52 34.45,26.96 C 37.84,27.83 41.22,25.22 43.55,20 C 46.72,12.61 51.37,8.7 56.23,8.7 C 62.79,8.7 68.72,16.09 71.67,28.26 C 73.16,34.78 76.11,39.13 79.49,40.43 C 81.4,41.3 83.3,43.04 85.2,45.22 C 92.81,54.78 95.56,74.78 91.96,91.3 L 50.1 91.3 C 44.82,91.3 40.38,82.17 40.38,70.87 L 36.15 70.87 C 36.15,86.96 42.49,100 50.1,100 L 93.87 100 L 94.5 97.83 C 100,76.96 96.62,50.43 86.9,38.26 L 86.9 38.26" fill="#2d5967" stroke="none" stroke-width="0.5"/>
  </g>
  <g transform="translate(0.00,78.00) scale(0.9000,0.3600)">
    <path d="M 0 100 L 100 100 L 100 0 L 0 0 L 0 100" fill="none" stroke="#000000" stroke-width="0.5"/>
  </g>
</svg>