<svg xmlns="http://www.w3.org/2000/svg" viewBox="0 0 114.0 109" width="114" height="109">
  <g transform="translate(16.00,1.00) scale(0.8200,0.8200)">
    <path d="M 5.35 99.76 C 2.43,99.76 0,97.32 0,94.4 L 0 5.35 C 0,2.43 2.43,0 5.35,0 L 94.65 0 C 97.57,0 100,2.43 100,5.35 L 100 94.65 C 100,97.57 97.57,100 94.65,100 L 5.35 99.76 L 5.35 99.76" fill="#FFFFFF" stroke="none" stroke-width="0.5"/>
  </g>
  <g transform="translate(15.00,0.00) scale(0.8400,0.8400)">
    <path d="M 93.35 2.38 C 95.49,2.38 97.39,4.29 97.39,6.43 L 97.39 93.81 C 97.39,95.95 95.49,97.86 93.35,97.86 L 6.41 97.86 C 4.27,97.62 2.37,95.71 2.37,93.57 L 2.37 6.43 C 2.37,4.29 4.27,2.38 6.41,2.38 L 93.35 2.38 L 93.35 2.38 M 93.35 0 L 6.41 0 C 2.85,0 0,2.86 0,6.43 L 0 93.81 C 0,97.14 2.85,100 6.41,100 L 93.59 100 C 97.15,100 100,97.14 100,93.57 L 100 6.43 C 99.76,2.86 96.91,0 93.35,0 L 93.35 0" fill="#FFFFFF" stroke="none" stroke-width="0.5"/>
  </g>
  <g transform="translate(55.00,19.00) scale(0.2800,0.2500)">
    <path d="M 68.75 11.29 L 87.5 49.19 L 68.75 87.1 L 31.25 87.1 L 12.5 49.19 L 31.25 11.29 L 68.75 11.29 L 68.75 11.29 M 75 0 L 25 0 L 0 50 L 25 100 L 75 100 L 100 50 L 75 0 L 75 0" fill="#2d5967" stroke="none" stroke-width="0.5"/>
  </g>
  <g transform="translate(43.00,48.00) scale(0.2400,0.2500)">
    <path d="M 50 11.29 C 70.97,11.29 87.9,28.22 87.9,49.19 C 87.9,70.16 70.97,87.1 50,87.1 C 29.03,87.1 12.1,70.16 12.1,49.19 C 12.1,28.22 29.03,11.29 50,11.29 L 50 11.29 M 50 0 C 22.58,0 0,22.58 0,50 C 0,77.42 22.58,100 50,100 C 77.42,100 100,77.42 100,50 C 100,21.77 77.42,0 50,0 L 50 0" fill="#2d5967" stroke="none" stroke-width="0.5"/>
  </g>
  <g transform="translate(28.00,19.00) scale(0.2700,0.2500)">
    <path d="M 49.63 24.19 L 81.75 87.9 L 18.25 87.9 L 49.63 24.19 L 49.63 24.19 M 49.63 0 L 0 100 L 100 100 L 49.63 0 L 49.63 0" fill="#2d5967" stroke="none" stroke-width="0.5"/>
  </g>
  <g transform="translate(17.00,10.00) scale(0.8000,0.7200)">
    <path d="M 95.75 100 L 4.25 100 C 2,100 0,97.78 0,95.28 L 0 0 L 100 0 L 100 95.28 C 100,97.78 98,100 95.75,100 L 95.75 100 M 3.75 4.17 L 3.75 95.55 C 3.75,95.83 4,96.11 4.25,96.11 L 96 96.11 C 96.25,96.11 96.5,95.83 96.5,95.55 L 96.5 4.17 L 3.75 4.17 L 3.75 4.17" fill="#2d5967" stroke="none" stroke-width="0.5"/>
  </g>
  <g transform="translate(17.00,2.00) scale(0.8000,0.0500)">
    <path d="M 100 100 L 0 100 L 0 58.62 C 0,27.59 2,0 4.25,0 L 96 0 C 98,0 100,27.59 100,58.62 L 100 100 L 100 100" fill="#2d5967" stroke="none" stroke-width="0.5"/>
  </g>
  <g transform="translate(0.00,89.00) scale(1.1400,0.2000)">
    <path d="M 0 100 L 100 100 L 100 0 L 0 0 L 0 100" fill="none" stroke="#000000" stroke-width="0.5"/>
  </g>
</svg>