<svg xmlns="http://www.w3.org/2000/svg" viewBox="0 0 87.0 84.0000000000001" width="87" height="84">
  <g transform="translate(10.00,1.00) scale(0.8500,0.4200)">
    <path d="M 0 100 L 0.47 92.86 C 0.94,76.67 5.67,62.38 13,54.76 C 14.66,53.33 15.6,50 15.84,46.67 C 17.02,35.24 20.8,25.24 26.24,20.48 C 28.6,18.57 30.97,17.62 33.57,17.62 C 34.04,17.62 34.75,17.62 35.22,17.62 C 35.46,17.62 35.7,17.62 35.7,17.62 C 37.35,17.62 38.53,16.19 39.72,14.29 C 43.97,5.24 49.65,0 55.79,0 C 64.07,0 71.63,9.52 75.41,24.29 C 76.12,27.62 77.54,29.52 79.43,30.48 C 82.03,31.43 84.4,33.81 86.52,36.19 C 96.45,49.05 100,75.24 94.33,96.19 L 93.38 99.52 L 0 100 L 0 100" fill="#FFFFFF" stroke="none" stroke-width="0.5"/>
  </g>
  <g transform="translate(9.00,0.00) scale(0.8700,0.4400)">
    <path d="M 55.66 4.55 C 63.51,4.55 70.44,13.18 73.9,26.82 C 74.83,30.45 76.44,33.18 78.52,34.09 C 80.83,35 83.14,36.82 85.22,39.55 C 94.46,50.91 97.69,75 92.38,93.64 L 91.92 95.45 L 50.35 95.45 L 15.7 95.45 L 2.54 95.45 L 2.77 91.36 C 3.23,76.36 7.62,63.64 14.32,56.36 C 16.17,54.55 17.32,51.36 17.78,47.27 C 18.71,36.82 22.4,28.18 27.25,23.64 C 29.33,21.82 31.64,20.91 33.72,20.91 C 34.18,20.91 34.64,20.91 35.33,20.91 C 35.57,20.91 35.8,20.91 36.03,20.91 C 37.88,20.91 39.49,19.55 40.88,16.82 C 44.57,9.09 50.12,4.55 55.66,4.55 L 55.66 4.55 M 55.66 0 C 49.42,0 43.42,5 39.03,14.09 C 38.34,15.91 37.18,16.82 36.03,16.82 C 35.8,16.82 35.8,16.82 35.57,16.82 C 35.1,16.82 34.41,16.82 33.72,16.82 C 31.18,16.82 28.64,17.73 26.1,20 C 20.79,24.55 16.63,34.55 15.47,46.36 C 15.24,49.09 14.32,51.36 13.16,52.27 C 5.77,60 0.92,74.55 0.23,90.91 L 0 95 L 0 100 L 2.54 100 L 15.47 100 L 50.12 100 L 91.69 100 L 93.07 100 L 93.76 97.73 L 94.23 95.91 C 100,75 96.54,48.64 86.14,35.91 C 83.83,33.18 81.52,30.91 78.75,30 C 77.37,29.55 76.21,27.73 75.75,25.45 C 72.05,9.55 64.43,0 55.66,0 L 55.66 0" fill="#FFFFFF" stroke="none" stroke-width="0.5"/>
  </g>
  <g transform="translate(47.00,16.00) scale(0.0200,0.1600)">
    <path d="M 100 0 L 0 0 L 0 100 L 100 100 L 100 0 L 100 0" fill="#2d5967" stroke="none" stroke-width="0.5"/>
  </g>
  <g transform="translate(51.00,16.00) scale(0.0300,0.1600)">
    <path d="M 100 0 L 0 0 L 0 100 L 100 100 L 100 0 L 100 0" fill="#2d5967" stroke="none" stroke-width="0.5"/>
  </g>
  <g transform="translate(58.00,16.00) scale(0.0100,0.1600)">
    <path d="M 100 0 L 0 0 L 0 100 L 100 100 L 100 0 L 100 0" fill="#2d5967" stroke="none" stroke-width="0.5"/>
  </g>
  <g transform="translate(61.00,16.00) scale(0.0400,0.1600)">
    <path d="M 100 0 L 0 0 L 0 100 L 100 100 L 100 0 L 100 0" fill="#2d5967" stroke="none" stroke-width="0.5"/>
  </g>
  <g transform="translate(37.00,16.00) scale(0.0100,0.1600)">
    <path d="M 100 0 L 0 0 L 0 100 L 100 100 L 100 0 L 100 0" fill="#2d5967" stroke="none" stroke-width="0.5"/>
  </g>
  <g transform="translate(11.00,1.00) scale(0.8200,0.4000)">
    <path d="M 87.1 38.31 C 84.92,35.82 82.48,33.83 80.05,32.34 C 77.86,31.34 76.16,28.36 75.18,24.38 C 71.53,9.45 64.23,0 55.96,0 C 50.12,0 44.28,4.98 40.15,13.93 C 38.69,16.92 36.74,18.91 34.55,18.41 C 31.63,17.91 28.71,18.91 26.03,21.39 C 20.92,25.87 17.03,35.32 16.06,46.77 C 15.57,51.24 14.36,54.73 12.41,56.72 C 5.35,64.18 0.73,78.61 0.24,95.03 L 0 100 L 13.63 100 L 40.39 100 C 38.69,97.51 37.47,95.03 36.25,91.54 L 13.14 91.54 L 4.62 91.54 C 5.6,80.1 9.25,70.15 14.36,64.68 C 17.52,61.19 19.47,55.72 20.19,48.76 C 20.92,40.3 23.84,32.84 27.74,29.35 C 29.68,27.36 32.12,26.87 34.31,27.36 C 37.71,27.86 40.88,25.37 43.31,20.4 C 46.47,13.43 51.09,8.96 55.96,8.96 C 62.53,8.96 68.37,16.42 71.29,28.36 C 72.75,34.83 75.67,39.3 79.08,40.8 C 81.02,41.79 82.97,43.28 84.67,45.27 C 92.21,54.73 94.89,74.63 91.48,91.05 L 50.12 91.05 C 44.77,91.05 40.15,82.09 40.15,70.65 L 40.15 37.81 L 36.01 37.81 L 36.01 71.15 C 36.01,87.07 42.34,100 50.12,100 L 93.92 100 L 94.4 98.01 C 100,77.12 96.84,50.75 87.1,38.31 L 87.1 38.31" fill="#2d5967" stroke="none" stroke-width="0.5"/>
  </g>
</svg>