<svg xmlns="http://www.w3.org/2000/svg" viewBox="0 0 84.0 124.0000000000001" width="84" height="124">
  <g transform="translate(0.00,1.00) scale(0.8200,0.8100)">
    <path d="M 50 100 C 41.02,100 33.25,93.83 30.83,84.94 L 29.37 84.94 C 27.43,91.36 21.6,95.8 15.05,95.8 C 6.8,95.8 0,88.89 0,80.49 C 0,72.1 7.04,65.43 15.29,65.43 C 19.17,65.43 23.06,67.16 25.73,69.88 L 25.73 60 C 25.73,53.58 30.83,48.4 37.14,48.4 L 38.59 48.4 L 38.59 44.94 C 36.89,43.21 35.68,41.23 34.95,39.01 L 12.62 39.01 L 12.86 36.05 C 13.35,29.63 16.99,23.95 22.57,20.99 C 23.79,20.49 24.51,19.26 24.76,18.27 C 25.73,13.83 28.64,9.88 32.77,7.9 C 34.47,7.16 36.41,6.67 38.35,6.67 C 38.84,6.67 39.32,6.67 39.56,6.67 C 39.81,6.67 39.81,6.67 40.05,6.67 C 41.02,6.67 42.23,6.17 42.96,5.43 C 46.12,1.98 50.73,0 55.58,0 C 62.14,0 67.96,3.7 70.87,9.63 C 71.36,10.86 72.57,11.6 73.79,11.85 C 75.73,12.35 77.67,13.09 79.37,14.07 C 87.14,19.01 89.81,29.38 85.44,37.53 L 84.71 39.01 L 65.53 39.01 C 64.56,41.23 63.35,43.46 61.41,45.19 L 61.41 48.4 L 63.11 48.4 C 69.42,48.4 74.51,53.58 74.51,60 L 74.51 68.89 C 77.18,66.17 81.07,64.44 84.95,64.44 C 93.2,64.44 100,71.36 100,79.75 C 100,88.15 93.2,95.06 84.95,95.06 C 78.64,95.06 73.06,91.11 70.87,85.19 L 69.17 85.19 C 66.99,93.83 58.98,100 50,100 L 50 100" fill="#FFFFFF" stroke="none" stroke-width="0.5"/>
  </g>
  <g transform="translate(0.00,0.00) scale(0.8400,0.8300)">
    <path d="M 55.11 2.4 C 61.05,2.4 66.27,5.77 68.88,11.06 C 69.6,12.5 70.78,13.46 72.45,13.94 C 74.35,14.42 76.01,15.14 77.44,16.11 C 84.56,20.67 86.94,29.81 82.9,37.26 L 82.42 37.98 L 68.88 37.98 L 65.8 37.98 L 63.42 37.98 C 62.71,40.62 61.05,42.79 59.15,44.71 L 59.15 49.52 L 62 49.52 C 67.46,49.52 71.97,54.09 71.97,59.62 L 71.97 71.63 C 74.35,67.79 78.62,65.14 83.37,65.14 C 90.74,65.14 96.91,71.15 96.91,78.85 C 96.91,86.54 90.97,92.55 83.37,92.55 C 77.2,92.55 72.21,88.46 70.55,82.93 L 67.22 82.93 C 65.56,91.35 58.19,97.6 49.41,97.6 C 40.62,97.6 33.49,91.35 31.59,82.93 L 28.27 82.93 C 26.84,88.94 21.62,93.51 15.2,93.51 C 7.84,93.51 1.66,87.5 1.66,79.81 C 1.66,72.36 7.6,66.11 15.2,66.11 C 20.19,66.11 24.47,68.75 26.84,72.84 L 26.84 59.62 C 26.84,54.09 31.35,49.52 36.82,49.52 L 39.43 49.52 L 39.43 44.47 C 37.53,42.79 36.1,40.62 35.39,38.22 L 14.01 38.22 L 14.25 36.54 C 14.73,30.77 18.05,25.72 23.04,22.84 C 24.47,22.12 25.42,20.67 25.65,19.23 C 26.37,15.14 29.22,11.78 32.78,10.1 C 34.44,9.37 36.1,9.13 37.77,9.13 C 38.24,9.13 38.48,9.13 38.96,9.13 C 39.19,9.13 39.19,9.13 39.43,9.13 C 40.86,9.13 42.04,8.65 42.99,7.45 C 46.79,4.33 50.83,2.4 55.11,2.4 L 55.11 2.4 M 55.11 0 C 50.12,0 45.37,2.16 42.04,5.77 C 41.57,6.25 40.86,6.49 40.14,6.49 L 39.91 6.49 C 39.43,6.49 38.96,6.49 38.48,6.49 C 36.34,6.49 34.44,6.97 32.54,7.69 C 28.03,9.62 24.94,13.7 23.99,18.51 C 23.75,19.47 23.28,20.19 22.57,20.67 C 16.63,23.8 12.83,29.57 12.35,36.06 L 12.11 37.74 L 11.88 40.38 L 14.49 40.38 L 34.2 40.38 C 34.92,42.31 36.1,43.99 37.53,45.43 L 37.53 47.12 L 37.29 47.12 C 30.4,47.12 24.94,52.88 24.94,59.62 L 24.94 66.59 C 22.33,64.9 19,63.7 15.92,63.7 C 7.13,63.7 0,70.91 0,79.81 C 0,88.7 7.13,95.91 15.92,95.91 C 22.57,95.91 28.27,91.83 30.64,85.82 C 33.49,94.23 41.33,100 50.12,100 C 59.15,100 66.98,93.99 69.6,85.58 C 72.21,91.35 77.67,95.19 84.09,95.19 C 92.87,95.19 100,87.98 100,79.09 C 100,70.19 92.87,62.98 84.09,62.98 C 80.76,62.98 77.67,63.94 75.06,65.86 L 75.06 59.86 C 75.06,52.88 69.36,47.36 62.71,47.36 L 62.23 47.36 L 62.23 45.67 C 63.66,44.23 64.85,42.31 65.8,40.38 L 66.51 40.38 L 69.6 40.38 L 83.14 40.38 L 84.56 40.38 L 85.27 39.18 L 85.75 38.46 C 90.26,30.05 87.41,19.23 79.33,14.18 C 77.44,12.98 75.54,12.26 73.63,11.78 C 72.68,11.54 71.97,11.06 71.73,10.34 C 68.17,3.85 62,0 55.11,0 L 55.11 0" fill="#FFFFFF" stroke="none" stroke-width="0.5"/>
  </g>
  <g transform="translate(12.00,2.00) scale(0.6100,0.2900)">
    <path d="M 4.56 91.22 C 5.54,79.73 9.12,70.27 14.33,64.19 C 17.26,60.81 19.54,54.73 20.19,47.97 C 21.17,39.19 23.78,31.76 27.69,28.38 C 29.64,26.35 31.92,25.68 34.2,26.35 C 37.79,27.03 41.04,24.32 43.32,19.59 C 46.58,12.16 51.14,8.11 56.03,8.11 C 62.54,8.11 68.4,15.54 71.34,27.7 C 72.96,33.78 75.57,38.51 79.15,39.86 C 81.11,40.54 83.06,42.57 84.69,44.59 C 92.18,54.05 95.11,74.32 91.21,90.54 L 71.66 90.54 C 71.66,93.24 71.34,96.62 71.01,99.32 L 93.81 99.32 L 94.46 97.3 C 100,76.35 96.42,50 86.97,37.84 C 84.69,35.14 82.41,33.11 80.13,31.76 C 77.85,31.08 76.22,27.7 75.24,23.65 C 71.01,9.46 63.52,0 55.37,0 C 49.51,0 43.65,5.41 39.74,14.19 C 38.44,17.57 36.16,18.92 34.2,18.24 C 31.27,17.57 28.34,18.92 25.73,20.95 C 20.52,25.68 16.94,35.14 15.96,46.62 C 15.64,50.68 14.33,54.73 12.38,56.76 C 5.21,64.19 0.65,79.05 0.33,95.27 L 0 100 L 26.06 100 C 25.73,97.3 25.41,94.59 25.41,91.22 L 4.56 91.22 L 4.56 91.22" fill="#2c5967" stroke="none" stroke-width="0.5"/>
  </g>
  <g transform="translate(29.00,15.00) scale(0.2400,0.2400)">
    <path d="M 100 50 C 100,22.13 77.87,0 50,0 C 22.13,0 0,22.13 0,50 C 0,77.87 22.13,100 50,100 C 77.87,100 100,77.05 100,50 L 100 50 M 50 9.84 C 72.13,9.84 90.17,27.87 90.17,50 C 90.17,72.13 72.13,90.16 50,90.16 C 27.87,90.16 9.84,72.13 9.84,50 C 9.84,27.87 27.87,9.84 50,9.84 L 50 9.84" fill="#2c5967" stroke="none" stroke-width="0.5"/>
  </g>
  <g transform="translate(23.00,41.00) scale(0.3800,0.2000)">
    <path d="M 5.76 100 C 5.76,99 5.76,99 6.28,98 L 6.28 42 C 6.28,26 13.09,12 21.99,12 L 25.13 12 C 31.41,26 39.79,33 49.74,33 C 59.68,33 68.06,25 74.35,12 L 77.49 12 C 85.87,12 93.19,25 93.19,42 L 93.19 96 C 94.76,89 96.86,82 100,76 L 100 42 C 100,19 90.05,0 78.01,0 L 71.73 0 L 70.68 2 C 65.97,14 58.64,21 50.79,21 C 42.93,21 35.6,14 30.89,2 L 28.27 0 L 21.99 0 C 9.95,0 0,19 0,42 L 0 81 C 2.09,86 4.19,93 5.76,100 L 5.76 100" fill="#2c5967" stroke="none" stroke-width="0.5"/>
  </g>
  <g transform="translate(2.00,55.00) scale(0.2200,0.2200)">
    <path d="M 50 0 C 22.81,0 0,21.93 0,50 C 0,78.07 21.93,100 50,100 C 78.07,100 100,78.07 100,50 C 100,21.93 77.19,0 50,0 L 50 0 M 50 88.6 C 28.95,88.6 11.4,71.05 11.4,50 C 11.4,28.95 28.95,11.41 50,11.41 C 71.05,11.41 88.59,28.95 88.59,50 C 87.72,71.05 71.05,88.6 50,88.6 L 50 88.6" fill="#2c5967" stroke="none" stroke-width="0.5"/>
  </g>
  <g transform="translate(9.00,60.00) scale(0.0800,0.1200)">
    <path d="M 65.85 41.27 L 34.14 41.27 C 29.26,41.27 26.83,39.69 26.83,36.51 C 26.83,34.92 31.7,31.75 34.14,31.75 L 92.68 31.75 L 92.68 14.29 L 63.41 14.29 L 63.41 0 L 36.58 0 L 36.58 14.29 L 34.14 14.29 C 14.63,14.29 0,23.81 0,36.51 C 0,49.21 14.63,58.73 34.14,58.73 L 63.41 58.73 C 68.28,58.73 70.72,60.32 70.72,63.49 C 70.72,66.67 68.28,68.26 63.41,68.26 L 7.32 68.26 L 7.32 85.72 L 36.58 85.72 L 36.58 100 L 63.41 100 L 63.41 85.72 L 65.85 85.72 C 85.37,85.72 100,76.2 100,63.49 C 100,52.38 85.37,41.27 65.85,41.27 L 65.85 41.27" fill="#2c5967" stroke="none" stroke-width="0.5"/>
  </g>
  <g transform="translate(59.00,54.00) scale(0.2200,0.2200)">
    <path d="M 50 0 C 22.8,0 0,21.93 0,50 C 0,78.07 21.93,100 50,100 C 77.2,100 100,78.07 100,50 C 100,21.93 78.07,0 50,0 L 50 0 M 50 88.59 C 28.95,88.59 11.4,71.05 11.4,50 C 11.4,28.95 28.95,11.4 50,11.4 C 71.06,11.4 88.6,28.95 88.6,50 C 88.6,71.05 71.93,88.59 50,88.59 L 50 88.59" fill="#2c5967" stroke="none" stroke-width="0.5"/>
  </g>
  <g transform="translate(64.00,61.00) scale(0.1200,0.0900)">
    <path d="M 39.34 60.87 L 14.75 26.09 L 0 45.65 L 39.34 100 L 100 19.56 L 85.25 0 L 39.34 60.87 L 39.34 60.87" fill="#2c5967" stroke="none" stroke-width="0.5"/>
  </g>
  <g transform="translate(26.00,50.00) scale(0.3000,0.3000)">
    <path d="M 49.67 0 C 21.57,0 0,21.57 0,49.67 C 0,77.78 22.22,100 49.67,100 C 77.12,100 99.35,77.12 99.35,49.67 C 100,21.57 77.78,0 49.67,0 L 49.67 0 M 8.5 49.67 C 8.5,26.8 26.8,8.5 50.33,8.5 C 73.86,8.5 92.16,26.8 92.16,49.67 C 92.16,73.2 73.2,91.5 50.33,91.5 C 27.45,91.5 8.5,72.55 8.5,49.67 L 8.5 49.67" fill="#2c5967" stroke="none" stroke-width="0.5"/>
  </g>
  <g transform="translate(34.00,55.00) scale(0.1500,0.1700)">
    <path d="M 85.52 32.58 C 85.52,22.47 80.26,13.48 71.05,7.86 C 61.84,2.25 51.32,0 40.79,3.37 C 25,6.74 14.47,19.1 14.47,33.71 L 14.47 40.45 L 0 40.45 L 0 100 L 100 100 L 100 40.45 L 85.52 40.45 L 85.52 32.58 L 85.52 32.58 M 31.57 33.71 C 31.57,25.84 36.84,19.1 44.74,17.98 C 50,16.85 56.58,17.98 60.52,20.22 C 65.79,23.59 68.42,28.09 68.42,33.71 L 68.42 40.45 L 30.26 40.45 L 30.26 33.71 L 31.57 33.71 L 31.57 33.71 M 84.21 85.39 L 17.1 85.39 L 17.1 53.93 L 84.21 53.93 L 84.21 85.39 L 84.21 85.39" fill="#2c5967" stroke="none" stroke-width="0.5"/>
  </g>
</svg>