<svg xmlns="http://www.w3.org/2000/svg" viewBox="0 0 84.0 109.0000000000001" width="84" height="109">
  <g transform="translate(1.00,1.00) scale(0.8200,0.8200)">
    <path d="M 50.24 90.53 C 45.39,96.12 38.59,99.52 31.07,99.52 C 17.23,99.52 6.07,88.35 6.07,74.51 C 6.07,66.99 9.22,60.19 15.05,55.34 L 0 40.29 L 0 0 L 40.29 0 L 100 59.71 L 59.47 100 L 50.24 90.53 L 50.24 90.53" fill="#FFFFFF" stroke="none" stroke-width="0.5"/>
  </g>
  <g transform="translate(0.00,0.00) scale(0.8400,0.8400)">
    <path d="M 39.76 2.35 L 96.47 59.06 L 59.06 96.47 L 49.88 87.29 C 45.65,92.94 39.06,96.47 31.53,96.47 C 18.82,96.47 8.47,86.12 8.47,73.41 C 8.47,65.88 12,59.29 17.65,55.06 L 2.35 39.76 L 2.35 2.35 L 39.76 2.35 L 39.76 2.35 M 40.94 0 L 40 0 L 2.35 0 L 0 0 L 0 2.35 L 0 39.76 L 0 40.71 L 0.71 41.41 L 14.12 54.82 C 8.94,59.53 6.12,66.35 6.12,73.41 C 6.12,87.53 17.41,98.82 31.53,98.82 C 38.59,98.82 45.18,96 50.12,90.82 L 57.65 98.35 L 59.29 100 L 60.94 98.35 L 98.35 60.94 L 100 59.29 L 98.35 57.65 L 41.41 0.71 L 40.94 0 L 40.94 0" fill="#FFFFFF" stroke="none" stroke-width="0.5"/>
  </g>
  <g transform="translate(1.00,1.00) scale(0.7900,0.7900)">
    <path d="M 100 60.4 L 39.65 0 L 0 0 L 0 39.85 L 14.22 54.14 C 15.21,53.38 16.21,52.63 17.21,52.13 L 3.49 38.35 L 3.49 3.76 L 38.15 3.76 L 94.76 60.4 L 60.1 94.99 L 54.36 89.22 C 53.87,90.23 53.12,91.23 52.37,92.23 L 60.1 100 L 100 60.4 L 100 60.4" fill="#2d5967" stroke="none" stroke-width="0.5"/>
  </g>
  <g transform="translate(14.00,14.00) scale(0.1300,0.1300)">
    <path d="M 100 50 C 100,22.86 77.14,0 50,0 C 22.86,0 0,22.86 0,50 C 0,77.14 22.86,100 50,100 C 77.14,100 100,77.14 100,50 L 100 50 M 50 78.57 C 34.29,78.57 21.43,65.71 21.43,50 C 21.43,34.29 34.29,21.43 50,21.43 C 65.71,21.43 78.57,34.29 78.57,50 C 78.57,65.71 65.71,78.57 50,78.57 L 50 78.57" fill="#2d5967" stroke="none" stroke-width="0.5"/>
  </g>
  <g transform="translate(6.00,41.00) scale(0.3900,0.3900)">
    <path d="M 100 50 C 100,22.45 77.55,0 50,0 C 22.45,0 0,22.45 0,50 C 0,77.55 22.45,100 50,100 C 77.55,100 100,77.55 100,50 L 100 50 M 7.65 50 C 7.65,26.53 26.53,7.65 50,7.65 C 73.47,7.65 92.35,26.53 92.35,50 C 92.35,73.47 73.47,92.35 50,92.35 C 26.53,92.35 7.65,73.47 7.65,50 L 7.65 50" fill="#2d5967" stroke="none" stroke-width="0.5"/>
  </g>
  <g transform="translate(16.00,52.00) scale(0.1700,0.1700)">
    <path d="M 100 58.43 L 100 41.57 L 57.95 41.57 L 57.95 0 L 42.05 0 L 42.05 41.57 L 0 41.57 L 0 58.43 L 42.05 58.43 L 42.05 100 L 57.95 100 L 57.95 58.43 L 100 58.43 L 100 58.43" fill="#2d5967" stroke="none" stroke-width="0.5"/>
  </g>
</svg>