<svg xmlns="http://www.w3.org/2000/svg" viewBox="0 0 79.0 109.0000000000001" width="79" height="109">
  <g transform="translate(13.00,1.00) scale(0.7700,0.8300)">
    <path d="M 67.02 99.51 L 67.02 70.15 L 80.37 70.15 L 80.37 59.71 L 68.33 59.71 C 66.75,67.96 59.16,74.27 49.74,74.27 C 40.58,74.27 32.72,68.2 31.15,59.71 L 19.63 59.71 L 19.63 70.15 L 32.98 70.15 L 32.98 99.51 L 0 99.51 L 0 70.15 L 13.35 70.15 L 13.35 59.71 L 0 59.71 L 0 53.88 L 31.41 53.88 C 32.72,46.6 39.01,40.78 46.86,39.56 L 46.86 29.13 L 33.51 29.13 L 33.51 0 L 66.49 0 L 66.49 29.37 L 53.14 29.37 L 53.14 40.05 C 60.99,41.26 67.02,47.09 68.33,54.37 L 100 54.37 L 100 60.19 L 86.65 60.19 L 86.65 70.63 L 100 70.63 L 100 100 L 67.02 100 L 67.02 99.51 L 67.02 99.51" fill="#FFFFFF" stroke="none" stroke-width="0.5"/>
  </g>
  <g transform="translate(12.00,0.00) scale(0.7900,0.8400)">
    <path d="M 64.63 2.38 L 64.63 28.81 L 51.65 28.81 L 51.65 41.43 C 59.54,42.14 65.9,48.1 66.67,55.48 L 97.2 55.48 L 97.2 58.81 L 84.22 58.81 L 84.22 71.43 L 97.2 71.43 L 97.2 97.62 L 67.68 97.62 L 67.68 71.19 L 80.66 71.19 L 80.66 58.57 L 66.67 58.57 C 65.65,66.43 58.52,72.86 49.87,72.86 C 41.22,72.86 33.84,66.67 33.08,58.57 L 19.08 58.57 L 19.08 71.19 L 32.06 71.19 L 32.06 97.62 L 2.54 97.62 L 2.54 71.19 L 15.52 71.19 L 15.52 58.57 L 2.54 58.57 L 2.54 55.24 L 32.82 55.24 C 33.59,47.86 39.95,41.9 48.09,41.19 L 48.09 28.57 L 35.11 28.57 L 35.11 2.38 L 64.63 2.38 L 64.63 2.38 M 67.18 0 L 64.63 0 L 35.11 0 L 32.57 0 L 32.57 2.38 L 32.57 28.81 L 32.57 31.19 L 35.11 31.19 L 45.55 31.19 L 45.55 39.29 C 38.17,40.71 32.32,46.19 30.79,53.1 L 2.54 53.1 L 0 53.1 L 0 55.48 L 0 58.81 L 0 61.19 L 2.54 61.19 L 12.98 61.19 L 12.98 69.05 L 2.54 69.05 L 0 69.05 L 0 71.43 L 0 97.62 L 0 100 L 2.54 100 L 32.06 100 L 34.61 100 L 34.61 97.62 L 34.61 71.19 L 34.61 68.81 L 32.06 68.81 L 21.63 68.81 L 21.63 60.95 L 30.79 60.95 C 32.82,69.05 40.71,75.24 49.87,75.24 C 59.03,75.24 66.92,69.29 68.96,60.95 L 78.37 60.95 L 78.37 68.81 L 67.94 68.81 L 65.39 68.81 L 65.39 71.19 L 65.39 97.62 L 65.39 100 L 67.94 100 L 97.45 100 L 100 100 L 100 97.62 L 100 71.19 L 100 68.81 L 97.45 68.81 L 87.02 68.81 L 87.02 60.95 L 97.45 60.95 L 100 60.95 L 100 58.57 L 100 55.24 L 100 52.86 L 97.45 52.86 L 68.7 52.86 C 67.18,46.19 61.32,40.71 54.2,39.05 L 54.2 30.71 L 64.63 30.71 L 67.18 30.71 L 67.18 28.33 L 67.18 2.38 L 67.18 0 L 67.18 0" fill="#FFFFFF" stroke="none" stroke-width="0.5"/>
  </g>
  <g transform="translate(39.00,2.00) scale(0.2300,0.3000)">
    <path d="M 43.96 100 L 56.03 100 L 56.03 72.55 L 100 72.55 L 100 0 L 0 0 L 0 72.55 L 43.96 72.55 L 43.96 100 L 43.96 100 M 12.07 9.15 L 87.93 9.15 L 87.93 62.74 L 12.07 62.74 L 12.07 9.15 L 12.07 9.15" fill="#2c5967" stroke="none" stroke-width="0.5"/>
  </g>
  <g transform="translate(14.00,46.00) scale(0.2300,0.3500)">
    <path d="M 56.04 7.91 L 93.96 7.91 L 93.96 0 L 0 0 L 0 7.91 L 43.96 7.91 L 43.96 37.85 L 0 37.85 L 0 100 L 100 100 L 100 37.29 L 56.04 37.29 L 56.04 7.91 L 56.04 7.91 M 87.93 92.09 L 12.07 92.09 L 12.07 45.76 L 87.93 45.76 L 87.93 92.09 L 87.93 92.09" fill="#2c5967" stroke="none" stroke-width="0.5"/>
  </g>
  <g transform="translate(65.00,46.00) scale(0.2300,0.3500)">
    <path d="M 100 7.91 L 100 0 L 6.03 0 L 6.03 7.91 L 43.97 7.91 L 43.97 37.85 L 0 37.85 L 0 100 L 100 100 L 100 37.29 L 56.04 37.29 L 56.04 7.34 L 100 7.34 L 100 7.91 L 100 7.91 M 87.93 92.09 L 12.07 92.09 L 12.07 45.76 L 87.93 45.76 L 87.93 92.09 L 87.93 92.09" fill="#2c5967" stroke="none" stroke-width="0.5"/>
  </g>
  <g transform="translate(38.00,34.00) scale(0.2700,0.2700)">
    <path d="M 50 0 C 22.39,0 0,22.39 0,50 C 0,77.61 22.39,100 50,100 C 77.61,100 100,77.61 100,50 C 100,22.39 76.86,0 50,0 L 50 0 M 50 88.81 C 28.36,88.81 10.45,70.9 10.45,49.25 C 10.45,27.61 28.36,9.7 50,9.7 C 71.64,9.7 89.55,27.61 89.55,49.25 C 89.55,70.9 71.64,88.81 50,88.81 L 50 88.81" fill="#2c5967" stroke="none" stroke-width="0.5"/>
  </g>
  <g transform="translate(43.00,40.00) scale(0.1600,0.1600)">
    <path d="M 85.19 32.1 L 92.59 22.22 L 77.78 7.41 L 67.9 14.81 C 65.44,13.58 64.2,12.35 61.73,12.35 L 60.5 0 L 39.51 0 L 38.28 12.35 C 35.8,13.58 34.57,13.58 32.1,14.81 L 22.22 7.41 L 7.41 22.22 L 14.82 32.1 C 13.58,34.57 12.35,35.8 12.35,38.27 L 0 39.51 L 0 60.5 L 12.35 61.73 C 13.58,64.2 13.58,65.43 14.82,67.9 L 7.41 77.78 L 22.22 92.59 L 32.1 85.19 C 34.57,86.42 35.8,87.66 38.28,87.66 L 39.51 100 L 60.5 100 L 61.73 87.66 C 64.2,86.42 65.44,86.42 67.9,85.19 L 77.78 92.59 L 92.59 77.78 L 85.19 67.9 C 86.42,65.43 87.66,64.2 87.66,61.73 L 100 60.5 L 100 39.51 L 87.66 38.27 C 87.66,35.8 86.42,34.57 85.19,32.1 L 85.19 32.1 M 50.62 71.61 C 38.28,71.61 28.4,61.73 28.4,49.38 C 28.4,37.04 38.28,27.16 50.62,27.16 C 62.97,27.16 72.84,37.04 72.84,49.38 C 72.84,61.73 61.73,71.61 50.62,71.61 L 50.62 71.61" fill="#2c5967" stroke="none" stroke-width="0.5"/>
  </g>
</svg>