<svg xmlns="http://www.w3.org/2000/svg" viewBox="0 0 70.0 125.00000000000017" width="70" height="125">
  <g transform="translate(27.00,44.00) scale(0.2100,0.3600)">
    <path d="M 50.05 0 C 22.43,0 0,13.27 0,29.61 C 0,40.03 9.11,49.19 22.92,54.46 L 22.92 100 L 50.05 89.11 L 77.18 99.94 L 77.18 54.4 C 90.89,49.13 100,39.98 100,29.61 C 100,13.27 77.57,0 49.95,0 L 50.05 0 L 50.05 0 M 44.08 82.91 L 35.06 86.5 L 35.06 57.76 C 38,58.28 40.94,58.69 44.08,58.92 L 44.08 82.91 L 44.08 82.91 M 65.14 86.5 L 56.12 82.91 L 56.12 58.92 C 59.26,58.69 62.19,58.28 65.14,57.76 L 65.14 86.5 L 65.14 86.5 M 50.05 52.03 C 29.09,52.03 12.15,41.95 12.15,29.61 C 12.15,17.27 29.19,7.18 50.05,7.18 C 70.91,7.18 87.96,17.27 87.96,29.61 C 87.96,41.95 70.91,52.03 50.05,52.03 L 50.05 52.03" fill="#2c5a67" stroke="none" stroke-width="0.5"/>
  </g>
  <g transform="translate(48.00,19.00) scale(0.0500,0.0500)">
    <path d="M 0 100 L 100 100 L 0 0 L 0 100 L 0 100" fill="#FFFFFF" stroke="none" stroke-width="0.5"/>
  </g>
  <g transform="translate(32.00,2.00) scale(0.1200,0.1100)">
    <path d="M 40.06 100 L 60.43 100 L 60.43 45.32 L 85.26 74.53 L 100 58.61 L 50.33 0 L 0 58.61 L 14.73 74.72 L 40.06 45.13 L 40.06 100 L 40.06 100" fill="#2c5a67" stroke="none" stroke-width="0.5"/>
  </g>
  <g transform="translate(59.00,35.00) scale(0.1100,0.1200)">
    <path d="M 23.7 14.59 L 53.92 39.97 L 0 39.97 L 0 60.36 L 53.73 60.36 L 23.7 85.24 L 40.15 100 L 100 50.25 L 40.15 0 L 23.7 14.59 L 23.7 14.59" fill="#2c5a67" stroke="none" stroke-width="0.5"/>
  </g>
  <g transform="translate(3.00,0.00) scale(0.7000,0.8400)">
    <path d="M 97.94 48.16 L 88.58 40.59 L 86.61 38.98 L 84.7 40.64 L 82.13 42.84 L 80.39 44.34 L 80.39 28.58 L 79.59 27.91 L 67.04 17.38 L 66.23 16.7 L 56.22 16.7 L 56.31 16.55 L 58.31 14.95 L 60.97 12.83 L 62.97 11.23 L 61.06 9.55 L 52.09 1.73 L 50.12 0 L 48.12 1.73 L 39.06 9.55 L 37.15 11.2 L 39.12 12.8 L 41.75 14.95 L 43.72 16.55 L 43.81 16.68 L 19.69 16.68 L 19.69 44.49 L 17.87 42.89 L 15.33 40.66 L 13.42 38.98 L 11.42 40.59 L 2.06 48.09 L 0 49.74 L 2.06 51.41 L 11.42 58.99 L 13.39 60.59 L 15.3 58.94 L 17.87 56.74 L 19.69 55.16 L 19.69 79.87 L 39.06 79.87 L 39.06 100 L 43.4 97.55 L 50.12 93.72 L 56.84 97.53 L 61.15 99.95 L 61.15 79.82 L 80.39 79.82 L 80.39 55.14 L 82.13 56.64 L 84.67 58.86 L 86.58 60.54 L 88.58 58.94 L 97.94 51.44 L 100 49.79 L 97.94 48.11 L 97.94 48.16 L 97.94 48.16 M 19.67 51.34 L 11.18 51.34 L 15.87 55.16 L 13.3 57.36 L 3.94 49.79 L 13.3 42.29 L 15.84 44.51 L 11.18 48.26 L 19.64 48.26 L 19.64 51.34 L 19.67 51.34 L 19.67 51.34 M 43.66 13.3 L 41.03 11.15 L 50.09 3.33 L 59.05 11.15 L 56.4 13.28 L 51.94 9.38 L 51.94 16.65 L 48.27 16.65 L 48.27 9.35 L 43.69 13.3 L 43.66 13.3 L 43.66 13.3 M 58.4 75.99 L 58.4 95.65 L 50.12 90.97 L 41.84 95.67 L 41.84 76.02 C 37.63,73.74 34.85,69.79 34.85,65.29 C 34.85,58.24 41.69,52.51 50.12,52.51 C 58.55,52.51 65.39,58.24 65.39,65.29 C 65.39,69.77 62.61,73.72 58.43,75.99 L 58.4 75.99 L 58.4 75.99 M 33.53 49.81 L 33.53 46.74 L 66.68 46.74 L 66.68 49.79 L 33.5 49.79 L 33.53 49.81 L 33.53 49.81 M 33.53 40.94 L 33.53 37.86 L 66.68 37.86 L 66.68 40.91 L 33.5 40.91 L 33.53 40.94 L 33.53 40.94 M 77.65 77.6 L 61.15 77.6 L 61.15 77.24 C 62.37,76.44 63.45,75.54 64.37,74.52 L 73.94 74.52 L 73.94 32.71 L 61.15 32.71 L 61.15 22.08 L 26.15 22.08 L 26.15 74.49 L 35.83 74.49 C 36.76,75.49 37.84,76.39 39.06,77.19 L 39.06 77.57 L 22.44 77.57 L 22.44 19 L 65.06 19 L 77.62 29.53 L 77.62 77.52 L 77.65 77.6 L 77.65 77.6 M 86.67 57.36 L 84.13 55.14 L 88.79 51.41 L 80.42 51.41 L 80.42 48.34 L 88.85 48.34 L 84.13 44.51 L 86.7 42.31 L 96.06 49.89 L 86.7 57.39 L 86.67 57.36 L 86.67 57.36" fill="#FFFFFF" stroke="none" stroke-width="0.5"/>
  </g>
  <g transform="translate(5.00,35.00) scale(0.1100,0.1200)">
    <path d="M 75.81 14.76 L 59.62 0 L 0 49.75 L 59.62 100 L 76 85.41 L 45.91 60.03 L 100 60.03 L 100 39.64 L 46.1 39.64 L 75.81 14.76 L 75.81 14.76" fill="#2c5a67" stroke="none" stroke-width="0.5"/>
  </g>
  <g transform="translate(18.00,16.00) scale(0.3900,0.4900)">
    <path d="M 0 0 L 0 100 L 30.05 100 L 30.05 99.32 C 27.83,97.95 25.88,96.41 24.2,94.71 L 6.66 94.71 L 6.66 5.25 L 70.11 5.25 L 70.11 23.39 L 93.29 23.39 L 93.29 94.62 L 75.96 94.62 C 74.28,96.37 72.33,97.91 70.11,99.27 L 70.11 99.91 L 100 99.91 L 100 17.97 L 77.26 0 L 0 0 L 0 0 M 76.77 18.14 L 76.77 7.13 L 90.69 18.14 L 76.77 18.14 L 76.77 18.14" fill="#2c5a67" stroke="none" stroke-width="0.5"/>
  </g>
  <g transform="translate(26.00,39.00) scale(0.2300,0.0200)">
    <path d="M 100 0 L 0 0 L 0 100 L 100 100 L 100 0 L 100 0" fill="#2c5a67" stroke="none" stroke-width="0.5"/>
  </g>
  <g transform="translate(26.00,32.00) scale(0.2300,0.0200)">
    <path d="M 100 0 L 0 0 L 0 100 L 100 100 L 100 0 L 100 0" fill="#2c5a67" stroke="none" stroke-width="0.5"/>
  </g>
  <g transform="translate(35.00,65.00) scale(0.0100,0.1000)">
    <path d="M 0 100 L 100 87.5 L 100 4.03 C 65.18,3.23 32.59,2.02 0,0 L 0 100 L 0 100" fill="#FFFFFF" stroke="none" stroke-width="0.5"/>
  </g>
  <g transform="translate(39.00,65.00) scale(0.0100,0.1000)">
    <path d="M 0 87.5 L 100 100 L 100 0 C 68.48,1.81 34.78,3.23 0,4.03 L 0 87.5 L 0 87.5" fill="#FFFFFF" stroke="none" stroke-width="0.5"/>
  </g>
  <g transform="translate(30.00,47.00) scale(0.1600,0.1600)">
    <path d="M 50 0 C 22.35,0 0,22.48 0,50 C 0,77.52 22.48,100 50,100 C 77.52,100 100,77.52 100,50 C 100,22.48 77.52,0 50,0 L 50 0 M 39.15 85.4 L 12.15 58.4 L 23.39 47.16 L 39.15 62.92 L 74.16 27.78 L 85.4 39.02 L 39.15 85.4 L 39.15 85.4" fill="#FFFFFF" stroke="none" stroke-width="0.5"/>
  </g>
  <g transform="translate(32.00,51.00) scale(0.1200,0.0900)">
    <path d="M 36.79 60.76 L 15.5 33.64 L 0 53.14 L 36.97 100 L 100 19.28 L 84.51 0 L 36.79 60.76 L 36.79 60.76" fill="#2c5a67" stroke="none" stroke-width="0.5"/>
  </g>
</svg>